<?xml version="1.0" encoding="utf-8"?>
<!-- Generator: Adobe Illustrator 26.2.1, SVG Export Plug-In . SVG Version: 6.00 Build 0)  -->
<svg version="1.1" id="Layer_1" xmlns="http://www.w3.org/2000/svg" xmlns:xlink="http://www.w3.org/1999/xlink" x="0px" y="0px"
	 viewBox="0 0 512 512" style="enable-background:new 0 0 512 512;" xml:space="preserve">
<style type="text/css">
	.st0{fill:#0F2132;}
	.st1{fill:#FFFFFF;}
</style>
<rect class="st0" width="512" height="512"/>
<path d="M1291.6,332.8c4.7,0,8.5-3.8,8.5-8.5v-42.7h8.5c4.7,0,8.5-3.8,8.5-8.5s-3.8-8.5-8.5-8.5h-8.5V239c0-4.7-3.8-8.5-8.5-8.5
	s-8.5,3.8-8.5,8.5v85.3C1283.1,329,1286.9,332.8,1291.6,332.8z"/>
<path d="M1675.6,614.4H1650v-8.5c0-4.7-3.8-8.5-8.5-8.5s-8.5,3.8-8.5,8.5v8.5h-42.7c-4.7,0-8.5,3.8-8.5,8.5s3.8,8.5,8.5,8.5h85.3
	c4.7,0,8.5-3.8,8.5-8.5C1684.1,618.2,1680.3,614.4,1675.6,614.4z"/>
<path d="M1266,691.2h-8.5c-4.7,0-8.5,3.8-8.5,8.5s3.8,8.5,8.5,8.5h8.5c4.7,0,8.5-3.8,8.5-8.5S1270.7,691.2,1266,691.2z"/>
<path d="M1308.7,691.2h-8.5c-4.7,0-8.5,3.8-8.5,8.5s3.8,8.5,8.5,8.5h8.5c4.7,0,8.5-3.8,8.5-8.5S1313.4,691.2,1308.7,691.2z"/>
<path d="M1351.3,691.2h-8.5c-4.7,0-8.5,3.8-8.5,8.5s3.8,8.5,8.5,8.5h8.5c4.7,0,8.5-3.8,8.5-8.5C1359.9,695,1356,691.2,1351.3,691.2z
	"/>
<path d="M1394,691.2h-8.5c-4.7,0-8.5,3.8-8.5,8.5s3.8,8.5,8.5,8.5h8.5c4.7,0,8.5-3.8,8.5-8.5S1398.7,691.2,1394,691.2z"/>
<path d="M1436.7,691.2h-8.5c-4.7,0-8.5,3.8-8.5,8.5s3.8,8.5,8.5,8.5h8.5c4.7,0,8.5-3.8,8.5-8.5S1441.4,691.2,1436.7,691.2z"/>
<path d="M1479.3,691.2h-8.5c-4.7,0-8.5,3.8-8.5,8.5s3.8,8.5,8.5,8.5h8.5c4.7,0,8.5-3.8,8.5-8.5C1487.9,695,1484,691.2,1479.3,691.2z
	"/>
<path d="M1522,691.2h-8.5c-4.7,0-8.5,3.8-8.5,8.5s3.8,8.5,8.5,8.5h8.5c4.7,0,8.5-3.8,8.5-8.5S1526.7,691.2,1522,691.2z"/>
<path d="M1564.7,691.2h-8.5c-4.7,0-8.5,3.8-8.5,8.5s3.8,8.5,8.5,8.5h8.5c4.7,0,8.5-3.8,8.5-8.5S1569.4,691.2,1564.7,691.2z"/>
<path d="M1607.3,691.2h-8.5c-4.7,0-8.5,3.8-8.5,8.5s3.8,8.5,8.5,8.5h8.5c4.7,0,8.5-3.8,8.5-8.5C1615.9,695,1612,691.2,1607.3,691.2z
	"/>
<path d="M1675.6,691.2h-34.1c-4.7,0-8.5,3.8-8.5,8.5v34.1c0,4.7,3.8,8.5,8.5,8.5s8.5-3.8,8.5-8.5v-25.6h25.6c4.7,0,8.5-3.8,8.5-8.5
	S1680.3,691.2,1675.6,691.2z"/>
<path d="M1598.8,281.6h8.5c4.7,0,8.5-3.8,8.5-8.5s-3.8-8.5-8.5-8.5h-8.5c-4.7,0-8.5,3.8-8.5,8.5
	C1590.3,277.8,1594.1,281.6,1598.8,281.6z"/>
<path d="M1564.7,264.5h-8.5c-4.7,0-8.5,3.8-8.5,8.5s3.8,8.5,8.5,8.5h8.5c4.7,0,8.5-3.8,8.5-8.5
	C1573.2,268.4,1569.4,264.5,1564.7,264.5z"/>
<path d="M1513.5,281.6h8.5c4.7,0,8.5-3.8,8.5-8.5s-3.8-8.5-8.5-8.5h-8.5c-4.7,0-8.5,3.8-8.5,8.5
	C1504.9,277.8,1508.7,281.6,1513.5,281.6z"/>
<path d="M1470.8,281.6h8.5c4.7,0,8.5-3.8,8.5-8.5s-3.8-8.5-8.5-8.5h-8.5c-4.7,0-8.5,3.8-8.5,8.5
	C1462.3,277.8,1466.1,281.6,1470.8,281.6z"/>
<path d="M1428.1,281.6h8.5c4.7,0,8.5-3.8,8.5-8.5s-3.8-8.5-8.5-8.5h-8.5c-4.7,0-8.5,3.8-8.5,8.5
	C1419.6,277.8,1423.4,281.6,1428.1,281.6z"/>
<path d="M1385.5,281.6h8.5c4.7,0,8.5-3.8,8.5-8.5s-3.8-8.5-8.5-8.5h-8.5c-4.7,0-8.5,3.8-8.5,8.5
	C1376.9,277.8,1380.7,281.6,1385.5,281.6z"/>
<path d="M1342.8,281.6h8.5c4.7,0,8.5-3.8,8.5-8.5s-3.8-8.5-8.5-8.5h-8.5c-4.7,0-8.5,3.8-8.5,8.5
	C1334.3,277.8,1338.1,281.6,1342.8,281.6z"/>
<path d="M1257.5,281.6c4.7,0,8.5-3.8,8.5-8.5s-3.8-8.5-8.5-8.5h-8.5c-4.7,0-8.5,3.8-8.5,8.5s3.8,8.5,8.5,8.5H1257.5z"/>
<path d="M1641.5,281.6h34.1c4.7,0,8.5-3.8,8.5-8.5s-3.8-8.5-8.5-8.5H1650V239c0-4.7-3.8-8.5-8.5-8.5s-8.5,3.8-8.5,8.5v34.1
	C1632.9,277.8,1636.7,281.6,1641.5,281.6z"/>
<path d="M1214.8,230.4c-4.7,0-8.5,3.8-8.5,8.5v25.6h-25.6c-4.7,0-8.5,3.8-8.5,8.5s3.8,8.5,8.5,8.5h34.1c4.7,0,8.5-3.8,8.5-8.5v-34.1
	C1223.3,234.2,1219.5,230.4,1214.8,230.4z"/>
<path d="M1214.8,307.2c-4.7,0-8.5,3.8-8.5,8.5v8.5c0,4.7,3.8,8.5,8.5,8.5s8.5-3.8,8.5-8.5v-8.5
	C1223.3,311,1219.5,307.2,1214.8,307.2z"/>
<path d="M1214.8,349.9c-4.7,0-8.5,3.8-8.5,8.5v8.5c0,4.7,3.8,8.5,8.5,8.5s8.5-3.8,8.5-8.5v-8.5
	C1223.3,353.7,1219.5,349.9,1214.8,349.9z"/>
<path d="M1214.8,392.5c-4.7,0-8.5,3.8-8.5,8.5v8.5c0,4.7,3.8,8.5,8.5,8.5s8.5-3.8,8.5-8.5V401
	C1223.3,396.4,1219.5,392.5,1214.8,392.5z"/>
<path d="M1214.8,435.2c-4.7,0-8.5,3.8-8.5,8.5v8.5c0,4.7,3.8,8.5,8.5,8.5s8.5-3.8,8.5-8.5v-8.5
	C1223.3,439,1219.5,435.2,1214.8,435.2z"/>
<path d="M1214.8,477.9c-4.7,0-8.5,3.8-8.5,8.5v8.5c0,4.7,3.8,8.5,8.5,8.5s8.5-3.8,8.5-8.5v-8.5
	C1223.3,481.7,1219.5,477.9,1214.8,477.9z"/>
<path d="M1214.8,520.5c-4.7,0-8.5,3.8-8.5,8.5v8.5c0,4.7,3.8,8.5,8.5,8.5s8.5-3.8,8.5-8.5V529
	C1223.3,524.4,1219.5,520.5,1214.8,520.5z"/>
<path d="M1214.8,563.2c-4.7,0-8.5,3.8-8.5,8.5v8.5c0,4.7,3.8,8.5,8.5,8.5s8.5-3.8,8.5-8.5v-8.5
	C1223.3,567,1219.5,563.2,1214.8,563.2z"/>
<path d="M1214.8,605.9c-4.7,0-8.5,3.8-8.5,8.5v8.5c0,4.7,3.8,8.5,8.5,8.5s8.5-3.8,8.5-8.5v-8.5
	C1223.3,609.7,1219.5,605.9,1214.8,605.9z"/>
<path d="M1214.8,648.5c-4.7,0-8.5,3.8-8.5,8.5v8.5c0,4.7,3.8,8.5,8.5,8.5s8.5-3.8,8.5-8.5V657
	C1223.3,652.4,1219.5,648.5,1214.8,648.5z"/>
<path d="M1641.5,324.3c4.7,0,8.5-3.8,8.5-8.5v-8.5c0-4.7-3.8-8.5-8.5-8.5s-8.5,3.8-8.5,8.5v8.5
	C1632.9,320.4,1636.7,324.3,1641.5,324.3z"/>
<path d="M1641.5,366.9c4.7,0,8.5-3.8,8.5-8.5v-8.5c0-4.7-3.8-8.5-8.5-8.5s-8.5,3.8-8.5,8.5v8.5
	C1632.9,363.1,1636.7,366.9,1641.5,366.9z"/>
<path d="M1641.5,409.6c4.7,0,8.5-3.8,8.5-8.5v-8.5c0-4.7-3.8-8.5-8.5-8.5s-8.5,3.8-8.5,8.5v8.5
	C1632.9,405.8,1636.7,409.6,1641.5,409.6z"/>
<path d="M1641.5,452.3c4.7,0,8.5-3.8,8.5-8.5v-8.5c0-4.7-3.8-8.5-8.5-8.5s-8.5,3.8-8.5,8.5v8.5
	C1632.9,448.4,1636.7,452.3,1641.5,452.3z"/>
<path d="M1641.5,494.9c4.7,0,8.5-3.8,8.5-8.5v-8.5c0-4.7-3.8-8.5-8.5-8.5s-8.5,3.8-8.5,8.5v8.5
	C1632.9,491.1,1636.7,494.9,1641.5,494.9z"/>
<path d="M1641.5,537.6c4.7,0,8.5-3.8,8.5-8.5v-8.5c0-4.7-3.8-8.5-8.5-8.5s-8.5,3.8-8.5,8.5v8.5
	C1632.9,533.8,1636.7,537.6,1641.5,537.6z"/>
<path d="M1641.5,580.3c4.7,0,8.5-3.8,8.5-8.5v-8.5c0-4.7-3.8-8.5-8.5-8.5s-8.5,3.8-8.5,8.5v8.5
	C1632.9,576.4,1636.7,580.3,1641.5,580.3z"/>
<path d="M1641.5,674.1c4.7,0,8.5-3.8,8.5-8.5v-8.5c0-4.7-3.8-8.5-8.5-8.5s-8.5,3.8-8.5,8.5v8.5
	C1632.9,670.3,1636.7,674.1,1641.5,674.1z"/>
<path d="M1214.8,691.2h-34.1c-4.7,0-8.5,3.8-8.5,8.5s3.8,8.5,8.5,8.5h25.6v25.6c0,4.7,3.8,8.5,8.5,8.5s8.5-3.8,8.5-8.5v-34.1
	C1223.3,695,1219.5,691.2,1214.8,691.2z"/>
<path class="st1" d="M437.4,437.4V74.5c0-5.9-4.8-10.7-10.7-10.7H85.2c-5.9,0-10.7,4.8-10.7,10.7v362.9c0,5.9,4.8,10.7,10.7,10.7
	h341.5C432.6,448,437.4,443.3,437.4,437.4z M393.9,302.7c-0.5,1.3-1.3,2.5-2.3,3.5l-32,32c-2.1,2.1-4.8,3.1-7.5,3.1s-5.5-1-7.5-3.1
	c-4.2-4.2-4.2-10.9,0-15.1l13.8-13.8h-48.9v59.6l13.8-13.8c4.2-4.2,10.9-4.2,15.1,0s4.2,10.9,0,15.1l-32,32c-1,1-2.2,1.8-3.5,2.3
	s-2.7,0.8-4.1,0.8s-2.8-0.3-4.1-0.8c-1.3-0.5-2.5-1.3-3.5-2.3l-32-32c-4.2-4.2-4.2-10.9,0-15.1c4.2-4.2,10.9-4.2,15.1,0l13.8,13.8
	v-59.6h-145l13.8,13.8c4.2,4.2,4.2,10.9,0,15.1c-2.1,2.1-4.8,3.1-7.5,3.1s-5.5-1-7.5-3.1l-32-32c-1-1-1.8-2.2-2.3-3.5
	c-1.1-2.6-1.1-5.5,0-8.2c0.5-1.3,1.3-2.5,2.3-3.5l32-32c4.2-4.2,10.9-4.2,15.1,0c4.2,4.2,4.2,10.9,0,15.1l-13.8,13.8h145V132.3
	l-13.8,13.8c-4.2,4.2-10.9,4.2-15.1,0c-4.2-4.2-4.2-10.9,0-15.1l32-32c1-1,2.2-1.8,3.5-2.3c2.6-1.1,5.5-1.1,8.2,0
	c1.3,0.5,2.5,1.3,3.5,2.3l32,32c4.2,4.2,4.2,10.9,0,15.1c-2.1,2.1-4.8,3.1-7.5,3.1s-5.5-1-7.5-3.1l-13.8-13.8V288h48.9l-13.8-13.8
	c-4.2-4.2-4.2-10.9,0-15.1c4.2-4.2,10.9-4.2,15.1,0l32,32c1,1,1.8,2.2,2.3,3.5C394.9,297.2,394.9,300.1,393.9,302.7z"/>
</svg>
