<?xml version="1.0" encoding="utf-8"?>
<!-- Generator: Adobe Illustrator 26.2.1, SVG Export Plug-In . SVG Version: 6.00 Build 0)  -->
<svg version="1.1" id="Capa_1" xmlns="http://www.w3.org/2000/svg" xmlns:xlink="http://www.w3.org/1999/xlink" x="0px" y="0px"
	 viewBox="0 0 409.6 409.6" style="enable-background:new 0 0 409.6 409.6;" xml:space="preserve">
<style type="text/css">
	.st0{fill:#0F2132;}
	.st1{fill:#FFFFFF;}
</style>
<rect class="st0" width="409.6" height="409.6"/>
<g>
	<g>
		<g>
			<path class="st1" d="M35.4,118.4v255.8h98.8V99.9L35.4,118.4z M106,345.9H63.7v-28.2H106V345.9z M106,289.5H63.7v-28.2H106V289.5
				z M106,233.1H63.7v-28.2H106V233.1z M106,176.7H63.7v-28.2H106V176.7z"/>
		</g>
	</g>
	<g>
		<g>
			<path class="st1" d="M162.5,35.5v338.7h211.7v-299L162.5,35.5z M247.1,345.9h-42.3v-28.2h42.3V345.9z M247.1,289.5h-42.3v-28.2
				h42.3V289.5z M247.1,233.1h-42.3v-28.2h42.3V233.1z M247.1,176.7h-42.3v-28.2h42.3V176.7z M247.1,120.1h-42.3V91.9h42.3V120.1z
				 M331.8,345.9h-42.3v-28.2h42.3V345.9z M331.8,289.5h-42.3v-28.2h42.3V289.5z M331.8,233.1h-42.3v-28.2h42.3V233.1z M331.8,176.7
				h-42.3v-28.2h42.3V176.7z"/>
		</g>
	</g>
</g>
</svg>
