<?xml version="1.0" encoding="utf-8"?>
<!-- Generator: Adobe Illustrator 26.2.1, SVG Export Plug-In . SVG Version: 6.00 Build 0)  -->
<svg version="1.1" id="Layer_1" xmlns="http://www.w3.org/2000/svg" xmlns:xlink="http://www.w3.org/1999/xlink" x="0px" y="0px"
	 viewBox="0 0 512 512" style="enable-background:new 0 0 512 512;" xml:space="preserve">
<style type="text/css">
	.st0{fill:#0F2132;}
	.st1{fill:#FFFFFF;}
</style>
<rect class="st0" width="512" height="512"/>
<g>
	<g>
		<g>
			<path class="st1" d="M107.5,377.7c-2.6-2.6-6.8-2.6-9.4,0l-8.6,8.6V78.8l8.6,8.6c1.3,1.3,3,2,4.7,2s3.4-0.7,4.7-2
				c2.6-2.6,2.6-6.8,0-9.4l-20-20c-0.6-0.6-1.4-1.1-2.2-1.4c-1.6-0.7-3.5-0.7-5.1,0c-0.8,0.3-1.6,0.8-2.2,1.4L58,78
				c-2.6,2.6-2.6,6.8,0,9.4s6.8,2.6,9.4,0l8.6-8.6v307.5l-8.6-8.6c-2.6-2.6-6.8-2.6-9.4,0c-2.6,2.6-2.6,6.8,0,9.4l20,20
				c0.6,0.6,1.4,1.1,2.2,1.4c0.8,0.3,1.7,0.5,2.5,0.5c0.9,0,1.7-0.2,2.5-0.5s1.6-0.8,2.2-1.4l20-20
				C110.1,384.6,110.1,380.3,107.5,377.7z"/>
			<path class="st1" d="M453.9,424.4l-20-20c-2.6-2.6-6.8-2.6-9.4,0s-2.6,6.8,0,9.4l8.6,8.6H125.6l8.6-8.6c2.6-2.6,2.6-6.8,0-9.4
				s-6.8-2.6-9.4,0l-20,20c-0.6,0.6-1.1,1.4-1.4,2.2c-0.7,1.6-0.7,3.5,0,5.1c0.3,0.8,0.8,1.6,1.4,2.2l20,20c1.3,1.3,3,2,4.7,2
				c1.7,0,3.4-0.7,4.7-2c2.6-2.6,2.6-6.8,0-9.4l-8.6-8.6h307.5l-8.6,8.6c-2.6,2.6-2.6,6.8,0,9.4c1.3,1.3,3,2,4.7,2s3.4-0.7,4.7-2
				l20-20c0.6-0.6,1.1-1.4,1.4-2.2c0.7-1.6,0.7-3.5,0-5.1C455,425.7,454.5,425,453.9,424.4z"/>
			<path class="st1" d="M202.4,282.5h-79.6v66.6h6.7C167.6,349.1,199,319.8,202.4,282.5z"/>
			<path class="st1" d="M455.8,136V62.8c0-3.7-3-6.7-6.7-6.7H329.3V136h20v-6.7c0-3.7,3-6.7,6.7-6.7s6.7,3,6.7,6.7v26.6
				c0,3.7-3,6.7-6.7,6.7s-6.7-3-6.7-6.7v-6.7h-26.6c-3.7,0-6.7-3-6.7-6.7V56.1h-60v53.3h6.7c3.7,0,6.7,3,6.7,6.7s-3,6.7-6.7,6.7H236
				c-3.7,0-6.7-3-6.7-6.7s3-6.7,6.7-6.7h6.7V56.1H129.5c-3.7,0-6.7,3-6.7,6.7v153.1h119.9v-40H236c-3.7,0-6.7-3-6.7-6.7
				s3-6.7,6.7-6.7h26.6c3.7,0,6.7,3,6.7,6.7s-3,6.7-6.7,6.7H256v46.6c0,3.7-3,6.7-6.7,6.7H122.8v40h86.6c3.7,0,6.7,3,6.7,6.7
				c0,47.7-38.8,86.6-86.6,86.6h-6.7v20c0,3.7,3,6.7,6.7,6.7h153.2V262.6c0-3.7,3-6.7,6.7-6.7H336v-6.7c0-3.7,3-6.7,6.7-6.7
				s6.7,3,6.7,6.7v26.7c0,3.7-3,6.7-6.7,6.7s-6.7-3-6.7-6.7v-6.7h-40v119.9h153.2c3.7,0,6.7-3,6.7-6.7V269.2h-53.3v6.7
				c0,3.7-3,6.7-6.7,6.7s-6.7-3-6.7-6.7v-26.6c0-3.7,3-6.7,6.7-6.7s6.7,3,6.7,6.7v6.7h53.3V149.3h-40v6.7c0,3.7-3,6.7-6.7,6.7
				s-6.7-3-6.7-6.7v-26.6c0-3.7,3-6.7,6.7-6.7s6.7,3,6.7,6.7v6.7C415.8,136,455.8,136,455.8,136z"/>
		</g>
	</g>
</g>
</svg>
