<?xml version="1.0" encoding="utf-8"?>
<!-- Generator: Adobe Illustrator 26.2.1, SVG Export Plug-In . SVG Version: 6.00 Build 0)  -->
<svg version="1.1" id="Capa_1" xmlns="http://www.w3.org/2000/svg" xmlns:xlink="http://www.w3.org/1999/xlink" x="0px" y="0px"
	 viewBox="0 0 512 512" style="enable-background:new 0 0 512 512;" xml:space="preserve">
<style type="text/css">
	.st0{fill:#0F2132;}
	.st1{fill:#FFFFFF;}
</style>
<rect class="st0" width="512" height="512"/>
<g>
	<path class="st1" d="M52.1,233.4c8.3,10.9,23.8,12.6,34.3,4.5L256,102.4l169.6,135.5c10.4,8,25.9,6.5,34.3-4.5
		c8.2-10.7,6.3-26-4.5-34.3l-184.5-147c-4.3-3.3-9.5-5.1-14.9-5.1c-5.5,0-10.6,1.7-14.9,5.1L56.6,199
		C45.7,207.4,43.9,222.8,52.1,233.4L52.1,233.4z"/>
	<path class="st1" d="M403.8,71.5h-24.5c-6.8,0-12.2,5.5-12.2,12.2v13.2l49,39.2V83.7C416,77,410.5,71.5,403.8,71.5z"/>
	<path class="st1" d="M416,403V260.2c-1.8-1-3.8-1.6-5.4-2.9L256,133.8L101.8,257c-1.8,1.4-3.9,2-5.8,3.1V403
		c0,6.8,5.5,12.2,12.2,12.2h35.7c-6.6-15-10.4-31.6-10.4-49c0-67.5,54.9-123.3,122.5-123.3s123.3,55.8,123.3,123.3
		c0,17.4-3.8,34-10.4,49h34.9C410.5,415.2,416,409.7,416,403z"/>
	<path class="st1" d="M354.8,366.2c0-54.1-44.7-98.8-98.8-98.8s-98,44.7-98,98.8s43.9,98.8,98,98.8S354.8,420.3,354.8,366.2z
		 M243.8,440.5v-15.4c-9.5-3.4-17.5-10.4-21.6-20.1c-2.6-6.2,0.3-13.4,6.5-16c6.2-2.6,13.4,0.3,16,6.5c1.9,4.5,6.4,7.5,11.3,7.5
		c6.8,0,12.2-5.5,12.2-12.2c0-6.8-5.5-12.2-12.2-12.2c-20.3,0-36.7-16.5-36.7-36.7c0-15.9,10.3-29.4,24.5-34.5v-15.3
		c0-6.8,5.5-12.2,12.2-12.2c6.8,0,12.2,5.5,12.2,12.2v15.4c9.5,3.4,17.5,10.4,21.6,20.1c2.6,6.2-0.3,13.4-6.5,16
		c-6.2,2.6-13.4-0.3-16-6.5c-1.9-4.5-6.4-7.5-11.3-7.5c-6.8,0-12.2,5.5-12.2,12.2c0,6.8,5.5,12.2,12.2,12.2
		c20.3,0,36.7,16.5,36.7,36.7c0,15.9-10.3,29.4-24.5,34.5v15.3c0,6.8-5.5,12.2-12.2,12.2C249.2,452.8,243.8,447.3,243.8,440.5
		L243.8,440.5z"/>
</g>
</svg>
