<?xml version="1.0" encoding="utf-8"?>
<!-- Generator: Adobe Illustrator 26.2.1, SVG Export Plug-In . SVG Version: 6.00 Build 0)  -->
<svg version="1.1" id="Layer_1" xmlns="http://www.w3.org/2000/svg" xmlns:xlink="http://www.w3.org/1999/xlink" x="0px" y="0px"
	 viewBox="0 0 512 512" style="enable-background:new 0 0 512 512;" xml:space="preserve">
<style type="text/css">
	.st0{fill:#0F2132;}
	.st1{fill:#FFFFFF;}
</style>
<rect class="st0" width="512" height="512"/>
<g>
	<path class="st1" d="M443.4,182.2L263.1,62.7c-4.5-3-10.9-3-15.5,0L179.1,108V74.3c0-7.7-6.3-14-14-14s-14,6.3-14,14v52.3l-84,55.7
		c-6.4,4.3-8.2,12.9-3.9,19.4c4.3,6.5,13,8.2,19.4,3.9L255.3,91.1L428,205.5c6.3,4.2,15.1,2.6,19.4-3.9
		C451.6,195.2,449.9,186.5,443.4,182.2z"/>
	<path class="st1" d="M409.6,230.1L263,132.9c-4.7-3.1-10.8-3.1-15.5,0L101,230.1c-3.9,2.6-6.3,7-6.3,11.6v196c0,7.7,6.3,14,14,14
		h293.1c7.7,0,14-6.3,14-14v-196C415.9,237,413.5,232.7,409.6,230.1z M133.4,252.8c0-7.5,6.1-13.6,13.6-13.6h66.9
		c7.5,0,13.6,6.1,13.6,13.6v40.5c0,7.5-6.1,13.6-13.6,13.6H147c-7.5,0-13.6-6.1-13.6-13.6V252.8z M227.5,406.5
		c0,7.5-6.1,13.6-13.6,13.6H147c-7.5,0-13.6-6.1-13.6-13.6V366c0-7.5,6.1-13.6,13.6-13.6h66.9c7.5,0,13.6,6.1,13.6,13.6V406.5z
		 M255.3,422.1L255.3,422.1c-4.1,0-7.4-3.3-7.4-7.4v-77.6H143.4c-4.1,0-7.4-3.3-7.4-7.4s3.3-7.4,7.4-7.4h104.5v-77.4
		c0-4.1,3.3-7.4,7.4-7.4h0c4.1,0,7.4,3.3,7.4,7.4v77.4h105.7c4.1,0,7.4,3.3,7.4,7.4s-3.3,7.4-7.4,7.4H262.7v77.6
		C262.7,418.7,259.4,422.1,255.3,422.1z M377.2,406.5c0,7.5-6.1,13.6-13.6,13.6h-66.9c-7.5,0-13.6-6.1-13.6-13.6V366
		c0-7.5,6.1-13.6,13.6-13.6h66.9c7.5,0,13.6,6.1,13.6,13.6V406.5z M377.2,293.2c0,7.5-6.1,13.6-13.6,13.6h-66.9
		c-7.5,0-13.6-6.1-13.6-13.6v-40.5c0-7.5,6.1-13.6,13.6-13.6h66.9c7.5,0,13.6,6.1,13.6,13.6V293.2z"/>
</g>
</svg>
