<?xml version="1.0" encoding="utf-8"?>
<!-- Generator: Adobe Illustrator 26.2.1, SVG Export Plug-In . SVG Version: 6.00 Build 0)  -->
<svg version="1.1" id="Capa_1" xmlns="http://www.w3.org/2000/svg" xmlns:xlink="http://www.w3.org/1999/xlink" x="0px" y="0px"
	 viewBox="0 0 512 512" style="enable-background:new 0 0 512 512;" xml:space="preserve">
<style type="text/css">
	.st0{fill:#0F2132;}
	.st1{fill:#E4540E;}
	.st2{fill:#FFFFFF;}
</style>
<rect x="667.9" y="-8.9" class="st0" width="520.9" height="520.9"/>
<path class="st1" d="M1178.1,453.1l-51.7-73.9c-4.1-5.8-11.1-8.4-17.7-7.1l-68-97.1c51.6-50.9,58.1-137.1,12-203
	c-24.7-35.2-60.5-59.5-101-68.3c-40.7-8.9-81.2-1.1-114,21.8c-19.8,13.9-35.8,32.9-46.3,55c-1.8,3.7-0.2,8.2,3.6,10
	c3.7,1.8,8.2,0.2,10-3.6c9.5-20,23.4-36.5,41.4-49.1c29.3-20.5,65.6-27.4,102.2-19.4c36.8,8,69.4,30.2,91.9,62.3
	c46.3,66.1,34.6,154.5-26.1,197C984.9,298.1,948.6,305,912,297c-36.8-8-69.4-30.2-91.9-62.3c-24.2-34.6-33.6-77.2-25.6-116.8
	c0.8-4.1-1.8-8-5.9-8.8c-4.1-0.8-8,1.8-8.8,5.9c-8.8,43.6,1.4,90.4,28,128.4c24.7,35.2,60.5,59.5,101,68.3
	c33.6,7.3,66,3.2,93.9-10.1l68,97.1c-1.1,1.8-1.9,3.9-2.3,6c-0.8,4.6,0.2,9.3,2.9,13.1l51.7,73.9c1.5,2.1,3.8,3.2,6.1,3.2
	c1.5,0,3-0.4,4.3-1.4c3.4-2.4,4.2-7.1,1.8-10.4l-51.7-73.9c-0.5-0.7-0.5-1.5-0.4-1.9s0.3-1.1,1-1.6l26-18.2c0,0,0,0,0,0l0.3-0.2
	c1.1-0.8,2.7-0.5,3.5,0.6l51.7,73.9c2.4,3.4,7.1,4.2,10.4,1.8C1179.7,461.2,1180.5,456.5,1178.1,453.1L1178.1,453.1z M1022.8,289.9
	c2.2-1.6,4.4-3.2,6.6-4.9l66.2,94.5l-13.4,9.4l-66.2-94.5C1018.2,292.9,1020.5,291.4,1022.8,289.9L1022.8,289.9z"/>
<path class="st2" d="M1006.6,266.7c16.1-11.3,28-26.3,36.6-43.1c0.1-0.1,0.1-0.2,0.2-0.4c10.3-21.5,14.1-46.3,11-71.2
	c0,0,0-0.1,0-0.1c-2.8-21.9-11-43.9-24.8-63.7C988.4,29.5,909.9,9.3,853.8,48.6C827.3,67.2,810.3,96.1,806,130
	c-4.2,33.6,4.6,68.1,24.9,97.1C872.1,285.9,950.6,305.9,1006.6,266.7L1006.6,266.7z M820.9,131.9c0.9-7.3,2.5-14.4,4.7-21.1l16,22.8
	L820,148.8C819.9,143.1,820.2,137.5,820.9,131.9z M850.2,145.9l27.5,39.3l-38.6,27c-8.9-14.4-14.9-30.2-17.5-46.3L850.2,145.9z
	 M904.3,44.4l21.3,30.5l-29.7,20.8l-27.2-38.8C879.7,50.3,891.7,46.2,904.3,44.4L904.3,44.4z M934.3,87.1l27.5,39.3L932,147.2
	l-27.5-39.3L934.3,87.1z M1021.3,103c9.1,14.7,14.9,30.5,17.5,46.3l-28.6,20l-27.5-39.3L1021.3,103z M1034.7,204.4l-16-22.8
	l21.6-15.1C1040.6,179.6,1038.7,192.4,1034.7,204.4z M997.9,177.9l-29.7,20.8l-27.5-39.3l29.7-20.8L997.9,177.9z M956.1,270.9
	l-21.3-30.5l29.7-20.8l27.2,38.8C980.7,264.9,968.7,269.1,956.1,270.9z M926.1,228.2l-27.5-39.3l29.7-20.8l27.5,39.3L926.1,228.2z
	 M919.8,155.8L890,176.6l-27.5-39.3l29.7-20.8L919.8,155.8z M847.7,224.5l38.6-27l27.5,39.3l-28.6,20
	C871,248.8,858.2,237.9,847.7,224.5L847.7,224.5z M900.8,264.2l21.6-15.1l16,22.8c-7.1-0.2-14.2-1.1-21.4-2.8
	C911.5,267.9,906.1,266.2,900.8,264.2L900.8,264.2z M1003.9,249.9L976.7,211l29.7-20.8l21.3,30.4
	C1021.9,231.7,1013.9,241.7,1003.9,249.9z M1012.7,90.7l-38.6,27l-27.5-39.3l28.6-20C989.4,66.4,1002.2,77.4,1012.7,90.7z
	 M959.5,51.1l-21.6,15.1l-16-22.8c7.1,0.2,14.2,1.1,21.4,2.8C948.9,47.4,954.3,49,959.5,51.1z M856.5,65.4l27.2,38.8L853.9,125
	l-21.3-30.5C838.6,83.4,846.6,73.5,856.5,65.4L856.5,65.4z"/>
<path class="st2" d="M794.2,321.5l-10.3,10.3c-2,2-3.1,4.7-3.2,7.3l-99.6,57.7c-0.1,0-0.1,0.1-0.2,0.1l-4,2.3
	c-5.5,3.2-8.8,9.1-8.5,15.5c0.2,6.3,4,12,9.7,14.7l22.4,10.7c0,0.4-0.1,0.8-0.1,1.2v26.5c0,6.7,5.5,12.2,12.2,12.2h26.5
	c0.4,0,0.8,0,1.2-0.1l10.7,22.4c2.7,5.7,8.4,9.4,14.7,9.7c0.2,0,0.4,0,0.7,0c6.1,0,11.7-3.2,14.8-8.5l14-24.1
	c2.1-3.6,0.9-8.2-2.7-10.2c-3.6-2.1-8.2-0.9-10.2,2.7l-14,24.1c-0.5,0.9-1.3,1.1-1.9,1c-0.6,0-1.4-0.2-1.8-1.2l-11.3-23.5l52.6-64.7
	l8.5,8.5l-14.7,25.3c-2.1,3.6-0.9,8.2,2.7,10.2c1.2,0.7,2.5,1,3.8,1c2.6,0,5.1-1.3,6.5-3.7c5-8.6,17.2-29.7,28.5-49.3
	c2.8-0.1,5.4-1.2,7.3-3.2l9.8-9.8c8.8-8.8,13.8-21.1,13.7-33.6c-0.1-12.4-5-23.9-13.8-32.3C840.4,303.7,811.7,304,794.2,321.5
	L794.2,321.5z M777.6,358.2l10.8-6.3l14.7,14.7l-8.5,8.5L777.6,358.2z M683.4,414c0-0.6,0.1-1.4,1-1.9l79.8-46.2l8.5,8.5l-64.7,52.6
	l-23.5-11.3C683.6,415.4,683.4,414.6,683.4,414z M740.3,464.4c-0.3,0.4-0.8,0.6-1.3,0.6h-23.7v-23.7c0-0.5,0.2-1,0.6-1.3l67.5-54.9
	l5.9,5.9c0,0,0,0,0,0s0,0,0,0l5.9,5.9L740.3,464.4z M805.2,385.7l8.5-8.5l14.7,14.7l-6.3,10.8L805.2,385.7z M847.8,376.1l-6.4,6.4
	c-0.5-0.2-1-0.3-1.4-0.4l-41.7-41.7c-0.1-0.5-0.2-1-0.4-1.4l7-7c11.8-11.8,31.1-12,43.1-0.4c5.8,5.6,9.1,13.3,9.2,21.6
	C857.1,361.8,853.7,370.1,847.8,376.1L847.8,376.1z"/>
<path class="st1" d="M510.2,453.1l-51.7-73.9c-4.1-5.8-11.1-8.4-17.7-7.1l-68-97.1c51.6-50.9,58.1-137.1,12-203
	c-24.7-35.2-60.5-59.5-101-68.3c-40.7-8.9-81.2-1.1-114,21.8c-19.8,13.9-35.8,32.9-46.3,55c-1.8,3.7-0.2,8.2,3.6,10
	c3.7,1.8,8.2,0.2,10-3.6c9.5-20,23.4-36.5,41.4-49.1c29.3-20.5,65.6-27.4,102.2-19.4c36.8,8,69.4,30.2,91.9,62.3
	c46.3,66.1,34.6,154.5-26.1,197c-29.3,20.5-65.6,27.4-102.2,19.4c-36.8-8-69.4-30.2-91.9-62.3c-24.2-34.6-33.6-77.2-25.6-116.8
	c0.8-4.1-1.8-8-5.9-8.8c-4.1-0.8-8,1.8-8.8,5.9c-8.8,43.6,1.4,90.4,28,128.4c24.7,35.2,60.5,59.5,101,68.3
	c33.6,7.3,66,3.2,93.9-10.1l68,97.1c-1.1,1.8-1.9,3.9-2.3,6c-0.8,4.6,0.2,9.3,2.9,13.1l51.7,73.9c1.5,2.1,3.8,3.2,6.1,3.2
	c1.5,0,3-0.4,4.3-1.4c3.4-2.4,4.2-7.1,1.8-10.4l-51.7-73.9c-0.5-0.7-0.5-1.5-0.4-1.9s0.3-1.1,1-1.6l26-18.2c0,0,0,0,0,0l0.3-0.2
	c1.1-0.8,2.7-0.5,3.5,0.6l51.7,73.9c2.4,3.4,7.1,4.2,10.4,1.8C511.7,461.2,512.6,456.5,510.2,453.1L510.2,453.1z M354.9,289.9
	c2.2-1.6,4.4-3.2,6.6-4.9l66.2,94.5l-13.4,9.4L348,294.3C350.3,292.9,352.6,291.4,354.9,289.9L354.9,289.9z"/>
<path class="st0" d="M338.6,266.7c16.1-11.3,28-26.3,36.6-43.1c0.1-0.1,0.1-0.2,0.2-0.4c10.3-21.5,14.1-46.3,11-71.2
	c0,0,0-0.1,0-0.1c-2.8-21.9-11-43.9-24.8-63.7C320.5,29.5,242,9.3,185.9,48.6c-26.6,18.6-43.6,47.5-47.8,81.5
	c-4.2,33.6,4.6,68.1,24.9,97.1C204.2,285.9,282.7,305.9,338.6,266.7L338.6,266.7z M153,131.9c0.9-7.3,2.5-14.4,4.7-21.1l16,22.8
	l-21.6,15.1C152,143.1,152.3,137.5,153,131.9z M182.3,145.9l27.5,39.3l-38.6,27c-8.9-14.4-14.9-30.2-17.5-46.3L182.3,145.9z
	 M236.4,44.4l21.3,30.5L228,95.6l-27.2-38.8C211.8,50.3,223.8,46.2,236.4,44.4L236.4,44.4z M266.3,87.1l27.5,39.3l-29.7,20.8
	l-27.5-39.3L266.3,87.1z M353.4,103c9.1,14.7,14.9,30.5,17.5,46.3l-28.6,20l-27.5-39.3L353.4,103z M366.8,204.4l-16-22.8l21.6-15.1
	C372.7,179.6,370.8,192.4,366.8,204.4z M330,177.9l-29.7,20.8l-27.5-39.3l29.7-20.8L330,177.9z M288.1,270.9l-21.3-30.5l29.7-20.8
	l27.2,38.8C312.8,264.9,300.8,269.1,288.1,270.9z M258.2,228.2l-27.5-39.3l29.7-20.8l27.5,39.3L258.2,228.2z M251.8,155.8
	l-29.7,20.8l-27.5-39.3l29.7-20.8L251.8,155.8z M179.8,224.5l38.6-27l27.5,39.3l-28.6,20C203.1,248.8,190.3,237.9,179.8,224.5
	L179.8,224.5z M232.9,264.2l21.6-15.1l16,22.8c-7.1-0.2-14.2-1.1-21.4-2.8C243.6,267.9,238.2,266.2,232.9,264.2L232.9,264.2z
	 M336,249.9L308.8,211l29.7-20.8l21.3,30.4C354,231.7,346,241.7,336,249.9z M344.8,90.7l-38.6,27l-27.5-39.3l28.6-20
	C321.5,66.4,334.2,77.4,344.8,90.7z M291.6,51.1L270,66.2l-16-22.8c7.1,0.2,14.2,1.1,21.4,2.8C281,47.4,286.4,49,291.6,51.1z
	 M188.6,65.4l27.2,38.8L186,125l-21.3-30.5C170.7,83.4,178.7,73.5,188.6,65.4L188.6,65.4z"/>
<path class="st0" d="M126.3,321.5L116,331.7c-2,2-3.1,4.7-3.2,7.3l-99.6,57.7c-0.1,0-0.1,0.1-0.2,0.1l-4,2.3
	c-5.5,3.2-8.8,9.1-8.5,15.5c0.2,6.3,4,12,9.7,14.7l22.4,10.7c0,0.4-0.1,0.8-0.1,1.2v26.5c0,6.7,5.5,12.2,12.2,12.2h26.5
	c0.4,0,0.8,0,1.2-0.1l10.7,22.4c2.7,5.7,8.4,9.4,14.7,9.7c0.2,0,0.4,0,0.7,0c6.1,0,11.7-3.2,14.8-8.5l14-24.1
	c2.1-3.6,0.9-8.2-2.7-10.2c-3.6-2.1-8.2-0.9-10.2,2.7l-14,24.1c-0.5,0.9-1.3,1.1-1.9,1c-0.6,0-1.4-0.2-1.8-1.2l-11.3-23.5l52.6-64.7
	l8.5,8.5l-14.7,25.3c-2.1,3.6-0.9,8.2,2.7,10.2c1.2,0.7,2.5,1,3.8,1c2.6,0,5.1-1.3,6.5-3.7c5-8.6,17.2-29.7,28.5-49.3
	c2.8-0.1,5.4-1.2,7.3-3.2l9.8-9.8c8.8-8.8,13.8-21.1,13.7-33.6c-0.1-12.4-5-23.9-13.8-32.3C172.5,303.7,143.8,304,126.3,321.5
	L126.3,321.5z M109.7,358.2l10.8-6.3l14.7,14.7l-8.5,8.5L109.7,358.2z M15.4,414c0-0.6,0.1-1.4,1-1.9l79.8-46.2l8.5,8.5l-64.7,52.6
	l-23.5-11.3C15.7,415.4,15.5,414.6,15.4,414z M72.4,464.4c-0.3,0.4-0.8,0.6-1.3,0.6H47.4v-23.7c0-0.5,0.2-1,0.6-1.3l67.5-54.9
	l5.9,5.9c0,0,0,0,0,0s0,0,0,0l5.9,5.9L72.4,464.4z M137.3,385.7l8.5-8.5l14.7,14.7l-6.3,10.8L137.3,385.7z M179.8,376.1l-6.4,6.4
	c-0.5-0.2-1-0.3-1.4-0.4l-41.7-41.7c-0.1-0.5-0.2-1-0.4-1.4l7-7c11.8-11.8,31.1-12,43.1-0.4c5.8,5.6,9.1,13.3,9.2,21.6
	C189.2,361.8,185.8,370.1,179.8,376.1L179.8,376.1z"/>
</svg>
