<svg xmlns="http://www.w3.org/2000/svg" width="511.07" height="511.788" viewBox="0 0 511.07 511.788">
  <g id="badminton" transform="translate(-21486 -384.012)">
    <path id="Path_2162" data-name="Path 2162" d="M510.2,453.1l-51.7-73.9a17.529,17.529,0,0,0-17.7-7.1l-68-97.1c51.6-50.9,58.1-137.1,12-203-24.7-35.2-60.5-59.5-101-68.3-40.7-8.9-81.2-1.1-114,21.8a141.316,141.316,0,0,0-46.3,55,7.515,7.515,0,1,0,13.6,6.4,124.127,124.127,0,0,1,41.4-49.1c29.3-20.5,65.6-27.4,102.2-19.4,36.8,8,69.4,30.2,91.9,62.3,46.3,66.1,34.6,154.5-26.1,197-29.3,20.5-65.6,27.4-102.2,19.4-36.8-8-69.4-30.2-91.9-62.3-24.2-34.6-33.6-77.2-25.6-116.8a7.492,7.492,0,0,0-14.7-2.9c-8.8,43.6,1.4,90.4,28,128.4,24.7,35.2,60.5,59.5,101,68.3,33.6,7.3,66,3.2,93.9-10.1l68,97.1a18.228,18.228,0,0,0-2.3,6,17.387,17.387,0,0,0,2.9,13.1l51.7,73.9a7.5,7.5,0,0,0,6.1,3.2,6.918,6.918,0,0,0,4.3-1.4,7.428,7.428,0,0,0,1.8-10.4l-51.7-73.9a2.434,2.434,0,0,1-.4-1.9,2.627,2.627,0,0,1,1-1.6l26-18.2h0l.3-.2a2.546,2.546,0,0,1,3.5.6l51.7,73.9a7.428,7.428,0,0,0,10.4,1.8,7.688,7.688,0,0,0,1.9-10.6ZM354.9,289.9c2.2-1.6,4.4-3.2,6.6-4.9l66.2,94.5-13.4,9.4L348,294.3c2.3-1.4,4.6-2.9,6.9-4.4Z" transform="translate(21485.52 383.9)" fill="#e4540e"/>
    <path id="Path_2163" data-name="Path 2163" d="M338.6,266.7c16.1-11.3,28-26.3,36.6-43.1.1-.1.1-.2.2-.4,10.3-21.5,14.1-46.3,11-71.2v-.1a143.435,143.435,0,0,0-24.8-63.7C320.5,29.5,242,9.3,185.9,48.6c-26.6,18.6-43.6,47.5-47.8,81.5-4.2,33.6,4.6,68.1,24.9,97.1,41.2,58.7,119.7,78.7,175.6,39.5ZM153,131.9a111.563,111.563,0,0,1,4.7-21.1l16,22.8-21.6,15.1A118.258,118.258,0,0,1,153,131.9Zm29.3,14,27.5,39.3-38.6,27a126.957,126.957,0,0,1-17.5-46.3ZM236.4,44.4l21.3,30.5L228,95.6,200.8,56.8a96.345,96.345,0,0,1,35.6-12.4Zm29.9,42.7,27.5,39.3-29.7,20.8-27.5-39.3ZM353.4,103a127.405,127.405,0,0,1,17.5,46.3l-28.6,20L314.8,130Zm13.4,101.4-16-22.8,21.6-15.1A111.645,111.645,0,0,1,366.8,204.4ZM330,177.9l-29.7,20.8-27.5-39.3,29.7-20.8Zm-41.9,93-21.3-30.5,29.7-20.8,27.2,38.8A95.267,95.267,0,0,1,288.1,270.9Zm-29.9-42.7-27.5-39.3,29.7-20.8,27.5,39.3Zm-6.4-72.4-29.7,20.8-27.5-39.3,29.7-20.8Zm-72,68.7,38.6-27,27.5,39.3-28.6,20a126.7,126.7,0,0,1-37.5-32.3Zm53.1,39.7,21.6-15.1,16,22.8a105.579,105.579,0,0,1-21.4-2.8,116.084,116.084,0,0,1-16.2-4.9ZM336,249.9,308.8,211l29.7-20.8,21.3,30.4A94.292,94.292,0,0,1,336,249.9Zm8.8-159.2-38.6,27L278.7,78.4l28.6-20A129.456,129.456,0,0,1,344.8,90.7ZM291.6,51.1,270,66.2,254,43.4a105.577,105.577,0,0,1,21.4,2.8A97.886,97.886,0,0,1,291.6,51.1Zm-103,14.3,27.2,38.8L186,125,164.7,94.5a97.035,97.035,0,0,1,23.9-29.1Z" transform="translate(21485.52 383.9)" fill="#0f2132"/>
    <path id="Path_2164" data-name="Path 2164" d="M126.3,321.5,116,331.7a11.057,11.057,0,0,0-3.2,7.3L13.2,396.7c-.1,0-.1.1-.2.1l-4,2.3a17.09,17.09,0,0,0,1.2,30.2L32.6,440c0,.4-.1.8-.1,1.2v26.5a12.249,12.249,0,0,0,12.2,12.2H71.2a4.868,4.868,0,0,0,1.2-.1l10.7,22.4a17.148,17.148,0,0,0,14.7,9.7h.7a17.085,17.085,0,0,0,14.8-8.5l14-24.1a7.461,7.461,0,1,0-12.9-7.5l-14,24.1a2.109,2.109,0,0,1-3.7-.2L85.4,472.2,138,407.5l8.5,8.5-14.7,25.3a7.379,7.379,0,0,0,2.7,10.2,7.61,7.61,0,0,0,10.3-2.7c5-8.6,17.2-29.7,28.5-49.3a10.471,10.471,0,0,0,7.3-3.2l9.8-9.8a47.343,47.343,0,0,0,13.7-33.6,44.757,44.757,0,0,0-13.8-32.3,46.147,46.147,0,0,0-64,.9Zm-16.6,36.7,10.8-6.3,14.7,14.7-8.5,8.5ZM15.4,414a1.961,1.961,0,0,1,1-1.9l79.8-46.2,8.5,8.5L40,427,16.5,415.7A1.958,1.958,0,0,1,15.4,414Zm57,50.4a1.612,1.612,0,0,1-1.3.6H47.4V441.3A1.612,1.612,0,0,1,48,440l67.5-54.9,5.9,5.9h0l5.9,5.9Zm64.9-78.7,8.5-8.5,14.7,14.7-6.3,10.8Zm42.5-9.6-6.4,6.4a10.26,10.26,0,0,0-1.4-.4l-41.7-41.7a5.733,5.733,0,0,0-.4-1.4l7-7a30.851,30.851,0,0,1,43.1-.4,30.334,30.334,0,0,1,9.2,21.6,32.468,32.468,0,0,1-9.4,22.9Z" transform="translate(21485.52 383.9)" fill="#0f2132"/>
  </g>
</svg>
