<?xml version="1.0" encoding="UTF-8"?>
<!-- Generator: Adobe Illustrator 26.0.0, SVG Export Plug-In . SVG Version: 6.00 Build 0)  -->
<svg version="1.1" id="icons" xmlns="http://www.w3.org/2000/svg" xmlns:xlink="http://www.w3.org/1999/xlink" x="0px" y="0px" viewBox="0 0 512 512" style="enable-background:new 0 0 512 512;" xml:space="preserve">
<style type="text/css">
	.st0{fill:#fff;}
	.st1{fill:#E65400;}
	.st2{fill:#0F2132;}
</style>
<rect class="st0" width="512" height="512"/>
<g>
	<path class="st0" d="M-644,341.3c0,33,26.8,59.7,59.7,59.7h110.9v102.4c0,4.7,3.8,8.5,8.5,8.5c2.3,0,4.4-0.9,6-2.5l19.6-19.6   l19.6,19.6c3.3,3.3,8.7,3.3,12.1,0l19.6-19.6l19.6,19.6c3.3,3.3,8.7,3.3,12.1,0l19.6-19.6l19.6,19.6c1.6,1.6,3.8,2.5,6,2.5   c1.1,0,2.2-0.2,3.3-0.6c3.2-1.3,5.3-4.4,5.3-7.9V401.1h110.9c33,0,59.7-26.8,59.7-59.7V110.7c0.2-22.4-9.6-43.7-26.7-58.2   C-187.2,28.6-250.2,0-388,0s-200.8,28.6-229.3,52.5c-17.1,14.5-26.9,35.8-26.7,58.2V341.3z M-460,367.1   c-4.1-19-12.8-36.6-25.4-51.4h33c3.5,8.1,5.1,16.8,4.6,25.6c0.4,7-1.8,14-6,19.6L-460,367.1z M-434.1,315.7h37.5v47.7l-21.3,21.3   l-18.8-18.8c4.1-7.5,6.2-16,6-24.6C-430.5,332.7-431.7,324-434.1,315.7z M-400.1,426.7l-13.5,13.5l-17.8-17.8l13.5-13.5   L-400.1,426.7z M-405.8,396.8L-388,379l17.8,17.8l-17.8,17.8L-405.8,396.8z M-358.1,408.9l13.5,13.5l-17.8,17.8l-13.5-13.5   L-358.1,408.9z M-379.5,363.4v-47.7h37.5c-2.4,8.3-3.6,16.9-3.4,25.6c-0.1,8.6,1.9,17,6,24.6l-18.8,18.8L-379.5,363.4z    M-524.5,298.7c-4.7,0-8.5-3.8-8.5-8.5c0-4.7,3.8-8.5,8.5-8.5h273.1c4.7,0,8.5,3.8,8.5,8.5c0,4.7-3.8,8.5-8.5,8.5H-524.5z    M-265.9,315.7h14.5c14.1,0,25.6-11.5,25.6-25.6c0-14.1-11.5-25.6-25.6-25.6h-273.1c-14.1,0-25.6,11.5-25.6,25.6   c0,14.1,11.5,25.6,25.6,25.6h14.5c11.6,8.9,20.7,20.7,26.5,34.1h-100.6c-4.7,0-8.5-3.8-8.5-8.5V110.7c-0.1-7.2,3-14.2,8.4-19   c18.1-15.1,67.6-40.5,196.4-40.5c129,0,178.4,25.4,196.4,40.6c5.4,4.8,8.5,11.7,8.4,18.9v230.7c0,4.7-3.8,8.5-8.5,8.5h-100.6   C-286.6,336.4-277.5,324.7-265.9,315.7z M-447.7,379l17.8,17.8l-26.3,26.3v-22.1c0-4.5-0.2-8.9-0.5-13L-447.7,379z M-445.2,471.8   l-11,11v-35.6l12.8-12.8l17.8,17.8L-445.2,471.8z M-413.6,491.4l-13.5-13.5l13.5-13.5l13.5,13.5L-413.6,491.4z M-401.5,452.3   l13.5-13.5l13.5,13.5l-13.5,13.5L-401.5,452.3z M-362.4,491.4l-13.5-13.5l13.5-13.5l13.5,13.5L-362.4,491.4z M-319.7,482.9l-11-11   l-19.6-19.6l17.8-17.8l12.8,12.8V482.9z M-319.7,401.1v22.1l-26.3-26.3l17.8-17.8l9,9C-319.6,392.2-319.7,396.6-319.7,401.1z    M-316,367.1l-6.1-6.1c-4.3-5.6-6.5-12.6-6.1-19.7c-0.4-8.8,1.1-17.5,4.6-25.6h33C-303.2,330.5-311.9,348.2-316,367.1z    M-626.9,110.7c-0.2-17.3,7.4-33.9,20.6-45.1C-580,43.5-520.7,17.1-388,17.1s192,26.4,218.4,48.5c13.2,11.2,20.7,27.7,20.6,45.1   v230.7c0,23.6-19.1,42.6-42.7,42.7h-109.8c0.7-5.8,1.7-11.5,3.2-17.1h106.6c14.1,0,25.6-11.5,25.6-25.6V110.7   c0.1-12.3-5.2-23.9-14.5-31.9c-19.7-16.7-73-44.6-207.4-44.6c-134.2,0-187.6,27.9-207.4,44.5c-9.2,8.1-14.5,19.8-14.5,32v230.7   c0,14.1,11.5,25.6,25.6,25.6h106.7c1.5,5.6,2.5,11.3,3.2,17.1h-109.9c-23.6,0-42.6-19.1-42.7-42.7V110.7z"/>
	<path class="st1" d="M-319.7,102.4h-136.5c-14.1,0-25.6,11.5-25.6,25.6v68.3c0,14.1,11.5,25.6,25.6,25.6h136.5   c14.1,0,25.6-11.5,25.6-25.6V128C-294.1,113.9-305.6,102.4-319.7,102.4z M-311.2,196.3c0,4.7-3.8,8.5-8.5,8.5h-136.5   c-4.7,0-8.5-3.8-8.5-8.5V128c0-4.7,3.8-8.5,8.5-8.5h136.5c4.7,0,8.5,3.8,8.5,8.5V196.3z"/>
</g>
<g>
	<path class="st2" d="M0,341.3c0,33,26.8,59.7,59.7,59.7h110.9v102.4c0,4.7,3.8,8.5,8.5,8.5c2.3,0,4.4-0.9,6-2.5l19.6-19.6   l19.6,19.6c3.3,3.3,8.7,3.3,12.1,0l19.6-19.6l19.6,19.6c3.3,3.3,8.7,3.3,12.1,0l19.6-19.6l19.6,19.6c1.6,1.6,3.8,2.5,6,2.5   c1.1,0,2.2-0.2,3.3-0.6c3.2-1.3,5.3-4.4,5.3-7.9V401.1h110.9c33,0,59.7-26.8,59.7-59.7V110.7c0.2-22.4-9.6-43.7-26.7-58.2   C456.8,28.6,393.8,0,256,0S55.2,28.6,26.7,52.5C9.6,67-0.2,88.3,0,110.7V341.3z M184,367.1c-4.1-19-12.8-36.6-25.4-51.4h33   c3.5,8.1,5.1,16.8,4.6,25.6c0.4,7-1.8,14-6,19.6L184,367.1z M209.9,315.7h37.5v47.7l-21.3,21.3l-18.8-18.8c4.1-7.5,6.2-16,6-24.6   C213.5,332.7,212.3,324,209.9,315.7z M243.9,426.7l-13.5,13.5l-17.8-17.8l13.5-13.5L243.9,426.7z M238.2,396.8L256,379l17.8,17.8   L256,414.6L238.2,396.8z M285.9,408.9l13.5,13.5l-17.8,17.8l-13.5-13.5L285.9,408.9z M264.5,363.4v-47.7h37.5   c-2.4,8.3-3.6,16.9-3.4,25.6c-0.1,8.6,1.9,17,6,24.6l-18.8,18.8L264.5,363.4z M119.5,298.7c-4.7,0-8.5-3.8-8.5-8.5   c0-4.7,3.8-8.5,8.5-8.5h273.1c4.7,0,8.5,3.8,8.5,8.5c0,4.7-3.8,8.5-8.5,8.5H119.5z M378.1,315.7h14.5c14.1,0,25.6-11.5,25.6-25.6   c0-14.1-11.5-25.6-25.6-25.6H119.5c-14.1,0-25.6,11.5-25.6,25.6c0,14.1,11.5,25.6,25.6,25.6h14.5c11.6,8.9,20.7,20.7,26.5,34.1   H59.7c-4.7,0-8.5-3.8-8.5-8.5V110.7c-0.1-7.2,3-14.2,8.4-19C77.7,76.6,127.1,51.2,256,51.2c129,0,178.4,25.4,196.4,40.6   c5.4,4.8,8.5,11.7,8.4,18.9v230.7c0,4.7-3.8,8.5-8.5,8.5H351.7C357.4,336.4,366.5,324.7,378.1,315.7z M196.3,379l17.8,17.8   l-26.3,26.3v-22.1c0-4.5-0.2-8.9-0.5-13L196.3,379z M198.8,471.8l-11,11v-35.6l12.8-12.8l17.8,17.8L198.8,471.8z M230.4,491.4   l-13.5-13.5l13.5-13.5l13.5,13.5L230.4,491.4z M242.5,452.3l13.5-13.5l13.5,13.5L256,465.8L242.5,452.3z M281.6,491.4l-13.5-13.5   l13.5-13.5l13.5,13.5L281.6,491.4z M324.3,482.9l-11-11l-19.6-19.6l17.8-17.8l12.8,12.8V482.9z M324.3,401.1v22.1l-26.3-26.3   l17.8-17.8l9,9C324.4,392.2,324.3,396.6,324.3,401.1z M328,367.1l-6.1-6.1c-4.3-5.6-6.5-12.6-6.1-19.7c-0.4-8.8,1.1-17.5,4.6-25.6   h33C340.8,330.5,332.1,348.2,328,367.1z M17.1,110.7c-0.2-17.3,7.4-33.9,20.6-45.1C64,43.5,123.3,17.1,256,17.1   s192,26.4,218.4,48.5c13.2,11.2,20.7,27.7,20.6,45.1v230.7c0,23.6-19.1,42.6-42.7,42.7H342.4c0.7-5.8,1.7-11.5,3.2-17.1h106.6   c14.1,0,25.6-11.5,25.6-25.6V110.7c0.1-12.3-5.2-23.9-14.5-31.9c-19.7-16.7-73-44.6-207.4-44.6C121.8,34.1,68.4,62,48.6,78.7   c-9.2,8.1-14.5,19.8-14.5,32v230.7c0,14.1,11.5,25.6,25.6,25.6h106.7c1.5,5.6,2.5,11.3,3.2,17.1H59.7c-23.6,0-42.6-19.1-42.7-42.7   V110.7z"/>
	<path class="st1" d="M324.3,102.4H187.7c-14.1,0-25.6,11.5-25.6,25.6v68.3c0,14.1,11.5,25.6,25.6,25.6h136.5   c14.1,0,25.6-11.5,25.6-25.6V128C349.9,113.9,338.4,102.4,324.3,102.4z M332.8,196.3c0,4.7-3.8,8.5-8.5,8.5H187.7   c-4.7,0-8.5-3.8-8.5-8.5V128c0-4.7,3.8-8.5,8.5-8.5h136.5c4.7,0,8.5,3.8,8.5,8.5V196.3z"/>
</g>
</svg>