<svg xmlns="http://www.w3.org/2000/svg" width="463.5" height="511.9" viewBox="0 0 463.5 511.9">
  <g id="BBQ_Area" data-name="BBQ Area" transform="translate(-305 -1493)">
    <g id="Group_3" data-name="Group 3">
      <path id="Path_7" data-name="Path 7" d="M-447.3,103.2c-8.2,5.5-19.4,13.1-19.4,28.6a10.029,10.029,0,0,0,10,10,10.029,10.029,0,0,0,10-10c0-4.4,3.1-6.9,10.6-12,8.2-5.5,19.4-13.1,19.4-28.6s-11.2-23-19.4-28.6c-7.5-5.1-10.6-7.6-10.6-12s3.1-6.9,10.6-12c8.2-5.5,19.4-13.1,19.4-28.6a10.029,10.029,0,0,0-10-10,10.029,10.029,0,0,0-10,10c0,4.4-3.1,6.9-10.6,12-8.2,5.5-19.4,13.1-19.4,28.6s11.2,23,19.4,28.6c7.5,5.1,10.6,7.6,10.6,12S-439.7,98.1-447.3,103.2Z" transform="translate(918.4 1493)" fill="#e4540e"/>
      <path id="Path_8" data-name="Path 8" d="M-378.3,103.2c-8.2,5.5-19.4,13.1-19.4,28.6a10.029,10.029,0,0,0,10,10,10.029,10.029,0,0,0,10-10c0-4.4,3.1-6.9,10.6-12,8.2-5.5,19.4-13.1,19.4-28.6s-11.2-23-19.4-28.6c-7.5-5.1-10.6-7.6-10.6-12s3.1-6.9,10.6-12c8.2-5.5,19.4-13.1,19.4-28.6a10.029,10.029,0,0,0-10-10,10.029,10.029,0,0,0-10,10c0,4.4-3.1,6.9-10.6,12-8.2,5.5-19.4,13.1-19.4,28.6s11.2,23,19.4,28.6c7.5,5.1,10.6,7.6,10.6,12S-370.7,98.1-378.3,103.2Z" transform="translate(918.4 1493)" fill="#e4540e"/>
      <path id="Path_9" data-name="Path 9" d="M-309.3,103.2c-8.2,5.5-19.4,13.1-19.4,28.6a10.029,10.029,0,0,0,10,10,10.029,10.029,0,0,0,10-10c0-4.4,3.1-6.9,10.6-12,8.2-5.5,19.4-13.1,19.4-28.6s-11.2-23-19.4-28.6c-7.5-5.1-10.6-7.6-10.6-12s3.1-6.9,10.6-12c8.2-5.5,19.4-13.1,19.4-28.6a10.029,10.029,0,0,0-10-10,10.029,10.029,0,0,0-10,10c0,4.4-3.1,6.9-10.6,12-8.2,5.5-19.4,13.1-19.4,28.6s11.2,23,19.4,28.6c7.5,5.1,10.6,7.6,10.6,12S-301.8,98.1-309.3,103.2Z" transform="translate(918.4 1493)" fill="#e4540e"/>
      <path id="Path_10" data-name="Path 10" d="M-159.9,229.4h-36.6a173.368,173.368,0,0,0,2.2-21.7,29.573,29.573,0,0,0,19.8-27.9A29.49,29.49,0,0,0-204,150.3H-559.3a29.49,29.49,0,0,0-29.5,29.5A29.671,29.671,0,0,0-569,207.7a192.072,192.072,0,0,0,2.2,21.7h-36.6a10.029,10.029,0,0,0-10,10,10.029,10.029,0,0,0,10,10h41a188.313,188.313,0,0,0,92,115.1l-23.7,44.4v.1l-44.2,82.9h-15.2a10.029,10.029,0,0,0-10,10,10.029,10.029,0,0,0,10,10h42.4a10.029,10.029,0,0,0,10-10,10.029,10.029,0,0,0-10-10h-4.6l36.4-68.2h197.6l36.3,68.2h-6.9a10.029,10.029,0,0,0-10,10,10.029,10.029,0,0,0,10,10h42.4a10.029,10.029,0,0,0,10-10,10.029,10.029,0,0,0-10-10h-12.8L-266.9,409v-.1l-24.2-45.4a188.225,188.225,0,0,0,90.2-114.1h41a10.029,10.029,0,0,0,10-10A9.965,9.965,0,0,0-159.9,229.4ZM-468.5,403.8l16.3-30.7a186.225,186.225,0,0,0,70.6,13.8A187.092,187.092,0,0,0-309,372.3l16.8,31.5H-468.5Zm86.9-36.9c-89,0-162.1-69.8-167.2-157.5h334.5C-219.5,297.1-292.5,366.9-381.6,366.9Zm177.7-177.5H-559.2a9.56,9.56,0,0,1-9.5-9.5,9.56,9.56,0,0,1,9.5-9.5h355.3a9.56,9.56,0,0,1,9.5,9.5A9.56,9.56,0,0,1-203.9,189.4Z" transform="translate(918.4 1493)" fill="#0f2132"/>
      <path id="Path_11" data-name="Path 11" d="M-381.6,349.3a149.289,149.289,0,0,0,127.1-70.5,10.029,10.029,0,0,0-3.2-13.8,10.029,10.029,0,0,0-13.8,3.2,129.356,129.356,0,0,1-110.2,61.1,10.029,10.029,0,0,0-10,10A10.115,10.115,0,0,0-381.6,349.3Z" transform="translate(918.4 1493)" fill="#e4540e"/>
      <path id="Path_12" data-name="Path 12" d="M-256,240.8a10.187,10.187,0,0,0,9.9,6.2,10.155,10.155,0,0,0,8.8-6.8,10.062,10.062,0,0,0-3.6-11.3,10.2,10.2,0,0,0-11-.5A10.023,10.023,0,0,0-256,240.8Z" transform="translate(918.4 1493)" fill="#e4540e"/>
    </g>
  </g>
</svg>
