<?xml version="1.0" encoding="utf-8"?>
<!-- Generator: Adobe Illustrator 26.2.1, SVG Export Plug-In . SVG Version: 6.00 Build 0)  -->
<svg version="1.1" id="Layer_1" xmlns="http://www.w3.org/2000/svg" xmlns:xlink="http://www.w3.org/1999/xlink" x="0px" y="0px"
	 viewBox="0 0 512 512" style="enable-background:new 0 0 512 512;" xml:space="preserve">
<style type="text/css">
	.st0{fill:#0F2132;}
	.st1{fill:#E4540E;}
	.st2{fill:#FFFFFF;}
</style>
<rect x="-2.2" class="st0" width="514.2" height="512"/>
<path class="st1" d="M190,103.2c-8.2,5.5-19.4,13.1-19.4,28.6c0,5.5,4.5,10,10,10s10-4.5,10-10c0-4.4,3.1-6.9,10.6-12
	c8.2-5.5,19.4-13.1,19.4-28.6s-11.2-23-19.4-28.6c-7.5-5.1-10.6-7.6-10.6-12s3.1-6.9,10.6-12c8.2-5.5,19.4-13.1,19.4-28.6
	c0-5.5-4.5-10-10-10c-5.5,0-10,4.5-10,10c0,4.4-3.1,6.9-10.6,12c-8.2,5.5-19.4,13.1-19.4,28.6s11.2,23,19.4,28.6
	c7.5,5.1,10.6,7.6,10.6,12C200.6,95.6,197.5,98.1,190,103.2z"/>
<path class="st1" d="M259,103.2c-8.2,5.5-19.4,13.1-19.4,28.6c0,5.5,4.5,10,10,10s10-4.5,10-10c0-4.4,3.1-6.9,10.6-12
	c8.2-5.5,19.4-13.1,19.4-28.6s-11.2-23-19.4-28.6c-7.5-5.1-10.6-7.6-10.6-12s3.1-6.9,10.6-12c8.2-5.5,19.4-13.1,19.4-28.6
	c0-5.5-4.5-10-10-10c-5.5,0-10,4.5-10,10c0,4.4-3.1,6.9-10.6,12c-8.2,5.5-19.4,13.1-19.4,28.6c0,15.5,11.2,23,19.4,28.6
	c7.5,5.1,10.6,7.6,10.6,12C269.6,95.6,266.5,98.1,259,103.2z"/>
<path class="st1" d="M328,103.2c-8.2,5.5-19.4,13.1-19.4,28.6c0,5.5,4.5,10,10,10s10-4.5,10-10c0-4.4,3.1-6.9,10.6-12
	c8.2-5.5,19.4-13.1,19.4-28.6s-11.2-23-19.4-28.6c-7.5-5.1-10.6-7.6-10.6-12s3.1-6.9,10.6-12c8.2-5.5,19.4-13.1,19.4-28.6
	c0-5.5-4.5-10-10-10c-5.5,0-10,4.5-10,10c0,4.4-3.1,6.9-10.6,12c-8.2,5.5-19.4,13.1-19.4,28.6s11.2,23,19.4,28.6
	c7.5,5.1,10.6,7.6,10.6,12C338.6,95.6,335.5,98.1,328,103.2z"/>
<path class="st2" d="M477.4,229.4h-36.6c1.2-7.1,1.9-14.4,2.2-21.7c11.5-4,19.8-15,19.8-27.9c0-16.3-13.2-29.5-29.5-29.5H78.1
	c-16.3,0-29.5,13.2-29.5,29.5c0,12.9,8.3,23.8,19.8,27.9c0.3,7.4,1.1,14.6,2.2,21.7H34c-5.5,0-10,4.5-10,10c0,5.5,4.5,10,10,10h41
	c13.8,49.7,47.5,91.1,92,115.1L143.3,409c0,0,0,0.1,0,0.1L99.1,492H83.9c-5.5,0-10,4.5-10,10c0,5.5,4.5,10,10,10h42.4
	c5.5,0,10-4.5,10-10c0-5.5-4.5-10-10-10h-4.6l36.4-68.2h197.6L392,492h-6.9c-5.5,0-10,4.5-10,10c0,5.5,4.5,10,10,10h42.4
	c5.5,0,10-4.5,10-10c0-5.5-4.5-10-10-10h-12.8l-44.2-82.9c0,0,0,0,0-0.1l-24.2-45.4c43.6-24.1,76.6-65.1,90.2-114.1h41
	c5.5,0,10-4.5,10-10C487.4,233.9,482.9,229.4,477.4,229.4z M168.8,403.8l16.3-30.7c21.8,8.9,45.6,13.8,70.6,13.8
	c25.7,0,50.2-5.2,72.6-14.6l16.8,31.5H168.8z M255.7,366.9c-89,0-162.1-69.8-167.2-157.5H423C417.8,297.1,344.7,366.9,255.7,366.9z
	 M433.3,189.4H78.1c-5.2,0-9.5-4.3-9.5-9.5c0-5.2,4.3-9.5,9.5-9.5h355.3c5.2,0,9.5,4.3,9.5,9.5C442.9,185.1,438.6,189.4,433.3,189.4
	z"/>
<path class="st1" d="M255.7,349.3c51.9,0,99.5-26.4,127.1-70.5c2.9-4.7,1.5-10.9-3.2-13.8c-4.7-2.9-10.9-1.5-13.8,3.2
	c-24,38.3-65.2,61.1-110.2,61.1c-5.5,0-10,4.5-10,10C245.7,344.9,250.2,349.3,255.7,349.3z"/>
<path class="st1" d="M381.2,240.8c1.6,3.9,5.6,6.4,9.9,6.2c4-0.3,7.5-3,8.8-6.8c1.4-4.1-0.1-8.8-3.6-11.3c-3.2-2.3-7.6-2.5-11-0.5
	C381.1,230.9,379.4,236.2,381.2,240.8z"/>
<path class="st1" d="M-447.3,103.2c-8.2,5.5-19.4,13.1-19.4,28.6c0,5.5,4.5,10,10,10s10-4.5,10-10c0-4.4,3.1-6.9,10.6-12
	c8.2-5.5,19.4-13.1,19.4-28.6s-11.2-23-19.4-28.6c-7.5-5.1-10.6-7.6-10.6-12s3.1-6.9,10.6-12c8.2-5.5,19.4-13.1,19.4-28.6
	c0-5.5-4.5-10-10-10c-5.5,0-10,4.5-10,10c0,4.4-3.1,6.9-10.6,12c-8.2,5.5-19.4,13.1-19.4,28.6s11.2,23,19.4,28.6
	c7.5,5.1,10.6,7.6,10.6,12C-436.7,95.6-439.7,98.1-447.3,103.2z"/>
<path class="st1" d="M-378.3,103.2c-8.2,5.5-19.4,13.1-19.4,28.6c0,5.5,4.5,10,10,10s10-4.5,10-10c0-4.4,3.1-6.9,10.6-12
	c8.2-5.5,19.4-13.1,19.4-28.6s-11.2-23-19.4-28.6c-7.5-5.1-10.6-7.6-10.6-12s3.1-6.9,10.6-12c8.2-5.5,19.4-13.1,19.4-28.6
	c0-5.5-4.5-10-10-10c-5.5,0-10,4.5-10,10c0,4.4-3.1,6.9-10.6,12c-8.2,5.5-19.4,13.1-19.4,28.6c0,15.5,11.2,23,19.4,28.6
	c7.5,5.1,10.6,7.6,10.6,12C-367.7,95.6-370.7,98.1-378.3,103.2z"/>
<path class="st1" d="M-309.3,103.2c-8.2,5.5-19.4,13.1-19.4,28.6c0,5.5,4.5,10,10,10s10-4.5,10-10c0-4.4,3.1-6.9,10.6-12
	c8.2-5.5,19.4-13.1,19.4-28.6s-11.2-23-19.4-28.6c-7.5-5.1-10.6-7.6-10.6-12s3.1-6.9,10.6-12c8.2-5.5,19.4-13.1,19.4-28.6
	c0-5.5-4.5-10-10-10c-5.5,0-10,4.5-10,10c0,4.4-3.1,6.9-10.6,12c-8.2,5.5-19.4,13.1-19.4,28.6s11.2,23,19.4,28.6
	c7.5,5.1,10.6,7.6,10.6,12C-298.7,95.6-301.8,98.1-309.3,103.2z"/>
<path class="st0" d="M-159.9,229.4h-36.6c1.2-7.1,1.9-14.4,2.2-21.7c11.5-4,19.8-15,19.8-27.9c0-16.3-13.2-29.5-29.5-29.5h-355.3
	c-16.3,0-29.5,13.2-29.5,29.5c0,12.9,8.3,23.8,19.8,27.9c0.3,7.4,1.1,14.6,2.2,21.7h-36.6c-5.5,0-10,4.5-10,10c0,5.5,4.5,10,10,10
	h41c13.8,49.7,47.5,91.1,92,115.1l-23.7,44.4c0,0,0,0.1,0,0.1l-44.2,82.9h-15.2c-5.5,0-10,4.5-10,10c0,5.5,4.5,10,10,10h42.4
	c5.5,0,10-4.5,10-10c0-5.5-4.5-10-10-10h-4.6l36.4-68.2h197.6l36.3,68.2h-6.9c-5.5,0-10,4.5-10,10c0,5.5,4.5,10,10,10h42.4
	c5.5,0,10-4.5,10-10c0-5.5-4.5-10-10-10h-12.8l-44.2-82.9c0,0,0,0,0-0.1l-24.2-45.4c43.6-24.1,76.6-65.1,90.2-114.1h41
	c5.5,0,10-4.5,10-10C-149.9,233.9-154.3,229.4-159.9,229.4z M-468.5,403.8l16.3-30.7c21.8,8.9,45.6,13.8,70.6,13.8
	c25.7,0,50.2-5.2,72.6-14.6l16.8,31.5H-468.5z M-381.6,366.9c-89,0-162.1-69.8-167.2-157.5h334.5
	C-219.5,297.1-292.5,366.9-381.6,366.9z M-203.9,189.4h-355.3c-5.2,0-9.5-4.3-9.5-9.5c0-5.2,4.3-9.5,9.5-9.5h355.3
	c5.2,0,9.5,4.3,9.5,9.5C-194.4,185.1-198.7,189.4-203.9,189.4z"/>
<path class="st1" d="M-381.6,349.3c51.9,0,99.5-26.4,127.1-70.5c2.9-4.7,1.5-10.9-3.2-13.8c-4.7-2.9-10.9-1.5-13.8,3.2
	c-24,38.3-65.2,61.1-110.2,61.1c-5.5,0-10,4.5-10,10C-391.6,344.9-387.1,349.3-381.6,349.3z"/>
<path class="st1" d="M-256,240.8c1.6,3.9,5.6,6.4,9.9,6.2c4-0.3,7.5-3,8.8-6.8c1.4-4.1-0.1-8.8-3.6-11.3c-3.2-2.3-7.6-2.5-11-0.5
	C-256.1,230.9-257.9,236.2-256,240.8z"/>
</svg>
