<?xml version="1.0" encoding="utf-8"?>
<!-- Generator: Adobe Illustrator 26.0.3, SVG Export Plug-In . SVG Version: 6.00 Build 0)  -->
<svg version="1.1" id="Layer_1" xmlns="http://www.w3.org/2000/svg" xmlns:xlink="http://www.w3.org/1999/xlink" x="0px" y="0px"
	 viewBox="0 0 512 512" style="enable-background:new 0 0 512 512;" xml:space="preserve">
<style type="text/css">
	.st0{fill:#0F2132;}
	.st1{fill:#FFFFFF;}
	.st2{fill:#E65400;}
</style>
<rect x="661.4" y="-0.4" class="st0" width="512.8" height="512.8"/>
<path class="st1" d="M825,378h-96c-7.2,0-13.2-6-13.2-13.2v-96.4c0-12.8-10.4-22.8-23.2-23.2h-8c-12.8,0-22.8,10.4-23.2,23.2v96.4
	c0,23.2,12,44.8,31.6,56.8l-22.4,59.2c-4.4,12,1.6,25.2,13.6,29.6c11.6,4.4,24.8-1.6,29.2-13.2l24.8-65.2h28v57.2
	c0,12.8,10.4,23.2,22.8,23.2s23.2-10.4,23.2-22.8V432h11.6c12.8,0,22.8-10.4,23.2-23.2v-8C847.8,388,837.4,378,825,378L825,378z
	 M701,492c-1.2,3.6-4.8,6-8.4,6c-4.8,0-8.8-4-8.8-9.2c0-1.2,0-2,0.4-3.2l22-58c2.8,0.8,8.8,3.2,17.6,4L701,492z M799,488.8
	c0,4.8-4,9.2-9.2,9.2s-9.2-4-9.2-9.2V432h18v56.8H799z M833.8,408.8c0,4.8-4,8.8-9.2,9.2h-96c-9.6,0-18-2.8-23.6-5.6
	c-18-9.2-29.6-27.2-29.6-47.6v-96.4c0-4.8,4-8.8,9.2-9.2h8c4.8,0,8.8,4,9.2,9.2v96.4c0,14.8,12,26.8,27.2,27.2h96
	c4.8,0,8.8,4,9.2,9.2L833.8,408.8z"/>
<path class="st1" d="M1173.8,364.8v-96.4c0-12.8-10.4-22.8-23.2-23.2h-8c-12.8,0-22.8,10.4-23.2,23.2v96.4c0,7.2-6,12.8-13.2,13.2
	h-96c-12.8,0-22.8,10.4-23.2,23.2v8c0,12.8,10.4,22.8,23.2,23.2h11.6v57.2c0,12.8,10.4,23.2,23.2,23.2c12.8,0,23.2-10.4,23.2-23.2
	V432h28l24.8,65.2c4.4,12,17.6,18,29.6,13.6s18-17.6,13.6-29.6l-22.4-59.2C1161.8,409.6,1173.8,388,1173.8,364.8z M1054.6,488.8
	c0,4.8-4,9.2-9.2,9.2c-5.2,0-9.2-4-9.2-9.2V432h18v56.8H1054.6z M1129.4,428l22,58c1.6,4.8-0.4,10-5.2,11.6c-1.2,0.4-2,0.4-3.2,0.4
	c-3.6,0-7.2-2.4-8.4-6l-22.8-60.4C1118.2,431.2,1124.6,429.6,1129.4,428z M1106.6,418h-96c-4.8,0-8.8-4-9.2-9.2v-8
	c0-4.8,4-8.8,9.2-9.2h96c14.8,0,27.2-12,27.2-27.2v-96c0-4.8,4-8.8,9.2-9.2h8c4.8,0,8.8,4,9.2,9.2v96.4c0,20-11.6,38.4-29.6,47.6
	C1125,414.8,1117,418,1106.6,418L1106.6,418z"/>
<path class="st1" d="M971,498h-30.4V354H1091c4,0,6.8-3.2,7.2-6.8v-43.6c0-4-3.2-6.8-6.8-7.2H744.6c-4,0-7.2,3.2-7.2,7.2v43.2
	c0,4,3.2,7.2,7.2,7.2H895v144h-30.4c-4,0-7.2,3.2-7.2,7.2s3.2,7.2,7.2,7.2H971c4,0,7.2-3.2,7.2-7.2S975,498,971,498L971,498z
	 M751.4,310.8h332.4V340H751.4V310.8z M909,498V354h18v144H909z"/>
<path class="st1" d="M755,46h23.6v170c0,4,3.2,6.8,6.8,7.2h125.2v13.6c-11.2,4-17.6,16.4-13.6,27.6c4,11.2,16.4,17.6,27.6,13.6
	s17.6-16.4,13.6-27.6c-2-6.4-7.2-11.6-13.6-13.6v-13.6h125.2c4,0,6.8-3.2,7.2-6.8V46h23.6c4,0,6.8-3.2,7.2-6.8v-32
	c0-4-3.2-6.8-6.8-7.2H755c-4,0-7.2,3.2-7.2,7.2v32C748.2,42.8,751,46,755,46L755,46z M917.8,264.8c-4.4,0-7.6-3.6-7.6-7.6
	s3.6-7.6,7.6-7.6s7.6,3.6,7.6,7.6S922.2,264.8,917.8,264.8z M1043,208.8H793V46h250V208.8z M762.2,14h311.6v18H762.2V14z"/>
<path class="st2" d="M825.8,182.8H857c4,0,6.8-3.2,7.2-6.8v-56.8c0-4-3.2-6.8-6.8-7.2h-31.6c-4,0-6.8,3.2-7.2,6.8V176
	C818.6,180,821.8,182.8,825.8,182.8L825.8,182.8z M833,126h17.2v42.8H833V126z"/>
<path class="st2" d="M902.2,182.8h31.2c4,0,6.8-3.2,7.2-6.8V99.2c0-4-3.2-6.8-6.8-7.2h-31.2c-4,0-6.8,3.2-7.2,6.8V176
	C895,180,898.2,182.8,902.2,182.8L902.2,182.8z M909,106h17.2v63.2H909V106z"/>
<path class="st2" d="M978.6,182.8h31.2c4,0,6.8-3.2,7.2-6.8V78.8c0-4-3.2-6.8-7.2-6.8h-31.2c-4,0-7.2,3.2-7.2,7.2V176
	C971.4,180,974.6,182.8,978.6,182.8z M985.4,86h17.2v83.2h-17.2V86z"/>
<path class="st0" d="M163.2,378h-96C60,378,54,372,54,364.8v-96.4c0-12.8-10.4-22.8-23.2-23.2h-8C10,245.2,0,255.6-0.4,268.4v96.4
	c0,23.2,12,44.8,31.6,56.8L8.8,480.8c-4.4,12,1.6,25.2,13.6,29.6c11.6,4.4,24.8-1.6,29.2-13.2L76.4,432h28v57.2
	c0,12.8,10.4,23.2,22.8,23.2s23.2-10.4,23.2-22.8V432H162c12.8,0,22.8-10.4,23.2-23.2v-8C186,388,175.6,378,163.2,378L163.2,378z
	 M39.2,492c-1.2,3.6-4.8,6-8.4,6c-4.8,0-8.8-4-8.8-9.2c0-1.2,0-2,0.4-3.2l22-58c2.8,0.8,8.8,3.2,17.6,4L39.2,492z M137.2,488.8
	c0,4.8-4,9.2-9.2,9.2s-9.2-4-9.2-9.2V432h18v56.8H137.2z M172,408.8c0,4.8-4,8.8-9.2,9.2h-96c-9.6,0-18-2.8-23.6-5.6
	c-18-9.2-29.6-27.2-29.6-47.6v-96.4c0-4.8,4-8.8,9.2-9.2h8c4.8,0,8.8,4,9.2,9.2v96.4c0,14.8,12,26.8,27.2,27.2h96
	c4.8,0,8.8,4,9.2,9.2L172,408.8z"/>
<path class="st0" d="M512,364.8v-96.4c0-12.8-10.4-22.8-23.2-23.2h-8c-12.8,0-22.8,10.4-23.2,23.2v96.4c0,7.2-6,12.8-13.2,13.2h-96
	c-12.8,0-22.8,10.4-23.2,23.2v8c0,12.8,10.4,22.8,23.2,23.2H360v57.2c0,12.8,10.4,23.2,23.2,23.2s23.2-10.4,23.2-23.2V432h28
	l24.8,65.2c4.4,12,17.6,18,29.6,13.6s18-17.6,13.6-29.6L480,422C500,409.6,512,388,512,364.8z M392.8,488.8c0,4.8-4,9.2-9.2,9.2
	s-9.2-4-9.2-9.2V432h18v56.8H392.8z M467.6,428l22,58c1.6,4.8-0.4,10-5.2,11.6c-1.2,0.4-2,0.4-3.2,0.4c-3.6,0-7.2-2.4-8.4-6
	L450,431.6C456.4,431.2,462.8,429.6,467.6,428z M444.8,418h-96c-4.8,0-8.8-4-9.2-9.2v-8c0-4.8,4-8.8,9.2-9.2h96
	c14.8,0,27.2-12,27.2-27.2v-96c0-4.8,4-8.8,9.2-9.2h8c4.8,0,8.8,4,9.2,9.2v96.4c0,20-11.6,38.4-29.6,47.6
	C463.2,414.8,455.2,418,444.8,418L444.8,418z"/>
<path class="st0" d="M309.2,498h-30.4V354h150.4c4,0,6.8-3.2,7.2-6.8v-43.6c0-4-3.2-6.8-6.8-7.2H82.8c-4,0-7.2,3.2-7.2,7.2v43.2
	c0,4,3.2,7.2,7.2,7.2h150.4v144h-30.4c-4,0-7.2,3.2-7.2,7.2s3.2,7.2,7.2,7.2h106.4c4,0,7.2-3.2,7.2-7.2S313.2,498,309.2,498
	L309.2,498z M89.6,310.8H422V340H89.6V310.8z M247.2,498V354h18v144H247.2z"/>
<path class="st0" d="M93.2,46h23.6v170c0,4,3.2,6.8,6.8,7.2h125.2v13.6c-11.2,4-17.6,16.4-13.6,27.6c4,11.2,16.4,17.6,27.6,13.6
	s17.6-16.4,13.6-27.6c-2-6.4-7.2-11.6-13.6-13.6v-13.6H388c4,0,6.8-3.2,7.2-6.8V46h23.6c4,0,6.8-3.2,7.2-6.8v-32
	c0-4-3.2-6.8-6.8-7.2h-326c-4,0-7.2,3.2-7.2,7.2v32C86.4,42.8,89.2,46,93.2,46L93.2,46z M256,264.8c-4.4,0-7.6-3.6-7.6-7.6
	s3.6-7.6,7.6-7.6s7.6,3.6,7.6,7.6S260.4,264.8,256,264.8z M381.2,208.8h-250V46h250V208.8z M100.4,14H412v18H100.4V14z"/>
<path class="st2" d="M164,182.8h31.2c4,0,6.8-3.2,7.2-6.8v-56.8c0-4-3.2-6.8-6.8-7.2H164c-4,0-6.8,3.2-7.2,6.8V176
	C156.8,180,160,182.8,164,182.8L164,182.8z M171.2,126h17.2v42.8h-17.2V126z"/>
<path class="st2" d="M240.4,182.8h31.2c4,0,6.8-3.2,7.2-6.8V99.2c0-4-3.2-6.8-6.8-7.2h-31.2c-4,0-6.8,3.2-7.2,6.8V176
	C233.2,180,236.4,182.8,240.4,182.8L240.4,182.8z M247.2,106h17.2v63.2h-17.2V106z"/>
<path class="st2" d="M316.8,182.8H348c4,0,6.8-3.2,7.2-6.8V78.8c0-4-3.2-6.8-7.2-6.8h-31.2c-4,0-7.2,3.2-7.2,7.2V176
	C309.6,180,312.8,182.8,316.8,182.8z M323.6,86h17.2v83.2h-17.2V86z"/>
</svg>
