<?xml version="1.0" encoding="utf-8"?>
<!-- Generator: Adobe Illustrator 26.0.3, SVG Export Plug-In . SVG Version: 6.00 Build 0)  -->
<svg version="1.1" id="Layer_1" xmlns="http://www.w3.org/2000/svg" xmlns:xlink="http://www.w3.org/1999/xlink" x="0px" y="0px"
	 viewBox="0 0 512 512" style="enable-background:new 0 0 512 512;" xml:space="preserve">
<style type="text/css">
	.st0{fill:#0F2132;}
	.st1{fill:#E65400;}
	.st2{fill:#FFFFFF;}
</style>
<rect x="834.9" y="-1.4" class="st0" width="512" height="513.4"/>
<path id="Shape_00000029026263630496433740000002148385584590936993_" class="st0" d="M477.9,128h-146c9.5-9.2,15.6-21.4,17.4-34.4
	c34.3-2.7,43-23.2,48.8-44.2c2.1-7.7,0.5-15.9-4.4-22.3c-4.9-6.3-12.4-10-20.4-10h-23.4c0-9.4-7.6-17.1-17.1-17.1H179.2
	c-9.4,0-17.1,7.6-17.1,17.1v68.3c0,16.1,6.5,31.5,18,42.7h-146C20,128,8.5,139.5,8.5,153.6v24.1c-0.1,20.6,14.1,38.5,34.1,43.1
	v231.5H25.6C11.5,452.3,0,463.7,0,477.9v17.1c0,9.4,7.6,17.1,17.1,17.1h477.9c9.4,0,17.1-7.6,17.1-17.1v-17.1
	c0-14.1-11.5-25.6-25.6-25.6h-17.1V220.8c20.1-4.6,34.3-22.5,34.1-43.1v-24.1C503.5,139.5,492,128,477.9,128z M373.2,34.1
	c2.7,0,5.2,1.3,6.8,3.4c1.6,2.1,2.1,4.8,1.5,7.3c-5.3,19.3-10.6,29.5-31.6,31.6V34.1H373.2z M179.2,85.3V59.7h25.6
	c4.7,0,8.5-3.8,8.5-8.5s-3.8-8.5-8.5-8.5h-25.6V17.1h153.6v25.6h-93.9c-4.7,0-8.5,3.8-8.5,8.5s3.8,8.5,8.5,8.5h93.9v25.6
	c0,23.6-19.1,42.6-42.7,42.7h-68.3C198.3,128,179.2,108.9,179.2,85.3L179.2,85.3z M452.3,452.3h-34.1V273.1
	c0-9.4-7.6-17.1-17.1-17.1h-85.3c-9.4,0-17.1,7.6-17.1,17.1v179.2H136.5c-4.7,0-8.5,3.8-8.5,8.5s3.8,8.5,8.5,8.5h349.9
	c4.7,0,8.5,3.8,8.5,8.5v17.1H17.1v-17.1c0-4.7,3.8-8.5,8.5-8.5h68.3c4.7,0,8.5-3.8,8.5-8.5s-3.8-8.5-8.5-8.5H59.7V221
	c10.3-2,19.4-7.7,25.7-16c8,10.7,20.7,16.9,34,16.9c13.4,0,26.1-6.3,34.2-16.9c8,10.7,20.6,17,34,16.9c13.4,0,26.1-6.3,34.2-16.9
	c8,10.7,20.6,17,34,16.9c13.4,0,26.1-6.3,34.2-16.9c8,10.7,20.6,17,34,16.9c13.4,0,26.1-6.3,34.2-16.9c8,10.7,20.6,17,34,16.9
	c13.5,0.1,26.1-6.4,33.8-17.5c6.3,8.6,15.5,14.5,25.9,16.5V452.3z M401.1,452.3h-85.3V273.1h85.3V452.3z M486.4,177.7
	c0.3,13.5-9.6,25.1-23,26.9c-9,0.9-17.8-3.1-23.2-10.4c-3-4.2-7.9-6.6-13.1-6.7c-5.6-0.1-10.8,2.5-14.1,7
	c-4.8,6.4-12.4,10.2-20.4,10.2s-15.6-3.8-20.4-10.2c-3.2-4.3-8.3-6.9-13.7-6.9s-10.5,2.6-13.7,6.9c-4.8,6.4-12.4,10.2-20.4,10.2
	s-15.6-3.8-20.4-10.2c-3.3-4.1-8.4-6.6-13.7-6.6s-10.4,2.4-13.7,6.6c-4.8,6.4-12.4,10.2-20.4,10.2s-15.6-3.8-20.4-10.2
	c-3.3-4.1-8.4-6.6-13.7-6.6c-5.3,0-10.4,2.4-13.7,6.6c-4.8,6.4-12.4,10.2-20.4,10.2s-15.6-3.8-20.4-10.2c-3.3-4.1-8.4-6.6-13.7-6.6
	s-10.4,2.4-13.7,6.6c-4.8,6.4-12.4,10.2-20.4,10.2s-15.6-3.8-20.4-10.2c-3.3-4.4-8.5-7-14-7h-0.2c-5.2,0-10,2.5-13.1,6.6
	c-5.4,7.3-14.2,11.3-23.2,10.4c-13.4-1.8-23.3-13.4-23-26.9v-24.1c0-4.7,3.8-8.5,8.5-8.5h443.7c4.7,0,8.5,3.8,8.5,8.5L486.4,177.7z"
	/>
<path id="Shape_00000137846620285021904500000011174336824246188443_" class="st1" d="M247.5,256H110.9c-9.4,0-17.1,7.6-17.1,17.1
	v136.5c0,9.4,7.6,17.1,17.1,17.1h136.5c9.4,0,17.1-7.6,17.1-17.1V273.1C264.5,263.6,256.9,256,247.5,256z M247.5,273.1v102.4H110.9
	V273.1H247.5z M110.9,409.6v-17.1h136.5v17.1H110.9z"/>
<path id="Shape_00000010286730946571027190000004368438192207338665_" class="st0" d="M375.5,392.5c4.7,0,8.5-3.8,8.5-8.5v-42.7
	c0-4.7-3.8-8.5-8.5-8.5c-4.7,0-8.5,3.8-8.5,8.5V384C366.9,388.7,370.8,392.5,375.5,392.5z"/>
<path id="Shape_00000125564363277256972230000013763912695300094897_" class="st1" d="M136.5,315.7c2.3,0,4.4-0.9,6-2.5l8.5-8.5
	c3.2-3.3,3.2-8.7-0.1-12c-3.3-3.3-8.6-3.3-12-0.1l-8.5,8.5c-2.4,2.4-3.2,6.1-1.8,9.3C130,313.7,133.1,315.7,136.5,315.7z"/>
<path id="Shape_00000133516119086560340290000013892447824732515744_" class="st1" d="M136.5,358.4c2.3,0,4.4-0.9,6-2.5l51.2-51.2
	c3.2-3.3,3.2-8.7-0.1-12s-8.6-3.3-12-0.1l-51.2,51.2c-2.4,2.4-3.2,6.1-1.8,9.3C130,356.3,133.1,358.4,136.5,358.4z"/>
<path id="Shape_00000096755406809494156880000005244551368775989165_" class="st2" d="M1312.8,128h-146c9.5-9.2,15.6-21.4,17.4-34.4
	c34.3-2.7,43-23.2,48.8-44.2c2.1-7.7,0.5-15.9-4.4-22.3c-4.9-6.3-12.4-10-20.4-10h-23.4c0-9.4-7.6-17.1-17.1-17.1h-153.6
	c-9.4,0-17.1,7.6-17.1,17.1v68.3c0,16.1,6.5,31.5,18,42.7H869c-14.1,0-25.6,11.5-25.6,25.6v24.1c-0.1,20.6,14.1,38.5,34.1,43.1
	v231.5h-17.1c-14.1,0-25.6,11.5-25.6,25.6v17.1c0,9.4,7.6,17.1,17.1,17.1h477.9c9.4,0,17.1-7.6,17.1-17.1v-17.1
	c0-14.1-11.5-25.6-25.6-25.6h-17.1V220.8c20.1-4.6,34.3-22.5,34.1-43.1v-24.1C1338.4,139.5,1326.9,128,1312.8,128z M1208.1,34.1
	c2.7,0,5.2,1.3,6.8,3.4c1.6,2.1,2.1,4.8,1.5,7.3c-5.3,19.3-10.6,29.5-31.6,31.6V34.1H1208.1z M1014.1,85.3V59.7h25.6
	c4.7,0,8.5-3.8,8.5-8.5s-3.8-8.5-8.5-8.5h-25.6V17.1h153.6v25.6h-93.9c-4.7,0-8.5,3.8-8.5,8.5s3.8,8.5,8.5,8.5h93.9v25.6
	c0,23.6-19.1,42.6-42.7,42.7h-68.3C1033.2,128,1014.1,108.9,1014.1,85.3L1014.1,85.3z M1287.2,452.3H1253V273.1
	c0-9.4-7.6-17.1-17.1-17.1h-85.3c-9.4,0-17.1,7.6-17.1,17.1v179.2H971.4c-4.7,0-8.5,3.8-8.5,8.5s3.8,8.5,8.5,8.5h349.9
	c4.7,0,8.5,3.8,8.5,8.5v17.1H852v-17.1c0-4.7,3.8-8.5,8.5-8.5h68.3c4.7,0,8.5-3.8,8.5-8.5s-3.8-8.5-8.5-8.5h-34.1V221
	c10.3-2,19.4-7.7,25.7-16c8,10.7,20.7,16.9,34,16.9c13.4,0,26.1-6.3,34.2-16.9c8,10.7,20.6,17,34,16.9c13.4,0,26.1-6.3,34.2-16.9
	c8,10.7,20.6,17,34,16.9c13.4,0,26.1-6.3,34.2-16.9c8,10.7,20.6,17,34,16.9c13.4,0,26.1-6.3,34.2-16.9c8,10.7,20.6,17,34,16.9
	c13.5,0.1,26.1-6.4,33.8-17.5c6.3,8.6,15.5,14.5,25.9,16.5V452.3z M1236,452.3h-85.3V273.1h85.3V452.3z M1321.3,177.7
	c0.3,13.5-9.6,25.1-23,26.9c-9,0.9-17.8-3.1-23.2-10.4c-3-4.2-7.9-6.6-13.1-6.7c-5.6-0.1-10.8,2.5-14.1,7
	c-4.8,6.4-12.4,10.2-20.4,10.2c-8,0-15.6-3.8-20.4-10.2c-3.2-4.3-8.3-6.9-13.7-6.9s-10.5,2.6-13.7,6.9c-4.8,6.4-12.4,10.2-20.4,10.2
	s-15.6-3.8-20.4-10.2c-3.3-4.1-8.4-6.6-13.7-6.6c-5.3,0-10.4,2.4-13.7,6.6c-4.8,6.4-12.4,10.2-20.4,10.2s-15.6-3.8-20.4-10.2
	c-3.3-4.1-8.4-6.6-13.7-6.6s-10.4,2.4-13.7,6.6c-4.8,6.4-12.4,10.2-20.4,10.2c-8,0-15.6-3.8-20.4-10.2c-3.3-4.1-8.4-6.6-13.7-6.6
	c-5.3,0-10.4,2.4-13.7,6.6c-4.8,6.4-12.4,10.2-20.4,10.2s-15.6-3.8-20.4-10.2c-3.3-4.4-8.5-7-14-7h-0.2c-5.2,0-10,2.5-13.1,6.6
	c-5.4,7.3-14.2,11.3-23.2,10.4c-13.4-1.8-23.3-13.4-23-26.9v-24.1c0-4.7,3.8-8.5,8.5-8.5h443.7c4.7,0,8.5,3.8,8.5,8.5V177.7z"/>
<path id="Shape_00000080200602812815475080000011350440455154080181_" class="st1" d="M1082.4,256H945.8c-9.4,0-17.1,7.6-17.1,17.1
	v136.5c0,9.4,7.6,17.1,17.1,17.1h136.5c9.4,0,17.1-7.6,17.1-17.1V273.1C1099.4,263.6,1091.8,256,1082.4,256z M1082.4,273.1v102.4
	H945.8V273.1H1082.4z M945.8,409.6v-17.1h136.5v17.1H945.8z"/>
<path id="Shape_00000099640619441566689280000013493649164956653976_" class="st0" d="M1210.4,392.5c4.7,0,8.5-3.8,8.5-8.5v-42.7
	c0-4.7-3.8-8.5-8.5-8.5c-4.7,0-8.5,3.8-8.5,8.5V384C1201.8,388.7,1205.6,392.5,1210.4,392.5z"/>
<path id="Shape_00000102520288244300316620000003414140161876765073_" class="st1" d="M971.4,315.7c2.3,0,4.4-0.9,6-2.5l8.5-8.5
	c3.2-3.3,3.2-8.7-0.1-12c-3.3-3.3-8.6-3.3-12-0.1l-8.5,8.5c-2.4,2.4-3.2,6.1-1.8,9.3C964.9,313.7,968,315.7,971.4,315.7z"/>
<path id="Shape_00000079445527154967093820000003054491672364286339_" class="st1" d="M971.4,358.4c2.3,0,4.4-0.9,6-2.5l51.2-51.2
	c3.2-3.3,3.2-8.7-0.1-12s-8.6-3.3-12-0.1l-51.2,51.2c-2.4,2.4-3.2,6.1-1.8,9.3C964.9,356.3,968,358.4,971.4,358.4z"/>
</svg>
