<?xml version="1.0" encoding="utf-8"?>
<!-- Generator: Adobe Illustrator 26.0.3, SVG Export Plug-In . SVG Version: 6.00 Build 0)  -->
<svg version="1.1" id="Layer_1" xmlns="http://www.w3.org/2000/svg" xmlns:xlink="http://www.w3.org/1999/xlink" x="0px" y="0px"
	 viewBox="0 0 512 512" style="enable-background:new 0 0 512 512;" xml:space="preserve">
<style type="text/css">
	.st0{fill:#0F2132;}
	.st1{fill:#FFFFFF;}
	.st2{fill:#E65400;}
</style>
<rect x="815" class="st0" width="513.5" height="513.5"/>
<path class="st1" d="M1319,0H823c-4.4,0-8,3.6-8,8v320c0,4.4,3.6,8,8,8h8c9.6,0,18.3-5.8,22.1-14.6l7.6,7.6c4.5,4.5,10.6,7.1,17,7
	h9.4c4.4,0,8-3.6,8-8v-48c0-2.7-0.2-5.3-0.5-8h353c-0.3,2.7-0.5,5.3-0.5,8v48c0,4.4,3.6,8,8,8h9.4c6.4,0,12.5-2.5,17-7l7.6-7.6
	c3.8,8.8,12.5,14.6,22.1,14.6h8c4.4,0,8-3.6,8-8V8C1327,3.6,1323.4,0,1319,0z M1279,16v24c0,4.4,3.6,8,8,8c4.4,0,8-3.6,8-8V16h16
	v191.5c-28.6-3.9-50.6-27.2-52.9-55.9L1247.6,16H1279z M831,16h16v24c0,4.4,3.6,8,8,8s8-3.6,8-8V16h31.4l-10.4,135.6
	c-2.3,28.8-24.4,52-53,55.9V16z M879,320h-1.4c-2.1,0-4.2-0.9-5.7-2.3l-19.3-19.3c-3.1-3.1-8.2-3.1-11.3,0c-1.5,1.5-2.3,3.5-2.3,5.7
	v8c0,4.4-3.6,8-8,8v-95.4c27.6,3.9,48,27.6,48,55.4V320z M890.8,256c-3.6-10.1-9.3-19.3-16.9-27c-5.2-5.1-11-9.4-17.5-12.8
	c24.7-12,41.2-36.1,43.4-63.4L910.4,16h321.2l10.5,136.8c2.2,27.3,18.7,51.5,43.4,63.4c-6.4,3.4-12.4,7.7-17.5,12.9
	c-7.5,7.6-13.3,16.8-16.9,26.9H890.8z M1311,320c-4.4,0-8-3.6-8-8v-8c0-4.4-3.6-8-8-8c-2.1,0-4.2,0.8-5.7,2.3l-19.3,19.3
	c-1.5,1.5-3.5,2.3-5.7,2.3h-1.4v-40c0-27.9,20.4-51.5,48-55.4V320z"/>
<path class="st1" d="M855,96c-4.4,0-8,3.6-8,8v24.2c0,10-1,20-3,29.8l-4.9,24.4c-0.9,4.3,1.9,8.6,6.2,9.4c0,0,0,0,0,0
	c0.5,0.1,1.1,0.2,1.6,0.2c3.8,0,7.1-2.7,7.8-6.4l4.9-24.5c2.2-10.9,3.3-21.9,3.3-33V104C863,99.6,859.4,96,855,96z"/>
<path class="st1" d="M847,248c-4.4,0-8,3.6-8,8v16c0,4.4,3.6,8,8,8s8-3.6,8-8v-16C855,251.6,851.4,248,847,248z"/>
<path class="st1" d="M1295,288c4.4,0,8-3.6,8-8v-16c0-4.4-3.6-8-8-8c-4.4,0-8,3.6-8,8v16C1287,284.4,1290.6,288,1295,288z"/>
<path class="st1" d="M1263,384h-16v-8c0-22.1-17.9-40-40-40h-48c-12.6,0-24.5,6.1-32,16.2c-7.5-10.2-19.4-16.2-32-16.2h-48
	c-12.6,0-24.5,6.1-32,16.2c-7.5-10.2-19.4-16.2-32-16.2h-48c-22.1,0-40,17.9-40,40v8h-16c-22.1,0-40,17.9-40,40v80c0,4.4,3.6,8,8,8
	h448c4.4,0,8-3.6,8-8v-80C1303,401.9,1285.1,384,1263,384z M1159,352h48c13.3,0,24,10.7,24,24v8h-16c-12.6,0-24.5,6.1-32,16.2
	c-7.5-10.2-19.4-16.2-32-16.2h-16v-8C1135,362.7,1145.7,352,1159,352z M1047,352h48c13.3,0,24,10.7,24,24v8h-16
	c-12.6,0-24.5,6.1-32,16.2c-7.5-10.2-19.4-16.2-32-16.2h-16v-8C1023,362.7,1033.7,352,1047,352z M911,376c0-13.3,10.7-24,24-24h48
	c13.3,0,24,10.7,24,24v8h-16c-12.6,0-24.5,6.1-32,16.2c-7.5-10.2-19.4-16.2-32-16.2h-16V376z M855,424c0-13.3,10.7-24,24-24h48
	c13.3,0,24,10.7,24,24v72h-96V424z M967,424c0-13.3,10.7-24,24-24h48c13.3,0,24,10.7,24,24v72h-96V424z M1079,424
	c0-13.3,10.7-24,24-24h48c13.3,0,24,10.7,24,24v72h-96V424z M1287,496h-96v-72c0-13.3,10.7-24,24-24h48c13.3,0,24,10.7,24,24V496z"
	/>
<path class="st2" d="M1136.3,89.1c-3.8,2.2-5.1,7.1-2.9,10.9c19.9,34.4,8.2,78.5-26.3,98.4s-78.5,8.2-98.4-26.3
	c-19.9-34.4-8.2-78.5,26.3-98.4c25-14.5,56.1-12.6,79.2,4.7c3.5,2.7,8.5,1.9,11.2-1.6c2.7-3.5,1.9-8.5-1.6-11.2
	c-38.9-29.2-94-21.3-123.2,17.6c-29.2,38.9-21.3,94,17.6,123.2c38.9,29.2,94,21.3,123.2-17.6c21.2-28.2,23.4-66.3,5.8-96.8
	C1145,88.2,1140.1,86.9,1136.3,89.1z"/>
<path class="st2" d="M1043.2,89.2c-3.7-2.3-8.7-1.2-11,2.5c-0.8,1.3-1.2,2.7-1.2,4.2v80c0,4.4,3.6,8,8,8c1.5,0,3-0.4,4.2-1.2l64-40
	c3.8-2.3,4.9-7.3,2.6-11c-0.7-1-1.5-1.9-2.6-2.6L1043.2,89.2z M1047,161.6v-51.2l40.9,25.6L1047,161.6z"/>
<path class="st1" d="M1287.1,185.6c0.8,3.7,4,6.4,7.8,6.4c0.5,0,1.1-0.1,1.6-0.2c4.3-0.9,7.1-5.1,6.2-9.4c0,0,0,0,0,0l-4.9-24.5
	c-2-9.8-2.9-19.8-3-29.8V104c0-4.4-3.6-8-8-8c-4.4,0-8,3.6-8,8v24.2c0,11.1,1.1,22.1,3.3,32.9L1287.1,185.6z"/>
<path class="st0" d="M504,0H8C3.6,0,0,3.6,0,8v320c0,4.4,3.6,8,8,8h8c9.6,0,18.3-5.8,22.1-14.6l7.6,7.6c4.5,4.5,10.6,7.1,17,7H72
	c4.4,0,8-3.6,8-8v-48c0-2.7-0.2-5.3-0.5-8h353c-0.3,2.7-0.5,5.3-0.5,8v48c0,4.4,3.6,8,8,8h9.4c6.4,0,12.5-2.5,17-7l7.6-7.6
	c3.8,8.8,12.5,14.6,22.1,14.6h8c4.4,0,8-3.6,8-8V8C512,3.6,508.4,0,504,0z M464,16v24c0,4.4,3.6,8,8,8s8-3.6,8-8V16h16v191.5
	c-28.6-3.9-50.6-27.2-52.9-55.9L432.6,16H464z M16,16h16v24c0,4.4,3.6,8,8,8s8-3.6,8-8V16h31.4L69,151.6c-2.3,28.8-24.4,52-53,55.9
	V16z M64,320h-1.4c-2.1,0-4.2-0.9-5.7-2.3l-19.3-19.3c-3.1-3.1-8.2-3.1-11.3,0c-1.5,1.5-2.3,3.5-2.3,5.7v8c0,4.4-3.6,8-8,8v-95.4
	c27.6,3.9,48,27.6,48,55.4V320z M75.8,256c-3.6-10.1-9.3-19.3-16.9-27c-5.2-5.1-11-9.4-17.5-12.8c24.7-12,41.2-36.1,43.4-63.4
	L95.4,16h321.2l10.5,136.8c2.2,27.3,18.7,51.5,43.4,63.4c-6.4,3.4-12.4,7.7-17.5,12.9c-7.5,7.6-13.3,16.8-16.9,26.9H75.8z M496,320
	c-4.4,0-8-3.6-8-8v-8c0-4.4-3.6-8-8-8c-2.1,0-4.2,0.8-5.7,2.3L455,317.7c-1.5,1.5-3.5,2.3-5.7,2.3H448v-40c0-27.9,20.4-51.5,48-55.4
	V320z"/>
<path class="st0" d="M40,96c-4.4,0-8,3.6-8,8v24.2c0,10-1,20-3,29.8l-4.9,24.4c-0.9,4.3,1.9,8.6,6.2,9.4c0,0,0,0,0,0
	c0.5,0.1,1.1,0.2,1.6,0.2c3.8,0,7.1-2.7,7.8-6.4l4.9-24.5c2.2-10.9,3.3-21.9,3.3-33V104C48,99.6,44.4,96,40,96z"/>
<path class="st0" d="M32,248c-4.4,0-8,3.6-8,8v16c0,4.4,3.6,8,8,8s8-3.6,8-8v-16C40,251.6,36.4,248,32,248z"/>
<path class="st0" d="M480,288c4.4,0,8-3.6,8-8v-16c0-4.4-3.6-8-8-8s-8,3.6-8,8v16C472,284.4,475.6,288,480,288z"/>
<path class="st0" d="M448,384h-16v-8c0-22.1-17.9-40-40-40h-48c-12.6,0-24.5,6.1-32,16.2c-7.5-10.2-19.4-16.2-32-16.2h-48
	c-12.6,0-24.5,6.1-32,16.2c-7.5-10.2-19.4-16.2-32-16.2h-48c-22.1,0-40,17.9-40,40v8H64c-22.1,0-40,17.9-40,40v80c0,4.4,3.6,8,8,8
	h448c4.4,0,8-3.6,8-8v-80C488,401.9,470.1,384,448,384z M344,352h48c13.3,0,24,10.7,24,24v8h-16c-12.6,0-24.5,6.1-32,16.2
	c-7.5-10.2-19.4-16.2-32-16.2h-16v-8C320,362.7,330.7,352,344,352z M232,352h48c13.3,0,24,10.7,24,24v8h-16
	c-12.6,0-24.5,6.1-32,16.2c-7.5-10.2-19.4-16.2-32-16.2h-16v-8C208,362.7,218.7,352,232,352z M96,376c0-13.3,10.7-24,24-24h48
	c13.3,0,24,10.7,24,24v8h-16c-12.6,0-24.5,6.1-32,16.2c-7.5-10.2-19.4-16.2-32-16.2H96V376z M40,424c0-13.3,10.7-24,24-24h48
	c13.3,0,24,10.7,24,24v72H40V424z M152,424c0-13.3,10.7-24,24-24h48c13.3,0,24,10.7,24,24v72h-96V424z M264,424
	c0-13.3,10.7-24,24-24h48c13.3,0,24,10.7,24,24v72h-96V424z M472,496h-96v-72c0-13.3,10.7-24,24-24h48c13.3,0,24,10.7,24,24V496z"/>
<path class="st2" d="M321.3,89.1c-3.8,2.2-5.1,7.1-2.9,10.9c19.9,34.4,8.2,78.5-26.3,98.4s-78.5,8.2-98.4-26.3s-8.2-78.5,26.3-98.4
	c25-14.5,56.1-12.6,79.2,4.7c3.5,2.7,8.5,1.9,11.2-1.6s1.9-8.5-1.6-11.2c-38.9-29.2-94-21.3-123.2,17.6s-21.3,94,17.6,123.2
	s94,21.3,123.2-17.6c21.2-28.2,23.4-66.3,5.8-96.8C330,88.2,325.1,86.9,321.3,89.1z"/>
<path class="st2" d="M228.2,89.2c-3.7-2.3-8.7-1.2-11,2.5c-0.8,1.3-1.2,2.7-1.2,4.2v80c0,4.4,3.6,8,8,8c1.5,0,3-0.4,4.2-1.2l64-40
	c3.8-2.3,4.9-7.3,2.6-11c-0.7-1-1.5-1.9-2.6-2.6L228.2,89.2z M232,161.6v-51.2l40.9,25.6L232,161.6z"/>
<path class="st0" d="M472.2,185.6c0.8,3.7,4,6.4,7.8,6.4c0.5,0,1.1-0.1,1.6-0.2c4.3-0.9,7.1-5.1,6.2-9.4c0,0,0,0,0,0l-4.9-24.5
	c-2-9.8-2.9-19.8-3-29.8V104c0-4.4-3.6-8-8-8s-8,3.6-8,8v24.2c0,11.1,1.1,22.1,3.3,32.9L472.2,185.6z"/>
</svg>
