<?xml version="1.0" encoding="utf-8"?>
<!-- Generator: Adobe Illustrator 26.0.3, SVG Export Plug-In . SVG Version: 6.00 Build 0)  -->
<svg version="1.1" id="icons" xmlns="http://www.w3.org/2000/svg" xmlns:xlink="http://www.w3.org/1999/xlink" x="0px" y="0px"
	 viewBox="0 0 512 512" style="enable-background:new 0 0 512 512;" xml:space="preserve">
<style type="text/css">
	.st0{fill:#0F2132;}
	.st1{fill:#FFFFFF;}
	.st2{fill:#E65400;}
</style>
<rect x="759.8" y="0" class="st0" width="512" height="512"/>
<g>
	<path class="st1" d="M1204.4,187.9c6.5-0.2,12.8-2,18.5-5.3c19.1-11,25.7-35.6,14.6-54.6c-7.1-12.3-20.4-20-34.7-20
		c-7,0-13.9,1.8-20,5.4c-5.8,3.4-10.3,8.1-13.7,13.4c-18.2-9.1-40-8.9-58.3,0.6c-4.8-3.6-9.8-6.9-15.1-10c-5.2-3-10.7-5.7-16.2-8.1
		c-0.9-20.6-11.6-39.5-28.6-50.8c2.9-5.6,4.8-11.8,4.8-18.6c0-22.1-17.9-40-40-40s-40,17.9-40,40c0,6.7,1.8,13,4.8,18.6
		c-17,11.3-27.8,30.3-28.6,50.9c-11,4.8-21.5,10.9-31.2,18c-18.3-9.6-40.1-9.8-58.3-0.7c-3.4-5.3-7.8-10.1-13.7-13.4
		c-6.1-3.5-13-5.4-20-5.4c-14.3,0-27.5,7.7-34.7,20c-11,19.1-4.5,43.6,14.6,54.6c5.6,3.3,12,5,18.5,5.3c1.3,20.3,12.3,39,29.6,50
		c-1.4,11.9-1.3,24,0.1,36.1c-17.4,11-28.5,29.8-29.8,50.1c-6.5,0.2-12.8,2-18.5,5.3c-19.1,11-25.7,35.5-14.6,54.6
		c7.1,12.3,20.4,20,34.7,20c7,0,13.9-1.8,20-5.4c5.8-3.4,10.4-8.1,13.7-13.5c9,4.5,18.8,6.8,28.6,6.8c10.2,0,20.3-2.5,29.6-7.4
		c4.8,3.6,9.8,6.9,15.1,10c5.2,3,10.7,5.7,16.2,8.1c0.9,20.6,11.6,39.5,28.6,50.8c-3,5.6-4.8,11.8-4.8,18.6c0,22.1,17.9,40,40,40
		s40-17.9,40-40c0-6.7-1.8-13-4.8-18.6c17-11.3,27.8-30.3,28.6-50.9c11-4.8,21.5-10.9,31.2-18c9.3,4.9,19.5,7.4,29.7,7.4
		c9.9,0,19.7-2.3,28.7-6.8c3.4,5.4,7.9,10.1,13.7,13.5c6.1,3.5,13,5.4,20,5.4c14.3,0,27.6-7.7,34.7-20c11-19.1,4.5-43.6-14.6-54.6
		c-5.6-3.3-12-5-18.5-5.3c-1.3-20.3-12.3-39-29.6-50c1.4-11.9,1.3-24-0.1-36.1C1192,227,1203.1,208.2,1204.4,187.9L1204.4,187.9z
		 M1190.9,127.2c3.6-2.1,7.8-3.2,12-3.2c8.6,0,16.5,4.6,20.8,12c6.6,11.5,2.7,26.2-8.8,32.8c-3.6,2.1-7.8,3.2-12,3.2
		c-8.6,0-16.5-4.6-20.8-12C1175.5,148.5,1179.4,133.8,1190.9,127.2z M1015.8,16c13.2,0,24,10.8,24,24s-10.8,24-24,24s-24-10.8-24-24
		S1002.6,16,1015.8,16z M990.9,71.1c6.9,5.5,15.4,8.9,24.9,8.9s18-3.4,24.9-8.9c11.6,7.1,19.7,18.8,22.2,32.1
		c-15.2-4.7-31-7.2-46.9-7.2c-16.2,0-32.1,2.6-47.3,7.2C971.3,89.9,979.3,78.2,990.9,71.1z M808,136c4.3-7.4,12.2-12,20.8-12
		c4.2,0,8.3,1.1,12,3.2c11.5,6.6,15.4,21.3,8.8,32.8c-4.3,7.4-12.3,12-20.8,12c-4.2,0-8.3-1.1-12-3.2
		C805.3,162.2,801.4,147.5,808,136z M843.2,185.2c8.4-3.3,15.6-9.2,20.2-17.2c4.7-8.2,6-17.3,4.7-26c12-6.5,26.2-7.6,39-3.2
		c-11.6,10.7-21.7,23.2-29.8,37.2c-8.1,14-13.9,28.9-17.4,44.2C849.7,211.5,843.6,198.7,843.2,185.2z M840.8,384.8
		c-3.7,2.1-7.8,3.2-12,3.2c-8.6,0-16.5-4.6-20.8-12c-6.6-11.5-2.7-26.2,8.8-32.8c3.6-2.1,7.8-3.2,12-3.2c8.6,0,16.5,4.6,20.8,12
		C856.2,363.5,852.2,378.2,840.8,384.8z M868.1,370c1.3-8.7,0-17.8-4.7-26c-4.6-8-11.8-14-20.2-17.2c0.4-13.6,6.5-26.4,16.8-35.2
		c0.4,1.9,0.7,3.9,1.3,5.8c7.9,29.5,23.8,55.5,45.7,75.8C894.3,377.6,880.1,376.5,868.1,370z M876.8,293.3
		c-10-37.2-4.9-76,14.4-109.3c25.6-44.4,73.5-72,124.9-72c25.1,0,50,6.7,71.8,19.3c33.3,19.2,57.1,50.3,67.1,87.4
		c10,37.2,4.9,76-14.4,109.3c-25.6,44.4-73.5,72-124.9,72c-25.1,0-50-6.7-71.8-19.3C910.5,361.5,886.7,330.4,876.8,293.3
		L876.8,293.3z M1015.8,496c-13.2,0-24-10.8-24-24s10.8-24,24-24s24,10.8,24,24S1029.1,496,1015.8,496z M1040.7,440.9
		c-6.9-5.5-15.4-8.9-24.9-8.9s-18,3.4-24.9,8.9c-11.6-7.1-19.7-18.8-22.2-32.1c15.2,4.7,31,7.2,46.9,7.2c16.2,0,32.1-2.6,47.3-7.2
		C1060.4,422.1,1052.4,433.8,1040.7,440.9L1040.7,440.9z M1223.7,376c-4.3,7.4-12.2,12-20.8,12c-4.2,0-8.3-1.1-12-3.2
		c-11.5-6.6-15.4-21.3-8.8-32.8c4.3-7.4,12.3-12,20.8-12c4.2,0,8.3,1.1,12,3.2C1226.4,349.8,1230.3,364.5,1223.7,376z M1188.4,326.8
		c-8.4,3.3-15.6,9.2-20.2,17.2c-4.7,8.2-6,17.3-4.7,26c-12,6.5-26.2,7.6-39,3.2c11.6-10.7,21.7-23.2,29.8-37.2s13.9-28.9,17.4-44.2
		C1182,300.5,1188.1,313.3,1188.4,326.8L1188.4,326.8z M1171.6,220.4c-0.4-1.9-0.8-3.9-1.3-5.8c-7.9-29.5-23.8-55.5-45.7-75.8
		c12.8-4.5,27-3.4,38.9,3.2c-1.3,8.7,0,17.8,4.7,26c4.6,8,11.8,14,20.2,17.2C1188.1,198.8,1181.9,211.6,1171.6,220.4L1171.6,220.4z"
		/>
	<path class="st2" d="M1078.3,245.9c-25.8-6.4-45.8-26.5-52.3-52.3c-2.6-10.3-17.6-10.1-20.2,0c-6.4,25.8-26.5,45.8-52.3,52.3
		c-10.8,2.7-10.1,17.6,0,20.2c25.8,6.4,45.8,26.5,52.3,52.3c2.5,10.1,17.6,10.2,20.2,0c6.4-25.8,26.5-45.8,52.3-52.3
		C1088.3,263.6,1088.5,248.5,1078.3,245.9z M1016,301.4c-8.8-20.4-25-36.7-45.4-45.4c20.4-8.8,36.7-25,45.4-45.4
		c8.8,20.4,25,36.7,45.4,45.4C1041,264.8,1024.7,281,1016,301.4z"/>
</g>
<g>
	<path class="st0" d="M444.6,187.9c6.5-0.2,12.8-2,18.5-5.3c19.1-11,25.7-35.6,14.6-54.6c-7.1-12.3-20.4-20-34.7-20
		c-7,0-13.9,1.8-20,5.4c-5.8,3.4-10.3,8.1-13.7,13.4c-18.2-9.1-40-8.9-58.3,0.6c-4.8-3.6-9.8-6.9-15.1-10c-5.2-3-10.7-5.7-16.2-8.1
		c-0.9-20.6-11.6-39.5-28.6-50.8C294.2,53,296,46.7,296,40c0-22.1-17.9-40-40-40s-40,17.9-40,40c0,6.7,1.8,13,4.8,18.6
		c-17,11.3-27.8,30.3-28.6,50.9c-11,4.8-21.5,10.9-31.2,18c-18.3-9.6-40.1-9.8-58.3-0.7c-3.4-5.3-7.8-10.1-13.7-13.4
		c-6.1-3.5-13-5.4-20-5.4c-14.3,0-27.5,7.7-34.7,20c-11,19.1-4.5,43.6,14.6,54.6c5.6,3.3,12,5,18.5,5.3c1.3,20.3,12.3,39,29.6,50
		c-1.4,11.9-1.3,24,0.1,36.1c-17.4,11-28.5,29.8-29.8,50.1c-6.5,0.2-12.8,2-18.5,5.3c-19.1,11-25.7,35.5-14.6,54.6
		c7.1,12.3,20.4,20,34.7,20c7,0,13.9-1.8,20-5.4c5.8-3.4,10.4-8.1,13.7-13.5c9,4.5,18.8,6.8,28.6,6.8c10.2,0,20.3-2.5,29.6-7.4
		c4.8,3.6,9.8,6.9,15.1,10c5.2,3,10.7,5.7,16.2,8.1c0.9,20.6,11.6,39.5,28.6,50.8c-3,5.6-4.8,11.8-4.8,18.6c0,22.1,17.9,40,40,40
		s40-17.9,40-40c0-6.7-1.8-13-4.8-18.6c17-11.3,27.8-30.3,28.6-50.9c11-4.8,21.5-10.9,31.2-18c9.3,4.9,19.5,7.4,29.7,7.4
		c9.9,0,19.7-2.3,28.7-6.8c3.4,5.4,7.9,10.1,13.7,13.5c6.1,3.5,13,5.4,20,5.4c14.3,0,27.6-7.7,34.7-20c11-19.1,4.5-43.6-14.6-54.6
		c-5.6-3.3-12-5-18.5-5.3c-1.3-20.3-12.3-39-29.6-50c1.4-11.9,1.3-24-0.1-36.1C432.2,227,443.3,208.2,444.6,187.9L444.6,187.9z
		 M431.1,127.2c3.6-2.1,7.8-3.2,12-3.2c8.6,0,16.5,4.6,20.8,12c6.6,11.5,2.7,26.2-8.8,32.8c-3.6,2.1-7.8,3.2-12,3.2
		c-8.6,0-16.5-4.6-20.8-12C415.7,148.5,419.6,133.8,431.1,127.2z M256,16c13.2,0,24,10.8,24,24s-10.8,24-24,24s-24-10.8-24-24
		S242.8,16,256,16z M231.1,71.1C238,76.6,246.5,80,256,80s18-3.4,24.9-8.9c11.6,7.1,19.7,18.8,22.2,32.1c-15.2-4.7-31-7.2-46.9-7.2
		c-16.2,0-32.1,2.6-47.3,7.2C211.4,89.9,219.5,78.2,231.1,71.1z M48.2,136c4.3-7.4,12.2-12,20.8-12c4.2,0,8.3,1.1,12,3.2
		c11.5,6.6,15.4,21.3,8.8,32.8c-4.3,7.4-12.3,12-20.8,12c-4.2,0-8.3-1.1-12-3.2C45.5,162.2,41.5,147.5,48.2,136z M83.4,185.2
		C91.8,182,99,176,103.6,168c4.7-8.2,6-17.3,4.7-26c12-6.5,26.2-7.6,39-3.2c-11.6,10.7-21.7,23.2-29.8,37.2s-13.9,28.9-17.4,44.2
		C89.9,211.5,83.8,198.7,83.4,185.2z M81,384.8c-3.7,2.1-7.8,3.2-12,3.2c-8.6,0-16.5-4.6-20.8-12c-6.6-11.5-2.7-26.2,8.8-32.8
		c3.6-2.1,7.8-3.2,12-3.2c8.6,0,16.5,4.6,20.8,12C96.3,363.5,92.4,378.2,81,384.8z M108.3,370c1.3-8.7,0-17.8-4.7-26
		c-4.6-8-11.8-14-20.2-17.2c0.4-13.6,6.5-26.4,16.8-35.2c0.4,1.9,0.7,3.9,1.3,5.8c7.9,29.5,23.8,55.5,45.7,75.8
		C134.4,377.6,120.2,376.5,108.3,370z M116.9,293.3c-10-37.2-4.9-76,14.4-109.3c25.6-44.4,73.5-72,124.9-72c25.1,0,50,6.7,71.8,19.3
		c33.3,19.2,57.1,50.3,67.1,87.4c10,37.2,4.9,76-14.4,109.3c-25.6,44.4-73.5,72-124.9,72c-25.1,0-50-6.7-71.8-19.3
		C150.7,361.5,126.9,330.4,116.9,293.3L116.9,293.3z M256,496c-13.2,0-24-10.8-24-24s10.8-24,24-24s24,10.8,24,24S269.2,496,256,496
		z M280.9,440.9c-6.9-5.5-15.4-8.9-24.9-8.9s-18,3.4-24.9,8.9c-11.6-7.1-19.7-18.8-22.2-32.1c15.2,4.7,31,7.2,46.9,7.2
		c16.2,0,32.1-2.6,47.3-7.2C300.6,422.1,292.5,433.8,280.9,440.9L280.9,440.9z M463.8,376c-4.3,7.4-12.2,12-20.8,12
		c-4.2,0-8.3-1.1-12-3.2c-11.5-6.6-15.4-21.3-8.8-32.8c4.3-7.4,12.3-12,20.8-12c4.2,0,8.3,1.1,12,3.2
		C466.5,349.8,470.5,364.5,463.8,376z M428.6,326.8c-8.4,3.3-15.6,9.2-20.2,17.2c-4.7,8.2-6,17.3-4.7,26c-12,6.5-26.2,7.6-39,3.2
		c11.6-10.7,21.7-23.2,29.8-37.2s13.9-28.9,17.4-44.2C422.1,300.5,428.2,313.3,428.6,326.8L428.6,326.8z M411.8,220.4
		c-0.4-1.9-0.8-3.9-1.3-5.8c-7.9-29.5-23.8-55.5-45.7-75.8c12.8-4.5,27-3.4,38.9,3.2c-1.3,8.7,0,17.8,4.7,26
		c4.6,8,11.8,14,20.2,17.2C428.2,198.8,422.1,211.6,411.8,220.4L411.8,220.4z"/>
	<path class="st2" d="M318.5,245.9c-25.8-6.4-45.8-26.5-52.3-52.3c-2.6-10.3-17.6-10.1-20.2,0c-6.4,25.8-26.5,45.8-52.3,52.3
		c-10.8,2.7-10.1,17.6,0,20.2c25.8,6.4,45.8,26.5,52.3,52.3c2.5,10.1,17.6,10.2,20.2,0c6.4-25.8,26.5-45.8,52.3-52.3
		C328.5,263.6,328.7,248.5,318.5,245.9z M256.1,301.4c-8.8-20.4-25-36.7-45.4-45.4c20.4-8.8,36.7-25,45.4-45.4
		c8.8,20.4,25,36.7,45.4,45.4C281.1,264.8,264.9,281,256.1,301.4z"/>
</g>
</svg>
