<?xml version="1.0" encoding="utf-8"?>
<!-- Generator: Adobe Illustrator 26.0.3, SVG Export Plug-In . SVG Version: 6.00 Build 0)  -->
<svg version="1.1" id="Layer_1" xmlns="http://www.w3.org/2000/svg" xmlns:xlink="http://www.w3.org/1999/xlink" x="0px" y="0px"
	 viewBox="0 0 512 512" style="enable-background:new 0 0 512 512;" xml:space="preserve">
<style type="text/css">
	.st0{fill:#0F2132;}
	.st1{fill:#E65400;}
	.st2{fill:#FFFFFF;}
</style>
<rect x="778.2" class="st0" width="512" height="512"/>
<path id="Shape" class="st1" d="M812.3,213.3h68.3v17.1c-18.9,0-34.1,15.3-34.1,34.1c0,9.4,7.6,17.1,17.1,17.1h136.5
	c9.4,0,17.1-7.6,17.1-17.1c0-18.9-15.3-34.1-34.1-34.1v-17.1h25.6c4.7,0,8.5-3.8,8.5-8.5c0-4.7-3.8-8.5-8.5-8.5H812.3
	c-9.4,0-17.1-7.6-17.1-17.1V34.1c0-9.4,7.6-17.1,17.1-17.1h145.1c4.7,0,8.5-3.8,8.5-8.5S962.1,0,957.4,0H812.3
	c-18.9,0-34.1,15.3-34.1,34.1v145.1C778.2,198.1,793.5,213.3,812.3,213.3z M1000.1,264.5H863.5c0-9.4,7.6-17.1,17.1-17.1H983
	C992.4,247.5,1000.1,255.1,1000.1,264.5z M965.9,213.3v17.1h-68.3v-17.1H965.9z"/>
<path id="Shape_00000168109229008696458960000006418816454514068922_" class="st1" d="M820.9,85.3c2.3,0,4.4-0.9,6-2.5L861,48.7
	c2.2-2.1,3.1-5.3,2.3-8.3c-0.8-3-3.1-5.3-6.1-6.1c-3-0.8-6.2,0.1-8.3,2.3l-34.1,34.1c-2.4,2.4-3.2,6.1-1.8,9.3
	C814.3,83.3,817.4,85.3,820.9,85.3z"/>
<path id="Shape_00000165225535244330402890000011062492745385857452_" class="st1" d="M814.8,134c3.3,3.3,8.7,3.3,12.1,0l85.3-85.3
	c2.2-2.1,3.1-5.3,2.3-8.3c-0.8-3-3.1-5.3-6.1-6.1c-3-0.8-6.2,0.1-8.3,2.3L814.8,122C811.5,125.3,811.5,130.7,814.8,134z"/>
<path id="Shape_00000002356604249864595970000007296108322500281791_" class="st2" d="M1264.6,460.8H1166c3.1-5.2,4.7-11.1,4.7-17.1
	V228.2l37.3-53.3c3.5-5,5.3-11,5.4-17.1V152c2.7,1,5.6,1.5,8.5,1.6c14.1,0,25.6-11.5,25.6-25.6v-25.6h8.5
	c14.1,0,25.6-11.5,25.6-25.6s-11.5-25.6-25.6-25.6h-8.5V25.6c0-14.1-11.5-25.6-25.6-25.6c-14.1,0-25.6,11.5-25.6,25.6v20.1
	c-11.2-5.5-24.8-3.3-33.6,5.5h-103.4c-8.9-8.8-22.4-11-33.6-5.5V25.6c0-14.1-11.5-25.6-25.6-25.6s-25.6,11.5-25.6,25.6v25.6h-8.5
	c-14.1,0-25.6,11.5-25.6,25.6s11.5,25.6,25.6,25.6h8.5V128c0,14.1,11.5,25.6,25.6,25.6c2.9,0,5.8-0.6,8.5-1.6v5.8
	c0,6.1,1.9,12.1,5.4,17.1l37.3,53.3v215.5c0,6,1.7,11.9,4.7,17.1H803.8c-14.1,0-25.6,11.5-25.6,25.6s11.5,25.6,25.6,25.6h460.8
	c14.1,0,25.6-11.5,25.6-25.6S1278.8,460.8,1264.6,460.8z M1256.1,68.3c4.7,0,8.5,3.8,8.5,8.5c0,4.7-3.8,8.5-8.5,8.5h-8.5V68.3
	H1256.1z M1213.4,25.6c0-4.7,3.8-8.5,8.5-8.5c4.7,0,8.5,3.8,8.5,8.5V128c0,4.7-3.8,8.5-8.5,8.5c-4.7,0-8.5-3.8-8.5-8.5V25.6z
	 M1111,85.3c-16.1,0-31.5,6.5-42.7,18V72.5c0-1.4-0.2-2.9-0.4-4.3h86.2c-0.2,1.4-0.4,2.8-0.4,4.3v30.8
	C1142.5,91.8,1127.1,85.3,1111,85.3L1111,85.3z M1153.7,145.1c0,23.6-19.1,42.7-42.7,42.7c-23.6,0-42.7-19.1-42.7-42.7
	s19.1-42.7,42.7-42.7C1134.6,102.4,1153.7,121.5,1153.7,145.1z M965.9,85.3c-4.7,0-8.5-3.8-8.5-8.5c0-4.7,3.8-8.5,8.5-8.5h8.5v17.1
	H965.9z M1000.1,136.5c-4.7,0-8.5-3.8-8.5-8.5V25.6c0-4.7,3.8-8.5,8.5-8.5s8.5,3.8,8.5,8.5V128
	C1008.6,132.7,1004.8,136.5,1000.1,136.5z M1068.3,443.7V225.5c0-1.7-0.5-3.5-1.5-4.9l-38.8-55.5c-1.5-2.2-2.3-4.7-2.3-7.3V72.5
	c0-7.1,5.7-12.8,12.8-12.8c7.1,0,12.8,5.7,12.8,12.8v72.5c0,33,26.7,59.7,59.7,59.7c33,0,59.7-26.7,59.7-59.7V72.5
	c0-7.1,5.7-12.8,12.8-12.8s12.8,5.7,12.8,12.8v85.3c0,2.6-0.8,5.2-2.3,7.3l-38.8,55.5c-1,1.4-1.5,3.1-1.5,4.9v218.2
	c0,9.4-7.6,17.1-17.1,17.1s-17.1-7.6-17.1-17.1V341.3c0-4.7-3.8-8.5-8.5-8.5c-4.7,0-8.5,3.8-8.5,8.5v102.4c0,9.4-7.6,17.1-17.1,17.1
	C1076,460.8,1068.3,453.2,1068.3,443.7z M1264.6,494.9H803.8c-4.7,0-8.5-3.8-8.5-8.5s3.8-8.5,8.5-8.5h460.8c4.7,0,8.5,3.8,8.5,8.5
	S1269.3,494.9,1264.6,494.9z"/>
<path id="Shape_00000042010987234303618820000015745032529104210056_" class="st1" d="M34.1,213.3h68.3v17.1
	c-18.9,0-34.1,15.3-34.1,34.1c0,9.4,7.6,17.1,17.1,17.1h136.5c9.4,0,17.1-7.6,17.1-17.1c0-18.9-15.3-34.1-34.1-34.1v-17.1h25.6
	c4.7,0,8.5-3.8,8.5-8.5c0-4.7-3.8-8.5-8.5-8.5H34.1c-9.4,0-17.1-7.6-17.1-17.1V34.1c0-9.4,7.6-17.1,17.1-17.1h145.1
	c4.7,0,8.5-3.8,8.5-8.5S183.9,0,179.2,0H34.1C15.3,0,0,15.3,0,34.1v145.1C0,198.1,15.3,213.3,34.1,213.3z M221.9,264.5H85.3
	c0-9.4,7.6-17.1,17.1-17.1h102.4C214.2,247.5,221.9,255.1,221.9,264.5z M187.7,213.3v17.1h-68.3v-17.1H187.7z"/>
<path id="Shape_00000142165508239971316450000011791834837626245253_" class="st1" d="M42.7,85.3c2.3,0,4.4-0.9,6-2.5l34.1-34.1
	c2.2-2.1,3.1-5.3,2.3-8.3c-0.8-3-3.1-5.3-6.1-6.1c-3-0.8-6.2,0.1-8.3,2.3L36.6,70.8c-2.4,2.4-3.2,6.1-1.8,9.3
	C36.1,83.3,39.2,85.3,42.7,85.3z"/>
<path id="Shape_00000026866690540639420340000018049055130826671235_" class="st1" d="M36.6,134c3.3,3.3,8.7,3.3,12.1,0L134,48.7
	c2.2-2.1,3.1-5.3,2.3-8.3c-0.8-3-3.1-5.3-6.1-6.1c-3-0.8-6.2,0.1-8.3,2.3L36.6,122C33.3,125.3,33.3,130.7,36.6,134z"/>
<path id="Shape_00000015316755267222069760000003178478827967096452_" class="st0" d="M486.4,460.8h-98.6c3.1-5.2,4.7-11.1,4.7-17.1
	V228.2l37.3-53.3c3.5-5,5.3-11,5.4-17.1V152c2.7,1,5.6,1.5,8.5,1.6c14.1,0,25.6-11.5,25.6-25.6v-25.6h8.5
	c14.1,0,25.6-11.5,25.6-25.6S492,51.2,477.9,51.2h-8.5V25.6c0-14.1-11.5-25.6-25.6-25.6c-14.1,0-25.6,11.5-25.6,25.6v20.1
	c-11.2-5.5-24.8-3.3-33.6,5.5H281.1c-8.9-8.8-22.4-11-33.6-5.5V25.6C247.5,11.5,236,0,221.9,0c-14.1,0-25.6,11.5-25.6,25.6v25.6
	h-8.5c-14.1,0-25.6,11.5-25.6,25.6s11.5,25.6,25.6,25.6h8.5V128c0,14.1,11.5,25.6,25.6,25.6c2.9,0,5.8-0.6,8.5-1.6v5.8
	c0,6.1,1.9,12.1,5.4,17.1l37.3,53.3v215.5c0,6,1.7,11.9,4.7,17.1H25.6C11.5,460.8,0,472.3,0,486.4S11.5,512,25.6,512h460.8
	c14.1,0,25.6-11.5,25.6-25.6S500.5,460.8,486.4,460.8z M477.9,68.3c4.7,0,8.5,3.8,8.5,8.5c0,4.7-3.8,8.5-8.5,8.5h-8.5V68.3H477.9z
	 M435.2,25.6c0-4.7,3.8-8.5,8.5-8.5c4.7,0,8.5,3.8,8.5,8.5V128c0,4.7-3.8,8.5-8.5,8.5c-4.7,0-8.5-3.8-8.5-8.5V25.6z M332.8,85.3
	c-16.1,0-31.5,6.5-42.7,18V72.5c0-1.4-0.2-2.9-0.4-4.3h86.2c-0.2,1.4-0.4,2.8-0.4,4.3v30.8C364.3,91.8,348.9,85.3,332.8,85.3
	L332.8,85.3z M375.5,145.1c0,23.6-19.1,42.7-42.7,42.7s-42.7-19.1-42.7-42.7s19.1-42.7,42.7-42.7
	C356.4,102.4,375.4,121.5,375.5,145.1z M187.7,85.3c-4.7,0-8.5-3.8-8.5-8.5c0-4.7,3.8-8.5,8.5-8.5h8.5v17.1H187.7z M221.9,136.5
	c-4.7,0-8.5-3.8-8.5-8.5V25.6c0-4.7,3.8-8.5,8.5-8.5c4.7,0,8.5,3.8,8.5,8.5V128C230.4,132.7,226.6,136.5,221.9,136.5z M290.1,443.7
	V225.5c0-1.7-0.5-3.5-1.5-4.9l-38.8-55.5c-1.5-2.2-2.3-4.7-2.3-7.3V72.5c0-7.1,5.7-12.8,12.8-12.8c7.1,0,12.8,5.7,12.8,12.8v72.5
	c0,33,26.7,59.7,59.7,59.7s59.7-26.7,59.7-59.7V72.5c0-7.1,5.7-12.8,12.8-12.8c7.1,0,12.8,5.7,12.8,12.8v85.3c0,2.6-0.8,5.2-2.3,7.3
	L377,220.6c-1,1.4-1.5,3.1-1.5,4.9v218.2c0,9.4-7.6,17.1-17.1,17.1s-17.1-7.6-17.1-17.1V341.3c0-4.7-3.8-8.5-8.5-8.5
	s-8.5,3.8-8.5,8.5v102.4c0,9.4-7.6,17.1-17.1,17.1S290.1,453.2,290.1,443.7z M486.4,494.9H25.6c-4.7,0-8.5-3.8-8.5-8.5
	s3.8-8.5,8.5-8.5h460.8c4.7,0,8.5,3.8,8.5,8.5S491.1,494.9,486.4,494.9z"/>
</svg>
