<svg xmlns="http://www.w3.org/2000/svg" xmlns:xlink="http://www.w3.org/1999/xlink" width="500" height="500" viewBox="0 0 500 500">
  <defs>
    <clipPath id="clip-_1.Concierge">
      <rect width="500" height="500"/>
    </clipPath>
  </defs>
  <g id="_1.Concierge" data-name="1.Concierge" clip-path="url(#clip-_1.Concierge)">
    <g id="_1.Concierge_-2" data-name="1.Concierge -2" transform="translate(42.679 0.1)">
      <g id="Group_2737" data-name="Group 2737" transform="translate(45.2 -0.1)">
        <g id="Group_2736" data-name="Group 2736">
          <path id="Path_2926" data-name="Path 2926" d="M390.514,326.366l-70.606-15.723L304.186,279.3a103.036,103.036,0,0,0,42.481-50,44.08,44.08,0,0,0,7.324-71.094V36.619C349.205,33.494,312,.291,252.135-.1H251.06A163.355,163.355,0,0,0,153.99,32.224l-5.859,4.395V158.2a44.08,44.08,0,0,0,7.324,71.094,102.25,102.25,0,0,0,42.481,50L182.31,310.644,111.7,326.366a84.87,84.87,0,0,0-66.5,82.813V500H456.921V409.179a84.967,84.967,0,0,0-66.407-82.813ZM177.525,51.756c44.239-29.3,101.465-30.274,147.071,0v51.172H177.525ZM303.8,132.323,274.4,161.717H227.72l-29.395-29.395Zm-124.805,75.1-6.641-2.441a14.756,14.756,0,0,1-2.246-26.563l7.324-4.3v-21l37.988,37.988h71L324.4,153.123v21l7.324,4.3a14.756,14.756,0,0,1-2.246,26.563l-6.641,2.441-2.246,6.738a73.483,73.483,0,0,1-139.649,0Zm98.047,83.4L291.979,320.6,251.06,361.523,210.142,320.6l14.941-29.785A104.016,104.016,0,0,0,277.037,290.819ZM74.595,409.179a55.1,55.1,0,0,1,43.457-54.1l69.532-15.43,42.676,42.676-37.988,37.988v50.2H74.595Zm352.931,61.426H221.666V432.617l92.969-92.969,69.532,15.43a55.1,55.1,0,0,1,43.457,54.1v61.426Z" transform="translate(-45.2 0.1)" fill="#0F2132"/>
          <path id="Path_2927" data-name="Path 2927" d="M331.3,391.5h58.789v29.395H331.3Z" transform="translate(-51.904 -9.076)" fill="#e65400"/>
        </g>
      </g>
    </g>
  </g>
</svg>
