<?xml version="1.0" encoding="utf-8"?>
<!-- Generator: Adobe Illustrator 26.0.3, SVG Export Plug-In . SVG Version: 6.00 Build 0)  -->
<svg version="1.1" id="Layer_1" xmlns="http://www.w3.org/2000/svg" xmlns:xlink="http://www.w3.org/1999/xlink" x="0px" y="0px"
	 viewBox="0 0 512 512" style="enable-background:new 0 0 512 512;" xml:space="preserve">
<style type="text/css">
	.st0{fill:#fff;}
	.st1{fill:#0F2132;}
	.st2{fill:#E65400;}
</style>
<rect class="st0" width="512" height="512"/>
<path class="st1" d="M317.9,48.9c-3.1-2.8-7.8-2.5-10.6,0.6c-2.8,3.1-2.5,7.8,0.6,10.6c6.5,5.9,12.5,12.2,18,18.9l-21.7,66.9
	l-43.9,16L198,116.6V68.5l56.8-41.3c9.9,3.9,19.5,8.7,28.6,14.4c3.5,2.2,8.1,1.1,10.3-2.4c2.2-3.5,1.1-8.1-2.4-10.3
	C261.2,10,226.3,0,190.5,0c-33.1,0-65.8,8.6-94.3,25C68.5,40.8,45,63.5,28.2,90.7c-2.2,3.5-1.1,8.1,2.4,10.3
	c1.2,0.8,2.6,1.1,3.9,1.1c2.5,0,5-1.3,6.4-3.6c1-1.6,2-3.3,3.1-4.9L62,148.8l-46.8,34c0.8-19.6,4.9-38.7,12.1-56.8
	c1.5-3.9-0.4-8.2-4.2-9.7c-3.9-1.5-8.2,0.4-9.7,4.2C4.5,142.7,0,166.3,0,190.5C0,295.5,85.5,381,190.5,381S381,295.5,381,190.5
	C381,136.6,358,85,317.9,48.9z M338.5,284.8l-70.4-0.2l-26.8-35.1l23.9-73.5l43.9-16l56.7,41.2C363.8,231.8,354.1,260.4,338.5,284.8
	L338.5,284.8z M336.9,93.7c17.4,26.3,27.5,57.1,28.9,89l-46.8-34L336.9,93.7z M227.5,243.4h-73.9l-22.8-70.3l59.8-43.5l59.8,43.5
	L227.5,243.4z M237.4,21.4l-46.9,34l-46.8-34c15.2-4.2,30.9-6.4,46.8-6.4C206.5,15,222.2,17.2,237.4,21.4L237.4,21.4z M55.1,78.9
	c13.5-16.4,30-30.3,48.5-40.9c7.3-4.1,14.8-7.7,22.6-10.8L183,68.5v48.1l-62.3,45.3l-43.9-16L55.1,78.9z M72,160l43.9,16l23.9,73.5
	l-26.9,35.3H42.6c-15.6-24.4-25.4-53-27.2-83.6L72,160z M53.3,299.8h57.8l17.9,55.1C99,343.6,72.9,324.4,53.3,299.8z M249.3,355.9
	l4.6-14c1.3-3.9-0.9-8.2-4.8-9.5c-3.9-1.3-8.2,0.9-9.5,4.8l-7.8,23.9c-13.3,3.2-27.1,4.9-41.3,4.9c-15.2,0-29.9-1.9-43.9-5.6
	l-21.7-66.7l26.9-35.3h77.4l25.2,33.1l-4.9,15.1c-1.3,3.9,0.9,8.2,4.8,9.5c0.8,0.2,1.6,0.4,2.3,0.4c3.2,0,6.1-2,7.1-5.2l3.8-11.7
	l60.1,0.2C307.5,325.1,280.4,344.8,249.3,355.9L249.3,355.9z"/>
<path class="st2" d="M144.8,388c-2.9-2.9-7.7-2.9-10.6,0s-2.9,7.7,0,10.6l66.9,66.9c1.5,1.5,3.4,2.2,5.3,2.2s3.8-0.7,5.3-2.2
	c2.9-2.9,2.9-7.7,0-10.6L144.8,388z"/>
<path class="st2" d="M247.7,389.3c-2.9-2.9-7.7-2.9-10.6,0s-2.9,7.7,0,10.6l65,65c1.5,1.5,3.4,2.2,5.3,2.2s3.8-0.7,5.3-2.2
	c2.9-2.9,2.9-7.7,0-10.6L247.7,389.3z"/>
<path class="st2" d="M476.5,330.8c1.9,0,3.8-0.7,5.3-2.2c2.9-2.9,2.9-7.7,0-10.6l-65-65c-2.9-2.9-7.7-2.9-10.6,0s-2.9,7.7,0,10.6
	l65,65C472.6,330.1,474.6,330.8,476.5,330.8z"/>
<path class="st2" d="M480.1,233.8c1.5,1.5,3.4,2.2,5.3,2.2c1.9,0,3.8-0.7,5.3-2.2c2.9-2.9,2.9-7.7,0-10.6l-82.9-82.9
	c-2.9-2.9-7.7-2.9-10.6,0c-2.9,2.9-2.9,7.7,0,10.6L480.1,233.8z"/>
<path class="st2" d="M474.4,411.6c1.5,1.5,3.4,2.2,5.3,2.2c1.9,0,3.8-0.7,5.3-2.2c2.9-2.9,2.9-7.7,0-10.6l-39.6-39.6
	c-2.9-2.9-7.7-2.9-10.6,0c-2.9,2.9-2.9,7.7,0,10.6L474.4,411.6z"/>
<path class="st2" d="M347.9,414.9c-2.9-2.9-7.7-2.9-10.6,0s-2.9,7.7,0,10.6l39.6,39.6c1.5,1.5,3.4,2.2,5.3,2.2s3.8-0.7,5.3-2.2
	c2.9-2.9,2.9-7.7,0-10.6L347.9,414.9z"/>
<path class="st2" d="M509.8,499.2L355.1,344.5c-2.9-2.9-7.7-2.9-10.6,0c-2.9,2.9-2.9,7.7,0,10.6l154.7,154.7
	c1.5,1.5,3.4,2.2,5.3,2.2c1.9,0,3.8-0.7,5.3-2.2C512.7,506.9,512.7,502.1,509.8,499.2L509.8,499.2z"/>
<path class="st0" d="M-564.5,48.9c-3.1-2.8-7.8-2.5-10.6,0.6c-2.8,3.1-2.5,7.8,0.6,10.6c6.5,5.9,12.5,12.2,18,18.9l-21.7,66.9
	l-43.9,16l-62.3-45.3V68.5l56.8-41.3c9.9,3.9,19.5,8.7,28.6,14.4c3.5,2.2,8.1,1.1,10.3-2.4c2.2-3.5,1.1-8.1-2.4-10.3
	C-621.2,10-656.1,0-691.9,0c-33.1,0-65.8,8.6-94.3,25c-27.7,15.8-51.2,38.5-67.9,65.7c-2.2,3.5-1.1,8.1,2.4,10.3
	c1.2,0.8,2.6,1.1,3.9,1.1c2.5,0,5-1.3,6.4-3.6c1-1.6,2-3.3,3.1-4.9l17.9,55.1l-46.8,34c0.8-19.6,4.9-38.7,12.1-56.8
	c1.5-3.9-0.4-8.2-4.2-9.7c-3.9-1.5-8.2,0.4-9.7,4.2c-8.8,22.3-13.3,45.9-13.3,70.1c0,105,85.5,190.5,190.5,190.5
	s190.5-85.5,190.5-190.5C-501.4,136.6-524.4,85-564.5,48.9z M-543.9,284.8l-70.4-0.2l-26.8-35.1l23.9-73.5l43.9-16l56.7,41.2
	C-518.6,231.8-528.3,260.4-543.9,284.8L-543.9,284.8z M-545.5,93.7c17.4,26.3,27.5,57.1,28.9,89l-46.8-34L-545.5,93.7z
	 M-654.9,243.4h-73.9l-22.8-70.3l59.8-43.5l59.8,43.5L-654.9,243.4z M-645,21.4l-46.9,34l-46.8-34c15.2-4.2,30.9-6.4,46.8-6.4
	C-675.9,15-660.2,17.2-645,21.4L-645,21.4z M-827.3,78.9c13.5-16.4,30-30.3,48.5-40.9c7.3-4.1,14.8-7.7,22.6-10.8l56.8,41.3v48.1
	l-62.3,45.3l-43.9-16L-827.3,78.9z M-810.4,160l43.9,16l23.9,73.5l-26.9,35.3h-70.3c-15.6-24.4-25.4-53-27.2-83.6L-810.4,160z
	 M-829.1,299.8h57.8l17.9,55.1C-783.4,343.6-809.5,324.4-829.1,299.8z M-633.1,355.9l4.6-14c1.3-3.9-0.9-8.2-4.8-9.5
	c-3.9-1.3-8.2,0.9-9.5,4.8l-7.8,23.9c-13.3,3.2-27.1,4.9-41.3,4.9c-15.2,0-29.9-1.9-43.9-5.6l-21.7-66.7l26.9-35.3h77.4l25.2,33.1
	l-4.9,15.1c-1.3,3.9,0.9,8.2,4.8,9.5c0.8,0.2,1.6,0.4,2.3,0.4c3.2,0,6.1-2,7.1-5.2l3.8-11.7l60.1,0.2
	C-574.9,325.1-602,344.8-633.1,355.9L-633.1,355.9z"/>
<path class="st2" d="M-737.6,388c-2.9-2.9-7.7-2.9-10.6,0c-2.9,2.9-2.9,7.7,0,10.6l66.9,66.9c1.5,1.5,3.4,2.2,5.3,2.2
	s3.8-0.7,5.3-2.2c2.9-2.9,2.9-7.7,0-10.6L-737.6,388z"/>
<path class="st2" d="M-634.7,389.3c-2.9-2.9-7.7-2.9-10.6,0s-2.9,7.7,0,10.6l65,65c1.5,1.5,3.4,2.2,5.3,2.2c1.9,0,3.8-0.7,5.3-2.2
	c2.9-2.9,2.9-7.7,0-10.6L-634.7,389.3z"/>
<path class="st2" d="M-405.9,330.8c1.9,0,3.8-0.7,5.3-2.2c2.9-2.9,2.9-7.7,0-10.6l-65-65c-2.9-2.9-7.7-2.9-10.6,0s-2.9,7.7,0,10.6
	l65,65C-409.7,330.1-407.8,330.8-405.9,330.8z"/>
<path class="st2" d="M-402.2,233.8c1.5,1.5,3.4,2.2,5.3,2.2c1.9,0,3.8-0.7,5.3-2.2c2.9-2.9,2.9-7.7,0-10.6l-82.9-82.9
	c-2.9-2.9-7.7-2.9-10.6,0c-2.9,2.9-2.9,7.7,0,10.6L-402.2,233.8z"/>
<path class="st2" d="M-408,411.6c1.5,1.5,3.4,2.2,5.3,2.2c1.9,0,3.8-0.7,5.3-2.2c2.9-2.9,2.9-7.7,0-10.6l-39.6-39.6
	c-2.9-2.9-7.7-2.9-10.6,0c-2.9,2.9-2.9,7.7,0,10.6L-408,411.6z"/>
<path class="st2" d="M-534.5,414.9c-2.9-2.9-7.7-2.9-10.6,0c-2.9,2.9-2.9,7.7,0,10.6l39.6,39.6c1.5,1.5,3.4,2.2,5.3,2.2
	s3.8-0.7,5.3-2.2c2.9-2.9,2.9-7.7,0-10.6L-534.5,414.9z"/>
<path class="st2" d="M-372.6,499.2l-154.7-154.7c-2.9-2.9-7.7-2.9-10.6,0c-2.9,2.9-2.9,7.7,0,10.6l154.7,154.7
	c1.5,1.5,3.4,2.2,5.3,2.2c1.9,0,3.8-0.7,5.3-2.2C-369.7,506.9-369.7,502.1-372.6,499.2L-372.6,499.2z"/>
</svg>
