<?xml version="1.0" encoding="utf-8"?>
<!-- Generator: Adobe Illustrator 26.2.1, SVG Export Plug-In . SVG Version: 6.00 Build 0)  -->
<svg version="1.1" id="Icons" xmlns="http://www.w3.org/2000/svg" xmlns:xlink="http://www.w3.org/1999/xlink" x="0px" y="0px"
	 viewBox="0 0 512 512" style="enable-background:new 0 0 512 512;" xml:space="preserve">
<style type="text/css">
	.st0{fill:#0F2132;}
	.st1{fill:none;}
	.st2{fill:#FFFFFF;}
	.st3{fill:#E4540E;}
</style>
<rect x="612.8" class="st0" width="515" height="515"/>
<path class="st1" d="M752.2,196.3h-74.1c6.9,10.9,19.4,25.6,37,25.6S745.3,207.2,752.2,196.3z"/>
<path class="st1" d="M854.6,196.3h-74.1c6.9,10.9,19.4,25.6,37,25.6S847.7,207.2,854.6,196.3z"/>
<rect x="638.4" y="196.3" class="st1" width="17.1" height="298.7"/>
<path class="st1" d="M1022.4,238.9c-25.3,0-42.2-19-51.2-33.1c-9,14.1-25.8,33.1-51.2,33.1s-42.2-19-51.2-33.1
	c-9,14.1-25.9,33.1-51.2,33.1c-25.3,0-42.2-19-51.2-33.1c-9,14.1-25.9,33.1-51.2,33.1c-16.7-0.6-32.3-8.5-42.7-21.6v277.6H683V288.8
	h370.2v206.1h11.8V217.3C1054.7,230.4,1039.1,238.4,1022.4,238.9z"/>
<path class="st1" d="M957,196.3h-74.1c6.9,10.9,19.4,25.6,37,25.6S950.1,207.2,957,196.3z"/>
<path class="st1" d="M868.3,21.3c-51.4,52.8-144.8,99.9-197.2,123.7h393.8C1010.5,121.2,914.6,74.1,868.3,21.3z"/>
<rect x="638.4" y="162.1" class="st1" width="460.8" height="17.1"/>
<rect x="1082.1" y="196.3" class="st1" width="17.1" height="298.7"/>
<path class="st1" d="M1059.4,196.3h-74.1c6.9,10.9,19.5,25.6,37,25.6C1040,221.9,1052.5,207.2,1059.4,196.3z"/>
<path class="st2" d="M1110.7,145.6c-1.7-0.6-167-64.2-229.6-135.6c-3.1-3.5-7.5-5.6-12.2-5.7c-4.8-0.1-9.5,1.8-12.9,5.3
	c-69.9,71.7-227.8,135.4-229.4,136c-3.2,1.3-5.4,4.4-5.4,7.9v341.3c0,9.4,7.6,17.1,17.1,17.1h460.8c9.4,0,17.1-7.6,17.1-17.1V153.6
	C1116.2,150.1,1114,146.9,1110.7,145.6z M868.3,21.3c46.4,52.8,142.2,99.8,196.6,123.7H671.1C723.5,121.2,816.9,74.2,868.3,21.3z
	 M655.4,494.9h-17.1V196.3h17.1V494.9z M1065,494.9h-11.8h-33h-17.7h-54.2h-17.8h-36.2h-17.1h-17.1h-17.1h-36.2h-17.8H735h-17.8H683
	h-10.5V217.3c10.3,13.1,26,21.1,42.7,21.6c25.3,0,42.2-19,51.2-33.1c9,14.1,25.9,33.1,51.2,33.1c25.3,0,42.2-19,51.2-33.1
	c9,14.1,25.8,33.1,51.2,33.1s42.2-19,51.2-33.1c9,14.1,25.9,33.1,51.2,33.1c16.7-0.6,32.3-8.5,42.7-21.6V494.9z M678.1,196.3h74.1
	c-6.9,10.9-19.4,25.6-37.1,25.6S685.1,207.2,678.1,196.3z M780.5,196.3h74.1c-6.9,10.9-19.4,25.6-37.1,25.6S787.5,207.2,780.5,196.3
	z M882.9,196.3H957c-6.9,10.9-19.4,25.6-37.1,25.6S889.9,207.2,882.9,196.3z M985.3,196.3h74.1c-6.9,10.9-19.4,25.6-37.1,25.6
	C1004.8,221.9,992.3,207.2,985.3,196.3z M1099.2,494.9h-17.1V196.3h17.1V494.9z M1099.2,179.2H638.4v-17.1h460.8V179.2z"/>
<g>
	<path class="st3" d="M911.4,392.5c14.1,0,25.6-11.5,25.6-25.6s-11.5-25.6-25.6-25.6h-85.3c-14.1,0-25.6,11.5-25.6,25.6
		s11.5,25.6,25.6,25.6h17.1v102.4h17.1V392.5h17.1v102.4h17.1V392.5H911.4z M826.1,375.5c-4.7,0-8.5-3.8-8.5-8.5s3.8-8.5,8.5-8.5
		h85.3c4.7,0,8.5,3.8,8.5,8.5s-3.8,8.5-8.5,8.5H826.1z"/>
	<path class="st3" d="M817.4,424c-1.4-13-12.4-22.9-25.5-22.9h-31.6c0-0.4-0.1-0.8-0.2-1.2L749,355.1c-1.6-14-14.2-24.1-28.2-22.5
		s-24.1,14.2-22.5,28.2c0,0.3,0.1,0.6,0.1,0.9l13.5,67.5c1,10.2,8.1,18.8,17.9,21.8l-12.6,43.9H735l12.2-42.7H777l12.2,42.7h17.8
		L794.7,452C808.7,450.5,818.9,438,817.4,424z M737.4,435.2c-4.7-0.1-8.5-3.9-8.6-8.5l-13.6-67.9c-0.3-4.7,3.3-8.7,7.9-8.9
		c0.2,0,0.3,0,0.5,0c4.3,0,8,3.3,8.4,7.6c0,0.4,0.1,0.8,0.2,1.2l11.2,44.8c1.2,8.4,8.4,14.7,16.9,14.6H792c4.7,0,8.5,3.8,8.5,8.5
		s-3.8,8.5-8.5,8.5H737.4z"/>
	<path class="st3" d="M1025.5,430.1l13.7-68.4c0.1-0.3,0.1-0.6,0.1-0.9c1.6-14-8.5-26.6-22.5-28.2c-14-1.6-26.6,8.5-28.2,22.5
		l-11.2,44.7c-0.1,0.4-0.2,0.8-0.2,1.2h-31.6c-14.1,0-25.6,11.4-25.6,25.5c0,13.1,9.9,24.1,22.9,25.5l-12.3,42.9h17.8l12.2-42.7
		h29.8l12.2,42.7h17.7l-12.5-43.9C1017.3,448.3,1024.3,440,1025.5,430.1z M1000.2,435.2h-54.6c-4.7,0-8.5-3.8-8.5-8.5
		s3.8-8.5,8.5-8.5h31.6c8.5,0,15.7-6.2,16.9-14.6l11.3-44.8c0.1-0.4,0.2-0.8,0.2-1.2c0.5-4.6,4.6-8,9.2-7.6c2.1,0.2,4,1.2,5.4,2.7
		c1.5,1.7,2.3,3.9,2.2,6.2l-13.7,68.7C1008.3,431.9,1004.6,435.2,1000.2,435.2z"/>
</g>
<path class="st1" d="M139.5,196.3H65.4c6.9,10.9,19.4,25.6,37,25.6S132.6,207.2,139.5,196.3z"/>
<path class="st1" d="M241.9,196.3h-74.1c6.9,10.9,19.4,25.6,37,25.6S235,207.2,241.9,196.3z"/>
<rect x="25.6" y="196.3" class="st1" width="17.1" height="298.7"/>
<path class="st1" d="M409.6,238.9c-25.3,0-42.2-19-51.2-33.1c-9,14.1-25.8,33.1-51.2,33.1s-42.2-19-51.2-33.1
	c-9,14.1-25.9,33.1-51.2,33.1c-25.3,0-42.2-19-51.2-33.1c-9,14.1-25.9,33.1-51.2,33.1c-16.7-0.6-32.3-8.5-42.7-21.6v277.6h10.5
	V288.8h370.2v206.1h11.8V217.3C441.9,230.4,426.3,238.4,409.6,238.9z"/>
<path class="st1" d="M344.3,196.3h-74.1c6.9,10.9,19.4,25.6,37,25.6S337.4,207.2,344.3,196.3z"/>
<path class="st1" d="M255.5,21.3c-51.4,52.8-144.8,99.9-197.2,123.7h393.8C397.7,121.2,301.9,74.1,255.5,21.3z"/>
<rect x="25.6" y="162.1" class="st1" width="460.8" height="17.1"/>
<rect x="469.3" y="196.3" class="st1" width="17.1" height="298.7"/>
<path class="st1" d="M446.7,196.3h-74.1c6.9,10.9,19.5,25.6,37,25.6C427.3,221.9,439.8,207.2,446.7,196.3z"/>
<path class="st0" d="M498,145.6c-1.7-0.6-167-64.2-229.6-135.6c-3.1-3.5-7.5-5.6-12.2-5.7c-4.8-0.1-9.5,1.8-12.9,5.3
	c-69.9,71.7-227.8,135.4-229.4,136c-3.2,1.3-5.4,4.4-5.4,7.9v341.3c0,9.4,7.6,17.1,17.1,17.1h460.8c9.4,0,17.1-7.6,17.1-17.1V153.6
	C503.5,150.1,501.3,146.9,498,145.6z M255.5,21.3c46.4,52.8,142.2,99.8,196.6,123.7H58.3C110.7,121.2,204.2,74.2,255.5,21.3z
	 M42.7,494.9H25.6V196.3h17.1V494.9z M452.3,494.9h-11.8h-33h-17.7h-54.2h-17.8h-36.2h-17.1h-17.1h-17.1h-36.2h-17.8h-54.2h-17.8
	H70.3H59.7V217.3c10.3,13.1,26,21.1,42.7,21.6c25.3,0,42.2-19,51.2-33.1c9,14.1,25.9,33.1,51.2,33.1c25.3,0,42.2-19,51.2-33.1
	c9,14.1,25.8,33.1,51.2,33.1s42.2-19,51.2-33.1c9,14.1,25.9,33.1,51.2,33.1c16.7-0.6,32.3-8.5,42.7-21.6V494.9z M65.4,196.3h74.1
	c-6.9,10.9-19.4,25.6-37.1,25.6S72.3,207.2,65.4,196.3z M167.8,196.3h74.1c-6.9,10.9-19.4,25.6-37.1,25.6S174.7,207.2,167.8,196.3z
	 M270.2,196.3h74.1c-6.9,10.9-19.4,25.6-37.1,25.6S277.1,207.2,270.2,196.3z M372.6,196.3h74.1c-6.9,10.9-19.4,25.6-37.1,25.6
	C392,221.9,379.5,207.2,372.6,196.3z M486.4,494.9h-17.1V196.3h17.1V494.9z M486.4,179.2H25.6v-17.1h460.8V179.2z"/>
<g>
	<path class="st3" d="M298.7,392.5c14.1,0,25.6-11.5,25.6-25.6s-11.5-25.6-25.6-25.6h-85.3c-14.1,0-25.6,11.5-25.6,25.6
		s11.5,25.6,25.6,25.6h17.1v102.4h17.1V392.5h17.1v102.4h17.1V392.5H298.7z M213.3,375.5c-4.7,0-8.5-3.8-8.5-8.5s3.8-8.5,8.5-8.5
		h85.3c4.7,0,8.5,3.8,8.5,8.5s-3.8,8.5-8.5,8.5H213.3z"/>
	<path class="st3" d="M204.7,424c-1.4-13-12.4-22.9-25.5-22.9h-31.6c0-0.4-0.1-0.8-0.2-1.2l-11.2-44.7c-1.6-14-14.2-24.1-28.2-22.5
		s-24.1,14.2-22.5,28.2c0,0.3,0.1,0.6,0.1,0.9l13.5,67.5c1,10.2,8.1,18.8,17.9,21.8l-12.6,43.9h17.8l12.2-42.7h29.8l12.2,42.7h17.8
		L181.9,452C195.9,450.5,206.1,438,204.7,424z M124.6,435.2c-4.7-0.1-8.5-3.9-8.6-8.5l-13.6-67.9c-0.3-4.7,3.3-8.7,7.9-8.9
		c0.2,0,0.3,0,0.5,0c4.3,0,8,3.3,8.4,7.6c0,0.4,0.1,0.8,0.2,1.2l11.2,44.8c1.2,8.4,8.4,14.7,16.9,14.6h31.6c4.7,0,8.5,3.8,8.5,8.5
		s-3.8,8.5-8.5,8.5H124.6z"/>
	<path class="st3" d="M412.7,430.1l13.7-68.4c0.1-0.3,0.1-0.6,0.1-0.9c1.6-14-8.5-26.6-22.5-28.2c-14-1.6-26.6,8.5-28.2,22.5
		l-11.2,44.7c-0.1,0.4-0.2,0.8-0.2,1.2h-31.6c-14.1,0-25.6,11.4-25.6,25.5c0,13.1,9.9,24.1,22.9,25.5l-12.3,42.9h17.8l12.2-42.7
		h29.8l12.2,42.7h17.7L395,451C404.6,448.3,411.6,440,412.7,430.1z M387.4,435.2h-54.6c-4.7,0-8.5-3.8-8.5-8.5s3.8-8.5,8.5-8.5h31.6
		c8.5,0,15.7-6.2,16.9-14.6l11.3-44.8c0.1-0.4,0.2-0.8,0.2-1.2c0.5-4.6,4.6-8,9.2-7.6c2.1,0.2,4,1.2,5.4,2.7
		c1.5,1.7,2.3,3.9,2.2,6.2l-13.7,68.7C395.5,431.9,391.8,435.2,387.4,435.2z"/>
</g>
</svg>
