<?xml version="1.0" encoding="utf-8"?>
<!-- Generator: Adobe Illustrator 26.2.1, SVG Export Plug-In . SVG Version: 6.00 Build 0)  -->
<svg version="1.1" id="Capa_1" xmlns="http://www.w3.org/2000/svg" xmlns:xlink="http://www.w3.org/1999/xlink" x="0px" y="0px"
	 viewBox="0 0 512 512" style="enable-background:new 0 0 512 512;" xml:space="preserve">
<style type="text/css">
	.st0{fill:#0F2132;}
	.st1{fill:#FFFFFF;}
	.st2{fill:#E4540E;}
</style>
<rect y="0" class="st0" width="512" height="512"/>
<g>
	<path class="st1" d="M494.2,386.1v-79.5c0-9.1-2.2-18.2-6.4-26.3c-1.9-3.7-6.4-5.1-10.1-3.2c-3.7,1.9-5.1,6.4-3.2,10.1
		c3.1,6,4.7,12.5,4.7,19.4V386H357.8v-79.4c0-23.1,18.8-42,42-42h37.4c5.5,0,10.8,1,15.8,3.1c3.8,1.6,8.2-0.3,9.8-4.1
		c1.6-3.8-0.3-8.2-4.1-9.8c-6.8-2.8-14-4.2-21.4-4.2h-37.4c-31.4,0-57,25.6-57,57v79.5c-2,0.2-3.9,0.9-5.5,1.9
		c-1.7-1-3.5-1.6-5.5-1.9v-79.5c0-31.4-25.6-57-57-57h-37.4c-31.4,0-57,25.6-57,57v79.5c-2,0.2-3.9,0.9-5.5,1.9
		c-1.7-1-3.5-1.6-5.5-1.9v-79.5c0-31.4-25.6-57-57-57H74.8c-31.4,0-57,25.6-57,57v79.5c-7.3,0.9-13,7.2-13,14.8v22.6
		c0,8.2,6.7,14.9,14.9,14.9h13.2c4.1,0,7.5-3.4,7.5-7.5s-3.4-7.5-7.5-7.5H19.8V401h147.5v22.4h-61.7c-13.9,0-23.5,0-37.8,0
		c-4.1,0-7.5,3.4-7.5,7.5s3.4,7.5,7.5,7.5h6.1v34.4H53.2c-10.8,0-19.6,8.8-19.6,19.6c0,10.8,8.8,19.6,19.6,19.6h80.6
		c10.8,0,19.6-8.8,19.6-19.6c0-10.8-8.8-19.6-19.6-19.6h-20.7v-34.4h54.3c2.7,0,5.2-0.7,7.4-2c2.2,1.3,4.7,2,7.4,2h54.3v34.4h-20.7
		c-10.8,0-19.6,8.8-19.6,19.6c0,10.8,8.8,19.6,19.6,19.6h80.6c10.8,0,19.6-8.8,19.6-19.6c0-10.8-8.8-19.6-19.6-19.6h-20.7v-34.4
		h54.3c2.7,0,5.2-0.7,7.4-2c2.2,1.3,4.7,2,7.4,2h54.3v34.4h-20.7c-10.8,0-19.6,8.8-19.6,19.6c0,10.8,8.8,19.6,19.6,19.6h80.6
		c10.8,0,19.6-8.8,19.6-19.6c0-10.8-8.8-19.6-19.6-19.6h-20.7v-34.4h54.3c8.2,0,14.9-6.7,14.9-14.9v-22.6
		C507.2,393.3,501.5,387,494.2,386.1L494.2,386.1z M195.3,306.6c0-23.1,18.8-42,42-42h37.4c23.1,0,42,18.8,42,42V386H195.3
		L195.3,306.6z M32.8,386v-79.4c0-23.1,18.8-42,42-42h37.4c23.1,0,42,18.8,42,42V386H32.8z M138.4,492.4c0,2.5-2.1,4.6-4.6,4.6H53.2
		c-2.5,0-4.6-2.1-4.6-4.6c0-2.5,2.1-4.6,4.6-4.6h80.6C136.3,487.8,138.4,489.9,138.4,492.4z M98.1,472.8h-9.2v-34.4h9.2V472.8z
		 M182.3,423.5C182.3,423.5,182.3,423.5,182.3,423.5z M182.3,401h147.5v22.4c-7.2,0-140.6,0-147.5,0V401z M300.9,492.4
		c0,2.5-2.1,4.6-4.6,4.6h-80.6c-2.5,0-4.6-2.1-4.6-4.6c0-2.5,2.1-4.6,4.6-4.6h80.6C298.8,487.8,300.9,489.9,300.9,492.4z
		 M260.6,472.8h-9.2v-34.4h9.2V472.8z M344.7,423.5C344.7,423.5,344.7,423.5,344.7,423.5z M463.4,492.4c0,2.5-2.1,4.6-4.6,4.6h-80.6
		c-2.5,0-4.6-2.1-4.6-4.6c0-2.5,2.1-4.6,4.6-4.6h80.6C461.3,487.8,463.4,489.9,463.4,492.4z M423.1,472.8h-9.2v-34.4h9.2V472.8z
		 M492.2,423.4c-6.9,0-140.3,0-147.5,0V401h147.5V423.4z"/>
	<path class="st2" d="M256,120.1h30.9c4.1,0,7.5-3.4,7.5-7.5s-3.4-7.5-7.5-7.5h-23.4V72.4c0-4.1-3.4-7.5-7.5-7.5s-7.5,3.4-7.5,7.5
		v40.1C248.5,116.7,251.9,120.1,256,120.1z"/>
	<path class="st2" d="M256,225.1c62.1,0,112.6-50.5,112.6-112.6S318.1,0,256,0S143.4,50.5,143.4,112.6S193.9,225.1,256,225.1z
		 M256,15c53.8,0,97.6,43.8,97.6,97.6s-43.8,97.6-97.6,97.6s-97.6-43.8-97.6-97.6S202.2,15,256,15z"/>
	<path class="st1" d="M256,198.4c47.3,0,85.8-38.5,85.8-85.8S303.3,26.8,256,26.8s-85.8,38.5-85.8,85.8S208.7,198.4,256,198.4z
		 M248.4,42.2v6.3c0,4.1,3.4,7.5,7.5,7.5s7.5-3.4,7.5-7.5v-6.3c33,3.5,59.2,29.6,62.9,62.5h-6.5c-4.1,0-7.5,3.4-7.5,7.5
		s3.4,7.5,7.5,7.5h6.6c-3.3,33.2-29.8,59.7-62.9,63.2V176c0-4.1-3.4-7.5-7.5-7.5s-7.5,3.4-7.5,7.5v6.9c-33.2-3.5-59.6-30-62.9-63.2
		h6.6c4.1,0,7.5-3.4,7.5-7.5s-3.4-7.5-7.5-7.5h-6.5C189.3,71.8,215.5,45.7,248.4,42.2L248.4,42.2z"/>
</g>
<g>
	<path class="st0" d="M-106.3,386.1v-79.5c0-9.1-2.2-18.2-6.4-26.3c-1.9-3.7-6.4-5.1-10.1-3.2c-3.7,1.9-5.1,6.4-3.2,10.1
		c3.1,6,4.7,12.5,4.7,19.4V386h-121.4v-79.4c0-23.1,18.8-42,42-42h37.4c5.5,0,10.8,1,15.8,3.1c3.8,1.6,8.2-0.3,9.8-4.1
		c1.6-3.8-0.3-8.2-4.1-9.8c-6.8-2.8-14-4.2-21.4-4.2h-37.4c-31.4,0-57,25.6-57,57v79.5c-2,0.2-3.9,0.9-5.5,1.9
		c-1.7-1-3.5-1.6-5.5-1.9v-79.5c0-31.4-25.6-57-57-57h-37.4c-31.4,0-57,25.6-57,57v79.5c-2,0.2-3.9,0.9-5.5,1.9
		c-1.7-1-3.5-1.6-5.5-1.9v-79.5c0-31.4-25.6-57-57-57h-37.4c-31.4,0-57,25.6-57,57v79.5c-7.3,0.9-13,7.2-13,14.8v22.6
		c0,8.2,6.7,14.9,14.9,14.9h13.2c4.1,0,7.5-3.4,7.5-7.5s-3.4-7.5-7.5-7.5h-13.1V401h147.5v22.4h-61.6c-13.9,0-23.5,0-37.8,0
		c-4.1,0-7.5,3.4-7.5,7.5s3.4,7.5,7.5,7.5h6.1v34.4h-20.7c-10.8,0-19.6,8.8-19.6,19.6c0,10.8,8.8,19.6,19.6,19.6h80.6
		c10.8,0,19.6-8.8,19.6-19.6c0-10.8-8.8-19.6-19.6-19.6h-20.7v-34.4h54.3c2.7,0,5.2-0.7,7.4-2c2.2,1.3,4.7,2,7.4,2h54.3v34.4h-20.7
		c-10.8,0-19.6,8.8-19.6,19.6c0,10.8,8.8,19.6,19.6,19.6h80.6c10.8,0,19.6-8.8,19.6-19.6c0-10.8-8.8-19.6-19.6-19.6h-20.7v-34.4
		h54.3c2.7,0,5.2-0.7,7.4-2c2.2,1.3,4.7,2,7.4,2h54.3v34.4h-20.7c-10.8,0-19.6,8.8-19.6,19.6c0,10.8,8.8,19.6,19.6,19.6h80.6
		c10.8,0,19.6-8.8,19.6-19.6c0-10.8-8.8-19.6-19.6-19.6h-20.7v-34.4h54.3c8.2,0,14.9-6.7,14.9-14.9v-22.6
		C-93.3,393.3-99,387-106.3,386.1L-106.3,386.1z M-405.2,306.6c0-23.1,18.8-42,42-42h37.4c23.1,0,42,18.8,42,42V386h-121.4V306.6z
		 M-567.7,386v-79.4c0-23.1,18.8-42,42-42h37.4c23.1,0,42,18.8,42,42V386H-567.7z M-462.1,492.4c0,2.5-2.1,4.6-4.6,4.6h-80.6
		c-2.5,0-4.6-2.1-4.6-4.6c0-2.5,2.1-4.6,4.6-4.6h80.6C-464.2,487.8-462.1,489.9-462.1,492.4z M-502.4,472.8h-9.2v-34.4h9.2V472.8z
		 M-418.2,423.5C-418.2,423.5-418.2,423.5-418.2,423.5z M-418.2,401h147.5v22.4c-7.2,0-140.6,0-147.5,0V401z M-299.6,492.4
		c0,2.5-2.1,4.6-4.6,4.6h-80.6c-2.5,0-4.6-2.1-4.6-4.6c0-2.5,2.1-4.6,4.6-4.6h80.6C-301.7,487.8-299.6,489.9-299.6,492.4z
		 M-339.9,472.8h-9.2v-34.4h9.2V472.8z M-255.8,423.5C-255.8,423.5-255.8,423.5-255.8,423.5z M-137.2,492.4c0,2.5-2.1,4.6-4.6,4.6
		h-80.6c-2.5,0-4.6-2.1-4.6-4.6c0-2.5,2.1-4.6,4.6-4.6h80.6C-139.2,487.8-137.2,489.9-137.2,492.4z M-177.4,472.8h-9.2v-34.4h9.2
		V472.8z M-108.3,423.4c-6.9,0-140.3,0-147.5,0V401h147.5V423.4z"/>
	<path class="st2" d="M-344.5,120.1h30.9c4.1,0,7.5-3.4,7.5-7.5s-3.4-7.5-7.5-7.5H-337V72.4c0-4.1-3.4-7.5-7.5-7.5s-7.5,3.4-7.5,7.5
		v40.1C-352,116.7-348.7,120.1-344.5,120.1z"/>
	<path class="st2" d="M-344.5,225.1c62.1,0,112.6-50.5,112.6-112.6S-282.4,0-344.5,0s-112.6,50.5-112.6,112.6
		S-406.6,225.1-344.5,225.1z M-344.5,15c53.8,0,97.6,43.8,97.6,97.6s-43.8,97.6-97.6,97.6s-97.6-43.8-97.6-97.6S-398.3,15-344.5,15z
		"/>
	<path class="st0" d="M-344.5,198.4c47.3,0,85.8-38.5,85.8-85.8s-38.5-85.8-85.8-85.8s-85.8,38.5-85.8,85.8
		S-391.8,198.4-344.5,198.4z M-352.1,42.2v6.3c0,4.1,3.4,7.5,7.5,7.5s7.5-3.4,7.5-7.5v-6.3c33,3.5,59.2,29.6,62.9,62.5h-6.5
		c-4.1,0-7.5,3.4-7.5,7.5s3.4,7.5,7.5,7.5h6.6c-3.3,33.2-29.8,59.7-62.9,63.2V176c0-4.1-3.4-7.5-7.5-7.5s-7.5,3.4-7.5,7.5v6.9
		c-33.2-3.5-59.6-30-62.9-63.2h6.6c4.1,0,7.5-3.4,7.5-7.5s-3.4-7.5-7.5-7.5h-6.5C-411.2,71.8-385,45.7-352.1,42.2L-352.1,42.2z"/>
</g>
</svg>
