<?xml version="1.0" encoding="utf-8"?>
<!-- Generator: Adobe Illustrator 26.2.1, SVG Export Plug-In . SVG Version: 6.00 Build 0)  -->
<svg version="1.1" id="Capa_1" xmlns="http://www.w3.org/2000/svg" xmlns:xlink="http://www.w3.org/1999/xlink" x="0px" y="0px"
	 viewBox="0 0 512 512" style="enable-background:new 0 0 512 512;" xml:space="preserve">
<style type="text/css">
	.st0{fill:#0F2132;}
	.st1{fill:#FFFFFF;}
	.st2{fill:#E4540E;}
</style>
<rect x="0" y="0" class="st0" width="512" height="512"/>
<g>
	<path class="st1" d="M449.3,404c37.9-28.1,60.6-99.4,62.7-197.7c0.1-6.1-2.2-11.9-6.4-16.3c-4.3-4.4-10-6.8-16.1-6.8h-5.6
		c-14.6,0-28,8.6-34.1,21.9l-44.4,97c-5.1-4.4-12.1-7.3-20.3-8.4v-30.5c0-14.9-11.6-30-37.5-30h-110c-14.1,0-23.9,4.5-30,10.9
		c-6.1-6.5-15.9-10.9-30-10.9h-58.3c-4.1,0-7.5,3.4-7.5,7.5c0,4.1,3.4,7.5,7.5,7.5h58.3c13.7,0,22.5,5.9,22.5,15v65.1
		c0,4.1,3.4,7.5,7.5,7.5c4.1,0,7.5-3.4,7.5-7.5v-65.1c0-9.1,8.8-15,22.5-15h110c13.7,0,22.5,5.9,22.5,15v30.5
		c-20.7,2.6-30,16.1-30,29.5v30.8h-42.7c-8.7,0-16.5,4.9-20.3,12.8c-3.8,7.9-2.8,17,2.7,23.8c9.1,11.5,23.2,20.6,40.3,26.7
		l-8.5,26.8h-95.5l-4.9-15.5c25.8-2.5,37.4-14.8,37.4-27c0-9.7-7.9-17.5-17.5-17.5h-16V375c0-4.3,5.3-5.9,10.3-5.9h32
		c4.1,0,7.5-3.4,7.5-7.5c0-4.1-3.4-7.5-7.5-7.5h-32c-7.2,0-13.4,2-17.9,5.5c-4.9-3.7-11.5-5.5-17.8-5.5H75v-30.8
		c0-13.4-9.4-26.9-30-29.5v-30.5c0-9.1,8.8-15,22.5-15h21.7c4.1,0,7.5-3.4,7.5-7.5s-3.4-7.5-7.5-7.5H67.5c-25.9,0-37.5,15.1-37.5,30
		v30.5c-20.7,2.6-30,16.1-30,29.5v128.3c0,4.1,3.4,7.5,7.5,7.5H49c4.1,0,7.5-3.4,7.5-7.5c0-4.1-3.4-7.5-7.5-7.5H15V323.3
		c0-9.1,8.8-15,22.5-15s22.5,5.9,22.5,15v60.8h-2.5c-9.7,0-17.5,7.9-17.5,17.5c0,12.2,11.7,24.5,37.4,27L65.6,466
		c-1.3,4,0.9,8.2,4.9,9.4c0.8,0.2,1.5,0.4,2.3,0.4c3.2,0,6.1-2,7.2-5.2l3.6-11.4h121.6l3.6,11.4c1,3.2,4,5.2,7.2,5.2
		c0.8,0,1.5-0.1,2.3-0.4c4-1.3,6.1-5.5,4.9-9.4l-2.2-6.9h86l-2.2,6.9c-1.3,4,0.9,8.2,4.9,9.4c0.8,0.2,1.5,0.4,2.3,0.4
		c3.2,0,6.1-2,7.2-5.2l3.6-11.4h85.1c4.1,0,7.5-3.4,7.5-7.5c0-4.1-3.4-7.5-7.5-7.5h-80.3l7.1-22.5c11.7,2.8,24.3,4.3,37.3,4.3
		c23.7,0,46.2-4.9,64.3-13.9l18.5,58.6c1,3.2,4,5.2,7.2,5.2c0.8,0,1.5-0.1,2.3-0.4c3.9-1.3,6.1-5.5,4.9-9.4L449.3,404z M75,369.1
		h114.7c5,0,10.3,1.5,10.3,5.9v9.1H75V369.1z M55,401.6c0-1.4,1.1-2.5,2.5-2.5h173.6c1.4,0,2.5,1.1,2.5,2.5
		c0,4.1-7.9,12.5-32.5,12.5c0,0-0.1,0-0.1,0H87.6c0,0-0.1,0-0.1,0c-15,0-23.1-3.1-27.2-5.8C56.4,405.8,55,403.1,55,401.6z
		 M88.3,444.1l4.8-15h102.6l4.8,15H88.3z M463.4,211.4c3.7-8,11.7-13.1,20.5-13.1h5.1l-61.2,133.9c-6,13.1-19,21.6-33.4,21.9
		c4.5-4.4,8.3-9.7,11-15.6L463.4,211.4z M355.1,323.3c0-9.1,8.8-15,22.5-15c10.2,0,17.9,3.3,21,8.9l-6.9,15
		c-6.1,13.3-19.5,21.9-34.1,21.9h-2.5V323.3z M291.5,381.2c-1.8-2.3-2.2-5.2-0.9-7.9c1.3-2.7,3.8-4.3,6.8-4.3h60.2h36
		c20.5,0,39.2-12,47.8-30.7l55.2-120.8C493,308,470.6,373.9,435.8,395c-16.9,10.2-39.6,15.9-64,15.9
		C337.4,410.8,305.9,399.2,291.5,381.2z"/>
	<path class="st2" d="M37.5,188.2h340.1c4.1,0,7.5-3.4,7.5-7.5v-137c0-4.1-3.4-7.5-7.5-7.5H272.5c-4.1,0-7.5,3.4-7.5,7.5
		s3.4,7.5,7.5,7.5h97.6v18c-30.8,16.9-55,34.2-64.4,41.3c-11.1-6.8-39.7-23.2-59.9-23.2c-18.1,0-33.7,7.9-53.4,17.9
		C162,120.8,120.7,141.8,45,143.1V51.3h197.5c4.1,0,7.5-3.4,7.5-7.5s-3.4-7.5-7.5-7.5h-205c-4.1,0-7.5,3.4-7.5,7.5v137
		C30,184.9,33.4,188.2,37.5,188.2L37.5,188.2z M199.3,118.7c17.9-9.1,32.1-16.3,46.6-16.3c17,0,46.3,17,56.1,23.5
		c2.7,1.8,6.2,1.7,8.8-0.3c0.3-0.2,25.1-19.6,59.4-39.1v86.7H45v-15.1C124.3,156.8,167.5,134.9,199.3,118.7z"/>
</g>
<g>
	<path class="st0" d="M-155.3,404c37.9-28.1,60.6-99.4,62.7-197.7c0.1-6.1-2.2-11.9-6.4-16.3c-4.3-4.4-10-6.8-16.1-6.8h-5.6
		c-14.6,0-28,8.6-34.1,21.9l-44.4,97c-5.1-4.4-12.1-7.3-20.3-8.4v-30.5c0-14.9-11.6-30-37.5-30h-110c-14.1,0-23.9,4.5-30,10.9
		c-6.1-6.5-15.9-10.9-30-10.9h-58.3c-4.1,0-7.5,3.4-7.5,7.5c0,4.1,3.4,7.5,7.5,7.5h58.3c13.7,0,22.5,5.9,22.5,15v65.1
		c0,4.1,3.4,7.5,7.5,7.5s7.5-3.4,7.5-7.5v-65.1c0-9.1,8.8-15,22.5-15h110c13.7,0,22.5,5.9,22.5,15v30.5c-20.7,2.6-30,16.1-30,29.5
		v30.8h-42.7c-8.7,0-16.5,4.9-20.3,12.8c-3.8,7.9-2.8,17,2.7,23.8c9.1,11.5,23.2,20.6,40.3,26.7l-8.5,26.8h-95.5l-4.9-15.5
		c25.8-2.5,37.4-14.8,37.4-27c0-9.7-7.9-17.5-17.5-17.5h-16V375c0-4.3,5.3-5.9,10.3-5.9h32c4.1,0,7.5-3.4,7.5-7.5
		c0-4.1-3.4-7.5-7.5-7.5h-32c-7.2,0-13.4,2-17.9,5.5c-4.9-3.7-11.5-5.5-17.8-5.5h-114.7v-30.8c0-13.4-9.4-26.9-30-29.5v-30.5
		c0-9.1,8.8-15,22.5-15h21.7c4.1,0,7.5-3.4,7.5-7.5s-3.4-7.5-7.5-7.5h-21.7c-25.9,0-37.5,15.1-37.5,30v30.5
		c-20.7,2.6-30,16.1-30,29.5v128.3c0,4.1,3.4,7.5,7.5,7.5h41.5c4.1,0,7.5-3.4,7.5-7.5c0-4.1-3.4-7.5-7.5-7.5h-34V323.3
		c0-9.1,8.8-15,22.5-15c13.7,0,22.5,5.9,22.5,15v60.8h-2.5c-9.7,0-17.5,7.9-17.5,17.5c0,12.2,11.7,24.5,37.4,27L-539,466
		c-1.3,4,0.9,8.2,4.9,9.4c0.8,0.2,1.5,0.4,2.3,0.4c3.2,0,6.1-2,7.2-5.2l3.6-11.4h121.6l3.6,11.4c1,3.2,4,5.2,7.2,5.2
		c0.8,0,1.5-0.1,2.3-0.4c4-1.3,6.1-5.5,4.9-9.4l-2.2-6.9h86l-2.2,6.9c-1.3,4,0.9,8.2,4.9,9.4c0.8,0.2,1.5,0.4,2.3,0.4
		c3.2,0,6.1-2,7.2-5.2l3.6-11.4h85.1c4.1,0,7.5-3.4,7.5-7.5c0-4.1-3.4-7.5-7.5-7.5h-80.3l7.1-22.5c11.7,2.8,24.3,4.3,37.3,4.3
		c23.7,0,46.2-4.9,64.3-13.9l18.5,58.6c1,3.2,4,5.2,7.2,5.2c0.8,0,1.5-0.1,2.3-0.4c3.9-1.3,6.1-5.5,4.9-9.4L-155.3,404z
		 M-529.6,369.1h114.7c5,0,10.3,1.5,10.3,5.9v9.1h-125V369.1z M-549.6,401.6c0-1.4,1.1-2.5,2.5-2.5h173.6c1.4,0,2.5,1.1,2.5,2.5
		c0,4.1-7.9,12.5-32.5,12.5c0,0-0.1,0-0.1,0H-517c0,0-0.1,0-0.1,0c-15,0-23.1-3.1-27.2-5.8C-548.2,405.8-549.6,403.1-549.6,401.6z
		 M-516.3,444.1l4.8-15H-409l4.8,15H-516.3z M-141.1,211.4c3.7-8,11.7-13.1,20.5-13.1h5.1l-61.2,133.9c-6,13.1-19,21.6-33.4,21.9
		c4.5-4.4,8.3-9.7,11-15.6L-141.1,211.4z M-249.5,323.3c0-9.1,8.8-15,22.5-15c10.2,0,17.9,3.3,21,8.9l-6.9,15
		c-6.1,13.3-19.5,21.9-34.1,21.9h-2.5V323.3z M-313.1,381.2c-1.8-2.3-2.2-5.2-0.9-7.9c1.3-2.7,3.8-4.3,6.8-4.3h60.2h36
		c20.5,0,39.2-12,47.8-30.7l55.2-120.8C-111.6,308-134,373.9-168.8,395c-16.9,10.2-39.6,15.9-64,15.9
		C-267.2,410.8-298.7,399.2-313.1,381.2z"/>
	<path class="st2" d="M-567.1,188.2H-227c4.1,0,7.5-3.4,7.5-7.5v-137c0-4.1-3.4-7.5-7.5-7.5h-105.1c-4.1,0-7.5,3.4-7.5,7.5
		s3.4,7.5,7.5,7.5h97.6v18c-30.8,16.9-55,34.2-64.4,41.3c-11.1-6.8-39.7-23.2-59.9-23.2c-18.1,0-33.7,7.9-53.4,17.9
		c-30.4,15.5-71.7,36.5-147.4,37.8V51.3h197.5c4.1,0,7.5-3.4,7.5-7.5s-3.4-7.5-7.5-7.5h-205c-4.1,0-7.5,3.4-7.5,7.5v137
		C-574.6,184.9-571.2,188.2-567.1,188.2L-567.1,188.2z M-405.3,118.7c17.9-9.1,32.1-16.3,46.6-16.3c17,0,46.3,17,56.1,23.5
		c2.7,1.8,6.2,1.7,8.8-0.3c0.3-0.2,25.1-19.6,59.4-39.1v86.7h-325.1v-15.1C-480.3,156.8-437.1,134.9-405.3,118.7z"/>
</g>
</svg>
