<svg xmlns="http://www.w3.org/2000/svg" width="502.8" height="512" viewBox="0 0 502.8 512">
  <g id="Grand_Entrance_Lobby_2" data-name="Grand Entrance Lobby 2" transform="translate(-107 -2388)">
    <g id="Group_2" data-name="Group 2" transform="translate(702.4 2388)">
      <path id="Path_17" data-name="Path 17" d="M-106.3,386.1V306.6a57.376,57.376,0,0,0-6.4-26.3,7.464,7.464,0,0,0-10.1-3.2,7.464,7.464,0,0,0-3.2,10.1,41.79,41.79,0,0,1,4.7,19.4V386H-242.7V306.6a42.059,42.059,0,0,1,42-42h37.4a40.468,40.468,0,0,1,15.8,3.1,7.545,7.545,0,0,0,9.8-4.1,7.545,7.545,0,0,0-4.1-9.8,55.907,55.907,0,0,0-21.4-4.2h-37.4a57.1,57.1,0,0,0-57,57v79.5a12.892,12.892,0,0,0-5.5,1.9,15,15,0,0,0-5.5-1.9V306.6a57.1,57.1,0,0,0-57-57H-363a57.1,57.1,0,0,0-57,57v79.5a12.892,12.892,0,0,0-5.5,1.9,15,15,0,0,0-5.5-1.9V306.6a57.1,57.1,0,0,0-57-57h-37.4a57.1,57.1,0,0,0-57,57v79.5a14.914,14.914,0,0,0-13,14.8v22.6a14.937,14.937,0,0,0,14.9,14.9h13.2a7.555,7.555,0,0,0,7.5-7.5,7.555,7.555,0,0,0-7.5-7.5h-13.1V401h147.5v22.4h-99.4a7.555,7.555,0,0,0-7.5,7.5,7.555,7.555,0,0,0,7.5,7.5h6.1v34.4h-20.7a19.632,19.632,0,0,0-19.6,19.6A19.632,19.632,0,0,0-546.9,512h80.6a19.632,19.632,0,0,0,19.6-19.6,19.632,19.632,0,0,0-19.6-19.6H-487V438.4h54.3a14.4,14.4,0,0,0,7.4-2,14.4,14.4,0,0,0,7.4,2h54.3v34.4h-20.7a19.632,19.632,0,0,0-19.6,19.6A19.632,19.632,0,0,0-384.3,512h80.6a19.632,19.632,0,0,0,19.6-19.6,19.632,19.632,0,0,0-19.6-19.6h-20.7V438.4h54.3a14.4,14.4,0,0,0,7.4-2,14.4,14.4,0,0,0,7.4,2H-201v34.4h-20.7a19.632,19.632,0,0,0-19.6,19.6A19.632,19.632,0,0,0-221.7,512h80.6a19.632,19.632,0,0,0,19.6-19.6,19.632,19.632,0,0,0-19.6-19.6h-20.7V438.4h54.3a14.937,14.937,0,0,0,14.9-14.9V400.9c-.7-7.6-6.4-13.9-13.7-14.8Zm-298.9-79.5a42.059,42.059,0,0,1,42-42h37.4a42.059,42.059,0,0,1,42,42V386H-405.2ZM-567.7,386V306.6a42.059,42.059,0,0,1,42-42h37.4a42.059,42.059,0,0,1,42,42V386Zm105.6,106.4a4.653,4.653,0,0,1-4.6,4.6h-80.6a4.653,4.653,0,0,1-4.6-4.6,4.653,4.653,0,0,1,4.6-4.6h80.6A4.653,4.653,0,0,1-462.1,492.4Zm-40.3-19.6h-9.2V438.4h9.2Zm84.2-49.3Zm0-22.5h147.5v22.4H-418.2Zm118.6,91.4a4.653,4.653,0,0,1-4.6,4.6h-80.6a4.653,4.653,0,0,1-4.6-4.6,4.653,4.653,0,0,1,4.6-4.6h80.6A4.653,4.653,0,0,1-299.6,492.4Zm-40.3-19.6h-9.2V438.4h9.2Zm84.1-49.3Zm118.6,68.9a4.653,4.653,0,0,1-4.6,4.6h-80.6a4.653,4.653,0,0,1-4.6-4.6,4.653,4.653,0,0,1,4.6-4.6h80.6A4.588,4.588,0,0,1-137.2,492.4Zm-40.2-19.6h-9.2V438.4h9.2Zm69.1-49.4H-255.8V401h147.5Z" fill="#0f2132"/>
      <path id="Path_18" data-name="Path 18" d="M-344.5,120.1h30.9a7.555,7.555,0,0,0,7.5-7.5,7.555,7.555,0,0,0-7.5-7.5H-337V72.4a7.555,7.555,0,0,0-7.5-7.5,7.555,7.555,0,0,0-7.5,7.5v40.1A7.512,7.512,0,0,0-344.5,120.1Z" fill="#e4540e"/>
      <path id="Path_19" data-name="Path 19" d="M-344.5,225.1A112.712,112.712,0,0,0-231.9,112.5,112.626,112.626,0,0,0-344.5,0,112.712,112.712,0,0,0-457.1,112.6,112.626,112.626,0,0,0-344.5,225.1Zm0-210.1a97.732,97.732,0,0,1,97.6,97.6,97.732,97.732,0,0,1-97.6,97.6,97.732,97.732,0,0,1-97.6-97.6A97.732,97.732,0,0,1-344.5,15Z" fill="#e4540e"/>
      <path id="Path_20" data-name="Path 20" d="M-344.5,198.4a85.91,85.91,0,0,0,85.8-85.8,85.91,85.91,0,0,0-85.8-85.8,85.91,85.91,0,0,0-85.8,85.8A85.91,85.91,0,0,0-344.5,198.4Zm-7.6-156.2v6.3a7.555,7.555,0,0,0,7.5,7.5,7.555,7.555,0,0,0,7.5-7.5V42.2a70.926,70.926,0,0,1,62.9,62.5h-6.5a7.555,7.555,0,0,0-7.5,7.5,7.555,7.555,0,0,0,7.5,7.5h6.6A70.88,70.88,0,0,1-337,182.9V176a7.555,7.555,0,0,0-7.5-7.5A7.555,7.555,0,0,0-352,176v6.9a70.787,70.787,0,0,1-62.9-63.2h6.6a7.555,7.555,0,0,0,7.5-7.5,7.555,7.555,0,0,0-7.5-7.5h-6.5a70.724,70.724,0,0,1,62.7-62.5Z" fill="#0f2132"/>
    </g>
  </g>
</svg>
