<svg xmlns="http://www.w3.org/2000/svg" xmlns:xlink="http://www.w3.org/1999/xlink" width="500" height="500" viewBox="0 0 500 500">
  <defs>
    <clipPath id="clip-_5._Gym">
      <rect width="500" height="500"/>
    </clipPath>
  </defs>
  <g id="_5._Gym" data-name="5. Gym" clip-path="url(#clip-_5._Gym)">
    <g id="_5._Gym-2" data-name="5. Gym" transform="translate(-0.653)">
      <g id="Group_2727" data-name="Group 2727" transform="translate(192.649 298.562)">
        <g id="Group_2726" data-name="Group 2726">
          <path id="Path_2921" data-name="Path 2921" d="M218.741,316.374a75.066,75.066,0,0,0-9.363-8.929,7.828,7.828,0,1,0-9.786,12.222A59.582,59.582,0,0,1,207,326.731a7.828,7.828,0,1,0,11.741-10.356Z" transform="translate(-196.657 -305.728)" fill="#e65400"/>
        </g>
      </g>
      <g id="Group_2729" data-name="Group 2729" transform="translate(351.332 367.433)">
        <g id="Group_2728" data-name="Group 2728">
          <path id="Path_2922" data-name="Path 2922" d="M392.029,376.251a32.881,32.881,0,1,0,32.881,32.881A32.918,32.918,0,0,0,392.029,376.251Zm0,50.1a17.224,17.224,0,1,1,17.224-17.224A17.243,17.243,0,0,1,392.029,426.355Z" transform="translate(-359.148 -376.251)" fill="#e65400"/>
        </g>
      </g>
      <g id="Group_2731" data-name="Group 2731" transform="translate(25.653)">
        <g id="Group_2730" data-name="Group 2730">
          <path id="Path_2923" data-name="Path 2923" d="M451.019,450.939H426.247a67.351,67.351,0,0,0-18.569-114.48l-65.986-25.821L439.67,82.021A32.929,32.929,0,0,0,467.2,49.582v-16.7A32.918,32.918,0,0,0,434.318,0h-16.7a7.829,7.829,0,0,0,0,15.658h16.7a17.243,17.243,0,0,1,17.224,17.224v16.7A17.242,17.242,0,0,1,434.363,66.8l-.059,0H411.927A24.5,24.5,0,0,0,389.38,81.674L298.5,293.737,198.113,254.456a107.992,107.992,0,0,0-26.252-6.627l-12.5-120.852,29.577-1.972h0a20.772,20.772,0,0,0-1.381-41.5H88.178a20.8,20.8,0,0,0-20.771,20.771V110.9a20.771,20.771,0,0,0,20.784,20.771q.684,0,1.368-.046l20.99-1.4,12.705,122.8A108.012,108.012,0,0,0,50.706,355.066a111.58,111.58,0,0,0,54.607,95.874H50.183a24.53,24.53,0,1,0,0,49.061H451.018a24.531,24.531,0,0,0,0-49.061ZM403.772,87.84a8.862,8.862,0,0,1,8.155-5.377h10.518L327.1,304.931l-14.018-5.485ZM88.519,116.008a5.115,5.115,0,0,1-5.454-5.1v-6.625a5.12,5.12,0,0,1,5.114-5.114h99.375a5.115,5.115,0,0,1,.341,10.218h0Zm67.52,131.05a107.935,107.935,0,0,0-17.468,1.875L126.183,129.189l17.542-1.169Zm294.98,237.285H50.183a8.873,8.873,0,1,1,0-17.746H292.354a7.829,7.829,0,0,0,0-15.658H162.237a95.982,95.982,0,0,1-95.874-95.874,92.38,92.38,0,0,1,126.043-86.028l209.564,82a51.729,51.729,0,0,1-18.844,99.9h-7.266a7.829,7.829,0,0,0,0,15.658h75.156a8.874,8.874,0,0,1,0,17.747Z" transform="translate(-25.653)" fill="#0f2132"/>
        </g>
      </g>
      <g id="Group_2733" data-name="Group 2733" transform="translate(84.108 283.926)">
        <g id="Group_2732" data-name="Group 2732">
          <path id="Path_2924" data-name="Path 2924" d="M235.3,390.948h-5.038a74.864,74.864,0,0,0,2.159-44.242,7.828,7.828,0,1,0-15.161,3.906,59.232,59.232,0,0,1-4.281,40.993,24.463,24.463,0,0,0-10.3,5.232l-37-37a7.829,7.829,0,1,0-11.071,11.072l39.91,39.91a24.4,24.4,0,0,0-.366,2.733,58.285,58.285,0,0,1-34.01,10.8,58.977,58.977,0,1,1,0-117.954,59.656,59.656,0,0,1,7.382.457c1.835.229,3.677.547,5.473.945a7.828,7.828,0,1,0,3.395-15.283c-2.274-.5-4.605-.908-6.928-1.2a75.567,75.567,0,0,0-9.321-.577,74.635,74.635,0,1,0,38.29,138.685A24.517,24.517,0,0,0,218.6,440.01h16.7a24.531,24.531,0,0,0,0-49.062Zm0,33.4H218.6a8.873,8.873,0,1,1,0-17.746h16.7a8.873,8.873,0,1,1,0,17.746Z" transform="translate(-85.511 -290.74)" fill="#e65400"/>
        </g>
      </g>
      <g id="Group_2735" data-name="Group 2735" transform="translate(317.928 450.939)">
        <g id="Group_2734" data-name="Group 2734">
          <path id="Path_2925" data-name="Path 2925" d="M349.474,461.762h-16.7a7.829,7.829,0,0,0,0,15.658h16.7a7.829,7.829,0,0,0,0-15.658Z" transform="translate(-324.943 -461.762)" fill="#0f2132"/>
        </g>
      </g>
    </g>
  </g>
</svg>
