<?xml version="1.0" encoding="utf-8"?>
<!-- Generator: Adobe Illustrator 26.0.3, SVG Export Plug-In . SVG Version: 6.00 Build 0)  -->
<svg version="1.1" id="Capa_1" xmlns="http://www.w3.org/2000/svg" xmlns:xlink="http://www.w3.org/1999/xlink" x="0px" y="0px"
	 viewBox="0 0 512 512" style="enable-background:new 0 0 512 512;" xml:space="preserve">
<style type="text/css">
	.st0{fill:#0F2132;}
	.st1{fill:#E65400;}
	.st2{fill:#FFFFFF;}
</style>
<rect x="686.3" class="st0" width="514.3" height="514.3"/>
<g>
	<path class="st1" d="M887.9,62.1c0,34.3,27.9,62.1,62.1,62.1c34.3,0,62.1-27.9,62.1-62.1S984.3,0,950,0
		C915.8,0,887.9,27.9,887.9,62.1z M997.2,62.1c0,26-21.1,47.1-47.1,47.1s-47.1-21.1-47.1-47.1S924,15,950,15
		C976,15,997.2,36.1,997.2,62.1L997.2,62.1z"/>
	<path class="st2" d="M1050.1,198.8c2.8,3,7.6,3.2,10.6,0.4c0.8-0.8,8.1-7.8,8.2-18c0-4.4-1.3-11.1-8.1-17.7
		c-2.4-2.3-3.6-4.5-3.5-6.6c0-2.9,2.4-5.7,3.3-6.5c3.1-2.7,3.4-7.4,0.7-10.5c-2.7-3.1-7.5-3.4-10.6-0.7c-0.8,0.7-8.1,7.3-8.4,17.3
		c-0.1,4.4,1.2,11.1,8.1,17.8c2.4,2.3,3.5,4.5,3.5,6.7c0,3.3-2.5,6.4-3.4,7.3C1047.4,191,1047.2,195.7,1050.1,198.8L1050.1,198.8z"
		/>
	<path class="st2" d="M1112,163.4c-2.4-2.3-3.6-4.5-3.5-6.6c0-2.9,2.4-5.7,3.3-6.5c3.1-2.7,3.4-7.4,0.7-10.5
		c-2.7-3.1-7.5-3.4-10.6-0.7c-0.8,0.7-8.1,7.3-8.4,17.3c-0.1,4.4,1.2,11.1,8.1,17.8c2.4,2.3,3.5,4.5,3.5,6.7c0,3.3-2.5,6.4-3.4,7.3
		c-3,2.8-3.2,7.6-0.4,10.6c2.8,3,7.6,3.2,10.6,0.4c0.8-0.8,8.1-7.8,8.2-18C1120.1,176.6,1118.7,170,1112,163.4L1112,163.4z"/>
	<path class="st2" d="M1101.3,277.1c2.8,3,7.6,3.2,10.6,0.4c0.8-0.8,8.1-7.8,8.2-18c0-4.4-1.3-11.1-8.1-17.7
		c-2.4-2.3-3.6-4.5-3.5-6.6c0-2.9,2.4-5.7,3.3-6.5c3.1-2.7,3.4-7.4,0.7-10.5c-2.7-3.1-7.5-3.4-10.6-0.7c-0.8,0.7-8.1,7.3-8.4,17.3
		c-0.1,4.4,1.2,11.1,8.1,17.8c2.4,2.3,3.5,4.5,3.5,6.7c0,3.3-2.5,6.4-3.4,7.3C1098.6,269.3,1098.4,274,1101.3,277.1L1101.3,277.1z"
		/>
	<path class="st2" d="M769.9,87.3c-2.4-2.3-3.6-4.5-3.5-6.6c0-2.9,2.4-5.7,3.3-6.5c3.1-2.7,3.4-7.4,0.7-10.5
		c-2.7-3.1-7.5-3.4-10.6-0.7c-0.8,0.7-8.1,7.3-8.4,17.3c-0.1,4.4,1.2,11.1,8.1,17.8c2.4,2.3,3.5,4.5,3.5,6.7c0,3.3-2.5,6.4-3.4,7.3
		c-3,2.8-3.2,7.6-0.4,10.6c2.8,3,7.6,3.2,10.6,0.4c0.8-0.8,8.1-7.8,8.2-18C778,100.6,776.7,93.9,769.9,87.3z"/>
	<path class="st2" d="M759.2,204.3c2.8,3,7.6,3.2,10.6,0.4c0.8-0.8,8.1-7.8,8.2-18c0-4.4-1.3-11.1-8.1-17.7
		c-2.4-2.3-3.6-4.5-3.5-6.6c0-2.9,2.4-5.7,3.3-6.5c3.1-2.7,3.4-7.4,0.7-10.5c-2.7-3.1-7.5-3.4-10.6-0.7c-0.8,0.7-8.1,7.3-8.4,17.3
		c-0.1,4.4,1.2,11.1,8.1,17.8c2.4,2.3,3.5,4.5,3.5,6.7c0,3.3-2.5,6.4-3.4,7.3C756.6,196.5,756.4,201.3,759.2,204.3z"/>
	<path class="st2" d="M810.4,122.7c2.8,3,7.6,3.2,10.6,0.4c0.8-0.8,8.1-7.8,8.2-18c0-4.4-1.3-11.1-8.1-17.7
		c-2.4-2.3-3.6-4.5-3.5-6.6c0-2.9,2.4-5.7,3.3-6.5c3.1-2.7,3.4-7.4,0.7-10.5c-2.7-3.1-7.5-3.4-10.6-0.7c-0.8,0.7-8.1,7.3-8.4,17.3
		c-0.1,4.4,1.2,11.1,8.1,17.8c2.4,2.3,3.5,4.5,3.5,6.7c0,3.3-2.5,6.4-3.4,7.3C807.8,114.9,807.6,119.7,810.4,122.7L810.4,122.7z"/>
	<path class="st2" d="M1123.5,462.3h-19.5c2.1-3.9,3.3-8.2,3.5-12.7c0.6-16.9-12.9-30.9-29.8-30.9h-29.3c-0.7,0-1.3-0.5-1.4-1.2
		l-20.9-118.9c0,0,0,0,0,0c8.5,3.7,18.8,3.4,27.4-1.8c14-8.5,18.5-26.9,10-40.9c-11.4-18.8-30.3-32.1-51.9-36.6l-58.9-12.1
		l-50.2-78.3c-11.8-18.4-38.6-18.2-50.2,0.1c-17.7,21.3-74,94-77.5,157.6c-1,18.1,6.1,33,18.2,43h-32.6c-13.4,0-24.6,10.9-24.8,24.4
		c-0.3,14.2,11.6,25.3,25.3,25.3h6.9v108c0,13.6,11.2,24.8,24.8,24.8c13.9,0,24.9-11.7,24.9-25.3V379.2h32.7c4.1,0,7.5-3.4,7.5-7.5
		s-3.4-7.5-7.5-7.5c-8.9,0-81,0-89.3,0c-5.5,0-10.4-4.5-10.3-10c0.1-5.3,4.5-9.7,9.8-9.7h190.3c5.4,0,9.8,4.4,9.8,9.8v48.9
		c0,4.1,3.4,7.5,7.5,7.5c4.1,0,7.5-3.4,7.5-7.5V359l16,93.4c0.5,3.5,1.6,6.9,3.2,9.9h-19.1v-24.1c0-4.1-3.4-7.5-7.5-7.5
		c-4.1,0-7.5,3.4-7.5,7.5v25c0,7.7,6.3,14,14,14h148.8c5.5,0,10.4,4.5,10.3,10c-0.1,5.3-4.5,9.7-9.8,9.7H950.9
		c-5.4,0-9.8-4.4-9.8-9.8V378.2c0-7.7-6.3-14-14-14h-41.6c-4.1,0-7.5,3.4-7.5,7.5s3.4,7.5,7.5,7.5H926v108
		c0,13.7,11.1,24.8,24.8,24.8H1124c13.4,0,24.6-10.9,24.8-24.4C1149.1,473.5,1137.2,462.3,1123.5,462.3L1123.5,462.3z M802.7,379.2
		v107.5c0,5.4-4.4,10.3-9.9,10.3c-0.1,0-0.1,0-0.2,0c-5.3-0.1-9.7-4.5-9.7-9.8v-108L802.7,379.2z M936.5,269.2c0,0-0.1,0-0.1,0
		c-21.2,6-47.1,12.3-69,14.9c-4.2,0.5-8-3-7.7-7.3c1.8-22.2,13.5-49.3,23.1-68.3l21.6,33.6c6.7,11.5,17.9,19.6,30.9,22.3l10.4,2.1
		C942.8,267.4,939.7,268.3,936.5,269.2z M869.6,132.5c6.9-4.4,16-2.4,20.4,4.5l51.9,80.9c1.1,1.7,2.8,2.9,4.8,3.3l62,12.7
		c17.5,3.6,32.8,14.4,42.1,29.7c4.2,7,2,16.1-5,20.3c-6.9,4.2-16,2.2-20.3-5c-5-8.3-13.3-14.1-22.8-16c-24.2-5-39.7-8.2-64.3-13.2
		c-8.9-1.8-16.5-7.4-21.1-15.2c-0.1-0.1-0.1-0.2-0.2-0.3l-52.1-81.3C860.7,146,862.7,136.9,869.6,132.5L869.6,132.5z M789.9,287.3
		c2.5-47.1,37.5-100.9,60-131.1c0.6,1.4,1.6,3.3,2.5,4.7l21.1,32.9c-11.2,21.1-24,49.2-27.9,74.3l-55.8,22.7
		C789.9,289.7,789.9,288.5,789.9,287.3z M827.5,328.5c-17-3.1-28.9-11-34.3-22.7l52.7-21.4c3.2,9.5,12.7,16,23.3,14.7
		c20.9-2.5,44.1-7.9,64.4-13.4l9,28.2c-25.1,6.9-55.2,13.7-81.1,15.7C836.4,329.5,835,329.8,827.5,328.5L827.5,328.5z M950.9,329.5
		h-8.9c9.2-2.5,18.5-5.1,27.4-7.9l3.7,21.4C968.9,335,960.5,329.5,950.9,329.5z M1016,462.3c-5.1-1.9-8.7-6.5-9.4-11.9
		c0-0.1,0-0.2,0-0.3l-23.1-135.3c-1.1-6.6-7.8-10.7-14.2-8.7c-3.7,1.2-7.8,2.4-12.2,3.7l-9-28.2c23.4-6.9,23.8-8,30-8.4l16.1,3.3
		c9.3,4.7,15.8,13.6,17.1,24.2c0,0.2,20.9,119.2,21,119.4c1.4,7.9,8.2,13.6,16.2,13.6h29.3c8.4,0,15.1,6.9,14.8,15.3
		c-0.2,5.9-4.1,11.1-9.8,13.3H1016z"/>
</g>
<g>
	<path class="st1" d="M201.6,62.1c0,34.3,27.9,62.1,62.1,62.1s62.1-27.9,62.1-62.1S298,0,263.7,0S201.6,27.9,201.6,62.1z
		 M310.9,62.1c0,26-21.1,47.1-47.1,47.1s-47.1-21.1-47.1-47.1S237.7,15,263.7,15S310.9,36.1,310.9,62.1L310.9,62.1z"/>
	<path class="st0" d="M363.8,198.8c2.8,3,7.6,3.2,10.6,0.4c0.8-0.8,8.1-7.8,8.2-18c0-4.4-1.3-11.1-8.1-17.7
		c-2.4-2.3-3.6-4.5-3.5-6.6c0-2.9,2.4-5.7,3.3-6.5c3.1-2.7,3.4-7.4,0.7-10.5c-2.7-3.1-7.5-3.4-10.6-0.7c-0.8,0.7-8.1,7.3-8.4,17.3
		c-0.1,4.4,1.2,11.1,8.1,17.8c2.4,2.3,3.5,4.5,3.5,6.7c0,3.3-2.5,6.4-3.4,7.3C361.1,191,360.9,195.7,363.8,198.8L363.8,198.8z"/>
	<path class="st0" d="M425.7,163.4c-2.4-2.3-3.6-4.5-3.5-6.6c0-2.9,2.4-5.7,3.3-6.5c3.1-2.7,3.4-7.4,0.7-10.5
		c-2.7-3.1-7.5-3.4-10.6-0.7c-0.8,0.7-8.1,7.3-8.4,17.3c-0.1,4.4,1.2,11.1,8.1,17.8c2.4,2.3,3.5,4.5,3.5,6.7c0,3.3-2.5,6.4-3.4,7.3
		c-3,2.8-3.2,7.6-0.4,10.6c2.8,3,7.6,3.2,10.6,0.4c0.8-0.8,8.1-7.8,8.2-18C433.8,176.6,432.4,170,425.7,163.4L425.7,163.4z"/>
	<path class="st0" d="M415,277.1c2.8,3,7.6,3.2,10.6,0.4c0.8-0.8,8.1-7.8,8.2-18c0-4.4-1.3-11.1-8.1-17.7c-2.4-2.3-3.6-4.5-3.5-6.6
		c0-2.9,2.4-5.7,3.3-6.5c3.1-2.7,3.4-7.4,0.7-10.5c-2.7-3.1-7.5-3.4-10.6-0.7c-0.8,0.7-8.1,7.3-8.4,17.3c-0.1,4.4,1.2,11.1,8.1,17.8
		c2.4,2.3,3.5,4.5,3.5,6.7c0,3.3-2.5,6.4-3.4,7.3C412.3,269.3,412.1,274,415,277.1L415,277.1z"/>
	<path class="st0" d="M83.6,87.3c-2.4-2.3-3.6-4.5-3.5-6.6c0-2.9,2.4-5.7,3.3-6.5c3.1-2.7,3.4-7.4,0.7-10.5
		c-2.7-3.1-7.5-3.4-10.6-0.7c-0.8,0.7-8.1,7.3-8.4,17.3C65,84.7,66.3,91.3,73.2,98c2.4,2.3,3.5,4.5,3.5,6.7c0,3.3-2.5,6.4-3.4,7.3
		c-3,2.8-3.2,7.6-0.4,10.6c2.8,3,7.6,3.2,10.6,0.4c0.8-0.8,8.1-7.8,8.2-18C91.7,100.6,90.4,93.9,83.6,87.3z"/>
	<path class="st0" d="M72.9,204.3c2.8,3,7.6,3.2,10.6,0.4c0.8-0.8,8.1-7.8,8.2-18c0-4.4-1.3-11.1-8.1-17.7c-2.4-2.3-3.6-4.5-3.5-6.6
		c0-2.9,2.4-5.7,3.3-6.5c3.1-2.7,3.4-7.4,0.7-10.5c-2.7-3.1-7.5-3.4-10.6-0.7c-0.8,0.7-8.1,7.3-8.4,17.3c-0.1,4.4,1.2,11.1,8.1,17.8
		c2.4,2.3,3.5,4.5,3.5,6.7c0,3.3-2.5,6.4-3.4,7.3C70.3,196.5,70.1,201.3,72.9,204.3z"/>
	<path class="st0" d="M124.1,122.7c2.8,3,7.6,3.2,10.6,0.4c0.8-0.8,8.1-7.8,8.2-18c0-4.4-1.3-11.1-8.1-17.7
		c-2.4-2.3-3.6-4.5-3.5-6.6c0-2.9,2.4-5.7,3.3-6.5c3.1-2.7,3.4-7.4,0.7-10.5c-2.7-3.1-7.5-3.4-10.6-0.7c-0.8,0.7-8.1,7.3-8.4,17.3
		c-0.1,4.4,1.2,11.1,8.1,17.8c2.4,2.3,3.5,4.5,3.5,6.7c0,3.3-2.5,6.4-3.4,7.3C121.5,114.9,121.3,119.7,124.1,122.7L124.1,122.7z"/>
	<path class="st0" d="M437.2,462.3h-19.5c2.1-3.9,3.3-8.2,3.5-12.7c0.6-16.9-12.9-30.9-29.8-30.9h-29.3c-0.7,0-1.3-0.5-1.4-1.2
		l-20.9-118.9c0,0,0,0,0,0c8.5,3.7,18.8,3.4,27.4-1.8c14-8.5,18.5-26.9,10-40.9c-11.4-18.8-30.3-32.1-51.9-36.6l-58.9-12.1
		l-50.2-78.3c-11.8-18.4-38.6-18.2-50.2,0.1c-17.7,21.3-74,94-77.5,157.6c-1,18.1,6.1,33,18.2,43H74.3c-13.4,0-24.6,10.9-24.8,24.4
		c-0.3,14.2,11.6,25.3,25.3,25.3h6.9v108c0,13.6,11.2,24.8,24.8,24.8c13.9,0,24.9-11.7,24.9-25.3V379.2h32.7c4.1,0,7.5-3.4,7.5-7.5
		s-3.4-7.5-7.5-7.5c-8.9,0-81,0-89.3,0c-5.5,0-10.4-4.5-10.3-10c0.1-5.3,4.5-9.7,9.8-9.7h190.3c5.4,0,9.8,4.4,9.8,9.8v48.9
		c0,4.1,3.4,7.5,7.5,7.5s7.5-3.4,7.5-7.5V359l16,93.4c0.5,3.5,1.6,6.9,3.2,9.9h-19.1v-24.1c0-4.1-3.4-7.5-7.5-7.5s-7.5,3.4-7.5,7.5
		v25c0,7.7,6.3,14,14,14h148.8c5.5,0,10.4,4.5,10.3,10c-0.1,5.3-4.5,9.7-9.8,9.7H264.6c-5.4,0-9.8-4.4-9.8-9.8V378.2
		c0-7.7-6.3-14-14-14h-41.6c-4.1,0-7.5,3.4-7.5,7.5s3.4,7.5,7.5,7.5h40.7v108c0,13.7,11.1,24.8,24.8,24.8h173.1
		c13.4,0,24.6-10.9,24.8-24.4C462.8,473.5,450.9,462.3,437.2,462.3L437.2,462.3z M116.4,379.2v107.5c0,5.4-4.4,10.3-9.9,10.3
		c-0.1,0-0.1,0-0.2,0c-5.3-0.1-9.7-4.5-9.7-9.8v-108L116.4,379.2z M250.3,269.2c0,0-0.1,0-0.1,0c-21.2,6-47.1,12.3-69,14.9
		c-4.2,0.5-8-3-7.7-7.3c1.8-22.2,13.5-49.3,23.1-68.3l21.6,33.6c6.7,11.5,17.9,19.6,30.9,22.3l10.4,2.1
		C256.5,267.4,253.4,268.3,250.3,269.2z M183.3,132.5c6.9-4.4,16-2.4,20.4,4.5l51.9,80.9c1.1,1.7,2.8,2.9,4.8,3.3l62,12.7
		c17.5,3.6,32.8,14.4,42.1,29.7c4.2,7,2,16.1-5,20.3c-6.9,4.2-16,2.2-20.3-5c-5-8.3-13.3-14.1-22.8-16c-24.2-5-39.7-8.2-64.3-13.2
		c-8.9-1.8-16.5-7.4-21.1-15.2c-0.1-0.1-0.1-0.2-0.2-0.3l-52.1-81.3C174.4,146,176.4,136.9,183.3,132.5L183.3,132.5z M103.6,287.3
		c2.5-47.1,37.5-100.9,60-131.1c0.6,1.4,1.6,3.3,2.5,4.7l21.1,32.9c-11.2,21.1-24,49.2-27.9,74.3l-55.8,22.7
		C103.6,289.7,103.6,288.5,103.6,287.3z M141.2,328.5c-17-3.1-28.9-11-34.3-22.7l52.7-21.4c3.2,9.5,12.7,16,23.3,14.7
		c20.9-2.5,44.1-7.9,64.4-13.4l9,28.2c-25.1,6.9-55.2,13.7-81.1,15.7C150.1,329.5,148.7,329.8,141.2,328.5L141.2,328.5z
		 M264.6,329.5h-8.9c9.2-2.5,18.5-5.1,27.4-7.9l3.7,21.4C282.6,335,274.2,329.5,264.6,329.5z M329.7,462.3
		c-5.1-1.9-8.7-6.5-9.4-11.9c0-0.1,0-0.2,0-0.3l-23.1-135.3c-1.1-6.6-7.8-10.7-14.2-8.7c-3.7,1.2-7.8,2.4-12.2,3.7l-9-28.2
		c23.4-6.9,23.8-8,30-8.4l16.1,3.3c9.3,4.7,15.8,13.6,17.1,24.2c0,0.2,20.9,119.2,21,119.4c1.4,7.9,8.2,13.6,16.2,13.6h29.3
		c8.4,0,15.1,6.9,14.8,15.3c-0.2,5.9-4.1,11.1-9.8,13.3H329.7z"/>
</g>
</svg>
