<?xml version="1.0" encoding="utf-8"?>
<!-- Generator: Adobe Illustrator 26.0.3, SVG Export Plug-In . SVG Version: 6.00 Build 0)  -->
<svg version="1.1" id="Layer_1" xmlns="http://www.w3.org/2000/svg" xmlns:xlink="http://www.w3.org/1999/xlink" x="0px" y="0px"
	 viewBox="0 0 512 512" style="enable-background:new 0 0 512 512;" xml:space="preserve">
<style type="text/css">
	.st0{fill:#0F2132;}
	.st1{fill:#E65400;}
	.st2{fill:#FFFFFF;}
</style>
<rect x="735.3" class="st0" width="512" height="512"/>
<g>
	<path class="st0" d="M331.5,306.5c1.1-1.8,1.3-4,0.4-5.9l-28.3-61.5c-1-2.2-3.1-3.6-5.5-3.7H84.5c-3.5,0.2-6.3,3-6.5,6.5v61.3
		c0,3.3,3.2,6.2,6.5,6.2h241.9C328.5,309.4,330.4,308.3,331.5,306.5z M148,297.4H90v-50h58V297.4z M231,297.4h-71v-50h71V297.4z
		 M243,297.4v-50h51.3l22.7,50H243z"/>
	<path class="st0" d="M230.1,377.4h-5.3c-3.3,0-6,2.7-6,6s2.7,6,6,6h5.3c3.3,0,6-2.7,6-6S233.4,377.4,230.1,377.4z"/>
	<path class="st0" d="M346.1,377.4h-96c-3.3,0-6,2.7-6,6s2.7,6,6,6l0,0h96c3.3,0,6-2.7,6-6S349.4,377.4,346.1,377.4z"/>
	<path class="st0" d="M134,400.9c-16.2,0-29.3,13.1-29.3,29.3s13.1,29.3,29.3,29.3s29.3-13.1,29.3-29.3l0,0
		C163.3,414.1,150.2,401,134,400.9z M134,447.6c-9.6,0-17.3-7.8-17.3-17.3c0-9.6,7.8-17.3,17.3-17.3c9.6,0,17.3,7.8,17.3,17.3l0,0
		C151.3,439.8,143.6,447.6,134,447.6z"/>
	<path class="st0" d="M410,400.9c-16.2,0-29.3,13.1-29.3,29.3s13.1,29.3,29.3,29.3c16.2,0,29.3-13.1,29.3-29.3l0,0
		C439.3,414.1,426.2,401,410,400.9z M410,447.6c-9.6,0-17.3-7.8-17.3-17.3c0-9.6,7.8-17.3,17.3-17.3c9.6,0,17.3,7.8,17.3,17.3l0,0
		C427.3,439.8,419.6,447.6,410,447.6z"/>
	<path class="st0" d="M495.2,402.4H491v-59.1c0.1-18.4-13.8-33.9-32.2-35.8l-94.4-9.8l-31.9-70.6c-5.8-12.8-18.6-21-32.7-21H298
		v-26.4c0.1-3.3-2.5-6.1-5.8-6.2H93.5c-3.3,0-6.5,2.9-6.5,6.2v25.7h-1.6h-0.1c-9.6-0.1-18.8,3.6-25.6,10.3
		c-6.8,6.7-10.7,15.9-10.7,25.4v24.3H36.8c-14.4,0-25.8,12.1-25.8,26.4v69.8c-0.1,14.2,11.4,25.7,25.5,25.8c0.1,0,0.2,0,0.2,0H49v15
		h-3.7c-3.4,0.2-6.2,3-6.3,6.4v42c0.1,1.6,0.7,3,1.9,4c1.2,1.1,2.8,1.6,4.4,1.6h31.5c14.4,31.6,51.7,45.6,83.4,31.1
		c13.7-6.2,24.6-17.1,31-30.7h161.9c14.6,31.5,52.1,45.2,83.6,30.6c13.6-6.3,24.5-17.3,30.7-31h28c3,0.2,5.6-2.2,5.8-5.2
		c0-0.1,0-0.3,0-0.4v-42c0-1.6-0.5-3.2-1.6-4.4C498.3,403.2,496.8,402.5,495.2,402.4z M49,375.4H36.8c-7.5,0.1-13.7-6-13.8-13.6
		c0-0.1,0-0.2,0-0.3v-69.8c0-7.7,6-14.4,13.8-14.4H49V375.4z M238,185.4h48v20.5l-48-0.1V185.4z M159,185.4h67v20.4l-67-0.2V185.4z
		 M99,185.4h48v20.2l-48-0.2V185.4z M72.7,444.4H51v-30h22.1C70.5,424.2,70.4,434.5,72.7,444.4z M134,481.2c-28.1,0-51-22.8-51-51
		c0-28.1,22.8-51,51-51s51,22.8,51,51l0,0C184.9,458.4,162.1,481.2,134,481.2z M348.8,444.8H195.2c2.4-9.9,2.3-20.2-0.2-30h154
		C346.5,424.6,346.4,434.9,348.8,444.8z M410,481.2c-28.1,0-51-22.8-51-51s22.8-51,51-51s51,22.8,51,51l0,0
		C460.9,458.4,438.1,481.2,410,481.2z M466.4,402.4c-15.4-31.2-53.1-44-84.3-28.6c-12.6,6.2-22.7,16.4-28.8,29H190.6
		c-15.1-31.3-52.8-44.4-84.1-29.2c-12.6,6.1-22.8,16.2-29,28.8H61V241.1c0-6.4,2.6-12.4,7.2-16.8c4.6-4.5,10.7-6.9,17.1-6.9h0.1
		l214.5,0.6c9.4,0,17.9,5.5,21.8,14l33.3,73.7c0.9,1.9,2.7,3.3,4.8,3.5l97.9,10.3c7.3,0.7,13.8,4.8,17.7,10.9h-16.6
		c-5.4,0-9.8,4.3-9.8,9.7c0,0.1,0,0.1,0,0.2v25.3c-0.1,5.4,4.2,9.8,9.6,9.8c0.1,0,0.2,0,0.2,0H479v27H466.4z M479.2,342.4
		c-0.1,0.3-0.2,0.6-0.2,0.9v20.1h-18v-21H479.2z M489,444.4h-17.7c2.3-9.9,2.2-20.2-0.4-30H489V444.4z"/>
</g>
<path class="st1" d="M156.6,153.5c0.5,2.9,3,5,5.9,5h53.3c2.9,0,5.4-2.1,5.9-5l5.1-30.1c0.4-2.2-0.5-4.3-2.2-5.7
	c-1.7-1.4-4-1.7-6-0.8l-15.5,6.6l-9.2-12.1c-1.1-1.5-2.9-2.4-4.8-2.4c-1.9,0-3.6,0.9-4.8,2.4l-9.2,12.1l-15.4-6.7
	c-2-0.9-4.3-0.6-6.1,0.8c-1.7,1.4-2.6,3.5-2.2,5.7L156.6,153.5z M174.7,136.3c2.5,1.1,5.5,0.3,7.1-1.9l7.3-9.6l7.3,9.6
	c1.7,2.2,4.6,3,7.1,1.9l9.7-4.2l-2.4,14.3h-43.2l-2.4-14.3L174.7,136.3z"/>
<g>
	<path class="st2" d="M1066.7,306.5c1.1-1.8,1.3-4,0.4-5.9l-28.3-61.5c-1-2.2-3.1-3.6-5.5-3.7H819.7c-3.5,0.2-6.3,3-6.5,6.5v61.3
		c0,3.3,3.2,6.2,6.5,6.2h241.9C1063.7,309.4,1065.6,308.3,1066.7,306.5z M883.2,297.4h-58v-50h58V297.4z M966.2,297.4h-71v-50h71
		V297.4z M978.2,297.4v-50h51.3l22.7,50H978.2z"/>
	<path class="st2" d="M965.3,377.4H960c-3.3,0-6,2.7-6,6s2.7,6,6,6h5.3c3.3,0,6-2.7,6-6S968.6,377.4,965.3,377.4z"/>
	<path class="st2" d="M1081.3,377.4h-96c-3.3,0-6,2.7-6,6s2.7,6,6,6l0,0h96c3.3,0,6-2.7,6-6S1084.6,377.4,1081.3,377.4z"/>
	<path class="st2" d="M869.2,400.9c-16.2,0-29.3,13.1-29.3,29.3s13.1,29.3,29.3,29.3s29.3-13.1,29.3-29.3l0,0
		C898.5,414.1,885.4,401,869.2,400.9z M869.2,447.6c-9.6,0-17.3-7.8-17.3-17.3c0-9.6,7.8-17.3,17.3-17.3c9.6,0,17.3,7.8,17.3,17.3
		l0,0C886.5,439.8,878.8,447.6,869.2,447.6z"/>
	<path class="st2" d="M1145.2,400.9c-16.2,0-29.3,13.1-29.3,29.3s13.1,29.3,29.3,29.3c16.2,0,29.3-13.1,29.3-29.3l0,0
		C1174.5,414.1,1161.4,401,1145.2,400.9z M1145.2,447.6c-9.6,0-17.3-7.8-17.3-17.3c0-9.6,7.8-17.3,17.3-17.3
		c9.6,0,17.3,7.8,17.3,17.3l0,0C1162.5,439.8,1154.8,447.6,1145.2,447.6z"/>
	<path class="st2" d="M1230.4,402.4h-4.2v-59.1c0.1-18.4-13.8-33.9-32.2-35.8l-94.4-9.8l-31.9-70.6c-5.8-12.8-18.6-21-32.7-21h-1.8
		v-26.4c0.1-3.3-2.5-6.1-5.8-6.2H828.7c-3.3,0-6.5,2.9-6.5,6.2v25.7h-1.6h-0.1c-9.6-0.1-18.8,3.6-25.6,10.3s-10.7,15.9-10.7,25.4
		v24.3H772c-14.4,0-25.8,12.1-25.8,26.4v69.8c-0.1,14.2,11.4,25.7,25.5,25.8c0.1,0,0.2,0,0.2,0h12.3v15h-3.7c-3.4,0.2-6.2,3-6.3,6.4
		v42c0.1,1.6,0.7,3,1.9,4c1.2,1.1,2.8,1.6,4.4,1.6H812c14.4,31.6,51.7,45.6,83.4,31.1c13.7-6.2,24.6-17.1,31-30.7h161.9
		c14.6,31.5,52.1,45.2,83.6,30.6c13.6-6.3,24.5-17.3,30.7-31h28c3,0.2,5.6-2.2,5.8-5.2c0-0.1,0-0.3,0-0.4v-42c0-1.6-0.5-3.2-1.6-4.4
		C1233.5,403.2,1232,402.5,1230.4,402.4z M784.2,375.4H772c-7.5,0.1-13.7-6-13.8-13.6c0-0.1,0-0.2,0-0.3v-69.8
		c0-7.7,6-14.4,13.8-14.4h12.2V375.4z M973.2,185.4h48v20.5l-48-0.1V185.4z M894.2,185.4h67v20.4l-67-0.2V185.4z M834.2,185.4h48
		v20.2l-48-0.2V185.4z M807.9,444.4h-21.7v-30h22.1C805.7,424.2,805.6,434.5,807.9,444.4z M869.2,481.2c-28.1,0-51-22.8-51-51
		c0-28.1,22.8-51,51-51c28.2,0,51,22.8,51,51l0,0C920.1,458.4,897.3,481.2,869.2,481.2z M1084,444.8H930.4c2.4-9.9,2.3-20.2-0.2-30
		h154C1081.7,424.6,1081.6,434.9,1084,444.8z M1145.2,481.2c-28.1,0-51-22.8-51-51s22.8-51,51-51c28.2,0,51,22.8,51,51l0,0
		C1196.1,458.4,1173.3,481.2,1145.2,481.2z M1201.6,402.4c-15.4-31.2-53.1-44-84.3-28.6c-12.6,6.2-22.7,16.4-28.8,29H925.8
		c-15.1-31.3-52.8-44.4-84.1-29.2c-12.6,6.1-22.8,16.2-29,28.8h-16.5V241.1c0-6.4,2.6-12.4,7.2-16.8c4.6-4.5,10.7-6.9,17.1-6.9h0.1
		l214.5,0.6c9.4,0,17.9,5.5,21.8,14l33.3,73.7c0.9,1.9,2.7,3.3,4.8,3.5l97.9,10.3c7.3,0.7,13.8,4.8,17.7,10.9H1194
		c-5.4,0-9.8,4.3-9.8,9.7c0,0.1,0,0.1,0,0.2v25.3c-0.1,5.4,4.2,9.8,9.6,9.8c0.1,0,0.2,0,0.2,0h20.2v27H1201.6z M1214.4,342.4
		c-0.1,0.3-0.2,0.6-0.2,0.9v20.1h-18v-21H1214.4z M1224.2,444.4h-17.7c2.3-9.9,2.2-20.2-0.4-30h18.1V444.4z"/>
</g>
<path class="st1" d="M891.8,153.5c0.5,2.9,3,5,5.9,5H951c2.9,0,5.4-2.1,5.9-5l5.1-30.1c0.4-2.2-0.5-4.3-2.2-5.7
	c-1.7-1.4-4-1.7-6-0.8l-15.5,6.6l-9.2-12.1c-1.1-1.5-2.9-2.4-4.8-2.4s-3.6,0.9-4.8,2.4l-9.2,12.1l-15.4-6.7c-2-0.9-4.3-0.6-6.1,0.8
	c-1.7,1.4-2.6,3.5-2.2,5.7L891.8,153.5z M909.9,136.3c2.5,1.1,5.5,0.3,7.1-1.9l7.3-9.6l7.3,9.6c1.7,2.2,4.6,3,7.1,1.9l9.7-4.2
	l-2.4,14.3h-43.2l-2.4-14.3L909.9,136.3z"/>
</svg>
