<svg xmlns="http://www.w3.org/2000/svg" width="512" height="511.914" viewBox="0 0 512 511.914">
  <g id="Jogging_Track" data-name="Jogging Track" transform="translate(-148 -3385.886)">
    <path id="Path_88" data-name="Path 88" d="M-565.4,69.4a48.232,48.232,0,0,0,10.3,1.1c20.1,0,30.5-14.1,33.4-22.7a7.531,7.531,0,0,0-4.7-9.5,7.531,7.531,0,0,0-9.5,4.7c-.2.7-5.7,16.1-26.4,11.7a7.5,7.5,0,0,0-8.9,5.8,7.655,7.655,0,0,0,5.8,8.9Z" transform="translate(828.2 3385.8)" fill="#e4540e"/>
    <path id="Path_89" data-name="Path 89" d="M-528.8,127.5a7.5,7.5,0,0,0-8.9,5.8,7.45,7.45,0,0,0,5.8,8.9,48.232,48.232,0,0,0,10.3,1.1c20.1,0,30.5-14.1,33.5-22.7a7.531,7.531,0,0,0-4.7-9.5,7.531,7.531,0,0,0-9.5,4.7C-502.5,116.4-508.1,131.9-528.8,127.5Z" transform="translate(828.2 3385.8)" fill="#e4540e"/>
    <path id="Path_90" data-name="Path 90" d="M-643,129.7a48.232,48.232,0,0,0,10.3,1.1c20.1,0,30.6-14.1,33.5-22.7a7.531,7.531,0,0,0-4.7-9.5,7.531,7.531,0,0,0-9.5,4.7c-.2.7-5.7,16.1-26.5,11.7a7.5,7.5,0,0,0-8.9,5.8A7.655,7.655,0,0,0-643,129.7Z" transform="translate(828.2 3385.8)" fill="#e4540e"/>
    <path id="Path_91" data-name="Path 91" d="M-462.7,259.5a7.579,7.579,0,0,0,3.8,1.1,7.54,7.54,0,0,0,6.4-3.6,102.19,102.19,0,0,0,14.1-48.5v-.3c16.8-2.2,31.1-8.9,41.6-19.5A63.382,63.382,0,0,0-379,150.1c2.8-29.5-13-55.7-38.9-65.3,15.3-16.7,31.8-51.5,1.9-82.4a7.456,7.456,0,0,0-10.6-.2,7.456,7.456,0,0,0-.2,10.6c27.1,28,1.8,57.5-2.7,62.4A13.97,13.97,0,0,0-435,87.6a12.613,12.613,0,0,0,7.8,9.9,1.854,1.854,0,0,0,.7.2c25,7.1,34.4,31.4,32.5,50.9-1.9,19.9-16,42.1-49.8,45.1-9.4.9-9.5,8.4-9.5,11.6a25.349,25.349,0,0,1-.1,2.6,86.392,86.392,0,0,1-12,41.4,7.6,7.6,0,0,0,2.7,10.2Z" transform="translate(828.2 3385.8)" fill="#e4540e"/>
    <path id="Path_92" data-name="Path 92" d="M-326.8,183.7c1.6,1.5,8.1,2.3,12.5,2.8,11.1,1.3,29.7,3.4,29.7,22.6,0,5.7,1.6,9.8,4.9,12.5,6.2,5,17.6,5,24.6,4.2,4.7-16.7,8.8-47.7-20.8-58.1-5-1.8-10.4-1.7-17.2-1.7-10.1.1-22.4.2-37.9-6-3,9.7-1.6,18.1,4.2,23.7Z" transform="translate(828.2 3385.8)" fill="none"/>
    <path id="Path_93" data-name="Path 93" d="M-306.9,250.2a35.257,35.257,0,0,0,14.5,3.4,42.063,42.063,0,0,0,17.9-3.6,32.713,32.713,0,0,0,11.3-8.7c-8.3-.1-18.3-1.8-25.8-7.9-4.8-3.9-10.6-11.2-10.6-24.2,0-4.4-2.3-6-16.5-7.7a74.871,74.871,0,0,1-12.7-2.2,40.139,40.139,0,0,0-3,15C-331.7,231.2-319.2,244.5-306.9,250.2Z" transform="translate(828.2 3385.8)" fill="none"/>
    <path id="Path_94" data-name="Path 94" d="M-257.4,318l-9-2.9h0A21.621,21.621,0,0,1-279.2,304a22.579,22.579,0,0,1-1.2-17.3,22.008,22.008,0,0,1,11.8-13l-5.4-7.8a59.511,59.511,0,0,1-18.3,2.7,49.486,49.486,0,0,1-18.6-3.8l-18.4,23v65.9l64.9-.1Z" transform="translate(828.2 3385.8)" fill="none"/>
    <path id="Path_95" data-name="Path 95" d="M-266.2,291.5a7.521,7.521,0,0,0,.4,5.7,7.252,7.252,0,0,0,4.1,3.6l39.5,12.8c.1,0,.1,0,.2.1,1.9.7,6.3,3,5.9,9.6v25.2a7.279,7.279,0,0,0,7.2,7.4h0a7.492,7.492,0,0,0,5.3-2.2,7.209,7.209,0,0,0,2.2-5.1V310a7.5,7.5,0,0,0-4.9-6.5l-4-1.4h0c-6.2-2.1-41.7-14-46.9-15.4A7.6,7.6,0,0,0-266.2,291.5Z" transform="translate(828.2 3385.8)" fill="none"/>
    <path id="Path_96" data-name="Path 96" d="M-377.7,288.4l-14.6-21.2c-2.2-3.2-5-4.7-8.2-4.4a9.494,9.494,0,0,0-7.6,5.1c-1.1,2.4-.7,5.1,1.3,7.9l21.2,30a30.419,30.419,0,0,0,2.6,3.4c.8.1,2.6.1,4.3.1h34.4V292.7h-25.4A9.015,9.015,0,0,1-377.7,288.4Z" transform="translate(828.2 3385.8)" fill="none"/>
    <path id="Path_97" data-name="Path 97" d="M-487.1,437.7a7.452,7.452,0,0,1-3.3-6.1A32.54,32.54,0,0,0-522.7,400a32.058,32.058,0,0,0-23.3,9.9V497h41a32.457,32.457,0,0,0,32.4-32.4A32.816,32.816,0,0,0-487.1,437.7Z" transform="translate(828.2 3385.8)" fill="none"/>
    <path id="Path_98" data-name="Path 98" d="M-369.8,477.3c-2.8,0-10.5,2.5-16.2,8.5a24.453,24.453,0,0,0-6.2,11.2h52.7V477.3Z" transform="translate(828.2 3385.8)" fill="none"/>
    <path id="Path_99" data-name="Path 99" d="M-226.8,473.6l-56.6-19.5c-8.6-3-11.9-7.8-14.2-12.6l-10.2-21.1s-15.9,8.9-16.8,9.5c0,.5.1,67.1.1,67.1h100.7C-226.8,489.3-227.4,480.2-226.8,473.6Z" transform="translate(828.2 3385.8)" fill="none"/>
    <path id="Path_100" data-name="Path 100" d="M-268,368.5l-65.3.1-22.6,26.3h0c-3.8,4.4-6.4,8.5-6.4,14.1h0v53.4h22.7l-.1-26.4c0-1.5-.1-4.1-.1-4.1-.3-9.1,1.5-11.6,10.6-16.7,0,0,23.8-13.3,25.4-14.2C-292.6,394.9-274.8,385.3-268,368.5Z" transform="translate(828.2 3385.8)" fill="none"/>
    <path id="Path_101" data-name="Path 101" d="M-199.7,441.5-211.4,472c-1.2,3.2-1,16.9,3.2,23,1.3,1.9,2.3,1.9,2.8,1.9h3.1s18.1-48.5,18.4-49.7Z" transform="translate(828.2 3385.8)" fill="none"/>
    <path id="Path_102" data-name="Path 102" d="M-256,412.3l-5-25.9c-9.7,13.2-23.9,21.4-33.7,26.7l10.6,21.9c1.1,2.3,1.9,3.6,5.6,4.9l56,19.3,8.7-22.6-31-10.4C-253.9,423.2-255,417.7-256,412.3Z" transform="translate(828.2 3385.8)" fill="none"/>
    <path id="Path_103" data-name="Path 103" d="M-324.7,429.9Z" transform="translate(828.2 3385.8)"/>
    <path id="Path_104" data-name="Path 104" d="M-175.7,497h-10.6s14.9-40,15.1-40.6c1.9-4.8,4-10.3,1.5-15.8a13.935,13.935,0,0,0-8.2-7.1s-62.8-21.8-63-21.8c-.2-.6-9.8-50.7-9.8-50.7l7.6-38.3,11.8,3.8v22a22.321,22.321,0,0,0,22.2,22.4h.1a22.653,22.653,0,0,0,15.9-6.6,22.189,22.189,0,0,0,6.6-15.7v-39a22.161,22.161,0,0,0-15.1-20.2l-4-1.4c-6.2-2.1-39.6-13.3-45.2-14.9l-9.7-14c7.8-5.6,13.9-13.5,18.2-23.7.1-.1.1-.3.2-.4,0-.1,0-.1.1-.2v-.2c6.1-18.7,7-35.9,2.6-49.7-4.8-15-15.7-25.9-31.4-31.4-7.5-2.6-14.7-2.6-22.3-2.5-11.1.1-22.6.2-38.4-7.7a7.444,7.444,0,0,0-10,3.3c-8.2,16.2-7.9,32,.4,43.5a53.991,53.991,0,0,0-5.6,24.1c0,16.5,8.7,32.6,22.6,43.1l-16.3,20.3h-26.5l-13-18.9c-5.3-7.6-13.2-11.6-21.8-10.9a24.3,24.3,0,0,0-19.9,13.7c-3.4,7.3-2.5,15.7,2.6,22.9l21.3,30.1c6.1,8.5,8.6,9.7,19.1,9.7h34.4v34.1l-23,26.7c-4.7,5.4-10,13-10,23.9v54.6a45.29,45.29,0,0,0-19.6,11.9A39.124,39.124,0,0,0-407.4,497h-63a47.52,47.52,0,0,0,12.8-32.4,47.162,47.162,0,0,0-18-37.1A47.619,47.619,0,0,0-522.7,385a46.837,46.837,0,0,0-23.3,6.1V340h0V264.7h0V240.5l18.8-18.9a27.959,27.959,0,0,0,8.3-20.1,27.731,27.731,0,0,0-8.3-20,27.959,27.959,0,0,0-20.1-8.3,28.546,28.546,0,0,0-20.1,8.3l-8.4,8.4-8.4-8.4a28.128,28.128,0,0,0-20.1-8.3h0a28.139,28.139,0,0,0-20,8.3,27.959,27.959,0,0,0-8.3,20.1,28.546,28.546,0,0,0,8.3,20.1l18.8,18.9v101h0v38.3a7.555,7.555,0,0,0,7.5,7.5,7.555,7.555,0,0,0,7.5-7.5V237.4a7.492,7.492,0,0,0-2.2-5.3l-21-21.1a13.327,13.327,0,0,1-3.9-9.4,13.561,13.561,0,0,1,3.9-9.5,13.327,13.327,0,0,1,9.4-3.9h0a13.386,13.386,0,0,1,9.5,3.9l13.7,13.7a7.545,7.545,0,0,0,10.6,0l13.7-13.7a13.327,13.327,0,0,1,9.4-3.9,13.561,13.561,0,0,1,9.5,3.9,13.327,13.327,0,0,1,3.9,9.4,13.561,13.561,0,0,1-3.9,9.5l-21,21.1a7.492,7.492,0,0,0-2.2,5.3V497h-29.4V414.4a7.555,7.555,0,0,0-7.5-7.5,7.555,7.555,0,0,0-7.5,7.5V497h-55.6a7.555,7.555,0,0,0-7.5,7.5,7.555,7.555,0,0,0,7.5,7.5h485.4a7.555,7.555,0,0,0,7.5-7.5A7.49,7.49,0,0,0-175.7,497ZM-344.3,309.2h-34.4c-1.6,0-3.5,0-4.3-.1a30.422,30.422,0,0,1-2.6-3.4l-21.2-30c-2-2.8-2.4-5.5-1.3-7.9a9.719,9.719,0,0,1,7.6-5.1c3.2-.3,6,1.3,8.2,4.4l14.6,21.2a8.685,8.685,0,0,0,8,4.2h25.4v16.7ZM-505.1,497h-41V409.9a32.058,32.058,0,0,1,23.3-9.9,32.406,32.406,0,0,1,32.3,31.6,7.87,7.87,0,0,0,3.3,6.1,32.336,32.336,0,0,1,14.4,26.9A32.244,32.244,0,0,1-505.1,497Zm247.7-210.2c5.2,1.4,40.7,13.2,46.9,15.4h0l4,1.4a7.2,7.2,0,0,1,4.9,6.5v38.6a7.209,7.209,0,0,1-2.2,5.1,7.671,7.671,0,0,1-5.3,2.2h0a7.279,7.279,0,0,1-7.2-7.4V323.4c.3-6.6-4-8.9-5.9-9.6-.1,0-.1,0-.2-.1l-39.5-12.8a6.914,6.914,0,0,1-4.1-3.6,7.521,7.521,0,0,1-.4-5.7A7.611,7.611,0,0,1-257.4,286.8ZM-330.9,160c15.5,6.2,27.8,6.1,37.9,6,6.8-.1,12.2-.1,17.2,1.7,29.6,10.5,25.5,41.5,20.8,58.1-7,.8-18.4.9-24.6-4.2-3.3-2.7-4.9-6.8-4.9-12.5,0-19.1-18.6-21.3-29.7-22.6-4.3-.5-10.9-1.3-12.5-2.8h0C-332.6,178.1-334,169.7-330.9,160Zm-.8,54.2a38.264,38.264,0,0,1,3-15,74.87,74.87,0,0,0,12.7,2.2c14.2,1.6,16.5,3.3,16.5,7.7,0,13,5.7,20.3,10.6,24.2,7.6,6.1,17.5,7.8,25.8,7.9a32.713,32.713,0,0,1-11.3,8.7,42.383,42.383,0,0,1-17.9,3.6,35.257,35.257,0,0,1-14.5-3.4C-319.2,244.5-331.7,231.2-331.7,214.2Zm2.4,73.5,18.4-23a49.486,49.486,0,0,0,18.6,3.8,59.972,59.972,0,0,0,18.3-2.7l5.4,7.8a22.612,22.612,0,0,0-11.8,13,22.641,22.641,0,0,0,1.2,17.3A21.908,21.908,0,0,0-266.4,315h0l9,2.9-7,35.5-64.9.1Zm-63,209.3a24.453,24.453,0,0,1,6.2-11.2c5.8-6,13.4-8.5,16.2-8.5h30.2V497Zm52.4-65.2s.1,2.6.1,4.1l.1,26.4h-22.7V408.9h0c0-5.6,2.6-9.7,6.4-14.1h0l22.6-26.3,65.3-.1c-6.8,16.8-24.5,26.4-35.8,32.5-1.7.9-25.4,14.2-25.4,14.2C-338.3,420.3-340.1,422.8-339.9,431.8Zm15.3,65.2s-.1-66.6-.1-67.1h0c.9-.6,16.8-9.5,16.8-9.5l10.2,21.1c2.3,4.8,5.6,9.6,14.2,12.6l56.6,19.5c-.6,6.7,0,15.8,2.9,23.4Zm102-37.8-56-19.3c-3.7-1.3-4.5-2.6-5.6-4.9l-10.6-21.9c9.8-5.3,24-13.6,33.7-26.7l5,25.9c1,5.4,2.1,10.9,11.1,13.9l31,10.4Zm17.2,37.8h0c-.5,0-1.5,0-2.8-1.9-4.2-6.1-4.5-19.8-3.2-23l11.7-30.5,15.8,5.8c-.3,1.1-18.4,49.7-18.4,49.7h-3.1Z" transform="translate(828.2 3385.8)" fill="#0f2132"/>
    <path id="Path_105" data-name="Path 105" d="M-605.5,286.2h-67.2a7.555,7.555,0,0,0-7.5,7.5,7.555,7.555,0,0,0,7.5,7.5h67.2v40.2h0Z" transform="translate(828.2 3385.8)" fill="#e4540e"/>
    <path id="Path_106" data-name="Path 106" d="M-546.1,340h0V301.2h15.5a89.478,89.478,0,0,0,54.6-18,7.5,7.5,0,0,0,1.5-10.5,7.5,7.5,0,0,0-10.5-1.5,74.715,74.715,0,0,1-45.6,15h-15.5V264.7h0Z" transform="translate(828.2 3385.8)" fill="#e4540e"/>
  </g>
</svg>
