<?xml version="1.0" encoding="utf-8"?>
<!-- Generator: Adobe Illustrator 26.2.1, SVG Export Plug-In . SVG Version: 6.00 Build 0)  -->
<svg version="1.1" id="Capa_1" xmlns="http://www.w3.org/2000/svg" xmlns:xlink="http://www.w3.org/1999/xlink" x="0px" y="0px"
	 viewBox="0 0 512 512" style="enable-background:new 0 0 512 512;" xml:space="preserve">
<style type="text/css">
	.st0{fill:#0F2132;}
	.st1{fill:#E4540E;}
	.st2{fill:none;}
	.st3{fill:#FFFFFF;}
</style>
<rect x="-1.9" y="-3.8" class="st0" width="525" height="525"/>
<path class="st1" d="M114.8,69.4c3.7,0.8,7.1,1.1,10.3,1.1c20.1,0,30.5-14.1,33.4-22.7c1.3-3.9-0.8-8.2-4.7-9.5
	c-3.9-1.3-8.2,0.8-9.5,4.7c-0.2,0.7-5.7,16.1-26.4,11.7c-4.1-0.9-8,1.7-8.9,5.8C108.2,64.5,110.8,68.5,114.8,69.4L114.8,69.4z"/>
<path class="st1" d="M151.4,127.5c-4-0.9-8,1.7-8.9,5.8c-0.9,4.1,1.7,8,5.8,8.9c3.7,0.8,7.1,1.1,10.3,1.1
	c20.1,0,30.5-14.1,33.5-22.7c1.3-3.9-0.8-8.2-4.7-9.5c-3.9-1.3-8.2,0.8-9.5,4.7C177.6,116.4,172.1,131.9,151.4,127.5z"/>
<path class="st1" d="M37.2,129.7c3.7,0.8,7.1,1.1,10.3,1.1c20.1,0,30.6-14.1,33.5-22.7c1.3-3.9-0.8-8.2-4.7-9.5
	c-3.9-1.3-8.2,0.8-9.5,4.7C66.5,104,61,119.4,40.3,115c-4-0.9-8,1.7-8.9,5.8C30.5,124.8,33.1,128.8,37.2,129.7z"/>
<path class="st1" d="M217.5,259.5c1.2,0.7,2.5,1.1,3.8,1.1c2.5,0,5-1.3,6.4-3.6c8.6-14.3,13.4-31.1,14.1-48.5c0-0.1,0-0.2,0-0.3
	c16.8-2.2,31.1-8.9,41.6-19.5c10.1-10.2,16.4-23.9,17.8-38.6c2.8-29.5-13-55.7-38.9-65.3c15.3-16.7,31.8-51.5,1.9-82.4
	c-2.9-3-7.6-3.1-10.6-0.2c-3,2.9-3.1,7.6-0.2,10.6c27.1,28,1.8,57.5-2.7,62.4c-4,3.2-6,7.8-5.5,12.4c0.6,4.4,3.6,8.2,7.8,9.9
	c0.2,0.1,0.5,0.2,0.7,0.2c25,7.1,34.4,31.4,32.5,50.9c-1.9,19.9-16,42.1-49.8,45.1c-9.4,0.9-9.5,8.4-9.5,11.6c0,0.7,0,1.6-0.1,2.6
	c-0.5,14.9-4.7,29.2-11.9,41.4C212.8,252.8,213.9,257.4,217.5,259.5L217.5,259.5z"/>
<path class="st2" d="M353.4,183.7c1.6,1.5,8.1,2.3,12.5,2.8c11.1,1.3,29.7,3.4,29.7,22.6c0,5.7,1.6,9.8,4.9,12.5
	c6.2,5,17.6,5,24.6,4.2c4.7-16.7,8.8-47.7-20.8-58.1c-5-1.8-10.4-1.7-17.2-1.7c-10.1,0.1-22.4,0.2-37.9-6
	C346.2,169.7,347.5,178.1,353.4,183.7C353.4,183.7,353.4,183.7,353.4,183.7z"/>
<path class="st2" d="M373.3,250.2c4.8,2.2,9.8,3.4,14.5,3.4c6.7,0,12.8-1.2,17.9-3.6c4.3-2,8.1-4.9,11.3-8.7
	c-8.3-0.1-18.3-1.8-25.8-7.9c-4.8-3.9-10.6-11.2-10.6-24.2c0-4.4-2.3-6-16.5-7.7c-4.3-0.5-8.7-1-12.7-2.2c-1.9,4.7-3,9.8-3,15
	C348.5,231.2,360.9,244.5,373.3,250.2z"/>
<path class="st2" d="M422.8,318l-9-2.9c0,0,0,0,0,0c-5.6-1.8-10.2-5.8-12.8-11.1c-2.7-5.3-3.1-11.6-1.2-17.3c2-6,6.4-10.5,11.8-13
	l-5.4-7.8c-5.6,1.8-11.7,2.7-18.3,2.7c-6.1,0-12.5-1.3-18.6-3.8l-18.4,23v65.9l64.9-0.1L422.8,318z"/>
<path class="st2" d="M413.9,291.5c-0.6,1.9-0.5,3.9,0.4,5.7c0.9,1.7,2.3,3,4.1,3.6l39.5,12.8c0.1,0,0.1,0,0.2,0.1
	c1.9,0.7,6.3,3,5.9,9.6c0,0.1,0,0.3,0,0.4v24.8c0,4.1,3.2,7.4,7.2,7.4c0,0,0,0,0,0c2,0,3.9-0.8,5.3-2.2c1.4-1.4,2.2-3.2,2.2-5.1V310
	c-0.2-2.9-2.2-5.6-4.9-6.5l-4-1.4l0,0c-6.2-2.1-41.7-14-46.9-15.4C419.1,285.8,415.2,287.9,413.9,291.5z"/>
<path class="st2" d="M302.5,288.4l-14.6-21.2c-2.2-3.2-5-4.7-8.2-4.4c-3.2,0.3-6.3,2.3-7.6,5.1c-1.1,2.4-0.7,5.1,1.3,7.9l21.2,30
	c0.6,0.9,1.9,2.7,2.6,3.4c0.8,0.1,2.6,0.1,4.3,0.1v0h34.4v-16.6h-25.4C307.9,292.6,305,292.1,302.5,288.4z"/>
<path class="st2" d="M193.1,437.7c-2-1.4-3.3-3.6-3.3-6.1c-0.4-17.4-14.9-31.6-32.3-31.6c-8.9,0-17.1,3.5-23.3,9.9V497h41
	c17.8,0,32.4-14.5,32.4-32.4C207.5,453.8,202.1,443.8,193.1,437.7z"/>
<path class="st2" d="M310.3,477.3c-2.8,0-10.5,2.5-16.2,8.5c-3.1,3.3-5.2,7-6.2,11.2h52.7l0-19.7H310.3z"/>
<path class="st2" d="M453.3,473.6l-56.6-19.5c-8.6-3-11.9-7.8-14.2-12.6l-10.2-21.1c0,0-15.9,8.9-16.8,9.5c0,0.5,0.1,67.1,0.1,67.1
	h100.7C453.4,489.3,452.7,480.2,453.3,473.6z"/>
<path class="st2" d="M412.1,368.5l-65.3,0.1l-22.6,26.3c0,0,0,0,0,0c-3.8,4.4-6.4,8.5-6.4,14.1h0v53.4h22.7l-0.1-26.4
	c0-1.5-0.1-4.1-0.1-4.1c-0.3-9.1,1.5-11.6,10.6-16.7c0,0,23.8-13.3,25.4-14.2C387.6,394.9,405.3,385.3,412.1,368.5z"/>
<path class="st2" d="M480.5,441.5L468.7,472c-1.2,3.2-1,16.9,3.2,23c1.3,1.9,2.3,1.9,2.8,1.9v0h3.1c0,0,18.1-48.5,18.4-49.7
	L480.5,441.5z"/>
<path class="st2" d="M424.2,412.3l-5-25.9c-9.7,13.2-23.9,21.4-33.7,26.7L396,435c1.1,2.3,1.9,3.6,5.6,4.9l56,19.3l8.7-22.6
	l-31-10.4C426.3,423.2,425.2,417.7,424.2,412.3z"/>
<polygon points="355.5,429.9 355.5,429.9 355.5,429.9 "/>
<path class="st3" d="M504.5,497L504.5,497l-10.6,0c0,0,14.9-40,15.1-40.6c1.9-4.8,4-10.3,1.5-15.8c-1.5-3.2-4.2-5.6-8.2-7.1
	c0,0-62.8-21.8-63-21.8c-0.2-0.6-9.8-50.7-9.8-50.7l7.6-38.3l11.8,3.8v22c0,12.3,9.9,22.4,22.2,22.4h0.1c5.9,0,11.7-2.4,15.9-6.6
	c4.2-4.2,6.6-9.8,6.6-15.7v-38.7c0-0.1,0-0.2,0-0.3c-0.3-9.2-6.4-17.3-15.1-20.2l-4-1.4c-6.2-2.1-39.6-13.3-45.2-14.9l-9.7-14
	c7.8-5.6,13.9-13.5,18.2-23.7c0.1-0.1,0.1-0.3,0.2-0.4c0-0.1,0-0.1,0.1-0.2c0,0,0-0.1,0-0.1c0,0,0,0,0-0.1c6.1-18.7,7-35.9,2.6-49.7
	c-4.8-15-15.7-25.9-31.4-31.4c-7.5-2.6-14.7-2.6-22.3-2.5c-11.1,0.1-22.6,0.2-38.4-7.7c-3.7-1.8-8.2-0.4-10,3.3
	c-8.2,16.2-7.9,32,0.4,43.5c-3.7,7.4-5.6,15.7-5.6,24.1c0,16.5,8.7,32.6,22.6,43.1l-16.3,20.3h-26.5l-13-18.9
	c-5.3-7.6-13.2-11.6-21.8-10.9c-8.6,0.7-16.4,6.1-19.9,13.7c-3.4,7.3-2.5,15.7,2.6,22.9l21.3,30.1c6.1,8.5,8.6,9.7,19.1,9.7h34.4
	v34.1l-23,26.7c-4.7,5.4-10,13-10,23.9v54.6c-6.3,1.8-13.6,5.7-19.6,11.9c-5.8,6.1-9.4,13.4-10.6,21.6h-63
	c7.9-8.5,12.8-19.9,12.8-32.4c0-14.6-6.7-28.2-18-37.1c-2.5-23.8-22.8-42.5-47.1-42.5c-8.3,0-16.3,2.1-23.3,6.1V340h0v-75.3h0v-24.2
	l18.8-18.9c5.4-5.3,8.3-12.5,8.3-20.1s-2.9-14.7-8.3-20c-5.3-5.4-12.5-8.3-20.1-8.3s-14.7,3-20.1,8.3l-8.4,8.4l-8.4-8.4
	c-5.4-5.4-12.5-8.3-20.1-8.3c0,0,0,0,0,0c-7.6,0-14.7,3-20,8.3c-5.4,5.3-8.3,12.5-8.3,20.1c0,7.6,3,14.7,8.3,20.1l18.8,18.9v30v15.8
	v55.2h0v38.3c0,4.1,3.4,7.5,7.5,7.5c4.1,0,7.5-3.4,7.5-7.5V237.4c0-2-0.8-3.9-2.2-5.3l-21-21.1c-2.5-2.5-3.9-5.9-3.9-9.4
	c0-3.6,1.4-6.9,3.9-9.5c2.5-2.5,5.9-3.9,9.4-3.9h0c3.6,0,7,1.4,9.5,3.9l13.7,13.7c2.9,2.9,7.7,2.9,10.6,0l13.7-13.7
	c2.5-2.5,5.9-3.9,9.4-3.9c3.6,0,6.9,1.4,9.5,3.9c2.5,2.5,3.9,5.9,3.9,9.4c0,3.6-1.4,6.9-3.9,9.5l-21,21.1c-1.4,1.4-2.2,3.3-2.2,5.3
	V497H89.7v-82.6c0-4.1-3.4-7.5-7.5-7.5c-4.1,0-7.5,3.4-7.5,7.5V497H19.1c-4.1,0-7.5,3.4-7.5,7.5s3.4,7.5,7.5,7.5h485.4
	c4.1,0,7.5-3.4,7.5-7.5S508.6,497,504.5,497z M335.9,309.2h-34.4v0c-1.6,0-3.5,0-4.3-0.1c-0.7-0.7-2-2.5-2.6-3.4l-21.2-30
	c-2-2.8-2.4-5.5-1.3-7.9c1.3-2.7,4.4-4.8,7.6-5.1c3.2-0.3,6,1.3,8.2,4.4l14.6,21.2c2.5,3.7,5.4,4.2,8,4.2h25.4V309.2z M175.1,497
	h-41v-87.1c6.2-6.4,14.4-9.9,23.3-9.9c17.5,0,32,14.2,32.3,31.6c0.1,2.4,1.3,4.7,3.3,6.1c9,6,14.4,16.1,14.4,26.9
	C207.5,482.5,193,497,175.1,497z M422.8,286.8c5.2,1.4,40.7,13.2,46.9,15.4l0,0l4,1.4c2.8,0.9,4.8,3.6,4.9,6.5v38.6
	c0,1.9-0.8,3.7-2.2,5.1c-1.4,1.4-3.4,2.2-5.3,2.2c0,0,0,0,0,0c-4,0-7.2-3.3-7.2-7.4v-24.8c0-0.1,0-0.3,0-0.4c0.3-6.6-4-8.9-5.9-9.6
	c-0.1,0-0.1,0-0.2-0.1l-39.5-12.8c-1.8-0.6-3.2-1.8-4.1-3.6c-0.9-1.8-1-3.8-0.4-5.7C415.2,287.9,419.1,285.8,422.8,286.8z
	 M349.3,160c15.5,6.2,27.8,6.1,37.9,6c6.8-0.1,12.2-0.1,17.2,1.7c29.6,10.5,25.5,41.5,20.8,58.1c-7,0.8-18.4,0.9-24.6-4.2
	c-3.3-2.7-4.9-6.8-4.9-12.5c0-19.1-18.6-21.3-29.7-22.6c-4.3-0.5-10.9-1.3-12.5-2.8c0,0,0,0,0,0C347.5,178.1,346.2,169.7,349.3,160z
	 M348.5,214.2c0-5.2,1-10.3,3-15c4,1.2,8.4,1.7,12.7,2.2c14.2,1.6,16.5,3.3,16.5,7.7c0,13,5.7,20.3,10.6,24.2
	c7.6,6.1,17.5,7.8,25.8,7.9c-3.2,3.8-7,6.7-11.3,8.7c-5.2,2.4-11.2,3.6-17.9,3.6c-4.7,0-9.7-1.2-14.5-3.4
	C360.9,244.5,348.5,231.2,348.5,214.2z M350.9,287.7l18.4-23c6.1,2.5,12.5,3.8,18.6,3.8c6.5,0,12.7-0.9,18.3-2.7l5.4,7.8
	c-5.4,2.5-9.7,7.1-11.8,13c-1.9,5.6-1.5,11.9,1.2,17.3c2.7,5.3,7.2,9.3,12.8,11.1c0,0,0,0,0,0l9,2.9l-7,35.5l-64.9,0.1V287.7z
	 M287.9,497c1-4.2,3.1-7.9,6.2-11.2c5.8-6,13.4-8.5,16.2-8.5h30.2l0,19.7H287.9z M340.3,431.8c0,0,0.1,2.6,0.1,4.1l0.1,26.4h-22.7
	v-53.4h0c0-5.6,2.6-9.7,6.4-14.1c0,0,0,0,0,0l22.6-26.3l65.3-0.1c-6.8,16.8-24.5,26.4-35.8,32.5c-1.7,0.9-25.4,14.2-25.4,14.2
	C341.8,420.3,340,422.8,340.3,431.8z M355.6,497c0,0-0.1-66.6-0.1-67.1l0,0v0v0c0.9-0.6,16.8-9.5,16.8-9.5l10.2,21.1
	c2.3,4.8,5.6,9.6,14.2,12.6l56.6,19.5c-0.6,6.7,0,15.8,2.9,23.4H355.6z M457.6,459.2l-56-19.3c-3.7-1.3-4.5-2.6-5.6-4.9l-10.6-21.9
	c9.8-5.3,24-13.6,33.7-26.7l5,25.9c1,5.4,2.1,10.9,11.1,13.9l31,10.4L457.6,459.2z M474.8,497L474.8,497c-0.5,0-1.5,0-2.8-1.9
	c-4.2-6.1-4.5-19.8-3.2-23l11.7-30.5l15.8,5.8c-0.3,1.1-18.4,49.7-18.4,49.7H474.8z"/>
<path class="st1" d="M74.7,286.2H7.5c-4.1,0-7.5,3.4-7.5,7.5s3.4,7.5,7.5,7.5h67.2"/>
<path class="st1" d="M134.1,301.2h15.5c20.2,0,39-6.2,54.6-18c3.3-2.5,4-7.2,1.5-10.5c-2.5-3.3-7.2-4-10.5-1.5
	c-12.9,9.8-28.7,15-45.6,15h-15.5"/>
<path class="st1" d="M-565.4,69.4c3.7,0.8,7.1,1.1,10.3,1.1c20.1,0,30.5-14.1,33.4-22.7c1.3-3.9-0.8-8.2-4.7-9.5
	c-3.9-1.3-8.2,0.8-9.5,4.7c-0.2,0.7-5.7,16.1-26.4,11.7c-4-0.9-8,1.7-8.9,5.8C-572,64.5-569.4,68.5-565.4,69.4L-565.4,69.4z"/>
<path class="st1" d="M-528.8,127.5c-4-0.9-8,1.7-8.9,5.8c-0.9,4.1,1.7,8,5.8,8.9c3.7,0.8,7.1,1.1,10.3,1.1
	c20.1,0,30.5-14.1,33.5-22.7c1.3-3.9-0.8-8.2-4.7-9.5c-3.9-1.3-8.2,0.8-9.5,4.7C-502.5,116.4-508.1,131.9-528.8,127.5z"/>
<path class="st1" d="M-643,129.7c3.7,0.8,7.1,1.1,10.3,1.1c20.1,0,30.6-14.1,33.5-22.7c1.3-3.9-0.8-8.2-4.7-9.5
	c-3.9-1.3-8.2,0.8-9.5,4.7c-0.2,0.7-5.7,16.1-26.5,11.7c-4-0.9-8,1.7-8.9,5.8C-649.6,124.8-647,128.8-643,129.7z"/>
<path class="st1" d="M-462.7,259.5c1.2,0.7,2.5,1.1,3.8,1.1c2.5,0,5-1.3,6.4-3.6c8.6-14.3,13.4-31.1,14.1-48.5c0-0.1,0-0.2,0-0.3
	c16.8-2.2,31.1-8.9,41.6-19.5c10.1-10.2,16.4-23.9,17.8-38.6c2.8-29.5-13-55.7-38.9-65.3c15.3-16.7,31.8-51.5,1.9-82.4
	c-2.9-3-7.6-3.1-10.6-0.2c-3,2.9-3.1,7.6-0.2,10.6c27.1,28,1.8,57.5-2.7,62.4c-4,3.2-6,7.8-5.5,12.4c0.6,4.4,3.6,8.2,7.8,9.9
	c0.2,0.1,0.5,0.2,0.7,0.2c25,7.1,34.4,31.4,32.5,50.9c-1.9,19.9-16,42.1-49.8,45.1c-9.4,0.9-9.5,8.4-9.5,11.6c0,0.7,0,1.6-0.1,2.6
	c-0.5,14.9-4.7,29.2-12,41.4C-467.4,252.8-466.2,257.4-462.7,259.5L-462.7,259.5z"/>
<path class="st2" d="M-326.8,183.7c1.6,1.5,8.1,2.3,12.5,2.8c11.1,1.3,29.7,3.4,29.7,22.6c0,5.7,1.6,9.8,4.9,12.5
	c6.2,5,17.6,5,24.6,4.2c4.7-16.7,8.8-47.7-20.8-58.1c-5-1.8-10.4-1.7-17.2-1.7c-10.1,0.1-22.4,0.2-37.9-6
	C-334,169.7-332.6,178.1-326.8,183.7C-326.8,183.7-326.8,183.7-326.8,183.7z"/>
<path class="st2" d="M-306.9,250.2c4.8,2.2,9.8,3.4,14.5,3.4c6.7,0,12.8-1.2,17.9-3.6c4.3-2,8.1-4.9,11.3-8.7
	c-8.3-0.1-18.3-1.8-25.8-7.9c-4.8-3.9-10.6-11.2-10.6-24.2c0-4.4-2.3-6-16.5-7.7c-4.3-0.5-8.7-1-12.7-2.2c-1.9,4.7-3,9.8-3,15
	C-331.7,231.2-319.2,244.5-306.9,250.2z"/>
<path class="st2" d="M-257.4,318l-9-2.9c0,0,0,0,0,0c-5.6-1.8-10.2-5.8-12.8-11.1c-2.7-5.3-3.1-11.6-1.2-17.3c2-6,6.4-10.5,11.8-13
	l-5.4-7.8c-5.6,1.8-11.7,2.7-18.3,2.7c-6.1,0-12.5-1.3-18.6-3.8l-18.4,23v65.9l64.9-0.1L-257.4,318z"/>
<path class="st2" d="M-266.2,291.5c-0.6,1.9-0.5,3.9,0.4,5.7c0.9,1.7,2.3,3,4.1,3.6l39.5,12.8c0.1,0,0.1,0,0.2,0.1
	c1.9,0.7,6.3,3,5.9,9.6c0,0.1,0,0.3,0,0.4v24.8c0,4.1,3.2,7.4,7.2,7.4c0,0,0,0,0,0c2,0,3.9-0.8,5.3-2.2c1.4-1.4,2.2-3.2,2.2-5.1V310
	c-0.2-2.9-2.2-5.6-4.9-6.5l-4-1.4l0,0c-6.2-2.1-41.7-14-46.9-15.4C-261.1,285.8-265,287.9-266.2,291.5z"/>
<path class="st2" d="M-377.7,288.4l-14.6-21.2c-2.2-3.2-5-4.7-8.2-4.4c-3.2,0.3-6.3,2.3-7.6,5.1c-1.1,2.4-0.7,5.1,1.3,7.9l21.2,30
	c0.6,0.9,1.9,2.7,2.6,3.4c0.8,0.1,2.6,0.1,4.3,0.1v0h34.4v-16.6h-25.4C-372.3,292.6-375.2,292.1-377.7,288.4z"/>
<path class="st2" d="M-487.1,437.7c-2-1.4-3.3-3.6-3.3-6.1c-0.4-17.4-14.9-31.6-32.3-31.6c-8.9,0-17.1,3.5-23.3,9.9V497h41
	c17.8,0,32.4-14.5,32.4-32.4C-472.7,453.8-478.1,443.8-487.1,437.7z"/>
<path class="st2" d="M-369.8,477.3c-2.8,0-10.5,2.5-16.2,8.5c-3.1,3.3-5.2,7-6.2,11.2h52.7l0-19.7H-369.8z"/>
<path class="st2" d="M-226.8,473.6l-56.6-19.5c-8.6-3-11.9-7.8-14.2-12.6l-10.2-21.1c0,0-15.9,8.9-16.8,9.5c0,0.5,0.1,67.1,0.1,67.1
	h100.7C-226.8,489.3-227.4,480.2-226.8,473.6z"/>
<path class="st2" d="M-268,368.5l-65.3,0.1l-22.6,26.3c0,0,0,0,0,0c-3.8,4.4-6.4,8.5-6.4,14.1h0v53.4h22.7l-0.1-26.4
	c0-1.5-0.1-4.1-0.1-4.1c-0.3-9.1,1.5-11.6,10.6-16.7c0,0,23.8-13.3,25.4-14.2C-292.6,394.9-274.8,385.3-268,368.5z"/>
<path class="st2" d="M-199.7,441.5l-11.7,30.5c-1.2,3.2-1,16.9,3.2,23c1.3,1.9,2.3,1.9,2.8,1.9v0h3.1c0,0,18.1-48.5,18.4-49.7
	L-199.7,441.5z"/>
<path class="st2" d="M-256,412.3l-5-25.9c-9.7,13.2-23.9,21.4-33.7,26.7l10.6,21.9c1.1,2.3,1.9,3.6,5.6,4.9l56,19.3l8.7-22.6
	l-31-10.4C-253.9,423.2-255,417.7-256,412.3z"/>
<polygon points="-324.7,429.9 -324.7,429.9 -324.7,429.9 "/>
<path class="st0" d="M-175.7,497L-175.7,497l-10.6,0c0,0,14.9-40,15.1-40.6c1.9-4.8,4-10.3,1.5-15.8c-1.5-3.2-4.2-5.6-8.2-7.1
	c0,0-62.8-21.8-63-21.8c-0.2-0.6-9.8-50.7-9.8-50.7l7.6-38.3l11.8,3.8v22c0,12.3,9.9,22.4,22.2,22.4h0.1c5.9,0,11.7-2.4,15.9-6.6
	c4.2-4.2,6.6-9.8,6.6-15.7v-38.7c0-0.1,0-0.2,0-0.3c-0.3-9.2-6.4-17.3-15.1-20.2l-4-1.4c-6.2-2.1-39.6-13.3-45.2-14.9l-9.7-14
	c7.8-5.6,13.9-13.5,18.2-23.7c0.1-0.1,0.1-0.3,0.2-0.4c0-0.1,0-0.1,0.1-0.2c0,0,0-0.1,0-0.1c0,0,0,0,0-0.1c6.1-18.7,7-35.9,2.6-49.7
	c-4.8-15-15.7-25.9-31.4-31.4c-7.5-2.6-14.7-2.6-22.3-2.5c-11.1,0.1-22.6,0.2-38.4-7.7c-3.7-1.8-8.2-0.4-10,3.3
	c-8.2,16.2-7.9,32,0.4,43.5c-3.7,7.4-5.6,15.7-5.6,24.1c0,16.5,8.7,32.6,22.6,43.1l-16.3,20.3h-26.5l-13-18.9
	c-5.3-7.6-13.2-11.6-21.8-10.9c-8.6,0.7-16.4,6.1-19.9,13.7c-3.4,7.3-2.5,15.7,2.6,22.9l21.3,30.1c6.1,8.5,8.6,9.7,19.1,9.7h34.4
	v34.1l-23,26.7c-4.7,5.4-10,13-10,23.9v54.6c-6.3,1.8-13.6,5.7-19.6,11.9c-5.8,6.1-9.4,13.4-10.6,21.6h-63
	c7.9-8.5,12.8-19.9,12.8-32.4c0-14.6-6.7-28.2-18-37.1c-2.5-23.8-22.8-42.5-47.1-42.5c-8.3,0-16.3,2.1-23.3,6.1V340h0v-75.3h0v-24.2
	l18.8-18.9c5.4-5.3,8.3-12.5,8.3-20.1s-2.9-14.7-8.3-20c-5.3-5.4-12.5-8.3-20.1-8.3s-14.7,3-20.1,8.3l-8.4,8.4l-8.4-8.4
	c-5.4-5.4-12.5-8.3-20.1-8.3c0,0,0,0,0,0c-7.6,0-14.7,3-20,8.3c-5.4,5.3-8.3,12.5-8.3,20.1c0,7.6,3,14.7,8.3,20.1l18.8,18.9v30v15.8
	v55.2h0v38.3c0,4.1,3.4,7.5,7.5,7.5c4.1,0,7.5-3.4,7.5-7.5V237.4c0-2-0.8-3.9-2.2-5.3l-21-21.1c-2.5-2.5-3.9-5.9-3.9-9.4
	c0-3.6,1.4-6.9,3.9-9.5c2.5-2.5,5.9-3.9,9.4-3.9h0c3.6,0,7,1.4,9.5,3.9l13.7,13.7c2.9,2.9,7.7,2.9,10.6,0l13.7-13.7
	c2.5-2.5,5.9-3.9,9.4-3.9c3.6,0,6.9,1.4,9.5,3.9c2.5,2.5,3.9,5.9,3.9,9.4c0,3.6-1.4,6.9-3.9,9.5l-21,21.1c-1.4,1.4-2.2,3.3-2.2,5.3
	V497h-29.4v-82.6c0-4.1-3.4-7.5-7.5-7.5c-4.1,0-7.5,3.4-7.5,7.5V497h-55.6c-4.1,0-7.5,3.4-7.5,7.5s3.4,7.5,7.5,7.5h485.4
	c4.1,0,7.5-3.4,7.5-7.5S-171.5,497-175.7,497z M-344.3,309.2h-34.4v0c-1.6,0-3.5,0-4.3-0.1c-0.7-0.7-2-2.5-2.6-3.4l-21.2-30
	c-2-2.8-2.4-5.5-1.3-7.9c1.3-2.7,4.4-4.8,7.6-5.1c3.2-0.3,6,1.3,8.2,4.4l14.6,21.2c2.5,3.7,5.4,4.2,8,4.2h25.4V309.2z M-505.1,497
	h-41v-87.1c6.2-6.4,14.4-9.9,23.3-9.9c17.5,0,32,14.2,32.3,31.6c0.1,2.4,1.3,4.7,3.3,6.1c9,6,14.4,16.1,14.4,26.9
	C-472.7,482.5-487.2,497-505.1,497z M-257.4,286.8c5.2,1.4,40.7,13.2,46.9,15.4l0,0l4,1.4c2.8,0.9,4.8,3.6,4.9,6.5v38.6
	c0,1.9-0.8,3.7-2.2,5.1c-1.4,1.4-3.4,2.2-5.3,2.2c0,0,0,0,0,0c-4,0-7.2-3.3-7.2-7.4v-24.8c0-0.1,0-0.3,0-0.4c0.3-6.6-4-8.9-5.9-9.6
	c-0.1,0-0.1,0-0.2-0.1l-39.5-12.8c-1.8-0.6-3.2-1.8-4.1-3.6c-0.9-1.8-1-3.8-0.4-5.7C-265,287.9-261.1,285.8-257.4,286.8z
	 M-330.9,160c15.5,6.2,27.8,6.1,37.9,6c6.8-0.1,12.2-0.1,17.2,1.7c29.6,10.5,25.5,41.5,20.8,58.1c-7,0.8-18.4,0.9-24.6-4.2
	c-3.3-2.7-4.9-6.8-4.9-12.5c0-19.1-18.6-21.3-29.7-22.6c-4.3-0.5-10.9-1.3-12.5-2.8c0,0,0,0,0,0C-332.6,178.1-334,169.7-330.9,160z
	 M-331.7,214.2c0-5.2,1-10.3,3-15c4,1.2,8.4,1.7,12.7,2.2c14.2,1.6,16.5,3.3,16.5,7.7c0,13,5.7,20.3,10.6,24.2
	c7.6,6.1,17.5,7.8,25.8,7.9c-3.2,3.8-7,6.7-11.3,8.7c-5.2,2.4-11.2,3.6-17.9,3.6c-4.7,0-9.7-1.2-14.5-3.4
	C-319.2,244.5-331.7,231.2-331.7,214.2z M-329.3,287.7l18.4-23c6.1,2.5,12.5,3.8,18.6,3.8c6.5,0,12.7-0.9,18.3-2.7l5.4,7.8
	c-5.4,2.5-9.7,7.1-11.8,13c-1.9,5.6-1.5,11.9,1.2,17.3c2.7,5.3,7.2,9.3,12.8,11.1c0,0,0,0,0,0l9,2.9l-7,35.5l-64.9,0.1V287.7z
	 M-392.3,497c1-4.2,3.1-7.9,6.2-11.2c5.8-6,13.4-8.5,16.2-8.5h30.2l0,19.7H-392.3z M-339.9,431.8c0,0,0.1,2.6,0.1,4.1l0.1,26.4
	h-22.7v-53.4h0c0-5.6,2.6-9.7,6.4-14.1c0,0,0,0,0,0l22.6-26.3l65.3-0.1c-6.8,16.8-24.5,26.4-35.8,32.5c-1.7,0.9-25.4,14.2-25.4,14.2
	C-338.3,420.3-340.1,422.8-339.9,431.8z M-324.6,497c0,0-0.1-66.6-0.1-67.1l0,0v0v0c0.9-0.6,16.8-9.5,16.8-9.5l10.2,21.1
	c2.3,4.8,5.6,9.6,14.2,12.6l56.6,19.5c-0.6,6.7,0,15.8,2.9,23.4H-324.6z M-222.6,459.2l-56-19.3c-3.7-1.3-4.5-2.6-5.6-4.9
	l-10.6-21.9c9.8-5.3,24-13.6,33.7-26.7l5,25.9c1,5.4,2.1,10.9,11.1,13.9l31,10.4L-222.6,459.2z M-205.4,497L-205.4,497
	c-0.5,0-1.5,0-2.8-1.9c-4.2-6.1-4.5-19.8-3.2-23l11.7-30.5l15.8,5.8c-0.3,1.1-18.4,49.7-18.4,49.7H-205.4z"/>
<path class="st1" d="M-605.5,286.2h-67.2c-4.1,0-7.5,3.4-7.5,7.5s3.4,7.5,7.5,7.5h67.2v40.2h0V286.2z"/>
<path class="st1" d="M-546.1,340L-546.1,340l0-38.8h15.5c20.2,0,39-6.2,54.6-18c3.3-2.5,4-7.2,1.5-10.5c-2.5-3.3-7.2-4-10.5-1.5
	c-12.9,9.8-28.7,15-45.6,15h-15.5v-21.5h0V340z"/>
</svg>
