<?xml version="1.0" encoding="utf-8"?>
<!-- Generator: Adobe Illustrator 26.2.1, SVG Export Plug-In . SVG Version: 6.00 Build 0)  -->
<svg version="1.1" id="Layer_1" xmlns="http://www.w3.org/2000/svg" xmlns:xlink="http://www.w3.org/1999/xlink" x="0px" y="0px"
	 viewBox="0 0 512 512" style="enable-background:new 0 0 512 512;" xml:space="preserve">
<style type="text/css">
	.st0{fill:#0F2132;}
	.st1{fill:#FFFFFF;}
	.st2{fill:#E4540E;}
</style>
<rect x="600.5" class="st0" width="512" height="512"/>
<path class="st1" d="M1108.6,262.4c14.7-57.9-13.7-108.1-72.4-145.7C985.6,84.5,914,67.5,843.9,70V40.7c-2.1-54-79.5-54-81.5,0
	c0,0,0,40.4,0,40.4c-8.1,2-16.1,4.3-23.8,6.9V69.7c-2.1-54-79.5-54-81.5,0c0,0,0,60.9,0,60.9c-45.2,36.1-65.6,81.7-52.6,131.8
	c-5.2,18.8-5.2,38.7-0.1,57.4c-13.5,52.7,10,99.9,59.9,136.8c3.7,2.4,7.2,1.8,10.5-1.7c2.4-3.4,1.7-8-1.7-10.5
	c-31.4-22.8-58.1-57-57.5-97.5c87.5,144.3,394.5,144.4,482,0c0.7,45.8-32.6,82.5-69.3,105.5c-84.4,55.2-232.5,58.8-323.5,11.2
	c-8.9-4.1-15.5,8.5-6.7,13.4c95.5,50.1,249.5,45.9,338.2-11.9c58.5-37.6,86.9-87.6,72.5-145.3
	C1113.8,301.1,1113.8,281.2,1108.6,262.4z M777.4,40.7c1.3-34.1,50.3-34.1,51.5,0v30c-17.6,1.2-34.9,3.5-51.5,7V40.7z M738.5,103.8
	c27.7-9.7,58.3-15.9,90.3-18.1v20.1c-32.8,2.6-63.7,9.7-90.3,20.8V103.8z M738.5,143c26.1-11.8,57.1-19.4,90.3-22.1v10.7l-90.3,24.9
	V143z M738.5,172l90.3-24.9v16.8l-90.3,24.9V172z M672,69.7c1.3-34.1,50.3-34.1,51.5,0v23.7c-18,7-35.4,15.7-51.5,26.4V69.7z
	 M1028.2,395.3c-89.8,59.1-253.7,59.1-343.5,0c-36.7-23.1-70.2-60.1-69.2-106c87.5,144.3,394.4,144.3,481.9,0
	C1098.4,335.2,1065,372.2,1028.2,395.3z M1028.2,337.6c-89.8,59-253.7,59.1-343.5,0c-83.9-50.8-93.7-139.1-16.1-197.1h0
	c17.7-12,35-22.8,54.8-31v24.1c-39.8,19.5-67.9,53-66.9,86c5,83.4,119.5,114.8,199.9,114.8c52.6,0,102.2-11.5,139.7-32.4
	c86.5-47,76.8-131.1-13.1-171.5c-9.2-3.9-15.2,9.1-6.3,13.6c78.7,35.7,88,103.3,12.1,144.8c-35.2,19.6-82.2,30.5-132.4,30.5
	c-50.1,0-97.1-10.8-132.4-30.5c-69.3-37.4-69.7-100.6-0.6-138.3v65.2c0,4.1,3.4,7.5,7.5,7.5c4.1,0,7.5-3.4,7.5-7.5v-11.5l90.3-24.9
	v9.3c0,4.1,3.4,7.5,7.5,7.5c4.1,0,7.5-3.4,7.5-7.5V120c33.2-1.3,67.5,2.5,97.4,11c4,1.1,8.1-1.2,9.3-5.2c1.1-4-1.2-8.1-5.2-9.3
	c-31.2-8.9-66.8-12.8-101.4-11.6V85c102.5-4.1,247.8,40.4,253.6,148.5C1097.5,272.6,1072.9,309.5,1028.2,337.6z"/>
<path class="st2" d="M953.6,274.3c-5.4,0-7.7-1.4-11.2-3.6c-12.1-7.6-26.2-7.6-38.3,0c-3.5,2.2-5.7,3.6-11.2,3.6
	c-5.4,0-7.7-1.4-11.2-3.6c-12.1-7.6-26.2-7.6-38.3,0c-3.5,2.2-5.7,3.6-11.2,3.6c-9.9,0.3-10,14.6,0,15c9.7,0,14.9-3.3,19.1-5.9
	c4.9-3,17.5-3,22.3,0c4.2,2.6,9.4,5.9,19.1,5.9c9.7,0,14.9-3.3,19.1-5.9c4.9-3,17.5-3,22.3,0c4.2,2.6,9.4,5.9,19.1,5.9
	C963.5,288.9,963.6,274.6,953.6,274.3z"/>
<path class="st2" d="M833.1,226.8c-3.5,2.2-5.7,3.6-11.2,3.6c-5.4,0-7.7-1.4-11.2-3.6c-12.1-7.6-26.2-7.6-38.3,0
	c-3.5,2.2-5.7,3.6-11.2,3.6c-9.9,0.3-9.9,14.7,0,15c9.7,0,14.9-3.3,19.1-5.9c4.9-3,17.5-3,22.3,0c10.8,7.9,27.5,7.8,38.3,0
	c4.9-3,17.5-3,22.3,0c4.2,2.6,9.4,5.9,19.1,5.9c9.9-0.3,9.9-14.7,0-15c-5.4,0-7.7-1.4-11.2-3.6C859.3,219.3,845.2,219.3,833.1,226.8
	z"/>
<path class="st2" d="M946.3,189.7c-3.5,2.2-5.7,3.6-11.2,3.6c-5.4,0-7.7-1.4-11.2-3.6c-12.1-7.6-26.2-7.6-38.3,0
	c-3.5,2.2-5.7,3.6-11.2,3.6c-9.9,0.3-9.9,14.7,0,15c9.7,0,14.9-3.3,19.1-5.9c4.9-3,17.5-3,22.3,0c10.8,7.9,27.5,7.8,38.3,0
	c4.9-3,17.5-3,22.3,0c4.2,2.6,9.4,5.9,19.1,5.9c9.9-0.3,9.9-14.7,0-15c-5.4,0-7.7-1.4-11.2-3.6C972.5,182.2,958.4,182.1,946.3,189.7
	z"/>
<path class="st0" d="M508.1,262.4c14.7-57.9-13.7-108.1-72.4-145.7C385.1,84.5,313.5,67.5,243.4,70V40.7c-2.1-54-79.5-54-81.5,0
	c0,0,0,40.4,0,40.4c-8.1,2-16.1,4.3-23.8,6.9V69.7c-2.1-54-79.5-54-81.5,0c0,0,0,60.9,0,60.9C11.3,166.7-9.1,212.4,3.9,262.4
	c-5.2,18.8-5.2,38.7-0.1,57.4c-13.5,52.7,10,99.9,59.9,136.8c3.7,2.4,7.2,1.8,10.5-1.7c2.4-3.4,1.7-8-1.7-10.5
	c-31.4-22.8-58.1-57-57.5-97.5c87.5,144.3,394.5,144.4,482,0c0.7,45.8-32.6,82.5-69.3,105.5c-84.4,55.2-232.5,58.8-323.5,11.2
	c-8.9-4.1-15.5,8.5-6.7,13.4c95.5,50.1,249.5,45.9,338.2-11.9c58.5-37.6,86.9-87.6,72.5-145.3C513.3,301.1,513.3,281.2,508.1,262.4z
	 M176.8,40.7c1.3-34.1,50.3-34.1,51.5,0v30c-17.6,1.2-34.9,3.5-51.5,7V40.7z M138,103.8c27.7-9.7,58.3-15.9,90.3-18.1v20.1
	c-32.8,2.6-63.7,9.7-90.3,20.8V103.8z M138,143c26.1-11.8,57.1-19.4,90.3-22.1v10.7L138,156.5V143z M138,172l90.3-24.9v16.8
	L138,188.8V172z M71.5,69.7c1.3-34.1,50.3-34.1,51.5,0v23.7c-18,7-35.4,15.7-51.5,26.4V69.7z M427.7,395.3
	c-89.8,59.1-253.7,59.1-343.5,0c-36.7-23.1-70.2-60.1-69.2-106c87.5,144.3,394.4,144.3,481.9,0C497.9,335.2,464.5,372.2,427.7,395.3
	z M427.7,337.6c-89.8,59-253.7,59.1-343.5,0C0.4,286.8-9.4,198.5,68.2,140.5h0c17.7-12,35-22.8,54.8-31v24.1
	c-39.8,19.5-67.9,53-66.9,86c5,83.4,119.5,114.8,199.9,114.8c52.6,0,102.2-11.5,139.7-32.4c86.5-47,76.8-131.1-13.1-171.5
	c-9.2-3.9-15.2,9.1-6.3,13.6c78.7,35.7,88,103.3,12.1,144.8c-35.2,19.6-82.2,30.5-132.4,30.5c-50.1,0-97.1-10.8-132.4-30.5
	c-69.3-37.4-69.7-100.6-0.6-138.3v65.2c0,4.1,3.4,7.5,7.5,7.5c4.1,0,7.5-3.4,7.5-7.5v-11.5l90.3-24.9v9.3c0,4.1,3.4,7.5,7.5,7.5
	c4.1,0,7.5-3.4,7.5-7.5V120c33.2-1.3,67.5,2.5,97.4,11c4,1.1,8.1-1.2,9.3-5.2c1.1-4-1.2-8.1-5.2-9.3c-31.2-8.9-66.8-12.8-101.4-11.6
	V85c102.5-4.1,247.8,40.4,253.6,148.5C497,272.6,472.4,309.5,427.7,337.6z"/>
<path class="st2" d="M353.1,274.3c-5.4,0-7.7-1.4-11.2-3.6c-12.1-7.6-26.2-7.6-38.3,0c-3.5,2.2-5.7,3.6-11.2,3.6
	c-5.4,0-7.7-1.4-11.2-3.6c-12.1-7.6-26.2-7.6-38.3,0c-3.5,2.2-5.7,3.6-11.2,3.6c-9.9,0.3-10,14.6,0,15c9.7,0,14.9-3.3,19.1-5.9
	c4.9-3,17.5-3,22.3,0c4.2,2.6,9.4,5.9,19.1,5.9c9.7,0,14.9-3.3,19.1-5.9c4.9-3,17.5-3,22.3,0c4.2,2.6,9.4,5.9,19.1,5.9
	C363,288.9,363.1,274.6,353.1,274.3z"/>
<path class="st2" d="M232.6,226.8c-3.5,2.2-5.7,3.6-11.2,3.6c-5.4,0-7.7-1.4-11.2-3.6c-12.1-7.6-26.2-7.6-38.3,0
	c-3.5,2.2-5.7,3.6-11.2,3.6c-9.9,0.3-9.9,14.7,0,15c9.7,0,14.9-3.3,19.1-5.9c4.9-3,17.5-3,22.3,0c10.8,7.9,27.5,7.8,38.3,0
	c4.9-3,17.5-3,22.3,0c4.2,2.6,9.4,5.9,19.1,5.9c9.9-0.3,9.9-14.7,0-15c-5.4,0-7.7-1.4-11.2-3.6C258.8,219.3,244.7,219.3,232.6,226.8
	z"/>
<path class="st2" d="M345.8,189.7c-3.5,2.2-5.7,3.6-11.2,3.6c-5.4,0-7.7-1.4-11.2-3.6c-12.1-7.6-26.2-7.6-38.3,0
	c-3.5,2.2-5.7,3.6-11.2,3.6c-9.9,0.3-9.9,14.7,0,15c9.7,0,14.9-3.3,19.1-5.9c4.9-3,17.5-3,22.3,0c10.8,7.9,27.5,7.8,38.3,0
	c4.9-3,17.5-3,22.3,0c4.2,2.6,9.4,5.9,19.1,5.9c9.9-0.3,9.9-14.7,0-15c-5.4,0-7.7-1.4-11.2-3.6C372,182.2,357.9,182.1,345.8,189.7z"
	/>
</svg>
