<?xml version="1.0" encoding="utf-8"?>
<!-- Generator: Adobe Illustrator 26.2.1, SVG Export Plug-In . SVG Version: 6.00 Build 0)  -->
<svg version="1.1" id="Layer_1" xmlns="http://www.w3.org/2000/svg" xmlns:xlink="http://www.w3.org/1999/xlink" x="0px" y="0px"
	 viewBox="0 0 512 512" style="enable-background:new 0 0 512 512;" xml:space="preserve">
<style type="text/css">
	.st0{fill:#0F2132;}
	.st1{fill:#FFFFFF;}
	.st2{fill:#E4540E;}
</style>
<rect x="0" y="0" class="st0" width="512" height="512"/>
<path id="Shape" class="st1" d="M503.5,443.7c-9.6,0-18.8-3.9-25.5-10.8c-20.3-19.7-52.5-19.7-72.7,0c-6.6,7-15.9,10.9-25.5,10.8
	c-1.6,0-3.1-0.1-4.7-0.3c12.7-9.1,19.3-24.6,17-40.1c-2.3-15.5-13-28.4-27.7-33.5l15-16.4l52.1,40.4c14.9,11.1,36,8.2,47.4-6.5
	c11.4-14.7,8.9-35.8-5.6-47.5l-76.8-59.7c-14.1-10.8-34-9.1-46.1,3.9l-72.5,79.1l-56-50.3l15.7-15.7c6.4-6.4,10-15.1,10-24.1v-58.3
	c0.4-18.6-13.9-34.2-32.4-35.5c-9.3-0.5-18.5,2.9-25.2,9.4s-10.6,15.4-10.6,24.7v42.1c0,2.3-0.9,4.4-2.5,6l-6.1,6.1
	c-0.7-30.3-25.5-54.5-55.9-54.3c-30.3,0.2-54.8,24.7-55.1,55.1s23.9,55.2,54.3,55.9l-6.1,6.1c-1.6,1.6-3.8,2.5-6,2.5H61.1
	c-18.6-0.4-34.2,13.8-35.5,32.4c-0.5,9.3,2.9,18.5,9.3,25.3s15.4,10.6,24.8,10.6h59.7c0.3,0,0.6-0.1,0.9-0.1
	c-3.4,16.2,3,32.9,16.5,42.5c-1.5,0.2-3,0.3-4.5,0.2c-9.6,0-18.8-3.9-25.5-10.8c-20.3-19.7-52.5-19.7-72.8,0
	c-6.7,7-15.9,10.9-25.5,10.8c-4.7,0-8.5,3.8-8.5,8.5s3.8,8.5,8.5,8.5c13.6,0,26.7-5.3,36.4-14.8c6.7-6.9,15.9-10.8,25.5-10.8
	s18.8,3.9,25.5,10.8c9.7,9.5,22.8,14.8,36.4,14.8c11.3,0.2,22.3-3.5,31.1-10.6l0.1-0.1c1.8-1.4,3.5-2.7,5.1-4.1
	c6.7-6.9,15.9-10.8,25.5-10.8s18.8,3.9,25.5,10.8c20.3,19.7,52.5,19.7,72.7,0c6.7-6.9,15.9-10.8,25.5-10.8c9.6,0,18.8,3.9,25.5,10.8
	c1.5,1.2,3,2.5,4.6,3.7c0.1,0.1,0.2,0.2,0.3,0.2c8.9,7.2,20,11,31.4,10.8c13.6,0,26.6-5.3,36.4-14.8c6.7-6.9,15.9-10.8,25.5-10.8
	s18.8,3.9,25.5,10.8c9.7,9.5,22.8,14.8,36.4,14.8c4.7,0,8.5-3.8,8.5-8.5S508.2,443.7,503.5,443.7L503.5,443.7z M362.9,295.7
	c6-6.5,16-7.3,23-1.9l76.8,59.7c7.5,5.8,8.8,16.5,3,24c-5.8,7.5-16.5,8.8-24,3l-58.2-45.2c-3.5-2.7-8.5-2.3-11.5,1l-28.2,30.8h-46.4
	L362.9,295.7z M115.2,307.2c-18.4,0.1-34.3-12.7-38.1-30.7c-3.8-18,5.6-36.1,22.5-43.4c16.9-7.3,36.5-1.7,47,13.3
	c10.5,15.1,9,35.4-3.7,48.8l-1.4,1.4C134.5,303.4,125,307.2,115.2,307.2z M59.7,384c-4.7,0-9.2-1.9-12.4-5.3
	c-3.2-3.4-4.9-8-4.7-12.6c1-9.4,9-16.5,18.5-16.2h40.7c6.8,0,13.3-2.7,18.1-7.5l33.2-33.2c0.9-0.8,1.7-1.7,2.6-2.6l33.2-33.2
	c4.8-4.8,7.5-11.3,7.5-18.1v-42.1c0-4.7,1.9-9.2,5.3-12.4c3.4-3.2,8-4.9,12.7-4.7c9.4,1,16.4,9,16.2,18.5v58.3c0,4.5-1.8,8.9-5,12.1
	l-22,22c-1.7,1.7-2.6,3.9-2.5,6.3s1.1,4.6,2.8,6.1l52.7,47.4h-88.9c3-3.5,2.7-8.7-0.7-11.8s-8.6-2.9-11.8,0.4L131.5,379
	c-3.2,3.2-7.5,5-12,5L59.7,384z M317.9,418.1c-13.6,0-26.6,5.3-36.3,14.8c-6.7,6.9-15.9,10.8-25.5,10.8s-18.8-3.9-25.5-10.8
	c-20.3-19.7-52.5-19.7-72.8,0l-1.6,1.3c-11.4-2.8-19.5-12.9-19.7-24.6c0-6.8,2.8-13.3,7.7-18c5.1-4.9,12-7.7,19.1-7.6h185.3
	c14.5-0.3,26.4,11.1,26.8,25.6c-0.3,11.7-8.3,21.7-19.6,24.6l-1.6-1.3C344.6,423.4,331.5,418.1,317.9,418.1z"/>
<path id="Shape_00000183229713746450969260000004356520639218411401_" class="st1" d="M503.5,494.9c-9.6,0-18.8-3.9-25.5-10.8
	c-20.3-19.7-52.5-19.7-72.7,0c-6.7,6.9-15.9,10.8-25.5,10.8c-9.6,0-18.8-3.9-25.5-10.8c-20.3-19.7-52.5-19.7-72.7,0
	c-6.7,6.9-15.9,10.8-25.5,10.8s-18.8-3.9-25.5-10.8c-20.3-19.7-52.5-19.7-72.8,0c-6.7,6.9-15.9,10.8-25.5,10.8s-18.8-3.9-25.5-10.8
	c-20.3-19.7-52.5-19.7-72.8,0c-6.7,7-15.9,10.9-25.5,10.8c-4.7,0-8.5,3.8-8.5,8.5c0,4.7,3.8,8.5,8.5,8.5c13.6,0,26.7-5.3,36.4-14.8
	c6.7-6.9,15.9-10.8,25.5-10.8s18.8,3.9,25.5,10.8c20.3,19.7,52.5,19.7,72.8,0c6.7-6.9,15.9-10.8,25.5-10.8s18.8,3.9,25.5,10.8
	c20.3,19.7,52.5,19.7,72.7,0c6.7-6.9,15.9-10.8,25.5-10.8c9.6,0,18.8,3.9,25.5,10.8c20.3,19.7,52.5,19.7,72.7,0
	c6.7-6.9,15.9-10.8,25.5-10.8c9.6,0,18.8,3.9,25.5,10.8c9.7,9.5,22.8,14.8,36.4,14.8c4.7,0,8.5-3.8,8.5-8.5
	C512,498.8,508.2,494.9,503.5,494.9L503.5,494.9z"/>
<path id="Shape_00000069373768312490901430000005119880052101168794_" class="st2" d="M456.3,88.1c-10.9-26.3-38.9-41.3-66.8-35.7
	s-48.1,30.1-48.1,58.6s20.1,53,48.1,58.6c28,5.6,55.9-9.4,66.8-35.7C462.4,119.2,462.4,102.7,456.3,88.1z M440.5,127.3
	c-7.8,18.8-27.8,29.5-47.7,25.5c-20-4-34.3-21.5-34.3-41.8s14.4-37.9,34.3-41.8s40,6.7,47.7,25.5
	C444.9,105.1,444.9,116.8,440.5,127.3z"/>
<path id="Shape_00000069359761746226176790000004389351368725806523_" class="st2" d="M358.6,8.4c-2.1,0.9-3.8,2.5-4.6,4.6
	s-0.9,4.5,0,6.5l6.5,15.8c1.8,4.4,6.8,6.4,11.2,4.6c4.4-1.8,6.4-6.8,4.6-11.2l-6.5-15.8c-0.9-2.1-2.5-3.8-4.6-4.6
	C363.1,7.6,360.7,7.6,358.6,8.4L358.6,8.4z"/>
<path id="Shape_00000183940274872271709370000013631872611573606273_" class="st2" d="M430.5,181.9c-4.4,1.8-6.4,6.8-4.6,11.1
	l6.5,15.8c1.8,4.4,6.8,6.4,11.1,4.6s6.4-6.8,4.6-11.1l-6.5-15.8c-0.9-2.1-2.5-3.8-4.6-4.6C434.9,181,432.5,181,430.5,181.9
	L430.5,181.9z"/>
<path id="Shape_00000124147687159882516270000010304837804839819704_" class="st2" d="M479.9,86.8c1.1,0,2.2-0.2,3.3-0.7l15.8-6.5
	c4.4-1.8,6.4-6.8,4.6-11.2c-1.8-4.4-6.8-6.4-11.2-4.6l-15.8,6.5c-3.8,1.6-5.9,5.6-5.1,9.6C472.3,83.9,475.8,86.8,479.9,86.8
	L479.9,86.8z"/>
<path id="Shape_00000029758749520996316150000002035855132501806003_" class="st2" d="M319,135.7l-15.8,6.5
	c-4.4,1.8-6.4,6.8-4.6,11.2c1.8,4.4,6.8,6.4,11.2,4.6l15.8-6.5c2.9-1.1,4.9-3.7,5.4-6.8c0.4-3.1-0.8-6.1-3.3-8
	C325.1,134.8,321.8,134.4,319,135.7L319,135.7z"/>
<path id="Shape_00000176750353008079469440000004436732351818305711_" class="st2" d="M476.6,151.5l15.8,6.5
	c4.4,1.8,9.3-0.3,11.2-4.6c1.8-4.4-0.3-9.3-4.6-11.2l-15.8-6.6c-2.8-1.2-6.1-0.9-8.6,1c-2.5,1.9-3.7,4.9-3.3,8
	C471.7,147.7,473.8,150.3,476.6,151.5L476.6,151.5z"/>
<path id="Shape_00000093892510217915375690000005068092274620795555_" class="st2" d="M325.5,70.4l-15.7-6.5
	c-4.4-1.8-9.3,0.3-11.2,4.6c-1.8,4.4,0.3,9.3,4.6,11.2l15.8,6.5c2.8,1.2,6.1,0.9,8.6-1c2.5-1.9,3.7-4.9,3.3-8
	C330.5,74.1,328.4,71.5,325.5,70.4L325.5,70.4z"/>
<path id="Shape_00000067919882525695140010000007225471877600032940_" class="st2" d="M433.7,40.6c3.5,0,6.6-2.1,7.9-5.3l6.5-15.7
	c1.8-4.4-0.3-9.3-4.6-11.1s-9.3,0.3-11.1,4.6l-6.6,15.7c-1.1,2.6-0.8,5.6,0.8,8C428.2,39.2,430.8,40.6,433.7,40.6L433.7,40.6z"/>
<path id="Shape_00000136391478935670755490000006356645036200926875_" class="st2" d="M360.5,186.5l-6.5,15.7
	c-1.2,2.8-0.7,6,1.1,8.5s4.9,3.7,7.9,3.3s5.6-2.4,6.8-5.2l6.5-15.8c1.8-4.4-0.3-9.3-4.6-11.1C367.3,180,362.3,182.1,360.5,186.5
	L360.5,186.5z"/>
<path id="Shape_00000008136580331421113270000005787321775159343798_" class="st2" d="M47.5,136.5h36.1
	c7.3,10.7,19.4,17.1,32.4,17.1h99.6c19.1,0.1,35.4-13.6,38.6-32.4c3.2-18.8-7.7-37.2-25.7-43.4c-2.1-20-18.9-35.2-39-35.1
	c-0.3,0-0.6,0.1-0.9,0.1c-4.8-15.4-16.2-27.8-31.1-33.9s-31.8-5.2-46,2.4C97.9-0.3,78.9-3.2,62.4,3.7S34.6,26.2,33.3,44.1
	C10.9,51-3.1,73.3,0.5,96.5S24.1,136.7,47.5,136.5L47.5,136.5z M211.6,81.7c0,0.7,0,1.3-0.1,2c-0.4,4.5,2.8,8.6,7.3,9.3
	c11.4,1.6,19.7,11.8,18.8,23.3s-10.5,20.4-22,20.3H116c-11.3,0.1-20.9-8.4-22-19.7c-1.1-11.3,6.5-21.6,17.6-23.7
	c3.5-0.7,6.2-3.5,6.7-7c1.6-9.3,7.9-17.1,16.6-20.6c8.7-3.5,18.7-2.3,26.3,3.2c3.6,2.6,8.6,2,11.5-1.4c6-6.9,15.7-9.4,24.4-6.3
	C205.7,64.3,211.5,72.5,211.6,81.7L211.6,81.7z M43.1,59.3c2.2-0.3,4.3-1.5,5.6-3.3c1.4-1.8,1.9-4.1,1.6-6.3
	c-0.1-0.8-0.1-1.6-0.1-2.3C50.4,30.5,64,17,80.7,17.1c8.9,0,17.4,3.9,23.3,10.6c2.9,3.4,7.9,3.9,11.5,1.3c6.4-4.6,14-7.1,21.8-7.1
	c15.7,0,29.8,10,34.9,24.9c-2.5,1.2-4.9,2.7-7.1,4.4c-11.7-5.9-25.4-6.3-37.4-1.1s-21.2,15.3-25,27.8c-15.5,5.6-25.9,20.2-25.9,36.7
	c0.1,1.6,0.2,3.2,0.5,4.9H47.5c-15.9,0.1-29.2-12.1-30.4-28S27.4,61.5,43.1,59.3z"/>
<path id="Shape_00000061445533729564566430000002088799516060266389_" class="st0" d="M-131.8,443.7c-9.6,0-18.8-3.9-25.5-10.8
	c-20.3-19.7-52.5-19.7-72.7,0c-6.6,7-15.9,10.9-25.5,10.8c-1.6,0-3.1-0.1-4.7-0.3c12.7-9.1,19.3-24.6,17-40.1
	c-2.3-15.5-13-28.4-27.7-33.5l15-16.4l52.1,40.4c14.9,11.1,36,8.2,47.4-6.5c11.4-14.7,8.9-35.8-5.6-47.5l-76.8-59.7
	c-14.1-10.8-34-9.1-46.1,3.9l-72.5,79.1l-56-50.3l15.7-15.7c6.4-6.4,10-15.1,10-24.1v-58.3c0.4-18.6-13.9-34.2-32.4-35.5
	c-9.3-0.5-18.5,2.9-25.2,9.4S-456,204-456,213.3v42.1c0,2.3-0.9,4.4-2.5,6l-6.1,6.1c-0.7-30.3-25.5-54.5-55.9-54.3
	c-30.3,0.2-54.8,24.7-55.1,55.1s23.9,55.2,54.3,55.9l-6.1,6.1c-1.6,1.6-3.8,2.5-6,2.5h-40.7c-18.6-0.4-34.2,13.8-35.5,32.4
	c-0.5,9.3,2.9,18.5,9.3,25.3c6.4,6.8,15.4,10.6,24.8,10.6h59.7c0.3,0,0.6-0.1,0.9-0.1c-3.4,16.2,3,32.9,16.5,42.5
	c-1.5,0.2-3,0.3-4.5,0.2c-9.6,0-18.8-3.9-25.5-10.8c-20.3-19.7-52.5-19.7-72.8,0c-6.7,7-15.9,10.9-25.5,10.8c-4.7,0-8.5,3.8-8.5,8.5
	s3.8,8.5,8.5,8.5c13.6,0,26.7-5.3,36.4-14.8c6.7-6.9,15.9-10.8,25.5-10.8s18.8,3.9,25.5,10.8c9.7,9.5,22.8,14.8,36.4,14.8
	c11.3,0.2,22.3-3.5,31.1-10.6l0.1-0.1c1.8-1.4,3.5-2.7,5.1-4.1c6.7-6.9,15.9-10.8,25.5-10.8c9.6,0,18.8,3.9,25.5,10.8
	c20.3,19.7,52.5,19.7,72.7,0c6.7-6.9,15.9-10.8,25.5-10.8s18.8,3.9,25.5,10.8c1.5,1.2,3,2.5,4.6,3.7c0.1,0.1,0.2,0.2,0.3,0.2
	c8.9,7.2,20,11,31.4,10.8c13.6,0,26.6-5.3,36.4-14.8c6.7-6.9,15.9-10.8,25.5-10.8c9.6,0,18.8,3.9,25.5,10.8
	c9.7,9.5,22.8,14.8,36.4,14.8c4.7,0,8.5-3.8,8.5-8.5S-127.1,443.7-131.8,443.7L-131.8,443.7z M-272.4,295.7c6-6.5,16-7.3,23-1.9
	l76.8,59.7c7.5,5.8,8.8,16.5,3,24c-5.8,7.5-16.5,8.8-24,3l-58.2-45.2c-3.5-2.7-8.5-2.3-11.5,1l-28.2,30.8h-46.4L-272.4,295.7z
	 M-520,307.2c-18.4,0.1-34.3-12.7-38.1-30.7c-3.8-18,5.6-36.1,22.5-43.4c16.9-7.3,36.5-1.7,47,13.3c10.5,15.1,9,35.4-3.7,48.8
	l-1.4,1.4C-500.7,303.4-510.2,307.2-520,307.2z M-575.5,384c-4.7,0-9.2-1.9-12.4-5.3c-3.2-3.4-4.9-8-4.7-12.6
	c1-9.4,9-16.5,18.5-16.2h40.7c6.8,0,13.3-2.7,18.1-7.5l33.2-33.2c0.9-0.8,1.7-1.7,2.6-2.6l33.2-33.2c4.8-4.8,7.5-11.3,7.5-18.1
	v-42.1c0-4.7,1.9-9.2,5.3-12.4c3.4-3.2,8-4.9,12.7-4.7c9.4,1,16.4,9,16.2,18.5v58.3c0,4.5-1.8,8.9-5,12.1l-22,22
	c-1.7,1.7-2.6,3.9-2.5,6.3c0.1,2.3,1.1,4.6,2.8,6.1l52.7,47.4h-88.9c3-3.5,2.7-8.7-0.7-11.8c-3.4-3.1-8.6-2.9-11.8,0.4l-23.5,23.5
	c-3.2,3.2-7.5,5-12,5L-575.5,384z M-317.3,418.1c-13.6,0-26.6,5.3-36.3,14.8c-6.7,6.9-15.9,10.8-25.5,10.8s-18.8-3.9-25.5-10.8
	c-20.3-19.7-52.5-19.7-72.8,0l-1.6,1.3c-11.4-2.8-19.5-12.9-19.7-24.6c0-6.8,2.8-13.3,7.7-18c5.1-4.9,12-7.7,19.1-7.6h185.3
	c14.5-0.3,26.4,11.1,26.8,25.6c-0.3,11.7-8.3,21.7-19.6,24.6l-1.6-1.3C-290.7,423.4-303.7,418.1-317.3,418.1z"/>
<path id="Shape_00000059305999071894619330000011620441549728453763_" class="st0" d="M-131.8,494.9c-9.6,0-18.8-3.9-25.5-10.8
	c-20.3-19.7-52.5-19.7-72.7,0c-6.7,6.9-15.9,10.8-25.5,10.8s-18.8-3.9-25.5-10.8c-20.3-19.7-52.5-19.7-72.7,0
	c-6.7,6.9-15.9,10.8-25.5,10.8s-18.8-3.9-25.5-10.8c-20.3-19.7-52.5-19.7-72.8,0c-6.7,6.9-15.9,10.8-25.5,10.8s-18.8-3.9-25.5-10.8
	c-20.3-19.7-52.5-19.7-72.8,0c-6.7,7-15.9,10.9-25.5,10.8c-4.7,0-8.5,3.8-8.5,8.5c0,4.7,3.8,8.5,8.5,8.5c13.6,0,26.7-5.3,36.4-14.8
	c6.7-6.9,15.9-10.8,25.5-10.8s18.8,3.9,25.5,10.8c20.3,19.7,52.5,19.7,72.8,0c6.7-6.9,15.9-10.8,25.5-10.8c9.6,0,18.8,3.9,25.5,10.8
	c20.3,19.7,52.5,19.7,72.7,0c6.7-6.9,15.9-10.8,25.5-10.8c9.6,0,18.8,3.9,25.5,10.8c20.3,19.7,52.5,19.7,72.7,0
	c6.7-6.9,15.9-10.8,25.5-10.8c9.6,0,18.8,3.9,25.5,10.8c9.7,9.5,22.8,14.8,36.4,14.8c4.7,0,8.5-3.8,8.5-8.5
	C-123.2,498.8-127.1,494.9-131.8,494.9L-131.8,494.9z"/>
<path id="Shape_00000170987488648396388790000016139280511144481675_" class="st2" d="M-179,88.1c-10.9-26.3-38.9-41.3-66.8-35.7
	s-48.1,30.1-48.1,58.6s20.1,53,48.1,58.6c28,5.6,55.9-9.4,66.8-35.7C-172.9,119.2-172.9,102.7-179,88.1z M-194.8,127.3
	c-7.8,18.8-27.8,29.5-47.7,25.5c-20-4-34.3-21.5-34.3-41.8s14.4-37.9,34.3-41.8s40,6.7,47.7,25.5
	C-190.4,105.1-190.4,116.8-194.8,127.3z"/>
<path id="Shape_00000083792054401204091670000000048684503462128042_" class="st2" d="M-276.6,8.4c-2.1,0.9-3.8,2.5-4.6,4.6
	s-0.9,4.5,0,6.5l6.5,15.8c1.8,4.4,6.8,6.4,11.2,4.6c4.4-1.8,6.4-6.8,4.6-11.2l-6.5-15.8c-0.9-2.1-2.5-3.8-4.6-4.6
	C-272.2,7.6-274.5,7.6-276.6,8.4L-276.6,8.4z"/>
<path id="Shape_00000155147390279648143390000015812592532462056324_" class="st2" d="M-204.8,181.9c-4.4,1.8-6.4,6.8-4.6,11.1
	l6.5,15.8c1.8,4.4,6.8,6.4,11.1,4.6c4.4-1.8,6.4-6.8,4.6-11.1l-6.5-15.8c-0.9-2.1-2.5-3.8-4.6-4.6C-200.3,181-202.7,181-204.8,181.9
	L-204.8,181.9z"/>
<path id="Shape_00000075846840555654139420000015816911257536373169_" class="st2" d="M-155.3,86.8c1.1,0,2.2-0.2,3.3-0.7l15.8-6.5
	c4.4-1.8,6.4-6.8,4.6-11.2c-1.8-4.4-6.8-6.4-11.2-4.6l-15.8,6.5c-3.8,1.6-5.9,5.6-5.1,9.6C-162.9,83.9-159.4,86.8-155.3,86.8
	L-155.3,86.8z"/>
<path id="Shape_00000122713532601614037820000013761737213136184448_" class="st2" d="M-316.3,135.7l-15.8,6.5
	c-4.4,1.8-6.4,6.8-4.6,11.2c1.8,4.4,6.8,6.4,11.2,4.6l15.8-6.5c2.9-1.1,4.9-3.7,5.4-6.8c0.4-3.1-0.8-6.1-3.3-8
	C-310.2,134.8-313.4,134.4-316.3,135.7L-316.3,135.7z"/>
<path id="Shape_00000043443717118629390940000017539632741267916468_" class="st2" d="M-158.6,151.5l15.8,6.5
	c4.4,1.8,9.3-0.3,11.2-4.6c1.8-4.4-0.3-9.3-4.6-11.2l-15.8-6.6c-2.8-1.2-6.1-0.9-8.6,1c-2.5,1.9-3.7,4.9-3.3,8
	S-161.5,150.3-158.6,151.5L-158.6,151.5z"/>
<path id="Shape_00000045584054830743686530000016782312001413148819_" class="st2" d="M-309.7,70.4l-15.7-6.5
	c-4.4-1.8-9.3,0.3-11.2,4.6c-1.8,4.4,0.3,9.3,4.6,11.2l15.8,6.5c2.8,1.2,6.1,0.9,8.6-1c2.5-1.9,3.7-4.9,3.3-8
	C-304.8,74.1-306.8,71.5-309.7,70.4L-309.7,70.4z"/>
<path id="Shape_00000143575967045111602790000016387342108575321234_" class="st2" d="M-201.5,40.6c3.5,0,6.6-2.1,7.9-5.3l6.5-15.7
	c1.8-4.4-0.3-9.3-4.6-11.1c-4.4-1.8-9.3,0.3-11.1,4.6l-6.6,15.7c-1.1,2.6-0.8,5.6,0.8,8C-207,39.2-204.4,40.6-201.5,40.6
	L-201.5,40.6z"/>
<path id="Shape_00000001637843179025605770000008192650177293444245_" class="st2" d="M-274.7,186.5l-6.5,15.7
	c-1.2,2.8-0.7,6,1.1,8.5s4.9,3.7,7.9,3.3s5.6-2.4,6.8-5.2l6.5-15.8c1.8-4.4-0.3-9.3-4.6-11.1C-267.9,180-272.9,182.1-274.7,186.5
	L-274.7,186.5z"/>
<path id="Shape_00000177452943450109696960000015056709372139918779_" class="st2" d="M-587.7,136.5h36.1
	c7.3,10.7,19.4,17.1,32.4,17.1h99.6c19.1,0.1,35.4-13.6,38.6-32.4c3.2-18.8-7.7-37.2-25.7-43.4c-2.1-20-18.9-35.2-39-35.1
	c-0.3,0-0.6,0.1-0.9,0.1c-4.8-15.4-16.2-27.8-31.1-33.9s-31.8-5.2-46,2.4c-13.7-11.6-32.7-14.5-49.2-7.6s-27.8,22.5-29.1,40.4
	c-22.4,6.9-36.3,29.2-32.8,52.4C-631.1,119.6-611.1,136.7-587.7,136.5L-587.7,136.5z M-423.6,81.7c0,0.7,0,1.3-0.1,2
	c-0.4,4.5,2.8,8.6,7.3,9.3c11.4,1.6,19.7,11.8,18.8,23.3c-0.8,11.5-10.5,20.4-22,20.3h-99.6c-11.3,0.1-20.9-8.4-22-19.7
	s6.5-21.6,17.6-23.7c3.5-0.7,6.2-3.5,6.7-7c1.6-9.3,7.9-17.1,16.6-20.6c8.7-3.5,18.7-2.3,26.3,3.2c3.6,2.6,8.6,2,11.5-1.4
	c6-6.9,15.7-9.4,24.4-6.3C-429.5,64.3-423.7,72.5-423.6,81.7L-423.6,81.7z M-592.1,59.3c2.2-0.3,4.3-1.5,5.6-3.3
	c1.4-1.8,1.9-4.1,1.6-6.3c-0.1-0.8-0.1-1.6-0.1-2.3c0.1-16.7,13.7-30.3,30.5-30.2c8.9,0,17.4,3.9,23.3,10.6
	c2.9,3.4,7.9,3.9,11.5,1.3c6.4-4.6,14-7.1,21.8-7.1c15.7,0,29.8,10,34.9,24.9c-2.5,1.2-4.9,2.7-7.1,4.4c-11.7-5.9-25.4-6.3-37.4-1.1
	s-21.2,15.3-25,27.8c-15.5,5.6-25.9,20.2-25.9,36.7c0.1,1.6,0.2,3.2,0.5,4.9h-29.8c-15.9,0.1-29.2-12.1-30.4-28
	S-607.9,61.5-592.1,59.3z"/>
</svg>
