<svg xmlns="http://www.w3.org/2000/svg" width="512.039" height="511.893" viewBox="0 0 512.039 511.893">
  <g id="Kids_Aqua_Park" data-name="Kids Aqua Park" transform="translate(-2077 -3428.007)">
    <path id="Shape_00000061445533729564566430000002088799516060266389_" d="M-131.8,443.7a35.557,35.557,0,0,1-25.5-10.8,52.1,52.1,0,0,0-72.7,0,34.61,34.61,0,0,1-25.5,10.8,37.083,37.083,0,0,1-4.7-.3,41.832,41.832,0,0,0,17-40.1,41.953,41.953,0,0,0-27.7-33.5l15-16.4,52.1,40.4a34.187,34.187,0,0,0,47.4-6.5,34.135,34.135,0,0,0-5.6-47.5l-76.8-59.7a34.351,34.351,0,0,0-46.1,3.9l-72.5,79.1-56-50.3,15.7-15.7a34.148,34.148,0,0,0,10-24.1V214.7a34.856,34.856,0,0,0-32.4-35.5,33.692,33.692,0,0,0-25.2,9.4A34.625,34.625,0,0,0-456,213.3v42.1a8.393,8.393,0,0,1-2.5,6l-6.1,6.1a55.536,55.536,0,0,0-55.9-54.3,55.529,55.529,0,0,0-55.1,55.1,55.4,55.4,0,0,0,54.3,55.9l-6.1,6.1a8.567,8.567,0,0,1-6,2.5h-40.7a34.784,34.784,0,0,0-35.5,32.4,34.378,34.378,0,0,0,9.3,25.3,34.019,34.019,0,0,0,24.8,10.6h59.7c.3,0,.6-.1.9-.1a41.589,41.589,0,0,0,16.5,42.5,22.624,22.624,0,0,1-4.5.2,35.557,35.557,0,0,1-25.5-10.8,52.225,52.225,0,0,0-72.8,0,34.772,34.772,0,0,1-25.5,10.8,8.493,8.493,0,0,0-8.5,8.5,8.493,8.493,0,0,0,8.5,8.5,52.043,52.043,0,0,0,36.4-14.8,35.557,35.557,0,0,1,25.5-10.8,35.557,35.557,0,0,1,25.5,10.8,52.042,52.042,0,0,0,36.4,14.8,48.083,48.083,0,0,0,31.1-10.6l.1-.1c1.8-1.4,3.5-2.7,5.1-4.1a35.557,35.557,0,0,1,25.5-10.8,35.557,35.557,0,0,1,25.5,10.8,52.1,52.1,0,0,0,72.7,0,35.557,35.557,0,0,1,25.5-10.8,35.557,35.557,0,0,1,25.5,10.8c1.5,1.2,3,2.5,4.6,3.7.1.1.2.2.3.2a48.519,48.519,0,0,0,31.4,10.8,52.22,52.22,0,0,0,36.4-14.8A35.557,35.557,0,0,1-193.7,435a35.557,35.557,0,0,1,25.5,10.8,52.042,52.042,0,0,0,36.4,14.8,8.493,8.493,0,0,0,8.5-8.5,8.408,8.408,0,0,0-8.5-8.4Zm-140.6-148a17.106,17.106,0,0,1,23-1.9l76.8,59.7a17.057,17.057,0,0,1,3,24,17.057,17.057,0,0,1-24,3l-58.2-45.2a8.506,8.506,0,0,0-11.5,1l-28.2,30.8h-46.4ZM-520,307.2a38.678,38.678,0,0,1-38.1-30.7,38.555,38.555,0,0,1,22.5-43.4,38.63,38.63,0,0,1,47,13.3,38.682,38.682,0,0,1-3.7,48.8l-1.4,1.4A37.825,37.825,0,0,1-520,307.2ZM-575.5,384a17.009,17.009,0,0,1-12.4-5.3,17.4,17.4,0,0,1-4.7-12.6,18.047,18.047,0,0,1,18.5-16.2h40.7a25.581,25.581,0,0,0,18.1-7.5l33.2-33.2c.9-.8,1.7-1.7,2.6-2.6l33.2-33.2a25.581,25.581,0,0,0,7.5-18.1V213.2a17.009,17.009,0,0,1,5.3-12.4,17.476,17.476,0,0,1,12.7-4.7,18.124,18.124,0,0,1,16.2,18.5v58.3a17.19,17.19,0,0,1-5,12.1l-22,22a8.291,8.291,0,0,0-2.5,6.3,8.734,8.734,0,0,0,2.8,6.1l52.7,47.4h-88.9a8.466,8.466,0,0,0-.7-11.8,8.457,8.457,0,0,0-11.8.4l-23.5,23.5a16.958,16.958,0,0,1-12,5Zm258.2,34.1a51.806,51.806,0,0,0-36.3,14.8,35.557,35.557,0,0,1-25.5,10.8,35.557,35.557,0,0,1-25.5-10.8,52.225,52.225,0,0,0-72.8,0l-1.6,1.3a25.826,25.826,0,0,1-19.7-24.6,24.965,24.965,0,0,1,7.7-18,27.166,27.166,0,0,1,19.1-7.6h185.3a26.232,26.232,0,0,1,26.8,25.6,26.051,26.051,0,0,1-19.6,24.6l-1.6-1.3A51.806,51.806,0,0,0-317.3,418.1Z" transform="translate(2712.337 3428)" fill="#0f2132"/>
    <path id="Shape_00000059305999071894619330000011620441549728453763_" d="M-131.8,494.9a35.557,35.557,0,0,1-25.5-10.8,52.1,52.1,0,0,0-72.7,0,35.557,35.557,0,0,1-25.5,10.8A35.557,35.557,0,0,1-281,484.1a52.1,52.1,0,0,0-72.7,0,35.557,35.557,0,0,1-25.5,10.8,35.557,35.557,0,0,1-25.5-10.8,52.225,52.225,0,0,0-72.8,0A35.557,35.557,0,0,1-503,494.9a35.557,35.557,0,0,1-25.5-10.8,52.225,52.225,0,0,0-72.8,0,34.772,34.772,0,0,1-25.5,10.8,8.493,8.493,0,0,0-8.5,8.5,8.493,8.493,0,0,0,8.5,8.5,52.043,52.043,0,0,0,36.4-14.8,35.557,35.557,0,0,1,25.5-10.8,35.557,35.557,0,0,1,25.5,10.8,52.225,52.225,0,0,0,72.8,0,35.557,35.557,0,0,1,25.5-10.8,35.557,35.557,0,0,1,25.5,10.8,52.1,52.1,0,0,0,72.7,0,35.557,35.557,0,0,1,25.5-10.8,35.557,35.557,0,0,1,25.5,10.8,52.1,52.1,0,0,0,72.7,0,35.557,35.557,0,0,1,25.5-10.8,35.557,35.557,0,0,1,25.5,10.8,52.042,52.042,0,0,0,36.4,14.8,8.493,8.493,0,0,0,8.5-8.5,8.493,8.493,0,0,0-8.5-8.5Z" transform="translate(2712.337 3428)" fill="#0f2132"/>
    <path id="Shape_00000170987488648396388790000016139280511144481675_" d="M-179,88.1a59.679,59.679,0,0,0-66.8-35.7A59.846,59.846,0,0,0-293.9,111a59.748,59.748,0,0,0,48.1,58.6A59.619,59.619,0,0,0-179,133.9,59.6,59.6,0,0,0-179,88.1Zm-15.8,39.2a42.62,42.62,0,0,1-47.7,25.5A42.611,42.611,0,0,1-276.8,111a42.628,42.628,0,0,1,34.3-41.8,42.673,42.673,0,0,1,47.7,25.5A41.906,41.906,0,0,1-194.8,127.3Z" transform="translate(2712.337 3428)" fill="#e4540e"/>
    <path id="Shape_00000083792054401204091670000000048684503462128042_" d="M-276.6,8.4a8.311,8.311,0,0,0-4.6,4.6,8.6,8.6,0,0,0,0,6.5l6.5,15.8a8.529,8.529,0,0,0,11.2,4.6,8.529,8.529,0,0,0,4.6-11.2l-6.5-15.8A8.311,8.311,0,0,0-270,8.3a9.954,9.954,0,0,0-6.6.1Z" transform="translate(2712.337 3428)" fill="#e4540e"/>
    <path id="Shape_00000155147390279648143390000015812592532462056324_" d="M-204.8,181.9a8.452,8.452,0,0,0-4.6,11.1l6.5,15.8a8.452,8.452,0,0,0,11.1,4.6,8.452,8.452,0,0,0,4.6-11.1l-6.5-15.8a8.311,8.311,0,0,0-4.6-4.6,8.161,8.161,0,0,0-6.5,0Z" transform="translate(2712.337 3428)" fill="#e4540e"/>
    <path id="Shape_00000075846840555654139420000015816911257536373169_" d="M-155.3,86.8a7.843,7.843,0,0,0,3.3-.7l15.8-6.5a8.529,8.529,0,0,0,4.6-11.2,8.529,8.529,0,0,0-11.2-4.6l-15.8,6.5a8.565,8.565,0,0,0-5.1,9.6,8.568,8.568,0,0,0,8.4,6.9Z" transform="translate(2712.337 3428)" fill="#e4540e"/>
    <path id="Shape_00000122713532601614037820000013761737213136184448_" d="M-316.3,135.7l-15.8,6.5a8.529,8.529,0,0,0-4.6,11.2,8.529,8.529,0,0,0,11.2,4.6l15.8-6.5a8.633,8.633,0,0,0,5.4-6.8,8.542,8.542,0,0,0-3.3-8,8.558,8.558,0,0,0-8.7-1Z" transform="translate(2712.337 3428)" fill="#e4540e"/>
    <path id="Shape_00000043443717118629390940000017539632741267916468_" d="M-158.6,151.5l15.8,6.5a8.649,8.649,0,0,0,11.2-4.6,8.649,8.649,0,0,0-4.6-11.2l-15.8-6.6a8.608,8.608,0,0,0-8.6,1,8.542,8.542,0,0,0-3.3,8,8.625,8.625,0,0,0,5.3,6.9Z" transform="translate(2712.337 3428)" fill="#e4540e"/>
    <path id="Shape_00000045584054830743686530000016782312001413148819_" d="M-309.7,70.4l-15.7-6.5a8.649,8.649,0,0,0-11.2,4.6A8.649,8.649,0,0,0-332,79.7l15.8,6.5a8.608,8.608,0,0,0,8.6-1,8.542,8.542,0,0,0,3.3-8,8.632,8.632,0,0,0-5.4-6.8Z" transform="translate(2712.337 3428)" fill="#e4540e"/>
    <path id="Shape_00000143575967045111602790000016387342108575321234_" d="M-201.5,40.6a8.5,8.5,0,0,0,7.9-5.3l6.5-15.7a8.5,8.5,0,0,0-4.6-11.1,8.5,8.5,0,0,0-11.1,4.6l-6.6,15.7a8.468,8.468,0,0,0,.8,8,8.432,8.432,0,0,0,7.1,3.8Z" transform="translate(2712.337 3428)" fill="#e4540e"/>
    <path id="Shape_00000001637843179025605770000008192650177293444245_" d="M-274.7,186.5l-6.5,15.7a8.69,8.69,0,0,0,1.1,8.5,8.374,8.374,0,0,0,7.9,3.3,8.7,8.7,0,0,0,6.8-5.2l6.5-15.8a8.5,8.5,0,0,0-4.6-11.1,8.448,8.448,0,0,0-11.2,4.6Z" transform="translate(2712.337 3428)" fill="#e4540e"/>
    <path id="Shape_00000177452943450109696960000015056709372139918779_" d="M-587.7,136.5h36.1a39.176,39.176,0,0,0,32.4,17.1h99.6A38.907,38.907,0,0,0-381,121.2a39.01,39.01,0,0,0-25.7-43.4,39.07,39.07,0,0,0-39-35.1c-.3,0-.6.1-.9.1A53.958,53.958,0,0,0-477.7,8.9a54.129,54.129,0,0,0-46,2.4,47.661,47.661,0,0,0-49.2-7.6A47.559,47.559,0,0,0-602,44.1a47.364,47.364,0,0,0-32.8,52.4,47.436,47.436,0,0,0,47.1,40Zm164.1-54.8a13.4,13.4,0,0,1-.1,2,8.677,8.677,0,0,0,7.3,9.3,21.883,21.883,0,0,1,18.8,23.3,21.886,21.886,0,0,1-22,20.3h-99.6a21.872,21.872,0,0,1-22-19.7,21.876,21.876,0,0,1,17.6-23.7,8.4,8.4,0,0,0,6.7-7,27.168,27.168,0,0,1,16.6-20.6A27.505,27.505,0,0,1-474,68.8a8.539,8.539,0,0,0,11.5-1.4,22.38,22.38,0,0,1,24.4-6.3,22.282,22.282,0,0,1,14.5,20.6ZM-592.1,59.3a8.379,8.379,0,0,0,5.6-3.3,8.392,8.392,0,0,0,1.6-6.3,18.488,18.488,0,0,1-.1-2.3,30.366,30.366,0,0,1,30.5-30.2,31.13,31.13,0,0,1,23.3,10.6,8.524,8.524,0,0,0,11.5,1.3A37.348,37.348,0,0,1-497.9,22,36.934,36.934,0,0,1-463,46.9a40,40,0,0,0-7.1,4.4,44.108,44.108,0,0,0-37.4-1.1,44.5,44.5,0,0,0-25,27.8,39.047,39.047,0,0,0-25.9,36.7,42.847,42.847,0,0,0,.5,4.9h-29.8a30.28,30.28,0,0,1-30.4-28A30.343,30.343,0,0,1-592.1,59.3Z" transform="translate(2712.337 3428)" fill="#e4540e"/>
  </g>
</svg>
