<?xml version="1.0" encoding="utf-8"?>
<!-- Generator: Adobe Illustrator 26.0.3, SVG Export Plug-In . SVG Version: 6.00 Build 0)  -->
<svg version="1.1" id="Layer_1" xmlns="http://www.w3.org/2000/svg" xmlns:xlink="http://www.w3.org/1999/xlink" x="0px" y="0px"
	 viewBox="0 0 512 512" style="enable-background:new 0 0 512 512;" xml:space="preserve">
<style type="text/css">
	.st0{fill:#0F2132;}
	.st1{fill:none;}
	.st2{fill:#E65400;}
	.st3{fill:#FFFFFF;}
</style>
<rect x="680.2" class="st0" width="512" height="512"/>
<rect x="141.8" y="130.4" class="st1" width="86.8" height="40.3"/>
<rect x="106.1" y="130.4" class="st1" width="19.5" height="40.3"/>
<path class="st1" d="M106.1,319.3h158V186.8h-158V319.3z M185.1,201.6c28.4,0,51.4,23,51.4,51.4c0,28.4-23,51.4-51.4,51.4
	c-28.4,0-51.4-23-51.4-51.4C133.7,224.7,156.7,201.6,185.1,201.6z"/>
<path class="st1" d="M185.1,288.3c19.5,0,35.3-15.8,35.3-35.3c0-19.5-15.8-35.3-35.3-35.3c-19.5,0-35.3,15.8-35.3,35.3
	C149.8,272.5,165.6,288.3,185.1,288.3z"/>
<path class="st1" d="M69.7,403.6c0,4.5-3.6,8.1-8.1,8.1H45.9v28.8c0,4.5-3.6,8.1-8.1,8.1H22.1l0,20.7H90v-94.5H69.7V403.6z"/>
<path class="st1" d="M106.1,469.3H138v-47.1c0-62.2,94.2-62.2,94.2,0v47.1h31.9V335.4h-158V469.3z"/>
<path class="st1" d="M204.7,49.2c-11.6-8.6-27.5-8.6-39.1,0l-87.3,65.1h213.6L204.7,49.2z"/>
<path class="st1" d="M485.7,432.3c-56.9,0-70.1-38-83.9-78.2c-11.3-32.9-27.8-92.2-121.5-96.6v8.4c87.5,4.2,102.2,58,113.5,90.3
	c13.8,39.9,29.1,84.4,92,84.4C491.3,440.7,491.3,432.3,485.7,432.3z"/>
<rect x="244.6" y="130.4" class="st1" width="19.5" height="40.3"/>
<path class="st1" d="M378.7,362.2c-11.3-32.5-22.7-76.1-98.4-80c0,10.6,0,77.7,0,187.1H300v-53.6c0-51.5,77.8-51.4,77.8,0v53.6
	l99.9,0v-12.8C410.1,452.5,392,400.6,378.7,362.2z"/>
<path class="st0" d="M485.7,416.2L485.7,416.2c-45.5,0-54.7-26.8-68.7-67.3c-11.4-33.2-31.2-102.9-136.8-107.4
	c0-102.6,0-25.4,0-111.1h36c4.5,0,8.1-3.6,8-8.1c0-2.5-1.2-4.9-3.2-6.4L214.3,36.2c-17.3-12.8-41-12.8-58.4,0L49.2,115.8
	c-3.6,2.7-4.3,7.7-1.6,11.3c1.5,2,3.9,3.2,6.4,3.2h36c0,147,0,221.3,0,228.2H61.7c-4.5,0-8.1,3.6-8.1,8.1v28.8H37.9
	c-4.5,0-8.1,3.6-8.1,8.1v28.8H14.1c-4.5,0-8.1,3.6-8.1,8.1v36.9c0,4.5,3.6,8.1,8.1,8.1h132c4.5,0,8.1-3.6,8.1-8.1v-55.2
	c0-40.9,61.9-40.9,61.9,0v55.2c0,4.5,3.6,8.1,8.1,8.1H308c4.5,0,8.1-3.6,8.1-8.1v-61.6c0-30.1,45.6-30.1,45.6,0v60.8
	c0,0.3,0,0.6,0,0.8c0,4.5,3.6,8.1,8.1,8.1h116c4.5,0,8.1-3.6,8.1-8.1v-22.2C514,446.4,507.6,416.2,485.7,416.2z M90,469.3H22.1
	l0-20.7h15.7c4.5,0,8.1-3.6,8.1-8.1v-28.8h15.7c4.5,0,8.1-3.6,8.1-8.1v-28.8H90V469.3z M78.3,114.2l87.3-65.1
	c11.6-8.6,27.5-8.6,39.1,0l87.3,65.1H78.3z M264.1,186.8v132.5h-158V186.8H264.1z M106.1,170.7v-40.3h19.5v40.3H106.1z M228.5,170.7
	h-86.8v-40.3h86.8V170.7z M264.2,469.3h-31.9v-47.1c0-62.2-94.2-62.2-94.2,0v47.1h-31.9V335.4h158V469.3z M264.2,170.7h-19.5v-40.3
	h19.5V170.7z M477.7,469.3l-99.9,0v-53.6c0-51.4-77.8-51.5-77.8,0v53.6h-19.7c0-109.4,0-176.5,0-187.1c75.7,4,87.2,47.6,98.4,80
	c13.3,38.4,31.4,90.4,99,94.3V469.3z M485.7,440.7c-62.9,0-78.2-44.5-92-84.4c-11.2-32.3-26-86-113.5-90.3v-8.4
	c93.8,4.4,110.2,63.7,121.5,96.6c13.9,40.2,27,78.2,83.9,78.2C491.3,432.3,491.3,440.7,485.7,440.7z"/>
<path class="st2" d="M185.1,304.5c28.4,0,51.4-23,51.4-51.4c0-28.4-23-51.4-51.4-51.4c-28.4,0-51.4,23-51.4,51.4
	C133.7,281.4,156.7,304.4,185.1,304.5z M185.1,217.8c19.5,0,35.3,15.8,35.3,35.3c0,19.5-15.8,35.3-35.3,35.3s-35.3-15.8-35.3-35.3
	C149.9,233.6,165.6,217.8,185.1,217.8z"/>
<rect x="825.9" y="130.4" class="st1" width="86.8" height="40.3"/>
<rect x="790.3" y="130.4" class="st1" width="19.5" height="40.3"/>
<path class="st1" d="M790.3,319.3h158V186.8h-158V319.3z M869.3,201.6c28.4,0,51.4,23,51.4,51.4c0,28.4-23,51.4-51.4,51.4
	c-28.4,0-51.4-23-51.4-51.4C817.9,224.7,840.9,201.6,869.3,201.6z"/>
<path class="st1" d="M869.3,288.3c19.5,0,35.3-15.8,35.3-35.3c0-19.5-15.8-35.3-35.3-35.3c-19.5,0-35.3,15.8-35.3,35.3
	C834,272.5,849.8,288.3,869.3,288.3z"/>
<path class="st1" d="M753.9,403.6c0,4.5-3.6,8.1-8.1,8.1h-15.7v28.8c0,4.5-3.6,8.1-8.1,8.1h-15.7l0,20.7h67.8v-94.5h-20.2V403.6z"/>
<path class="st1" d="M790.3,469.3h31.9v-47.1c0-62.2,94.2-62.2,94.2,0v47.1h31.9V335.4h-158V469.3z"/>
<path class="st1" d="M888.8,49.2c-11.6-8.6-27.5-8.6-39.1,0l-87.3,65.1h213.6L888.8,49.2z"/>
<path class="st1" d="M1169.9,432.3c-56.9,0-70.1-38-83.9-78.2c-11.3-32.9-27.8-92.2-121.5-96.6v8.4c87.5,4.2,102.2,58,113.5,90.3
	c13.8,39.9,29.1,84.4,92,84.4C1175.4,440.7,1175.4,432.3,1169.9,432.3z"/>
<rect x="928.8" y="130.4" class="st1" width="19.5" height="40.3"/>
<path class="st1" d="M1062.9,362.2c-11.3-32.5-22.7-76.1-98.4-80c0,10.6,0,77.7,0,187.1h19.7v-53.6c0-51.5,77.8-51.4,77.8,0v53.6
	l99.9,0v-12.8C1094.2,452.5,1076.1,400.6,1062.9,362.2z"/>
<path class="st3" d="M1169.9,416.2L1169.9,416.2c-45.5,0-54.7-26.8-68.7-67.3c-11.4-33.2-31.2-102.9-136.8-107.4
	c0-102.6,0-25.4,0-111.1h36c4.5,0,8.1-3.6,8-8.1c0-2.5-1.2-4.9-3.2-6.4L898.5,36.2c-17.3-12.8-41-12.8-58.4,0l-106.7,79.6
	c-3.6,2.7-4.3,7.7-1.6,11.3c1.5,2,3.9,3.2,6.4,3.2h36c0,147,0,221.3,0,228.2h-28.3c-4.5,0-8.1,3.6-8.1,8.1v28.8H722
	c-4.5,0-8.1,3.6-8.1,8.1v28.8h-15.7c-4.5,0-8.1,3.6-8.1,8.1v36.9c0,4.5,3.6,8.1,8.1,8.1h132c4.5,0,8.1-3.6,8.1-8.1v-55.2
	c0-40.9,61.9-40.9,61.9,0v55.2c0,4.5,3.6,8.1,8.1,8.1h83.9c4.5,0,8.1-3.6,8.1-8.1v-61.6c0-30.1,45.6-30.1,45.6,0v60.8
	c0,0.3,0,0.6,0,0.8c0,4.5,3.6,8.1,8.1,8.1h116c4.5,0,8.1-3.6,8.1-8.1v-22.2C1198.1,446.4,1191.8,416.2,1169.9,416.2z M774.1,469.3
	h-67.8l0-20.7H722c4.5,0,8.1-3.6,8.1-8.1v-28.8h15.7c4.5,0,8.1-3.6,8.1-8.1v-28.8h20.2V469.3z M762.5,114.2l87.3-65.1
	c11.6-8.6,27.5-8.6,39.1,0l87.3,65.1H762.5z M948.3,186.8v132.5h-158V186.8H948.3z M790.3,170.7v-40.3h19.5v40.3H790.3z
	 M912.7,170.7h-86.8v-40.3h86.8V170.7z M948.3,469.3h-31.9v-47.1c0-62.2-94.2-62.2-94.2,0v47.1h-31.9V335.4h158V469.3z M948.3,170.7
	h-19.5v-40.3h19.5V170.7z M1161.8,469.3l-99.9,0v-53.6c0-51.4-77.8-51.5-77.8,0v53.6h-19.7c0-109.4,0-176.5,0-187.1
	c75.7,4,87.2,47.6,98.4,80c13.3,38.4,31.4,90.4,99,94.3V469.3z M1169.9,440.7c-62.9,0-78.2-44.5-92-84.4
	c-11.2-32.3-26-86-113.5-90.3v-8.4c93.8,4.4,110.2,63.7,121.5,96.6c13.9,40.2,27,78.2,83.9,78.2
	C1175.4,432.3,1175.4,440.7,1169.9,440.7z"/>
<path class="st2" d="M869.3,304.5c28.4,0,51.4-23,51.4-51.4c0-28.4-23-51.4-51.4-51.4c-28.4,0-51.4,23-51.4,51.4
	C817.9,281.4,840.9,304.4,869.3,304.5z M869.3,217.8c19.5,0,35.3,15.8,35.3,35.3c0,19.5-15.8,35.3-35.3,35.3S834,272.5,834,253.1
	C834,233.6,849.8,217.8,869.3,217.8z"/>
</svg>
