<?xml version="1.0" encoding="utf-8"?>
<!-- Generator: Adobe Illustrator 26.0.3, SVG Export Plug-In . SVG Version: 6.00 Build 0)  -->
<svg version="1.1" id="Layer_1" xmlns="http://www.w3.org/2000/svg" xmlns:xlink="http://www.w3.org/1999/xlink" x="0px" y="0px"
	 viewBox="0 0 512 512" style="enable-background:new 0 0 512 512;" xml:space="preserve">
<style type="text/css">
	.st0{fill:#0F2132;}
	.st1{fill:#FFFFFF;}
	.st2{fill:#E65400;}
</style>
<rect x="674" class="st0" width="512" height="512"/>
<g>
	<g>
		<g>
			<path class="st1" d="M969.9,449.4h-80c-2.2,0-4-1.8-4-4v-96c0-24.3,19.7-44,44-44c24.3,0,44,19.7,44,44v96
				C973.9,447.6,972.1,449.4,969.9,449.4z M893.9,441.4h72v-92c0-19.8-16.2-36-36-36c-19.8,0-36,16.2-36,36V441.4z"/>
		</g>
	</g>
	<g>
		<g>
			<path class="st1" d="M929.9,369.4c-11,0-20-9-20-20s9-20,20-20c11,0,20,9,20,20S940.9,369.4,929.9,369.4z M929.9,337.4
				c-6.6,0-12,5.4-12,12s5.4,12,12,12c6.6,0,12-5.4,12-12S936.5,337.4,929.9,337.4z"/>
		</g>
	</g>
	<g>
		<g>
			<g>
				<path class="st1" d="M718.5,449.5c-6.3,0-12.4-3.7-15.1-9.9c-0.8-1.9-1.2-4-1.3-6.3c-0.1-6.7,3.8-12.7,10-15.2l176.3-75.3
					c2-0.9,4.4,0.1,5.2,2.1c0.9,2-0.1,4.4-2.1,5.2l-176.3,75.3c-3.1,1.3-5.1,4.3-5,7.7c0,1.2,0.2,2.3,0.6,3.2
					c1.8,4.2,6.8,6.2,11,4.4l166.8-71.3c2-0.9,4.4,0.1,5.2,2.1c0.9,2-0.1,4.4-2.1,5.2l-166.8,71.3
					C722.9,449.1,720.7,449.5,718.5,449.5L718.5,449.5z"/>
			</g>
		</g>
		<g>
			<g>
				<path class="st1" d="M968.4,342.7c-1.6,0-3-0.9-3.7-2.4c-0.9-2,0.1-4.4,2.1-5.2l177.6-74.7c3.1-1.3,5.1-4.3,5.1-7.8
					c0-1.1-0.2-2.2-0.6-3.2c-1.8-4.2-6.8-6.2-11-4.4l-181.5,76.9c-2,0.8-4.4-0.1-5.2-2.1c-0.9-2,0.1-4.4,2.1-5.2l181.4-76.9
					c8.2-3.5,17.9,0.3,21.5,8.6c0.9,2.1,1.3,4.2,1.3,6.3c0,6.7-3.9,12.6-10,15.1L970,342.4C969.5,342.6,968.9,342.7,968.4,342.7
					L968.4,342.7z"/>
			</g>
		</g>
		<g>
			<g>
				<path class="st1" d="M1057.5,279c-1.6,0-3-0.9-3.7-2.4l-15.3-36.1c-0.9-2,0.1-4.4,2.1-5.2l14.7-6.3c1-0.4,2.1-0.4,3.1,0
					c1,0.4,1.8,1.2,2.2,2.1l15.4,36.1c0.9,2-0.1,4.4-2.1,5.2c-2,0.9-4.4-0.1-5.2-2.1l-13.8-32.4l-7.4,3.1l13.8,32.4
					c0.9,2-0.1,4.4-2.1,5.2C1058.5,278.9,1058,279,1057.5,279L1057.5,279z"/>
			</g>
		</g>
		<g>
			<g>
				<path class="st1" d="M1012.7,255.5c-0.5,0-1-0.1-1.5-0.3c-1-0.4-1.8-1.2-2.2-2.1l-6.3-14.7c-0.4-1-0.4-2.1,0-3.1
					c0.4-1,1.2-1.8,2.2-2.2l73.6-31.3c2-0.9,4.4,0.1,5.2,2.1l6.3,14.7c0.4,1,0.4,2.1,0,3.1s-1.2,1.8-2.1,2.2l-73.6,31.3
					C1013.7,255.4,1013.2,255.5,1012.7,255.5L1012.7,255.5z M1011.7,238.9l3.1,7.4L1081,218l-3.1-7.4L1011.7,238.9z"/>
			</g>
		</g>
		<g>
			<g>
				<path class="st1" d="M777.7,398c-1.6,0-3-0.9-3.7-2.4l-15.3-36.1c-0.9-2,0.1-4.4,2.1-5.2l14.7-6.3c1-0.4,2.1-0.4,3.1,0
					c1,0.4,1.8,1.2,2.2,2.1l15.3,36.1c0.9,2-0.1,4.4-2.1,5.2c-2,0.9-4.4-0.1-5.2-2.1L775,357l-7.4,3.1l13.8,32.4
					c0.9,2-0.1,4.4-2.1,5.2C778.8,398,778.3,398,777.7,398L777.7,398z"/>
			</g>
		</g>
		<g>
			<g>
				<path class="st1" d="M733,374.5c-0.5,0-1-0.1-1.5-0.3c-1-0.4-1.8-1.2-2.2-2.1l-6.3-14.7c-0.9-2,0.1-4.4,2.1-5.2l73.6-31.3
					c1-0.4,2.1-0.4,3.1,0c1,0.4,1.8,1.2,2.2,2.1l6.3,14.7c0.9,2-0.1,4.4-2.1,5.2l-73.6,31.3C734,374.4,733.5,374.5,733,374.5
					L733,374.5z M731.9,357.9l3.1,7.4l66.2-28.2l-3.1-7.4L731.9,357.9z"/>
			</g>
		</g>
	</g>
	<g>
		<g>
			<g>
				<path class="st2" d="M946.2,124.2c-0.2,0-0.4,0-0.6,0c-2.2-0.3-3.7-2.4-3.4-4.5c0.2-1,0.1-2,0.1-2.9c0-25.5-20.7-46.2-46.2-46.2
					c-22.7,0-41.8,16.2-45.5,38.5c-0.4,2.2-2.4,3.7-4.6,3.3c-2.2-0.4-3.7-2.4-3.3-4.6c4.3-26.2,26.8-45.2,53.4-45.2
					c29.9,0,54.2,24.3,54.2,54.2c0,1.4,0,2.7-0.2,4.1C949.9,122.8,948.2,124.2,946.2,124.2L946.2,124.2z"/>
			</g>
		</g>
		<g>
			<g>
				<path class="st2" d="M887.8,196H762.3c-16,0-29.1-13.1-29.1-29.1s13.1-29.1,29.1-29.1c5,0,9.8,1.3,14.2,3.7
					c3.7-11.9,14.8-20.5,27.7-20.5c3.3,0,6.5,0.6,9.6,1.7c6.7-11.3,18.9-18.5,32.2-18.5c19.4,0,35.5,14.9,37.3,33.9
					c17.9-3.1,33.6,11.2,33.6,28.7C916.9,183,903.8,196,887.8,196L887.8,196z M762.3,145.8c-11.6,0-21.1,9.5-21.1,21.1
					s9.5,21.1,21.1,21.1h125.5c11.6,0,21.1-9.5,21.1-21.1c0-14-13.3-25.2-28.3-19.8c-1.3,0.5-2.7,0.3-3.7-0.5s-1.7-2.1-1.6-3.4
					c0-0.1,0.1-0.9,0.1-1.1c0-16.6-13.2-29.8-29.4-29.8c-11.5,0-22,6.8-26.8,17.3c-0.5,1-1.3,1.8-2.3,2.1c-1,0.4-2.2,0.3-3.1-0.2
					c-3.1-1.6-6.4-2.4-9.6-2.4c-11,0-20.2,8.6-20.9,19.7c-0.1,1.5-1.1,2.9-2.5,3.4s-3.1,0.3-4.2-0.8
					C772.5,147.8,767.5,145.8,762.3,145.8L762.3,145.8z"/>
			</g>
		</g>
		<g>
			<g>
				<path class="st2" d="M1012.1,170.9h-89.7c-4.2,0-8.2-1.2-11.6-3.4c-0.4-0.2-0.7-0.4-1-0.7c-1.6-1.6-1.6-4.1,0-5.7
					c1.3-1.3,3.2-1.5,4.7-0.7c0.2,0.1,0.4,0.2,0.5,0.3c2.2,1.4,4.6,2.2,7.4,2.2h89.7c7.7,0,13.9-6.2,13.9-13.9c0-7.7-6.2-14-13.9-14
					c-1.4,0-2.9,0.3-4.8,1c-1.2,0.4-2.6,0.2-3.6-0.5c-1.1-0.8-1.7-2-1.7-3.3c0-0.2,0.1-0.9,0.1-1c0-11.1-8.9-20-19.8-20
					c-7.8,0-14.9,4.6-18.1,11.6c-0.5,1-1.3,1.8-2.3,2.1c-1,0.4-2.2,0.3-3.1-0.2c-3.4-1.8-7.4-2.1-11.1-0.7c-5.2,1.9-8.7,6.6-9,12
					c-0.1,1.5-1,2.9-2.5,3.5c-1.4,0.6-3,0.3-4.2-0.7c-1.9-1.7-5.1-3.7-9.5-3.7c-7.5,0-13.6,5.9-13.9,13.4c-0.1,2.2-1.9,4-4.2,3.8
					c-2.2-0.1-3.9-2-3.8-4.2c0.5-11.8,10.1-21.1,21.9-21.1c3.3,0,6.5,0.7,9.5,2.2c2.2-5.8,6.8-10.5,12.9-12.7
					c4.5-1.6,9.5-1.7,13.9-0.4c5.1-8,14-12.9,23.5-12.9c14,0,25.7,10.5,27.6,24c0.7-0.1,1.5-0.1,2.3-0.1c12.1,0,21.9,9.9,21.9,22
					C1034,161.1,1024.2,170.9,1012.1,170.9L1012.1,170.9z"/>
			</g>
		</g>
	</g>
	<g>
		<g>
			<path class="st1" d="M1113.5,449.4c-2.2,0-4-1.8-4-4s1.8-4,4-4l40.4,0c2.2,0,4,1.8,4,4s-1.8,4-4,4L1113.5,449.4z"/>
		</g>
	</g>
	<g>
		<g>
			<path class="st1" d="M777.4,449.5c-2.2,0-4-1.8-4-4s1.8-4,4-4l302.4-0.1c2.2,0,4,1.8,4,4s-1.8,4-4,4L777.4,449.5z"/>
		</g>
	</g>
	<g>
		<g>
			<path class="st1" d="M953.4,400c-2.2,0-4-1.8-4-4v-10.7c0-2.2,1.8-4,4-4s4,1.8,4,4V396C957.4,398.3,955.6,400,953.4,400z"/>
		</g>
	</g>
	<g>
		<g>
			<path class="st1" d="M953.4,449.5c-2.2,0-4-1.8-4-4v-36.1c0-2.2,1.8-4,4-4s4,1.8,4,4v36.1C957.4,447.7,955.6,449.5,953.4,449.5z"
				/>
		</g>
	</g>
</g>
<g>
	<g>
		<g>
			<path class="st0" d="M295.8,449.4h-80c-2.2,0-4-1.8-4-4v-96c0-24.3,19.7-44,44-44s44,19.7,44,44v96
				C299.8,447.6,298,449.4,295.8,449.4z M219.8,441.4h72v-92c0-19.8-16.2-36-36-36s-36,16.2-36,36V441.4z"/>
		</g>
	</g>
	<g>
		<g>
			<path class="st0" d="M255.8,369.4c-11,0-20-9-20-20s9-20,20-20c11,0,20,9,20,20S266.9,369.4,255.8,369.4z M255.8,337.4
				c-6.6,0-12,5.4-12,12s5.4,12,12,12s12-5.4,12-12S262.4,337.4,255.8,337.4z"/>
		</g>
	</g>
	<g>
		<g>
			<g>
				<path class="st0" d="M44.5,449.5c-6.3,0-12.4-3.7-15.1-9.9c-0.8-1.9-1.2-4-1.3-6.3c-0.1-6.7,3.8-12.7,10-15.2l176.3-75.3
					c2-0.9,4.4,0.1,5.2,2.1c0.9,2-0.1,4.4-2.1,5.2L41.2,425.6c-3.1,1.3-5.1,4.3-5,7.7c0,1.2,0.2,2.3,0.6,3.2c1.8,4.2,6.8,6.2,11,4.4
					l166.8-71.3c2-0.9,4.4,0.1,5.2,2.1c0.9,2-0.1,4.4-2.1,5.2L50.9,448.2C48.8,449.1,46.6,449.5,44.5,449.5L44.5,449.5z"/>
			</g>
		</g>
		<g>
			<g>
				<path class="st0" d="M294.4,342.7c-1.6,0-3-0.9-3.7-2.4c-0.9-2,0.1-4.4,2.1-5.2l177.6-74.7c3.1-1.3,5.1-4.3,5.1-7.8
					c0-1.1-0.2-2.2-0.6-3.2c-1.8-4.2-6.8-6.2-11-4.4l-181.5,76.9c-2,0.8-4.4-0.1-5.2-2.1c-0.9-2,0.1-4.4,2.1-5.2l181.4-76.9
					c8.2-3.5,17.9,0.3,21.5,8.6c0.9,2.1,1.3,4.2,1.3,6.3c0,6.7-3.9,12.6-10,15.1L296,342.4C295.4,342.6,294.9,342.7,294.4,342.7
					L294.4,342.7z"/>
			</g>
		</g>
		<g>
			<g>
				<path class="st0" d="M383.4,279c-1.6,0-3-0.9-3.7-2.4l-15.3-36.1c-0.9-2,0.1-4.4,2.1-5.2l14.7-6.3c1-0.4,2.1-0.4,3.1,0
					c1,0.4,1.8,1.2,2.2,2.1l15.4,36.1c0.9,2-0.1,4.4-2.1,5.2c-2,0.9-4.4-0.1-5.2-2.1l-13.8-32.4l-7.4,3.1l13.8,32.4
					c0.9,2-0.1,4.4-2.1,5.2C384.5,278.9,384,279,383.4,279L383.4,279z"/>
			</g>
		</g>
		<g>
			<g>
				<path class="st0" d="M338.6,255.5c-0.5,0-1-0.1-1.5-0.3c-1-0.4-1.8-1.2-2.2-2.1l-6.3-14.7c-0.4-1-0.4-2.1,0-3.1s1.2-1.8,2.2-2.2
					l73.6-31.3c2-0.9,4.4,0.1,5.2,2.1l6.3,14.7c0.4,1,0.4,2.1,0,3.1s-1.2,1.8-2.1,2.2l-73.6,31.3
					C339.7,255.4,339.2,255.5,338.6,255.5L338.6,255.5z M337.6,238.9l3.1,7.4L407,218l-3.1-7.4L337.6,238.9z"/>
			</g>
		</g>
		<g>
			<g>
				<path class="st0" d="M103.7,398c-1.6,0-3-0.9-3.7-2.4l-15.3-36.1c-0.9-2,0.1-4.4,2.1-5.2l14.7-6.3c1-0.4,2.1-0.4,3.1,0
					c1,0.4,1.8,1.2,2.2,2.1l15.3,36.1c0.9,2-0.1,4.4-2.1,5.2c-2,0.9-4.4-0.1-5.2-2.1L101,357l-7.4,3.1l13.8,32.4
					c0.9,2-0.1,4.4-2.1,5.2C104.8,398,104.2,398,103.7,398L103.7,398z"/>
			</g>
		</g>
		<g>
			<g>
				<path class="st0" d="M58.9,374.5c-0.5,0-1-0.1-1.5-0.3c-1-0.4-1.8-1.2-2.2-2.1L49,357.4c-0.9-2,0.1-4.4,2.1-5.2l73.6-31.3
					c1-0.4,2.1-0.4,3.1,0c1,0.4,1.8,1.2,2.2,2.1l6.3,14.7c0.9,2-0.1,4.4-2.1,5.2l-73.6,31.3C60,374.4,59.4,374.5,58.9,374.5
					L58.9,374.5z M57.9,357.9l3.1,7.4l66.2-28.2l-3.1-7.4L57.9,357.9z"/>
			</g>
		</g>
	</g>
	<g>
		<g>
			<g>
				<path class="st2" d="M272.2,124.2c-0.2,0-0.4,0-0.6,0c-2.2-0.3-3.7-2.4-3.4-4.5c0.2-1,0.1-2,0.1-2.9c0-25.5-20.7-46.2-46.2-46.2
					c-22.7,0-41.8,16.2-45.5,38.5c-0.4,2.2-2.4,3.7-4.6,3.3c-2.2-0.4-3.7-2.4-3.3-4.6c4.3-26.2,26.8-45.2,53.4-45.2
					c29.9,0,54.2,24.3,54.2,54.2c0,1.4,0,2.7-0.2,4.1C275.8,122.8,274.1,124.2,272.2,124.2L272.2,124.2z"/>
			</g>
		</g>
		<g>
			<g>
				<path class="st2" d="M213.8,196H88.2c-16,0-29.1-13.1-29.1-29.1s13.1-29.1,29.1-29.1c5,0,9.8,1.3,14.2,3.7
					c3.7-11.9,14.8-20.5,27.7-20.5c3.3,0,6.5,0.6,9.6,1.7c6.7-11.3,18.9-18.5,32.2-18.5c19.4,0,35.5,14.9,37.3,33.9
					c17.9-3.1,33.6,11.2,33.6,28.7C242.9,183,229.8,196,213.8,196L213.8,196z M88.2,145.8c-11.6,0-21.1,9.5-21.1,21.1
					S76.6,188,88.2,188h125.5c11.6,0,21.1-9.5,21.1-21.1c0-14-13.3-25.2-28.3-19.8c-1.3,0.5-2.7,0.3-3.7-0.5s-1.7-2.1-1.6-3.4
					c0-0.1,0.1-0.9,0.1-1.1c0-16.6-13.2-29.8-29.4-29.8c-11.5,0-22,6.8-26.8,17.3c-0.5,1-1.3,1.8-2.3,2.1c-1,0.4-2.2,0.3-3.1-0.2
					c-3.1-1.6-6.4-2.4-9.6-2.4c-11,0-20.2,8.6-20.9,19.7c-0.1,1.5-1.1,2.9-2.5,3.4s-3.1,0.3-4.2-0.8
					C98.5,147.8,93.5,145.8,88.2,145.8L88.2,145.8z"/>
			</g>
		</g>
		<g>
			<g>
				<path class="st2" d="M338.1,170.9h-89.7c-4.2,0-8.2-1.2-11.6-3.4c-0.4-0.2-0.7-0.4-1-0.7c-1.6-1.6-1.6-4.1,0-5.7
					c1.3-1.3,3.2-1.5,4.7-0.7c0.2,0.1,0.4,0.2,0.5,0.3c2.2,1.4,4.6,2.2,7.4,2.2h89.7c7.7,0,13.9-6.2,13.9-13.9c0-7.7-6.2-14-13.9-14
					c-1.4,0-2.9,0.3-4.8,1c-1.2,0.4-2.6,0.2-3.6-0.5c-1.1-0.8-1.7-2-1.7-3.3c0-0.2,0.1-0.9,0.1-1c0-11.1-8.9-20-19.8-20
					c-7.8,0-14.9,4.6-18.1,11.6c-0.5,1-1.3,1.8-2.3,2.1c-1,0.4-2.2,0.3-3.1-0.2c-3.4-1.8-7.4-2.1-11.1-0.7c-5.2,1.9-8.7,6.6-9,12
					c-0.1,1.5-1,2.9-2.5,3.5c-1.4,0.6-3,0.3-4.2-0.7c-1.9-1.7-5.1-3.7-9.5-3.7c-7.5,0-13.6,5.9-13.9,13.4c-0.1,2.2-1.9,4-4.2,3.8
					c-2.2-0.1-3.9-2-3.8-4.2c0.5-11.8,10.1-21.1,21.9-21.1c3.3,0,6.5,0.7,9.5,2.2c2.2-5.8,6.8-10.5,12.9-12.7
					c4.5-1.6,9.5-1.7,13.9-0.4c5.1-8,14-12.9,23.5-12.9c14,0,25.7,10.5,27.6,24c0.7-0.1,1.5-0.1,2.3-0.1c12.1,0,21.9,9.9,21.9,22
					C360,161.1,350.2,170.9,338.1,170.9L338.1,170.9z"/>
			</g>
		</g>
	</g>
	<g>
		<g>
			<path class="st0" d="M439.5,449.4c-2.2,0-4-1.8-4-4s1.8-4,4-4l40.4,0c2.2,0,4,1.8,4,4s-1.8,4-4,4L439.5,449.4z"/>
		</g>
	</g>
	<g>
		<g>
			<path class="st0" d="M103.4,449.5c-2.2,0-4-1.8-4-4s1.8-4,4-4l302.4-0.1c2.2,0,4,1.8,4,4s-1.8,4-4,4L103.4,449.5z"/>
		</g>
	</g>
	<g>
		<g>
			<path class="st0" d="M279.3,400c-2.2,0-4-1.8-4-4v-10.7c0-2.2,1.8-4,4-4s4,1.8,4,4V396C283.3,398.3,281.5,400,279.3,400z"/>
		</g>
	</g>
	<g>
		<g>
			<path class="st0" d="M279.3,449.5c-2.2,0-4-1.8-4-4v-36.1c0-2.2,1.8-4,4-4s4,1.8,4,4v36.1C283.3,447.7,281.5,449.5,279.3,449.5z"
				/>
		</g>
	</g>
</g>
</svg>
