<?xml version="1.0" encoding="utf-8"?>
<!-- Generator: Adobe Illustrator 26.2.1, SVG Export Plug-In . SVG Version: 6.00 Build 0)  -->
<svg version="1.1" id="Layer_1" xmlns="http://www.w3.org/2000/svg" xmlns:xlink="http://www.w3.org/1999/xlink" x="0px" y="0px"
	 viewBox="0 0 512 512" style="enable-background:new 0 0 512 512;" xml:space="preserve">
<style type="text/css">
	.st0{fill:#0F2132;}
	.st1{fill:#FFFFFF;}
	.st2{fill:#E4540E;}
</style>
<rect x="629.1" class="st0" width="512" height="512"/>
<path class="st1" d="M685.1,376V168c0-4.4-3.6-8-8-8s-8,3.6-8,8v208c0,4.4,3.6,8,8,8S685.1,380.4,685.1,376z"/>
<path class="st1" d="M1114.8,348.1c3.1-5,4.2-11.1,3.1-16.9c-2.5-13-15-21.5-28.1-19.1l-39.3,7.5c-12.9,2.4-21.5,14.7-19.2,27.7
	c0.5,2.8,1.5,5.5,3,8l-25,4.7l-9-47.2l0,0l31.4-6c4.3-0.8,7.2-5,6.4-9.4c-0.8-4.3-5-7.2-9.4-6.4l-72.7,13.8l-16.7-41.9
	c-3.7-9.1-12.5-15.1-22.3-15.1h-40V144h16c4.4,0,8-3.6,8-8c0-2.2-0.9-4.3-2.5-5.8l-120-112c-3.1-2.9-7.8-2.9-10.9,0l-120,112
	c-3.2,3-3.4,8.1-0.4,11.3c1.5,1.6,3.6,2.5,5.8,2.5h208v208c0,4.4,3.6,8,8,8s8-3.6,8-8v-56h18.3c3.3,0,6.2,2,7.5,5.1l29.4,73.6
	l-18,3.4c-20.9-16.2-50.9-12.4-67.1,8.5c-1.2,1.6-2.3,3.2-3.3,4.9l-70.4,13.4l-9-47.1l31.4-6c4.3-0.8,7.2-5,6.3-9.4
	c-0.8-4.3-5-7.2-9.3-6.3l-78.6,14.9c-4.3,0.8-7.2,5-6.4,9.4c0.7,3.8,4,6.5,7.9,6.5c0.5,0,1,0,1.5-0.1l31.4-6l9,47.1l-25,4.7
	c2-13.1-6.9-25.3-19.9-27.3c-2.7-0.4-5.5-0.4-8.2,0.1l-39.3,7.5c-13,2.4-21.6,14.9-19.1,27.9c1.1,5.9,4.3,11.1,9.1,14.7
	c-2.3,3.7-3.5,8-3.5,12.4c0,1.5,0.1,3,0.4,4.5c2.4,13,14.9,21.5,27.9,19.1c0.1,0,0.1,0,0.2,0l156.7-29.7V488c0,4.4,3.6,8,8,8h80
	c4.4,0,8-3.6,8-8v-64.7l17.3-3.3l24.4,61c3.7,9.1,12.5,15.1,22.3,15.1h40c13.2-0.1,23.9-10.8,24-24c0-13.2-10.8-24-24-24h-18.3
	c-3.3,0-6.2-2-7.5-5.1l-12.9-32.1l106.3-20.2c11.3-2.1,19.5-12,19.6-23.5c0-1.5-0.2-3-0.5-4.5
	C1122.8,356.9,1119.5,351.6,1114.8,348.1z M773.1,34.9l99.7,93.1H673.4L773.1,34.9z M1048.4,338.6c1.2-1.8,3-3,5.1-3.4l39.3-7.5
	c0.5-0.1,1-0.1,1.5-0.1c4.4,0,8,3.6,8,8c0,3.8-2.7,7.1-6.5,7.9l-39.3,7.5c-4.3,0.8-8.5-2-9.4-6.4
	C1046.8,342.6,1047.2,340.4,1048.4,338.6L1048.4,338.6z M984.7,315.8L984.7,315.8l9,47.2l-13.3,2.5l-18.2-45.4L984.7,315.8z
	 M917.7,295.1c-3.7-9.1-12.5-15.1-22.3-15.1h-18.3v-16h40c3.3,0,6.2,2,7.4,5l39.8,99.5l-16,3L917.7,295.1z M663.3,411.8
	c1.2-1.8,3-3,5.1-3.4l39.3-7.5c0.5-0.1,1-0.1,1.5-0.1c4.4,0,8,3.6,8,8c0,3.8-2.7,7.1-6.4,7.8l-39.5,7.5l-0.1,0
	c-4.3,0.7-8.5-2.2-9.2-6.5C661.7,415.6,662.1,413.5,663.3,411.8L663.3,411.8z M677.3,455.6c-4.3,0.8-8.4-1.9-9.3-6.2
	c-0.1-0.5-0.1-1.1-0.1-1.6c0-3.8,2.6-7,6.3-7.8l0.2,0l39.3-7.5c0.1,0,0.2-0.1,0.3-0.1l54.5-10.3c0.1,0,0.1,0,0.2,0l0.1,0l68.9-13.1
	c-0.4,2.4-0.6,4.7-0.6,7.1v9.3L677.3,455.6z M917.1,480h-64v-64c0-17.7,14.3-32,32-32s32,14.3,32,32V480z M996.5,448.9
	c3.7,9.1,12.5,15.1,22.3,15.1h18.3c4.4,0,8,3.6,8,8c0,2.2-0.9,4.2-2.4,5.7c-1.5,1.5-3.5,2.3-5.6,2.3h-40c-3.3,0-6.2-2-7.4-5
	l-23.2-58l16-3L996.5,448.9z M1101.8,374.9l-169.5,32.2c-1-5.3-2.9-10.5-5.7-15.2l172.3-32.7c4.3-0.8,8.4,2,9.2,6.2c0,0,0,0,0,0.1
	c0.1,0.5,0.2,1.1,0.2,1.6C1108.3,371,1105.5,374.3,1101.8,374.9L1101.8,374.9z"/>
<path class="st2" d="M885.1,396c-11,0-20,9-20,20s9,20,20,20c11,0,20-9,20-20C905.1,405,896.1,396,885.1,396z M885.1,420
	c-2.2,0-4-1.8-4-4s1.8-4,4-4c2.2,0,4,1.8,4,4S887.3,420,885.1,420z"/>
<path class="st2" d="M773.1,304c35.3,0,64-28.7,64-64s-28.7-64-64-64c-35.3,0-64,28.7-64,64C709.1,275.3,737.8,304,773.1,304z
	 M773.1,192c26.5,0,48,21.5,48,48s-21.5,48-48,48s-48-21.5-48-48C725.1,213.5,746.6,192,773.1,192z"/>
<g>
	<path class="st2" d="M1037.1,144c22.1,0,40-17.9,40-40s-17.9-40-40-40c-22.1,0-40,17.9-40,40C997.1,126.1,1015,144,1037.1,144z
		 M1037.1,80c13.3,0,24,10.7,24,24s-10.7,24-24,24c-13.3,0-24-10.7-24-24C1013.1,90.8,1023.9,80,1037.1,80z"/>
	<path class="st2" d="M1037.1,48c4.4,0,8-3.6,8-8V24c0-4.4-3.6-8-8-8c-4.4,0-8,3.6-8,8v16C1029.1,44.4,1032.7,48,1037.1,48z"/>
	<path class="st2" d="M986.2,64.4c3.2,3,8.3,2.9,11.3-0.3c2.9-3.1,2.9-7.9,0-11l-11.3-11.3c-3.2-3.1-8.2-3-11.3,0.2
		c-3,3.1-3,8,0,11.1L986.2,64.4z"/>
	<path class="st2" d="M957.1,112h16c4.4,0,8-3.6,8-8s-3.6-8-8-8h-16c-4.4,0-8,3.6-8,8S952.7,112,957.1,112z"/>
	<path class="st2" d="M986.2,143.6l-11.3,11.3c-3.2,3.1-3.3,8.1-0.2,11.3c3.1,3.2,8.1,3.3,11.3,0.2c0.1-0.1,0.1-0.1,0.2-0.2
		l11.3-11.3c3-3.2,2.9-8.3-0.3-11.3C994.1,140.7,989.3,140.7,986.2,143.6z"/>
	<path class="st2" d="M1029.1,168v16c0,4.4,3.6,8,8,8c4.4,0,8-3.6,8-8v-16c0-4.4-3.6-8-8-8C1032.7,160,1029.1,163.6,1029.1,168z"/>
	<path class="st2" d="M1088,143.6c-3.2-3-8.3-2.9-11.3,0.3c-2.9,3.1-2.9,7.9,0,11l11.3,11.3c3.2,3.1,8.2,3,11.3-0.2
		c3-3.1,3-8,0-11.1L1088,143.6z"/>
	<path class="st2" d="M1093.1,104c0,4.4,3.6,8,8,8h16c4.4,0,8-3.6,8-8s-3.6-8-8-8h-16C1096.7,96,1093.1,99.6,1093.1,104z"/>
	<path class="st2" d="M1082.4,66.7c2.1,0,4.2-0.8,5.7-2.3l11.3-11.3c3.2-3.1,3.3-8.1,0.2-11.3c-3.1-3.2-8.1-3.3-11.3-0.2
		c-0.1,0.1-0.1,0.1-0.2,0.2l-11.3,11.3c-3.1,3.1-3.1,8.2,0,11.3C1078.2,65.9,1080.2,66.7,1082.4,66.7L1082.4,66.7z"/>
</g>
<path class="st0" d="M56,376V168c0-4.4-3.6-8-8-8s-8,3.6-8,8v208c0,4.4,3.6,8,8,8S56,380.4,56,376z"/>
<path class="st0" d="M485.7,348.1c3.1-5,4.2-11.1,3.1-16.9c-2.5-13-15-21.5-28.1-19.1l-39.3,7.5c-12.9,2.4-21.5,14.7-19.2,27.7
	c0.5,2.8,1.5,5.5,3,8l-25,4.7l-9-47.2l0,0l31.4-6c4.3-0.8,7.2-5,6.4-9.4c-0.8-4.3-5-7.2-9.4-6.4L327,304.9l-16.7-41.9
	C306.6,254,297.8,248,288,248h-40V144h16c4.4,0,8-3.6,8-8c0-2.2-0.9-4.3-2.5-5.8l-120-112c-3.1-2.9-7.8-2.9-10.9,0l-120,112
	c-3.2,3-3.4,8.1-0.4,11.3c1.5,1.6,3.6,2.5,5.8,2.5h208v208c0,4.4,3.6,8,8,8s8-3.6,8-8v-56h18.3c3.3,0,6.2,2,7.5,5.1l29.4,73.6
	l-18,3.4c-20.9-16.2-50.9-12.4-67.1,8.5c-1.2,1.6-2.3,3.2-3.3,4.9l-70.4,13.4l-9-47.1l31.4-6c4.3-0.8,7.2-5,6.3-9.4
	c-0.8-4.3-5-7.2-9.3-6.3l-78.6,14.9c-4.3,0.8-7.2,5-6.4,9.4c0.7,3.8,4,6.5,7.9,6.5c0.5,0,1,0,1.5-0.1l31.4-6l9,47.1l-25,4.7
	c2-13.1-6.9-25.3-19.9-27.3c-2.7-0.4-5.5-0.4-8.2,0.1l-39.3,7.5c-13,2.4-21.6,14.9-19.1,27.9c1.1,5.9,4.3,11.1,9.1,14.7
	c-2.3,3.7-3.5,8-3.5,12.4c0,1.5,0.1,3,0.4,4.5c2.4,13,14.9,21.5,27.9,19.1c0.1,0,0.1,0,0.2,0L208,441.6V488c0,4.4,3.6,8,8,8h80
	c4.4,0,8-3.6,8-8v-64.7l17.3-3.3l24.4,61c3.7,9.1,12.5,15.1,22.3,15.1h40c13.2-0.1,23.9-10.8,24-24c0-13.2-10.8-24-24-24h-18.3
	c-3.3,0-6.2-2-7.5-5.1l-12.9-32.1l106.3-20.2c11.3-2.1,19.5-12,19.6-23.5c0-1.5-0.2-3-0.5-4.5C493.7,356.9,490.4,351.6,485.7,348.1z
	 M144,34.9l99.7,93.1H44.3L144,34.9z M419.3,338.6c1.2-1.8,3-3,5.1-3.4l39.3-7.5c0.5-0.1,1-0.1,1.5-0.1c4.4,0,8,3.6,8,8
	c0,3.8-2.7,7.1-6.5,7.9l-39.3,7.5c-4.3,0.8-8.5-2-9.4-6.4C417.7,342.6,418.1,340.4,419.3,338.6L419.3,338.6z M355.6,315.8
	L355.6,315.8l9,47.2l-13.3,2.5l-18.2-45.4L355.6,315.8z M288.6,295.1C285,286,276.1,280,266.3,280H248v-16h40c3.3,0,6.2,2,7.4,5
	l39.8,99.5l-16,3L288.6,295.1z M34.2,411.8c1.2-1.8,3-3,5.1-3.4l39.3-7.5c0.5-0.1,1-0.1,1.5-0.1c4.4,0,8,3.6,8,8
	c0,3.8-2.7,7.1-6.4,7.8l-39.5,7.5l-0.1,0c-4.3,0.7-8.5-2.2-9.2-6.5C32.6,415.6,33,413.5,34.2,411.8L34.2,411.8z M48.2,455.6
	c-4.3,0.8-8.4-1.9-9.3-6.2c-0.1-0.5-0.1-1.1-0.1-1.6c0-3.8,2.6-7,6.3-7.8l0.2,0l39.3-7.5c0.1,0,0.2-0.1,0.3-0.1l54.5-10.3
	c0.1,0,0.1,0,0.2,0l0.1,0l68.9-13.1c-0.4,2.4-0.6,4.7-0.6,7.1v9.3L48.2,455.6z M288,480h-64v-64c0-17.7,14.3-32,32-32s32,14.3,32,32
	V480z M367.4,448.9c3.7,9.1,12.5,15.1,22.3,15.1H408c4.4,0,8,3.6,8,8c0,2.2-0.9,4.2-2.4,5.7c-1.5,1.5-3.5,2.3-5.6,2.3h-40
	c-3.3,0-6.2-2-7.4-5l-23.2-58l16-3L367.4,448.9z M472.7,374.9l-169.5,32.2c-1-5.3-2.9-10.5-5.7-15.2l172.3-32.7
	c4.3-0.8,8.4,2,9.2,6.2c0,0,0,0,0,0.1c0.1,0.5,0.2,1.1,0.2,1.6C479.2,371,476.4,374.3,472.7,374.9L472.7,374.9z"/>
<path class="st2" d="M256,396c-11,0-20,9-20,20s9,20,20,20c11,0,20-9,20-20C276,405,267,396,256,396z M256,420c-2.2,0-4-1.8-4-4
	s1.8-4,4-4s4,1.8,4,4S258.2,420,256,420z"/>
<path class="st2" d="M144,304c35.3,0,64-28.7,64-64s-28.7-64-64-64s-64,28.7-64,64C80,275.3,108.7,304,144,304z M144,192
	c26.5,0,48,21.5,48,48s-21.5,48-48,48s-48-21.5-48-48C96,213.5,117.5,192,144,192z"/>
<g>
	<path class="st2" d="M408,144c22.1,0,40-17.9,40-40s-17.9-40-40-40s-40,17.9-40,40C368,126.1,385.9,144,408,144z M408,80
		c13.3,0,24,10.7,24,24s-10.7,24-24,24s-24-10.7-24-24C384,90.8,394.8,80,408,80z"/>
	<path class="st2" d="M408,48c4.4,0,8-3.6,8-8V24c0-4.4-3.6-8-8-8s-8,3.6-8,8v16C400,44.4,403.6,48,408,48z"/>
	<path class="st2" d="M357.1,64.4c3.2,3,8.3,2.9,11.3-0.3c2.9-3.1,2.9-7.9,0-11l-11.3-11.3c-3.2-3.1-8.2-3-11.3,0.2
		c-3,3.1-3,8,0,11.1L357.1,64.4z"/>
	<path class="st2" d="M328,112h16c4.4,0,8-3.6,8-8s-3.6-8-8-8h-16c-4.4,0-8,3.6-8,8S323.6,112,328,112z"/>
	<path class="st2" d="M357.1,143.6l-11.3,11.3c-3.2,3.1-3.3,8.1-0.2,11.3c3.1,3.2,8.1,3.3,11.3,0.2c0.1-0.1,0.1-0.1,0.2-0.2
		l11.3-11.3c3-3.2,2.9-8.3-0.3-11.3C365,140.7,360.2,140.7,357.1,143.6z"/>
	<path class="st2" d="M400,168v16c0,4.4,3.6,8,8,8s8-3.6,8-8v-16c0-4.4-3.6-8-8-8S400,163.6,400,168z"/>
	<path class="st2" d="M458.9,143.6c-3.2-3-8.3-2.9-11.3,0.3c-2.9,3.1-2.9,7.9,0,11l11.3,11.3c3.2,3.1,8.2,3,11.3-0.2
		c3-3.1,3-8,0-11.1L458.9,143.6z"/>
	<path class="st2" d="M464,104c0,4.4,3.6,8,8,8h16c4.4,0,8-3.6,8-8s-3.6-8-8-8h-16C467.6,96,464,99.6,464,104z"/>
	<path class="st2" d="M453.3,66.7c2.1,0,4.2-0.8,5.7-2.3l11.3-11.3c3.2-3.1,3.3-8.1,0.2-11.3c-3.1-3.2-8.1-3.3-11.3-0.2
		c-0.1,0.1-0.1,0.1-0.2,0.2l-11.3,11.3c-3.1,3.1-3.1,8.2,0,11.3C449.1,65.9,451.1,66.7,453.3,66.7L453.3,66.7z"/>
</g>
</svg>
