<?xml version="1.0" encoding="utf-8"?>
<!-- Generator: Adobe Illustrator 26.2.1, SVG Export Plug-In . SVG Version: 6.00 Build 0)  -->
<svg version="1.1" id="Capa_1" xmlns="http://www.w3.org/2000/svg" xmlns:xlink="http://www.w3.org/1999/xlink" x="0px" y="0px"
	 viewBox="0 0 512 512" style="enable-background:new 0 0 512 512;" xml:space="preserve">
<style type="text/css">
	.st0{fill:#0F2132;}
	.st1{fill:#FFFFFF;}
	.st2{fill:#E4540E;}
</style>
<rect x="618.9" class="st0" width="510.5" height="510.5"/>
<path class="st1" d="M802.9,336h56c35.3,0,64-28.7,64-64s-28.7-64-64-64h-24c-110.3,0-200-89.7-200-200c0-4.4-3.6-8-8-8s-8,3.6-8,8
	c0,119.1,96.9,216,216,216h24c26.5,0,48,21.5,48,48s-21.5,48-48,48h-56c-101.5,0-184,82.5-184,184c0,4.4,3.6,8,8,8s8-3.6,8-8
	C634.9,411.4,710.2,336,802.9,336z"/>
<path class="st1" d="M967.9,112h-24c-57.3,0-104-46.7-104-104c0-4.4-3.6-8-8-8s-8,3.6-8,8c0,66.2,53.8,120,120,120h24
	c79.4,0,144,64.6,144,144s-64.6,144-144,144h-56c-48.5,0-88,39.5-88,88c0,4.4,3.6,8,8,8s8-3.6,8-8c0-39.7,32.3-72,72-72h56
	c88.2,0,160-71.8,160-160S1056.1,112,967.9,112z"/>
<path class="st2" d="M859.4,170.7c3.4,2.3,8,5.3,16.4,5.3s13.1-3.1,16.4-5.3c2.7-1.8,4-2.7,7.6-2.7c4.4,0,8-3.6,8-8s-3.6-8-8-8
	c-8.4,0-13.1,3.1-16.4,5.3c-2.7,1.8-4,2.7-7.6,2.7s-4.9-0.9-7.6-2.7c-3.4-2.3-8-5.3-16.4-5.3c-4.4,0-8,3.6-8,8s3.6,8,8,8
	C855.4,168,856.8,168.9,859.4,170.7z"/>
<path class="st2" d="M1011.4,327.7c3.4,2.3,8,5.3,16.4,5.3c8.4,0,13.1-3.1,16.4-5.3c2.7-1.8,4-2.7,7.6-2.7c4.4,0,8-3.6,8-8
	s-3.6-8-8-8c-8.4,0-13.1,3.1-16.4,5.3c-2.7,1.8-4,2.7-7.6,2.7c-3.6,0-4.9-0.9-7.6-2.7c-3.4-2.3-8-5.3-16.4-5.3c-4.4,0-8,3.6-8,8
	s3.6,8,8,8C1007.4,325.1,1008.8,326,1011.4,327.7z"/>
<path class="st2" d="M979.4,346.4c-2.7,1.8-4,2.7-7.6,2.7s-4.9-0.9-7.6-2.7c-3.4-2.3-8-5.3-16.4-5.3c-4.4,0-8,3.6-8,8s3.6,8,8,8
	c3.6,0,4.9,0.9,7.6,2.7c3.4,2.3,8,5.3,16.4,5.3s13.1-3.1,16.4-5.3c2.7-1.8,4-2.7,7.6-2.7c4.4,0,8-3.6,8-8s-3.6-8-8-8
	C987.4,341.1,982.8,344.2,979.4,346.4z"/>
<path class="st2" d="M979.9,168c-8.4,0-13.1,3.1-16.4,5.3c-2.7,1.8-4,2.7-7.6,2.7s-4.9-0.9-7.6-2.7c-3.4-2.3-8-5.3-16.4-5.3
	c-4.4,0-8,3.6-8,8s3.6,8,8,8c3.6,0,4.9,0.9,7.6,2.7c3.4,2.3,8,5.3,16.4,5.3s13.1-3.1,16.4-5.3c2.7-1.8,4-2.7,7.6-2.7
	c4.4,0,8-3.6,8-8S984.3,168,979.9,168z"/>
<path class="st2" d="M731.9,48c8.5,0,16.3-3.9,22.2-10.9c2.8-3.4,2.4-8.4-1-11.3s-8.4-2.3-11.3,1c-5.5,6.6-14.2,6.6-19.7,0
	c-2.8-3.4-7.9-3.9-11.3-1c-3.4,2.8-3.9,7.9-1,11.3C715.5,44.1,723.4,48,731.9,48z"/>
<path class="st2" d="M746,82.9c-2.8-3.4-7.9-3.9-11.3-1c-3.4,2.8-3.9,7.9-1,11.3c5.8,7,13.7,10.9,22.2,10.9s16.3-3.9,22.2-10.9
	c2.8-3.4,2.4-8.4-1-11.3c-3.4-2.8-8.4-2.3-11.3,1C760.2,89.5,751.5,89.5,746,82.9z"/>
<path class="st2" d="M769,433.8c-3.4-2.8-8.5-2.3-11.3,1c-5.5,6.6-14.2,6.6-19.7,0c-2.8-3.4-7.9-3.9-11.3-1c-3.4,2.8-3.9,7.9-1,11.3
	c5.8,7,13.7,10.9,22.2,10.9s16.3-3.9,22.2-10.9C772.8,441.7,772.4,436.7,769,433.8z"/>
<path class="st2" d="M789.7,394.9c-5.5,6.6-14.2,6.6-19.7,0c-2.8-3.4-7.9-3.9-11.3-1c-3.4,2.8-3.9,7.9-1,11.3
	c5.8,7,13.7,10.9,22.2,10.9s16.3-3.9,22.2-10.9c2.8-3.4,2.4-8.4-1-11.3C797.6,391,792.5,391.5,789.7,394.9z"/>
<path class="st0" d="M185.5,336h56c35.3,0,64-28.7,64-64s-28.7-64-64-64h-24c-110.3,0-200-89.7-200-200c0-4.4-3.6-8-8-8s-8,3.6-8,8
	c0,119.1,96.9,216,216,216h24c26.5,0,48,21.5,48,48s-21.5,48-48,48h-56C84,320,1.5,402.5,1.5,504c0,4.4,3.6,8,8,8s8-3.6,8-8
	C17.5,411.4,92.9,336,185.5,336z"/>
<path class="st0" d="M350.5,112h-24c-57.3,0-104-46.7-104-104c0-4.4-3.6-8-8-8s-8,3.6-8,8c0,66.2,53.8,120,120,120h24
	c79.4,0,144,64.6,144,144s-64.6,144-144,144h-56c-48.5,0-88,39.5-88,88c0,4.4,3.6,8,8,8s8-3.6,8-8c0-39.7,32.3-72,72-72h56
	c88.2,0,160-71.8,160-160S438.7,112,350.5,112z"/>
<path class="st2" d="M242.1,170.7c3.4,2.3,8,5.3,16.4,5.3c8.4,0,13.1-3.1,16.4-5.3c2.7-1.8,4-2.7,7.6-2.7c4.4,0,8-3.6,8-8
	s-3.6-8-8-8c-8.4,0-13.1,3.1-16.4,5.3c-2.7,1.8-4,2.7-7.6,2.7c-3.6,0-4.9-0.9-7.6-2.7c-3.4-2.3-8-5.3-16.4-5.3c-4.4,0-8,3.6-8,8
	s3.6,8,8,8C238.1,168,239.4,168.9,242.1,170.7z"/>
<path class="st2" d="M394.1,327.7c3.4,2.3,8,5.3,16.4,5.3s13.1-3.1,16.4-5.3c2.7-1.8,4-2.7,7.6-2.7c4.4,0,8-3.6,8-8s-3.6-8-8-8
	c-8.4,0-13.1,3.1-16.4,5.3c-2.7,1.8-4,2.7-7.6,2.7s-4.9-0.9-7.6-2.7c-3.4-2.3-8-5.3-16.4-5.3c-4.4,0-8,3.6-8,8s3.6,8,8,8
	C390.1,325.1,391.4,326,394.1,327.7z"/>
<path class="st2" d="M362.1,346.4c-2.7,1.8-4,2.7-7.6,2.7s-4.9-0.9-7.6-2.7c-3.4-2.3-8-5.3-16.4-5.3c-4.4,0-8,3.6-8,8s3.6,8,8,8
	c3.6,0,4.9,0.9,7.6,2.7c3.4,2.3,8,5.3,16.4,5.3s13.1-3.1,16.4-5.3c2.7-1.8,4-2.7,7.6-2.7c4.4,0,8-3.6,8-8s-3.6-8-8-8
	C370.1,341.1,365.4,344.2,362.1,346.4z"/>
<path class="st2" d="M362.5,168c-8.4,0-13.1,3.1-16.4,5.3c-2.7,1.8-4,2.7-7.6,2.7s-4.9-0.9-7.6-2.7c-3.4-2.3-8-5.3-16.4-5.3
	c-4.4,0-8,3.6-8,8s3.6,8,8,8c3.6,0,4.9,0.9,7.6,2.7c3.4,2.3,8,5.3,16.4,5.3s13.1-3.1,16.4-5.3c2.7-1.8,4-2.7,7.6-2.7
	c4.4,0,8-3.6,8-8S366.9,168,362.5,168z"/>
<path class="st2" d="M114.5,48c8.5,0,16.3-3.9,22.2-10.9c2.8-3.4,2.4-8.4-1-11.3c-3.4-2.8-8.4-2.3-11.3,1c-5.5,6.6-14.2,6.6-19.7,0
	c-2.8-3.4-7.9-3.9-11.3-1c-3.4,2.8-3.9,7.9-1,11.3C98.2,44.1,106,48,114.5,48z"/>
<path class="st2" d="M128.6,82.9c-2.8-3.4-7.9-3.9-11.3-1c-3.4,2.8-3.9,7.9-1,11.3c5.8,7,13.7,10.9,22.2,10.9s16.3-3.9,22.2-10.9
	c2.8-3.4,2.4-8.4-1-11.3c-3.4-2.8-8.4-2.3-11.3,1C142.9,89.5,134.1,89.5,128.6,82.9z"/>
<path class="st2" d="M151.6,433.8c-3.4-2.8-8.5-2.3-11.3,1c-5.5,6.6-14.2,6.6-19.7,0c-2.8-3.4-7.9-3.9-11.3-1
	c-3.4,2.8-3.9,7.9-1,11.3c5.8,7,13.7,10.9,22.2,10.9s16.3-3.9,22.2-10.9C155.5,441.7,155,436.7,151.6,433.8z"/>
<path class="st2" d="M172.3,394.9c-5.5,6.6-14.2,6.6-19.7,0c-2.8-3.4-7.9-3.9-11.3-1c-3.4,2.8-3.9,7.9-1,11.3
	c5.8,7,13.7,10.9,22.2,10.9s16.3-3.9,22.2-10.9c2.8-3.4,2.4-8.4-1-11.3C180.2,391,175.2,391.5,172.3,394.9z"/>
</svg>
