<?xml version="1.0" encoding="utf-8"?>
<!-- Generator: Adobe Illustrator 26.0.3, SVG Export Plug-In . SVG Version: 6.00 Build 0)  -->
<svg version="1.1" id="_x33_0" xmlns="http://www.w3.org/2000/svg" xmlns:xlink="http://www.w3.org/1999/xlink" x="0px" y="0px"
	 viewBox="0 0 512 512" style="enable-background:new 0 0 512 512;" xml:space="preserve">
<style type="text/css">
	.st0{fill:#0F2132;}
	.st1{fill:#FFFFFF;}
	.st2{fill:#E65400;}
</style>
<rect x="664.9" y="0.1" class="st0" width="512" height="512"/>
<path class="st1" d="M991.3,360h13.6c2.2,0,4-1.8,4-4v-8c0-2.2-1.8-4-4-4h-168c-2.2,0-4,1.8-4,4v8c0,2.2,1.8,4,4,4h13.6l28.4,128
	h-10c-2.2,0-4,1.8-4,4v8c0,2.2,1.8,4,4,4h104c2.2,0,4-1.8,4-4v-8c0-2.2-1.8-4-4-4h-10L991.3,360z M866.8,360h108.1l-28.4,128h-51.2
	L866.8,360z"/>
<path class="st1" d="M808.9,408h-50.2l-25.5-76.4c-3.9-11.7-14.8-19.6-27.2-19.6h-3.8c-14,0-26.3,9.8-28.8,23.5
	c-0.9,4.8-0.5,9.6,1,14.2l31.6,94.9c5.4,16.4,20.7,27.4,37.9,27.4h24.9v16h-28c-2.2,0-4,1.8-4,4v8c0,2.2,1.8,4,4,4h72
	c2.2,0,4-1.8,4-4v-8c0-2.2-1.8-4-4-4h-28v-16h39.9c13.3,0,24.2-10.9,24.1-24.2C848.8,425.9,830.9,408,808.9,408z M824.9,456h-80.9
	c-10.3,0-19.5-6.6-22.8-16.4l-31.6-94.9c-0.4-1.3-0.7-2.7-0.7-4c0-7,5.7-12.6,12.6-12.6h4.5c5.5,0,10.3,3.5,12,8.6l29.1,87.4h61.8
	c13.2,0,24,10.8,24,24C832.9,452.4,829.3,456,824.9,456L824.9,456z"/>
<path class="st1" d="M1140.2,312h-4.5c-12.3,0-23.3,7.9-27.2,19.6l-25.5,76.4h-50.2c-22,0-39.9,17.9-40,39.8
	c-0.1,13.3,10.9,24.2,24.1,24.2h39.9v16h-28c-2.2,0-4,1.8-4,4v8c0,2.2,1.8,4,4,4h72c2.2,0,4-1.8,4-4v-8c0-2.2-1.8-4-4-4h-28v-16
	h24.9c17.2,0,32.5-11,37.9-27.4l31.7-95c1-2.9,1.5-6,1.5-9C1168.9,324.8,1156,312,1140.2,312z M1152.2,344.6l-31.6,94.9
	c-3.3,9.8-12.4,16.4-22.8,16.4h-80.9c-4.4,0-8-3.6-8-8c0-13.2,10.8-24,24-24h61.8l29.1-87.4c1.7-5.2,6.5-8.6,12-8.6h4.5
	c7,0,12.6,5.7,12.6,12.6C1152.9,342,1152.6,343.4,1152.2,344.6z"/>
<path class="st1" d="M1152.9,56h-140c-2.2,0-4,1.8-4,4v8c0,2.2,1.8,4,4,4h140v160h-160v-64h32.8l-6.5-64.9
	c-1.5-15-12.3-26.7-26.3-30.1V24h12c2.2,0,4-1.8,4-4v-8c0-2.2-1.8-4-4-4h-168c-2.2,0-4,1.8-4,4v8c0,2.2,1.8,4,4,4h12v49
	c-14,3.3-24.8,15.1-26.3,30L816,168h32.8v64h-160V72h140c2.2,0,4-1.8,4-4v-8c0-2.2-1.8-4-4-4h-140c-8.8,0-16,7.2-16,16v160
	c0,8.8,7.2,16,16,16h160c8.8,0,16-7.2,16-16v-64h16.8l-1.6,16h81.7l-1.6-16h16.8v64c0,8.8,7.2,16,16,16h160c8.8,0,16-7.2,16-16V72
	C1168.9,63.2,1161.7,56,1152.9,56z M833.7,152l4.7-47.3c0.9-9.5,8.9-16.7,18.4-16.7s17.5,7.2,18.4,16.7L880,152H833.7z M864.9,73V24
	h48v65c-9.1,2.2-16.8,7.9-21.5,15.7l-0.2-1.7C889.7,88.1,878.9,76.4,864.9,73z M897.7,168l4.7-47.3c0.9-9.5,8.9-16.7,18.4-16.7
	s17.5,7.2,18.4,16.7L944,168H897.7z M950.5,103.1l-0.2,1.7c-4.7-7.9-12.4-13.6-21.5-15.7V24h48v49C962.8,76.4,952,88.1,950.5,103.1z
	 M966.4,104.7c0.9-9.5,8.9-16.7,18.4-16.7s17.5,7.2,18.4,16.7l4.7,47.3h-46.3L966.4,104.7z"/>
<path class="st2" d="M1008.9,188v28h128V88h-108c-2.2,0-4,1.8-4,4v8c0,2.2,1.8,4,4,4h92v96h-96v-12c0-2.2-1.8-4-4-4h-8
	C1010.6,184,1008.9,185.8,1008.9,188z"/>
<path class="st2" d="M816.9,100v-8c0-2.2-1.8-4-4-4h-108v128h128v-28c0-2.2-1.8-4-4-4h-8c-2.2,0-4,1.8-4,4v12h-96v-96h92
	C815.1,104,816.9,102.2,816.9,100z"/>
<path class="st0" d="M326.4,360H340c2.2,0,4-1.8,4-4v-8c0-2.2-1.8-4-4-4H172c-2.2,0-4,1.8-4,4v8c0,2.2,1.8,4,4,4h13.6L214,488h-10
	c-2.2,0-4,1.8-4,4v8c0,2.2,1.8,4,4,4h104c2.2,0,4-1.8,4-4v-8c0-2.2-1.8-4-4-4h-10L326.4,360z M202,360H310l-28.4,128h-51.2L202,360z
	"/>
<path class="st0" d="M144,408H93.8l-25.5-76.4C64.4,319.9,53.5,312,41.1,312h-3.8c-14,0-26.3,9.8-28.8,23.5c-0.9,4.8-0.5,9.6,1,14.2
	l31.6,94.9C46.6,461,61.8,472,79.1,472H104v16H76c-2.2,0-4,1.8-4,4v8c0,2.2,1.8,4,4,4h72c2.2,0,4-1.8,4-4v-8c0-2.2-1.8-4-4-4h-28
	v-16h39.9c13.3,0,24.2-10.9,24.1-24.2C183.9,425.9,166,408,144,408z M160,456H79.1c-10.3,0-19.5-6.6-22.8-16.4l-31.6-94.9
	c-0.4-1.3-0.7-2.7-0.7-4c0-7,5.7-12.6,12.6-12.6h4.5c5.5,0,10.3,3.5,12,8.6L82.2,424H144c13.2,0,24,10.8,24,24
	C168,452.4,164.4,456,160,456L160,456z"/>
<path class="st0" d="M475.4,312h-4.5c-12.3,0-23.3,7.9-27.2,19.6L418.2,408H368c-22,0-39.9,17.9-40,39.8
	c-0.1,13.3,10.9,24.2,24.1,24.2H392v16h-28c-2.2,0-4,1.8-4,4v8c0,2.2,1.8,4,4,4h72c2.2,0,4-1.8,4-4v-8c0-2.2-1.8-4-4-4h-28v-16h24.9
	c17.2,0,32.5-11,37.9-27.4l31.7-95c1-2.9,1.5-6,1.5-9C504,324.8,491.2,312,475.4,312z M487.4,344.6l-31.6,94.9
	c-3.3,9.8-12.4,16.4-22.8,16.4H352c-4.4,0-8-3.6-8-8c0-13.2,10.8-24,24-24h61.8l29.1-87.4c1.7-5.2,6.5-8.6,12-8.6h4.5
	c7,0,12.6,5.7,12.6,12.6C488,342,487.8,343.4,487.4,344.6z"/>
<path class="st0" d="M488,56H348c-2.2,0-4,1.8-4,4v8c0,2.2,1.8,4,4,4h140v160H328v-64h32.8l-6.5-64.9C352.8,88.1,342,76.4,328,73V24
	h12c2.2,0,4-1.8,4-4v-8c0-2.2-1.8-4-4-4H172c-2.2,0-4,1.8-4,4v8c0,2.2,1.8,4,4,4h12v49c-14,3.3-24.8,15.1-26.3,30l-6.5,64.9H184v64
	H24V72h140c2.2,0,4-1.8,4-4v-8c0-2.2-1.8-4-4-4H24c-8.8,0-16,7.2-16,16v160c0,8.8,7.2,16,16,16h160c8.8,0,16-7.2,16-16v-64h16.8
	l-1.6,16h81.7l-1.6-16H312v64c0,8.8,7.2,16,16,16h160c8.8,0,16-7.2,16-16V72C504,63.2,496.8,56,488,56z M168.8,152l4.7-47.3
	c0.9-9.5,8.9-16.7,18.4-16.7s17.5,7.2,18.4,16.7l4.7,47.3H168.8z M200,73V24h48v65c-9.1,2.2-16.8,7.9-21.5,15.7l-0.2-1.7
	C224.8,88.1,214,76.4,200,73z M232.8,168l4.7-47.3c0.9-9.5,8.9-16.7,18.4-16.7c9.6,0,17.5,7.2,18.4,16.7l4.7,47.3H232.8z
	 M285.7,103.1l-0.2,1.7c-4.7-7.9-12.4-13.6-21.5-15.7V24h48v49C298,76.4,287.2,88.1,285.7,103.1z M301.6,104.7
	c0.9-9.5,8.9-16.7,18.4-16.7s17.5,7.2,18.4,16.7l4.7,47.3h-46.3L301.6,104.7z"/>
<path class="st2" d="M344,188v28h128V88H364c-2.2,0-4,1.8-4,4v8c0,2.2,1.8,4,4,4h92v96h-96v-12c0-2.2-1.8-4-4-4h-8
	C345.8,184,344,185.8,344,188z"/>
<path class="st2" d="M152,100v-8c0-2.2-1.8-4-4-4H40v128h128v-28c0-2.2-1.8-4-4-4h-8c-2.2,0-4,1.8-4,4v12H56v-96h92
	C150.2,104,152,102.2,152,100z"/>
</svg>
