<?xml version="1.0" encoding="utf-8"?>
<!-- Generator: Adobe Illustrator 26.0.3, SVG Export Plug-In . SVG Version: 6.00 Build 0)  -->
<svg version="1.1" id="Layer_1" xmlns="http://www.w3.org/2000/svg" xmlns:xlink="http://www.w3.org/1999/xlink" x="0px" y="0px"
	 viewBox="0 0 512 512" style="enable-background:new 0 0 512 512;" xml:space="preserve">
<style type="text/css">
	.st0{fill:#0F2132;}
	.st1{fill:#FFFFFF;}
	.st2{fill:#E65400;}
</style>
<rect x="671" class="st0" width="512" height="512"/>
<path class="st1" d="M1162.3,299.7h-6.5c-12.4-22.8-34.6-38-60.3-41.1c0,0-0.1,0-0.1,0l-11.7-1.1v-87.9c0-23.6-12.9-44.7-32.8-55.7
	c11.2-9.3,18.4-23.4,18.4-39.1c0-28-22.7-50.7-50.7-50.7c-28,0-50.7,22.7-50.7,50.7c0,15.7,7.2,29.8,18.4,39.1
	c-11.3,6.3-20.4,15.8-26.1,27.3l-45.1,77.2l-27.5,20l-37-3.6c-8.9-0.8-17.7,0.4-25.7,3.4c-2-24.5-22.6-43.9-47.6-43.9
	c-26.3,0-47.8,21.4-47.8,47.8c0,8.8,2.4,17.3,6.8,24.6H709c-13.8,0-25,11.2-25,25c0,3.2,0.6,6.2,1.7,9c-8.5,2.6-14.7,10.5-14.7,19.8
	v61c0,11.4,9.3,20.7,20.7,20.7h470.6c11.4,0,20.7-9.3,20.7-20.7v-61C1183,309,1173.7,299.7,1162.3,299.7z M1138.1,299.7H934.5V258
	l31.1,3c-1.3,7.4,0.8,15.3,6.4,21.2c4.7,5,11.2,7.8,18.1,7.8c6.3,0,12.4-2.4,17-6.7l17.6-16.5l69.2,6.8
	C1111.7,275.7,1127.6,285.2,1138.1,299.7z M1039.1,253.1l29.3-27.6c0.1-0.1,0.1-0.1,0.2-0.2V256L1039.1,253.1z M1068.6,184.6
	l-7.8,25.7c-0.5,1.6-1.4,3.1-2.7,4.3l-61.4,57.8c-1.8,1.7-4.2,2.7-6.7,2.7c-2.7,0-5.3-1.1-7.1-3.1c-3.7-3.9-3.5-10.1,0.4-13.8
	l58.1-54.6c1-0.9,1.7-2,2-3.3l17.4-57.2c5,7.7,7.8,16.8,7.8,26.5L1068.6,184.6L1068.6,184.6z M1018.6,39.1c19.7,0,35.7,16,35.7,35.7
	s-16,35.7-35.7,35.7s-35.7-16-35.7-35.7S998.9,39.1,1018.6,39.1z M1002.9,123c4.9,1.6,10.2,2.5,15.7,2.5c5.5,0,10.7-0.9,15.7-2.5
	c5.4,1.7,10.3,4.2,14.7,7.4l-19.3,63.5l-56.1,52.8l-5-0.5v-76.7C968.5,148.1,982.5,129.2,1002.9,123z M925.2,229.5
	c0.8-0.6,1.5-1.4,2.1-2.3l26.3-45V221l-11.2,19.2c-0.7,1.2-1.6,2.2-2.7,3l-0.2,0.1l-29.3-2.9L925.2,229.5z M744.6,242
	c0-18.1,14.7-32.8,32.8-32.8s32.8,14.7,32.8,32.8c0,1.5-0.1,3.1-0.3,4.7c-2.2,1.7-4.4,3.7-6.3,5.8c-8.5,9-20.9,14.1-33.8,14.1h-13.9
	C748.6,260.3,744.6,251.5,744.6,242z M1168,381.4c0,3.1-2.6,5.7-5.7,5.7H691.7c-3.1,0-5.7-2.6-5.7-5.7v-61c0-3.1,2.6-5.7,5.7-5.7
	h47.7c4.1,0,7.5-3.4,7.5-7.5s-3.4-7.5-7.5-7.5h-36.2c-2.6-1.9-4.2-4.9-4.2-8.1c0-5.5,4.5-10,10-10h60.5c17,0,33.3-6.9,44.7-18.8
	c9-9.5,21.8-14.3,35-13.1l70.3,6.9v43.2H769.4c-4.1,0-7.5,3.4-7.5,7.5s3.4,7.5,7.5,7.5h392.9c3.1,0,5.7,2.6,5.7,5.7V381.4z"/>
<path class="st2" d="M1137.5,417.1c-4.1,0-7.5,3.4-7.5,7.5v42.3c0,3.3-2.7,6.1-6.1,6.1c-3.3,0-6.1-2.7-6.1-6.1v-42.3
	c0-4.1-3.4-7.5-7.5-7.5c-4.1,0-7.5,3.4-7.5,7.5v42.3c0,11.6,9.4,21.1,21.1,21.1c11.6,0,21.1-9.4,21.1-21.1v-42.3
	C1145,420.4,1141.6,417.1,1137.5,417.1z"/>
<path class="st2" d="M743.6,417c-4.1,0-7.5,3.4-7.5,7.5v42.3c0,3.3-2.7,6.1-6.1,6.1c-3.3,0-6.1-2.7-6.1-6.1v-42.3
	c0-4.1-3.4-7.5-7.5-7.5s-7.5,3.4-7.5,7.5v42.3c0,11.6,9.4,21.1,21.1,21.1c11.6,0,21.1-9.4,21.1-21.1v-42.3
	C751.1,420.4,747.7,417,743.6,417z"/>
<path class="st0" d="M491.3,299.7h-6.5c-12.4-22.8-34.6-38-60.3-41.1c0,0-0.1,0-0.1,0l-11.7-1.1v-87.9c0-23.6-12.9-44.7-32.8-55.7
	c11.2-9.3,18.4-23.4,18.4-39.1c0-28-22.7-50.7-50.7-50.7c-28,0-50.7,22.7-50.7,50.7c0,15.7,7.2,29.8,18.4,39.1
	c-11.3,6.3-20.4,15.8-26.1,27.3l-45.1,77.2l-27.5,20l-37-3.6c-8.9-0.8-17.7,0.4-25.7,3.4c-2-24.5-22.6-43.9-47.6-43.9
	c-26.3,0-47.8,21.4-47.8,47.8c0,8.8,2.4,17.3,6.8,24.6H38.1c-13.8,0-25,11.2-25,25c0,3.2,0.6,6.2,1.7,9C6.2,303.1,0,311,0,320.4v61
	c0,11.4,9.3,20.7,20.7,20.7h470.6c11.4,0,20.7-9.3,20.7-20.7v-61C512,309,502.7,299.7,491.3,299.7z M467.1,299.7H263.5V258l31.1,3
	c-1.3,7.4,0.8,15.3,6.4,21.2c4.7,5,11.2,7.8,18.1,7.8c6.3,0,12.4-2.4,17-6.7l17.6-16.5l69.2,6.8
	C440.8,275.7,456.7,285.2,467.1,299.7z M368.1,253.1l29.3-27.6c0.1-0.1,0.1-0.1,0.2-0.2V256L368.1,253.1z M397.6,184.6l-7.8,25.7
	c-0.5,1.6-1.4,3.1-2.7,4.3l-61.4,57.8c-1.8,1.7-4.2,2.7-6.7,2.7c-2.7,0-5.3-1.1-7.1-3.1c-3.7-3.9-3.5-10.1,0.4-13.8l58.1-54.6
	c1-0.9,1.7-2,2-3.3l17.4-57.2c5,7.7,7.8,16.8,7.8,26.5L397.6,184.6L397.6,184.6z M347.6,39.1c19.7,0,35.7,16,35.7,35.7
	s-16,35.7-35.7,35.7s-35.7-16-35.7-35.7S327.9,39.1,347.6,39.1z M331.9,123c4.9,1.6,10.2,2.5,15.7,2.5c5.5,0,10.7-0.9,15.7-2.5
	c5.4,1.7,10.3,4.2,14.7,7.4l-19.3,63.5l-56.1,52.8l-5-0.5v-76.7C297.6,148.1,311.6,129.2,331.9,123z M254.2,229.5
	c0.8-0.6,1.5-1.4,2.1-2.3l26.3-45V221l-11.2,19.2c-0.7,1.2-1.6,2.2-2.7,3l-0.2,0.1l-29.3-2.9L254.2,229.5z M73.6,242
	c0-18.1,14.7-32.8,32.8-32.8s32.8,14.7,32.8,32.8c0,1.5-0.1,3.1-0.3,4.7c-2.2,1.7-4.4,3.7-6.3,5.8c-8.5,9-20.9,14.1-33.8,14.1H84.7
	C77.6,260.3,73.6,251.5,73.6,242z M497,381.4c0,3.1-2.6,5.7-5.7,5.7H20.7c-3.1,0-5.7-2.6-5.7-5.7v-61c0-3.1,2.6-5.7,5.7-5.7h47.7
	c4.1,0,7.5-3.4,7.5-7.5s-3.4-7.5-7.5-7.5H32.2c-2.6-1.9-4.2-4.9-4.2-8.1c0-5.5,4.5-10,10-10h60.5c17,0,33.3-6.9,44.7-18.8
	c9-9.5,21.8-14.3,35-13.1l70.3,6.9v43.2H98.4c-4.1,0-7.5,3.4-7.5,7.5s3.4,7.5,7.5,7.5h392.9c3.1,0,5.7,2.6,5.7,5.7V381.4z"/>
<path class="st2" d="M466.5,417.1c-4.1,0-7.5,3.4-7.5,7.5v42.3c0,3.3-2.7,6.1-6.1,6.1c-3.3,0-6.1-2.7-6.1-6.1v-42.3
	c0-4.1-3.4-7.5-7.5-7.5s-7.5,3.4-7.5,7.5v42.3c0,11.6,9.4,21.1,21.1,21.1c11.6,0,21.1-9.4,21.1-21.1v-42.3
	C474,420.4,470.6,417.1,466.5,417.1z"/>
<path class="st2" d="M72.6,417c-4.1,0-7.5,3.4-7.5,7.5v42.3c0,3.3-2.7,6.1-6.1,6.1c-3.3,0-6.1-2.7-6.1-6.1v-42.3
	c0-4.1-3.4-7.5-7.5-7.5s-7.5,3.4-7.5,7.5v42.3c0,11.6,9.4,21.1,21.1,21.1s21.1-9.4,21.1-21.1v-42.3C80.1,420.4,76.8,417,72.6,417z"
	/>
</svg>
