<?xml version="1.0" encoding="utf-8"?>
<!-- Generator: Adobe Illustrator 26.0.3, SVG Export Plug-In . SVG Version: 6.00 Build 0)  -->
<svg version="1.1" id="Capa_1" xmlns="http://www.w3.org/2000/svg" xmlns:xlink="http://www.w3.org/1999/xlink" x="0px" y="0px"
	 viewBox="0 0 512 512" style="enable-background:new 0 0 512 512;" xml:space="preserve">
<style type="text/css">
	.st0{fill:#0F2132;}
	.st1{fill:#FFFFFF;}
	.st2{fill:#E65400;}
</style>
<rect x="649.5" class="st0" width="512" height="512"/>
<path class="st1" d="M1138.5,328.4c-3.9-5.2-5.3-11.9-3.9-18.4c1.7-7.5,2.4-15.2,2.1-23c-1.4-38.9-27.7-72.2-64.7-83V91.2l13.1-23.6
	c0.6-1.1,0.9-2.4,0.9-3.6V18.6c0-10.2-8.3-18.5-18.5-18.5h-41.3c-10.2,0-18.5,8.3-18.5,18.5V64c0,1.3,0.3,2.5,0.9,3.6l13.1,23.6V204
	c-14.5,4.2-27.7,12.1-38.4,22.8v-24.5h7.5c4.1,0,7.5-3.4,7.5-7.5s-3.4-7.5-7.5-7.5H801c-4.1,0-7.5,3.4-7.5,7.5s3.4,7.5,7.5,7.5h6.8
	v56.8c-32.4,27.2-50.9,66.7-50.9,109.1c0,34.5,12.3,66.1,32.8,90.8l-23.5,40.3c-2.1,3.6-0.9,8.2,2.7,10.3c1.2,0.7,2.5,1,3.8,1
	c2.6,0,5.1-1.3,6.5-3.7l21.2-36.4c25.6,24.8,60.5,40.1,98.9,40.1c16.6,0,32.8-2.8,48.3-8.4c3.9-1.4,5.9-5.7,4.5-9.6
	c-1.4-3.9-5.7-5.9-9.6-4.5c-13.8,5-28.4,7.5-43.2,7.5c-70.2,0-127.4-57.1-127.4-127.4c-1.4-68.6,58.7-128.5,127.4-127.4
	c22.6,0,44.5,5.9,63.8,17.1c-4,10.3-6,21.2-6,32.3c0,6.8,0.8,13.7,2.3,20.3c1.4,6.1,0,12.5-3.9,17.6c-1.1,1.5-2.2,2.9-3.2,4.4
	c-11.7-17.4-31.6-28.3-53-28.3c-35.2,0-63.9,28.7-63.9,63.9s28.7,63.9,63.9,63.9c12.7,0,25.1-3.9,35.5-10.8
	c11,51.9,57.2,90.7,112.1,90.7c64.9,0.1,114.9-53.7,114.6-114.6C1161.5,372.2,1153.6,348.4,1138.5,328.4L1138.5,328.4z
	 M1046.9,310.4c-3.5,0-6.9,0.4-10.1,1.2v-19.1h20.2v19.1C1053.8,310.8,1050.4,310.4,1046.9,310.4z M1036.8,254.4h20.2v23.1h-20.2
	V254.4z M1036.8,239.4v-23.1h20.2v23.1H1036.8z M1057,96.8v28.3h-20.2V96.8H1057z M1057,140.1v23.1h-20.2v-23.1H1057z M1057,178.2
	v23.1h-20.2v-23.1H1057z M1022.8,18.6c0-1.9,1.6-3.5,3.5-3.5h41.3c1.9,0,3.5,1.6,3.5,3.5V62l-11,19.7h-26.4l-11-19.7V18.6z
	 M968.4,243.6c-11.6-6.4-23.9-11.2-36.8-14.1v-27.2h36.8V243.6z M858.4,202.3v29.4c-12.5,3.7-24.4,9.2-35.6,16.3v-45.7L858.4,202.3
	L858.4,202.3z M873.4,228.1v-25.8h43.2v24.5c-5.7-0.7-11.5-1.1-17.3-1.1C890.5,225.8,881.8,226.6,873.4,228.1z M899.3,417
	c-26.9,0-48.9-21.9-48.9-48.9c0-26.9,21.9-48.9,48.9-48.9c19,0,36.4,11.3,44.3,28.3c-8.1,16.9-12.3,36.5-11.1,56.4
	C923.5,412.4,911.8,417,899.3,417L899.3,417z M1117.7,467.4c-18.2,18.5-44.2,29.6-70.7,29.5c-54.4,0-99-44-99.6-98.5
	c-0.2-21.8,6.7-43.3,20.1-61.1c6.6-8.7,9-19.6,6.5-30.1c-1.3-5.5-1.9-11.2-1.9-16.9c0-17.2,6-34,16.8-47.2
	c8.7-10.6,20.1-18.7,32.9-23.3v98.6c-11.3,7.9-18.7,21.1-18.7,35.9c0,16.1,8.8,30.9,23.1,38.6c3.6,2,8.2,0.6,10.2-3
	c2-3.6,0.6-8.2-3-10.2c-9.4-5-15.2-14.8-15.2-25.4c0-15.9,12.9-28.8,28.8-28.8s28.8,12.9,28.8,28.8c0,10.8-5.9,20.6-15.5,25.6
	c-3.7,1.9-5.1,6.5-3.2,10.1c1.3,2.6,3.9,4,6.6,4c1.2,0,2.4-0.3,3.5-0.9c14.5-7.6,23.5-22.5,23.5-38.8c0-14.8-7.4-28-18.7-35.9v-98.6
	c28.6,10.2,48.6,36.9,49.7,67.8c0.2,6.5-0.4,12.9-1.8,19.2c-2.4,10.8,0,22,6.6,30.7c13.1,17.4,20,38.1,20,59.9
	C1146.5,423.8,1136.3,448.7,1117.7,467.4L1117.7,467.4z"/>
<path class="st2" d="M733.5,203.4c-4.1,0-7.5,3.4-7.5,7.5v291.5c0,4.1,3.4,7.5,7.5,7.5s7.5-3.4,7.5-7.5V210.9
	C741,206.7,737.7,203.4,733.5,203.4z"/>
<path class="st2" d="M794.4,153.7c2.1,0.6,4.1,0.9,6.2,0.9c3.9,0,7.8-1,11.4-3c5.4-3,9.2-8,10.9-14l0-0.1c1.6-6,0.9-12.2-2.2-17.6
	c-3-5.4-8-9.2-13.9-10.9L678.9,73.5c-5.9-1.6-12.2-0.9-17.6,2.2c-5.4,3-9.2,8-10.9,14l0,0.1c-1.6,6-0.9,12.2,2.2,17.6
	c3,5.4,8,9.2,13.9,10.9l59.5,16.5v41.2c0,4.1,3.4,7.5,7.5,7.5c4.1,0,7.5-3.4,7.5-7.5v-37L794.4,153.7z M664.8,93.7l0-0.1
	c0.6-2.1,1.9-3.8,3.8-4.9c1.9-1.1,4.1-1.3,6.2-0.8l127.9,35.5c4.3,1.2,6.9,5.7,5.7,10l0,0.1c-0.6,2.1-1.9,3.8-3.8,4.9
	c-1.9,1.1-4.1,1.3-6.2,0.8l-127.9-35.5C666.2,102.6,663.6,98.1,664.8,93.7L664.8,93.7z"/>
<path class="st1" d="M1079.3,432.5h-65.7c-4.1,0-7.5,3.4-7.5,7.5c0,4.1,3.4,7.5,7.5,7.5h65.7c4.1,0,7.5-3.4,7.5-7.5
	C1086.8,435.8,1083.4,432.5,1079.3,432.5z"/>
<path class="st0" d="M488.9,328.4c-3.9-5.2-5.3-11.9-3.9-18.4c1.7-7.5,2.4-15.2,2.1-23c-1.4-38.9-27.7-72.2-64.7-83V91.2l13.1-23.6
	c0.6-1.1,0.9-2.4,0.9-3.6V18.6c0-10.2-8.3-18.5-18.5-18.5h-41.3c-10.2,0-18.5,8.3-18.5,18.5V64c0,1.3,0.3,2.5,0.9,3.6l13.1,23.6V204
	c-14.5,4.2-27.7,12.1-38.4,22.8v-24.5h7.5c4.1,0,7.5-3.4,7.5-7.5s-3.4-7.5-7.5-7.5H151.4c-4.1,0-7.5,3.4-7.5,7.5s3.4,7.5,7.5,7.5
	h6.8v56.8c-32.4,27.2-50.9,66.7-50.9,109.1c0,34.5,12.3,66.1,32.8,90.8l-23.5,40.3c-2.1,3.6-0.9,8.2,2.7,10.3c1.2,0.7,2.5,1,3.8,1
	c2.6,0,5.1-1.3,6.5-3.7l21.2-36.4c25.6,24.8,60.5,40.1,98.9,40.1c16.6,0,32.8-2.8,48.3-8.4c3.9-1.4,5.9-5.7,4.5-9.6
	c-1.4-3.9-5.7-5.9-9.6-4.5c-13.8,5-28.4,7.5-43.2,7.5c-70.2,0-127.4-57.1-127.4-127.4c-1.4-68.6,58.7-128.5,127.4-127.4
	c22.6,0,44.5,5.9,63.8,17.1c-4,10.3-6,21.2-6,32.3c0,6.8,0.8,13.7,2.3,20.3c1.4,6.1,0,12.5-3.9,17.6c-1.1,1.5-2.2,2.9-3.2,4.4
	c-11.7-17.4-31.6-28.3-53-28.3c-35.2,0-63.9,28.7-63.9,63.9s28.7,63.9,63.9,63.9c12.7,0,25.1-3.9,35.5-10.8
	c11,51.9,57.2,90.7,112.1,90.7c64.9,0.1,114.9-53.7,114.6-114.6C512,372.2,504,348.4,488.9,328.4L488.9,328.4z M397.4,310.4
	c-3.5,0-6.9,0.4-10.1,1.2v-19.1h20.2v19.1C404.3,310.8,400.9,310.4,397.4,310.4z M387.3,254.4h20.2v23.1h-20.2V254.4z M387.3,239.4
	v-23.1h20.2v23.1H387.3z M407.5,96.8v28.3h-20.2V96.8H407.5z M407.5,140.1v23.1h-20.2v-23.1H407.5z M407.5,178.2v23.1h-20.2v-23.1
	H407.5z M373.2,18.6c0-1.9,1.6-3.5,3.5-3.5h41.3c1.9,0,3.5,1.6,3.5,3.5V62l-11,19.7h-26.4l-11-19.7L373.2,18.6z M318.8,243.6
	c-11.6-6.4-23.9-11.2-36.8-14.1v-27.2h36.8V243.6z M208.9,202.3v29.4c-12.5,3.7-24.4,9.2-35.6,16.3v-45.7L208.9,202.3L208.9,202.3z
	 M223.9,228.1v-25.8h43.2v24.5c-5.7-0.7-11.5-1.1-17.3-1.1C241,225.8,232.3,226.6,223.9,228.1z M249.8,417
	c-26.9,0-48.9-21.9-48.9-48.9c0-26.9,21.9-48.9,48.9-48.9c19,0,36.4,11.3,44.3,28.3c-8.1,16.9-12.3,36.5-11.1,56.4
	C273.9,412.4,262.3,417,249.8,417L249.8,417z M468.1,467.4c-18.2,18.5-44.2,29.6-70.7,29.5c-54.4,0-99-44-99.6-98.5
	c-0.2-21.8,6.7-43.3,20.1-61.1c6.6-8.7,9-19.6,6.5-30.1c-1.3-5.5-1.9-11.2-1.9-16.9c0-17.2,6-34,16.8-47.2
	c8.7-10.6,20.1-18.7,32.9-23.3v98.6c-11.3,7.9-18.7,21.1-18.7,35.9c0,16.1,8.8,30.9,23.1,38.6c3.6,2,8.2,0.6,10.2-3
	c2-3.6,0.6-8.2-3-10.2c-9.4-5-15.2-14.8-15.2-25.4c0-15.9,12.9-28.8,28.8-28.8c15.9,0,28.8,12.9,28.8,28.8
	c0,10.8-5.9,20.6-15.5,25.6c-3.7,1.9-5.1,6.5-3.2,10.1c1.3,2.6,3.9,4,6.6,4c1.2,0,2.4-0.3,3.5-0.9c14.5-7.6,23.5-22.5,23.5-38.8
	c0-14.8-7.4-28-18.7-35.9v-98.6c28.6,10.2,48.6,36.9,49.7,67.8c0.2,6.5-0.4,12.9-1.8,19.2c-2.4,10.8,0,22,6.6,30.7
	c13.1,17.4,20,38.1,20,59.9C497,423.8,486.7,448.7,468.1,467.4L468.1,467.4z"/>
<path class="st2" d="M84,203.4c-4.1,0-7.5,3.4-7.5,7.5v291.5c0,4.1,3.4,7.5,7.5,7.5c4.1,0,7.5-3.4,7.5-7.5V210.9
	C91.5,206.7,88.1,203.4,84,203.4z"/>
<path class="st2" d="M144.8,153.7c2.1,0.6,4.1,0.9,6.2,0.9c3.9,0,7.8-1,11.4-3c5.4-3,9.2-8,10.9-14l0-0.1c1.6-6,0.9-12.2-2.2-17.6
	c-3-5.4-8-9.2-13.9-10.9L29.3,73.5c-5.9-1.6-12.2-0.9-17.6,2.2c-5.4,3-9.2,8-10.9,14l0,0.1c-1.6,6-0.9,12.2,2.2,17.6
	c3,5.4,8,9.2,13.9,10.9l59.5,16.5v41.2c0,4.1,3.4,7.5,7.5,7.5c4.1,0,7.5-3.4,7.5-7.5v-37L144.8,153.7z M15.3,93.7l0-0.1
	c0.6-2.1,1.9-3.8,3.8-4.9c1.9-1.1,4.1-1.3,6.2-0.8l127.9,35.5c4.3,1.2,6.9,5.7,5.7,10l0,0.1c-0.6,2.1-1.9,3.8-3.8,4.9
	c-1.9,1.1-4.1,1.3-6.2,0.8L21,103.7C16.6,102.6,14.1,98.1,15.3,93.7L15.3,93.7z"/>
<path class="st0" d="M429.7,432.5H364c-4.1,0-7.5,3.4-7.5,7.5c0,4.1,3.4,7.5,7.5,7.5h65.7c4.1,0,7.5-3.4,7.5-7.5
	C437.2,435.8,433.9,432.5,429.7,432.5z"/>
</svg>
