<?xml version="1.0" encoding="utf-8"?>
<!-- Generator: Adobe Illustrator 26.0.3, SVG Export Plug-In . SVG Version: 6.00 Build 0)  -->
<svg version="1.1" id="Capa_1" xmlns="http://www.w3.org/2000/svg" xmlns:xlink="http://www.w3.org/1999/xlink" x="0px" y="0px"
	 viewBox="0 0 512 512" style="enable-background:new 0 0 512 512;" xml:space="preserve">
<style type="text/css">
	.st0{fill:#0F2132;}
	.st1{fill:#FFFFFF;}
	.st2{fill:#E65400;}
</style>
<rect x="700.6" class="st0" width="512" height="512"/>
<g>
	<path class="st1" d="M1190.1,341.7h-38.3V203.2c0-12.3-10-22.3-22.3-22.3h-87.4v-18.2h43c5.3,0,10-3.2,11.9-8.2
		c1.9-5,0.6-10.5-3.4-14.1l-50.5-45.6c-4.9-4.4-12.2-4.4-17.1,0l-50.5,45.6c-4,3.6-5.3,9.1-3.4,14.1c1.9,5,6.6,8.2,11.9,8.2h43v18.2
		H771v-60.1c0-3.3,2.7-6,6-6h135.7c3.3,0,6,2.7,6,6v32.6c0,4.1,3.4,7.5,7.5,7.5s7.5-3.4,7.5-7.5v-32.6c0-11.6-9.4-21-21-21H777
		c-11.6,0-21,9.4-21,21v60.1h-47.9c-4.1,0-7.5,3.4-7.5,7.5v312.8c0,4.1,3.4,7.5,7.5,7.5c4.1,0,7.5-3.4,7.5-7.5V262h421.2v239.2
		c0,4.1,3.4,7.5,7.5,7.5c4.1,0,7.5-3.4,7.5-7.5V399.5h45.8v101.7c0,4.1,3.4,7.5,7.5,7.5c4.1,0,7.5-3.4,7.5-7.5v-137
		C1212.6,351.8,1202.5,341.7,1190.1,341.7L1190.1,341.7z M1034.6,107.4l44.7,40.4h-89.5L1034.6,107.4z M1081.3,195.9V247h-39.2
		v-51.1H1081.3z M1027.1,247h-39.2v-51.1h39.2V247z M879.4,195.9h39.2V247h-39.2V195.9z M864.4,247h-39.2v-51.1h39.2V247z
		 M933.7,195.9h39.2V247h-39.2V195.9z M715.6,195.9H756V247h-40.4V195.9z M771,195.9h39.2V247H771V195.9z M1096.3,247v-51.1h33.2
		c4,0,7.3,3.3,7.3,7.3V247H1096.3z M1151.8,384.5v-27.8h38.3c4.1,0,7.5,3.4,7.5,7.5v20.3H1151.8z"/>
	<path class="st1" d="M880.8,312.6H778.7c-4.1,0-7.5,3.4-7.5,7.5v35.6c0,4.1,3.4,7.5,7.5,7.5h6.7v98c0,4.1,3.4,7.5,7.5,7.5h73.6
		c4.1,0,7.5-3.4,7.5-7.5v-98h6.7c4.1,0,7.5-3.4,7.5-7.5v-35.6C888.3,316,884.9,312.6,880.8,312.6L880.8,312.6z M786.2,327.6h87.1
		v20.6h-87.1V327.6z M800.4,453.7V426H859v27.7H800.4z M859,411h-58.6v-47.7H859V411z"/>
	<path class="st1" d="M1073.9,312.6H971.8c-4.1,0-7.5,3.4-7.5,7.5v35.6c0,4.1,3.4,7.5,7.5,7.5h80.3V411h-58.6v-20.2
		c0-4.1-3.4-7.5-7.5-7.5s-7.5,3.4-7.5,7.5v70.4c0,4.1,3.4,7.5,7.5,7.5h73.6c4.1,0,7.5-3.4,7.5-7.5v-98h6.7c4.1,0,7.5-3.4,7.5-7.5
		v-35.6C1081.4,316,1078.1,312.6,1073.9,312.6z M993.6,453.7V426h58.6v27.7H993.6z M979.3,348.2v-20.6h87.1v20.6H979.3z"/>
	<path class="st1" d="M795,133.9c-4.1,0-7.5,3.4-7.5,7.5s3.4,7.5,7.5,7.5h39.8c4.1,0,7.5-3.4,7.5-7.5s-3.4-7.5-7.5-7.5H795z"/>
</g>
<path class="st2" d="M1099.6,38.7c3.7,1.8,8.2,0.3,10-3.4c5.1-10.5,15.6-17,27.2-17c16.7,0,30.3,13.6,30.3,30.3
	s-13.6,30.3-30.3,30.3c-11.5,0-21.8-6.3-27-16.6c-1.9-3.7-6.4-5.2-10.1-3.3c-3.7,1.9-5.2,6.4-3.3,10.1c7.8,15.3,23.3,24.8,40.4,24.8
	c25,0,45.3-20.3,45.3-45.3s-20.3-45.3-45.3-45.3c-17.5,0-33.1,9.7-40.7,25.4C1094.4,32.4,1095.9,36.9,1099.6,38.7L1099.6,38.7z"/>
<path class="st0" d="M489.5,341.7h-38.3V203.2c0-12.3-10-22.3-22.3-22.3h-87.4v-18.2h43c5.3,0,10-3.2,11.9-8.2
	c1.9-5,0.6-10.5-3.4-14.1l-50.5-45.6c-4.9-4.4-12.2-4.4-17.1,0L275,140.5c-4,3.6-5.3,9.1-3.4,14.1c1.9,5,6.6,8.2,11.9,8.2h43v18.2
	H70.4v-60.1c0-3.3,2.7-6,6-6h135.7c3.3,0,6,2.7,6,6v32.6c0,4.1,3.4,7.5,7.5,7.5s7.5-3.4,7.5-7.5v-32.6c0-11.6-9.4-21-21-21H76.4
	c-11.6,0-21,9.4-21,21v60.1H7.5c-4.1,0-7.5,3.4-7.5,7.5v312.8c0,4.1,3.4,7.5,7.5,7.5s7.5-3.4,7.5-7.5V262h421.2v239.2
	c0,4.1,3.4,7.5,7.5,7.5s7.5-3.4,7.5-7.5V399.5H497v101.7c0,4.1,3.4,7.5,7.5,7.5s7.5-3.4,7.5-7.5v-137
	C512,351.8,501.9,341.7,489.5,341.7L489.5,341.7z M334,107.4l44.7,40.4h-89.4L334,107.4z M380.8,195.9V247h-39.2v-51.1H380.8z
	 M326.5,247h-39.2v-51.1h39.2V247z M178.8,195.9h39.2V247h-39.2V195.9z M163.8,247h-39.2v-51.1h39.2V247z M233.1,195.9h39.2V247
	h-39.2V195.9z M15,195.9h40.4V247H15V195.9z M70.4,195.9h39.2V247H70.4V195.9z M395.8,247v-51.1H429c4,0,7.3,3.3,7.3,7.3V247H395.8z
	 M451.2,384.5v-27.8h38.3c4.1,0,7.5,3.4,7.5,7.5v20.3H451.2z"/>
<path class="st0" d="M180.2,312.6H78.1c-4.1,0-7.5,3.4-7.5,7.5v35.6c0,4.1,3.4,7.5,7.5,7.5h6.7v98c0,4.1,3.4,7.5,7.5,7.5h73.6
	c4.1,0,7.5-3.4,7.5-7.5v-98h6.7c4.1,0,7.5-3.4,7.5-7.5v-35.6C187.7,316,184.3,312.6,180.2,312.6L180.2,312.6z M85.6,327.6h87.1v20.6
	H85.6V327.6z M99.8,453.7V426h58.6v27.7H99.8z M158.4,411H99.8v-47.7h58.6V411z"/>
<path class="st0" d="M373.3,312.6H271.2c-4.1,0-7.5,3.4-7.5,7.5v35.6c0,4.1,3.4,7.5,7.5,7.5h80.3V411H293v-20.2
	c0-4.1-3.4-7.5-7.5-7.5s-7.5,3.4-7.5,7.5v70.4c0,4.1,3.4,7.5,7.5,7.5h73.6c4.1,0,7.5-3.4,7.5-7.5v-98h6.7c4.1,0,7.5-3.4,7.5-7.5
	v-35.6C380.8,316,377.5,312.6,373.3,312.6z M293,453.7V426h58.6v27.7H293z M278.7,348.2v-20.6h87.1v20.6H278.7z"/>
<path class="st0" d="M94.4,133.9c-4.1,0-7.5,3.4-7.5,7.5s3.4,7.5,7.5,7.5h39.8c4.1,0,7.5-3.4,7.5-7.5s-3.4-7.5-7.5-7.5H94.4z"/>
<path class="st2" d="M399,38.7c3.7,1.8,8.2,0.3,10-3.4c5.1-10.5,15.6-17,27.2-17c16.7,0,30.3,13.6,30.3,30.3S453,78.9,436.3,78.9
	c-11.5,0-21.8-6.3-27-16.6c-1.9-3.7-6.4-5.2-10.1-3.3c-3.7,1.9-5.2,6.4-3.3,10.1c7.8,15.3,23.3,24.8,40.4,24.8
	c25,0,45.3-20.3,45.3-45.3S461.3,3.3,436.3,3.3c-17.5,0-33.1,9.7-40.7,25.4C393.8,32.4,395.3,36.9,399,38.7L399,38.7z"/>
</svg>
