<?xml version="1.0" encoding="utf-8"?>
<!-- Generator: Adobe Illustrator 26.2.1, SVG Export Plug-In . SVG Version: 6.00 Build 0)  -->
<svg version="1.1" id="Layer_1" xmlns="http://www.w3.org/2000/svg" xmlns:xlink="http://www.w3.org/1999/xlink" x="0px" y="0px"
	 viewBox="0 0 700 700" style="enable-background:new 0 0 700 700;" xml:space="preserve">
<style type="text/css">
	.st0{fill:#0F2132;}
	.st1{fill:#E4540E;}
	.st2{fill:#FFFFFF;}
</style>
<rect x="917.1" class="st0" width="700" height="700"/>
<path class="st0" d="M628.2,280.7c0.2-27.7-20-50.6-47-54.3c-9.9-15.4-26.9-24.9-45.8-25c-16.5,0-31.8,7.4-42.1,20
	c-1.9-0.2-3.7-0.3-5.7-0.4c-24.4,0-44.7,18.5-47.6,42.2H321.4c-5.8-24.5-25.2-44.7-51.4-50.3c-3.3-0.7-6.6-1.1-10.1-1.3
	c-10.1-21.9-29.8-37.7-53.6-42.8c-5.3-1.1-10.7-1.7-16-1.7c-21.2,0-41.2,8.7-55.7,24c-2.7-0.3-5.5-0.4-8.3-0.4
	c-36,0-67.5,25.5-75,60.8c-4.3,20.1-0.5,40.6,10.7,57.8s28.4,29,48.4,33.3c4.4,0.9,10.4,1.6,18.5,1.9v234.3
	c-14.4,12.5-23.5,30.9-23.5,51.4c0,1.4,0.1,2.7,0.2,4.3c0,0.1,0,0.2,0,0.2c0,0,0,0,0,0c0,0.1,0,0.2,0,0.4h0c0.6,4.9,4.7,8.7,9.5,8.7
	c0.2,0,0.4,0,0.7,0c5.3-0.4,9.3-4.8,8.9-10c0,0,0-0.2,0-0.3c-0.1-0.8-0.1-1.5-0.1-2.3c0-0.3,0-0.6,0-0.9c0-13.5,5.5-25.8,14.4-34.7
	c8.9-8.9,21.2-14.4,34.7-14.4c27.1,0,49.1,22,49.1,49.1c0,0.4,0,0.8-0.1,1.2c0,0.6,0,1.3-0.1,1.9c0,0,0,0.5,0,0.5
	c-0.4,5.3,3.6,9.6,8.9,10c0.2,0,0.4,0,0.7,0c4.8,0,8.9-3.8,9.5-8.7l0,0c0-0.2,0-0.3,0-0.5v0v-0.1c0-0.4,0-0.8,0.1-1.2l0.4,0
	c-0.1-1-0.2-2.1-0.2-3.1c0-27.1,22-49.1,49.1-49.1s49.1,22,49.1,49.1c0,1.1-0.1,2.2-0.2,3.3l0,0.2c-0.4,5.3,3.6,9.8,8.9,10.2
	c0.2,0,0.5,0,0.7,0c5,0,9.2-3.9,9.6-9c0-0.5,0-1,0.1-1.6l0.5-0.1c-0.1-1-0.2-2.1-0.2-3.1c0-27.1,22-49.1,49.1-49.1
	c27.1,0,49.1,22,49.1,49.1c0,1.1-0.1,2.1-0.2,3.1c0,0,0,0.4,0,0.4c-0.4,5.3,3.6,9.7,8.9,10c0.2,0,0.4,0,0.7,0c5,0,9.2-4.1,9.6-9.1
	c0-0.4,0-0.9,0.1-1.3l0.4,0c-0.1-1-0.2-2.1-0.2-3.1c0-27.1,22-49.1,49.1-49.1c27.1,0,49.1,22,49.1,49.1c0,1.1-0.1,2.1-0.2,3.1
	c0,0,0,0.4,0,0.4c-0.4,5.3,3.6,9.7,8.9,10c0.2,0,0.4,0,0.7,0c5,0,9.2-4.1,9.6-9.1c0.1-1.5,0.2-3,0.2-4.5c0-17.5-6.6-33.3-17.5-45.4
	l0-250.2C605.3,333,628,309.4,628.2,280.7L628.2,280.7z M487.9,240.2c2.3,0,4.8,0.4,7.2,1c4.1,1.1,8.3-0.6,10.6-4.1
	c6.5-10.3,17.7-16.5,30-16.5c13.2,0.1,25.2,7.5,31.2,19.3c1.6,3.1,4.7,5.1,8.2,5.2c19.2,0.7,34.1,16.3,33.9,35.4
	c-0.1,18.2-14.2,33.2-32.1,34.9v-42.6c0-5.3-4.3-9.6-9.6-9.6l-107.9,0C462.2,250.1,473.9,240.2,487.9,240.2L487.9,240.2z
	 M114.5,323.8c-15-3.2-27.9-12.1-36.3-25c-8.4-12.9-11.2-28.3-8-43.3c5.6-26.4,29.3-45.6,56.2-45.6c3.4,0,6.9,0.3,10.3,0.9
	c3.4,0.6,6.9-0.7,9.1-3.4c13.6-16.5,35.5-24.3,56.5-19.9c19.5,4.2,35.3,17.9,42.1,36.8c1.4,3.9,5.1,6.5,9.4,6.3
	c4.1-0.2,8.3,0.1,12.1,0.9c17.1,3.6,30,16.1,35.3,31.5l-162.7,0c-5.3,0-9.6,4.3-9.6,9.6v52.5C122.6,324.9,117.7,324.5,114.5,323.8
	L114.5,323.8z M295.4,562.2c-1.4-0.1-2.8-0.3-4.3-0.3c-25,0-46.8,13.5-58.7,33.6c-8.3-14-21.5-24.7-37.1-30l2.3-0.3
	c-0.1-1-0.2-2.1-0.2-3.1c0-27.1,22-49.1,49.1-49.1c26.5,0,48.1,21.1,49,47.3C295.5,561.1,295.5,561.6,295.4,562.2L295.4,562.2z
	 M408.7,561.9c-25,0-46.9,13.6-58.8,33.7c-8-13.5-20.4-23.9-35.3-29.4c0-0.1,0-0.2,0-0.3c0.1-1.2,0.2-2.5,0.2-3.7
	c0-0.6-0.1-1.1-0.1-1.7c1.8-25.4,23-45.5,48.9-45.5c26.4,0,48,21,49,47.2C411.3,562.1,410,561.9,408.7,561.9L408.7,561.9z
	 M526.1,561.9c-25,0-46.8,13.5-58.7,33.6c-8-13.5-20.6-23.9-35.5-29.4c0-0.5-0.1-1-0.1-1.4c0-0.2,0-0.4,0-0.7c0-0.2,0-0.4,0-0.6
	c0.3-26.8,22.2-48.4,49-48.4c26.4,0,47.9,21,49,47.1C528.6,562.1,527.4,561.9,526.1,561.9L526.1,561.9z M480.9,495.8
	c-24.9,0-46.7,13.5-58.6,33.5c-11.9-20-33.7-33.5-58.6-33.5c-24.5,0-45.9,13-58,32.4c-11.8-20.4-33.8-34.3-59.1-34.3
	c-37.6,0-68.3,30.6-68.3,68.3v0c-1.5-0.1-3-0.3-4.5-0.3c-7.1,0-13.9,1.1-20.3,3.1c-1.8,0.6-3.6,1.2-5.3,1.9l0-284.5h409.6v287.4
	c-2.8-1.5-5.7-2.8-8.7-3.8c0-0.6,0.1-1.3,0.1-1.9C549.1,526.4,518.5,495.8,480.9,495.8L480.9,495.8z"/>
<path class="st1" d="M378.3,220.6c8,0,15.9-1.5,23.5-4.4c3.2-1.2,5.4-4.3,5.4-7.8c0-3.5-2.1-6.6-5.4-7.8
	c-18.7-7.2-31.3-25.5-31.3-45.5c0-20.3,12.3-38.2,31.3-45.5c3.2-1.2,5.4-4.4,5.4-7.8c0-3.5-2.1-6.6-5.4-7.8
	c-7.6-2.9-15.5-4.4-23.5-4.4c-36.1,0-65.6,29.4-65.6,65.6C312.8,191.2,342.2,220.6,378.3,220.6L378.3,220.6z M375.6,106.3
	c-13.6,12.2-21.9,29.9-21.9,48.7s8.3,36.5,21.9,48.7c-25.7-1.4-46.1-22.7-46.1-48.7S349.9,107.7,375.6,106.3z"/>
<path class="st1" d="M338.5,359.6c-4.3-2.7-9.9-1.4-12.6,2.9c-0.9,1.5-1.4,3.1-1.4,4.8v91.4c0,5,4.1,9.1,9.1,9.1
	c1.7,0,3.4-0.5,4.8-1.4l73.1-45.7c4.3-2.7,5.6-8.3,3-12.6c-0.7-1.2-1.8-2.2-3-3L338.5,359.6z M342.8,442.3v-58.5l46.7,29.3
	L342.8,442.3z"/>
<path class="st2" d="M1556.4,280.7c0.2-27.7-20-50.6-47-54.3c-9.9-15.4-26.9-24.9-45.8-25c-16.5,0-31.8,7.4-42.1,20
	c-1.9-0.2-3.7-0.3-5.7-0.4c-24.4,0-44.7,18.5-47.6,42.2h-118.6c-5.8-24.5-25.2-44.7-51.4-50.3c-3.3-0.7-6.6-1.1-10.1-1.3
	c-10.1-21.9-29.8-37.7-53.6-42.8c-5.3-1.1-10.7-1.7-16-1.7c-21.2,0-41.2,8.7-55.7,24c-2.7-0.3-5.5-0.4-8.3-0.4
	c-36,0-67.5,25.5-75,60.8c-4.3,20.1-0.5,40.6,10.7,57.8s28.4,29,48.4,33.3c4.4,0.9,10.4,1.6,18.5,1.9v234.3
	c-14.4,12.5-23.5,30.9-23.5,51.4c0,1.4,0.1,2.7,0.2,4.3c0,0.1,0,0.2,0,0.2c0,0,0,0,0,0c0,0.1,0,0.2,0,0.4h0c0.6,4.9,4.7,8.7,9.5,8.7
	c0.2,0,0.4,0,0.7,0c5.3-0.4,9.3-4.8,8.9-10c0,0,0-0.2,0-0.3c-0.1-0.8-0.1-1.5-0.1-2.3c0-0.3,0-0.6,0-0.9c0-13.5,5.5-25.8,14.4-34.7
	c8.9-8.9,21.2-14.4,34.7-14.4c27.1,0,49.1,22,49.1,49.1c0,0.4,0,0.8-0.1,1.2c0,0.6,0,1.3-0.1,1.9c0,0,0,0.5,0,0.5
	c-0.4,5.3,3.6,9.6,8.9,10c0.2,0,0.4,0,0.7,0c4.8,0,8.9-3.8,9.5-8.7l0,0c0-0.2,0-0.3,0-0.5v0v-0.1c0-0.4,0-0.8,0.1-1.2l0.4,0
	c-0.1-1-0.2-2.1-0.2-3.1c0-27.1,22-49.1,49.1-49.1s49.1,22,49.1,49.1c0,1.1-0.1,2.2-0.2,3.3l0,0.2c-0.4,5.3,3.6,9.8,8.9,10.2
	c0.2,0,0.5,0,0.7,0c5,0,9.2-3.9,9.6-9c0-0.5,0-1,0.1-1.6l0.5-0.1c-0.1-1-0.2-2.1-0.2-3.1c0-27.1,22-49.1,49.1-49.1
	c27.1,0,49.1,22,49.1,49.1c0,1.1-0.1,2.1-0.2,3.1c0,0,0,0.4,0,0.4c-0.4,5.3,3.6,9.7,8.9,10c0.2,0,0.4,0,0.7,0c5,0,9.2-4.1,9.6-9.1
	c0-0.4,0-0.9,0.1-1.3l0.4,0c-0.1-1-0.2-2.1-0.2-3.1c0-27.1,22-49.1,49.1-49.1c27.1,0,49.1,22,49.1,49.1c0,1.1-0.1,2.1-0.2,3.1
	c0,0,0,0.4,0,0.4c-0.4,5.3,3.6,9.7,8.9,10c0.2,0,0.4,0,0.7,0c5,0,9.2-4.1,9.6-9.1c0.1-1.5,0.2-3,0.2-4.5c0-17.5-6.6-33.3-17.5-45.4
	l0-250.2C1533.5,333,1556.2,309.4,1556.4,280.7L1556.4,280.7z M1416,240.2c2.3,0,4.8,0.4,7.2,1c4.1,1.1,8.3-0.6,10.6-4.1
	c6.5-10.3,17.7-16.5,30-16.5c13.2,0.1,25.2,7.5,31.2,19.3c1.6,3.1,4.7,5.1,8.2,5.2c19.2,0.7,34.1,16.3,33.9,35.4
	c-0.1,18.2-14.2,33.2-32.1,34.9v-42.6c0-5.3-4.3-9.6-9.6-9.6l-107.9,0C1390.4,250.1,1402,240.2,1416,240.2L1416,240.2z
	 M1042.7,323.8c-15-3.2-27.9-12.1-36.3-25c-8.4-12.9-11.2-28.3-8-43.3c5.6-26.4,29.3-45.6,56.2-45.6c3.4,0,6.9,0.3,10.3,0.9
	c3.4,0.6,6.9-0.7,9.1-3.4c13.6-16.5,35.5-24.3,56.5-19.9c19.5,4.2,35.3,17.9,42.1,36.8c1.4,3.9,5.1,6.5,9.4,6.3
	c4.1-0.2,8.3,0.1,12.1,0.9c17.1,3.6,30,16.1,35.3,31.5l-162.7,0c-5.3,0-9.6,4.3-9.6,9.6v52.5
	C1050.8,324.9,1045.9,324.5,1042.7,323.8L1042.7,323.8z M1223.6,562.2c-1.4-0.1-2.8-0.3-4.3-0.3c-25,0-46.8,13.5-58.7,33.6
	c-8.3-14-21.5-24.7-37.1-30l2.3-0.3c-0.1-1-0.2-2.1-0.2-3.1c0-27.1,22-49.1,49.1-49.1c26.5,0,48.1,21.1,49,47.3
	C1223.7,561.1,1223.6,561.6,1223.6,562.2L1223.6,562.2z M1336.9,561.9c-25,0-46.9,13.6-58.8,33.7c-8-13.5-20.4-23.9-35.3-29.4
	c0-0.1,0-0.2,0-0.3c0.1-1.2,0.2-2.5,0.2-3.7c0-0.6-0.1-1.1-0.1-1.7c1.8-25.4,23-45.5,48.9-45.5c26.4,0,48,21,49,47.2
	C1339.5,562.1,1338.2,561.9,1336.9,561.9L1336.9,561.9z M1454.3,561.9c-25,0-46.8,13.5-58.7,33.6c-8-13.5-20.6-23.9-35.5-29.4
	c0-0.5-0.1-1-0.1-1.4c0-0.2,0-0.4,0-0.7c0-0.2,0-0.4,0-0.6c0.3-26.8,22.2-48.4,49-48.4c26.4,0,47.9,21,49,47.1
	C1456.8,562.1,1455.6,561.9,1454.3,561.9L1454.3,561.9z M1409,495.8c-24.9,0-46.7,13.5-58.6,33.5c-11.9-20-33.7-33.5-58.6-33.5
	c-24.5,0-45.9,13-58,32.4c-11.8-20.4-33.8-34.3-59.1-34.3c-37.6,0-68.3,30.6-68.3,68.3v0c-1.5-0.1-3-0.3-4.5-0.3
	c-7.1,0-13.9,1.1-20.3,3.1c-1.8,0.6-3.6,1.2-5.3,1.9l0-284.5h409.6v287.4c-2.8-1.5-5.7-2.8-8.7-3.8c0-0.6,0.1-1.3,0.1-1.9
	C1477.3,526.4,1446.7,495.8,1409,495.8L1409,495.8z"/>
<path class="st1" d="M1306.5,220.6c8,0,15.9-1.5,23.5-4.4c3.2-1.2,5.4-4.3,5.4-7.8c0-3.5-2.1-6.6-5.4-7.8
	c-18.7-7.2-31.3-25.5-31.3-45.5c0-20.3,12.3-38.2,31.3-45.5c3.2-1.2,5.4-4.4,5.4-7.8c0-3.5-2.1-6.6-5.4-7.8
	c-7.6-2.9-15.5-4.4-23.5-4.4c-36.1,0-65.6,29.4-65.6,65.6C1240.9,191.2,1270.3,220.6,1306.5,220.6L1306.5,220.6z M1303.8,106.3
	c-13.6,12.2-21.9,29.9-21.9,48.7s8.3,36.5,21.9,48.7c-25.7-1.4-46.1-22.7-46.1-48.7S1278.1,107.7,1303.8,106.3z"/>
<path class="st1" d="M1266.7,359.6c-4.3-2.7-9.9-1.4-12.6,2.9c-0.9,1.5-1.4,3.1-1.4,4.8v91.4c0,5,4.1,9.1,9.1,9.1
	c1.7,0,3.4-0.5,4.8-1.4l73.1-45.7c4.3-2.7,5.6-8.3,3-12.6c-0.7-1.2-1.8-2.2-3-3L1266.7,359.6z M1271,442.3v-58.5l46.7,29.3
	L1271,442.3z"/>
</svg>
