<svg xmlns="http://www.w3.org/2000/svg" width="510.15" height="512.019" viewBox="0 0 510.15 512.019">
  <g id="Paddle_Tennis" data-name="Paddle Tennis" transform="translate(1580 -1889.281)">
    <path id="Path_38" data-name="Path 38" d="M-531.8,264.8c1.1,24.3,1.2,52.3-7.1,75.9l-1.2,3.4a5.736,5.736,0,0,0,7.3,7.3l3.4-1.2c23.7-8.3,51.7-8.2,75.9-7.1l4.5.2a5.751,5.751,0,0,0,4.3-9.8l-77.7-77.7a5.751,5.751,0,0,0-9.8,4.3Zm15.5,18.3,35,35a5.721,5.721,0,0,1-3.9,9.8,211.809,211.809,0,0,0-27.4,2.7,5.82,5.82,0,0,1-6.7-6.7c2.5-13.5,3.1-27.4,3-40.8Z" transform="translate(-881.35 1889.3)" fill="#0f2132"/>
    <path id="Path_39" data-name="Path 39" d="M-458.4,170.6a24.987,24.987,0,0,0-35.4,0,24.987,24.987,0,0,0,0,35.4,24.9,24.9,0,0,0,17.7,7.3,24.9,24.9,0,0,0,17.7-7.3,24.987,24.987,0,0,0,0-35.4ZM-469,195.4a10.08,10.08,0,0,1-14.2,0,10.08,10.08,0,0,1,0-14.2,9.9,9.9,0,0,1,7.1-2.9,9.9,9.9,0,0,1,7.1,2.9A10.08,10.08,0,0,1-469,195.4Z" transform="translate(-881.35 1889.3)" fill="#e4540e"/>
    <path id="Path_40" data-name="Path 40" d="M-444.2,156.4a24.882,24.882,0,0,0,17.7,7.3,24.882,24.882,0,0,0,17.7-7.3,24.882,24.882,0,0,0,7.3-17.7,24.882,24.882,0,0,0-7.3-17.7h0a24.882,24.882,0,0,0-17.7-7.3,24.882,24.882,0,0,0-17.7,7.3,24.882,24.882,0,0,0-7.3,17.7,25.055,25.055,0,0,0,7.3,17.7Zm10.6-24.8a9.9,9.9,0,0,1,7.1-2.9,9.9,9.9,0,0,1,7.1,2.9h0a9.9,9.9,0,0,1,2.9,7.1,9.9,9.9,0,0,1-2.9,7.1,9.9,9.9,0,0,1-7.1,2.9,9.9,9.9,0,0,1-7.1-2.9,9.9,9.9,0,0,1-2.9-7.1A9.9,9.9,0,0,1-433.6,131.6Z" transform="translate(-881.35 1889.3)" fill="#e4540e"/>
    <path id="Path_41" data-name="Path 41" d="M-384,195.4a24.987,24.987,0,0,0-35.4,0,24.987,24.987,0,0,0,0,35.4,24.882,24.882,0,0,0,17.7,7.3,24.882,24.882,0,0,0,17.7-7.3,24.987,24.987,0,0,0,0-35.4Zm-10.6,24.8a9.9,9.9,0,0,1-7.1,2.9,9.9,9.9,0,0,1-7.1-2.9,10.08,10.08,0,0,1,0-14.2,9.82,9.82,0,0,1,7.1-2.9,10.243,10.243,0,0,1,7.1,2.9,9.9,9.9,0,0,1,2.9,7.1,9.506,9.506,0,0,1-2.9,7.1Z" transform="translate(-881.35 1889.3)" fill="#e4540e"/>
    <path id="Path_42" data-name="Path 42" d="M-433.6,245a24.987,24.987,0,0,0-35.4,0,24.987,24.987,0,0,0,0,35.4,24.9,24.9,0,0,0,17.7,7.3,24.9,24.9,0,0,0,17.7-7.3,24.987,24.987,0,0,0,0-35.4Zm-10.6,24.8a10.08,10.08,0,0,1-14.2,0,10.08,10.08,0,0,1,0-14.2,9.82,9.82,0,0,1,7.1-2.9,10.243,10.243,0,0,1,7.1,2.9A10.08,10.08,0,0,1-444.2,269.8Z" transform="translate(-881.35 1889.3)" fill="#e4540e"/>
    <path id="Path_43" data-name="Path 43" d="M-327.3,262.9a24.882,24.882,0,0,0,17.7-7.3,24.882,24.882,0,0,0,7.3-17.7,24.882,24.882,0,0,0-7.3-17.7,24.987,24.987,0,0,0-35.4,0,24.882,24.882,0,0,0-7.3,17.7,24.882,24.882,0,0,0,7.3,17.7,25.229,25.229,0,0,0,17.7,7.3Zm-7.1-32.1a9.82,9.82,0,0,1,7.1-2.9,10.243,10.243,0,0,1,7.1,2.9,9.9,9.9,0,0,1,2.9,7.1,9.9,9.9,0,0,1-2.9,7.1,9.9,9.9,0,0,1-7.1,2.9,9.9,9.9,0,0,1-7.1-2.9,9.9,9.9,0,0,1-2.9-7.1A9.9,9.9,0,0,1-334.4,230.8Z" transform="translate(-881.35 1889.3)" fill="#e4540e"/>
    <path id="Path_44" data-name="Path 44" d="M-320.2,96.2a24.882,24.882,0,0,0-7.3,17.7,24.882,24.882,0,0,0,7.3,17.7,24.9,24.9,0,0,0,17.7,7.3,24.9,24.9,0,0,0,17.7-7.3,24.882,24.882,0,0,0,7.3-17.7,24.882,24.882,0,0,0-7.3-17.7,24.882,24.882,0,0,0-17.7-7.3A24.4,24.4,0,0,0-320.2,96.2Zm27.8,17.7a9.9,9.9,0,0,1-2.9,7.1,10.08,10.08,0,0,1-14.2,0,9.9,9.9,0,0,1-2.9-7.1,9.9,9.9,0,0,1,2.9-7.1,9.9,9.9,0,0,1,7.1-2.9,9.9,9.9,0,0,1,7.1,2.9A10.327,10.327,0,0,1-292.4,113.9Z" transform="translate(-881.35 1889.3)" fill="#e4540e"/>
    <path id="Path_45" data-name="Path 45" d="M-295.3,170.6a24.987,24.987,0,0,0,0,35.4,24.9,24.9,0,0,0,17.7,7.3,24.9,24.9,0,0,0,17.7-7.3,24.987,24.987,0,0,0,0-35.4,24.987,24.987,0,0,0-35.4,0Zm24.8,24.8a10.08,10.08,0,0,1-14.2,0,9.9,9.9,0,0,1-2.9-7.1,9.9,9.9,0,0,1,2.9-7.1,9.82,9.82,0,0,1,7.1-2.9,10.243,10.243,0,0,1,7.1,2.9,10.08,10.08,0,0,1,0,14.2Z" transform="translate(-881.35 1889.3)" fill="#e4540e"/>
    <path id="Path_46" data-name="Path 46" d="M-376.9,312.6a24.882,24.882,0,0,0,17.7-7.3,24.882,24.882,0,0,0,7.3-17.7,24.882,24.882,0,0,0-7.3-17.7,24.882,24.882,0,0,0-17.7-7.3,24.882,24.882,0,0,0-17.7,7.3,24.987,24.987,0,0,0,0,35.4A24.882,24.882,0,0,0-376.9,312.6Zm-7.1-32.2a9.9,9.9,0,0,1,7.1-2.9,9.9,9.9,0,0,1,7.1,2.9,9.9,9.9,0,0,1,2.9,7.1,9.9,9.9,0,0,1-2.9,7.1,9.9,9.9,0,0,1-7.1,2.9,9.9,9.9,0,0,1-7.1-2.9A10.08,10.08,0,0,1-384,280.4Z" transform="translate(-881.35 1889.3)" fill="#e4540e"/>
    <path id="Path_47" data-name="Path 47" d="M-394.6,71.3a24.987,24.987,0,0,0,0,35.4,24.882,24.882,0,0,0,17.7,7.3,24.882,24.882,0,0,0,17.7-7.3A24.882,24.882,0,0,0-351.9,89a24.882,24.882,0,0,0-7.3-17.7A24.882,24.882,0,0,0-376.9,64a24.882,24.882,0,0,0-17.7,7.3ZM-369.8,82a9.9,9.9,0,0,1,2.9,7.1,9.9,9.9,0,0,1-2.9,7.1,9.9,9.9,0,0,1-7.1,2.9,9.9,9.9,0,0,1-7.1-2.9A10.08,10.08,0,0,1-384,82a9.9,9.9,0,0,1,7.1-2.9A9.506,9.506,0,0,1-369.8,82Z" transform="translate(-881.35 1889.3)" fill="#e4540e"/>
    <path id="Path_48" data-name="Path 48" d="M-334.4,145.8a24.987,24.987,0,0,0-35.4,0,24.987,24.987,0,0,0,0,35.4,24.882,24.882,0,0,0,17.7,7.3,24.882,24.882,0,0,0,17.7-7.3,24.882,24.882,0,0,0,7.3-17.7,24.081,24.081,0,0,0-7.3-17.7ZM-345,170.6a10.08,10.08,0,0,1-14.2,0,10.08,10.08,0,0,1,0-14.2,9.82,9.82,0,0,1,7.1-2.9,10.243,10.243,0,0,1,7.1,2.9,9.9,9.9,0,0,1,2.9,7.1A9.506,9.506,0,0,1-345,170.6Z" transform="translate(-881.35 1889.3)" fill="#e4540e"/>
    <path id="Path_49" data-name="Path 49" d="M-456.4,377h0a7.558,7.558,0,0,1,7.7-7.3h0a7.558,7.558,0,0,1,7.3,7.7h0a7.558,7.558,0,0,1-7.7,7.3h0A7.433,7.433,0,0,1-456.4,377Z" transform="translate(-881.35 1889.3)" fill="#0f2132"/>
    <path id="Path_50" data-name="Path 50" d="M-545,383.8l-24.7-24.7a4.54,4.54,0,0,1-.6-5.7c14.2-22.1,13.1-55.2,11.8-89.9-.8-22.3-1.6-45.3,1.4-66.9a160.565,160.565,0,0,1,12.4-42.9,4.546,4.546,0,0,0-2.3-6l-5.2-2.5a4.574,4.574,0,0,0-6.2,2.3,175.4,175.4,0,0,0-13.6,47c-3.2,22.9-2.3,46.6-1.5,69.5,1.3,36.3,2.5,70.5-14.4,87.5l-82.9,82.9a4.185,4.185,0,0,1-1.8,1.1l-13.8,4.6a4.185,4.185,0,0,0-1.8,1.1l-2.5,2.5a27.16,27.16,0,0,0,0,38.4l23.3,23.3a22.478,22.478,0,0,0,15.9,6.6,22.067,22.067,0,0,0,15.9-6.6l5.8-5.8a4.184,4.184,0,0,0,1.1-1.8l4.6-13.8a4.185,4.185,0,0,1,1.1-1.8l82.9-82.9c9.3-9.3,23.9-15.4,63.9-15.1a4.722,4.722,0,0,0,4.7-4.5l.1-5.7a4.549,4.549,0,0,0-4.6-4.7c-24.5-.4-50.9,1.1-69,14.5Zm-63,9,3.4-3.4a4.584,4.584,0,0,1,7.3,1l14.3,25.8a4.542,4.542,0,0,1-.8,5.5l-3.4,3.4a4.584,4.584,0,0,1-7.3-1l-14.3-25.8A4.85,4.85,0,0,1-608,392.8Zm3.1,50.2-3.4,3.4a4.584,4.584,0,0,1-7.3-1l-14.3-25.8a4.542,4.542,0,0,1,.8-5.5l3.4-3.4a4.584,4.584,0,0,1,7.3,1l14.3,25.8A4.874,4.874,0,0,1-604.9,443Zm18.2-71.4.9-.9a4.708,4.708,0,0,1,6.6,0l20.1,20.1a4.708,4.708,0,0,1,0,6.6l-6.6,6.6a4.584,4.584,0,0,1-7.3-1l-14.3-25.8A4.373,4.373,0,0,1-586.7,371.6Zm-59.5,123.2a7.493,7.493,0,0,1-5.3,2.2,7.492,7.492,0,0,1-5.3-2.2l-23.3-23.3a12.253,12.253,0,0,1,0-17.2h0a4.185,4.185,0,0,1,1.8-1.1l6.1-2a4.51,4.51,0,0,1,4.7,1.1l26.6,26.6a4.558,4.558,0,0,1,1.1,4.7l-2,6.1a4.185,4.185,0,0,1-1.1,1.8Zm12.6-29.8-20.1-20.1a4.708,4.708,0,0,1,0-6.6l6.6-6.6a4.584,4.584,0,0,1,7.3,1l14.3,25.8a4.542,4.542,0,0,1-.8,5.5l-.9.9A4.382,4.382,0,0,1-633.6,465Z" transform="translate(-881.35 1889.3)" fill="#0f2132"/>
    <path id="Path_51" data-name="Path 51" d="M-407,36.1h0a7.555,7.555,0,0,1,7.5,7.5h0a7.555,7.555,0,0,1-7.5,7.5h0a7.555,7.555,0,0,1-7.5-7.5h0A7.555,7.555,0,0,1-407,36.1Z" transform="translate(-881.35 1889.3)" fill="#e4540e"/>
    <path id="Path_52" data-name="Path 52" d="M-437,51.1h0a7.555,7.555,0,0,1,7.5,7.5h0a7.555,7.555,0,0,1-7.5,7.5h0a7.555,7.555,0,0,1-7.5-7.5h0A7.555,7.555,0,0,1-437,51.1Z" transform="translate(-881.35 1889.3)" fill="#e4540e"/>
    <path id="Path_53" data-name="Path 53" d="M-256,276.6A54.393,54.393,0,0,0-310.4,331a54.35,54.35,0,0,1,54.3-54.3,54.263,54.263,0,0,1,39.9,17.5h-10.9A36.831,36.831,0,0,0-263.9,331a36.831,36.831,0,0,0,36.8,36.8h10.9a54.058,54.058,0,0,1-39.9,17.5A54.35,54.35,0,0,1-310.4,331,54.393,54.393,0,0,0-256,385.4,54.393,54.393,0,0,0-201.6,331,54.329,54.329,0,0,0-256,276.6Zm28.9,75.7A21.317,21.317,0,0,1-248.4,331a21.317,21.317,0,0,1,21.3-21.3h21a53.67,53.67,0,0,1,4.3,21.3,56.242,56.242,0,0,1-4.3,21.3Z" transform="translate(-881.35 1889.3)" fill="#e4540e"/>
    <path id="Path_54" data-name="Path 54" d="M-219,274.6h0c49.9-64,38.1-138.4-33.9-210.3C-290.2,27.1-328,5.8-365.3,1-406.8-4.3-446,11.1-481.7,46.8c-22.4,22.4-45.6,46.6-63.3,75.5a7.463,7.463,0,0,0,2.7,10.4h0a7.545,7.545,0,0,0,10.1-2.6c16.9-27.6,39.4-51,61.1-72.7,32.2-32.2,67.2-46.2,103.9-41.5,34,4.3,68.9,24.2,103.7,59,84.6,84.6,64.6,150.9,30.8,192.8a67.408,67.408,0,0,0-23.4-4.2A67.6,67.6,0,0,0-323.6,331a70.221,70.221,0,0,0,1.6,14.6c-21.1,12.5-41.8,20-63.2,23a264.351,264.351,0,0,1-35.8,2.1,5.357,5.357,0,0,0-5.4,5.3v4.3a5.357,5.357,0,0,0,5.3,5.4h.1a281.1,281.1,0,0,0,38-2.2c22.5-3.1,44.2-10.8,66.1-23.4A67.685,67.685,0,0,0-256,398.6a67.6,67.6,0,0,0,67.5-67.5A67.99,67.99,0,0,0-219,274.6Zm-35.3,109a52.592,52.592,0,0,1-54.3-54.3c.9-27.5,23.3-50,50.8-50.8a52.592,52.592,0,0,1,54.3,54.3A52.643,52.643,0,0,1-254.3,383.6Z" transform="translate(-881.35 1889.3)" fill="#0f2132"/>
  </g>
</svg>
