<?xml version="1.0" encoding="utf-8"?>
<!-- Generator: Adobe Illustrator 26.2.1, SVG Export Plug-In . SVG Version: 6.00 Build 0)  -->
<svg version="1.1" id="Capa_1" xmlns="http://www.w3.org/2000/svg" xmlns:xlink="http://www.w3.org/1999/xlink" x="0px" y="0px"
	 viewBox="0 0 512 512" style="enable-background:new 0 0 512 512;" xml:space="preserve">
<style type="text/css">
	.st0{fill:#0F2132;}
	.st1{fill:#FFFFFF;}
	.st2{fill:#E4540E;}
</style>
<rect x="-3.7" y="-7.3" class="st0" width="518.3" height="527"/>
<path class="st1" d="M168.8,264.8c1.1,24.3,1.2,52.3-7.1,75.9l-1.2,3.4c-1.6,4.5,2.8,8.9,7.3,7.3l3.4-1.2
	c23.7-8.3,51.7-8.2,75.9-7.1l4.5,0.2c5.2,0.2,8-6.1,4.3-9.8L178.4,256c-3.7-3.7-10-0.9-9.8,4.3L168.8,264.8z M184.3,283.1l35,35
	c3.6,3.6,1.2,9.6-3.9,9.8c-9.1,0.3-18.3,1.2-27.4,2.7c-3.9,0.7-7.3-2.7-6.7-6.7C183.7,310.4,184.4,296.5,184.3,283.1L184.3,283.1z"
	/>
<path class="st2" d="M242.2,170.6c-9.8-9.8-25.7-9.8-35.4,0s-9.8,25.7,0,35.4c4.9,4.9,11.3,7.3,17.7,7.3c6.4,0,12.8-2.4,17.7-7.3
	C252,196.2,252,180.3,242.2,170.6L242.2,170.6z M231.6,195.4c-3.9,3.9-10.3,3.9-14.2,0c-3.9-3.9-3.9-10.3,0-14.2
	c1.9-1.9,4.4-2.9,7.1-2.9c2.7,0,5.2,1,7.1,2.9C235.5,185.1,235.5,191.5,231.6,195.4z"/>
<path class="st2" d="M256.4,156.4c4.7,4.7,11,7.3,17.7,7.3c6.7,0,13-2.6,17.7-7.3c4.7-4.7,7.3-11,7.3-17.7c0-6.7-2.6-13-7.3-17.7
	c0,0,0,0,0,0c-4.7-4.7-11-7.3-17.7-7.3s-13,2.6-17.7,7.3c-4.7,4.7-7.3,11-7.3,17.7C249.1,145.4,251.7,151.6,256.4,156.4L256.4,156.4
	z M267,131.6c1.9-1.9,4.4-2.9,7.1-2.9s5.2,1,7.1,2.9v0c1.9,1.9,2.9,4.4,2.9,7.1c0,2.7-1,5.2-2.9,7.1c-1.9,1.9-4.4,2.9-7.1,2.9
	c-2.7,0-5.2-1-7.1-2.9c-1.9-1.9-2.9-4.4-2.9-7.1C264.1,136,265.1,133.5,267,131.6z"/>
<path class="st2" d="M316.6,195.4c-9.8-9.8-25.7-9.8-35.4,0c-9.8,9.8-9.8,25.7,0,35.4c4.7,4.7,11,7.3,17.7,7.3s13-2.6,17.7-7.3
	C326.4,221,326.4,205.2,316.6,195.4L316.6,195.4z M306,220.2c-1.9,1.9-4.4,2.9-7.1,2.9s-5.2-1-7.1-2.9c-3.9-3.9-3.9-10.3,0-14.2
	c2-2,4.5-2.9,7.1-2.9s5.1,1,7.1,2.9c1.9,1.9,2.9,4.4,2.9,7.1C309,215.8,307.9,218.3,306,220.2L306,220.2z"/>
<path class="st2" d="M267,245c-9.8-9.8-25.7-9.8-35.4,0c-9.8,9.8-9.8,25.7,0,35.4c4.9,4.9,11.3,7.3,17.7,7.3
	c6.4,0,12.8-2.4,17.7-7.3C276.8,270.7,276.8,254.8,267,245L267,245z M256.4,269.8c-3.9,3.9-10.3,3.9-14.2,0s-3.9-10.3,0-14.2
	c2-2,4.5-2.9,7.1-2.9s5.1,1,7.1,2.9C260.3,259.5,260.3,265.9,256.4,269.8z"/>
<path class="st2" d="M373.3,262.9c6.7,0,13-2.6,17.7-7.3c4.7-4.7,7.3-11,7.3-17.7s-2.6-13-7.3-17.7c-9.8-9.8-25.7-9.8-35.4,0
	c-4.7,4.7-7.3,11-7.3,17.7s2.6,13,7.3,17.7C360.4,260.3,366.6,262.9,373.3,262.9L373.3,262.9z M366.2,230.8c2-2,4.5-2.9,7.1-2.9
	s5.1,1,7.1,2.9c1.9,1.9,2.9,4.4,2.9,7.1s-1,5.2-2.9,7.1c-1.9,1.9-4.4,2.9-7.1,2.9c-2.7,0-5.2-1-7.1-2.9c-1.9-1.9-2.9-4.4-2.9-7.1
	S364.3,232.7,366.2,230.8z"/>
<path class="st2" d="M380.4,96.2c-4.7,4.7-7.3,11-7.3,17.7c0,6.7,2.6,13,7.3,17.7c4.9,4.9,11.3,7.3,17.7,7.3s12.8-2.4,17.7-7.3
	c4.7-4.7,7.3-11,7.3-17.7c0-6.7-2.6-13-7.3-17.7c-4.7-4.7-11-7.3-17.7-7.3C391.5,88.8,385.2,91.4,380.4,96.2z M408.2,113.9
	c0,2.7-1,5.2-2.9,7.1c-3.9,3.9-10.3,3.9-14.2,0c-1.9-1.9-2.9-4.4-2.9-7.1c0-2.7,1-5.2,2.9-7.1c1.9-1.9,4.4-2.9,7.1-2.9
	s5.2,1,7.1,2.9C407.1,108.7,408.2,111.2,408.2,113.9z"/>
<path class="st2" d="M405.2,170.6c-9.8,9.8-9.8,25.7,0,35.4c4.9,4.9,11.3,7.3,17.7,7.3c6.4,0,12.8-2.4,17.7-7.3
	c9.8-9.8,9.8-25.7,0-35.4C430.9,160.8,415,160.8,405.2,170.6L405.2,170.6z M430.1,195.4c-3.9,3.9-10.3,3.9-14.2,0
	c-1.9-1.9-2.9-4.4-2.9-7.1s1-5.2,2.9-7.1c2-2,4.5-2.9,7.1-2.9c2.6,0,5.1,1,7.1,2.9C434,185.1,434,191.5,430.1,195.4L430.1,195.4z"/>
<path class="st2" d="M323.7,312.6c6.7,0,13-2.6,17.7-7.3c4.7-4.7,7.3-11,7.3-17.7s-2.6-13-7.3-17.7c-4.7-4.7-11-7.3-17.7-7.3
	s-13,2.6-17.7,7.3c-9.8,9.8-9.8,25.7,0,35.4C310.7,310,317,312.6,323.7,312.6z M316.6,280.4c1.9-1.9,4.4-2.9,7.1-2.9s5.2,1,7.1,2.9
	c1.9,1.9,2.9,4.4,2.9,7.1s-1,5.2-2.9,7.1c-1.9,1.9-4.4,2.9-7.1,2.9s-5.2-1-7.1-2.9C312.7,290.7,312.7,284.3,316.6,280.4z"/>
<path class="st2" d="M306,71.3c-9.8,9.8-9.8,25.7,0,35.4c4.7,4.7,11,7.3,17.7,7.3s13-2.6,17.7-7.3c4.7-4.7,7.3-11,7.3-17.7
	c0-6.7-2.6-13-7.3-17.7c-4.7-4.7-11-7.3-17.7-7.3S310.7,66.6,306,71.3L306,71.3z M330.8,82c1.9,1.9,2.9,4.4,2.9,7.1s-1,5.2-2.9,7.1
	c-1.9,1.9-4.4,2.9-7.1,2.9s-5.2-1-7.1-2.9c-3.9-3.9-3.9-10.3,0-14.2c1.9-1.9,4.4-2.9,7.1-2.9S328.9,80.1,330.8,82z"/>
<path class="st2" d="M366.2,145.8c-9.8-9.8-25.7-9.8-35.4,0c-9.8,9.8-9.8,25.7,0,35.4c4.7,4.7,11,7.3,17.7,7.3s13-2.6,17.7-7.3
	c4.7-4.7,7.3-11,7.3-17.7C373.6,156.8,371,150.5,366.2,145.8L366.2,145.8z M355.6,170.6c-3.9,3.9-10.3,3.9-14.2,0s-3.9-10.3,0-14.2
	c2-2,4.5-2.9,7.1-2.9s5.1,1,7.1,2.9c1.9,1.9,2.9,4.4,2.9,7.1C358.6,166.2,357.5,168.7,355.6,170.6z"/>
<path class="st1" d="M244.2,377L244.2,377c0.1-4.1,3.6-7.4,7.7-7.3h0c4.1,0.1,7.4,3.6,7.3,7.7v0c-0.1,4.1-3.6,7.4-7.7,7.3h0
	C247.4,384.7,244.1,381.2,244.2,377z"/>
<path class="st1" d="M155.6,383.8l-24.7-24.7c-1.5-1.5-1.8-3.9-0.6-5.7c14.2-22.1,13.1-55.2,11.8-89.9c-0.8-22.3-1.6-45.3,1.4-66.9
	c2-14.3,6.1-28.7,12.4-42.9c1-2.3,0-5-2.3-6l-5.2-2.5c-2.4-1.1-5.2-0.1-6.2,2.3c-6.9,15.5-11.4,31.3-13.6,47
	c-3.2,22.9-2.3,46.6-1.5,69.5c1.3,36.3,2.5,70.5-14.4,87.5l-82.9,82.9c-0.5,0.5-1.1,0.9-1.8,1.1l-13.8,4.6c-0.7,0.2-1.3,0.6-1.8,1.1
	l-2.5,2.5c-10.6,10.6-10.6,27.8,0,38.4l23.3,23.3c4.2,4.2,9.9,6.6,15.9,6.6s11.7-2.3,15.9-6.6l5.8-5.8c0.5-0.5,0.9-1.1,1.1-1.8
	l4.6-13.8c0.2-0.7,0.6-1.3,1.1-1.8l82.9-82.9c9.3-9.3,23.9-15.4,63.9-15.1c2.5,0,4.6-2,4.7-4.5l0.1-5.7c0.1-2.6-2-4.7-4.6-4.7
	C200.1,368.9,173.7,370.4,155.6,383.8L155.6,383.8z M92.6,392.8l3.4-3.4c2.2-2.2,5.8-1.7,7.3,1l14.3,25.8c1,1.8,0.7,4.1-0.8,5.5
	l-3.4,3.4c-2.2,2.2-5.8,1.7-7.3-1l-14.3-25.8C90.9,396.5,91.2,394.2,92.6,392.8z M95.6,443l-3.4,3.4c-2.2,2.2-5.8,1.7-7.3-1
	l-14.3-25.8c-1-1.8-0.7-4.1,0.8-5.5l3.4-3.4c2.2-2.2,5.8-1.7,7.3,1l14.3,25.8C97.4,439.3,97.1,441.5,95.6,443z M113.9,371.6l0.9-0.9
	c1.8-1.8,4.7-1.8,6.6,0l20.1,20.1c1.8,1.8,1.8,4.7,0,6.6l-6.6,6.6c-2.2,2.2-5.8,1.7-7.3-1l-14.3-25.8
	C112.1,375.3,112.4,373,113.9,371.6z M54.4,494.8c-1.4,1.4-3.3,2.2-5.3,2.2c-2,0-3.9-0.8-5.3-2.2l-23.3-23.3
	c-4.7-4.7-4.7-12.4,0-17.2h0c0.5-0.5,1.1-0.9,1.8-1.1l6.1-2c1.7-0.6,3.5-0.1,4.7,1.1l26.6,26.6c1.2,1.2,1.7,3.1,1.1,4.7l-2,6.1
	c-0.2,0.7-0.6,1.3-1.1,1.8L54.4,494.8z M67,465L47,445c-1.8-1.8-1.8-4.7,0-6.6l6.6-6.6c2.2-2.2,5.8-1.7,7.3,1l14.3,25.8
	c1,1.8,0.7,4.1-0.8,5.5l-0.9,0.9C71.8,466.8,68.8,466.8,67,465z"/>
<path class="st2" d="M293.6,36.1L293.6,36.1c4.1,0,7.5,3.4,7.5,7.5v0c0,4.1-3.4,7.5-7.5,7.5l0,0c-4.1,0-7.5-3.4-7.5-7.5v0
	C286.1,39.5,289.5,36.1,293.6,36.1z"/>
<path class="st2" d="M263.6,51.1L263.6,51.1c4.1,0,7.5,3.4,7.5,7.5v0c0,4.1-3.4,7.5-7.5,7.5l0,0c-4.1,0-7.5-3.4-7.5-7.5v0
	C256.1,54.5,259.5,51.1,263.6,51.1z"/>
<path class="st2" d="M444.6,276.6c-30.1,0-54.4,24.4-54.4,54.4c0-30,24.4-54.3,54.3-54.3c15.8,0,30,6.8,39.9,17.5h-10.9
	c-20.3,0-36.8,16.5-36.8,36.8s16.5,36.8,36.8,36.8h10.9c-9.9,10.8-24.2,17.5-39.9,17.5c-30,0-54.3-24.4-54.3-54.3
	c0,30.1,24.4,54.4,54.4,54.4c30.1,0,54.4-24.4,54.4-54.4C499,300.9,474.7,276.6,444.6,276.6z M473.5,352.3
	c-11.7,0-21.3-9.5-21.3-21.3c0-11.7,9.5-21.3,21.3-21.3h21c2.8,6.5,4.3,13.7,4.3,21.3c0,7.5-1.6,14.7-4.3,21.3H473.5z"/>
<path class="st1" d="M481.6,274.6L481.6,274.6c49.9-64,38.1-138.4-33.9-210.3C410.4,27.1,372.6,5.8,335.3,1
	c-41.5-5.3-80.7,10.1-116.4,45.8c-22.4,22.4-45.6,46.6-63.3,75.5c-2.2,3.6-1,8.3,2.7,10.4h0c3.5,2,8,0.8,10.1-2.6
	c16.9-27.6,39.4-51,61.1-72.7c32.2-32.2,67.2-46.2,103.9-41.5c34,4.3,68.9,24.2,103.7,59c84.6,84.6,64.6,150.9,30.8,192.8
	c-7.3-2.7-15.2-4.2-23.4-4.2c-37.2,0-67.5,30.3-67.5,67.5c0,5,0.6,9.9,1.6,14.6c-21.1,12.5-41.8,20-63.2,23
	c-10.3,1.4-21.8,2.1-35.8,2.1c-3,0-5.4,2.4-5.4,5.3l0,4.3c0,3,2.4,5.4,5.3,5.4h0.1c14.8,0,26.9-0.7,38-2.2
	c22.5-3.1,44.2-10.8,66.1-23.4c10.9,22.7,34.1,38.5,60.9,38.5c37.2,0,67.5-30.3,67.5-67.5C512,307.5,499.9,286.7,481.6,274.6z
	 M446.3,383.6c-30.4,1-55.3-23.9-54.3-54.3c0.9-27.5,23.3-50,50.8-50.8c30.4-1,55.3,23.9,54.3,54.3
	C496.3,360.3,473.9,382.7,446.3,383.6z"/>
<path class="st0" d="M-531.8,264.8c1.1,24.3,1.2,52.3-7.1,75.9l-1.2,3.4c-1.6,4.5,2.8,8.9,7.3,7.3l3.4-1.2
	c23.7-8.3,51.7-8.2,75.9-7.1l4.5,0.2c5.2,0.2,8-6.1,4.3-9.8l-77.7-77.7c-3.7-3.7-10-0.9-9.8,4.3L-531.8,264.8z M-516.3,283.1l35,35
	c3.6,3.6,1.2,9.6-3.9,9.8c-9.1,0.3-18.3,1.2-27.4,2.7c-3.9,0.7-7.3-2.7-6.7-6.7C-516.8,310.4-516.2,296.5-516.3,283.1L-516.3,283.1z
	"/>
<path class="st2" d="M-458.4,170.6c-9.8-9.8-25.7-9.8-35.4,0c-9.8,9.8-9.8,25.7,0,35.4c4.9,4.9,11.3,7.3,17.7,7.3
	c6.4,0,12.8-2.4,17.7-7.3C-448.6,196.2-448.6,180.3-458.4,170.6L-458.4,170.6z M-469,195.4c-3.9,3.9-10.3,3.9-14.2,0
	c-3.9-3.9-3.9-10.3,0-14.2c1.9-1.9,4.4-2.9,7.1-2.9c2.7,0,5.2,1,7.1,2.9C-465.1,185.1-465.1,191.5-469,195.4z"/>
<path class="st2" d="M-444.2,156.4c4.7,4.7,11,7.3,17.7,7.3c6.7,0,13-2.6,17.7-7.3c4.7-4.7,7.3-11,7.3-17.7c0-6.7-2.6-13-7.3-17.7
	c0,0,0,0,0,0c-4.7-4.7-11-7.3-17.7-7.3s-13,2.6-17.7,7.3c-4.7,4.7-7.3,11-7.3,17.7C-451.5,145.4-448.9,151.6-444.2,156.4
	L-444.2,156.4z M-433.6,131.6c1.9-1.9,4.4-2.9,7.1-2.9s5.2,1,7.1,2.9v0c1.9,1.9,2.9,4.4,2.9,7.1c0,2.7-1,5.2-2.9,7.1
	c-1.9,1.9-4.4,2.9-7.1,2.9c-2.7,0-5.2-1-7.1-2.9c-1.9-1.9-2.9-4.4-2.9-7.1C-436.5,136-435.5,133.5-433.6,131.6z"/>
<path class="st2" d="M-384,195.4c-9.8-9.8-25.7-9.8-35.4,0c-9.8,9.8-9.8,25.7,0,35.4c4.7,4.7,11,7.3,17.7,7.3c6.7,0,13-2.6,17.7-7.3
	C-374.2,221-374.2,205.2-384,195.4L-384,195.4z M-394.6,220.2c-1.9,1.9-4.4,2.9-7.1,2.9s-5.2-1-7.1-2.9c-3.9-3.9-3.9-10.3,0-14.2
	c2-2,4.5-2.9,7.1-2.9s5.1,1,7.1,2.9c1.9,1.9,2.9,4.4,2.9,7.1C-391.6,215.8-392.7,218.3-394.6,220.2L-394.6,220.2z"/>
<path class="st2" d="M-433.6,245c-9.8-9.8-25.7-9.8-35.4,0c-9.8,9.8-9.8,25.7,0,35.4c4.9,4.9,11.3,7.3,17.7,7.3
	c6.4,0,12.8-2.4,17.7-7.3C-423.8,270.7-423.8,254.8-433.6,245L-433.6,245z M-444.2,269.8c-3.9,3.9-10.3,3.9-14.2,0
	c-3.9-3.9-3.9-10.3,0-14.2c2-2,4.5-2.9,7.1-2.9c2.6,0,5.1,1,7.1,2.9C-440.3,259.5-440.3,265.9-444.2,269.8z"/>
<path class="st2" d="M-327.3,262.9c6.7,0,13-2.6,17.7-7.3c4.7-4.7,7.3-11,7.3-17.7s-2.6-13-7.3-17.7c-9.8-9.8-25.7-9.8-35.4,0
	c-4.7,4.7-7.3,11-7.3,17.7s2.6,13,7.3,17.7C-340.2,260.3-333.9,262.9-327.3,262.9L-327.3,262.9z M-334.4,230.8c2-2,4.5-2.9,7.1-2.9
	s5.1,1,7.1,2.9c1.9,1.9,2.9,4.4,2.9,7.1s-1,5.2-2.9,7.1c-1.9,1.9-4.4,2.9-7.1,2.9c-2.7,0-5.2-1-7.1-2.9c-1.9-1.9-2.9-4.4-2.9-7.1
	S-336.3,232.7-334.4,230.8z"/>
<path class="st2" d="M-320.2,96.2c-4.7,4.7-7.3,11-7.3,17.7c0,6.7,2.6,13,7.3,17.7c4.9,4.9,11.3,7.3,17.7,7.3s12.8-2.4,17.7-7.3
	c4.7-4.7,7.3-11,7.3-17.7c0-6.7-2.6-13-7.3-17.7c-4.7-4.7-11-7.3-17.7-7.3C-309.1,88.8-315.4,91.4-320.2,96.2z M-292.4,113.9
	c0,2.7-1,5.2-2.9,7.1c-3.9,3.9-10.3,3.9-14.2,0c-1.9-1.9-2.9-4.4-2.9-7.1c0-2.7,1-5.2,2.9-7.1c1.9-1.9,4.4-2.9,7.1-2.9
	s5.2,1,7.1,2.9C-293.5,108.7-292.4,111.2-292.4,113.9z"/>
<path class="st2" d="M-295.3,170.6c-9.8,9.8-9.8,25.7,0,35.4c4.9,4.9,11.3,7.3,17.7,7.3s12.8-2.4,17.7-7.3c9.8-9.8,9.8-25.7,0-35.4
	C-269.7,160.8-285.6,160.8-295.3,170.6L-295.3,170.6z M-270.5,195.4c-3.9,3.9-10.3,3.9-14.2,0c-1.9-1.9-2.9-4.4-2.9-7.1
	s1-5.2,2.9-7.1c2-2,4.5-2.9,7.1-2.9c2.6,0,5.1,1,7.1,2.9C-266.6,185.1-266.6,191.5-270.5,195.4L-270.5,195.4z"/>
<path class="st2" d="M-376.9,312.6c6.7,0,13-2.6,17.7-7.3s7.3-11,7.3-17.7s-2.6-13-7.3-17.7c-4.7-4.7-11-7.3-17.7-7.3
	c-6.7,0-13,2.6-17.7,7.3c-9.8,9.8-9.8,25.7,0,35.4C-389.9,310-383.6,312.6-376.9,312.6z M-384,280.4c1.9-1.9,4.4-2.9,7.1-2.9
	c2.7,0,5.2,1,7.1,2.9c1.9,1.9,2.9,4.4,2.9,7.1s-1,5.2-2.9,7.1c-1.9,1.9-4.4,2.9-7.1,2.9c-2.7,0-5.2-1-7.1-2.9
	C-387.9,290.7-387.9,284.3-384,280.4z"/>
<path class="st2" d="M-394.6,71.3c-9.8,9.8-9.8,25.7,0,35.4c4.7,4.7,11,7.3,17.7,7.3c6.7,0,13-2.6,17.7-7.3c4.7-4.7,7.3-11,7.3-17.7
	c0-6.7-2.6-13-7.3-17.7c-4.7-4.7-11-7.3-17.7-7.3C-383.6,64-389.9,66.6-394.6,71.3L-394.6,71.3z M-369.8,82c1.9,1.9,2.9,4.4,2.9,7.1
	s-1,5.2-2.9,7.1c-1.9,1.9-4.4,2.9-7.1,2.9c-2.7,0-5.2-1-7.1-2.9c-3.9-3.9-3.9-10.3,0-14.2c1.9-1.9,4.4-2.9,7.1-2.9
	C-374.2,79-371.7,80.1-369.8,82z"/>
<path class="st2" d="M-334.4,145.8c-9.8-9.8-25.7-9.8-35.4,0c-9.8,9.8-9.8,25.7,0,35.4c4.7,4.7,11,7.3,17.7,7.3
	c6.7,0,13-2.6,17.7-7.3c4.7-4.7,7.3-11,7.3-17.7C-327,156.8-329.6,150.5-334.4,145.8L-334.4,145.8z M-345,170.6
	c-3.9,3.9-10.3,3.9-14.2,0s-3.9-10.3,0-14.2c2-2,4.5-2.9,7.1-2.9s5.1,1,7.1,2.9c1.9,1.9,2.9,4.4,2.9,7.1
	C-342,166.2-343.1,168.7-345,170.6z"/>
<path class="st0" d="M-456.4,377L-456.4,377c0.1-4.1,3.6-7.4,7.7-7.3h0c4.1,0.1,7.4,3.6,7.3,7.7v0c-0.1,4.1-3.6,7.4-7.7,7.3h0
	C-453.2,384.7-456.5,381.2-456.4,377z"/>
<path class="st0" d="M-545,383.8l-24.7-24.7c-1.5-1.5-1.8-3.9-0.6-5.7c14.2-22.1,13.1-55.2,11.8-89.9c-0.8-22.3-1.6-45.3,1.4-66.9
	c2-14.3,6.1-28.7,12.4-42.9c1-2.3,0-5-2.3-6l-5.2-2.5c-2.4-1.1-5.2-0.1-6.2,2.3c-6.9,15.5-11.4,31.3-13.6,47
	c-3.2,22.9-2.3,46.6-1.5,69.5c1.3,36.3,2.5,70.5-14.4,87.5l-82.9,82.9c-0.5,0.5-1.1,0.9-1.8,1.1l-13.8,4.6c-0.7,0.2-1.3,0.6-1.8,1.1
	l-2.5,2.5c-10.6,10.6-10.6,27.8,0,38.4l23.3,23.3c4.2,4.2,9.9,6.6,15.9,6.6c6,0,11.7-2.3,15.9-6.6l5.8-5.8c0.5-0.5,0.9-1.1,1.1-1.8
	l4.6-13.8c0.2-0.7,0.6-1.3,1.1-1.8l82.9-82.9c9.3-9.3,23.9-15.4,63.9-15.1c2.5,0,4.6-2,4.7-4.5l0.1-5.7c0.1-2.6-2-4.7-4.6-4.7
	C-500.5,368.9-526.9,370.4-545,383.8L-545,383.8z M-608,392.8l3.4-3.4c2.2-2.2,5.8-1.7,7.3,1l14.3,25.8c1,1.8,0.7,4.1-0.8,5.5
	l-3.4,3.4c-2.2,2.2-5.8,1.7-7.3-1l-14.3-25.8C-609.7,396.5-609.4,394.2-608,392.8z M-604.9,443l-3.4,3.4c-2.2,2.2-5.8,1.7-7.3-1
	l-14.3-25.8c-1-1.8-0.7-4.1,0.8-5.5l3.4-3.4c2.2-2.2,5.8-1.7,7.3,1l14.3,25.8C-603.2,439.3-603.5,441.5-604.9,443z M-586.7,371.6
	l0.9-0.9c1.8-1.8,4.7-1.8,6.6,0l20.1,20.1c1.8,1.8,1.8,4.7,0,6.6l-6.6,6.6c-2.2,2.2-5.8,1.7-7.3-1l-14.3-25.8
	C-588.5,375.3-588.2,373-586.7,371.6z M-646.2,494.8c-1.4,1.4-3.3,2.2-5.3,2.2c-2,0-3.9-0.8-5.3-2.2l-23.3-23.3
	c-4.7-4.7-4.7-12.4,0-17.2l0,0c0.5-0.5,1.1-0.9,1.8-1.1l6.1-2c1.7-0.6,3.5-0.1,4.7,1.1l26.6,26.6c1.2,1.2,1.7,3.1,1.1,4.7l-2,6.1
	c-0.2,0.7-0.6,1.3-1.1,1.8L-646.2,494.8z M-633.6,465l-20.1-20.1c-1.8-1.8-1.8-4.7,0-6.6l6.6-6.6c2.2-2.2,5.8-1.7,7.3,1l14.3,25.8
	c1,1.8,0.7,4.1-0.8,5.5l-0.9,0.9C-628.8,466.8-631.8,466.8-633.6,465z"/>
<path class="st2" d="M-407,36.1L-407,36.1c4.1,0,7.5,3.4,7.5,7.5v0c0,4.1-3.4,7.5-7.5,7.5h0c-4.1,0-7.5-3.4-7.5-7.5v0
	C-414.5,39.5-411.1,36.1-407,36.1z"/>
<path class="st2" d="M-437,51.1L-437,51.1c4.1,0,7.5,3.4,7.5,7.5v0c0,4.1-3.4,7.5-7.5,7.5l0,0c-4.1,0-7.5-3.4-7.5-7.5v0
	C-444.5,54.5-441.1,51.1-437,51.1z"/>
<path class="st2" d="M-256,276.6c-30.1,0-54.4,24.4-54.4,54.4c0-30,24.4-54.3,54.3-54.3c15.8,0,30,6.8,39.9,17.5h-10.9
	c-20.3,0-36.8,16.5-36.8,36.8s16.5,36.8,36.8,36.8h10.9c-9.9,10.8-24.2,17.5-39.9,17.5c-30,0-54.3-24.4-54.3-54.3
	c0,30.1,24.4,54.4,54.4,54.4c30.1,0,54.4-24.4,54.4-54.4C-201.6,300.9-225.9,276.6-256,276.6z M-227.1,352.3
	c-11.7,0-21.3-9.5-21.3-21.3c0-11.7,9.5-21.3,21.3-21.3h21c2.8,6.5,4.3,13.7,4.3,21.3c0,7.5-1.6,14.7-4.3,21.3H-227.1z"/>
<path class="st0" d="M-219,274.6L-219,274.6c49.9-64,38.1-138.4-33.9-210.3C-290.2,27.1-328,5.8-365.3,1
	c-41.5-5.3-80.7,10.1-116.4,45.8c-22.4,22.4-45.6,46.6-63.3,75.5c-2.2,3.6-1,8.3,2.7,10.4l0,0c3.5,2,8,0.8,10.1-2.6
	c16.9-27.6,39.4-51,61.1-72.7c32.2-32.2,67.2-46.2,103.9-41.5c34,4.3,68.9,24.2,103.7,59c84.6,84.6,64.6,150.9,30.8,192.8
	c-7.3-2.7-15.2-4.2-23.4-4.2c-37.2,0-67.5,30.3-67.5,67.5c0,5,0.6,9.9,1.6,14.6c-21.1,12.5-41.8,20-63.2,23
	c-10.3,1.4-21.8,2.1-35.8,2.1c-3,0-5.4,2.4-5.4,5.3l0,4.3c0,3,2.4,5.4,5.3,5.4h0.1c14.8,0,26.9-0.7,38-2.2
	c22.5-3.1,44.2-10.8,66.1-23.4c10.9,22.7,34.1,38.5,60.9,38.5c37.2,0,67.5-30.3,67.5-67.5C-188.6,307.5-200.7,286.7-219,274.6z
	 M-254.3,383.6c-30.4,1-55.3-23.9-54.3-54.3c0.9-27.5,23.3-50,50.8-50.8c30.4-1,55.3,23.9,54.3,54.3
	C-204.3,360.3-226.7,382.7-254.3,383.6z"/>
</svg>
