<?xml version="1.0" encoding="utf-8"?>
<!-- Generator: Adobe Illustrator 26.0.3, SVG Export Plug-In . SVG Version: 6.00 Build 0)  -->
<svg version="1.1" id="Layer_1" xmlns="http://www.w3.org/2000/svg" xmlns:xlink="http://www.w3.org/1999/xlink" x="0px" y="0px"
	 viewBox="0 0 512 512" style="enable-background:new 0 0 512 512;" xml:space="preserve">
<style type="text/css">
	.st0{fill:#0F2132;}
	.st1{fill:#E65400;}
	.st2{fill:#FFFFFF;}
</style>
<rect x="617.4" class="st0" width="512" height="512"/>
<path class="st1" d="M902.9,452.9c-10.7-3.6-19.1-12-22.8-22.6c-1.1-3.7-4.9-5.9-8.7-4.8c-2.3,0.7-4.2,2.5-4.8,4.8
	c-3.8,10.6-12.2,18.9-22.8,22.5c-3.7,1.3-5.6,5.3-4.3,8.9c0.7,2,2.3,3.6,4.3,4.3c10.7,3.6,19.1,11.9,22.8,22.5
	c1,3.7,4.9,5.9,8.6,4.9c2.4-0.7,4.2-2.5,4.9-4.9c3.8-10.6,12.2-18.9,22.8-22.5c3.7-1.3,5.6-5.3,4.3-8.9
	C906.5,455.2,905,453.6,902.9,452.9z M873.4,471.6c-3.3-4.7-7.4-8.8-12.1-12.1c4.7-3.3,8.8-7.4,12.1-12.1c3.3,4.7,7.4,8.8,12.1,12.1
	C880.8,462.8,876.7,466.9,873.4,471.6z"/>
<path class="st1" d="M1106.4,249.4c-10.7-3.6-19.1-12-22.8-22.6c-1.1-3.7-4.9-5.9-8.6-4.8c-2.3,0.7-4.2,2.5-4.8,4.9
	c-3.8,10.6-12.2,18.9-22.8,22.5c-3.6,1.3-5.6,5.3-4.3,8.9c0.7,2,2.3,3.6,4.3,4.3c10.7,3.6,19.1,11.9,22.8,22.5
	c1,3.7,4.9,5.9,8.6,4.9c2.4-0.7,4.2-2.5,4.9-4.9c3.8-10.6,12.2-18.9,22.8-22.5c3.6-1.3,5.6-5.3,4.3-8.9
	C1110,251.7,1108.4,250.1,1106.4,249.4L1106.4,249.4z M1076.9,268.1c-3.3-4.7-7.4-8.8-12.1-12.1c4.7-3.3,8.8-7.4,12.1-12.1
	c3.3,4.7,7.4,8.8,12.1,12.1C1084.3,259.3,1080.2,263.4,1076.9,268.1z"/>
<path class="st1" d="M699.4,249.4c-10.7-3.6-19.1-12-22.8-22.6c-1.1-3.7-4.9-5.9-8.7-4.8c-2.3,0.7-4.2,2.5-4.8,4.8
	c-3.8,10.6-12.2,18.9-22.8,22.6c-3.6,1.3-5.6,5.3-4.3,8.9c0.7,2,2.3,3.6,4.3,4.3c10.7,3.6,19.1,11.9,22.8,22.5
	c1,3.7,4.9,5.9,8.6,4.9c2.4-0.7,4.2-2.5,4.9-4.9c3.8-10.6,12.2-18.9,22.8-22.5c3.6-1.3,5.6-5.3,4.3-8.9
	C703,251.7,701.4,250.1,699.4,249.4L699.4,249.4z M669.9,268.1c-3.3-4.7-7.4-8.8-12.1-12.1c4.7-3.3,8.8-7.4,12.1-12.1
	c3.3,4.7,7.4,8.8,12.1,12.1C677.3,259.3,673.2,263.4,669.9,268.1z"/>
<path class="st1" d="M1049.6,86.8c1.9,0,3.6-0.7,4.9-2l9-9c2.7-2.7,2.7-7.2,0-9.9c-2.7-2.7-7.2-2.7-9.9,0l0,0l-9,9
	c-2.7,2.7-2.7,7.2,0,9.9C1046,86,1047.7,86.7,1049.6,86.8L1049.6,86.8z"/>
<path class="st1" d="M1025.9,93.5l-30.2,30.2c-2.8,2.7-2.9,7.1-0.2,9.9c2.7,2.8,7.1,2.9,9.9,0.2c0.1-0.1,0.1-0.1,0.2-0.2l30.2-30.2
	c2.7-2.7,2.7-7.2,0-9.9C1033.1,90.8,1028.7,90.8,1025.9,93.5z"/>
<path class="st1" d="M692.2,427.3l-9,9c-2.7,2.7-2.7,7.2,0,9.9c2.7,2.7,7.2,2.7,9.9,0l0,0l9-9c2.7-2.7,2.7-7.2,0-9.9
	C699.3,424.5,694.9,424.5,692.2,427.3z"/>
<path class="st1" d="M741.1,378.4l-30.2,30.2c-2.7,2.7-2.7,7.2,0,9.9s7.2,2.7,9.9,0l0,0l30.2-30.2c2.7-2.7,2.7-7.2,0-9.9
	C748.3,375.6,743.8,375.6,741.1,378.4L741.1,378.4z"/>
<path class="st1" d="M1054.6,427.3c-2.7-2.7-7.2-2.7-9.9,0s-2.7,7.2,0,9.9l9,9c2.7,2.7,7.2,2.7,9.9,0c2.7-2.7,2.7-7.2,0-9.9l0,0
	L1054.6,427.3z"/>
<path class="st1" d="M1005.6,378.4c-2.8-2.7-7.2-2.6-9.9,0.2c-2.6,2.7-2.6,7,0,9.7l30.2,30.2c2.7,2.7,7.2,2.7,9.9,0s2.7-7.2,0-9.9
	l0,0L1005.6,378.4z"/>
<path class="st1" d="M693.1,65.8c-2.7-2.7-7.2-2.7-9.9,0c-2.7,2.7-2.7,7.2,0,9.9l9,9c2.7,2.7,7.2,2.7,9.9,0c2.7-2.7,2.7-7.2,0-9.9
	L693.1,65.8z"/>
<path class="st1" d="M741.1,133.6c2.7,2.7,7.2,2.7,9.9,0s2.7-7.2,0-9.9l-30.2-30.2c-2.7-2.7-7.2-2.7-9.9,0c-2.7,2.7-2.7,7.2,0,9.9
	L741.1,133.6z"/>
<path class="st2" d="M1009.6,322.1c20.3-41.7,20.3-90.5,0-132.2c-0.2-0.5-0.5-1-0.8-1.5c-24.5-49.1-73.7-81.1-128.5-83.7V72h11.7
	c16.9,0,30.6-13.7,30.6-30.6V25.2c0-3.9-3.1-7-7-7c0,0,0,0,0,0h-84.6c-3.9,0-7,3.1-7,7v16.2c0,16.9,13.7,30.6,30.6,30.6h11.7v32.7
	c-54.8,2.6-104,34.6-128.5,83.7c-0.3,0.5-0.6,1-0.8,1.5c-20.3,41.7-20.3,90.5,0,132.3c0.2,0.5,0.4,1,0.8,1.5
	c37.3,74.8,128.2,105.3,203,68c29.4-14.7,53.3-38.5,68-68C1009.2,323.2,1009.4,322.7,1009.6,322.1z M838.1,41.4v-9.2h70.6v9.2
	c0,9.2-7.4,16.6-16.6,16.6h-37.4C845.5,58,838.1,50.5,838.1,41.4z M736.1,263h33.8c0.5,16.8,3,33.5,7.4,49.7h-29.2
	C741,297,736.9,280.2,736.1,263L736.1,263z M748.1,199.3h29.2c-4.4,16.2-6.9,32.9-7.4,49.7H736C736.9,231.8,741,215,748.1,199.3
	L748.1,199.3z M1010.7,249h-33.8c-0.5-16.8-3-33.5-7.4-49.7h29.2C1005.7,215,1009.8,231.8,1010.7,249z M962.9,249h-40.5
	c-0.2-16.6-1.3-33.2-3.2-49.7H955C959.7,215.5,962.4,232.2,962.9,249z M838.4,249c0.2-16.6,1.3-33.2,3.4-49.7H905
	c2,16.5,3.1,33.1,3.3,49.7H838.4z M908.3,263c-0.2,16.6-1.3,33.2-3.4,49.7h-63.2c-2-16.5-3.1-33.1-3.3-49.7H908.3z M917.1,185.3
	c-3.9-24.9-10.1-46.5-18.3-61.1c21.7,9.9,39.9,32,51.4,61.1H917.1z M896.3,155.8c2.7,9.7,4.9,19.6,6.5,29.6h-59
	c7.1-42.1,19.8-66.8,29.5-66.8C879,118.5,888.4,128.3,896.3,155.8L896.3,155.8z M847.9,124.2c-8.3,14.6-14.4,36.3-18.3,61.1h-33
	C807.9,156.2,826.2,134.1,847.9,124.2L847.9,124.2z M827.6,199.3c-1.9,16.5-3,33.1-3.2,49.7h-40.5c0.5-16.8,3.2-33.5,7.9-49.6
	L827.6,199.3z M783.9,263h40.5c0.2,16.6,1.3,33.2,3.2,49.7h-35.9C787,296.5,784.4,279.8,783.9,263z M829.6,326.7
	c3.9,24.9,10.1,46.5,18.3,61.1c-21.7-9.9-39.9-32-51.4-61.1H829.6z M850.4,356.2c-2.7-9.7-4.9-19.6-6.5-29.6h59.1
	c-7.1,42.1-19.8,66.8-29.5,66.8C867.8,393.5,858.4,383.7,850.4,356.2L850.4,356.2z M898.8,387.8c8.3-14.6,14.4-36.3,18.3-61.1h33
	C938.8,355.8,920.5,377.9,898.8,387.8L898.8,387.8z M919.1,312.7c1.9-16.5,3-33.1,3.2-49.7h40.5c-0.5,16.8-3.2,33.5-7.9,49.7H919.1z
	 M976.9,263h33.8c-0.9,17.2-5,34-12.1,49.7h-29.2C973.9,296.5,976.4,279.8,976.9,263z M991.3,185.3H965c-6.9-19.8-17.8-38-32.1-53.3
	C957.1,143.7,977.4,162.3,991.3,185.3L991.3,185.3z M813.9,132c-14.3,15.3-25.3,33.5-32.1,53.3h-26.3
	C769.4,162.3,789.7,143.7,813.9,132z M755.5,326.7h26.3c6.8,19.8,17.8,38,32.1,53.3C789.7,368.3,769.3,349.7,755.5,326.7z
	 M932.8,380c14.3-15.3,25.3-33.5,32.1-53.3h26.3C977.4,349.7,957.1,368.3,932.8,380z"/>
<path class="st1" d="M285.6,452.9c-10.7-3.6-19.1-12-22.8-22.6c-1.1-3.7-4.9-5.9-8.7-4.8c-2.3,0.7-4.2,2.5-4.8,4.8
	c-3.8,10.6-12.2,18.9-22.8,22.5c-3.7,1.3-5.6,5.3-4.3,8.9c0.7,2,2.3,3.6,4.3,4.3c10.7,3.6,19.1,11.9,22.8,22.5
	c1,3.7,4.9,5.9,8.6,4.9c2.4-0.7,4.2-2.5,4.9-4.9c3.8-10.6,12.2-18.9,22.8-22.5c3.7-1.3,5.6-5.3,4.3-8.9
	C289.2,455.2,287.6,453.6,285.6,452.9z M256,471.6c-3.3-4.7-7.4-8.8-12.1-12.1c4.7-3.3,8.8-7.4,12.1-12.1c3.3,4.7,7.4,8.8,12.1,12.1
	C263.4,462.8,259.3,466.9,256,471.6z"/>
<path class="st1" d="M489.1,249.4c-10.7-3.6-19.1-12-22.8-22.6c-1.1-3.7-4.9-5.9-8.6-4.8c-2.3,0.7-4.2,2.5-4.8,4.9
	c-3.8,10.6-12.2,18.9-22.8,22.5c-3.6,1.3-5.6,5.3-4.3,8.9c0.7,2,2.3,3.6,4.3,4.3c10.7,3.6,19.1,11.9,22.8,22.5
	c1,3.7,4.9,5.9,8.6,4.9c2.4-0.7,4.2-2.5,4.9-4.9c3.8-10.6,12.2-18.9,22.8-22.5c3.6-1.3,5.6-5.3,4.3-8.9
	C492.7,251.7,491.1,250.1,489.1,249.4L489.1,249.4z M459.5,268.1c-3.3-4.7-7.4-8.8-12.1-12.1c4.7-3.3,8.8-7.4,12.1-12.1
	c3.3,4.7,7.4,8.8,12.1,12.1C466.9,259.3,462.8,263.4,459.5,268.1z"/>
<path class="st1" d="M82.1,249.4c-10.7-3.6-19.1-12-22.8-22.6c-1.1-3.7-4.9-5.9-8.7-4.8c-2.3,0.7-4.2,2.5-4.8,4.8
	c-3.8,10.6-12.2,18.9-22.8,22.6c-3.6,1.3-5.6,5.3-4.3,8.9c0.7,2,2.3,3.6,4.3,4.3c10.7,3.6,19.1,11.9,22.8,22.5
	c1,3.7,4.9,5.9,8.6,4.9c2.4-0.7,4.2-2.5,4.9-4.9c3.8-10.6,12.2-18.9,22.8-22.5c3.6-1.3,5.6-5.3,4.3-8.9
	C85.6,251.7,84.1,250.1,82.1,249.4L82.1,249.4z M52.5,268.1c-3.3-4.7-7.4-8.8-12.1-12.1c4.7-3.3,8.8-7.4,12.1-12.1
	c3.3,4.7,7.4,8.8,12.1,12.1C59.9,259.3,55.8,263.4,52.5,268.1z"/>
<path class="st1" d="M432.2,86.8c1.9,0,3.6-0.7,4.9-2l9-9c2.7-2.7,2.7-7.2,0-9.9c-2.7-2.7-7.2-2.7-9.9,0l0,0l-9,9
	c-2.7,2.7-2.7,7.2,0,9.9C428.6,86,430.4,86.7,432.2,86.8L432.2,86.8z"/>
<path class="st1" d="M408.6,93.5l-30.2,30.2c-2.8,2.7-2.9,7.1-0.2,9.9c2.7,2.8,7.1,2.9,9.9,0.2c0.1-0.1,0.1-0.1,0.2-0.2l30.2-30.2
	c2.7-2.7,2.7-7.2,0-9.9S411.3,90.8,408.6,93.5z"/>
<path class="st1" d="M74.8,427.3l-9,9c-2.7,2.7-2.7,7.2,0,9.9c2.7,2.7,7.2,2.7,9.9,0l0,0l9-9c2.7-2.7,2.7-7.2,0-9.9
	C82,424.5,77.5,424.5,74.8,427.3z"/>
<path class="st1" d="M123.7,378.4l-30.2,30.2c-2.7,2.7-2.7,7.2,0,9.9c2.7,2.7,7.2,2.7,9.9,0l0,0l30.2-30.2c2.7-2.7,2.7-7.2,0-9.9
	C130.9,375.6,126.5,375.6,123.7,378.4L123.7,378.4z"/>
<path class="st1" d="M437.2,427.3c-2.7-2.7-7.2-2.7-9.9,0s-2.7,7.2,0,9.9l9,9c2.7,2.7,7.2,2.7,9.9,0s2.7-7.2,0-9.9l0,0L437.2,427.3z
	"/>
<path class="st1" d="M388.3,378.4c-2.8-2.7-7.2-2.6-9.9,0.2c-2.6,2.7-2.6,7,0,9.7l30.2,30.2c2.7,2.7,7.2,2.7,9.9,0s2.7-7.2,0-9.9
	l0,0L388.3,378.4z"/>
<path class="st1" d="M75.7,65.8c-2.7-2.7-7.2-2.7-9.9,0s-2.7,7.2,0,9.9l9,9c2.7,2.7,7.2,2.7,9.9,0s2.7-7.2,0-9.9L75.7,65.8z"/>
<path class="st1" d="M123.7,133.6c2.7,2.7,7.2,2.7,9.9,0s2.7-7.2,0-9.9l-30.2-30.2c-2.7-2.7-7.2-2.7-9.9,0c-2.7,2.7-2.7,7.2,0,9.9
	L123.7,133.6z"/>
<path class="st0" d="M392.3,322.1c20.3-41.7,20.3-90.5,0-132.2c-0.2-0.5-0.5-1-0.8-1.5c-24.5-49.1-73.7-81.1-128.5-83.7V72h11.7
	c16.9,0,30.6-13.7,30.6-30.6V25.2c0-3.9-3.1-7-7-7c0,0,0,0,0,0h-84.6c-3.9,0-7,3.1-7,7v16.2c0,16.9,13.7,30.6,30.6,30.6H249v32.7
	c-54.8,2.6-104,34.6-128.5,83.7c-0.3,0.5-0.6,1-0.8,1.5c-20.3,41.7-20.3,90.5,0,132.3c0.2,0.5,0.4,1,0.8,1.5
	c37.3,74.8,128.2,105.3,203,68c29.4-14.7,53.3-38.5,68-68C391.8,323.2,392.1,322.7,392.3,322.1z M220.7,41.4v-9.2h70.6v9.2
	c0,9.2-7.4,16.6-16.6,16.6h-37.4C228.1,58,220.7,50.5,220.7,41.4z M118.7,263h33.8c0.5,16.8,3,33.5,7.4,49.7h-29.2
	C123.7,297,119.6,280.2,118.7,263L118.7,263z M130.8,199.3h29.2c-4.4,16.2-6.9,32.9-7.4,49.7h-33.8
	C119.6,231.8,123.7,215,130.8,199.3L130.8,199.3z M393.3,249h-33.8c-0.5-16.8-3-33.5-7.4-49.7h29.2C388.3,215,392.4,231.8,393.3,249
	z M345.5,249H305c-0.2-16.6-1.3-33.2-3.2-49.7h35.9C342.3,215.5,345,232.2,345.5,249z M221,249c0.2-16.6,1.3-33.2,3.4-49.7h63.2
	c2,16.5,3.1,33.1,3.3,49.7H221z M291,263c-0.2,16.6-1.3,33.2-3.4,49.7h-63.2c-2-16.5-3.1-33.1-3.3-49.7H291z M299.8,185.3
	c-3.9-24.9-10.1-46.5-18.3-61.1c21.7,9.9,39.9,32,51.4,61.1H299.8z M279,155.8c2.7,9.7,4.9,19.6,6.5,29.6h-59
	c7.1-42.1,19.8-66.8,29.5-66.8C261.6,118.5,271,128.3,279,155.8L279,155.8z M230.5,124.2c-8.3,14.6-14.4,36.3-18.3,61.1h-33
	C190.6,156.2,208.9,134.1,230.5,124.2L230.5,124.2z M210.2,199.3c-1.9,16.5-3,33.1-3.2,49.7h-40.5c0.5-16.8,3.2-33.5,7.9-49.6
	L210.2,199.3z M166.5,263H207c0.2,16.6,1.3,33.2,3.2,49.7h-35.9C169.7,296.5,167,279.8,166.5,263z M212.2,326.7
	c3.9,24.9,10.1,46.5,18.3,61.1c-21.7-9.9-39.9-32-51.4-61.1H212.2z M233,356.2c-2.7-9.7-4.9-19.6-6.5-29.6h59.1
	c-7.1,42.1-19.8,66.8-29.5,66.8C250.4,393.5,241,383.7,233,356.2L233,356.2z M281.5,387.8c8.3-14.6,14.4-36.3,18.3-61.1h33
	C321.4,355.8,303.1,377.9,281.5,387.8L281.5,387.8z M301.7,312.7c1.9-16.5,3-33.1,3.2-49.7h40.5c-0.5,16.8-3.2,33.5-7.9,49.7H301.7z
	 M359.5,263h33.8c-0.9,17.2-5,34-12.1,49.7h-29.2C356.5,296.5,359,279.8,359.5,263z M373.9,185.3h-26.3c-6.9-19.8-17.8-38-32.1-53.3
	C339.7,143.7,360,162.3,373.9,185.3L373.9,185.3z M196.5,132c-14.3,15.3-25.3,33.5-32.1,53.3h-26.3C152,162.3,172.3,143.7,196.5,132
	z M138.1,326.7h26.3c6.8,19.8,17.8,38,32.1,53.3C172.3,368.3,152,349.7,138.1,326.7z M315.5,380c14.3-15.3,25.3-33.5,32.1-53.3h26.3
	C360,349.7,339.7,368.3,315.5,380z"/>
</svg>
