<svg xmlns="http://www.w3.org/2000/svg" width="436.901" height="512.1" viewBox="0 0 436.901 512.1">
  <g id="Party_Hall" data-name="Party Hall" transform="translate(1488 -4931)">
    <path id="Path_110" data-name="Path 110" d="M-133.1,210.9a7.591,7.591,0,0,0-10.4-2.4,7.591,7.591,0,0,0-2.4,10.4,179.263,179.263,0,0,1,22.9,55c-12.5-2.6-26.2-5-40.9-7q-.9-8.4-2.1-16.8a7.538,7.538,0,0,0-8.5-6.4,7.538,7.538,0,0,0-6.4,8.5c.6,4.2,1.2,8.4,1.6,12.7-20.3-2.3-42.2-4.1-65-5.1-1.1-22.8-2.8-44.7-5.1-65h.1a7.456,7.456,0,0,0,8.3-6.6,7.456,7.456,0,0,0-6.6-8.3c-1.2-.1-2.5-.3-3.7-.4-2-14.7-4.3-28.5-7-41a170.06,170.06,0,0,1,25.7,8.1,6.92,6.92,0,0,0,2.8.5,7.586,7.586,0,0,0,7-4.7,7.557,7.557,0,0,0-4.2-9.8,194.206,194.206,0,0,0-41.4-11.4V100.3a20.208,20.208,0,0,0-20.2-20.2h-3.6V7.5A7.49,7.49,0,0,0-299.7,0a7.49,7.49,0,0,0-7.5,7.5V80.1h-3.6A20.208,20.208,0,0,0-331,100.3v20.9a192.7,192.7,0,0,0-29.1,7,7.464,7.464,0,0,0-4.8,9.5,7.464,7.464,0,0,0,9.5,4.8c4.7-1.5,9.5-2.8,14.3-4-2.6,12.5-5,26.2-7,41a403.864,403.864,0,0,0-55.5,9.8,291.091,291.091,0,0,1,12.2-30.6c2.5-1.4,5-2.9,7.5-4.2a7.579,7.579,0,0,0,3.2-10.2,7.579,7.579,0,0,0-10.2-3.2,197.243,197.243,0,0,0-71.9,64.5,196.892,196.892,0,0,0-32.8,93.1,7.512,7.512,0,0,0,6.9,8.1h.6a7.518,7.518,0,0,0,7.5-6.9c.3-3.4.7-6.7,1.1-10,12.8-2.9,27.1-5.5,42.6-7.6-.8,10.9-1.2,21.9-1.2,33.1,0,11.1.4,22.2,1.2,33.1-15.5-2.2-29.8-4.7-42.6-7.6-.5-3.3-.9-6.7-1.1-10a7.582,7.582,0,0,0-8.1-6.9,7.582,7.582,0,0,0-6.9,8.1,196.169,196.169,0,0,0,62.5,127.8,196.247,196.247,0,0,0,133.4,52.2c108.4,0,196.6-88.2,196.6-196.6a194.928,194.928,0,0,0-30-104.6Zm13.2,79.1a179.729,179.729,0,0,1,1.8,25.4,177.64,177.64,0,0,1-1.8,25.4c-12.6,2.9-27,5.4-42.6,7.6q1.2-16.35,1.2-33c0-11.1-.4-22.1-1.2-33.1,15.6,2.2,29.9,4.8,42.6,7.7ZM-143,407.1a282.664,282.664,0,0,1-30.6,12.2,419.571,419.571,0,0,0,9.8-55.5c14.8-2,28.6-4.3,41-7A181.6,181.6,0,0,1-143,407.1Zm-34.7-126.7c.9,11.6,1.4,23.3,1.4,35,0,11.8-.5,23.5-1.4,35-6.6.8-13.3,1.5-20.3,2.2a7.585,7.585,0,0,0-6.8,8.2,7.5,7.5,0,0,0,7.5,6.8h.7c5.9-.6,11.7-1.2,17.3-1.8a397.465,397.465,0,0,1-11.3,58.8,384.947,384.947,0,0,1-58.8,11.3c2.3-20.3,4.1-42.2,5.1-65,5.1-.2,10.2-.5,15.3-.8a7.658,7.658,0,0,0,7.1-8,7.658,7.658,0,0,0-8-7.1c-4.6.3-9.2.5-13.8.7.4-13.2.7-26.7.7-40.4s-.2-27.2-.7-40.4c23.4,1.2,45.5,3,66,5.5Zm-80.5,211.8c2.6-12.5,5-26.2,7-41a403.864,403.864,0,0,0,55.5-9.8A300.031,300.031,0,0,1-207.9,472,178.577,178.577,0,0,1-258.2,492.2Zm-133.1-20.1a293.11,293.11,0,0,1-12.3-30.7,419.566,419.566,0,0,0,55.5,9.8c2,14.7,4.3,28.5,7,41a180.769,180.769,0,0,1-50.2-20.1Zm-17.5-47.6a384.946,384.946,0,0,1-11.3-58.8c20.3,2.3,42.2,4.1,65,5.1,1.1,22.9,2.8,44.7,5.1,65a373.2,373.2,0,0,1-58.8-11.3Zm68.8-53c13.2.4,26.8.7,40.4.7s27.1-.2,40.4-.7c-1.1,23.2-2.9,45.4-5.4,65.9-11.5.9-23.2,1.4-35,1.4s-23.5-.5-35-1.4c-2.5-20.5-4.3-42.6-5.4-65.9Zm-8.1-67.9a53.432,53.432,0,0,0,11,11.8,56.088,56.088,0,0,0-11,11.8,53.432,53.432,0,0,0-11-11.8A58.635,58.635,0,0,0-348.1,303.6Zm7.1,42.3a7.972,7.972,0,0,0,.8-1.6A39.225,39.225,0,0,1-323.3,324l2.3-1.4a8.44,8.44,0,0,0,4.2-7.3A8.44,8.44,0,0,0-321,308l-2.3-1.4a39.225,39.225,0,0,1-16.9-20.3,7.974,7.974,0,0,0-.8-1.6l.3-10.5c13.4-.5,27.1-.7,41-.7s27.6.2,41,.7c.5,13.4.7,27.1.7,41s-.2,27.6-.7,41c-13.5.5-27.2.7-41,.7-13.9,0-27.6-.2-41-.7-.1-3.3-.2-6.8-.3-10.3Zm81.8-86.6c-13.2-.4-26.7-.7-40.4-.7s-27.2.2-40.4.7c1.1-23.3,2.9-45.4,5.4-65.8,11.5-.9,23.2-1.4,35.1-1.4,11.7,0,23.5.5,35,1.4C-262.2,213.9-260.4,236.1-259.2,259.3Zm-56.7-158.9a5.164,5.164,0,0,1,5.2-5.2h22.2a5.164,5.164,0,0,1,5.2,5.2v19.1c-5.4-.4-10.8-.7-16.3-.7s-10.9.2-16.3.7V100.4Zm-9.2,35.2a179.729,179.729,0,0,1,25.4-1.8,178.68,178.68,0,0,1,25.4,1.8c2.9,12.8,5.5,27.1,7.7,42.6-10.9-.8-22-1.2-33.1-1.2s-22.2.4-33.1,1.2c2.3-15.5,4.8-29.8,7.7-42.6ZM-350,194.9c-2.3,20.3-4.1,42.1-5.1,65-22.8,1.1-44.7,2.8-65,5.1a397.47,397.47,0,0,1,11.3-58.8A397.47,397.47,0,0,1-350,194.9Zm-64.4-20.2c-2.3,6.3-4.5,12.8-6.5,19.4-6.6,2-13.1,4.2-19.4,6.5a186.462,186.462,0,0,1,25.9-25.9Zm-62,99.2a181.756,181.756,0,0,1,20-50.2,293.113,293.113,0,0,1,30.7-12.3,419.566,419.566,0,0,0-9.8,55.5c-14.7,2.1-28.4,4.4-40.9,7Zm53.4,41.5c0-11.8.5-23.5,1.4-35,20.5-2.4,42.6-4.2,65.8-5.4l-.3,11.4h0A39.225,39.225,0,0,1-373,306.7l-2.3,1.4a8.44,8.44,0,0,0-4.2,7.3,8.44,8.44,0,0,0,4.2,7.3l2.3,1.4a39.225,39.225,0,0,1,16.9,20.3h0l.3,11.4c-23.2-1.1-45.4-2.9-65.8-5.4C-422.5,338.9-423,327.2-423,315.4Zm-12.5,48.4a403.864,403.864,0,0,0,9.8,55.5A272.819,272.819,0,0,1-456.4,407a180.529,180.529,0,0,1-20-50.2c12.5,2.7,26.2,5,40.9,7Zm-4.9,66.3c6.3,2.4,12.8,4.5,19.5,6.6,2,6.6,4.2,13.1,6.5,19.4-2.9-2.4-5.7-4.8-8.4-7.3A193.858,193.858,0,0,1-440.4,430.1ZM-325,495.2c-2.9-12.8-5.5-27.1-7.7-42.6,10.9.8,21.9,1.2,33.1,1.2,11.1,0,22.2-.4,33.1-1.2-2.2,15.5-4.7,29.8-7.6,42.6a177.639,177.639,0,0,1-25.4,1.8,193.75,193.75,0,0,1-25.5-1.8ZM-184.9,456c2.3-6.3,4.5-12.7,6.5-19.3,6.6-2,13-4.2,19.3-6.5A185.029,185.029,0,0,1-184.9,456Z" transform="translate(-948 4931)"/>
    <path id="Path_111" data-name="Path 111" d="M-230,171.6a9.193,9.193,0,0,0,4.6,8l4.3,2.6A79.673,79.673,0,0,1-187,223.1h0a9.266,9.266,0,0,0,8.7,6.1,9.266,9.266,0,0,0,8.7-6.1,79.281,79.281,0,0,1,34.1-40.9l4.3-2.6a9.407,9.407,0,0,0,4.6-8,9.193,9.193,0,0,0-4.6-8l-4.3-2.6a79.673,79.673,0,0,1-34.1-40.9,9.266,9.266,0,0,0-8.7-6.1,9.266,9.266,0,0,0-8.7,6.1A79.673,79.673,0,0,1-221.1,161l-4.3,2.6a9.075,9.075,0,0,0-4.6,8Zm51.7-34.2A94.3,94.3,0,0,0-147,171.6a94.3,94.3,0,0,0-31.3,34.2,94.3,94.3,0,0,0-31.3-34.2A95.931,95.931,0,0,0-178.3,137.4Z" transform="translate(-948 4931)" fill="#e4540e"/>
    <path id="Path_112" data-name="Path 112" d="M-469.1,442.6l-2.9-1.7a51.815,51.815,0,0,1-22.2-26.6,8.768,8.768,0,0,0-8.2-5.7h0a8.869,8.869,0,0,0-8.2,5.7,51.815,51.815,0,0,1-22.2,26.6l-2.9,1.7a8.863,8.863,0,0,0-4.3,7.5,8.646,8.646,0,0,0,4.3,7.5l2.9,1.7a51.815,51.815,0,0,1,22.2,26.6h0a8.768,8.768,0,0,0,8.2,5.7h0a8.869,8.869,0,0,0,8.2-5.7A51.815,51.815,0,0,1-472,459.3l2.9-1.7a8.863,8.863,0,0,0,4.3-7.5A8.646,8.646,0,0,0-469.1,442.6Zm-33.3,26a67.075,67.075,0,0,0-17.1-18.5,67.075,67.075,0,0,0,17.1-18.5,67.074,67.074,0,0,0,17.1,18.5A68.511,68.511,0,0,0-502.4,468.6Z" transform="translate(-948 4931)" fill="#e4540e"/>
  </g>
</svg>
