<?xml version="1.0" encoding="utf-8"?>
<!-- Generator: Adobe Illustrator 26.2.1, SVG Export Plug-In . SVG Version: 6.00 Build 0)  -->
<svg version="1.1" id="Capa_1" xmlns="http://www.w3.org/2000/svg" xmlns:xlink="http://www.w3.org/1999/xlink" x="0px" y="0px"
	 viewBox="0 0 512 512" style="enable-background:new 0 0 512 512;" xml:space="preserve">
<style type="text/css">
	.st0{fill:#0F2132;}
	.st1{fill:#FFFFFF;}
	.st2{fill:#E4540E;}
</style>
<rect class="st0" width="512" height="512"/>
<path class="st1" d="M444.5,210.9c-2.2-3.5-6.9-4.6-10.4-2.4c-3.5,2.2-4.6,6.9-2.4,10.4c10.7,17,18.4,35.6,22.9,55
	c-12.5-2.6-26.2-5-40.9-7c-0.6-5.6-1.3-11.2-2.1-16.8c-0.6-4.1-4.4-7-8.5-6.4c-4.1,0.6-7,4.4-6.4,8.5c0.6,4.2,1.2,8.4,1.6,12.7
	c-20.3-2.3-42.2-4.1-65-5.1c-1.1-22.8-2.8-44.7-5.1-65c0,0,0.1,0,0.1,0c4.1,0.5,7.9-2.5,8.3-6.6c0.5-4.1-2.5-7.9-6.6-8.3
	c-1.2-0.1-2.5-0.3-3.7-0.4c-2-14.7-4.3-28.5-7-41c8.7,2,17.3,4.7,25.7,8.1c0.9,0.4,1.9,0.5,2.8,0.5c3,0,5.8-1.8,7-4.7
	c1.5-3.9-0.3-8.2-4.2-9.8c-13.4-5.3-27.3-9.2-41.4-11.4v-20.9c0-11.2-9.1-20.2-20.2-20.2h-3.6V7.5c0-4.2-3.4-7.5-7.5-7.5
	c-4.2,0-7.5,3.4-7.5,7.5v72.6h-3.6c-11.2,0-20.2,9.1-20.2,20.2v20.9c-9.9,1.6-19.6,3.9-29.1,7c-4,1.3-6.1,5.5-4.8,9.5
	c1.3,4,5.5,6.1,9.5,4.8c4.7-1.5,9.5-2.8,14.3-4c-2.6,12.5-5,26.2-7,41c-19.2,2.1-37.8,5.3-55.5,9.8c3.6-10.7,7.7-21,12.2-30.6
	c2.5-1.4,5-2.9,7.5-4.2c3.7-1.9,5.1-6.5,3.2-10.2c-1.9-3.7-6.5-5.1-10.2-3.2c-28.8,15.1-53.7,37.4-71.9,64.5
	c-18.6,27.7-30,59.8-32.8,93.1c-0.3,4.1,2.7,7.8,6.9,8.1c0.2,0,0.4,0,0.6,0c3.9,0,7.2-3,7.5-6.9c0.3-3.4,0.7-6.7,1.1-10
	c12.8-2.9,27.1-5.5,42.6-7.6c-0.8,10.9-1.2,21.9-1.2,33.1c0,11.1,0.4,22.2,1.2,33.1c-15.5-2.2-29.8-4.7-42.6-7.6
	c-0.5-3.3-0.9-6.7-1.1-10c-0.3-4.1-4-7.2-8.1-6.9c-4.1,0.3-7.2,4-6.9,8.1c4.1,48.9,26.3,94.3,62.5,127.8
	c36.4,33.6,83.8,52.2,133.4,52.2c108.4,0,196.6-88.2,196.6-196.6C474.5,278.3,464.1,242.2,444.5,210.9L444.5,210.9z M457.7,290
	c1.2,8.4,1.8,16.9,1.8,25.4c0,8.6-0.6,17.1-1.8,25.4c-12.6,2.9-27,5.4-42.6,7.6c0.8-10.9,1.2-21.9,1.2-33c0-11.1-0.4-22.1-1.2-33.1
	C430.6,284.5,444.9,287.1,457.7,290L457.7,290z M434.5,407.1c-9.6,4.5-19.8,8.6-30.6,12.2c4.4-17.7,7.7-36.3,9.8-55.5
	c14.8-2,28.6-4.3,41-7C450.5,374.8,443.6,391.7,434.5,407.1z M399.8,280.4c0.9,11.6,1.4,23.3,1.4,35c0,11.8-0.5,23.5-1.4,35
	c-6.6,0.8-13.3,1.5-20.3,2.2c-4.1,0.4-7.2,4.1-6.8,8.2c0.4,3.9,3.6,6.8,7.5,6.8c0.2,0,0.5,0,0.7,0c5.9-0.6,11.7-1.2,17.3-1.8
	c-2.4,20.5-6.2,40.2-11.3,58.8c-18.6,5.1-38.3,9-58.8,11.3c2.3-20.3,4.1-42.2,5.1-65c5.1-0.2,10.2-0.5,15.3-0.8
	c4.1-0.3,7.3-3.8,7.1-8c-0.3-4.1-3.8-7.3-8-7.1c-4.6,0.3-9.2,0.5-13.8,0.7c0.4-13.2,0.7-26.7,0.7-40.4c0-13.7-0.2-27.2-0.7-40.4
	C357.2,276.1,379.4,277.9,399.8,280.4L399.8,280.4z M319.4,492.2c2.6-12.5,5-26.2,7-41c19.2-2.1,37.8-5.3,55.5-9.8
	c-3.6,10.7-7.7,20.9-12.2,30.6C354.2,481.1,337.3,488,319.4,492.2z M186.2,472.1c-4.6-9.7-8.6-19.9-12.3-30.7
	c17.7,4.4,36.3,7.7,55.5,9.8c2,14.7,4.3,28.5,7,41C218.8,488,201.8,481.3,186.2,472.1L186.2,472.1z M168.8,424.5
	c-5.1-18.6-9-38.3-11.3-58.8c20.3,2.3,42.2,4.1,65,5.1c1.1,22.9,2.8,44.7,5.1,65C207.1,433.5,187.3,429.7,168.8,424.5L168.8,424.5z
	 M237.5,371.5c13.2,0.4,26.8,0.7,40.4,0.7c13.6,0,27.1-0.2,40.4-0.7c-1.1,23.2-2.9,45.4-5.4,65.9c-11.5,0.9-23.2,1.4-35,1.4
	c-11.8,0-23.5-0.5-35-1.4C240.4,416.9,238.6,394.8,237.5,371.5L237.5,371.5z M229.4,303.6c3,4.4,6.7,8.4,11,11.8
	c-4.2,3.4-7.9,7.3-11,11.8c-3-4.4-6.7-8.4-11-11.8C222.6,312,226.3,308,229.4,303.6z M236.5,345.9c0.3-0.5,0.6-1,0.8-1.6
	c3.1-8.5,9.1-15.7,16.9-20.3l2.3-1.4c2.6-1.5,4.2-4.3,4.2-7.3c0-3-1.6-5.8-4.2-7.3l-2.3-1.4c-7.8-4.6-13.8-11.8-16.9-20.3
	c-0.2-0.6-0.5-1.1-0.8-1.6c0.1-3.5,0.2-7,0.3-10.5c13.4-0.5,27.1-0.7,41-0.7c13.9,0,27.6,0.2,41,0.7c0.5,13.4,0.7,27.1,0.7,41
	c0,13.9-0.2,27.6-0.7,41c-13.5,0.5-27.2,0.7-41,0.7c-13.9,0-27.6-0.2-41-0.7C236.7,352.9,236.6,349.4,236.5,345.9L236.5,345.9z
	 M318.3,259.3c-13.2-0.4-26.7-0.7-40.4-0.7c-13.7,0-27.2,0.2-40.4,0.7c1.1-23.3,2.9-45.4,5.4-65.8c11.5-0.9,23.2-1.4,35.1-1.4
	c11.7,0,23.5,0.5,35,1.4C315.4,213.9,317.2,236.1,318.3,259.3z M261.6,100.4c0-2.9,2.3-5.2,5.2-5.2H289c2.9,0,5.2,2.3,5.2,5.2v19.1
	c-5.4-0.4-10.8-0.7-16.3-0.7c-5.5,0-10.9,0.2-16.3,0.7L261.6,100.4L261.6,100.4z M252.5,135.6c8.4-1.2,16.9-1.8,25.4-1.8
	c8.6,0,17,0.6,25.4,1.8c2.9,12.8,5.5,27.1,7.7,42.6c-10.9-0.8-22-1.2-33.1-1.2c-11.1,0-22.2,0.4-33.1,1.2
	C247,162.7,249.6,148.4,252.5,135.6L252.5,135.6z M227.5,194.9c-2.3,20.3-4.1,42.1-5.1,65c-22.8,1.1-44.7,2.8-65,5.1
	c2.4-20.5,6.2-40.2,11.3-58.8C187.3,201.1,207.1,197.3,227.5,194.9L227.5,194.9z M163.2,174.7c-2.3,6.3-4.5,12.8-6.5,19.4
	c-6.6,2-13.1,4.2-19.4,6.5C145,191.2,153.7,182.5,163.2,174.7L163.2,174.7z M101.1,273.9c4.1-17.6,10.9-34.6,20-50.2
	c9.7-4.6,19.9-8.6,30.7-12.3c-4.4,17.7-7.7,36.3-9.8,55.5C127.4,269,113.6,271.3,101.1,273.9L101.1,273.9z M154.5,315.4
	c0-11.8,0.5-23.5,1.4-35c20.5-2.4,42.6-4.2,65.8-5.4c-0.1,3.8-0.2,7.6-0.3,11.4c0,0,0,0,0,0c-3.1,8.5-9.1,15.7-16.9,20.3l-2.3,1.4
	c-2.6,1.5-4.2,4.3-4.2,7.3c0,3,1.6,5.8,4.2,7.3l2.3,1.4c7.8,4.6,13.8,11.8,16.9,20.3c0,0,0,0,0,0c0.1,3.8,0.2,7.6,0.3,11.4
	c-23.2-1.1-45.4-2.9-65.8-5.4C155,338.9,154.5,327.2,154.5,315.4z M142.1,363.8c2.1,19.2,5.3,37.8,9.8,55.5
	c-10.8-3.6-21-7.7-30.7-12.3c-9.1-15.6-15.9-32.5-20-50.2C113.6,359.5,127.3,361.8,142.1,363.8L142.1,363.8z M137.2,430.1
	c6.3,2.4,12.8,4.5,19.5,6.6c2,6.6,4.2,13.1,6.5,19.4c-2.9-2.4-5.7-4.8-8.4-7.3C148.4,442.9,142.5,436.7,137.2,430.1z M252.5,495.2
	c-2.9-12.8-5.5-27.1-7.7-42.6c10.9,0.8,21.9,1.2,33.1,1.2c11.1,0,22.2-0.4,33.1-1.2c-2.2,15.5-4.7,29.8-7.6,42.6
	c-8.3,1.2-16.8,1.8-25.4,1.8C269.3,496.9,260.8,496.4,252.5,495.2L252.5,495.2z M392.7,456c2.3-6.3,4.5-12.7,6.5-19.3
	c6.6-2,13-4.2,19.3-6.5C410.7,439.6,402.1,448.2,392.7,456L392.7,456z"/>
<path class="st2" d="M347.5,171.6c0,3.3,1.7,6.3,4.6,8l4.3,2.6c15.7,9.3,27.8,23.8,34.1,40.9v0c1.4,3.7,4.8,6.1,8.7,6.1
	s7.3-2.4,8.7-6.1c6.3-17.1,18.4-31.7,34.1-40.9l4.3-2.6c2.8-1.7,4.6-4.7,4.6-8c0-3.3-1.7-6.3-4.6-8L442,161
	c-15.7-9.3-27.8-23.8-34.1-40.9c-1.4-3.7-4.8-6.1-8.7-6.1s-7.3,2.4-8.7,6.1c-6.3,17.1-18.4,31.6-34.1,40.9l-4.3,2.6
	C349.3,165.2,347.5,168.3,347.5,171.6L347.5,171.6z M399.2,137.4c7.4,13.8,18.2,25.6,31.3,34.2c-13.1,8.6-23.9,20.4-31.3,34.2
	c-7.4-13.8-18.2-25.6-31.3-34.2C381,162.9,391.8,151.1,399.2,137.4z"/>
<path class="st2" d="M108.4,442.6l-2.9-1.7c-10.2-6-18.1-15.5-22.2-26.6c-1.3-3.4-4.5-5.7-8.2-5.7c0,0,0,0,0,0
	c-3.6,0-6.9,2.3-8.2,5.7c-4.1,11.1-12,20.6-22.2,26.6l-2.9,1.7c-2.6,1.6-4.3,4.4-4.3,7.5c0,3.1,1.6,5.9,4.3,7.5l2.9,1.7
	c10.2,6,18.1,15.5,22.2,26.6v0c1.3,3.4,4.5,5.7,8.2,5.7h0c3.6,0,6.9-2.3,8.2-5.7c4.1-11.1,12-20.6,22.2-26.6l2.9-1.7
	c2.6-1.6,4.3-4.4,4.3-7.5C112.7,447,111.1,444.2,108.4,442.6z M75.1,468.6c-4.5-7.2-10.3-13.5-17.1-18.5c6.8-5,12.6-11.3,17.1-18.5
	c4.5,7.2,10.3,13.5,17.1,18.5C85.4,455.1,79.6,461.5,75.1,468.6z"/>
<path d="M-133.1,210.9c-2.2-3.5-6.9-4.6-10.4-2.4c-3.5,2.2-4.6,6.9-2.4,10.4c10.7,17,18.4,35.6,22.9,55c-12.5-2.6-26.2-5-40.9-7
	c-0.6-5.6-1.3-11.2-2.1-16.8c-0.6-4.1-4.4-7-8.5-6.4c-4.1,0.6-7,4.4-6.4,8.5c0.6,4.2,1.2,8.4,1.6,12.7c-20.3-2.3-42.2-4.1-65-5.1
	c-1.1-22.8-2.8-44.7-5.1-65c0,0,0.1,0,0.1,0c4.1,0.5,7.9-2.5,8.3-6.6c0.5-4.1-2.5-7.9-6.6-8.3c-1.2-0.1-2.5-0.3-3.7-0.4
	c-2-14.7-4.3-28.5-7-41c8.7,2,17.3,4.7,25.7,8.1c0.9,0.4,1.9,0.5,2.8,0.5c3,0,5.8-1.8,7-4.7c1.5-3.9-0.3-8.2-4.2-9.8
	c-13.4-5.3-27.3-9.2-41.4-11.4v-20.9c0-11.2-9.1-20.2-20.2-20.2h-3.6V7.5c0-4.2-3.4-7.5-7.5-7.5c-4.2,0-7.5,3.4-7.5,7.5v72.6h-3.6
	c-11.2,0-20.2,9.1-20.2,20.2v20.9c-9.9,1.6-19.6,3.9-29.1,7c-4,1.3-6.1,5.5-4.8,9.5c1.3,4,5.5,6.1,9.5,4.8c4.7-1.5,9.5-2.8,14.3-4
	c-2.6,12.5-5,26.2-7,41c-19.2,2.1-37.8,5.3-55.5,9.8c3.6-10.7,7.7-21,12.2-30.6c2.5-1.4,5-2.9,7.5-4.2c3.7-1.9,5.1-6.5,3.2-10.2
	c-1.9-3.7-6.5-5.1-10.2-3.2c-28.8,15.1-53.7,37.4-71.9,64.5c-18.6,27.7-30,59.8-32.8,93.1c-0.3,4.1,2.7,7.8,6.9,8.1
	c0.2,0,0.4,0,0.6,0c3.9,0,7.2-3,7.5-6.9c0.3-3.4,0.7-6.7,1.1-10c12.8-2.9,27.1-5.5,42.6-7.6c-0.8,10.9-1.2,21.9-1.2,33.1
	c0,11.1,0.4,22.2,1.2,33.1c-15.5-2.2-29.8-4.7-42.6-7.6c-0.5-3.3-0.9-6.7-1.1-10c-0.3-4.1-4-7.2-8.1-6.9c-4.1,0.3-7.2,4-6.9,8.1
	c4.1,48.9,26.3,94.3,62.5,127.8c36.4,33.6,83.8,52.2,133.4,52.2c108.4,0,196.6-88.2,196.6-196.6C-103,278.3-113.4,242.2-133.1,210.9
	L-133.1,210.9z M-119.9,290c1.2,8.4,1.8,16.9,1.8,25.4c0,8.6-0.6,17.1-1.8,25.4c-12.6,2.9-27,5.4-42.6,7.6c0.8-10.9,1.2-21.9,1.2-33
	c0-11.1-0.4-22.1-1.2-33.1C-146.9,284.5-132.6,287.1-119.9,290L-119.9,290z M-143,407.1c-9.6,4.5-19.8,8.6-30.6,12.2
	c4.4-17.7,7.7-36.3,9.8-55.5c14.8-2,28.6-4.3,41-7C-127.1,374.8-133.9,391.7-143,407.1z M-177.7,280.4c0.9,11.6,1.4,23.3,1.4,35
	c0,11.8-0.5,23.5-1.4,35c-6.6,0.8-13.3,1.5-20.3,2.2c-4.1,0.4-7.2,4.1-6.8,8.2c0.4,3.9,3.6,6.8,7.5,6.8c0.2,0,0.5,0,0.7,0
	c5.9-0.6,11.7-1.2,17.3-1.8c-2.4,20.5-6.2,40.2-11.3,58.8c-18.6,5.1-38.3,9-58.8,11.3c2.3-20.3,4.1-42.2,5.1-65
	c5.1-0.2,10.2-0.5,15.3-0.8c4.1-0.3,7.3-3.8,7.1-8c-0.3-4.1-3.8-7.3-8-7.1c-4.6,0.3-9.2,0.5-13.8,0.7c0.4-13.2,0.7-26.7,0.7-40.4
	c0-13.7-0.2-27.2-0.7-40.4C-220.3,276.1-198.2,277.9-177.7,280.4L-177.7,280.4z M-258.2,492.2c2.6-12.5,5-26.2,7-41
	c19.2-2.1,37.8-5.3,55.5-9.8c-3.6,10.7-7.7,20.9-12.2,30.6C-223.3,481.1-240.2,488-258.2,492.2z M-391.3,472.1
	c-4.6-9.7-8.6-19.9-12.3-30.7c17.7,4.4,36.3,7.7,55.5,9.8c2,14.7,4.3,28.5,7,41C-358.8,488-375.7,481.3-391.3,472.1L-391.3,472.1z
	 M-408.8,424.5c-5.1-18.6-9-38.3-11.3-58.8c20.3,2.3,42.2,4.1,65,5.1c1.1,22.9,2.8,44.7,5.1,65
	C-370.5,433.5-390.2,429.7-408.8,424.5L-408.8,424.5z M-340,371.5c13.2,0.4,26.8,0.7,40.4,0.7c13.6,0,27.1-0.2,40.4-0.7
	c-1.1,23.2-2.9,45.4-5.4,65.9c-11.5,0.9-23.2,1.4-35,1.4c-11.8,0-23.5-0.5-35-1.4C-337.1,416.9-338.9,394.8-340,371.5L-340,371.5z
	 M-348.1,303.6c3,4.4,6.7,8.4,11,11.8c-4.2,3.4-7.9,7.3-11,11.8c-3-4.4-6.7-8.4-11-11.8C-354.9,312-351.2,308-348.1,303.6z
	 M-341,345.9c0.3-0.5,0.6-1,0.8-1.6c3.1-8.5,9.1-15.7,16.9-20.3l2.3-1.4c2.6-1.5,4.2-4.3,4.2-7.3c0-3-1.6-5.8-4.2-7.3l-2.3-1.4
	c-7.8-4.6-13.8-11.8-16.9-20.3c-0.2-0.6-0.5-1.1-0.8-1.6c0.1-3.5,0.2-7,0.3-10.5c13.4-0.5,27.1-0.7,41-0.7c13.9,0,27.6,0.2,41,0.7
	c0.5,13.4,0.7,27.1,0.7,41c0,13.9-0.2,27.6-0.7,41c-13.5,0.5-27.2,0.7-41,0.7c-13.9,0-27.6-0.2-41-0.7
	C-340.8,352.9-340.9,349.4-341,345.9L-341,345.9z M-259.2,259.3c-13.2-0.4-26.7-0.7-40.4-0.7c-13.7,0-27.2,0.2-40.4,0.7
	c1.1-23.3,2.9-45.4,5.4-65.8c11.5-0.9,23.2-1.4,35.1-1.4c11.7,0,23.5,0.5,35,1.4C-262.2,213.9-260.4,236.1-259.2,259.3z
	 M-315.9,100.4c0-2.9,2.3-5.2,5.2-5.2h22.2c2.9,0,5.2,2.3,5.2,5.2v19.1c-5.4-0.4-10.8-0.7-16.3-0.7c-5.5,0-10.9,0.2-16.3,0.7
	L-315.9,100.4L-315.9,100.4z M-325.1,135.6c8.4-1.2,16.9-1.8,25.4-1.8c8.6,0,17,0.6,25.4,1.8c2.9,12.8,5.5,27.1,7.7,42.6
	c-10.9-0.8-22-1.2-33.1-1.2c-11.1,0-22.2,0.4-33.1,1.2C-330.5,162.7-328,148.4-325.1,135.6L-325.1,135.6z M-350,194.9
	c-2.3,20.3-4.1,42.1-5.1,65c-22.8,1.1-44.7,2.8-65,5.1c2.4-20.5,6.2-40.2,11.3-58.8C-390.2,201.1-370.5,197.3-350,194.9L-350,194.9z
	 M-414.4,174.7c-2.3,6.3-4.5,12.8-6.5,19.4c-6.6,2-13.1,4.2-19.4,6.5C-432.6,191.2-423.9,182.5-414.4,174.7L-414.4,174.7z
	 M-476.4,273.9c4.1-17.6,10.9-34.6,20-50.2c9.7-4.6,19.9-8.6,30.7-12.3c-4.4,17.7-7.7,36.3-9.8,55.5
	C-450.2,269-463.9,271.3-476.4,273.9L-476.4,273.9z M-423,315.4c0-11.8,0.5-23.5,1.4-35c20.5-2.4,42.6-4.2,65.8-5.4
	c-0.1,3.8-0.2,7.6-0.3,11.4c0,0,0,0,0,0c-3.1,8.5-9.1,15.7-16.9,20.3l-2.3,1.4c-2.6,1.5-4.2,4.3-4.2,7.3c0,3,1.6,5.8,4.2,7.3
	l2.3,1.4c7.8,4.6,13.8,11.8,16.9,20.3c0,0,0,0,0,0c0.1,3.8,0.2,7.6,0.3,11.4c-23.2-1.1-45.4-2.9-65.8-5.4
	C-422.5,338.9-423,327.2-423,315.4z M-435.5,363.8c2.1,19.2,5.3,37.8,9.8,55.5c-10.8-3.6-21-7.7-30.7-12.3
	c-9.1-15.6-15.9-32.5-20-50.2C-463.9,359.5-450.2,361.8-435.5,363.8L-435.5,363.8z M-440.4,430.1c6.3,2.4,12.8,4.5,19.5,6.6
	c2,6.6,4.2,13.1,6.5,19.4c-2.9-2.4-5.7-4.8-8.4-7.3C-429.1,442.9-435,436.7-440.4,430.1z M-325,495.2c-2.9-12.8-5.5-27.1-7.7-42.6
	c10.9,0.8,21.9,1.2,33.1,1.2c11.1,0,22.2-0.4,33.1-1.2c-2.2,15.5-4.7,29.8-7.6,42.6c-8.3,1.2-16.8,1.8-25.4,1.8
	C-308.2,496.9-316.7,496.4-325,495.2L-325,495.2z M-184.9,456c2.3-6.3,4.5-12.7,6.5-19.3c6.6-2,13-4.2,19.3-6.5
	C-166.8,439.6-175.4,448.2-184.9,456L-184.9,456z"/>
<path class="st2" d="M-230,171.6c0,3.3,1.7,6.3,4.6,8l4.3,2.6c15.7,9.3,27.8,23.8,34.1,40.9v0c1.4,3.7,4.8,6.1,8.7,6.1
	c3.9,0,7.3-2.4,8.7-6.1c6.3-17.1,18.4-31.7,34.1-40.9l4.3-2.6c2.8-1.7,4.6-4.7,4.6-8c0-3.3-1.7-6.3-4.6-8l-4.3-2.6
	c-15.7-9.3-27.8-23.8-34.1-40.9c-1.4-3.7-4.8-6.1-8.7-6.1c-3.9,0-7.3,2.4-8.7,6.1c-6.3,17.1-18.4,31.6-34.1,40.9l-4.3,2.6
	C-228.3,165.2-230,168.3-230,171.6L-230,171.6z M-178.3,137.4c7.4,13.8,18.2,25.6,31.3,34.2c-13.1,8.6-23.9,20.4-31.3,34.2
	c-7.4-13.8-18.2-25.6-31.3-34.2C-196.5,162.9-185.7,151.1-178.3,137.4z"/>
<path class="st2" d="M-469.1,442.6l-2.9-1.7c-10.2-6-18.1-15.5-22.2-26.6c-1.3-3.4-4.5-5.7-8.2-5.7c0,0,0,0,0,0
	c-3.6,0-6.9,2.3-8.2,5.7c-4.1,11.1-12,20.6-22.2,26.6l-2.9,1.7c-2.6,1.6-4.3,4.4-4.3,7.5c0,3.1,1.6,5.9,4.3,7.5l2.9,1.7
	c10.2,6,18.1,15.5,22.2,26.6v0c1.3,3.4,4.5,5.7,8.2,5.7h0c3.6,0,6.9-2.3,8.2-5.7c4.1-11.1,12-20.6,22.2-26.6l2.9-1.7
	c2.6-1.6,4.3-4.4,4.3-7.5C-464.8,447-466.4,444.2-469.1,442.6z M-502.4,468.6c-4.5-7.2-10.3-13.5-17.1-18.5
	c6.8-5,12.6-11.3,17.1-18.5c4.5,7.2,10.3,13.5,17.1,18.5C-492.1,455.1-497.9,461.5-502.4,468.6z"/>
</svg>
