<?xml version="1.0" encoding="utf-8"?>
<!-- Generator: Adobe Illustrator 26.0.3, SVG Export Plug-In . SVG Version: 6.00 Build 0)  -->
<svg version="1.1" id="Capa_1" xmlns="http://www.w3.org/2000/svg" xmlns:xlink="http://www.w3.org/1999/xlink" x="0px" y="0px"
	 viewBox="0 0 512 512" style="enable-background:new 0 0 512 512;" xml:space="preserve">
<style type="text/css">
	.st0{fill:#fff;}
	.st1{fill:#0F2132;}
	.st2{fill:#E65400;}
</style>
<rect class="st0" width="512" height="512"/>
<g>
	<g>
		<path class="st1" d="M483.2,426.7h-83.2v-50.4c9,5.1,19.2,7.8,29.5,7.8c28.7-0.4,52.6-20,59.7-46.3v-0.9h0.2
			c1.3-5.2,2-10.7,2-16.4c0.2-24.1-13.3-46.2-34.7-57.1c7.1-9.6,10.8-21.3,10.8-33.2c0.2-26.3-18.3-49.1-44.1-54.4
			c6.5-14.4,5.4-31.1-3-44.5c-8.4-13.4-23-21.7-38.8-22.1c-0.2,0-0.4,0-0.5,0c-3.2-21-21.4-36.4-42.7-36.1
			c-21.2,0.2-39,16.1-41.8,37.1c-15.4,3-26.1,17.2-24.6,32.8s14.6,27.6,30.3,27.6H338c0.6,1.8,1.2,3.5,2,5.1
			c-25.8,5.3-44.3,28.1-44.1,54.4c-0.1,11.9,3.7,23.6,10.8,33.2c-21.5,10.9-34.9,33-34.7,57.1c-0.4,34.6,27.3,63,61.9,63.5
			c10.4,0,20.5-2.7,29.5-7.8v50.4h-85.1c-3.2,0-6.1,2.5-6.3,5.7c-0.2,3.6,2.6,6.5,6.1,6.5h205.1c3.4,0,6.1-2.7,6.1-6.1l0,0
			C489.3,429.4,486.6,426.7,483.2,426.7z M335.8,156.3c0,0.7,0.1,1.4,0.1,2.1h-33.4c-10.1,0-18.3-8.2-18.3-18.3
			c0-10.1,8.2-18.3,18.3-18.3c1.6,0,3.2-0.6,4.3-1.8c1.1-1.1,1.8-2.7,1.8-4.3c0-15.9,12.2-29.2,28.1-30.4c15.9-1.2,30,10,32.4,25.7
			C349.2,117.2,335.7,135.6,335.8,156.3z M375.7,426.7v-59.4c2.2-2,4.2-4.2,6.1-6.5c1.9,2.3,3.9,4.5,6.1,6.5v59.4H375.7z
			 M388.6,349.2l40.2-40.2c2.3-2.4,2.3-6.2,0-8.6c-2.4-2.4-6.2-2.4-8.6,0l-32.3,32.3v-62l28.7-28.7c2.4-2.4,2.3-6.2,0-8.6
			c-2.4-2.4-6.2-2.4-8.6,0l-20.1,20.1v-28c0-3.4-2.7-6.1-6.1-6.1c-3.4,0-6.1,2.7-6.1,6.1v28l-20.1-20.1c-2.4-2.4-6.2-2.3-8.6,0
			c-2.4,2.4-2.4,6.2,0,8.6l28.7,28.7v62l-32.3-32.3c-2.4-2.4-6.2-2.3-8.6,0c-2.4,2.4-2.4,6.2,0,8.6l40.2,40.2
			c-8.9,14-24.4,22.5-41,22.6c-27.9-0.5-50.1-23.5-49.7-51.4c-0.3-22.1,13.7-41.8,34.6-48.9c2-0.7,3.5-2.3,4-4.4
			c0.5-2.1-0.1-4.2-1.7-5.7c-8.4-8.2-13.1-19.5-13-31.2c-0.4-23.3,18-42.5,41.3-43.2c2.5,0.2,4.9-1.1,6.1-3.3c1-2,0.8-4.5-0.5-6.4
			c-4.5-6.1-7-13.4-7-21c-0.3-19,14.8-34.6,33.8-34.9c19,0.4,34.1,16,33.8,34.9c0,7.6-2.5,14.9-7,21c-1.3,1.9-1.5,4.3-0.4,6.4
			c1.1,2.1,3.2,3.3,5.5,3.3c23.4,0.4,42.1,19.7,41.7,43.1c0.1,11.7-4.6,23-13,31.2c-1.5,1.5-2.1,3.7-1.7,5.7c0.5,2.1,2,3.7,4,4.4
			c23.4,8.2,37.7,31.9,34,56.4c-3.7,24.5-24.3,42.9-49.1,43.8C413,371.8,397.5,363.3,388.6,349.2z"/>
		<g>
			<g>
				<path class="st1" d="M250,336.3c-1.8,0-3.5-0.9-4.6-2.4c-4.4-6.6-11.8-10.5-19.8-10.5h-5.8c-10.3,0-18.6,8.3-18.6,18.6v5.2
					c0,0.5,0,1,0.1,1.5c-17.3-6.8-33.6-16.6-48.6-29.3c0.5-0.8,0.9-1.7,1.3-2.6c1.4-3.6,1.2-7.6-0.4-11.1c-1.6-3.5-4.5-6.2-8.1-7.5
					l-25.2-9.4c0,0-21.9-21.8-21.9-21.8c-1.5-1.5-3.1-2.8-4.8-3.9c4.9-4.1,8-10.2,8-17.1c0-12.3-10-22.3-22.3-22.3
					C67,223.7,57,233.7,57,246c0,6.9,3.1,13,8,17.1c-1.7,1.1-3.3,2.4-4.7,3.8c0,0-23,22.2-23,22.2c-1.5,1.3-2.6,2.9-3.4,4.8
					l-12.1,27.4c-3.2,7.3,0.1,15.9,7.4,19.1c1.9,0.8,3.8,1.2,5.9,1.2c5.7,0,10.8-3.3,13.2-8.4l4.4-8.1v6.1c0,2.1,1.3,3.8,3.2,4.5
					l-7.7,39.8l-21.9,39.3c-2.1,3.8-2.6,8.1-1.4,12.3c1.2,4.2,3.9,7.6,7.7,9.7c2.4,1.3,5.1,2,7.9,2c5.9,0,11.3-3.2,14.2-8.3
					l23.1-41.5c0.8-1.5,1.4-3,1.7-4.7l4.9-19l9.6,19.5l0.4,2.2c0.5,2.5,3,4.2,5.5,3.7c2.5-0.5,4.2-3,3.7-5.5l-0.6-2.8
					c-0.1-0.4-0.2-0.8-0.4-1.2l-15.5-31.5c-0.9-1.8-2.7-2.8-4.7-2.6c-2,0.2-3.6,1.6-4.1,3.5c0,0-8.1,31.6-8.1,31.7
					c-0.1,0.7-0.4,1.4-0.7,2l-23.1,41.5c-1.2,2.2-3.5,3.5-5.9,3.5c-1.2,0-2.3-0.3-3.3-0.9c-1.6-0.9-2.7-2.3-3.2-4.1
					c-0.5-1.7-0.3-3.6,0.6-5.2l22.2-39.9c0.2-0.4,0.4-0.9,0.5-1.4l8.1-42.1h31.3l19,40.9c0.2,0.5,0.4,1,0.5,1.5l8.4,42.7
					c0.3,1.8,0,3.6-1,5.1s-2.5,2.5-4.3,2.9c-0.4,0.1-0.9,0.1-1.3,0.1c-2.5,0-4.8-1.4-6-3.5c-1.2-2.3-4.1-3.1-6.4-1.9
					c-2.3,1.2-3.1,4.1-1.9,6.4c2.8,5.2,8.3,8.4,14.2,8.4c1,0,2.1-0.1,3.1-0.3c4.2-0.8,7.9-3.3,10.3-6.9c2.4-3.6,3.3-7.9,2.4-12.1
					l-8.4-42.7c-0.2-1.3-0.7-2.5-1.2-3.7l-18.4-39.8c0.3-0.6,0.4-1.2,0.4-1.9v-16.9c0.4,0.2,0.9,0.4,1.3,0.6l28.1,10.5
					c1.6,0.6,3.3,0.9,5.1,0.9c1.7,0,3.3-0.3,4.8-0.9c17.6,15.1,36.9,26.5,57.6,33.9c-1.2,0.3-2.4,0.4-3.7,0.4H180
					c-8.8,0-16.7,4.1-21.9,10.5c-7.5-0.9-13.9-6.3-15.8-13.8c-0.6-2.5-3.2-4-5.7-3.4c-2.5,0.6-4,3.2-3.4,5.7
					c2.6,10.1,10.4,17.7,20.2,20.1c-0.9,2.8-1.4,5.7-1.4,8.8c0,5.1,1.4,10.1,4,14.4l1,1.6l-3.1,10.2c-0.3,0.8-0.3,1.8,0,2.6
					l3.4,12.3c1.6,5.9,7.1,10.1,13.3,10.1c4.4,0,8.6-2.2,11.2-5.8c2.6-3.6,3.3-8.3,1.8-12.4l-0.7-2.1l2.7-2.7c1.1-1.1,2.1-2.4,3-3.7
					h25.4l13.1,20.4c2.5,4,6.9,6.3,11.6,6.3c4.9,0,9.3-2.5,11.8-6.7c2.5-4.2,2.6-9.2,0.4-13.5l-9.4-17.6c-0.5-1-0.5-2.3,0.2-3.2
					c5.7-8.7,7.2-19.4,4.2-29.1c8.5-0.3,15.4-7.3,15.4-15.9v-5.5C261,341.2,256.1,336.3,250,336.3L250,336.3z M210.6,341.9
					c0-5.1,4.1-9.2,9.2-9.2h0.4v14.4c0,2.7-2.2,4.8-4.8,4.8c-2.7,0-4.8-2.2-4.8-4.8L210.6,341.9L210.6,341.9z M79.3,233.1
					c7.1,0,12.9,5.8,12.9,12.9c0,7.1-5.8,12.9-12.9,12.9c-7.1,0-12.9-5.8-12.9-12.9C66.4,238.9,72.2,233.1,79.3,233.1z M39.6,329.2
					c-0.8,1.8-2.6,3-4.7,3c-0.7,0-1.4-0.1-2.1-0.4c-2.6-1.1-3.7-4.1-2.6-6.7l12.1-27.4c0.3-0.6,0.7-1.2,1.2-1.7c0,0,8.9-8.6,8.9-8.6
					v18.2C52.5,305.6,39.7,329.1,39.6,329.2L39.6,329.2z M138.7,316.5L110.6,306c-0.7-0.2-1.3-0.6-1.8-1.1L87.2,284
					c-1.9-1.8-4.8-1.8-6.6,0.1c-1.8,1.9-1.8,4.8,0.1,6.6l16,15.4v20.3H61.9v-40.8c0-9.6,7.8-17.3,17.3-17.3c4.7,0,9.1,1.8,12.4,5.2
					c0,0,22.7,22.6,22.7,22.6c0.5,0.5,1,0.8,1.7,1.1l26.2,9.7c1.3,0.5,2.3,1.4,2.8,2.6s0.6,2.6,0.1,3.9c-0.7,2-2.7,3.3-4.8,3.3
					C139.8,316.8,139.2,316.7,138.7,316.5L138.7,316.5z M242.4,423.1c1,2,0.3,3.7-0.1,4.3c-0.4,0.6-1.5,2.1-3.7,2.1
					c-1.5,0-2.9-0.7-3.7-2L220.3,405c-0.9-1.3-2.4-2.2-4-2.2h-24.3c0.5-3.2,0.4-6.5-0.4-9.7c-0.6-2.5-3.2-4-5.7-3.4
					c-2.5,0.6-4,3.2-3.4,5.7c1.2,4.9-0.2,10.2-3.8,13.8l-4.7,4.8c-1.3,1.3-1.7,3.1-1.1,4.8l1.7,4.9c0.5,1.3,0.3,2.8-0.6,3.9
					c-0.8,1.2-2.1,1.8-3.5,1.8c-2,0-3.7-1.3-4.2-3.2l-3-10.9l3.3-10.9c0.4-1.3,0.2-2.6-0.5-3.8l-2-3.4c-1.7-2.9-2.7-6.2-2.7-9.6
					c0-10.3,8.4-18.6,18.6-18.6h19.1c6.1,0,11.8-2.1,16.4-5.9l19.8,4.9c3.7,7.9,3.1,17.1-1.7,24.6c-2.5,3.8-2.7,8.7-0.6,12.8
					L242.4,423.1z M251.6,352.8c0,3.6-2.9,6.5-6.5,6.5h-6l-12.7-3.2c2-2.5,3.3-5.6,3.3-9.1v-13.8c3.2,0.9,6.1,2.9,8,5.8
					c2.8,4.1,7.4,6.6,12.3,6.6c0.9,0,1.7,0.7,1.7,1.7L251.6,352.8z"/>
				<circle class="st1" cx="103" cy="406.8" r="4.7"/>
			</g>
		</g>
	</g>
	<path class="st2" d="M158.1,175.5c14.8,0,26.8-12,26.8-26.8c0-14.8-12-26.8-26.8-26.8c-14.8,0-26.8,12-26.8,26.8
		C131.3,163.4,143.3,175.5,158.1,175.5z M158.1,132.6c8.9,0,16.1,7.2,16.1,16.1c0,8.9-7.2,16.1-16.1,16.1s-16.1-7.2-16.1-16.1
		C142,139.8,149.2,132.6,158.1,132.6z"/>
	<circle class="st2" cx="202.6" cy="148.7" r="4.7"/>
	<circle class="st2" cx="112.1" cy="148.7" r="4.7"/>
	<circle class="st2" cx="158.1" cy="193.7" r="4.7"/>
	<circle class="st2" cx="158.1" cy="104.7" r="4.7"/>
	<circle class="st2" cx="189.1" cy="116" r="4.7"/>
	<circle class="st2" cx="125.2" cy="180" r="4.7"/>
	<circle class="st2" cx="188.1" cy="180.1" r="4.7"/>
	<circle class="st2" cx="125.2" cy="117.2" r="4.7"/>
</g>
<g>
	<g>
		<path class="st0" d="M-154,426.7h-83.2v-50.4c9,5.1,19.2,7.8,29.5,7.8c28.7-0.4,52.6-20,59.7-46.3v-0.9h0.2c1.3-5.2,2-10.7,2-16.4
			c0.2-24.1-13.3-46.2-34.7-57.1c7.1-9.6,10.8-21.3,10.8-33.2c0.2-26.3-18.3-49.1-44.1-54.4c6.5-14.4,5.4-31.1-3-44.5
			c-8.4-13.4-23-21.7-38.8-22.1c-0.2,0-0.4,0-0.5,0c-3.2-21-21.4-36.4-42.7-36.1c-21.2,0.2-39,16.1-41.8,37.1
			c-15.4,3-26.1,17.2-24.6,32.8s14.6,27.6,30.3,27.6h35.5c0.6,1.8,1.2,3.5,2,5.1c-25.8,5.3-44.3,28.1-44.1,54.4
			c-0.1,11.9,3.7,23.6,10.8,33.2c-21.5,10.9-34.9,33-34.7,57.1c-0.4,34.6,27.3,63,61.9,63.5c10.4,0,20.5-2.7,29.5-7.8v50.4h-85.1
			c-3.2,0-6.1,2.5-6.3,5.7c-0.2,3.6,2.6,6.5,6.1,6.5H-154c3.4,0,6.1-2.7,6.1-6.1l0,0C-148,429.4-150.7,426.7-154,426.7z
			 M-301.5,156.3c0,0.7,0.1,1.4,0.1,2.1h-33.4c-10.1,0-18.3-8.2-18.3-18.3c0-10.1,8.2-18.3,18.3-18.3c1.6,0,3.2-0.6,4.3-1.8
			c1.1-1.1,1.8-2.7,1.8-4.3c0-15.9,12.2-29.2,28.1-30.4c15.9-1.2,30,10,32.4,25.7C-288.1,117.2-301.6,135.6-301.5,156.3z
			 M-261.6,426.7v-59.4c2.2-2,4.2-4.2,6.1-6.5c1.9,2.3,3.9,4.5,6.1,6.5v59.4H-261.6z M-248.7,349.2l40.2-40.2c2.3-2.4,2.3-6.2,0-8.6
			c-2.4-2.4-6.2-2.4-8.6,0l-32.3,32.3v-62l28.7-28.7c2.4-2.4,2.3-6.2,0-8.6c-2.4-2.4-6.2-2.4-8.6,0l-20.1,20.1v-28
			c0-3.4-2.7-6.1-6.1-6.1c-3.4,0-6.1,2.7-6.1,6.1v28l-20.1-20.1c-2.4-2.4-6.2-2.3-8.6,0c-2.4,2.4-2.4,6.2,0,8.6l28.7,28.7v62
			l-32.3-32.3c-2.4-2.4-6.2-2.3-8.6,0c-2.4,2.4-2.4,6.2,0,8.6l40.2,40.2c-8.9,14-24.4,22.5-41,22.6c-27.9-0.5-50.1-23.5-49.7-51.4
			c-0.3-22.1,13.7-41.8,34.6-48.9c2-0.7,3.5-2.3,4-4.4c0.5-2.1-0.1-4.2-1.7-5.7c-8.4-8.2-13.1-19.5-13-31.2
			c-0.4-23.3,18-42.5,41.3-43.2c2.5,0.2,4.9-1.1,6.1-3.3c1-2,0.8-4.5-0.5-6.4c-4.5-6.1-7-13.4-7-21c-0.3-19,14.8-34.6,33.8-34.9
			c19,0.4,34.1,16,33.8,34.9c0,7.6-2.5,14.9-7,21c-1.3,1.9-1.5,4.3-0.4,6.4c1.1,2.1,3.2,3.3,5.5,3.3c23.4,0.4,42.1,19.7,41.7,43.1
			c0.1,11.7-4.6,23-13,31.2c-1.5,1.5-2.1,3.7-1.7,5.7c0.5,2.1,2,3.7,4,4.4c23.4,8.2,37.7,31.9,34,56.4
			c-3.7,24.5-24.3,42.9-49.1,43.8C-224.3,371.8-239.7,363.3-248.7,349.2z"/>
		<g>
			<g>
				<path class="st0" d="M-387.3,336.3c-1.8,0-3.5-0.9-4.6-2.4c-4.4-6.6-11.8-10.5-19.8-10.5h-5.8c-10.3,0-18.6,8.3-18.6,18.6v5.2
					c0,0.5,0,1,0.1,1.5c-17.3-6.8-33.6-16.6-48.6-29.3c0.5-0.8,0.9-1.7,1.3-2.6c1.4-3.6,1.2-7.6-0.4-11.1c-1.6-3.5-4.5-6.2-8.1-7.5
					l-25.2-9.4c0,0-21.9-21.8-21.9-21.8c-1.5-1.5-3.1-2.8-4.8-3.9c4.9-4.1,8-10.2,8-17.1c0-12.3-10-22.3-22.3-22.3
					c-12.3,0-22.3,10-22.3,22.3c0,6.9,3.1,13,8,17.1c-1.7,1.1-3.3,2.4-4.7,3.8c0,0-23,22.2-23,22.2c-1.5,1.3-2.6,2.9-3.4,4.8
					l-12.1,27.4c-3.2,7.3,0.1,15.9,7.4,19.1c1.9,0.8,3.8,1.2,5.9,1.2c5.7,0,10.8-3.3,13.2-8.4l4.4-8.1v6.1c0,2.1,1.3,3.8,3.2,4.5
					l-7.7,39.8l-21.9,39.3c-2.1,3.8-2.6,8.1-1.4,12.3c1.2,4.2,3.9,7.6,7.7,9.7c2.4,1.3,5.1,2,7.9,2c5.9,0,11.3-3.2,14.2-8.3
					l23.1-41.5c0.8-1.5,1.4-3,1.7-4.7l4.9-19l9.6,19.5l0.4,2.2c0.5,2.5,3,4.2,5.5,3.7c2.5-0.5,4.2-3,3.7-5.5l-0.6-2.8
					c-0.1-0.4-0.2-0.8-0.4-1.2l-15.5-31.5c-0.9-1.8-2.7-2.8-4.7-2.6c-2,0.2-3.6,1.6-4.1,3.5c0,0-8.1,31.6-8.1,31.7
					c-0.1,0.7-0.4,1.4-0.7,2l-23.1,41.5c-1.2,2.2-3.5,3.5-5.9,3.5c-1.2,0-2.3-0.3-3.3-0.9c-1.6-0.9-2.7-2.3-3.2-4.1
					s-0.3-3.6,0.6-5.2l22.2-39.9c0.2-0.4,0.4-0.9,0.5-1.4l8.1-42.1h31.3l19,40.9c0.2,0.5,0.4,1,0.5,1.5l8.4,42.7
					c0.3,1.8,0,3.6-1,5.1s-2.5,2.5-4.3,2.9c-0.4,0.1-0.9,0.1-1.3,0.1c-2.5,0-4.8-1.4-6-3.5c-1.2-2.3-4.1-3.1-6.4-1.9
					s-3.1,4.1-1.9,6.4c2.8,5.2,8.3,8.4,14.2,8.4c1,0,2.1-0.1,3.1-0.3c4.2-0.8,7.9-3.3,10.3-6.9c2.4-3.6,3.3-7.9,2.4-12.1l-8.4-42.7
					c-0.2-1.3-0.7-2.5-1.2-3.7l-18.4-39.8c0.3-0.6,0.4-1.2,0.4-1.9v-16.9c0.4,0.2,0.9,0.4,1.3,0.6l28.1,10.5
					c1.6,0.6,3.3,0.9,5.1,0.9c1.7,0,3.3-0.3,4.8-0.9c17.6,15.1,36.9,26.5,57.6,33.9c-1.2,0.3-2.4,0.4-3.7,0.4h-19.1
					c-8.8,0-16.7,4.1-21.9,10.5c-7.5-0.9-13.9-6.3-15.8-13.8c-0.6-2.5-3.2-4-5.7-3.4c-2.5,0.6-4,3.2-3.4,5.7
					c2.6,10.1,10.4,17.7,20.2,20.1c-0.9,2.8-1.4,5.7-1.4,8.8c0,5.1,1.4,10.1,4,14.4l1,1.6l-3.1,10.2c-0.3,0.8-0.3,1.8,0,2.6
					l3.4,12.3c1.6,5.9,7.1,10.1,13.3,10.1c4.4,0,8.6-2.2,11.2-5.8c2.6-3.6,3.3-8.3,1.8-12.4l-0.7-2.1l2.7-2.7c1.1-1.1,2.1-2.4,3-3.7
					h25.4l13.1,20.4c2.5,4,6.9,6.3,11.6,6.3c4.9,0,9.3-2.5,11.8-6.7c2.5-4.2,2.6-9.2,0.4-13.5l-9.4-17.6c-0.5-1-0.5-2.3,0.2-3.2
					c5.7-8.7,7.2-19.4,4.2-29.1c8.5-0.3,15.4-7.3,15.4-15.9v-5.5C-376.2,341.2-381.2,336.3-387.3,336.3L-387.3,336.3z M-426.7,341.9
					c0-5.1,4.1-9.2,9.2-9.2h0.4v14.4c0,2.7-2.2,4.8-4.8,4.8c-2.7,0-4.8-2.2-4.8-4.8L-426.7,341.9L-426.7,341.9z M-558,233.1
					c7.1,0,12.9,5.8,12.9,12.9c0,7.1-5.8,12.9-12.9,12.9c-7.1,0-12.9-5.8-12.9-12.9C-570.9,238.9-565.1,233.1-558,233.1z
					 M-597.7,329.2c-0.8,1.8-2.6,3-4.7,3c-0.7,0-1.4-0.1-2.1-0.4c-2.6-1.1-3.7-4.1-2.6-6.7l12.1-27.4c0.3-0.6,0.7-1.2,1.2-1.7
					c0,0,8.9-8.6,8.9-8.6v18.2C-584.7,305.6-597.6,329.1-597.7,329.2L-597.7,329.2z M-498.6,316.5l-28.1-10.5
					c-0.7-0.2-1.3-0.6-1.8-1.1l-21.7-20.9c-1.9-1.8-4.8-1.8-6.6,0.1c-1.8,1.9-1.8,4.8,0.1,6.6l16,15.4v20.3h-34.7v-40.8
					c0-9.6,7.8-17.3,17.3-17.3c4.7,0,9.1,1.8,12.4,5.2c0,0,22.7,22.6,22.7,22.6c0.5,0.5,1,0.8,1.7,1.1l26.2,9.7
					c1.3,0.5,2.3,1.4,2.8,2.6s0.6,2.6,0.1,3.9c-0.7,2-2.7,3.3-4.8,3.3C-497.4,316.8-498,316.7-498.6,316.5L-498.6,316.5z
					 M-394.9,423.1c1,2,0.3,3.7-0.1,4.3c-0.4,0.6-1.5,2.1-3.7,2.1c-1.5,0-2.9-0.7-3.7-2L-417,405c-0.9-1.3-2.4-2.2-4-2.2h-24.3
					c0.5-3.2,0.4-6.5-0.4-9.7c-0.6-2.5-3.2-4-5.7-3.4c-2.5,0.6-4,3.2-3.4,5.7c1.2,4.9-0.2,10.2-3.8,13.8l-4.7,4.8
					c-1.3,1.3-1.7,3.1-1.1,4.8l1.7,4.9c0.5,1.3,0.3,2.8-0.6,3.9c-0.8,1.2-2.1,1.8-3.5,1.8c-2,0-3.7-1.3-4.2-3.2l-3-10.9l3.3-10.9
					c0.4-1.3,0.2-2.6-0.5-3.8l-2-3.4c-1.7-2.9-2.7-6.2-2.7-9.6c0-10.3,8.4-18.6,18.6-18.6h19.1c6.1,0,11.8-2.1,16.4-5.9l19.8,4.9
					c3.7,7.9,3.1,17.1-1.7,24.6c-2.5,3.8-2.7,8.7-0.6,12.8L-394.9,423.1z M-385.6,352.8c0,3.6-2.9,6.5-6.5,6.5h-6l-12.7-3.2
					c2-2.5,3.3-5.6,3.3-9.1v-13.8c3.2,0.9,6.1,2.9,8,5.8c2.8,4.1,7.4,6.6,12.3,6.6c0.9,0,1.7,0.7,1.7,1.7V352.8z"/>
				<circle class="st0" cx="-534.3" cy="406.8" r="4.7"/>
			</g>
		</g>
	</g>
	<path class="st2" d="M-479.2,175.5c14.8,0,26.8-12,26.8-26.8c0-14.8-12-26.8-26.8-26.8s-26.8,12-26.8,26.8
		C-506,163.4-494,175.5-479.2,175.5z M-479.2,132.6c8.9,0,16.1,7.2,16.1,16.1c0,8.9-7.2,16.1-16.1,16.1c-8.9,0-16.1-7.2-16.1-16.1
		C-495.3,139.8-488.1,132.6-479.2,132.6z"/>
	<circle class="st2" cx="-434.7" cy="148.7" r="4.7"/>
	<circle class="st2" cx="-525.1" cy="148.7" r="4.7"/>
	<circle class="st2" cx="-479.2" cy="193.7" r="4.7"/>
	<circle class="st2" cx="-479.2" cy="104.7" r="4.7"/>
	<circle class="st2" cx="-448.1" cy="116" r="4.7"/>
	<circle class="st2" cx="-512.1" cy="180" r="4.7"/>
	<circle class="st2" cx="-449.2" cy="180.1" r="4.7"/>
	<circle class="st2" cx="-512.1" cy="117.2" r="4.7"/>
</g>
</svg>
