<?xml version="1.0" encoding="utf-8"?>
<!-- Generator: Adobe Illustrator 26.0.3, SVG Export Plug-In . SVG Version: 6.00 Build 0)  -->
<svg version="1.1" id="Capa_1" xmlns="http://www.w3.org/2000/svg" xmlns:xlink="http://www.w3.org/1999/xlink" x="0px" y="0px"
	 viewBox="0 0 512 512" style="enable-background:new 0 0 512 512;" xml:space="preserve">
	 <style type="text/css">
	.st1{fill:#0F2132;}
	.st2 {
  fill: #E65400;
}
</style>
<g id="XMLID_2006_">
	<g id="XMLID_706_">
		<path class="st1" id="XMLID_710_" d="M503.2,398.8H339c11.2-8.8,20.1-20.5,25.7-34.3c9.8-24.3,25-46.3,44.1-63.7c21-19.1,43.2-37.5,61.2-52.3
			c11.3-6.9,18.7-18.4,20.3-31.5c14.3-18.9,12.4-47.1-4.6-61.7c-1.8-1.5-4.1-2.3-6.4-2.1c-2.3,0.2-4.5,1.3-6,3l-45,52.3l-67.8,48.8
			c-3.9,2.8-4.8,8.3-2,12.2c1.7,2.4,4.4,3.6,7.1,3.6c1.8,0,3.6-0.5,5.1-1.7l63-45.4l17.5,15c-16.6,13.7-35.8,29.8-54.2,46.5
			c-21,19.1-37.8,43.4-48.6,70.1c-10,24.8-33.8,40.9-60.5,40.9h-14.5c-11.2,0-22.1-1.8-32.4-5.1l27.6-43.3c2.8,1.1,5.8,1.7,8.9,1.7
			c0.2,0,0.3,0,0.5,0c7.1-0.1,13.7-3.4,18.1-9c5.1-6.5,11.1-13.7,17.3-20.9c3.2-3.7,2.7-9.2-0.9-12.4c-3.7-3.2-9.2-2.7-12.4,0.9
			c-6.3,7.4-12.5,14.8-17.7,21.5c-1.6,2-3.6,2.3-4.7,2.4c-1.1,0-3.2-0.2-4.9-2.2c-5.4-6.4-10.2-15.1-16.8-27.1
			c-4.5-8.2-10.1-18.4-17.3-30.5c-1.3-2.2-2.9-4.4-4.6-6.7l87.4-86.8c5.2-5.2,8-12,7.9-19.4c-0.1-7.3-3.1-14.1-8.4-19.1
			c-10.1-9.5-25.5-9.8-36-0.7L197,218.7c1.7-13.5-2.6-27.6-13-38l-7.4-7.4c-16.4-16.4-42.2-17.7-60-3.9c-11.1-3.3-23.5-0.4-31.9,8
			c-12.5,12.5-12.5,32.8,0,45.2c6.1,6.1,14.2,9.4,22.6,9.4h0c1.5,2,3.1,4,4.9,5.7l7.4,7.4c5.7,5.7,12.5,9.6,20,11.7
			c-4.2,30.6,3.1,62.1,20.4,87.8l11.9,17.7c10.2,15.1,23.3,27.4,38.4,36.5H9.1c-4.8,0-8.8,3.9-8.8,8.8s3.9,8.8,8.8,8.8h494.2
			c4.8,0,8.8-3.9,8.8-8.8S508.1,398.8,503.2,398.8L503.2,398.8z M479.8,175.7c1.6,3.4,2.6,7.3,2.6,11.5c0.2,7.6-2.5,15.2-7.2,20.7
			c-1.3,1.5-2,3.3-2.1,5.3c-0.3,6.6-3.2,12.6-7.8,17l-18.6-16L479.8,175.7z M296.5,155.2c1.8-1.5,3.9-2.3,6.1-2.3
			c2.3,0,4.6,0.8,6.3,2.5c1.8,1.7,2.9,4.1,2.9,6.6c0,2.5-0.9,4.9-2.7,6.7h0l-98.7,98.1c-3.5,3.5-8.7,4.8-13.5,3.5
			c-4.9-1.4-8.5-5.2-9.7-10.2c-1.1-5,0.5-10,4.4-13.4L296.5,155.2z M171.6,232.7c-5.3,5.3-12.3,8.2-19.8,8.2
			c-3.7,0-7.3-0.7-10.6-2.1l11.6-11.6c2.3-2.3,3.1-5.7,2.2-8.9c-2.1-6.7-0.4-13.9,4.6-18.9l9.3-9.3l2.8,2.8
			C182.6,204,182.6,221.8,171.6,232.7L171.6,232.7z M111.9,214c-0.6,0-1.1,0.1-1.7,0.2c-4.8,1-9.7-0.5-13.1-4
			c-2.7-2.7-4.2-6.4-4.2-10.2s1.5-7.5,4.2-10.2c4.5-4.5,11.5-5.5,17.1-2.5c3.4,1.8,7.7,1.2,10.4-1.6c0,0,0-0.1,0.1-0.1
			c8.2-8.1,20.2-10.1,30.2-6.1l-7.7,7.7c-8.3,8.3-12,19.8-10.2,31.2l-9.7,9.7l-2.7-2.7c-2-2-3.6-4.2-4.9-6.7
			C118,215.7,115,214,111.9,214L111.9,214z M186.4,352.5l-11.9-17.7c-15.1-22.4-21.3-50-17.4-76.6c4.3-0.5,8.4-1.6,12.3-3.2
			c-0.2,2.9,0.1,5.9,0.7,8.8c2.5,11.4,10.8,20.1,22,23.3c2.8,0.8,5.7,1.2,8.5,1.2c7.6,0,15-2.8,20.8-7.9c0.8,1.1,1.5,2.2,2.2,3.3
			c7.1,11.8,12.3,21.4,16.9,29.9c5.6,10.2,10,18.2,14.8,24.9l-30.7,48.2C209.5,378.8,196.3,367.1,186.4,352.5L186.4,352.5z"/>
		<path class="st1" id="XMLID_716_" d="M324.9,287.6c0,2.3,0.9,4.6,2.6,6.2c1.6,1.6,3.9,2.6,6.2,2.6c2.3,0,4.6-0.9,6.2-2.6
			c1.6-1.6,2.6-3.9,2.6-6.2c0-2.3-0.9-4.6-2.6-6.2c-1.6-1.6-3.9-2.6-6.2-2.6c-2.3,0-4.6,0.9-6.2,2.6
			C325.9,283,324.9,285.2,324.9,287.6z"/>
	</g>
</g>
<g>
	<g>
		<path class="st2" d="M89.9,382.6l0.2-20c0.1-7.2-5.8-13.1-12.9-13.1l-3.2,0l0-27.3l3.2,0c7.2,0.1,13.1-5.8,13.1-12.9l0.2-20
			c0-7.2-5.8-13.1-12.9-13.1l-44-0.3c-7.2-0.1-13.1,5.7-13.1,12.9l-0.2,20c0,3.5,1.3,6.8,3.8,9.2c2.4,2.5,5.7,3.9,9.2,3.9l3.2,0
			l0,27.3l-3.2,0c-7.2-0.1-13.1,5.8-13.1,12.9l-0.2,20c0,0.7,0,1.4,0.1,2c0.9,6.2,6.3,11.1,12.8,11.1l44,0.3
			C84,395.6,89.9,389.8,89.9,382.6z M32.9,382.6c-0.3,0-0.5-0.3-0.5-0.5l0.2-20c0-0.2,0.3-0.5,0.5-0.5l9.4,0.1
			c3.5,0,6.3-2.8,6.3-6.2l0.1-39.8c0-0.3,0-0.6-0.1-1c-0.2-1.3-0.8-2.5-1.7-3.5c-1.2-1.2-2.8-1.9-4.4-1.9l-9.4-0.1
			c-0.2,0-0.6-0.3-0.5-0.5l0.2-20c0-0.3,0.2-0.5,0.5-0.5l44,0.3c0.3,0,0.5,0.2,0.5,0.5l-0.2,20c0,0.2-0.3,0.5-0.5,0.5l-9.4-0.1
			c-1.7,0-3.3,0.6-4.4,1.8c-1.2,1.2-1.9,2.8-1.9,4.4l-0.1,39.8c0,1.7,0.6,3.3,1.8,4.4c1.2,1.2,2.8,1.9,4.4,1.9l9.4,0.1
			c0.3,0,0.5,0.2,0.5,0.5l-0.2,20c0,0,0,0,0,0c0,0.3-0.2,0.5-0.5,0.5L32.9,382.6z"/>
	</g>
</g>
</svg>
