<?xml version="1.0" encoding="utf-8"?>
<!-- Generator: Adobe Illustrator 26.0.3, SVG Export Plug-In . SVG Version: 6.00 Build 0)  -->
<svg version="1.1" id="Capa_1" xmlns="http://www.w3.org/2000/svg" xmlns:xlink="http://www.w3.org/1999/xlink" x="0px" y="0px"
	 viewBox="0 0 512 512" style="enable-background:new 0 0 512 512;" xml:space="preserve">
<style type="text/css">
	.st0{fill:#0F2132;}
	.st1{fill:#FFFFFF;}
	.st2{fill:#E65400;}
</style>
<rect x="756.8" class="st0" width="512" height="512"/>
<path class="st0" d="M1012.8,404.2c20.8,0,37.8-16.9,37.8-37.8s-16.9-37.8-37.8-37.8c-20.8,0-37.8,16.9-37.8,37.8
	S991.9,404.2,1012.8,404.2z M1012.8,343.7c12.6,0,22.8,10.2,22.8,22.8s-10.2,22.8-22.8,22.8c-12.6,0-22.8-10.2-22.8-22.8
	S1000.2,343.7,1012.8,343.7z"/>
<path class="st1" d="M1238.2,450.8h-24.8c1.2-25.3,8.6-38.1,14.8-44.5c2.9-3,2.8-7.7-0.1-10.6c-3-2.9-7.7-2.9-10.6,0.1
	c-6.8,7-11.9,16.2-15.1,27.7c-4.8-7.9-9.5-12.8-9.9-13.3c-2.9-3-7.6-3.1-10.6-0.2c-3,2.9-3.1,7.6-0.2,10.6
	c0.1,0.1,12.7,13.2,15.8,30.2h-50.9c3.4-7.2,8.7-16.7,15.3-23.4c2.9-2.9,2.9-7.7,0-10.6c-2.9-2.9-7.7-2.9-10.6,0
	c-5.6,5.6-10.3,12.6-13.9,19.2c-6.5-13.3-16.6-21.8-17.2-22.3c-3.2-2.6-7.9-2.2-10.5,1c-2.6,3.2-2.2,7.9,0.9,10.6
	c0.1,0.1,12.8,10.9,16.3,25.6h-42.3v-84.4c0-5.7-0.7-11.2-1.9-16.5l117.5-34.8c4-1.2,6.2-5.3,5.1-9.3c-1.2-4-5.3-6.2-9.3-5.1
	l-118.2,35c-4.9-10.4-12.2-19.4-21.2-26.3l167.9-49.7c1.4-0.4,2.9-0.6,4.4-0.6c6.9,0,13,4.6,15,11.2c1.2,4,0.7,8.2-1.3,11.9
	c-2,3.7-5.3,6.3-9.3,7.5l-8.8,2.6c-4,1.2-6.2,5.3-5.1,9.3c1.2,4,5.3,6.2,9.3,5.1l8.8-2.6c7.8-2.3,14.3-7.6,18.2-14.7
	c3.9-7.2,4.8-15.5,2.5-23.3c-3.8-12.9-15.9-21.9-29.4-21.9c-3,0-5.9,0.4-8.7,1.3l-49.6,14.7l-15.4-52.2c-1.7-5.9-5.7-10.7-11.1-13.7
	c-5.4-2.9-11.6-3.6-17.5-1.8c-12.1,3.6-19.1,16.4-15.5,28.5l15.4,52.2l-88.3,26.1c-7.9-3-16.5-4.7-25.5-4.7
	c-23.7,0-44.8,11.6-57.9,29.4l-73.3,21.7l-15.4-52.2c-1.7-5.9-5.7-10.7-11.1-13.7c-5.4-2.9-11.6-3.6-17.5-1.8
	c-12.1,3.6-19.1,16.4-15.5,28.5l15.4,52.2L788,373.3c-16.2,4.8-25.5,21.9-20.7,38c3.8,12.9,15.9,21.9,29.3,21.9
	c2.9,0,5.9-0.4,8.7-1.3l135.6-40.1v58.9H858c-4.1,0-7.5,3.4-7.5,7.5s3.4,7.5,7.5,7.5h380.1c4.2,0,8.1,1.6,11,4.6
	c2.9,2.9,4.6,6.9,4.6,11c0,8.6-7,15.6-15.6,15.6H787.4c-4.2,0-8.1-1.6-11-4.6s-4.6-6.9-4.6-11c0-8.6,7-15.6,15.6-15.6H828
	c4.1,0,7.5-3.4,7.5-7.5s-3.4-7.5-7.5-7.5h-40.7c-16.9,0-30.6,13.7-30.6,30.6c0,8.2,3.2,15.9,9,21.6c5.8,5.8,13.5,9,21.6,9h450.8
	c16.9,0,30.6-13.7,30.6-30.6c0-8.2-3.2-15.9-9-21.6C1254,454,1246.3,450.8,1238.2,450.8L1238.2,450.8z M1125.5,216.7
	c-1.2-4.2,1.2-8.6,5.4-9.9c0.7-0.2,1.5-0.3,2.3-0.3c1.3,0,2.6,0.3,3.8,1c1.9,1,3.2,2.7,3.8,4.7l15.4,52.2l-15.3,4.5L1125.5,216.7z
	 M841.9,292.3c0.7-0.2,1.5-0.3,2.3-0.3c1.3,0,2.6,0.3,3.8,1c1.9,1,3.2,2.7,3.8,4.7l15.4,52.2l-15.3,4.5l-15.4-52.2
	C835.3,298,837.7,293.6,841.9,292.3L841.9,292.3z M1012.8,309.6c31.3,0,56.8,25.5,56.8,56.8v84.4H955.9v-84.4
	C955.9,335.1,981.4,309.6,1012.8,309.6L1012.8,309.6z M801.1,417.6c-1.5,0.4-2.9,0.6-4.4,0.6c-6.9,0-13-4.6-15-11.2
	c-2.4-8.3,2.3-17,10.5-19.4L945,342.5c-2.7,7.5-4.1,15.5-4.1,23.9v9.8L801.1,417.6z"/>
<path class="st2" d="M1161.4,105.9h54.4c29.2,0,53-23.8,53-53c0-29.2-23.8-53-53-53c-19.4,0-36.9,10.4-46.2,27.1
	c-2.7-0.6-5.4-0.8-8.2-0.8c-22,0-39.9,17.9-39.9,39.9C1121.6,88.1,1139.4,105.9,1161.4,105.9z M1161.4,41.2c3.2,0,6.4,0.6,9.3,1.8
	c1.9,0.8,3.9,0.7,5.8,0c1.8-0.8,3.3-2.3,4-4.1c5.8-14.5,19.6-23.9,35.3-23.9c20.9,0,38,17,38,38c0,20.9-17,38-38,38h-54.4
	c-13.7,0-24.9-11.2-24.9-24.9S1147.7,41.2,1161.4,41.2z"/>
<path class="st2" d="M832.1,196.5h44.3c18.7,0,33.9-15.2,33.9-33.9s-15.2-33.9-33.9-33.9c-2,0-4,0.2-6,0.5
	c-7.9-13.5-22.4-21.9-38.4-21.9c-24.6,0-44.6,20-44.6,44.6S807.5,196.5,832.1,196.5L832.1,196.5z M832.1,122.4
	c12.2,0,22.9,7.3,27.5,18.6c0.7,1.9,2.2,3.3,4,4.1c1.8,0.8,3.9,0.8,5.8,0c2.3-0.9,4.6-1.4,7.1-1.4c10.4,0,18.9,8.5,18.9,18.9
	s-8.5,18.9-18.9,18.9h-44.3c-16.3,0-29.6-13.3-29.6-29.6S815.8,122.4,832.1,122.4z"/>
<path class="st0" d="M256,404.2c20.8,0,37.8-16.9,37.8-37.8s-16.9-37.8-37.8-37.8c-20.8,0-37.8,16.9-37.8,37.8
	S235.2,404.2,256,404.2z M256,343.7c12.6,0,22.8,10.2,22.8,22.8s-10.2,22.8-22.8,22.8s-22.8-10.2-22.8-22.8S243.4,343.7,256,343.7z"
	/>
<path class="st0" d="M481.4,450.8h-24.8c1.2-25.3,8.6-38.1,14.8-44.5c2.9-3,2.9-7.7-0.1-10.6c-3-2.9-7.7-2.9-10.6,0.1
	c-6.8,7-11.9,16.2-15.1,27.7c-4.8-7.9-9.5-12.8-9.9-13.3c-2.9-3-7.6-3.1-10.6-0.2c-3,2.9-3.1,7.6-0.2,10.6
	c0.1,0.1,12.7,13.2,15.8,30.2h-50.9c3.4-7.2,8.7-16.7,15.3-23.4c2.9-2.9,2.9-7.7,0-10.6c-2.9-2.9-7.7-2.9-10.6,0
	c-5.6,5.6-10.3,12.6-13.9,19.2c-6.5-13.3-16.6-21.8-17.2-22.3c-3.2-2.6-7.9-2.2-10.5,1c-2.6,3.2-2.2,7.9,0.9,10.6
	c0.1,0.1,12.8,10.9,16.3,25.6h-42.3v-84.4c0-5.7-0.7-11.2-1.9-16.5l117.5-34.8c4-1.2,6.2-5.3,5.1-9.3c-1.2-4-5.3-6.2-9.3-5.1
	l-118.2,35c-4.9-10.4-12.2-19.4-21.2-26.3l167.9-49.7c1.4-0.4,2.9-0.6,4.4-0.6c6.9,0,13,4.6,15,11.2c1.2,4,0.7,8.2-1.3,11.9
	s-5.3,6.3-9.3,7.5l-8.8,2.6c-4,1.2-6.2,5.3-5.1,9.3c1.2,4,5.3,6.2,9.3,5.1l8.8-2.6c7.8-2.3,14.3-7.6,18.2-14.7
	c3.9-7.2,4.8-15.5,2.5-23.3c-3.8-12.9-15.9-21.9-29.4-21.9c-3,0-5.9,0.4-8.7,1.3l-49.6,14.7l-15.4-52.2c-1.7-5.9-5.7-10.7-11.1-13.7
	c-5.4-2.9-11.6-3.6-17.5-1.8c-12.1,3.6-19.1,16.4-15.5,28.5l15.4,52.2l-88.3,26.1c-7.9-3-16.5-4.7-25.5-4.7
	c-23.7,0-44.8,11.6-57.9,29.4l-73.3,21.7l-15.4-52.2c-1.7-5.9-5.7-10.7-11.1-13.7s-11.6-3.6-17.5-1.8c-12.1,3.6-19.1,16.4-15.5,28.5
	l15.4,52.2l-49.6,14.7c-16.2,4.8-25.5,21.9-20.7,38c3.8,12.9,15.9,21.9,29.3,21.9c2.9,0,5.9-0.4,8.7-1.3l135.6-40.1v58.9h-82.9
	c-4.1,0-7.5,3.4-7.5,7.5s3.4,7.5,7.5,7.5h380.1c4.2,0,8.1,1.6,11,4.6c2.9,2.9,4.6,6.9,4.6,11c0,8.6-7,15.6-15.6,15.6H30.6
	c-4.2,0-8.1-1.6-11-4.6s-4.6-6.9-4.6-11c0-8.6,7-15.6,15.6-15.6h40.7c4.1,0,7.5-3.4,7.5-7.5s-3.4-7.5-7.5-7.5H30.6
	C13.7,450.8,0,464.5,0,481.4c0,8.2,3.2,15.9,9,21.6s13.5,9,21.6,9h450.8c16.9,0,30.6-13.7,30.6-30.6c0-8.2-3.2-15.9-9-21.6
	C497.3,454,489.6,450.8,481.4,450.8L481.4,450.8z M368.7,216.7c-1.2-4.2,1.2-8.6,5.4-9.9c0.7-0.2,1.5-0.3,2.3-0.3
	c1.3,0,2.6,0.3,3.8,1c1.9,1,3.2,2.7,3.8,4.7l15.4,52.2l-15.3,4.5L368.7,216.7z M85.1,292.3c0.7-0.2,1.5-0.3,2.3-0.3
	c1.3,0,2.6,0.3,3.8,1c1.9,1,3.2,2.7,3.8,4.7l15.4,52.2l-15.3,4.5l-15.4-52.2C78.5,298,80.9,293.6,85.1,292.3L85.1,292.3z M256,309.6
	c31.3,0,56.8,25.5,56.8,56.8v84.4H199.2v-84.4C199.2,335.1,224.7,309.6,256,309.6L256,309.6z M44.3,417.6c-1.5,0.4-2.9,0.6-4.4,0.6
	c-6.9,0-13-4.6-15-11.2c-2.4-8.3,2.3-17,10.5-19.4l152.8-45.2c-2.7,7.5-4.1,15.5-4.1,23.9v9.8L44.3,417.6z"/>
<path class="st2" d="M404.7,105.9H459c29.2,0,53-23.8,53-53c0-29.2-23.8-53-53-53c-19.4,0-36.9,10.4-46.2,27.1
	c-2.7-0.6-5.4-0.8-8.2-0.8c-22,0-39.9,17.9-39.9,39.9C364.8,88.1,382.7,105.9,404.7,105.9z M404.7,41.2c3.2,0,6.4,0.6,9.3,1.8
	c1.9,0.8,3.9,0.7,5.8,0c1.8-0.8,3.3-2.3,4-4.1C429.6,24.4,443.4,15,459,15c20.9,0,38,17,38,38c0,20.9-17,38-38,38h-54.4
	c-13.7,0-24.9-11.2-24.9-24.9S390.9,41.2,404.7,41.2z"/>
<path class="st2" d="M75.3,196.5h44.3c18.7,0,33.9-15.2,33.9-33.9s-15.2-33.9-33.9-33.9c-2,0-4,0.2-6,0.5
	c-7.9-13.5-22.4-21.9-38.4-21.9c-24.6,0-44.6,20-44.6,44.6S50.7,196.5,75.3,196.5L75.3,196.5z M75.3,122.4
	c12.2,0,22.9,7.3,27.5,18.6c0.7,1.9,2.2,3.3,4,4.1c1.8,0.8,3.9,0.8,5.8,0c2.3-0.9,4.6-1.4,7.1-1.4c10.4,0,18.9,8.5,18.9,18.9
	s-8.5,18.9-18.9,18.9H75.3c-16.3,0-29.6-13.3-29.6-29.6S59,122.4,75.3,122.4z"/>
</svg>
