<?xml version="1.0" encoding="utf-8"?>
<!-- Generator: Adobe Illustrator 26.2.1, SVG Export Plug-In . SVG Version: 6.00 Build 0)  -->
<svg version="1.1" id="Capa_1" xmlns="http://www.w3.org/2000/svg" xmlns:xlink="http://www.w3.org/1999/xlink" x="0px" y="0px"
	 viewBox="0 0 512 512" style="enable-background:new 0 0 512 512;" xml:space="preserve">
<style type="text/css">
	.st0{fill:#0F2132;}
	.st1{fill:#E4540E;}
	.st2{fill:none;}
	.st3{fill:#FFFFFF;}
</style>
<rect class="st0" width="512" height="512"/>
<path class="st1" d="M162.9,185.8h-30.7V110h73.1c5.5,0,10-4.5,10-10c0-51.3-41.8-93.1-93.1-93.1c-51.3,0-93.1,41.8-93.1,93.1
	c0,5.5,4.5,10,10,10h73.1v75.8H67.5c-0.4,0-0.9,0.1-1.4,0.1h98.9C164.4,185.9,163.6,185.8,162.9,185.8z M194.7,90h-33.5
	c-0.9-21-4.4-41.9-10.9-57.5C173.7,42.3,191.1,64,194.7,90z M83.3,90H49.8c3.6-26,20.9-47.7,44.4-57.5C87.7,48.1,84.2,69,83.3,90z
	 M103.3,90c0.8-17.3,3.4-33.1,7.7-45.4c4.7-13.5,9.8-17.6,11.1-17.6c1.3,0,6.4,4.2,11.2,17.6c4.3,12.3,7,28.2,7.7,45.4H103.3z"/>
<rect x="20" y="400" class="st2" width="146.9" height="86.1"/>
<rect x="104.1" y="297.5" class="st2" width="62.8" height="31.2"/>
<rect x="104.1" y="348.8" class="st2" width="62.8" height="31.2"/>
<path class="st2" d="M84.1,297.5H67.5c-5.5,0-10-4.5-10-10v-79.4c-14,5.6-27.3,19-27.3,43.5V380h54V297.5z"/>
<path class="st2" d="M162.9,204.8H77.5v72.7h89.4v-68.7C166.9,206.7,165.1,204.8,162.9,204.8z"/>
<path class="st2" d="M423.1,435.7c-9.5-7.5-19.6-11.3-29.9-11.3c-5.2,0-10.4,1-15.5,2.9c0,0,0,0,0,0c-4.9,1.9-9.7,4.7-14.4,8.3
	c-13.2,10.3-27.4,15.6-42.2,15.6c-11,0-21.9-3-32.2-8.8c-0.1-0.1-0.3-0.2-0.4-0.2c-3.3-1.9-6.5-4-9.6-6.5
	c-9.5-7.5-19.6-11.3-29.9-11.3c-10.3,0-20.3,3.8-29.8,11.3c-10.2,8-21,12.9-32.2,14.7v35.6H492l0-40.6c-8.6,3.8-17.7,5.8-26.7,5.8
	C450.5,451.2,436.3,446,423.1,435.7z"/>
<path class="st2" d="M249,404.4c7,0,13.9,1.2,20.6,3.5c-7-18.7-10.3-36.7-13.1-52.2c-7-38.7-10.5-58.2-54.8-58.2h-14.9V390v40
	c6.8-1.7,13.5-5,19.9-10.1C219.7,409.8,234.3,404.4,249,404.4z"/>
<path class="st3" d="M506.4,418.8L506.4,418.8c-3.4-1.7-7.5-1.2-10.5,1.1c-9.3,7.3-20.1,11.3-30.5,11.3c-10.3,0-20.3-3.8-29.9-11.3
	c-12.9-10.2-27.5-15.6-42.2-15.6c-6,0-11.9,0.9-17.7,2.6c-23.3-16.9-29.3-47.8-35.7-80.3l-0.1-0.5c-1.1-5.4-6.3-9-11.7-7.9
	c-5.4,1.1-9,6.3-7.9,11.7l0.1,0.5c6.2,31.6,12.5,64.2,35.5,86c-1.6,1.1-3.2,2.2-4.8,3.5c-9.5,7.5-19.6,11.3-29.9,11.3
	c-7,0-13.8-1.8-20.5-5.2c-15.7-25.3-20.3-51.1-24.4-73.9c-6.9-38.4-13.4-74.7-74.5-74.7h-14.9v-48.6h29.6c31.8,0,54.9,6.8,70.5,20.7
	c4.1,3.7,10.4,3.3,14.1-0.8c3.7-4.1,3.3-10.4-0.8-14.1c-19.5-17.3-46.9-25.8-83.8-25.8h-29.6v-0.1c0-12.5-9.6-22.8-21.9-23.9H66.1
	c-10.8,0.9-23,6.9-31.1,13.2c-14.5,11.1-24.8,29.2-24.8,53.5V380H10c-5.5,0-10,4.5-10,10v106.1c0,5.5,4.5,10,10,10h166.9H502
	c5.5,0,10-4.5,10-10v-68.2C512,424,509.8,420.5,506.4,418.8z M30.2,251.6c0-24.5,13.3-37.8,27.3-43.5v79.4c0,5.5,4.5,10,10,10h16.6
	V380h-54V251.6z M166.9,486.1H20V400h146.9V486.1z M166.9,380h-62.8v-31.2h62.8V380z M166.9,328.8h-62.8v-31.2h62.8V328.8z
	 M166.9,277.5H77.5v-72.7h85.4c2.2,0,4,1.8,4,4V277.5L166.9,277.5L166.9,277.5z M186.9,390v-92.5h14.9c44.3,0,47.8,19.4,54.8,58.2
	c2.8,15.5,6,33.5,13.1,52.2c-6.7-2.3-13.6-3.5-20.6-3.5c-14.7,0-29.3,5.4-42.2,15.6c-6.4,5-13.1,8.4-19.9,10.1V390z M492,486.1
	H186.9v-35.6c11.3-1.8,22.1-6.8,32.2-14.7c9.5-7.5,19.5-11.3,29.8-11.3c10.3,0,20.4,3.8,29.9,11.3c3.1,2.4,6.3,4.6,9.6,6.5
	c0.1,0.1,0.3,0.2,0.4,0.2c10.3,5.8,21.2,8.8,32.2,8.8c14.9,0,29.1-5.2,42.2-15.6c4.7-3.7,9.5-6.5,14.4-8.3c0,0,0,0,0,0
	c5.1-1.9,10.2-2.9,15.5-2.9c10.3,0,20.3,3.8,29.9,11.3c13.2,10.3,27.4,15.6,42.2,15.6c9,0,18.1-2,26.7-5.8L492,486.1z"/>
<path class="st1" d="M309.8,286.3c1.8,3.5,5.3,5.4,8.9,5.4c1.5,0,3.1-0.4,4.5-1.1c4.9-2.5,6.9-8.6,4.4-13.5
	c-2.5-4.9-8.5-6.9-13.4-4.4C309.2,275.3,307.2,281.3,309.8,286.3L309.8,286.3z"/>
<path class="st1" d="M-474.4,185.8h-30.7V110h73.1c5.5,0,10-4.5,10-10c0-51.3-41.8-93.1-93.1-93.1c-51.3,0-93.1,41.8-93.1,93.1
	c0,5.5,4.5,10,10,10h73.1v75.8h-44.7c-0.4,0-0.9,0.1-1.4,0.1h98.9C-472.9,185.9-473.6,185.8-474.4,185.8z M-442.6,90h-33.5
	c-0.9-21-4.4-41.9-10.9-57.5C-463.5,42.3-446.2,64-442.6,90z M-554,90h-33.5c3.6-26,20.9-47.7,44.4-57.5
	C-549.6,48.1-553.1,69-554,90z M-534,90c0.8-17.3,3.4-33.1,7.7-45.4c4.7-13.5,9.8-17.6,11.1-17.6c1.3,0,6.4,4.2,11.2,17.6
	c4.3,12.3,7,28.2,7.7,45.4H-534z"/>
<rect x="-617.3" y="400" class="st2" width="146.9" height="86.1"/>
<rect x="-533.1" y="297.5" class="st2" width="62.8" height="31.2"/>
<rect x="-533.1" y="348.8" class="st2" width="62.8" height="31.2"/>
<path class="st2" d="M-553.1,297.5h-16.6c-5.5,0-10-4.5-10-10v-79.4c-14,5.6-27.3,19-27.3,43.5V380h54V297.5z"/>
<path class="st2" d="M-474.4,204.8h-85.4v72.7h89.4v-68.7C-470.3,206.7-472.2,204.8-474.4,204.8z"/>
<path class="st2" d="M-214.2,435.7c-9.5-7.5-19.6-11.3-29.9-11.3c-5.2,0-10.4,1-15.5,2.9c0,0,0,0,0,0c-4.9,1.9-9.7,4.7-14.4,8.3
	c-13.2,10.3-27.4,15.6-42.2,15.6c-11,0-21.9-3-32.2-8.8c-0.1-0.1-0.3-0.2-0.4-0.2c-3.3-1.9-6.5-4-9.6-6.5
	c-9.5-7.5-19.6-11.3-29.9-11.3c-10.3,0-20.3,3.8-29.8,11.3c-10.2,8-21,12.9-32.2,14.7v35.6h305.1l0-40.6c-8.6,3.8-17.7,5.8-26.7,5.8
	C-186.8,451.2-201,446-214.2,435.7z"/>
<path class="st2" d="M-388.2,404.4c7,0,13.9,1.2,20.6,3.5c-7-18.7-10.3-36.7-13.1-52.2c-7-38.7-10.5-58.2-54.8-58.2h-14.9V390v40
	c6.8-1.7,13.5-5,19.9-10.1C-417.5,409.8-402.9,404.4-388.2,404.4z"/>
<path class="st0" d="M-130.9,418.8L-130.9,418.8c-3.4-1.7-7.5-1.2-10.5,1.1c-9.3,7.3-20.1,11.3-30.5,11.3
	c-10.3,0-20.3-3.8-29.9-11.3c-12.9-10.2-27.5-15.6-42.2-15.6c-6,0-11.9,0.9-17.7,2.6c-23.3-16.9-29.3-47.8-35.7-80.3l-0.1-0.5
	c-1.1-5.4-6.3-9-11.7-7.9c-5.4,1.1-9,6.3-7.9,11.7l0.1,0.5c6.2,31.6,12.5,64.2,35.5,86c-1.6,1.1-3.2,2.2-4.8,3.5
	c-9.5,7.5-19.6,11.3-29.9,11.3c-7,0-13.8-1.8-20.5-5.2c-15.7-25.3-20.3-51.1-24.4-73.9c-6.9-38.4-13.4-74.7-74.5-74.7h-14.9v-48.6
	h29.6c31.8,0,54.9,6.8,70.5,20.7c4.1,3.7,10.4,3.3,14.1-0.8c3.7-4.1,3.3-10.4-0.8-14.1c-19.5-17.3-46.9-25.8-83.8-25.8h-29.6v-0.1
	c0-12.5-9.6-22.8-21.9-23.9h-98.9c-10.8,0.9-23,6.9-31.1,13.2c-14.5,11.1-24.8,29.2-24.8,53.5V380h-0.2c-5.5,0-10,4.5-10,10v106.1
	c0,5.5,4.5,10,10,10h166.9h325.1c5.5,0,10-4.5,10-10v-68.2C-125.3,424-127.5,420.5-130.9,418.8z M-607.1,251.6
	c0-24.5,13.3-37.8,27.3-43.5v79.4c0,5.5,4.5,10,10,10h16.6V380h-54V251.6z M-470.3,486.1h-146.9V400h146.9V486.1z M-470.3,380h-62.8
	v-31.2h62.8V380z M-470.3,328.8h-62.8v-31.2h62.8V328.8z M-470.3,277.5h-89.4v-72.7h85.4c2.2,0,4,1.8,4,4V277.5L-470.3,277.5
	L-470.3,277.5z M-450.3,390v-92.5h14.9c44.3,0,47.8,19.4,54.8,58.2c2.8,15.5,6,33.5,13.1,52.2c-6.7-2.3-13.6-3.5-20.6-3.5
	c-14.7,0-29.3,5.4-42.2,15.6c-6.4,5-13.1,8.4-19.9,10.1V390z M-145.3,486.1h-305.1v-35.6c11.3-1.8,22.1-6.8,32.2-14.7
	c9.5-7.5,19.5-11.3,29.8-11.3c10.3,0,20.4,3.8,29.9,11.3c3.1,2.4,6.3,4.6,9.6,6.5c0.1,0.1,0.3,0.2,0.4,0.2
	c10.3,5.8,21.2,8.8,32.2,8.8c14.9,0,29.1-5.2,42.2-15.6c4.7-3.7,9.5-6.5,14.4-8.3c0,0,0,0,0,0c5.1-1.9,10.2-2.9,15.5-2.9
	c10.3,0,20.3,3.8,29.9,11.3c13.2,10.3,27.4,15.6,42.2,15.6c9,0,18.1-2,26.7-5.8L-145.3,486.1z"/>
<path class="st1" d="M-327.5,286.3c1.8,3.5,5.3,5.4,8.9,5.4c1.5,0,3.1-0.4,4.5-1.1c4.9-2.5,6.9-8.6,4.4-13.5
	c-2.5-4.9-8.5-6.9-13.4-4.4C-328.1,275.3-330,281.3-327.5,286.3L-327.5,286.3z"/>
</svg>
