<svg xmlns="http://www.w3.org/2000/svg" width="512.003" height="499.2" viewBox="0 0 512.003 499.2">
  <g id="Plunge_Slide" data-name="Plunge Slide" transform="translate(-2568 -1767.9)">
    <path id="Path_62" data-name="Path 62" d="M-474.4,185.8h-30.7V110H-432a10.029,10.029,0,0,0,10-10A93.251,93.251,0,0,0-515.1,6.9,93.251,93.251,0,0,0-608.2,100a10.029,10.029,0,0,0,10,10h73.1v75.8h-44.7c-.4,0-.9.1-1.4.1h98.9C-472.9,185.9-473.6,185.8-474.4,185.8ZM-442.6,90h-33.5c-.9-21-4.4-41.9-10.9-57.5A73.387,73.387,0,0,1-442.6,90ZM-554,90h-33.5a73.387,73.387,0,0,1,44.4-57.5C-549.6,48.1-553.1,69-554,90Zm20,0c.8-17.3,3.4-33.1,7.7-45.4,4.7-13.5,9.8-17.6,11.1-17.6s6.4,4.2,11.2,17.6c4.3,12.3,7,28.2,7.7,45.4Z" transform="translate(3205.4 1761)" fill="#e4540e"/>
    <rect id="Rectangle_9" data-name="Rectangle 9" width="146.9" height="86.1" transform="translate(2588.1 2161)" fill="none"/>
    <rect id="Rectangle_10" data-name="Rectangle 10" width="62.8" height="31.2" transform="translate(2672.3 2058.5)" fill="none"/>
    <rect id="Rectangle_11" data-name="Rectangle 11" width="62.8" height="31.2" transform="translate(2672.3 2109.8)" fill="none"/>
    <path id="Path_63" data-name="Path 63" d="M-553.1,297.5h-16.6a10.029,10.029,0,0,1-10-10V208.1c-14,5.6-27.3,19-27.3,43.5V380h54V297.5Z" transform="translate(3205.4 1761)" fill="none"/>
    <path id="Path_64" data-name="Path 64" d="M-474.4,204.8h-85.4v72.7h89.4V208.8A4.011,4.011,0,0,0-474.4,204.8Z" transform="translate(3205.4 1761)" fill="none"/>
    <path id="Path_65" data-name="Path 65" d="M-214.2,435.7c-9.5-7.5-19.6-11.3-29.9-11.3a44.3,44.3,0,0,0-15.5,2.9h0a58.791,58.791,0,0,0-14.4,8.3c-13.2,10.3-27.4,15.6-42.2,15.6a65.329,65.329,0,0,1-32.2-8.8.758.758,0,0,0-.4-.2,73.679,73.679,0,0,1-9.6-6.5c-9.5-7.5-19.6-11.3-29.9-11.3s-20.3,3.8-29.8,11.3c-10.2,8-21,12.9-32.2,14.7V486h305.1V445.4a66.218,66.218,0,0,1-26.7,5.8C-186.8,451.2-201,446-214.2,435.7Z" transform="translate(3205.4 1761)" fill="none"/>
    <path id="Path_66" data-name="Path 66" d="M-388.2,404.4a63.226,63.226,0,0,1,20.6,3.5c-7-18.7-10.3-36.7-13.1-52.2-7-38.7-10.5-58.2-54.8-58.2h-14.9V430a52.192,52.192,0,0,0,19.9-10.1C-417.5,409.8-402.9,404.4-388.2,404.4Z" transform="translate(3205.4 1761)" fill="none"/>
    <path id="Path_67" data-name="Path 67" d="M-130.9,418.8h0a10,10,0,0,0-10.5,1.1c-9.3,7.3-20.1,11.3-30.5,11.3-10.3,0-20.3-3.8-29.9-11.3-12.9-10.2-27.5-15.6-42.2-15.6a62.671,62.671,0,0,0-17.7,2.6C-285,390-291,359.1-297.4,326.6l-.1-.5a9.986,9.986,0,0,0-11.7-7.9,9.986,9.986,0,0,0-7.9,11.7l.1.5c6.2,31.6,12.5,64.2,35.5,86-1.6,1.1-3.2,2.2-4.8,3.5-9.5,7.5-19.6,11.3-29.9,11.3a44.866,44.866,0,0,1-20.5-5.2c-15.7-25.3-20.3-51.1-24.4-73.9-6.9-38.4-13.4-74.7-74.5-74.7h-14.9V228.8h29.6c31.8,0,54.9,6.8,70.5,20.7a9.977,9.977,0,0,0,14.1-.8,9.977,9.977,0,0,0-.8-14.1c-19.5-17.3-46.9-25.8-83.8-25.8h-29.6v-.1a24.031,24.031,0,0,0-21.9-23.9h-98.9c-10.8.9-23,6.9-31.1,13.2-14.5,11.1-24.8,29.2-24.8,53.5V380h-.2a10.029,10.029,0,0,0-10,10V496.1a10.029,10.029,0,0,0,10,10h492a10.029,10.029,0,0,0,10-10V427.9A9.893,9.893,0,0,0-130.9,418.8ZM-607.1,251.6c0-24.5,13.3-37.8,27.3-43.5v79.4a10.029,10.029,0,0,0,10,10h16.6V380h-54V251.6Zm136.8,234.5H-617.2V400h146.9v86.1Zm0-106.1h-62.8V348.8h62.8Zm0-51.2h-62.8V297.6h62.8Zm0-51.3h-89.4V204.8h85.4a4.012,4.012,0,0,1,4,4v68.7Zm20,112.5V297.5h14.9c44.3,0,47.8,19.4,54.8,58.2,2.8,15.5,6,33.5,13.1,52.2a63.226,63.226,0,0,0-20.6-3.5c-14.7,0-29.3,5.4-42.2,15.6a53.654,53.654,0,0,1-19.9,10.1V390Zm305,96.1H-450.4V450.5c11.3-1.8,22.1-6.8,32.2-14.7,9.5-7.5,19.5-11.3,29.8-11.3s20.4,3.8,29.9,11.3a85.245,85.245,0,0,0,9.6,6.5.758.758,0,0,0,.4.2,65.329,65.329,0,0,0,32.2,8.8c14.9,0,29.1-5.2,42.2-15.6a53,53,0,0,1,14.4-8.3h0a43.879,43.879,0,0,1,15.5-2.9c10.3,0,20.3,3.8,29.9,11.3,13.2,10.3,27.4,15.6,42.2,15.6a66.218,66.218,0,0,0,26.7-5.8Z" transform="translate(3205.4 1761)" fill="#0f2132"/>
    <path id="Path_68" data-name="Path 68" d="M-327.5,286.3a9.934,9.934,0,0,0,8.9,5.4,10.3,10.3,0,0,0,4.5-1.1,10.1,10.1,0,0,0,4.4-13.5,9.982,9.982,0,0,0-13.4-4.4,10.125,10.125,0,0,0-4.4,13.6Z" transform="translate(3205.4 1761)" fill="#e4540e"/>
  </g>
</svg>
