<?xml version="1.0" encoding="utf-8"?>
<!-- Generator: Adobe Illustrator 26.0.3, SVG Export Plug-In . SVG Version: 6.00 Build 0)  -->
<svg version="1.1" id="Layer_1" xmlns="http://www.w3.org/2000/svg" xmlns:xlink="http://www.w3.org/1999/xlink" x="0px" y="0px"
	 viewBox="0 0 700 700" style="enable-background:new 0 0 700 700;" xml:space="preserve">
<style type="text/css">
	.st0{fill:#0F2132;}
	.st1{fill:#FFFFFF;}
	.st2{fill:#E65400;}
</style>
<rect x="804.8" class="st0" width="700" height="700"/>
<path class="st1" d="M1107,453.4c6,0,10.8-4.8,10.8-10.8v-49H1304v49c0,6,4.8,10.8,10.8,10.8c6,0,10.8-4.8,10.8-10.8V151.3
	c0-13.4,10.8-24.1,24.1-24.1c13.4,0,24.2,10.8,24.2,24.1c0,6,4.8,10.8,10.8,10.8s10.8-4.8,10.8-10.8c0-25.2-20.6-45.8-45.8-45.8
	s-45.7,20.6-45.7,45.8v120h-186.1v-120c0-13.4,10.8-24.1,24.1-24.1c13.4,0,24.1,10.8,24.1,24.1c0,6,4.8,10.8,10.8,10.8
	c6,0,10.8-4.8,10.8-10.8c0-25.2-20.6-45.8-45.8-45.8s-45.7,20.6-45.7,45.8v291.3C1096.2,448.6,1101,453.4,1107,453.4z M1117.8,292.9
	H1304l0,79.2h-186.1V292.9z"/>
<path class="st2" d="M1396.7,532.9c-5.6-2.2-11.8,0.3-14.1,5.8h0c-8.6,20.7-28.5,34.1-50.8,34.1c-21.2,0-40.1-11.7-49.4-30.8
	c-3.6-7.3-15.7-7.3-19.3,0c-9.3,18.9-28.3,30.8-49.3,30.8c-21.1,0-40.1-11.7-49.3-30.8c-3.6-7.3-15.8-7.3-19.4,0
	c-9.3,18.9-28.3,30.8-49.3,30.8c-21.1,0-40-11.7-49.3-30.8c-3.6-7.3-15.8-7.3-19.3,0c-9.3,18.9-28.4,30.8-49.4,30.8
	c-22.3,0-42.3-13.4-50.8-34.1c-2.2-5.5-8.5-8.1-14.1-5.8c-5.6,2.2-8.1,8.6-5.9,14.1c11.9,28.8,39.8,47.4,70.9,47.4
	c23.2,0,44.7-10.3,59.1-27.7c14.4,17.4,35.7,27.7,59.1,27.7c23.2,0,44.7-10.3,59.1-27.7c14.4,17.4,35.7,27.7,59.1,27.7
	c23.2,0,44.7-10.3,59.1-27.7c14.4,17.4,35.7,27.7,59.1,27.7c31.2,0,58.9-18.6,70.9-47.4C1404.9,541.5,1402.2,535.2,1396.7,532.9z"/>
<path class="st2" d="M977.3,508.3c23.2,0,44.7-10.4,59.1-27.8c14.4,17.4,35.7,27.8,59.1,27.8c23.2,0,44.7-10.4,59.1-27.8
	c14.4,17.4,35.7,27.8,59.1,27.8c23.2,0,44.7-10.4,59.1-27.8c14.4,17.4,35.7,27.8,59.1,27.8c31.2,0,58.9-18.6,70.9-47.4
	c2.2-5.6-0.3-11.9-5.8-14.1c-5.6-2.2-11.9,0.3-14.1,5.9h0c-8.5,20.7-28.5,34-50.8,34c-21.1,0-40-11.7-49.3-30.8
	c-3.6-7.3-15.8-7.3-19.3,0c-9.3,18.9-28.4,30.8-49.3,30.8c-21.2,0-40.1-11.7-49.4-30.8c-3.6-7.3-15.7-7.3-19.3,0
	c-9.3,18.9-28.3,30.8-49.3,30.8c-21.1,0-40.1-11.7-49.3-30.8c-3.6-7.3-15.8-7.3-19.4,0c-9.3,18.9-28.3,30.8-49.3,30.8
	c-22.3,0-42.3-13.3-50.8-34c-2.2-5.6-8.6-8.1-14.1-5.9c-5.6,2.2-8.1,8.6-5.9,14.1C918.3,489.7,946.1,508.3,977.3,508.3z"/>
<path class="st0" d="M302.3,453.4c6,0,10.8-4.8,10.8-10.8v-49h186.1v49c0,6,4.8,10.8,10.8,10.8c6,0,10.8-4.8,10.8-10.8V151.3
	c0-13.4,10.8-24.1,24.1-24.1c13.4,0,24.2,10.8,24.2,24.1c0,6,4.8,10.8,10.8,10.8s10.8-4.8,10.8-10.8c0-25.2-20.6-45.8-45.8-45.8
	s-45.7,20.6-45.7,45.8v120H313.1v-120c0-13.4,10.8-24.1,24.1-24.1c13.4,0,24.1,10.8,24.1,24.1c0,6,4.8,10.8,10.8,10.8
	s10.8-4.8,10.8-10.8c0-25.2-20.6-45.8-45.8-45.8c-25.2,0-45.7,20.6-45.7,45.8v291.3C291.5,448.6,296.3,453.4,302.3,453.4z
	 M313.1,292.9h186.1l0,79.2H313.1V292.9z"/>
<path class="st2" d="M591.9,532.9c-5.6-2.2-11.8,0.3-14.1,5.8h0c-8.6,20.7-28.5,34.1-50.8,34.1c-21.2,0-40.1-11.7-49.4-30.8
	c-3.6-7.3-15.7-7.3-19.3,0c-9.3,18.9-28.3,30.8-49.3,30.8c-21.1,0-40.1-11.7-49.3-30.8c-3.6-7.3-15.8-7.3-19.4,0
	c-9.3,18.9-28.3,30.8-49.3,30.8c-21.1,0-40-11.7-49.3-30.8c-3.6-7.3-15.8-7.3-19.3,0c-9.3,18.9-28.4,30.8-49.4,30.8
	c-22.3,0-42.3-13.4-50.8-34.1c-2.2-5.5-8.5-8.1-14.1-5.8c-5.6,2.2-8.1,8.6-5.9,14.1c11.9,28.8,39.8,47.4,70.9,47.4
	c23.2,0,44.7-10.3,59.1-27.7c14.4,17.4,35.7,27.7,59.1,27.7c23.2,0,44.7-10.3,59.1-27.7c14.4,17.4,35.7,27.7,59.1,27.7
	c23.2,0,44.7-10.3,59.1-27.7c14.4,17.4,35.7,27.7,59.1,27.7c31.2,0,58.9-18.6,70.9-47.4C600.2,541.5,597.5,535.2,591.9,532.9z"/>
<path class="st2" d="M172.5,508.3c23.2,0,44.7-10.4,59.1-27.8c14.4,17.4,35.7,27.8,59.1,27.8c23.2,0,44.7-10.4,59.1-27.8
	c14.4,17.4,35.7,27.8,59.1,27.8c23.2,0,44.7-10.4,59.1-27.8c14.4,17.4,35.7,27.8,59.1,27.8c31.2,0,58.9-18.6,70.9-47.4
	c2.2-5.6-0.3-11.9-5.8-14.1s-11.9,0.3-14.1,5.9h0c-8.5,20.7-28.5,34-50.8,34c-21.1,0-40-11.7-49.3-30.8c-3.6-7.3-15.8-7.3-19.3,0
	c-9.3,18.9-28.4,30.8-49.3,30.8c-21.2,0-40.1-11.7-49.4-30.8c-3.6-7.3-15.7-7.3-19.3,0c-9.3,18.9-28.3,30.8-49.3,30.8
	c-21.1,0-40.1-11.7-49.3-30.8c-3.6-7.3-15.8-7.3-19.4,0c-9.3,18.9-28.3,30.8-49.3,30.8c-22.3,0-42.3-13.3-50.8-34
	c-2.2-5.6-8.6-8.1-14.1-5.9c-5.6,2.2-8.1,8.6-5.9,14.1C113.6,489.7,141.3,508.3,172.5,508.3z"/>
</svg>
