<svg xmlns="http://www.w3.org/2000/svg" xmlns:xlink="http://www.w3.org/1999/xlink" width="500" height="500" viewBox="0 0 500 500">
  <defs>
    <clipPath id="clip-_2.Private_meeting_and_party_halls">
      <rect width="500" height="500"/>
    </clipPath>
  </defs>
  <g id="_2.Private_meeting_and_party_halls" data-name="2.Private meeting and party halls" clip-path="url(#clip-_2.Private_meeting_and_party_halls)">
    <g id="_2.Private_meeting_and_party_halls-2" data-name="2.Private meeting and party halls" transform="translate(-4 -4.7)">
      <g id="Group_2725" data-name="Group 2725" transform="translate(106 4.7)">
        <path id="Path_2909" data-name="Path 2909" d="M371.978,386.182a43.575,43.575,0,0,0,4.537-19.33V349.989a43.689,43.689,0,0,0-87.377,0V363.7a43.646,43.646,0,0,0-70.415,0V349.989a43.689,43.689,0,0,0-87.377,0v16.864a42.584,42.584,0,0,0,4.537,19.33A68.678,68.678,0,0,0,106,442.987v16.864a9.891,9.891,0,0,0,9.862,9.862H186.08a67.844,67.844,0,0,0-1.183,12.722V499.3a9.891,9.891,0,0,0,9.862,9.862h14.793a9.862,9.862,0,0,0,0-19.724H204.62v-7a49.759,49.759,0,0,1,22.683-41.42,43.609,43.609,0,0,0,53.255,0,49.161,49.161,0,0,1,22.683,41.42v7h-4.931a9.862,9.862,0,0,0,0,19.724H313.1a9.891,9.891,0,0,0,9.862-9.862V482.436a67.842,67.842,0,0,0-1.183-12.722H392a9.891,9.891,0,0,0,9.862-9.862V442.987a68.678,68.678,0,0,0-29.882-56.805Zm-63.117-36.194a23.965,23.965,0,1,1,47.929,0v16.864a23.965,23.965,0,0,1-47.929,0Zm-157.792,0a23.965,23.965,0,1,1,47.929,0v16.864a23.965,23.965,0,0,1-47.929,0Zm-25.345,100v-7a48.908,48.908,0,0,1,22.683-41.42,43.609,43.609,0,0,0,53.255,0,103.6,103.6,0,0,1,8.679,6.213,43.354,43.354,0,0,0,4.438,17.85,69.571,69.571,0,0,0-21.8,24.359ZM229.965,406.3V389.437a23.965,23.965,0,0,1,47.929,0V406.3a23.965,23.965,0,0,1-47.929,0ZM382.136,449.99H314.877a67.905,67.905,0,0,0-21.8-24.359,43.355,43.355,0,0,0,4.438-17.85,84.991,84.991,0,0,1,8.679-6.213,43.609,43.609,0,0,0,53.255,0,49.161,49.161,0,0,1,22.683,41.42Z" transform="translate(-106 -8.862)" fill="#0f2132"/>
        <g id="Group_2724" data-name="Group 2724" transform="translate(4.931)">
          <path id="Path_2910" data-name="Path 2910" d="M130.724,270.974H226.09l14,14A19.462,19.462,0,0,0,254,290.7h0a19.7,19.7,0,0,0,13.905-5.72l14-14h95.366A19.782,19.782,0,0,0,397,251.25V24.424A19.782,19.782,0,0,0,377.274,4.7H130.724A19.782,19.782,0,0,0,111,24.424V54.01a9.862,9.862,0,0,0,19.724,0V24.424h246.55V251.25H277.865a10.185,10.185,0,0,0-7,2.86L254,270.974,237.135,254.11a9.761,9.761,0,0,0-7-2.86H130.724V142.768a9.862,9.862,0,0,0-19.724,0V251.25a19.782,19.782,0,0,0,19.724,19.724Z" transform="translate(-111 -4.7)" fill="#0f2132"/>
          <path id="Path_2911" data-name="Path 2911" d="M120.862,109.424a9.891,9.891,0,0,0,9.862-9.862h0a9.862,9.862,0,1,0-9.862,9.862Z" transform="translate(-111 -5.873)" fill="#0f2132"/>
        </g>
        <path id="Path_2912" data-name="Path 2912" d="M255.862,492h0a9.862,9.862,0,1,0,9.862,9.862A9.891,9.891,0,0,0,255.862,492Z" transform="translate(-107.932 -11.424)" fill="#0f2132"/>
        <path id="Path_2913" data-name="Path 2913" d="M288.871,106.351V93.038C288.871,74.793,273.782,60,255.241,60s-33.629,14.793-33.629,33.038v13.314A24.025,24.025,0,0,0,201,130.119v54.833a9.575,9.575,0,0,0,9.566,9.566h89.448a9.575,9.575,0,0,0,9.566-9.566V130.119A24.188,24.188,0,0,0,288.871,106.351ZM240.843,93.038c0-7.594,6.509-13.807,14.4-13.807,7.988,0,14.4,6.213,14.4,13.807v13.116h-28.8V93.038Zm49.507,82.348H220.132V130.218a4.84,4.84,0,0,1,4.832-4.832h60.553a4.84,4.84,0,0,1,4.832,4.832Z" transform="translate(-107.311 -5.463)" fill="#e65400"/>
      </g>
    </g>
  </g>
</svg>
