<?xml version="1.0" encoding="utf-8"?>
<!-- Generator: Adobe Illustrator 26.0.3, SVG Export Plug-In . SVG Version: 6.00 Build 0)  -->
<svg version="1.1" id="Capa_1" xmlns="http://www.w3.org/2000/svg" xmlns:xlink="http://www.w3.org/1999/xlink" x="0px" y="0px"
	 viewBox="0 0 512 512" style="enable-background:new 0 0 512 512;" xml:space="preserve">
<style type="text/css">
	.st0{fill:#fff;}
	.st1{fill:#0F2132;}
	.st2{fill:#E65400;}
	.st3{fill:#0F2132;}
</style>
<rect y="0" class="st0" width="512" height="512"/>
<g>
	<g>
		<path class="st1" d="M479.5,55.8c-10.7,0-19.5,8-20.9,18.3H103.6c-4.1,0-7.5,3.4-7.5,7.5s3.4,7.5,7.5,7.5h354.7v12.4H75.8V66.7
			c8-7,13-17.2,13-28.6C88.8,17.1,71.7,0,50.7,0S12.6,17.1,12.6,38.1c0,11.4,5,21.6,13,28.6v361.4c-8.3,2.8-14.4,10.7-14.4,20.1
			c0,9.3,6,17.2,14.4,20v36.3c0,4.1,3.4,7.5,7.5,7.5h35.2c4.1,0,7.5-3.4,7.5-7.5v-36.3c8.3-2.8,14.4-10.7,14.4-20.1
			c0-9.3-6-17.2-14.4-20V116.5h53.4v88c-18-0.8-34.2,14.2-34.1,32.7v153c0,18,14.7,32.7,32.7,32.7h25.4c7.7,0,14.4,4.8,16.7,11.9
			c12.4,37.9,59.1,64.4,113.6,64.4c54.5,0,101.2-26.5,113.6-64.4c2.3-7.1,9-11.9,16.7-11.9h25.4c18,0,32.7-14.7,32.7-32.7v-153
			c0-17-13.1-31-29.7-32.6v-88.1h16.2c1.4,10.3,10.3,18.3,21,18.3c11.7,0,21.2-9.5,21.2-21.2V77C500.7,65.3,491.2,55.8,479.5,55.8
			L479.5,55.8z M69,454.3H32.4c-3.4,0-6.2-2.8-6.2-6.2c0-3.4,2.8-6.2,6.2-6.2H69c3.4,0,6.2,2.8,6.2,6.2
			C75.2,451.5,72.4,454.3,69,454.3z M50.7,15c12.7,0,23.1,10.4,23.1,23.1S63.5,61.2,50.7,61.2S27.6,50.8,27.6,38.1S38,15,50.7,15z
			 M50.7,76.2c3.5,0,6.9-0.5,10.1-1.4v352.1H40.6V74.8C43.8,75.7,47.2,76.2,50.7,76.2L50.7,76.2z M40.6,497v-27.7h20.2V497H40.6z
			 M427.4,244.3c0,4.1,3.4,7.5,7.5,7.5s7.5-3.4,7.5-7.5v-24.6c8.3,1.4,14.7,8.7,14.7,17.4v153c0,9.8-7.9,17.7-17.7,17.7h-25.4
			c-14.2,0-26.6,8.9-31,22.2c-10.2,31.3-52,54.1-99.4,54.1s-89.1-22.8-99.4-54.1c-4.3-13.3-16.8-22.2-31-22.2h-25.4
			c-9.8,0-17.7-7.9-17.7-17.7v-153c-0.1-9.7,8.8-18.4,19.1-17.7v24.8c0,4.1,3.4,7.5,7.5,7.5s7.5-3.4,7.5-7.5v-24.8h9
			c14.2,0,26.6-8.9,31-22.2c10.2-31.3,52-54.1,99.4-54.1s89.1,22.8,99.4,54.1c2.1,6.5,6.2,12.1,11.8,16.1c3.4,2.4,8.1,1.6,10.5-1.7
			c2.4-3.4,1.6-8.1-1.7-10.5c-3-2.1-5.2-5.1-6.3-8.5c-12.4-37.9-59.1-64.4-113.6-64.4c-54.5,0-101.2,26.5-113.6,64.4
			c-2.3,7.1-9,11.9-16.7,11.9h-9v-88h283.2L427.4,244.3L427.4,244.3z M485.7,113.6c0,3.4-2.8,6.2-6.2,6.2c-3.4,0-6.2-2.8-6.2-6.2
			V109c0,0,0,0,0-0.1s0,0,0-0.1V81.6c0,0,0,0,0-0.1s0,0,0-0.1V77c0-3.4,2.8-6.2,6.2-6.2c3.4,0,6.2,2.8,6.2,6.2V113.6z"/>
		<path class="st1" d="M400,291.3C400,291.3,400,291.3,400,291.3l-12.8-12.8c-6.2-6.2-16.4-6.2-22.6,0l-29.8,29.8
			c-7.4,7.4-6.1,19.8-4.5,26.9l-67,63.9l-49-51.4c-1-1-2.3-1.8-3.7-2.1c-13.3-3.2-29.6-8.7-32.7-11.8l-7.7-7.7
			c-4.3-4.3-6.8-9.8-7.1-15.4c-0.3-5.4,1.5-10.3,5-13.8c7.5-7.5,20.6-6.6,29.2,2.1l7.7,7.7c3.1,3.1,8.6,19.4,11.8,32.7
			c0.3,1.4,1.1,2.7,2.1,3.7l31.9,30.4c3,2.9,7.7,2.7,10.6-0.3c2.9-3,2.7-7.7-0.3-10.6l-30.3-28.8c-2.3-9.2-8.3-30.7-15.2-37.7
			l-7.7-7.7c-14.5-14.5-37.1-15.4-50.5-2.1c-6.6,6.6-9.9,15.5-9.4,25.2c0.5,9.4,4.6,18.4,11.5,25.3l7.7,7.7c7,7,28.5,12.9,37.7,15.3
			l47.5,49.8l-9.9,9.5c-4.2,4-6.5,9.4-6.6,15.2c-0.1,5.7,2.1,11,6,15.1c6.9,8.4,22,9.1,30.3,0.4l9.2-9.7l8.8,9.2
			c7.3,8.1,21.9,9,30.5,0.4c4-4,6.2-9.4,6.2-15.1c0-5.9-2.3-11.4-6.6-15.4l-9.9-9.5l45.9-48.2c7,1.6,19.4,3,26.9-4.5l29.8-29.8
			c6.2-6.2,6.2-16.4,0-22.6L400,291.3C400,291.3,400,291.3,400,291.3L400,291.3z M310,429.6c0.8,1.3,3.8,3.8,0.1,9
			c-1.2,1.2-2.8,1.9-4.5,1.8c-1.7,0-3.3-0.7-4.5-2l-9.3-9.7l8.3-8.7L310,429.6z M402.4,316.2L372.6,346c-2.1,2.1-10.3,1.5-16.2-0.4
			c-2.8-0.9-5.8-0.2-7.8,1.9l-54.1,56.8c0,0,0,0-0.1,0s0,0,0,0.1l-33,34.6c-1.3,1.1-5.1,3.3-8.6-0.4c-1.2-1.2-1.9-2.8-1.8-4.5
			s0.7-3.3,2-4.5l91-86.7c2.1-2,2.9-5,1.9-7.8c-1.7-5.1-2.7-14-0.4-16.2l29.8-29.8c0.2,0,0.3-0.6,1.4,0l7.5,7.5l-24.1,24.1
			c-2.9,2.9-2.9,7.7,0,10.6c2.3,2.2,6.7,3.4,10.6,0l24.1-24.1l7.6,7.6C402.7,315.2,402.7,315.8,402.4,316.2L402.4,316.2z"/>
		<path class="st2" d="M227.1,259.3h-15.9c-4.1,0-7.5,3.4-7.5,7.5s3.4,7.5,7.5,7.5h145c4.1,0,7.5-3.4,7.5-7.5s-3.4-7.5-7.5-7.5
			h-15.9c-3.4-25.5-23.6-45.8-49.1-49.1v-6.5c0-4.1-3.4-7.5-7.5-7.5s-7.5,3.4-7.5,7.5v6.5C250.7,213.6,230.4,233.8,227.1,259.3z
			 M325.2,259.3h-82.9c3.5-19.7,20.8-34.6,41.5-34.6S321.6,239.7,325.2,259.3z"/>
		<circle class="st1" cx="136.7" cy="384.9" r="7.8"/>
		<path class="st1" d="M440.4,390.4c3.1-3.1,3.1-8,0-11.1s-8-3.1-11.1,0s-3.1,8,0,11.1S437.3,393.5,440.4,390.4z"/>
		<path class="st2" d="M205.4,205.9l12.5,10.3c1.6,1.6,7,2.9,10.6-1c2.6-3.2,2.2-7.9-1-10.6L215,194.3c-3.2-2.6-7.9-2.2-10.6,1
			C201.8,198.5,202.2,203.3,205.4,205.9L205.4,205.9z"/>
		<path class="st2" d="M247.5,190.9c2.4,8.5,16.6,5.8,14.4-4.3l-4.9-16.2c-1.2-4-5.4-6.2-9.3-5c-4,1.2-6.2,5.4-5,9.3L247.5,190.9z"
			/>
		<path class="st2" d="M342.5,218c1.7,0,3.4-0.6,4.8-1.7l12.5-10.3c3.2-2.6,3.6-7.4,1-10.6c-2.6-3.2-7.4-3.6-10.6-1l-12.5,10.3
			c-3.2,2.6-3.6,7.4-1,10.6C338.2,217,340.4,218,342.5,218L342.5,218z"/>
		<path class="st2" d="M308.3,196c3,0.9,7.7-0.4,9.3-5l4.9-16.2c1.2-4-1.1-8.1-5-9.3c-4-1.2-8.1,1.1-9.3,5l-4.9,16.2
			C302.1,190.6,304.3,194.8,308.3,196z"/>
	</g>
</g>
<g>
	<g>
		<path class="st3" d="M-180.8,55.8c-10.7,0-19.5,8-20.9,18.3h-354.9c-4.1,0-7.5,3.4-7.5,7.5s3.4,7.5,7.5,7.5h354.7v12.4h-382.5
			V66.7c8-7,13-17.2,13-28.6c0-21-17.1-38.1-38.1-38.1s-38.1,17.1-38.1,38.1c0,11.4,5,21.6,13,28.6v361.4
			c-8.3,2.8-14.4,10.7-14.4,20.1c0,9.3,6,17.2,14.4,20v36.3c0,4.1,3.4,7.5,7.5,7.5h35.2c4.1,0,7.5-3.4,7.5-7.5v-36.3
			c8.3-2.8,14.4-10.7,14.4-20.1c0-9.3-6-17.2-14.4-20V116.5h53.4v88c-18-0.8-34.2,14.2-34.1,32.7v153c0,18,14.7,32.7,32.7,32.7h25.4
			c7.7,0,14.4,4.8,16.7,11.9c12.4,37.9,59.1,64.4,113.6,64.4c54.5,0,101.2-26.5,113.6-64.4c2.3-7.1,9-11.9,16.7-11.9h25.4
			c18,0,32.7-14.7,32.7-32.7v-153c0-17-13.1-31-29.7-32.6v-88.1h16.2c1.4,10.3,10.3,18.3,21,18.3c11.7,0,21.2-9.5,21.2-21.2V77
			C-159.5,65.3-169,55.8-180.8,55.8L-180.8,55.8z M-591.3,454.3h-36.6c-3.4,0-6.2-2.8-6.2-6.2c0-3.4,2.8-6.2,6.2-6.2h36.6
			c3.4,0,6.2,2.8,6.2,6.2C-585.1,451.5-587.8,454.3-591.3,454.3z M-609.5,15c12.7,0,23.1,10.4,23.1,23.1s-10.4,23.1-23.1,23.1
			c-12.7,0-23.1-10.4-23.1-23.1S-622.3,15-609.5,15z M-609.5,76.2c3.5,0,6.9-0.5,10.1-1.4v352.1h-20.2V74.8
			C-616.4,75.7-613,76.2-609.5,76.2L-609.5,76.2z M-619.6,497v-27.7h20.2V497H-619.6z M-232.9,244.3c0,4.1,3.4,7.5,7.5,7.5
			s7.5-3.4,7.5-7.5v-24.6c8.3,1.4,14.7,8.7,14.7,17.4v153c0,9.8-7.9,17.7-17.7,17.7h-25.4c-14.2,0-26.6,8.9-31,22.2
			c-10.2,31.3-52,54.1-99.4,54.1s-89.1-22.8-99.4-54.1c-4.3-13.3-16.8-22.2-31-22.2h-25.4c-9.8,0-17.7-7.9-17.7-17.7v-153
			c-0.1-9.7,8.8-18.4,19.1-17.7v24.8c0,4.1,3.4,7.5,7.5,7.5c4.1,0,7.5-3.4,7.5-7.5v-24.8h9c14.2,0,26.6-8.9,31-22.2
			c10.2-31.3,52-54.1,99.4-54.1s89.1,22.8,99.4,54.1c2.1,6.5,6.2,12.1,11.8,16.1c3.4,2.4,8.1,1.6,10.5-1.7c2.4-3.4,1.6-8.1-1.7-10.5
			c-3-2.1-5.2-5.1-6.3-8.5c-12.4-37.9-59.1-64.4-113.6-64.4c-54.5,0-101.2,26.5-113.6,64.4c-2.3,7.1-9,11.9-16.7,11.9h-9v-88h283.2
			L-232.9,244.3L-232.9,244.3z M-174.5,113.6c0,3.4-2.8,6.2-6.2,6.2c-3.4,0-6.2-2.8-6.2-6.2V109c0,0,0,0,0-0.1s0,0,0-0.1V81.6
			c0,0,0,0,0-0.1s0,0,0-0.1V77c0-3.4,2.8-6.2,6.2-6.2c3.4,0,6.2,2.8,6.2,6.2V113.6z"/>
		<path class="st3" d="M-260.2,291.3C-260.2,291.3-260.2,291.3-260.2,291.3l-12.8-12.8c-6.2-6.2-16.4-6.2-22.6,0l-29.8,29.8
			c-7.4,7.4-6.1,19.8-4.5,26.9l-67,63.9l-49-51.4c-1-1-2.3-1.8-3.7-2.1c-13.3-3.2-29.6-8.7-32.7-11.8l-7.7-7.7
			c-4.3-4.3-6.8-9.8-7.1-15.4c-0.3-5.4,1.5-10.3,5-13.8c7.5-7.5,20.6-6.6,29.2,2.1l7.7,7.7c3.1,3.1,8.6,19.4,11.8,32.7
			c0.3,1.4,1.1,2.7,2.1,3.7l31.9,30.4c3,2.9,7.7,2.7,10.6-0.3c2.9-3,2.7-7.7-0.3-10.6l-30.3-28.8c-2.3-9.2-8.3-30.7-15.2-37.7
			l-7.7-7.7c-14.5-14.5-37.1-15.4-50.5-2.1c-6.6,6.6-9.9,15.5-9.4,25.2c0.5,9.4,4.6,18.4,11.5,25.3l7.7,7.7c7,7,28.5,12.9,37.7,15.3
			l47.5,49.8l-9.9,9.5c-4.2,4-6.5,9.4-6.6,15.2c-0.1,5.7,2.1,11,6,15.1c6.9,8.4,22,9.1,30.3,0.4l9.2-9.7l8.8,9.2
			c7.3,8.1,21.9,9,30.5,0.4c4-4,6.2-9.4,6.2-15.1c0-5.9-2.3-11.4-6.6-15.4l-9.9-9.5l45.9-48.2c7,1.6,19.4,3,26.9-4.5l29.8-29.8
			c6.2-6.2,6.2-16.4,0-22.6L-260.2,291.3C-260.2,291.3-260.2,291.3-260.2,291.3L-260.2,291.3z M-350.3,429.6c0.8,1.3,3.8,3.8,0.1,9
			c-1.2,1.2-2.8,1.9-4.5,1.8c-1.7,0-3.3-0.7-4.5-2l-9.3-9.7l8.3-8.7L-350.3,429.6z M-257.9,316.2l-29.8,29.8
			c-2.1,2.1-10.3,1.5-16.2-0.4c-2.8-0.9-5.8-0.2-7.8,1.9l-54.1,56.8c0,0,0,0-0.1,0s0,0,0,0.1l-33,34.6c-1.3,1.1-5.1,3.3-8.6-0.4
			c-1.2-1.2-1.9-2.8-1.8-4.5c0-1.7,0.7-3.3,2-4.5l91-86.7c2.1-2,2.9-5,1.9-7.8c-1.7-5.1-2.7-14-0.4-16.2l29.8-29.8
			c0.2,0,0.3-0.6,1.4,0l7.5,7.5l-24.1,24.1c-2.9,2.9-2.9,7.7,0,10.6c2.3,2.2,6.7,3.4,10.6,0l24.1-24.1l7.6,7.6
			C-257.5,315.2-257.5,315.8-257.9,316.2L-257.9,316.2z"/>
		<path class="st2" d="M-433.2,259.3h-15.9c-4.1,0-7.5,3.4-7.5,7.5s3.4,7.5,7.5,7.5h145c4.1,0,7.5-3.4,7.5-7.5s-3.4-7.5-7.5-7.5
			h-15.9c-3.4-25.5-23.6-45.8-49.1-49.1v-6.5c0-4.1-3.4-7.5-7.5-7.5s-7.5,3.4-7.5,7.5v6.5C-409.6,213.6-429.8,233.8-433.2,259.3z
			 M-335.1,259.3H-418c3.5-19.7,20.8-34.6,41.5-34.6S-338.6,239.7-335.1,259.3z"/>
		<circle class="st3" cx="-523.5" cy="384.9" r="7.8"/>
		<path class="st3" d="M-219.9,390.4c3.1-3.1,3.1-8,0-11.1s-8-3.1-11.1,0s-3.1,8,0,11.1S-222.9,393.5-219.9,390.4z"/>
		<path class="st2" d="M-454.9,205.9l12.5,10.3c1.6,1.6,7,2.9,10.6-1c2.6-3.2,2.2-7.9-1-10.6l-12.5-10.3c-3.2-2.6-7.9-2.2-10.6,1
			C-458.5,198.5-458,203.3-454.9,205.9L-454.9,205.9z"/>
		<path class="st2" d="M-412.7,190.9c2.4,8.5,16.6,5.8,14.4-4.3l-4.9-16.2c-1.2-4-5.4-6.2-9.3-5c-4,1.2-6.2,5.4-5,9.3L-412.7,190.9z
			"/>
		<path class="st2" d="M-317.7,218c1.7,0,3.4-0.6,4.8-1.7l12.5-10.3c3.2-2.6,3.6-7.4,1-10.6c-2.6-3.2-7.4-3.6-10.6-1l-12.5,10.3
			c-3.2,2.6-3.6,7.4-1,10.6C-322,217-319.9,218-317.7,218L-317.7,218z"/>
		<path class="st2" d="M-351.9,196c3,0.9,7.7-0.4,9.3-5l4.9-16.2c1.2-4-1.1-8.1-5-9.3c-4-1.2-8.1,1.1-9.3,5l-4.9,16.2
			C-358.2,190.6-355.9,194.8-351.9,196z"/>
	</g>
</g>
</svg>
