<?xml version="1.0" encoding="utf-8"?>
<!-- Generator: Adobe Illustrator 26.0.3, SVG Export Plug-In . SVG Version: 6.00 Build 0)  -->
<svg version="1.1" id="Capa_1" xmlns="http://www.w3.org/2000/svg" xmlns:xlink="http://www.w3.org/1999/xlink" x="0px" y="0px"
	 viewBox="0 0 512 512" style="enable-background:new 0 0 512 512;" xml:space="preserve">
<style type="text/css">
	.st0{fill:#0F2132;}
	.st1{fill:#FFFFFF;}
	.st2{fill:#E65400;}
</style>
<rect x="631.1" class="st0" width="512" height="512"/>
<path class="st1" d="M716.6,71.1c0,18,14.7,32.7,32.7,32.7s32.7-14.7,32.7-32.7s-14.7-32.7-32.7-32.7S716.6,53,716.6,71.1z
	 M749.4,53.3c9.8,0,17.7,8,17.7,17.7c0,9.8-8,17.7-17.7,17.7c-9.8,0-17.7-8-17.7-17.7C731.6,61.3,739.6,53.3,749.4,53.3z"/>
<path class="st1" d="M756.9,17V7.5c0-4.1-3.4-7.5-7.5-7.5c-4.1,0-7.5,3.4-7.5,7.5V17c0,4.1,3.4,7.5,7.5,7.5
	C753.5,24.5,756.9,21.1,756.9,17z"/>
<path class="st1" d="M741.9,125.1v9.5c0,4.1,3.4,7.5,7.5,7.5c4.1,0,7.5-3.4,7.5-7.5v-9.5c0-4.1-3.4-7.5-7.5-7.5
	C745.2,117.6,741.9,121,741.9,125.1z"/>
<path class="st1" d="M709.7,20.8c-2.9-2.9-7.7-2.9-10.6,0c-2.9,2.9-2.9,7.7,0,10.6l6.7,6.7c2.9,2.9,7.7,2.9,10.6,0
	c2.9-2.9,2.9-7.7,0-10.6L709.7,20.8z"/>
<path class="st1" d="M782.3,104c-2.9,2.9-2.9,7.7,0,10.6l6.7,6.7c2.9,2.9,7.7,2.9,10.6,0c2.9-2.9,2.9-7.7,0-10.6l-6.7-6.7
	C790,101.1,785.2,101.1,782.3,104z"/>
<path class="st1" d="M685.8,63.6c-4.1,0-7.5,3.4-7.5,7.5c0,4.1,3.4,7.5,7.5,7.5h9.5c4.1,0,7.5-3.4,7.5-7.5c0-4.1-3.4-7.5-7.5-7.5
	L685.8,63.6z"/>
<path class="st1" d="M812.9,78.6c4.1,0,7.5-3.4,7.5-7.5c0-4.1-3.4-7.5-7.5-7.5h-9.5c-4.1,0-7.5,3.4-7.5,7.5c0,4.1,3.4,7.5,7.5,7.5
	H812.9z"/>
<path class="st1" d="M705.8,104l-6.7,6.7c-2.9,2.9-2.9,7.7,0,10.6c2.9,2.9,7.7,2.9,10.6,0l6.7-6.7c2.9-2.9,2.9-7.7,0-10.6
	C713.5,101.1,708.7,101.1,705.8,104z"/>
<path class="st1" d="M789,20.8l-6.7,6.7c-2.9,2.9-2.9,7.7,0,10.6c2.9,2.9,7.7,2.9,10.6,0l6.7-6.7c2.9-2.9,2.9-7.7,0-10.6
	C796.7,17.9,791.9,17.9,789,20.8z"/>
<path class="st1" d="M769.6,374c-4.1,0-7.5,3.4-7.5,7.5v7.8c0,4.1,3.4,7.5,7.5,7.5c4.1,0,7.5-3.4,7.5-7.5v-7.8
	C777.1,377.4,773.8,374,769.6,374z"/>
<path class="st2" d="M834.5,294.6c-8.9,0-16.2,7.3-16.2,16.2v88.3c0,8.9,7.3,16.2,16.2,16.2h35c8.9,0,16.2-7.3,16.2-16.2v-88.3
	c0-8.9-7.3-16.2-16.2-16.2L834.5,294.6z M869.5,400.3h-35c-0.7,0-1.2-0.5-1.2-1.2v-36.7h37.4v36.7
	C870.7,399.8,870.2,400.3,869.5,400.3z M870.7,310.8v36.7h-37.4v-36.7c0-0.7,0.5-1.2,1.2-1.2h35
	C870.2,309.6,870.7,310.1,870.7,310.8z"/>
<path class="st2" d="M920,294.6c-8.9,0-16.2,7.3-16.2,16.2v88.3c0,8.9,7.3,16.2,16.2,16.2h35c8.9,0,16.2-7.3,16.2-16.2v-88.3
	c0-8.9-7.3-16.2-16.2-16.2L920,294.6z M955,400.3h-35c-0.7,0-1.2-0.5-1.2-1.2v-36.7h37.4v36.7C956.2,399.8,955.7,400.3,955,400.3
	L955,400.3z M956.2,310.8v36.7h-37.4v-36.7c0-0.7,0.5-1.2,1.2-1.2h35C955.7,309.6,956.2,310.1,956.2,310.8L956.2,310.8z"/>
<path class="st2" d="M1005.4,294.6c-8.9,0-16.2,7.3-16.2,16.2v88.3c0,8.9,7.3,16.2,16.2,16.2h35c8.9,0,16.2-7.3,16.2-16.2v-88.3
	c0-8.9-7.3-16.2-16.2-16.2L1005.4,294.6z M1040.5,400.3h-35c-0.7,0-1.2-0.5-1.2-1.2v-36.7h37.4v36.7
	C1041.7,399.8,1041.1,400.3,1040.5,400.3L1040.5,400.3z M1041.7,310.8v36.7h-37.4v-36.7c0-0.7,0.5-1.2,1.2-1.2h35
	C1041.1,309.6,1041.7,310.1,1041.7,310.8L1041.7,310.8z"/>
<path class="st1" d="M1124.6,461.2h-30.4v-88.7c0-4.1-3.4-7.5-7.5-7.5s-7.5,3.4-7.5,7.5v88.7H802.6V310.8c0-8.9-7.3-16.2-16.2-16.2
	h-52.6c-8.9,0-16.2,7.3-16.2,16.2v150.4h-22.5V258.9h384v78.6c0,4.1,3.4,7.5,7.5,7.5c4.1,0,7.5-3.4,7.5-7.5v-78.6h6.1
	c10.3,0,18.6-8.3,18.6-18.6v-13.6c0-10.3-8.3-18.6-18.6-18.6h-36v-72.7c0-4.1-3.4-7.5-7.5-7.5s-7.5,3.4-7.5,7.5v34.6h-34.5
	c-4.1,0-7.5,3.4-7.5,7.5v30.5h-17.8v-48.9h24.2c4.1,0,7.5-3.4,7.5-7.5s-3.4-7.5-7.5-7.5h-24.2V95.3h57c4.5,0,8.7-2.3,11.1-6.1
	c2.4-3.8,2.7-8.5,0.8-12.6h0c-12.7-27.3-39.3-45.7-69-48.4v-9.4c0-4.1-3.4-7.5-7.5-7.5c-4.1,0-7.5,3.4-7.5,7.5v9.4
	c-29.7,2.7-56.2,21.1-69,48.4c-1.9,4.1-1.6,8.8,0.8,12.6c2.4,3.8,6.6,6.1,11.1,6.1h57v48.9h-24.2c-4.1,0-7.5,3.4-7.5,7.5
	s3.4,7.5,7.5,7.5h24.2v48.9h-17.8v-30.5c0-4.1-3.4-7.5-7.5-7.5h-34.5v-34.6c0-4.1-3.4-7.5-7.5-7.5c-4.1,0-7.5,3.4-7.5,7.5v72.7H674
	c-10.3,0-18.6,8.3-18.6,18.6v13.6c0,10.3,8.3,18.6,18.6,18.6h6.1v202.3h-30.4c-10.3,0-18.6,8.3-18.6,18.6v13.6
	c0,10.3,8.3,18.6,18.6,18.6h219.9c4.1,0,7.5-3.4,7.5-7.5s-3.4-7.5-7.5-7.5H649.7c-2,0-3.6-1.6-3.6-3.6v-13.6c0-2,1.6-3.6,3.6-3.6
	h474.8c2,0,3.6,1.6,3.6,3.6v13.6c0,2-1.6,3.6-3.6,3.6H904.6c-4.1,0-7.5,3.4-7.5,7.5s3.4,7.5,7.5,7.5h219.9
	c10.3,0,18.6-8.3,18.6-18.6v-13.6C1143.1,469.5,1134.8,461.2,1124.6,461.2L1124.6,461.2z M1043.6,80.3h-27.7
	c-2.2-13.4-5.6-24.6-10-33.2C1021.9,53,1035.5,64.8,1043.6,80.3z M958.1,47.1c-4.4,8.6-7.8,19.8-10,33.2h-27.7
	C928.5,64.8,942.1,53,958.1,47.1z M982,42.8c5.2,0,14.1,12,18.6,37.5h-37.3C967.9,54.8,976.8,42.8,982,42.8L982,42.8z M1022.2,185.1
	h27v23h-27V185.1z M914.7,185.1h27v23h-27V185.1z M670.4,240.3v-13.6c0-2,1.6-3.6,3.6-3.6h426.2c2,0,3.6,1.6,3.6,3.6v13.6
	c0,2-1.6,3.6-3.6,3.6c-11.4,0-414.8,0-426.2,0C672,243.9,670.4,242.3,670.4,240.3z M732.6,461.2V310.8c0-0.7,0.5-1.2,1.2-1.2h52.6
	c0.7,0,1.2,0.5,1.2,1.2v150.4L732.6,461.2L732.6,461.2z"/>
<g>
	<path class="st0" d="M85.5,71.1c0,18,14.7,32.7,32.7,32.7s32.7-14.7,32.7-32.7s-14.7-32.7-32.7-32.7S85.5,53,85.5,71.1z
		 M118.2,53.3c9.8,0,17.7,8,17.7,17.7c0,9.8-8,17.7-17.7,17.7c-9.8,0-17.7-8-17.7-17.7C100.5,61.3,108.4,53.3,118.2,53.3z"/>
	<path class="st0" d="M125.7,17V7.5c0-4.1-3.4-7.5-7.5-7.5s-7.5,3.4-7.5,7.5V17c0,4.1,3.4,7.5,7.5,7.5S125.7,21.1,125.7,17z"/>
	<path class="st0" d="M110.7,125.1v9.5c0,4.1,3.4,7.5,7.5,7.5s7.5-3.4,7.5-7.5v-9.5c0-4.1-3.4-7.5-7.5-7.5S110.7,121,110.7,125.1z"
		/>
	<path class="st0" d="M78.6,20.8c-2.9-2.9-7.7-2.9-10.6,0c-2.9,2.9-2.9,7.7,0,10.6l6.7,6.7c2.9,2.9,7.7,2.9,10.6,0
		c2.9-2.9,2.9-7.7,0-10.6L78.6,20.8z"/>
	<path class="st0" d="M151.1,104c-2.9,2.9-2.9,7.7,0,10.6l6.7,6.7c2.9,2.9,7.7,2.9,10.6,0c2.9-2.9,2.9-7.7,0-10.6l-6.7-6.7
		C158.8,101.1,154.1,101.1,151.1,104z"/>
	<path class="st0" d="M54.7,63.6c-4.1,0-7.5,3.4-7.5,7.5c0,4.1,3.4,7.5,7.5,7.5h9.5c4.1,0,7.5-3.4,7.5-7.5c0-4.1-3.4-7.5-7.5-7.5
		L54.7,63.6z"/>
	<path class="st0" d="M181.8,78.6c4.1,0,7.5-3.4,7.5-7.5c0-4.1-3.4-7.5-7.5-7.5h-9.5c-4.1,0-7.5,3.4-7.5,7.5c0,4.1,3.4,7.5,7.5,7.5
		H181.8z"/>
	<path class="st0" d="M74.7,104l-6.7,6.7c-2.9,2.9-2.9,7.7,0,10.6c2.9,2.9,7.7,2.9,10.6,0l6.7-6.7c2.9-2.9,2.9-7.7,0-10.6
		C82.3,101.1,77.6,101.1,74.7,104z"/>
	<path class="st0" d="M157.8,20.8l-6.7,6.7c-2.9,2.9-2.9,7.7,0,10.6c2.9,2.9,7.7,2.9,10.6,0l6.7-6.7c2.9-2.9,2.9-7.7,0-10.6
		C165.5,17.9,160.8,17.9,157.8,20.8z"/>
	<path class="st0" d="M138.5,374c-4.1,0-7.5,3.4-7.5,7.5v7.8c0,4.1,3.4,7.5,7.5,7.5c4.1,0,7.5-3.4,7.5-7.5v-7.8
		C146,377.4,142.6,374,138.5,374z"/>
	<path class="st2" d="M203.3,294.6c-8.9,0-16.2,7.3-16.2,16.2v88.3c0,8.9,7.3,16.2,16.2,16.2h35c8.9,0,16.2-7.3,16.2-16.2v-88.3
		c0-8.9-7.3-16.2-16.2-16.2L203.3,294.6z M238.4,400.3h-35c-0.7,0-1.2-0.5-1.2-1.2v-36.7h37.4v36.7
		C239.6,399.8,239,400.3,238.4,400.3z M239.6,310.8v36.7h-37.4v-36.7c0-0.7,0.5-1.2,1.2-1.2h35C239,309.6,239.6,310.1,239.6,310.8z"
		/>
	<path class="st2" d="M288.8,294.6c-8.9,0-16.2,7.3-16.2,16.2v88.3c0,8.9,7.3,16.2,16.2,16.2h35c8.9,0,16.2-7.3,16.2-16.2v-88.3
		c0-8.9-7.3-16.2-16.2-16.2L288.8,294.6z M323.8,400.3h-35c-0.7,0-1.2-0.5-1.2-1.2v-36.7H325v36.7
		C325,399.8,324.5,400.3,323.8,400.3L323.8,400.3z M325,310.8v36.7h-37.4v-36.7c0-0.7,0.5-1.2,1.2-1.2h35
		C324.5,309.6,325,310.1,325,310.8L325,310.8z"/>
	<path class="st2" d="M374.3,294.6c-8.9,0-16.2,7.3-16.2,16.2v88.3c0,8.9,7.3,16.2,16.2,16.2h35c8.9,0,16.2-7.3,16.2-16.2v-88.3
		c0-8.9-7.3-16.2-16.2-16.2L374.3,294.6z M409.3,400.3h-35c-0.7,0-1.2-0.5-1.2-1.2v-36.7h37.4v36.7
		C410.5,399.8,410,400.3,409.3,400.3L409.3,400.3z M410.5,310.8v36.7h-37.4v-36.7c0-0.7,0.5-1.2,1.2-1.2h35
		C410,309.6,410.5,310.1,410.5,310.8L410.5,310.8z"/>
	<path class="st0" d="M493.4,461.2H463v-88.7c0-4.1-3.4-7.5-7.5-7.5s-7.5,3.4-7.5,7.5v88.7H171.5V310.8c0-8.9-7.3-16.2-16.2-16.2
		h-52.6c-8.9,0-16.2,7.3-16.2,16.2v150.4H64V258.9h384v78.6c0,4.1,3.4,7.5,7.5,7.5s7.5-3.4,7.5-7.5v-78.6h6.1
		c10.3,0,18.6-8.3,18.6-18.6v-13.6c0-10.3-8.3-18.6-18.6-18.6h-36v-72.7c0-4.1-3.4-7.5-7.5-7.5s-7.5,3.4-7.5,7.5v34.6h-34.5
		c-4.1,0-7.5,3.4-7.5,7.5v30.5h-17.8v-48.9h24.2c4.1,0,7.5-3.4,7.5-7.5s-3.4-7.5-7.5-7.5h-24.2V95.3h57c4.5,0,8.7-2.3,11.1-6.1
		c2.4-3.8,2.7-8.5,0.8-12.6h0c-12.7-27.3-39.3-45.7-69-48.4v-9.4c0-4.1-3.4-7.5-7.5-7.5c-4.1,0-7.5,3.4-7.5,7.5v9.4
		c-29.7,2.7-56.2,21.1-69,48.4c-1.9,4.1-1.6,8.8,0.8,12.6c2.4,3.8,6.6,6.1,11.1,6.1h57v48.9h-24.2c-4.1,0-7.5,3.4-7.5,7.5
		s3.4,7.5,7.5,7.5h24.2v48.9h-17.8v-30.5c0-4.1-3.4-7.5-7.5-7.5h-34.5v-34.6c0-4.1-3.4-7.5-7.5-7.5s-7.5,3.4-7.5,7.5v72.7H42.9
		c-10.3,0-18.6,8.3-18.6,18.6v13.6c0,10.3,8.3,18.6,18.6,18.6H49v202.3H18.6C8.3,461.2,0,469.5,0,479.8v13.6
		C0,503.7,8.3,512,18.6,512h219.9c4.1,0,7.5-3.4,7.5-7.5s-3.4-7.5-7.5-7.5H18.6c-2,0-3.6-1.6-3.6-3.6v-13.6c0-2,1.6-3.6,3.6-3.6
		h474.8c2,0,3.6,1.6,3.6,3.6v13.6c0,2-1.6,3.6-3.6,3.6H273.5c-4.1,0-7.5,3.4-7.5,7.5s3.4,7.5,7.5,7.5h219.9
		c10.3,0,18.6-8.3,18.6-18.6v-13.6C512,469.5,503.7,461.2,493.4,461.2L493.4,461.2z M412.4,80.3h-27.7c-2.2-13.4-5.6-24.6-10-33.2
		C390.7,53,404.4,64.8,412.4,80.3z M327,47.1c-4.4,8.6-7.8,19.8-10,33.2h-27.7C297.3,64.8,310.9,53,327,47.1z M350.8,42.8
		c5.2,0,14.1,12,18.6,37.5h-37.3C336.8,54.8,345.7,42.8,350.8,42.8L350.8,42.8z M391.1,185.1h27v23h-27V185.1z M283.6,185.1h27v23
		h-27V185.1z M39.3,240.3v-13.6c0-2,1.6-3.6,3.6-3.6h426.2c2,0,3.6,1.6,3.6,3.6v13.6c0,2-1.6,3.6-3.6,3.6c-11.4,0-414.8,0-426.2,0
		C40.9,243.9,39.3,242.3,39.3,240.3z M101.5,461.2V310.8c0-0.7,0.5-1.2,1.2-1.2h52.6c0.7,0,1.2,0.5,1.2,1.2v150.4L101.5,461.2
		L101.5,461.2z"/>
</g>
</svg>
