<?xml version="1.0" encoding="utf-8"?>
<!-- Generator: Adobe Illustrator 26.0.3, SVG Export Plug-In . SVG Version: 6.00 Build 0)  -->
<svg version="1.1" id="Capa_1" xmlns="http://www.w3.org/2000/svg" xmlns:xlink="http://www.w3.org/1999/xlink" x="0px" y="0px"
	 viewBox="0 0 512 512" style="enable-background:new 0 0 512 512;" xml:space="preserve">
<style type="text/css">
	.st0{fill:#0F2132;}
	.st1{fill:#FFFFFF;}
	.st2{fill:#E65400;}
</style>
<rect x="833.4" class="st0" width="512" height="512"/>
<g>
	<g>
		<path class="st1" d="M1098,412.6c-1.9-1.9-4.4-2.9-7.1-2.9c-2.6,0-5.2,1.1-7.1,2.9c-1.9,1.9-2.9,4.4-2.9,7.1
			c0,2.6,1.1,5.2,2.9,7.1c1.9,1.9,4.4,2.9,7.1,2.9c2.6,0,5.2-1.1,7.1-2.9c1.9-1.9,2.9-4.4,2.9-7.1C1101,417,1099.9,414.4,1098,412.6
			z"/>
	</g>
</g>
<g>
	<g>
		<path class="st1" d="M1108.7,248.2c-3.3-4.4-9.6-5.3-14-2c-1.6,1.2-3.4,1.8-5.4,1.8c-1.9,0-3.8-0.6-5.4-1.8
			c-4.4-3.3-10.7-2.3-14,2.1c-3.3,4.4-2.3,10.7,2.1,14c5,3.7,11,5.7,17.2,5.7c6.3,0,12.3-2,17.3-5.8
			C1111,258.8,1112,252.6,1108.7,248.2z"/>
	</g>
</g>
<g>
	<g>
		<path class="st1" d="M1046.8,109.6c-1.9-1.9-4.4-2.9-7.1-2.9c-2.6,0-5.2,1.1-7.1,2.9c-1.9,1.9-2.9,4.4-2.9,7.1
			c0,2.6,1.1,5.2,2.9,7.1s4.4,2.9,7.1,2.9c2.6,0,5.2-1.1,7.1-2.9c1.9-1.9,2.9-4.4,2.9-7.1S1048.7,111.5,1046.8,109.6z"/>
	</g>
</g>
<g>
	<g>
		<path class="st1" d="M1335.2,491.9h-62v-36.4c0-41.2-26-78.4-64.7-92.6l-67.8-24.8c-3-1.1-4.9-3.5-4.9-6V304
			c0-0.8-0.1-1.5-0.3-2.3l30.2-17.3c0.2-0.1,0.4-0.2,0.5-0.3c13.1-8.6,21.7-24,23-41.1c0-0.3,0-0.5,0-0.8V205c0-0.3,0-0.7-0.1-1
			c5.7-1.7,11.1-4.8,15.5-9.3l4.4-4.4c21.4-21.4,21.4-56.3,0-77.7l-67.5-67.5c-5.1-19.8-19.7-35.4-39.1-41.8
			c-23.4-7.7-48.7-1.7-66.1,15.7l-60.6,60.6c-34.7,34.7-34.7,91.2,0,125.9l13.5,13.5v23.2c0,0.3,0,0.5,0,0.8
			c1.3,17.2,9.8,32.5,22.8,41.1c0.2,0.1,0.4,0.2,0.5,0.3l30.3,17.3c-0.2,0.7-0.3,1.5-0.3,2.3v28.2c0,2.5-1.9,4.9-4.8,5.9l-67.8,24.8
			c-38.7,14.2-64.7,51.4-64.7,92.6v36.5h-62c-5.5,0-10,4.5-10,10s4.5,10,10,10h491.8c5.5,0,10-4.5,10-10S1340.7,491.9,1335.2,491.9z
			 M1126,102.6c8.1-8.1,13.5-18,16-28.7l53,53c13.6,13.6,13.6,35.8,0,49.4l-4.4,4.4c-6.6,6.6-17.3,6.6-23.9,0l-59.4-59.4L1126,102.6
			z M999.6,200.7c-0.1,0-0.2,0-0.3,0c0,0,0,0-0.1,0l-9.3-9.3c-26.9-26.9-26.9-70.7,0-97.6l60.6-60.6c8.6-8.6,19.9-13.1,31.5-13.1
			c3.8,0,7.5,0.5,11.3,1.5c3.4,13.6-0.5,27.9-10.5,37.9l-25.4,25.4c-3.9,3.9-3.9,10.2,0,14.1c2,2,4.5,2.9,7.1,2.9
			c2.6,0,5.1-1,7.1-2.9l25.4-25.4c10.6-10.6,16.6-24.4,17.4-38.7c3.8,4.6,6.6,10.1,8,16.2c3.2,13.6-0.7,27.6-10.6,37.4L999.6,200.7z
			 M1023,267.2c-7.6-5.2-12.7-14.6-13.6-25.4v-22.6l83.9-83.9l59.4,59.4c4.8,4.8,10.6,8,16.7,9.6c0,0.2,0,0.4,0,0.7v36.8
			c-0.9,10.6-6.2,20.3-13.8,25.4l-53.7,30.8c-0.2,0.1-0.4,0.2-0.5,0.3c-7.5,4.9-16.4,5-23.9,0c-0.2-0.1-0.4-0.2-0.5-0.3L1023,267.2z
			 M1253.2,491.9h-42v0v-45.8c0-20.1-16.4-36.5-36.5-36.5h-46.3c-5.5,0-10,4.5-10,10s4.5,10,10,10h46.3c9.1,0,16.5,7.4,16.5,16.5
			v45.8H987.4v-45.8c0-9.1,7.4-16.5,16.5-16.5h46.1c5.5,0,10-4.5,10-10s-4.5-10-10-10h-46.1c-20.1,0-36.5,16.4-36.5,36.5v45.8h-42
			v-36.5c0-32.9,20.7-62.5,51.6-73.8l67.9-24.8c10.9-4.1,17.9-13.8,17.9-24.7V313l3.8,2.2c7,4.6,14.9,6.8,22.7,6.8
			c7.8,0,15.7-2.3,22.7-6.8l3.8-2.2v19.1c0,10.9,7,20.6,18,24.7l67.9,24.8c30.9,11.3,51.6,40.9,51.6,73.8V491.9L1253.2,491.9z"/>
	</g>
</g>
<g>
	<g>
		<path class="st2" d="M865.9,287.9l-7.9-9.9c-6.2-7.8-6.2-18.6,0-26.4l8-10.1c3.4-4.3,2.7-10.6-1.6-14c-4.3-3.4-10.6-2.7-14,1.6
			l-8,10.1c-12,15.1-12,36.2,0,51.2l7.9,9.9c6.2,7.8,6.2,18.6,0,26.4c-3.4,4.3-2.7,10.6,1.6,14c1.8,1.5,4,2.2,6.2,2.2
			c2.9,0,5.9-1.3,7.8-3.8C877.9,324,877.9,302.9,865.9,287.9z"/>
	</g>
</g>
<g>
	<g>
		<path class="st2" d="M938.3,248.2l-7.9-9.9c-6.2-7.8-6.2-18.6,0-26.4l8-10.1c3.4-4.3,2.7-10.6-1.6-14c-4.3-3.4-10.6-2.7-14,1.6
			l-8,10.1c-12,15.1-12,36.2,0,51.2l7.9,9.9c6.2,7.8,6.2,18.6,0,26.4c-3.4,4.3-2.7,10.6,1.6,14c1.8,1.5,4,2.2,6.2,2.2
			c2.9,0,5.9-1.3,7.8-3.8C950.3,284.3,950.3,263.3,938.3,248.2z"/>
	</g>
</g>
<g>
	<g>
		<path class="st2" d="M1264,287.9l-7.9-9.9c-6.2-7.8-6.2-18.6,0-26.4l8-10.1c3.4-4.3,2.7-10.6-1.6-14c-4.3-3.4-10.6-2.7-14,1.6
			l-8,10.1c-12,15.1-12,36.2,0,51.2l7.9,9.9c6.2,7.8,6.2,18.6,0,26.4c-3.4,4.3-2.7,10.6,1.6,14c1.8,1.5,4,2.2,6.2,2.2
			c2.9,0,5.9-1.3,7.8-3.8C1276,324,1276,302.9,1264,287.9z"/>
	</g>
</g>
<g>
	<g>
		<path class="st2" d="M1336.3,248.2l-7.9-9.9c-6.2-7.8-6.2-18.6,0-26.4l8-10.1c3.4-4.3,2.7-10.6-1.6-14c-4.3-3.4-10.6-2.7-14,1.6
			l-8,10.1c-12,15.1-12,36.2,0,51.2l7.9,9.9c6.2,7.8,6.2,18.6,0,26.4c-3.4,4.3-2.7,10.6,1.6,14c1.8,1.5,4,2.2,6.2,2.2
			c2.9,0,5.9-1.3,7.8-3.8C1348.4,284.3,1348.4,263.3,1336.3,248.2z"/>
	</g>
</g>
<g>
	<g>
		<path class="st0" d="M264.7,412.6c-1.9-1.9-4.4-2.9-7.1-2.9s-5.2,1.1-7.1,2.9c-1.9,1.9-2.9,4.4-2.9,7.1c0,2.6,1.1,5.2,2.9,7.1
			c1.9,1.9,4.4,2.9,7.1,2.9s5.2-1.1,7.1-2.9c1.9-1.9,2.9-4.4,2.9-7.1C267.6,417,266.5,414.4,264.7,412.6z"/>
	</g>
</g>
<g>
	<g>
		<path class="st0" d="M275.3,248.2c-3.3-4.4-9.6-5.3-14-2c-1.6,1.2-3.4,1.8-5.4,1.8c-1.9,0-3.8-0.6-5.4-1.8
			c-4.4-3.3-10.7-2.3-14,2.1s-2.3,10.7,2.1,14c5,3.7,11,5.7,17.2,5.7c6.3,0,12.3-2,17.3-5.8C277.7,258.8,278.6,252.6,275.3,248.2z"
			/>
	</g>
</g>
<g>
	<g>
		<path class="st0" d="M213.4,109.6c-1.9-1.9-4.4-2.9-7.1-2.9c-2.6,0-5.2,1.1-7.1,2.9c-1.9,1.9-2.9,4.4-2.9,7.1
			c0,2.6,1.1,5.2,2.9,7.1s4.4,2.9,7.1,2.9c2.6,0,5.2-1.1,7.1-2.9c1.9-1.9,2.9-4.4,2.9-7.1S215.3,111.5,213.4,109.6z"/>
	</g>
</g>
<g>
	<g>
		<path class="st0" d="M501.9,491.9h-62v-36.4c0-41.2-26-78.4-64.7-92.6l-67.8-24.8c-3-1.1-4.9-3.5-4.9-6V304c0-0.8-0.1-1.5-0.3-2.3
			l30.2-17.3c0.2-0.1,0.4-0.2,0.5-0.3c13.1-8.6,21.7-24,23-41.1c0-0.3,0-0.5,0-0.8V205c0-0.3,0-0.7,0-1c5.7-1.7,11-4.8,15.5-9.3
			l4.4-4.4c21.4-21.4,21.4-56.3,0-77.7l-67.5-67.5c-5.1-19.8-19.7-35.4-39.1-41.8c-23.4-7.7-48.7-1.7-66.1,15.7l-60.6,60.6
			c-34.7,34.7-34.7,91.2,0,125.9l13.5,13.5v23.2c0,0.3,0,0.5,0,0.8c1.3,17.2,9.8,32.5,22.8,41.1c0.2,0.1,0.4,0.2,0.5,0.3l30.3,17.3
			c-0.2,0.7-0.3,1.5-0.3,2.3v28.2c0,2.5-1.9,4.9-4.8,5.9l-67.8,24.8C98,377.1,72,414.3,72,455.5v36.5H10c-5.5,0-10,4.5-10,10
			s4.5,10,10,10h491.8c5.5,0,10-4.5,10-10S507.4,491.9,501.9,491.9z M292.7,102.6c8.1-8.1,13.5-18,16-28.7l53,53
			c13.6,13.6,13.6,35.8,0,49.4l-4.4,4.4c-6.6,6.6-17.3,6.6-23.9,0L274,121.3L292.7,102.6z M166.3,200.7c-0.1,0-0.2,0-0.3,0
			c0,0,0,0-0.1,0l-9.3-9.3c-26.9-26.9-26.9-70.7,0-97.6l60.6-60.6c8.6-8.6,19.9-13.1,31.5-13.1c3.8,0,7.5,0.5,11.3,1.5
			c3.4,13.6-0.5,27.9-10.5,37.9l-25.4,25.4c-3.9,3.9-3.9,10.2,0,14.1c2,2,4.5,2.9,7.1,2.9s5.1-1,7.1-2.9l25.4-25.4
			c10.6-10.6,16.6-24.4,17.4-38.7c3.8,4.6,6.6,10.1,8,16.2c3.2,13.6-0.7,27.6-10.6,37.4L166.3,200.7z M189.6,267.2
			c-7.6-5.2-12.7-14.6-13.6-25.4v-22.6l83.9-83.9l59.4,59.4c4.8,4.8,10.6,8,16.7,9.6c0,0.2,0,0.4,0,0.7v36.8
			c-0.9,10.6-6.2,20.3-13.8,25.4L268.5,298c-0.2,0.1-0.4,0.2-0.5,0.3c-7.5,4.9-16.4,5-23.9,0c-0.2-0.1-0.4-0.2-0.5-0.3L189.6,267.2z
			 M419.9,491.9h-42v0v-45.8c0-20.1-16.4-36.5-36.5-36.5h-46.3c-5.5,0-10,4.5-10,10s4.5,10,10,10h46.3c9.1,0,16.5,7.4,16.5,16.5
			v45.8H154v-45.8c0-9.1,7.4-16.5,16.5-16.5h46.1c5.5,0,10-4.5,10-10s-4.5-10-10-10h-46.1c-20.1,0-36.5,16.4-36.5,36.5v45.8H92
			v-36.5c0-32.9,20.7-62.5,51.6-73.8l67.9-24.8c10.9-4.1,17.9-13.8,17.9-24.7V313l3.8,2.2c7,4.6,14.9,6.8,22.7,6.8
			c7.8,0,15.7-2.3,22.7-6.8l3.8-2.2v19.1c0,10.9,7,20.6,18,24.7l67.9,24.8c30.9,11.3,51.6,40.9,51.6,73.8L419.9,491.9L419.9,491.9z"
			/>
	</g>
</g>
<g>
	<g>
		<path class="st2" d="M32.6,287.9l-7.9-9.9c-6.2-7.8-6.2-18.6,0-26.4l8-10.1c3.4-4.3,2.7-10.6-1.6-14c-4.3-3.4-10.6-2.7-14,1.6
			l-8,10.1c-12,15.1-12,36.2,0,51.2l7.9,9.9c6.2,7.8,6.2,18.6,0,26.4c-3.4,4.3-2.7,10.6,1.6,14c1.8,1.5,4,2.2,6.2,2.2
			c2.9,0,5.9-1.3,7.8-3.8C44.6,324,44.6,302.9,32.6,287.9z"/>
	</g>
</g>
<g>
	<g>
		<path class="st2" d="M104.9,248.2l-7.9-9.9c-6.2-7.8-6.2-18.6,0-26.4l8-10.1c3.4-4.3,2.7-10.6-1.6-14c-4.3-3.4-10.6-2.7-14,1.6
			l-8,10.1c-12,15.1-12,36.2,0,51.2l7.9,9.9c6.2,7.8,6.2,18.6,0,26.4c-3.4,4.3-2.7,10.6,1.6,14c1.8,1.5,4,2.2,6.2,2.2
			c2.9,0,5.9-1.3,7.8-3.8C116.9,284.3,116.9,263.3,104.9,248.2z"/>
	</g>
</g>
<g>
	<g>
		<path class="st2" d="M430.6,287.9l-7.9-9.9c-6.2-7.8-6.2-18.6,0-26.4l8-10.1c3.4-4.3,2.7-10.6-1.6-14c-4.3-3.4-10.6-2.7-14,1.6
			l-8,10.1c-12,15.1-12,36.2,0,51.2l7.9,9.9c6.2,7.8,6.2,18.6,0,26.4c-3.4,4.3-2.7,10.6,1.6,14c1.8,1.5,4,2.2,6.2,2.2
			c2.9,0,5.9-1.3,7.8-3.8C442.7,324,442.6,302.9,430.6,287.9z"/>
	</g>
</g>
<g>
	<g>
		<path class="st2" d="M503,248.2l-7.9-9.9c-6.2-7.8-6.2-18.6,0-26.4l8-10.1c3.4-4.3,2.7-10.6-1.6-14c-4.3-3.4-10.6-2.7-14,1.6
			l-8,10.1c-12,15.1-12,36.2,0,51.2l7.9,9.9c6.2,7.8,6.2,18.6,0,26.4c-3.4,4.3-2.7,10.6,1.6,14c1.8,1.5,4,2.2,6.2,2.2
			c2.9,0,5.9-1.3,7.8-3.8C515,284.3,515,263.3,503,248.2z"/>
	</g>
</g>
</svg>
