<?xml version="1.0" encoding="utf-8"?>
<!-- Generator: Adobe Illustrator 26.3.1, SVG Export Plug-In . SVG Version: 6.00 Build 0)  -->
<!DOCTYPE svg PUBLIC "-//W3C//DTD SVG 1.1//EN" "http://www.w3.org/Graphics/SVG/1.1/DTD/svg11.dtd" [
	<!ENTITY ns_extend "http://ns.adobe.com/Extensibility/1.0/">
	<!ENTITY ns_ai "http://ns.adobe.com/AdobeIllustrator/10.0/">
	<!ENTITY ns_graphs "http://ns.adobe.com/Graphs/1.0/">
	<!ENTITY ns_vars "http://ns.adobe.com/Variables/1.0/">
	<!ENTITY ns_imrep "http://ns.adobe.com/ImageReplacement/1.0/">
	<!ENTITY ns_sfw "http://ns.adobe.com/SaveForWeb/1.0/">
	<!ENTITY ns_custom "http://ns.adobe.com/GenericCustomNamespace/1.0/">
	<!ENTITY ns_adobe_xpath "http://ns.adobe.com/XPath/1.0/">
]>
<svg version="1.1" id="Layer_1" xmlns:x="&ns_extend;" xmlns:i="&ns_ai;" xmlns:graph="&ns_graphs;"
	 xmlns="http://www.w3.org/2000/svg" xmlns:xlink="http://www.w3.org/1999/xlink" x="0px" y="0px" viewBox="0 0 512 512"
	 style="enable-background:new 0 0 512 512;" xml:space="preserve">
<style type="text/css">
	.st0{fill:#0F2132;}
	.st1{fill:#E65400;}
	.st2{fill:#FFFFFF;}
</style>
<metadata>
	<sfw  xmlns="&ns_sfw;">
		<slices></slices>
		<sliceSourceBounds  bottomLeftOrigin="true" height="512.8" width="1174.2" x="0" y="-0.4"></sliceSourceBounds>
	</sfw>
</metadata>
<rect x="661.4" y="-0.4" class="st0" width="512.8" height="512.8"/>
<path class="st0" d="M336.1,383.2l-44.2-12.8v-23.5c12-11.1,18.6-24.5,18.6-37.9v-17.8c5.1-4.7,15.3-14.8,19.4-23.9
	c19.6-43-7.1-71.7-8.2-72.9c-3.1-3.2-8.2-3.3-11.4-0.2c-0.2,0.2-0.3,0.3-0.5,0.5c-0.1,0.1-6.7,7.5-12.9,6.2c-4-0.9-8-2.1-11.8-3.5
	c-9.6-3.3-21.6-7.4-41.8-7.4c-46.6,0-61.3,23.1-65.5,42.5c-6.8,31.5,13.6,52,22.2,59V309c0,13.6,6.8,27.2,19.1,38.4v23.1l-44,12.7
	c-17.8,5.2-30.1,21.6-30.1,40.1l0.7,80.7c0,4.4,3.6,7.9,8,7.9h0.1c4.4,0,8-3.7,7.9-8.1c0,0,0,0,0,0l-0.7-80.7
	c0-11.4,7.6-21.5,18.6-24.7l42.6-12.3c4.9,10.2,15.6,22,34.6,22c19,0,28.7-11.6,32.7-21.9l42.1,12.2c11,3.2,18.5,13.3,18.6,24.8
	l0.7,80.7c0,4.4,3.6,7.9,8,7.9h0.1c4.4,0,8-3.7,7.9-8.1c0,0,0,0,0,0l-0.7-80.7C366.1,404.7,353.9,388.4,336.1,383.2L336.1,383.2z
	 M193.5,236c4.3-19.8,21.1-29.9,49.9-29.9c17.5,0,27.3,3.3,36.6,6.6c4.5,1.7,9.2,3,13.9,4.1c6.7,1.3,13.7-0.3,20.4-4.8l0.2-0.2
	c5,8.7,11.3,26.1,0.8,48.9c-1.5,3.3-4.7,7.4-8.1,11.1c-2.3-7.5-5.8-14.1-10.9-16.3c-3.7-1.6-7.9-1.1-11.1,1.3
	c-10.1,7.2-15.7,10.6-31.3,8.4c-8.5-1.1-16.7-4-24.1-8.3c-3.7-2.5-8.7-1.5-11.1,2.2c-0.3,0.5-0.6,1.1-0.8,1.6
	c0,0.1-2.5,6.6-9.4,15.6c-0.2,0.3-0.5,0.6-0.7,0.9C200.9,270.8,189.1,256.5,193.5,236z M216.1,291.5c1.9-1.7,3.6-3.5,5.1-5.5
	c2.9-3.7,5.4-7.6,7.8-11.6c7.3,3.3,14.9,5.5,22.8,6.6c18.7,2.6,28.3-1.4,38.8-8.5c1.8,5.1,3.1,10.3,3.9,15.7V309
	c0,21-26.4,39.1-39.3,39.1c-12.9,0-39.1-18.1-39.1-39.1L216.1,291.5z M256.8,392.3c-15.4,0-20.3-12.4-21.5-16.3
	c0-0.3-0.1-0.6-0.1-0.9v-16.5c7,3.6,14,5.6,20.1,5.6c6.2,0,13.5-2.1,20.7-5.9V376c-0.6,3.1-1.7,6-3.4,8.6
	C269.1,389.8,264,392.3,256.8,392.3L256.8,392.3z"/>
<path class="st0" d="M154.5,304.9c8.4,2.5,14.2,10.2,14.2,18.9l-0.1,38.1c0,4.4,3.6,8,8,8c0,0,0,0,0,0h0c4.4,0,8-3.6,8-8l0.1-38.1
	c0-15.9-10.5-29.8-25.7-34.3l-35.2-10.3l0-17.6c9.9-9.3,15.4-20.5,15.4-31.7l0-14c4.4-4.1,12.5-12.2,15.9-19.6
	c16.6-36.1-5.9-60.4-6.8-61.4c-3-3.2-8-3.4-11.2-0.4c-0.2,0.2-0.4,0.4-0.6,0.6c-1.6,1.8-5.9,5.3-9.2,4.6c-3.2-0.7-6.4-1.7-9.5-2.9
	c-8-2.8-18-6.2-34.8-6.3h-0.3c-30.4,0-50,12.7-55,35.9c-5.7,26,10.5,43.1,18.1,49.5l0,13.6c0,11.4,5.5,22.8,15.6,32.2l0,17.3
	L26,289.1c-15.2,4.4-25.8,18.3-25.9,34.2L0,419.1c0,4.4,3.6,8,8,8h0c4.4,0,8-3.6,8-8l0.1-95.8c0.1-8.8,5.9-16.4,14.3-18.9l33.9-9.7
	c4.4,8.5,13.5,17.8,29.1,17.9h0.1c15.6,0,23.9-9.1,27.7-17.6L154.5,304.9z M73.1,251c-7.3-6.5-11.5-14.3-11.5-21.4l0-13.7
	c1.4-1.3,2.8-2.7,3.9-4.3c2.1-2.7,4.1-5.6,5.9-8.6c5.7,2.5,11.8,4.2,18,5.1c14.8,2.1,23.2-0.9,31.4-6.1c1.1,3.5,1.9,7.2,2.5,10.8
	l0,16.9c0,16.2-21.1,30.7-31,30.6C88,260.4,80.1,257.2,73.1,251L73.1,251z M43.2,169.9c1.3-5.8,5.1-23.3,39.4-23.3h0.3
	c14.2,0,22,2.8,29.6,5.4c3.8,1.4,7.7,2.6,11.6,3.4c5.8,1,11.8-0.2,16.8-3.4c3.8,7.3,7.6,20.5-0.2,37.6c-1.3,2.5-2.9,4.8-4.8,6.9
	c-2.3-6.3-5.2-10.3-9-11.9c-3.5-1.5-7.5-1-10.5,1.2c-8,5.7-12.4,8.3-24.7,6.6c-6.8-0.9-13.3-3.2-19.2-6.7c-3.6-2.5-8.6-1.6-11.1,2.1
	c-0.4,0.5-0.7,1.1-0.9,1.7c-1.9,4.3-4.3,8.3-7.2,11.9C47.8,195.9,39.9,185,43.2,169.9L43.2,169.9z M93.5,296.7L93.5,296.7
	c-11.6,0-15.4-9.2-16.3-12.3c0-0.2,0-0.4-0.1-0.6l0-11.2c4.7,2.3,9.8,3.6,15.1,3.8h0.1c5.4-0.2,10.7-1.5,15.5-3.9l0,12.2
	C107.3,287.4,104.9,296.7,93.5,296.7L93.5,296.7z"/>
<path class="st0" d="M486.3,289.5l-28.4-8.3h21.2c4.4,0,8-3.6,8-8v-67.5c0-37.2-30.2-67.4-67.4-67.4c-37.2,0-67.3,30.2-67.4,67.4
	v67.5c0,4.4,3.6,8,8,8H381l-27.7,7.9c-15.2,4.4-25.8,18.3-25.9,34.2l-0.1,38.5c0,4.4,3.6,8,8,8h0c4.4,0,8-3.6,8-8l0.1-38.5
	c0.1-8.8,5.9-16.4,14.3-18.9l34.9-10c3.1,9.1,11.3,18.2,27.3,18.2c10.9,0,17.3-4.3,20.9-7.8c2.8-2.9,4.9-6.4,6.1-10.2l34.9,10.2
	c8.4,2.5,14.2,10.2,14.2,19l-0.1,95.8c0,4.4,3.6,8,8,8l0,0h0c4.4,0,8-3.6,8-8l0.1-95.8C512,308,501.5,294,486.3,289.5L486.3,289.5z
	 M392.7,235.3V219c0-0.1,0.2-5.8,3.5-9.1c3-2.9,5.4-5.5,7.3-7.9c4.2,5.3,9.4,9.6,15.4,12.8c8.9,4.7,18.3,8.3,28,10.7v9.8
	c0,14.9-12.1,27-27,27h-0.1C404.8,262.3,392.7,250.2,392.7,235.3L392.7,235.3z M368.4,205.8c0.2-28.4,23.3-51.2,51.7-51.1
	c28.1,0.2,50.9,22.9,51.1,51.1v59.5h-20.4c7.8-8,12.1-18.7,12.1-29.9V219c0-4-2.9-7.3-6.8-7.9c-10.3-1.9-20.3-5.5-29.6-10.4
	c-11.7-6.2-14.6-15.9-14.7-16.2c-0.9-3.8-4.4-6.9-8.3-6.6c-3.7,0.1-6.8,2.9-7.2,6.6c-0.5,1.1-2.9,5.7-11.3,13.9
	c-8,8-8.3,19.2-8.3,20.5v16.3c0,11.2,4.3,21.9,12.1,29.9h-20.4L368.4,205.8z M432.4,286.2c-0.1,3.2-1.4,10.5-12.5,10.5
	c-11.2,0-12.6-7.4-12.7-10.7v-9.6c4.1,1.2,8.3,1.9,12.5,1.9h0.1c4.2,0,8.5-0.6,12.5-1.9L432.4,286.2
	C432.4,286.2,432.4,286.2,432.4,286.2L432.4,286.2z"/>
<path class="st1" d="M171,205.8h0.2c4.3,0,7.9-3.4,8-7.8l0.1-4c0-0.1,0-0.1,0-0.2c0-8.8,5.9-16.5,14.3-19l34.7-9.6
	c1.3,3.6,3.3,6.8,6,9.5c5.3,5.4,12.6,8.1,21.7,8.1c15.8,0,24.3-8.6,27.9-17.5l34.6,9.7c6.5,1.9,11.6,7,13.5,13.5
	c1.2,4.2,5.7,6.7,9.9,5.5c4.2-1.2,6.7-5.7,5.5-9.9c-3-10.4-10.5-18.9-20.5-23.1V70.5c-0.1-39.1-31.9-70.6-71-70.5
	c-38.9,0.1-70.3,31.6-70.5,70.5v90.4c-13.3,5.6-22,18.5-22.1,32.9l-0.1,3.9C163.1,202,166.6,205.7,171,205.8L171,205.8z
	 M285.2,101.7c0,16-13,29-29,29h-0.2c-16,0-29-13-29-29V90.9c10.4-2.6,20.4-6.4,29.8-11.4c6.4-3.4,12-8.1,16.4-13.8
	c2.1,2.5,4.8,5.4,8.1,8.7c3.1,3,3.8,8.3,3.9,10V101.7z M268.2,161.3c-2.1,3.8-6.1,5.7-12.2,5.7c-12.2,0-13.6-8.1-13.6-11.5
	c0,0,0-0.1,0-0.1v-10.8c4.4,1.4,9,2.1,13.7,2.1h0.2c4.6,0,9.3-0.7,13.7-2.1v10.8C269.7,157.4,269.2,159.4,268.2,161.3z M256.1,16
	c30.1,0,54.6,24.3,54.7,54.5v86l-25-7v-13.9c9.7-8.5,15.3-20.8,15.3-33.8V84.4c0-1.3-0.2-13.1-8.6-21.3c-9-8.9-11.5-13.8-12-14.9
	c-0.4-3.7-3.5-6.4-7.2-6.6c-3.9-0.3-7.4,2.6-8.3,6.4c-0.1,0.4-3.2,10.8-15.7,17.5c-9.9,5.3-20.4,9-31.4,11.1
	c-3.9,0.6-6.8,3.9-6.8,7.9v17.2c0,12.9,5.6,25.3,15.3,33.8v13.8l-25,6.9V70.5C201.5,40.3,226,16,256.1,16L256.1,16z"/>
<path class="st2" d="M997.9,383.2l-44.2-12.8v-23.5c12-11.1,18.6-24.5,18.6-37.9v-17.8c5.1-4.7,15.3-14.8,19.4-23.9
	c19.6-43-7.1-71.7-8.2-72.9c-3.1-3.2-8.2-3.3-11.4-0.2c-0.2,0.2-0.3,0.3-0.5,0.5c-0.1,0.1-6.7,7.5-12.9,6.2c-4-0.9-8-2.1-11.8-3.5
	c-9.6-3.3-21.6-7.4-41.8-7.4c-46.6,0-61.3,23.1-65.5,42.5c-6.8,31.5,13.6,52,22.2,59V309c0,13.6,6.8,27.2,19.1,38.4v23.1l-44,12.7
	c-17.8,5.2-30.1,21.6-30.1,40.1l0.7,80.7c0,4.4,3.6,7.9,8,7.9h0.1c4.4,0,8-3.7,7.9-8.1c0,0,0,0,0,0l-0.7-80.7
	c0-11.4,7.6-21.5,18.6-24.7l42.6-12.3c4.9,10.2,15.6,22,34.6,22c19,0,28.7-11.6,32.7-21.9l42.1,12.2c11,3.2,18.5,13.3,18.6,24.8
	l0.7,80.7c0,4.4,3.6,7.9,8,7.9h0.1c4.4,0,8-3.7,7.9-8.1c0,0,0,0,0,0l-0.7-80.7C1027.9,404.7,1015.7,388.4,997.9,383.2L997.9,383.2z
	 M855.3,236c4.3-19.8,21.1-29.9,49.9-29.9c17.5,0,27.3,3.3,36.6,6.6c4.5,1.7,9.2,3,13.9,4.1c6.7,1.3,13.7-0.3,20.4-4.8l0.2-0.2
	c5,8.7,11.3,26.1,0.8,48.9c-1.5,3.3-4.7,7.4-8.1,11.1c-2.3-7.5-5.8-14.1-10.9-16.3c-3.7-1.6-7.9-1.1-11.1,1.3
	c-10.1,7.2-15.7,10.6-31.3,8.4c-8.5-1.1-16.7-4-24.1-8.3c-3.7-2.5-8.7-1.5-11.1,2.2c-0.3,0.5-0.6,1.1-0.8,1.6
	c0,0.1-2.5,6.6-9.4,15.6c-0.2,0.3-0.5,0.6-0.7,0.9C862.7,270.8,850.9,256.5,855.3,236z M877.9,291.5c1.9-1.7,3.6-3.5,5.1-5.5
	c2.9-3.7,5.4-7.6,7.8-11.6c7.3,3.3,14.9,5.5,22.8,6.6c18.7,2.6,28.3-1.4,38.8-8.5c1.8,5.1,3.1,10.3,3.9,15.7V309
	c0,21-26.4,39.1-39.3,39.1c-12.9,0-39.1-18.1-39.1-39.1L877.9,291.5z M918.6,392.3c-15.4,0-20.3-12.4-21.5-16.3
	c0-0.3-0.1-0.6-0.1-0.9v-16.5c7,3.6,14,5.6,20.1,5.6c6.2,0,13.5-2.1,20.7-5.9V376c-0.6,3.1-1.7,6-3.4,8.6
	C930.9,389.8,925.8,392.3,918.6,392.3L918.6,392.3z"/>
<path class="st2" d="M816.3,304.9c8.4,2.5,14.2,10.2,14.2,18.9l-0.1,38.1c0,4.4,3.6,8,8,8c0,0,0,0,0,0h0c4.4,0,8-3.6,8-8l0.1-38.1
	c0-15.9-10.5-29.8-25.7-34.3l-35.2-10.3l0-17.6c9.9-9.3,15.4-20.5,15.4-31.7l0-14c4.4-4.1,12.5-12.2,15.9-19.6
	c16.6-36.1-5.9-60.4-6.8-61.4c-3-3.2-8-3.4-11.2-0.4c-0.2,0.2-0.4,0.4-0.6,0.6c-1.6,1.8-5.9,5.3-9.2,4.6c-3.2-0.7-6.4-1.7-9.5-2.9
	c-8-2.8-18-6.2-34.8-6.3h-0.3c-30.4,0-50,12.7-55,35.9c-5.7,26,10.5,43.1,18.1,49.5l0,13.6c0,11.4,5.5,22.8,15.6,32.2l0,17.3
	l-35.2,10.1c-15.2,4.4-25.8,18.3-25.9,34.2l-0.1,95.8c0,4.4,3.6,8,8,8h0c4.4,0,8-3.6,8-8l0.1-95.8c0.1-8.8,5.9-16.4,14.3-18.9
	l33.9-9.7c4.4,8.5,13.5,17.8,29.1,17.9h0.1c15.6,0,23.9-9.1,27.7-17.6L816.3,304.9z M734.9,251c-7.3-6.5-11.5-14.3-11.5-21.4l0-13.7
	c1.4-1.3,2.8-2.7,3.9-4.3c2.1-2.7,4.1-5.6,5.9-8.6c5.7,2.5,11.8,4.2,18,5.1c14.8,2.1,23.2-0.9,31.4-6.1c1.1,3.5,1.9,7.2,2.5,10.8
	l0,16.9c0,16.2-21.1,30.7-31,30.6C749.8,260.4,741.9,257.2,734.9,251L734.9,251z M705,169.9c1.3-5.8,5.1-23.3,39.4-23.3h0.3
	c14.2,0,22,2.8,29.6,5.4c3.8,1.4,7.7,2.6,11.6,3.4c5.8,1,11.8-0.2,16.8-3.4c3.8,7.3,7.6,20.5-0.2,37.6c-1.3,2.5-2.9,4.8-4.8,6.9
	c-2.3-6.3-5.2-10.3-9-11.9c-3.5-1.5-7.5-1-10.5,1.2c-8,5.7-12.5,8.3-24.7,6.6c-6.8-0.9-13.3-3.2-19.2-6.7c-3.6-2.5-8.6-1.6-11.1,2.1
	c-0.4,0.5-0.7,1.1-0.9,1.7c-1.9,4.3-4.3,8.3-7.2,11.9C709.6,195.9,701.7,185,705,169.9L705,169.9z M755.3,296.7L755.3,296.7
	c-11.6,0-15.4-9.2-16.3-12.3c0-0.2,0-0.4-0.1-0.6l0-11.2c4.7,2.3,9.8,3.6,15.1,3.8h0.1c5.4-0.2,10.7-1.5,15.5-3.9l0,12.2
	C769.1,287.4,766.7,296.7,755.3,296.7L755.3,296.7z"/>
<path class="st2" d="M1148.1,289.5l-28.4-8.3h21.2c4.4,0,8-3.6,8-8v-67.5c0-37.2-30.2-67.4-67.4-67.4c-37.2,0-67.3,30.2-67.4,67.4
	v67.5c0,4.4,3.6,8,8,8h20.6l-27.7,7.9c-15.2,4.4-25.8,18.3-25.9,34.2l-0.1,38.5c0,4.4,3.6,8,8,8h0c4.4,0,8-3.6,8-8l0.1-38.5
	c0.1-8.8,5.9-16.4,14.3-18.9l34.9-10c3.1,9.1,11.3,18.2,27.3,18.2c10.9,0,17.3-4.3,20.9-7.8c2.8-2.9,4.9-6.4,6.1-10.2l34.9,10.2
	c8.4,2.5,14.2,10.2,14.2,19l-0.1,95.8c0,4.4,3.6,8,8,8l0,0h0c4.4,0,8-3.6,8-8l0.1-95.8C1173.8,308,1163.3,294,1148.1,289.5
	L1148.1,289.5z M1054.5,235.3V219c0-0.1,0.2-5.8,3.5-9.1c3-2.9,5.4-5.5,7.3-7.9c4.2,5.3,9.4,9.6,15.4,12.8c8.9,4.7,18.3,8.3,28,10.7
	v9.8c0,14.9-12.1,27-27,27h-0.1C1066.6,262.3,1054.5,250.2,1054.5,235.3L1054.5,235.3z M1030.2,205.8c0.2-28.4,23.3-51.2,51.7-51.1
	c28.1,0.2,50.9,22.9,51.1,51.1v59.5h-20.4c7.8-8,12.1-18.7,12.1-29.9V219c0-4-2.9-7.3-6.8-7.9c-10.3-1.9-20.3-5.5-29.6-10.4
	c-11.7-6.2-14.6-15.9-14.7-16.2c-0.9-3.8-4.4-6.9-8.3-6.6c-3.7,0.1-6.8,2.9-7.2,6.6c-0.5,1.1-2.9,5.7-11.3,13.9
	c-8,8-8.3,19.2-8.3,20.5v16.3c0,11.2,4.3,21.9,12.1,29.9h-20.4V205.8z M1094.2,286.2c-0.1,3.2-1.4,10.5-12.5,10.5
	c-11.2,0-12.6-7.4-12.7-10.7v-9.6c4.1,1.2,8.3,1.9,12.5,1.9h0.1c4.2,0,8.5-0.6,12.5-1.9L1094.2,286.2
	C1094.2,286.2,1094.2,286.2,1094.2,286.2L1094.2,286.2z"/>
<path class="st1" d="M832.8,205.8h0.2c4.3,0,7.9-3.4,8-7.8l0.1-4c0-0.1,0-0.1,0-0.2c0-8.8,5.9-16.5,14.3-19l34.7-9.6
	c1.3,3.6,3.3,6.8,6,9.5c5.3,5.4,12.6,8.1,21.7,8.1c15.8,0,24.3-8.6,27.9-17.5l34.6,9.7c6.5,1.9,11.6,7,13.5,13.5
	c1.2,4.2,5.7,6.7,9.9,5.5s6.7-5.7,5.5-9.9c-3-10.4-10.5-18.9-20.5-23.1V70.5c-0.1-39.1-31.9-70.6-71-70.5
	c-38.9,0.1-70.3,31.6-70.5,70.5v90.4c-13.3,5.6-22,18.5-22.1,32.9l-0.1,3.9C824.9,202,828.4,205.7,832.8,205.8L832.8,205.8z
	 M947,101.7c0,16-13,29-29,29h-0.2c-16,0-29-13-29-29V90.9c10.4-2.6,20.4-6.4,29.8-11.4c6.4-3.4,12-8.1,16.4-13.8
	c2.1,2.5,4.8,5.4,8.1,8.7c3.1,3,3.8,8.3,3.9,10V101.7z M930,161.3c-2.1,3.8-6.1,5.7-12.2,5.7c-12.2,0-13.6-8.1-13.6-11.5
	c0,0,0-0.1,0-0.1v-10.8c4.4,1.4,9,2.1,13.7,2.1h0.2c4.6,0,9.3-0.7,13.7-2.1v10.8C931.5,157.4,931,159.4,930,161.3z M917.9,16
	c30.1,0,54.6,24.3,54.7,54.5v86l-25-7v-13.9c9.7-8.5,15.3-20.8,15.3-33.8V84.4c0-1.3-0.2-13.1-8.6-21.3c-9-8.9-11.5-13.8-12-14.9
	c-0.4-3.7-3.5-6.4-7.2-6.6c-3.9-0.3-7.4,2.6-8.3,6.4c-0.1,0.4-3.2,10.8-15.7,17.5c-9.9,5.3-20.4,9-31.4,11.1
	c-3.9,0.6-6.8,3.9-6.8,7.9v17.2c0,12.9,5.6,25.3,15.3,33.8v13.8l-25,6.9V70.5C863.3,40.3,887.8,16,917.9,16L917.9,16z"/>
</svg>
