<?xml version="1.0" encoding="utf-8"?>
<!-- Generator: Adobe Illustrator 26.0.3, SVG Export Plug-In . SVG Version: 6.00 Build 0)  -->
<svg version="1.1" id="Line_cutting_stroke_Ex" xmlns="http://www.w3.org/2000/svg" xmlns:xlink="http://www.w3.org/1999/xlink"
	 x="0px" y="0px" viewBox="0 0 512 512" style="enable-background:new 0 0 512 512;" xml:space="preserve">
<style type="text/css">
	.st0{fill:#0F2132;}
	.st1{fill:#E65400;}
	.st2{fill:#FFFFFF;}
</style>
<rect x="741.4" class="st0" width="512" height="512"/>
<path class="st1" d="M1232.7,476.4l-39.8-82l-7.1-21.4c-1.4-4.2-5.9-6.5-10.1-5.1l0,0c-4.2,1.4-6.5,5.9-5.1,10.1l7.3,21.9
	c0.1,0.3,0.2,0.7,0.4,1l40.1,82.5c1.8,3.7,6,5.4,9.8,4.1l0,0C1232.7,485.9,1234.8,480.7,1232.7,476.4z"/>
<path class="st1" d="M1164.7,487.5c4.5-1.1,7.2-5.8,5.8-10.2l-21.2-66.3c-0.6-2-2-3.7-3.9-4.7l-32.7-17.2l-38.8-54.1
	c3.5-1.8,7.6-1.8,11.1,0.1l27,14.2c3.9,2.1,8.9,0.8,11-3.1c1.1-2.1,1.3-4.5,0.5-6.7l-36.5-95.7c0-0.1-0.1-0.3-0.2-0.4
	c-2.3-5.2-0.7-11.2,3.9-14.6l48.4,64.8c0,0.1,0.1,0.1,0.1,0.2c4,5,6.9,10.7,8.8,16.8c0,0.1,0,0.1,0.1,0.2l12,36.1
	c1.4,4.2,5.9,6.5,10.1,5.1l0,0c4.2-1.4,6.5-5.9,5.1-10.1l-12-36c-2.5-7.9-6.3-15.3-11.5-21.8l-52.1-69.8c-2-2.7-5.5-3.9-8.8-2.9
	l-1.4,0.4c-14.8,4.6-23,20.2-18.5,35c0.3,1,0.7,1.9,1.1,2.9l28.9,75.7l-8.5-4.5c-10.7-5.6-23.7-3.8-32.4,4.5l-2.5,2.4
	c-2.9,2.8-3.3,7.2-1,10.4l44.2,61.7c0.7,1,1.7,1.8,2.8,2.4L1135,419l20.2,63.2C1156.5,486.2,1160.6,488.5,1164.7,487.5L1164.7,487.5
	z"/>
<path class="st1" d="M839.7,482.2l20.2-63.2l31.5-16.5c1.1-0.6,2.1-1.4,2.8-2.4l44.2-61.7c2.3-3.2,1.9-7.7-1-10.4l-2.5-2.4
	c-8.7-8.3-21.8-10.2-32.4-4.5l-8.5,4.5l28.9-75.7c6.1-14.2-0.4-30.7-14.6-36.8c-0.9-0.4-1.9-0.8-2.9-1.1l-1.4-0.4
	c-3.2-1-6.7,0.1-8.8,2.9L843,284.1c-5.1,6.5-9,13.9-11.5,21.8L802,394.4l-39.8,82.1c-2.1,4.3,0,9.5,4.6,11l0,0
	c3.8,1.3,8.1-0.4,9.8-4.1l40.1-82.6c0.2-0.3,0.3-0.6,0.4-1l29.7-89.2c0-0.1,0-0.1,0.1-0.2c1.9-6.1,4.9-11.8,8.8-16.8
	c0-0.1,0.1-0.1,0.1-0.2l48.4-64.8c4.5,3.3,6.2,9.4,3.9,14.6c-0.1,0.1-0.1,0.3-0.2,0.4l-36.5,95.7c-1.6,4.2,0.6,8.9,4.9,10.4
	c2.2,0.7,4.6,0.4,6.6-0.6l27-14.3c3.5-1.8,7.6-1.9,11.1-0.1l-38.8,54.1l-32.7,17.2c-1.9,1-3.3,2.6-3.9,4.7l-21.2,66.3
	c-1.4,4.4,1.3,9.1,5.8,10.2l0,0C834.3,488.5,838.4,486.2,839.7,482.2z"/>
<g>
	<path class="st2" d="M1137.6,63.2l18.8,10.3l10.3,18.8c2.1,3.9,7,5.3,10.9,3.2c1.3-0.7,2.4-1.8,3.2-3.2l10.3-18.8l18.8-10.3
		c3.9-2.1,5.3-7,3.2-10.9c-0.7-1.3-1.8-2.4-3.2-3.2l-18.8-10.3l-10.3-18.8c-2.1-3.9-7-5.3-10.9-3.2c-1.3,0.7-2.4,1.8-3.2,3.2
		l-10.3,18.8l-18.8,10.3c-3.9,2.1-5.3,7-3.2,10.9C1135.2,61.4,1136.3,62.5,1137.6,63.2L1137.6,63.2z M1166.1,51.8
		c1.3-0.7,2.4-1.8,3.2-3.2l4.4-8l4.4,8c0.7,1.3,1.8,2.4,3.2,3.2l8,4.4l-8,4.4c-1.3,0.7-2.4,1.8-3.2,3.2l-4.4,8l-4.4-8
		c-0.7-1.3-1.8-2.4-3.2-3.2l-8-4.4L1166.1,51.8z"/>
	<path class="st2" d="M761.2,207.2l18.8,10.3l10.3,18.8c2.1,3.9,7,5.3,10.9,3.2c1.3-0.7,2.4-1.8,3.2-3.2l10.3-18.8l18.8-10.3
		c3.9-2.1,5.3-7,3.2-10.9c-0.7-1.3-1.8-2.4-3.2-3.2l-18.8-10.3l-10.3-18.8c-2.1-3.9-7-5.3-10.9-3.2c-1.3,0.7-2.4,1.8-3.2,3.2
		L780,182.9l-18.8,10.3c-3.9,2.1-5.3,7-3.2,10.9C758.7,205.4,759.8,206.5,761.2,207.2L761.2,207.2z M789.7,195.8
		c1.3-0.7,2.4-1.8,3.2-3.2l4.4-8l4.4,8c0.7,1.3,1.8,2.4,3.2,3.2l8,4.4l-8,4.4c-1.3,0.7-2.4,1.8-3.2,3.2l-4.4,8l-4.4-8
		c-0.7-1.3-1.8-2.4-3.2-3.2l-8-4.4L789.7,195.8z"/>
	<path class="st2" d="M1045.7,418.1c0.8,2.9,3.2,5.1,6.1,5.7l64.2,12.8c4.3,0.9,8.5-1.9,9.4-6.3l0,0c0.9-4.3-1.9-8.5-6.3-9.4
		l-59.3-11.9l-10.7-39c0.4-0.4,0.5-0.5,1-1c0.5,0.1,1.1,0.3,1.7,0.4c5,1,9.7-2.7,9.7-7.8v0c0-3.8-2.6-7.1-6.3-7.8
		c-14.8-3.1-25.7-16.9-25.7-33.9c-0.1-9.3,3.6-18.3,10.1-24.9c2.8-2.8,3.1-7.2,0.8-10.3c-4.4-6.1-6.7-13.3-6.7-20.8
		c0-13.7,7.7-26.1,19.7-31.6c2.9-1.4,5-4.3,4.9-7.5c0-1.7-0.6-3.4-1.6-4.7c-2.1-2.8-3.3-6.2-3.2-9.7c0-10.1,9.3-18,19.7-15.6
		c1.7,0.4,3.3,1.2,4.8,2.1c2.6,1.5,5.8,1.5,8.3-0.1c5.1-3.2,10.9-4.9,16.9-4.9c18.1,0,32.9,15.5,32.9,34.5c0,4-0.7,7.9-1.9,11.7
		c-1.2,3.6,0.3,7.6,3.7,9.5v0c4.4,2.5,9.9,0.3,11.5-4.4c5.1-15,3.1-31.7-5.8-45.2c21.2-37,11.1-84.1-23.3-109.1l-2.3-1.7
		c-5.4-3.9-10.9-7.6-16.6-10.9c-1.5-16.5-12.7-31.5-31.9-42.8C1050,22.2,1024.5,16,997.4,16c-27,0-52.6,6.2-71.9,17.5
		c-19.2,11.2-30.4,26.3-31.9,42.8c-5.7,3.4-11.2,7-16.6,10.9l-2.3,1.7c-7.6,5.5-14.1,12.2-19.4,19.8c-2.7,3.9-1.4,9.2,2.8,11.5l0,0
		c3.6,2,8.1,0.9,10.4-2.4c4.3-6.2,9.6-11.6,15.7-16l2.3-1.7c66.2-48.1,155.9-48.1,222.1,0l2.3,1.7c26.4,19.2,35.3,54.5,21.2,83.9
		c-6.5-4.9-14.2-8.1-22.3-9.2c-6.5-20-17-36.1-31.4-47.9c-14.6-12-33.4-19.7-55.8-22.8c-4.5-0.6-8.7,2.7-9.1,7.2v0
		c-0.4,4.2,2.7,8,6.9,8.6c37,5.1,60.9,23.4,72.7,55.6c-3.8,0.8-7.6,2.2-11.1,3.9c-16.3-6.9-35.1,0.7-42,17
		c-3.2,7.6-3.4,16.1-0.4,23.8c-21.4,15.1-28,43.8-15.6,66.8c-6.9,9-10.6,20-10.5,31.3c0,17.5,8,32.6,20.5,41.6
		c-12.9,9.3-25.6,14.4-36.5,14.4c-10.9,0-23.6-5-36.5-14.4c12.5-9,20.5-24.2,20.5-41.6c0.1-11.3-3.6-22.3-10.5-31.3
		c12.5-23,5.8-51.7-15.6-66.8c6.3-16.5-2-35-18.5-41.3c-7.7-2.9-16.3-2.8-23.9,0.4c-3.5-1.8-7.2-3.1-11.1-3.9
		c6.2-16.9,16-30.2,29.1-39.5c14.9-10.6,34.7-16.5,58.8-17.5c4.3-0.2,7.7-3.7,7.7-8v0c0-4.5-3.8-8.2-8.3-8c-27.3,1.1-50,8-67.4,20.4
		c-17,12.1-29.3,29.5-36.5,51.8c-8.1,1.1-15.8,4.3-22.3,9.2c-6.1-12.7-8-26.8-5.7-40.5c0.7-4-1.8-7.9-5.7-9h0
		c-4.6-1.3-9.3,1.7-10.1,6.3c-3.2,19,0.2,38.7,9.9,55.6c-10.7,16.2-11.4,37-1.9,53.9l13.9-7.9c-3-5.4-4.6-11.4-4.6-17.6
		c0-19,14.8-34.5,32.9-34.5c6,0,11.8,1.7,16.9,4.9c2.6,1.6,5.9,1.6,8.5,0c7.5-4.7,17.4-2.3,22,5.2c3.5,5.6,3.2,12.8-0.8,18.1
		c-2.7,3.5-2,8.5,1.5,11.2c0.5,0.4,1,0.7,1.5,0.9c12.1,5.5,19.9,17.9,19.9,31.7c0,7.5-2.3,14.8-6.7,20.8c-2.3,3.2-2,7.5,0.8,10.3
		c6.5,6.6,10.2,15.6,10.1,24.9c0,17-10.9,30.8-25.7,33.9c-3.7,0.8-6.3,4-6.3,7.8v0c0,5.1,4.7,8.9,9.7,7.8c0.6-0.1,1.1-0.2,1.7-0.4
		c0.4,0.4,0.5,0.5,1,1l-10.7,39L875.7,421c-4.3,0.9-7.1,5.1-6.3,9.4v0c0.9,4.3,5.1,7.1,9.4,6.3l64.2-12.8c3-0.6,5.3-2.8,6.1-5.7
		l10.5-38.1c13,7.9,25.8,12,37.8,12c12,0,24.8-4.1,37.8-12L1045.7,418.1z M997.4,48c-29-0.1-57.6,6.1-84,18c11.3-19.4,45.2-34,84-34
		c38.8,0,72.7,14.5,84,34C1055,54.1,1026.4,47.9,997.4,48z"/>
</g>
<path class="st1" d="M491.3,476.4l-39.8-82l-7.1-21.4c-1.4-4.2-5.9-6.5-10.1-5.1l0,0c-4.2,1.4-6.5,5.9-5.1,10.1l7.3,21.9
	c0.1,0.3,0.2,0.7,0.4,1l40.1,82.5c1.8,3.7,6,5.4,9.8,4.1l0,0C491.2,485.9,493.4,480.7,491.3,476.4z"/>
<path class="st1" d="M423.2,487.5c4.5-1.1,7.2-5.8,5.8-10.2L407.8,411c-0.6-2-2-3.7-3.9-4.7l-32.7-17.2l-38.8-54.1
	c3.5-1.8,7.6-1.8,11.1,0.1l27,14.2c3.9,2.1,8.9,0.8,11-3.1c1.1-2.1,1.3-4.5,0.5-6.7l-36.5-95.7c0-0.1-0.1-0.3-0.2-0.4
	c-2.3-5.2-0.7-11.2,3.9-14.6l48.4,64.8c0,0.1,0.1,0.1,0.1,0.2c4,5,6.9,10.7,8.8,16.8c0,0.1,0,0.1,0.1,0.2l12,36.1
	c1.4,4.2,5.9,6.5,10.1,5.1h0c4.2-1.4,6.5-5.9,5.1-10.1l-12-36c-2.5-7.9-6.3-15.3-11.5-21.8l-52.1-69.8c-2-2.7-5.5-3.9-8.8-2.9
	l-1.4,0.4c-14.8,4.6-23,20.2-18.5,35c0.3,1,0.7,1.9,1.1,2.9l28.9,75.7l-8.5-4.5c-10.7-5.6-23.7-3.8-32.4,4.5l-2.5,2.4
	c-2.9,2.8-3.3,7.2-1,10.4l44.2,61.7c0.7,1,1.7,1.8,2.8,2.4l31.5,16.5l20.2,63.2C415,486.2,419.1,488.5,423.2,487.5L423.2,487.5z"/>
<path class="st1" d="M98.2,482.2l20.2-63.2l31.5-16.5c1.1-0.6,2.1-1.4,2.8-2.4l44.2-61.7c2.3-3.2,1.9-7.7-1-10.4l-2.5-2.4
	c-8.7-8.3-21.8-10.2-32.4-4.5l-8.5,4.5l28.9-75.7c6.1-14.2-0.4-30.7-14.6-36.8c-0.9-0.4-1.9-0.8-2.9-1.1l-1.4-0.4
	c-3.2-1-6.7,0.1-8.8,2.9l-52.1,69.8c-5.1,6.5-9,13.9-11.4,21.8l-29.5,88.6l-39.8,82.1c-2.1,4.3,0,9.5,4.6,11h0
	c3.8,1.3,8.1-0.4,9.8-4.1L75.2,401c0.2-0.3,0.3-0.6,0.4-1l29.7-89.2c0-0.1,0-0.1,0.1-0.2c1.9-6.1,4.9-11.8,8.8-16.8
	c0-0.1,0.1-0.1,0.1-0.2l48.4-64.8c4.5,3.3,6.2,9.4,3.9,14.6c-0.1,0.1-0.1,0.3-0.2,0.4l-36.5,95.7c-1.6,4.2,0.6,8.9,4.9,10.4
	c2.2,0.7,4.6,0.4,6.6-0.6l27-14.3c3.5-1.8,7.6-1.9,11.1-0.1l-38.8,54.1l-32.7,17.2c-1.9,1-3.3,2.6-3.9,4.7L83,477.3
	c-1.4,4.4,1.3,9.1,5.8,10.2l0,0C92.9,488.5,97,486.2,98.2,482.2z"/>
<g>
	<path class="st0" d="M396.2,63.2l18.8,10.3l10.3,18.8c2.1,3.9,7,5.3,10.9,3.2c1.3-0.7,2.4-1.8,3.2-3.2l10.3-18.8l18.8-10.3
		c3.9-2.1,5.3-7,3.2-10.9c-0.7-1.3-1.8-2.4-3.2-3.2l-18.8-10.3l-10.3-18.8c-2.1-3.9-7-5.3-10.9-3.2c-1.3,0.7-2.4,1.8-3.2,3.2
		l-10.3,18.8l-18.8,10.3c-3.9,2.1-5.3,7-3.2,10.9C393.7,61.4,394.8,62.5,396.2,63.2L396.2,63.2z M424.7,51.8
		c1.3-0.7,2.4-1.8,3.2-3.2l4.4-8l4.4,8c0.7,1.3,1.8,2.4,3.2,3.2l8,4.4l-8,4.4c-1.3,0.7-2.4,1.8-3.2,3.2l-4.4,8l-4.4-8
		c-0.7-1.3-1.8-2.4-3.2-3.2l-8-4.4L424.7,51.8z"/>
	<path class="st0" d="M19.7,207.2l18.8,10.3l10.3,18.8c2.1,3.9,7,5.3,10.9,3.2c1.3-0.7,2.4-1.8,3.2-3.2l10.3-18.8l18.8-10.3
		c3.9-2.1,5.3-7,3.2-10.9c-0.7-1.3-1.8-2.4-3.2-3.2l-18.8-10.3l-10.3-18.8c-2.1-3.9-7-5.3-10.9-3.2c-1.3,0.7-2.4,1.8-3.2,3.2
		l-10.3,18.8l-18.8,10.3c-3.9,2.1-5.3,7-3.2,10.9C17.3,205.4,18.4,206.5,19.7,207.2L19.7,207.2z M48.2,195.8
		c1.3-0.7,2.4-1.8,3.2-3.2l4.4-8l4.4,8c0.7,1.3,1.8,2.4,3.2,3.2l8,4.4l-8,4.4c-1.3,0.7-2.4,1.8-3.2,3.2l-4.4,8l-4.4-8
		c-0.7-1.3-1.8-2.4-3.2-3.2l-8-4.4L48.2,195.8z"/>
	<path class="st0" d="M304.3,418.1c0.8,2.9,3.2,5.1,6.1,5.7l64.2,12.8c4.3,0.9,8.5-1.9,9.4-6.3l0,0c0.9-4.3-1.9-8.5-6.3-9.4
		l-59.3-11.9l-10.7-39c0.4-0.4,0.5-0.5,1-1c0.5,0.1,1.1,0.3,1.7,0.4c5,1,9.7-2.7,9.7-7.8v0c0-3.8-2.6-7.1-6.3-7.8
		C298.9,350.8,288,337,288,320c-0.1-9.3,3.6-18.3,10.1-24.9c2.8-2.8,3.1-7.2,0.8-10.3c-4.4-6.1-6.7-13.3-6.7-20.8
		c0-13.7,7.7-26.1,19.7-31.6c2.9-1.4,5-4.3,4.9-7.5c0-1.7-0.6-3.4-1.6-4.7c-2.1-2.8-3.3-6.2-3.2-9.7c0-10.1,9.3-18,19.7-15.6
		c1.7,0.4,3.3,1.2,4.8,2.1c2.6,1.5,5.8,1.5,8.3-0.1c5.1-3.2,10.9-4.9,16.9-4.9c18.1,0,32.9,15.5,32.9,34.5c0,4-0.7,7.9-1.9,11.7
		c-1.2,3.6,0.3,7.6,3.7,9.5v0c4.4,2.5,9.9,0.3,11.5-4.4c5.1-15,3.1-31.7-5.8-45.2c21.2-37,11.1-84.1-23.3-109.1l-2.3-1.7
		c-5.4-3.9-10.9-7.6-16.6-10.9c-1.5-16.5-12.7-31.5-31.9-42.8C308.6,22.2,283,16,256,16s-52.6,6.2-71.9,17.5
		c-19.2,11.2-30.4,26.3-31.9,42.8c-5.7,3.4-11.2,7-16.6,10.9l-2.3,1.7c-7.6,5.5-14.1,12.2-19.4,19.8c-2.7,3.9-1.4,9.2,2.8,11.5l0,0
		c3.6,2,8.1,0.9,10.4-2.4c4.3-6.2,9.6-11.6,15.7-16l2.3-1.7c66.2-48.1,155.9-48.1,222.1,0l2.3,1.7c26.4,19.2,35.3,54.5,21.2,83.9
		c-6.5-4.9-14.2-8.1-22.3-9.2c-6.5-20-17-36.1-31.4-47.9c-14.6-12-33.4-19.7-55.8-22.8c-4.5-0.6-8.7,2.7-9.1,7.2v0
		c-0.4,4.2,2.7,8,6.9,8.6c37,5.1,60.9,23.4,72.7,55.6c-3.8,0.8-7.6,2.2-11.1,3.9c-16.3-6.9-35.1,0.7-42,17
		c-3.2,7.6-3.4,16.1-0.4,23.8c-21.4,15.1-28,43.8-15.6,66.8c-6.9,9-10.6,20-10.5,31.3c0,17.5,8,32.6,20.5,41.6
		C279.6,371,266.9,376,256,376s-23.6-5-36.5-14.4c12.5-9,20.5-24.2,20.5-41.6c0.1-11.3-3.6-22.3-10.5-31.3
		c12.5-23,5.8-51.7-15.6-66.8c6.3-16.5-2-35-18.5-41.3c-7.7-2.9-16.3-2.8-23.9,0.4c-3.5-1.8-7.2-3.1-11.1-3.9
		c6.2-16.9,16-30.2,29.1-39.5c14.9-10.6,34.7-16.5,58.8-17.5c4.3-0.2,7.7-3.7,7.7-8v0c0-4.5-3.8-8.2-8.3-8c-27.3,1.1-50,8-67.4,20.4
		c-17,12.1-29.3,29.5-36.5,51.8c-8.1,1.1-15.8,4.3-22.3,9.2c-6.1-12.7-8-26.8-5.7-40.5c0.7-4-1.8-7.9-5.7-9h0
		c-4.6-1.3-9.3,1.7-10.1,6.3c-3.2,19,0.2,38.7,9.9,55.6c-10.7,16.2-11.4,37-1.9,53.9l13.9-7.9c-3-5.4-4.6-11.4-4.6-17.6
		c0-19,14.8-34.5,32.9-34.5c6,0,11.8,1.7,16.9,4.9c2.6,1.6,5.9,1.6,8.5,0c7.5-4.7,17.4-2.3,22,5.2c3.5,5.6,3.2,12.8-0.8,18.1
		c-2.7,3.5-2,8.5,1.5,11.2c0.5,0.4,1,0.7,1.5,0.9c12.1,5.5,19.9,17.9,19.9,31.7c0,7.5-2.3,14.8-6.7,20.8c-2.3,3.2-2,7.5,0.8,10.3
		c6.5,6.6,10.2,15.6,10.1,24.9c0,17-10.9,30.8-25.7,33.9c-3.7,0.8-6.3,4-6.3,7.8v0c0,5.1,4.7,8.9,9.7,7.8c0.6-0.1,1.1-0.2,1.7-0.4
		c0.4,0.4,0.5,0.5,1,1l-10.7,39L134.3,421c-4.3,0.9-7.1,5.1-6.3,9.4l0,0c0.9,4.3,5.1,7.1,9.4,6.3l64.2-12.8c3-0.6,5.3-2.8,6.1-5.7
		l10.5-38.1c13,7.9,25.8,12,37.8,12c12,0,24.8-4.1,37.8-12L304.3,418.1z M256,48c-29-0.1-57.6,6.1-84,18c11.3-19.4,45.2-34,84-34
		s72.7,14.5,84,34C313.6,54.1,285,47.9,256,48z"/>
</g>
</svg>
