<?xml version="1.0" encoding="utf-8"?>
<!-- Generator: Adobe Illustrator 26.2.1, SVG Export Plug-In . SVG Version: 6.00 Build 0)  -->
<svg version="1.1" id="Layer_1" xmlns="http://www.w3.org/2000/svg" xmlns:xlink="http://www.w3.org/1999/xlink" x="0px" y="0px"
	 viewBox="0 0 700 700" style="enable-background:new 0 0 700 700;" xml:space="preserve">
<style type="text/css">
	.st0{fill:#0F2132;}
	.st1{fill:#E4540E;}
	.st2{fill:#FFFFFF;}
</style>
<rect x="856.9" y="-3" class="st0" width="706.1" height="706.1"/>
<path class="st1" d="M1211.8,306.2c22.8,6,52.8,32.3,74.8,65l-32.1-12.8c-6.2-2.5-13.2,0.5-15.6,6.7c-2.5,6.2,0.5,13.2,6.7,15.6
	l39.5,15.8c9.2,3.7,19.5,3.2,28.4-1.2l0,0c13.6-6.8,21.2-21.7,18.7-36.7l-7.3-43.8c-1.1-6.6-7.3-11-13.8-9.9l0,0
	c-6.6,1.1-11,7.3-9.9,13.8l6.9,41.3c-23.7-36.2-58.3-68.9-90.3-77.2c-7.6-2-15,3.8-15,11.7C1202.7,300.1,1206.4,304.8,1211.8,306.2z
	"/>
<path class="st2" d="M1387.9,276.2L1387.9,276.2c-30.1-30.1-75.2-39.2-117.8-24.6c-6.7,2.3-10,9.9-7,16.4c2.5,5.6,8.9,8.4,14.7,6.4
	c34-11.6,69.6-4.7,93.1,18.8c35.2,35.2,31.6,96.2-8,135.9c-39.7,39.7-100.6,43.3-135.9,8c-23.5-23.5-30.4-59.1-18.8-93.1
	c2-5.8-0.6-12.1-6.2-14.6l-0.5-0.2c-6.3-2.9-13.8,0.2-16.1,6.8c-4.6,13.4-6.9,27.5-6.9,41.6c-0.2,40.4-28.9,87-33.4,94.2l-77.1,77.1
	c-6.2,6.3-9.7,14.7-9.8,23.5c0,8.8,3.5,17.3,9.8,23.5c6.2,6.2,14.7,9.8,23.5,9.8c8.8,0,17.3-3.6,23.5-9.8l77.1-77.1
	c7.2-4.6,54-33.5,94.6-33.5v-0.1l0.6,0c32.6,0,66.3-13.2,92.4-39.3C1429,397,1432.6,320.8,1387.9,276.2z M1098.2,579
	c-3.7,3.2-9.2,3-12.6-0.5c-3.4-3.4-3.6-8.9-0.5-12.6l69.5-69.5l13.2,13.2L1098.2,579z M1186.4,494.3L1186.4,494.3L1186.4,494.3
	l-16.6-16.6c8.9-15.1,16.4-31.1,22.4-47.6c4.7,8.8,10.7,16.9,17.7,24c7.1,7,15.1,13,23.9,17.8
	C1217.4,477.9,1201.5,485.4,1186.4,494.3z"/>
<path class="st1" d="M1115.7,341c35.4,1.6,64.5-27.5,62.9-62.9c-1.4-30.9-26.4-55.8-57.3-57.3c-35.4-1.6-64.5,27.5-62.9,62.9
	C1059.8,314.6,1084.8,339.6,1115.7,341z M1082.5,278.6c1.2-18,15.7-32.5,33.7-33.7c21.8-1.4,39.8,16.6,38.4,38.4
	c-1.2,18-15.7,32.5-33.7,33.7C1099.1,318.3,1081.1,300.3,1082.5,278.6z"/>
<g>
	<path class="st2" d="M1507,455.1c-6.1,0-11-4.9-11-11v-349H923.8v349c0,6.1-4.9,11-11,11s-11-4.9-11-11v-371H1518v371
		C1518,450.2,1513.1,455.1,1507,455.1z"/>
</g>
<path class="st1" d="M351.9,306.2c22.8,6,52.8,32.3,74.8,65l-32.1-12.8c-6.2-2.5-13.2,0.5-15.6,6.7c-2.5,6.2,0.5,13.2,6.7,15.6
	l39.5,15.8c9.2,3.7,19.5,3.2,28.4-1.2h0c13.6-6.8,21.2-21.7,18.7-36.7l-7.3-43.8c-1.1-6.6-7.3-11-13.8-9.9h0
	c-6.6,1.1-11,7.3-9.9,13.8l6.9,41.3c-23.7-36.2-58.3-68.9-90.3-77.2c-7.6-2-15,3.8-15,11.7C342.8,300.1,346.5,304.8,351.9,306.2z"/>
<path class="st0" d="M528,276.2L528,276.2c-30.1-30.1-75.2-39.2-117.8-24.6c-6.7,2.3-10,9.9-7,16.4c2.5,5.6,8.9,8.4,14.7,6.4
	c34-11.6,69.6-4.7,93.1,18.8c35.2,35.2,31.6,96.2-8,135.9c-39.7,39.7-100.6,43.3-135.9,8c-23.5-23.5-30.4-59.1-18.8-93.1
	c2-5.8-0.6-12.1-6.2-14.6l-0.5-0.2c-6.3-2.9-13.8,0.2-16.1,6.8c-4.6,13.4-6.9,27.5-6.9,41.6c-0.2,40.4-28.9,87-33.4,94.2l-77.1,77.1
	c-6.2,6.3-9.7,14.7-9.8,23.5c0,8.8,3.5,17.3,9.8,23.5c6.2,6.2,14.7,9.8,23.5,9.8c8.8,0,17.3-3.6,23.5-9.8l77.1-77.1
	c7.2-4.6,54-33.5,94.6-33.5v-0.1l0.6,0c32.6,0,66.3-13.2,92.4-39.3C569,397,572.7,320.8,528,276.2z M238.2,579
	c-3.7,3.2-9.2,3-12.6-0.5c-3.4-3.4-3.6-8.9-0.5-12.6l69.5-69.5l13.2,13.2L238.2,579z M326.5,494.3L326.5,494.3L326.5,494.3
	l-16.6-16.6c8.9-15.1,16.4-31.1,22.4-47.6c4.7,8.8,10.7,16.9,17.7,24c7.1,7,15.1,13,23.9,17.8C357.5,477.9,341.6,485.4,326.5,494.3z
	"/>
<path class="st1" d="M255.7,341c35.4,1.6,64.5-27.5,62.9-62.9c-1.4-30.9-26.4-55.8-57.3-57.3c-35.4-1.6-64.5,27.5-62.9,62.9
	C199.9,314.6,224.9,339.6,255.7,341z M222.5,278.6c1.2-18,15.7-32.5,33.7-33.7c21.8-1.4,39.8,16.6,38.4,38.4
	c-1.2,18-15.7,32.5-33.7,33.7C239.2,318.3,221.2,300.3,222.5,278.6z"/>
<g>
	<path class="st0" d="M647.1,455.1c-6.1,0-11-4.9-11-11v-349H63.9v349c0,6.1-4.9,11-11,11s-11-4.9-11-11v-371h616.3v371
		C658.1,450.2,653.2,455.1,647.1,455.1z"/>
</g>
</svg>
