<?xml version="1.0" encoding="utf-8"?>
<!-- Generator: Adobe Illustrator 26.0.3, SVG Export Plug-In . SVG Version: 6.00 Build 0)  -->
<svg version="1.1" id="Layer_1" xmlns="http://www.w3.org/2000/svg" xmlns:xlink="http://www.w3.org/1999/xlink" x="0px" y="0px"
	 viewBox="0 0 512 512" style="enable-background:new 0 0 512 512;" xml:space="preserve">
<style type="text/css">
	.st0{fill:#0F2132;}
	.st1{fill:#FFFFFF;}
	.st2{fill:#E65400;}
</style>
<rect x="608.7" class="st0" width="512" height="512"/>
<path id="Shape" class="st1" d="M1016.7,76.8h-92.3V8.5c0-4.7-3.8-8.5-8.5-8.5s-8.5,3.8-8.5,8.5v25.6H822V8.5c0-4.7-3.8-8.5-8.5-8.5
	c-4.7,0-8.5,3.8-8.5,8.5v68.3h-92.3c-12.2,0-22.6,8.6-25.1,20.5l-78.4,384c-1.5,7.5,0.4,15.4,5.2,21.3c4.9,6,12.1,9.4,19.8,9.4
	h460.8c7.7,0,15-3.5,19.8-9.4c4.9-6,6.8-13.8,5.3-21.3l-78.4-384C1039.3,85.4,1028.9,76.8,1016.7,76.8L1016.7,76.8z M822,51.2h85.3
	v25.6H822L822,51.2z M907.3,119.5H822V93.9h85.3V119.5z M1103.4,484.7c0.5,2.5-0.1,5.1-1.7,7.1c-1.6,2-4,3.1-6.6,3.1H634.3
	c-2.6,0-5-1.2-6.6-3.1c-1.6-2-2.3-4.6-1.8-7.1l78.4-384c0.8-4,4.3-6.8,8.4-6.8h92.3v68.3c0,4.7,3.8,8.5,8.5,8.5
	c4.7,0,8.5-3.8,8.5-8.5v-25.6h85.3v25.6c0,4.7,3.8,8.5,8.5,8.5s8.5-3.8,8.5-8.5V93.9h92.3c4.1,0,7.6,2.8,8.4,6.8L1103.4,484.7z"/>
<path id="Shape_00000044862710973593561160000000524891434080165012_" class="st1" d="M995.8,110.9H950c-4.7,0-8.5,3.8-8.5,8.5
	c0,4.7,3.8,8.5,8.5,8.5h45.8l67.9,332.8H665.6L733.6,128h45.8c4.7,0,8.5-3.8,8.5-8.5c0-4.7-3.8-8.5-8.5-8.5h-45.8
	c-8.1,0-15.1,5.7-16.7,13.7l-67.9,332.8c-1,5,0.3,10.2,3.5,14.2c3.2,4,8.1,6.3,13.2,6.3h398.1c5.1,0,10-2.3,13.2-6.3
	s4.5-9.2,3.5-14.2l-67.9-332.8C1010.9,116.6,1003.9,110.9,995.8,110.9L995.8,110.9z"/>
<path id="Shape_00000093164966891409330130000009281528125715246010_" class="st2" d="M778.5,201c-1.6-2.7-4.5-4.3-7.6-4.3
	c-3.1,0-6,1.6-7.6,4.3c-3.4,7-10.2,11.7-18,12.3c-4.7,0-8.5,3.8-8.5,8.5c0,4.7,3.8,8.5,8.5,8.5c9.6-0.4,18.7-4.4,25.6-11.1
	c6.9,6.7,16,10.7,25.6,11.1c4.7,0,8.5-3.8,8.5-8.4c0.1-4.7-3.7-8.5-8.4-8.6C788.7,212.7,781.9,208,778.5,201z"/>
<path id="Shape_00000019641281528297924620000014491428239747144632_" class="st2" d="M847.6,221.9c9.6-0.4,18.7-4.4,25.6-11.1
	c6.9,6.7,16,10.7,25.6,11.1c4.7,0,8.5-3.8,8.5-8.4c0.1-4.7-3.7-8.5-8.4-8.6c-7.8-0.6-14.7-5.3-18-12.3c-1.6-2.7-4.5-4.3-7.6-4.3
	c-3.1,0-6,1.6-7.6,4.3c-3.4,7-10.2,11.7-18,12.3c-4.7,0-8.5,3.8-8.5,8.5S842.9,221.9,847.6,221.9z"/>
<path id="Shape_00000130632058892940871650000009191455684669460622_" class="st2" d="M950,307.3c0.1-4.7-3.7-8.5-8.4-8.6
	c-7.8-0.6-14.7-5.3-18-12.3c-1.6-2.7-4.5-4.3-7.6-4.3s-6,1.6-7.6,4.3c-3.4,7-10.2,11.7-18,12.3c-4.7,0-8.5,3.8-8.5,8.5
	s3.8,8.5,8.5,8.5c9.6-0.4,18.7-4.4,25.6-11.1c6.9,6.7,16,10.7,25.6,11.1C946.1,315.7,949.9,312,950,307.3z"/>
<path id="Shape_00000124136477682258248950000006939218838460034954_" class="st2" d="M967.1,426.7c9.6-0.4,18.7-4.4,25.6-11.1
	c6.9,6.7,16,10.7,25.6,11.1c4.7,0,8.5-3.8,8.5-8.4c0.1-4.7-3.7-8.5-8.4-8.6c-7.8-0.6-14.7-5.3-18-12.3c-1.6-2.7-4.5-4.3-7.6-4.3
	c-3.1,0-6,1.6-7.6,4.3c-3.4,7-10.2,11.7-18,12.3c-4.7,0-8.5,3.8-8.5,8.5S962.4,426.7,967.1,426.7z"/>
<path id="Shape_00000089542836783378004380000008174836942837119886_" class="st2" d="M752.9,388.7c-1.6-2.7-4.5-4.3-7.6-4.3
	c-3.1,0-6,1.6-7.6,4.3c-3.4,7-10.2,11.7-18,12.3c-4.7,0-8.5,3.8-8.5,8.5c0,4.7,3.8,8.5,8.5,8.5c9.6-0.4,18.7-4.4,25.6-11.1
	c6.9,6.7,16,10.7,25.6,11.1c4.7,0,8.5-3.8,8.5-8.4c0.1-4.7-3.7-8.5-8.4-8.6C763.1,400.5,756.3,395.8,752.9,388.7z"/>
<path id="Shape_00000160169301476242003810000016064269331078734258_" class="st2" d="M950,366.9c9.6-0.4,18.7-4.4,25.6-11.1
	c6.9,6.7,16,10.7,25.6,11.1c4.7,0,8.5-3.8,8.5-8.4c0.1-4.7-3.7-8.5-8.4-8.6c-7.8-0.6-14.7-5.3-18-12.3c-1.6-2.7-4.5-4.3-7.6-4.3
	s-6,1.6-7.6,4.3c-3.4,7-10.2,11.7-18,12.3c-4.7,0-8.5,3.8-8.5,8.5S945.3,366.9,950,366.9z"/>
<path id="Shape_00000108274804771778673020000013420342396070882179_" class="st2" d="M770.9,324.3c-7.8-0.6-14.7-5.3-18-12.3
	c-1.6-2.7-4.5-4.3-7.6-4.3c-3.1,0-6,1.6-7.6,4.3c-3.4,7-10.2,11.7-18,12.3c-4.7,0-8.5,3.8-8.5,8.5s3.8,8.5,8.5,8.5
	c9.6-0.4,18.7-4.4,25.6-11.1c6.9,6.7,16,10.7,25.6,11.1c4.7,0,8.5-3.8,8.5-8.4C779.3,328.2,775.6,324.4,770.9,324.3z"/>
<path id="Shape_00000038371709582260355230000006758304123975078574_" class="st2" d="M787.9,298.7c9.6-0.4,18.7-4.4,25.6-11.1
	c6.9,6.7,16,10.7,25.6,11.1c4.7,0,8.5-3.8,8.5-8.4c0.1-4.7-3.7-8.5-8.4-8.6c-7.8-0.6-14.7-5.3-18-12.3c-1.6-2.7-4.5-4.3-7.6-4.3
	c-3.1,0-6,1.6-7.6,4.3c-3.4,7-10.2,11.7-18,12.3c-4.7,0-8.5,3.8-8.5,8.5C779.3,294.8,783.2,298.7,787.9,298.7L787.9,298.7z"/>
<path id="Shape_00000101085901190997635800000001750699682723229372_" class="st2" d="M941.5,256c9.6-0.4,18.7-4.4,25.6-11.1
	c6.9,6.7,16,10.7,25.6,11.1c4.7,0,8.5-3.8,8.5-8.4c0.1-4.7-3.7-8.5-8.4-8.6c-7.8-0.6-14.7-5.3-18-12.3c-1.6-2.7-4.5-4.3-7.6-4.3
	s-6,1.6-7.6,4.3c-3.4,7-10.2,11.7-18,12.3c-4.7,0-8.5,3.8-8.5,8.5C932.9,252.2,936.8,256,941.5,256z"/>
<path id="Shape_00000171684652256281398780000005680250216126286517_" class="st2" d="M822,366.9c9.6-0.4,18.7-4.4,25.6-11.1
	c6.9,6.7,16,10.7,25.6,11.1c4.7,0,8.5-3.8,8.5-8.4c0.1-4.7-3.7-8.5-8.4-8.6c-7.8-0.6-14.7-5.3-18-12.3c-1.6-2.7-4.5-4.3-7.6-4.3
	s-6,1.6-7.6,4.3c-3.4,7-10.2,11.7-18,12.3c-4.7,0-8.5,3.8-8.5,8.5S817.3,366.9,822,366.9L822,366.9z"/>
<path id="Shape_00000150786305540089167730000007291737789415089591_" class="st2" d="M864.7,426.7c9.6-0.4,18.7-4.4,25.6-11.1
	c6.9,6.7,16,10.7,25.6,11.1c4.7,0,8.5-3.8,8.5-8.4c0.1-4.7-3.7-8.5-8.4-8.6c-7.8-0.6-14.7-5.3-18-12.3c-1.6-2.7-4.5-4.3-7.6-4.3
	s-6,1.6-7.6,4.3c-3.4,7-10.2,11.7-18,12.3c-4.7,0-8.5,3.8-8.5,8.5S860,426.7,864.7,426.7z"/>
<path id="Shape_00000149353471989589240990000009826913242002738321_" class="st0" d="M408,76.8h-92.3V8.5c0-4.7-3.8-8.5-8.5-8.5
	s-8.5,3.8-8.5,8.5v25.6h-85.3V8.5c0-4.7-3.8-8.5-8.5-8.5c-4.7,0-8.5,3.8-8.5,8.5v68.3H104c-12.2,0-22.6,8.6-25.1,20.5l-78.4,384
	c-1.5,7.5,0.4,15.4,5.2,21.3s12.1,9.4,19.8,9.4h460.8c7.7,0,15-3.5,19.8-9.4c4.9-6,6.8-13.8,5.3-21.3l-78.4-384
	C430.7,85.4,420.2,76.8,408,76.8L408,76.8z M213.3,51.2h85.3v25.6h-85.3L213.3,51.2z M298.7,119.5h-85.3V93.9h85.3V119.5z
	 M494.8,484.7c0.5,2.5-0.1,5.1-1.7,7.1s-4,3.1-6.6,3.1H25.6c-2.6,0-5-1.2-6.6-3.1s-2.3-4.6-1.8-7.1l78.4-384c0.8-4,4.3-6.8,8.4-6.8
	h92.3v68.3c0,4.7,3.8,8.5,8.5,8.5c4.7,0,8.5-3.8,8.5-8.5v-25.6h85.3v25.6c0,4.7,3.8,8.5,8.5,8.5s8.5-3.8,8.5-8.5V93.9H408
	c4.1,0,7.6,2.8,8.4,6.8L494.8,484.7z"/>
<path id="Shape_00000158713883268460612250000008678128482189272708_" class="st0" d="M387.1,110.9h-45.8c-4.7,0-8.5,3.8-8.5,8.5
	c0,4.7,3.8,8.5,8.5,8.5h45.8L455,460.8H57L124.9,128h45.8c4.7,0,8.5-3.8,8.5-8.5c0-4.7-3.8-8.5-8.5-8.5h-45.8
	c-8.1,0-15.1,5.7-16.7,13.7L40.2,457.4c-1,5,0.3,10.2,3.5,14.2c3.2,4,8.1,6.3,13.2,6.3H455c5.1,0,10-2.3,13.2-6.3s4.5-9.2,3.5-14.2
	l-67.9-332.8C402.2,116.6,395.2,110.9,387.1,110.9L387.1,110.9z"/>
<path id="Shape_00000171696227349614990970000017266443453526167481_" class="st2" d="M169.8,201c-1.6-2.7-4.5-4.3-7.6-4.3
	c-3.1,0-6,1.6-7.6,4.3c-3.4,7-10.2,11.7-18,12.3c-4.7,0-8.5,3.8-8.5,8.5c0,4.7,3.8,8.5,8.5,8.5c9.6-0.4,18.7-4.4,25.6-11.1
	c6.9,6.7,16,10.7,25.6,11.1c4.7,0,8.5-3.8,8.5-8.4c0.1-4.7-3.7-8.5-8.4-8.6C180.1,212.7,173.2,208,169.8,201z"/>
<path id="Shape_00000160191080455382472790000002291133139239480967_" class="st2" d="M238.9,221.9c9.6-0.4,18.7-4.4,25.6-11.1
	c6.9,6.7,16,10.7,25.6,11.1c4.7,0,8.5-3.8,8.5-8.4c0.1-4.7-3.7-8.5-8.4-8.6c-7.8-0.6-14.7-5.3-18-12.3c-1.6-2.7-4.5-4.3-7.6-4.3
	s-6,1.6-7.6,4.3c-3.4,7-10.2,11.7-18,12.3c-4.7,0-8.5,3.8-8.5,8.5S234.2,221.9,238.9,221.9z"/>
<path id="Shape_00000000220911402408576120000016812161473721456551_" class="st2" d="M341.3,307.3c0.1-4.7-3.7-8.5-8.4-8.6
	c-7.8-0.6-14.7-5.3-18-12.3c-1.6-2.7-4.5-4.3-7.6-4.3c-3.1,0-6,1.6-7.6,4.3c-3.4,7-10.2,11.7-18,12.3c-4.7,0-8.5,3.8-8.5,8.5
	s3.8,8.5,8.5,8.5c9.6-0.4,18.7-4.4,25.6-11.1c6.9,6.7,16,10.7,25.6,11.1C337.5,315.7,341.3,312,341.3,307.3z"/>
<path id="Shape_00000042711542318434907280000000079803548488440996_" class="st2" d="M358.4,426.7c9.6-0.4,18.7-4.4,25.6-11.1
	c6.9,6.7,16,10.7,25.6,11.1c4.7,0,8.5-3.8,8.5-8.4c0.1-4.7-3.7-8.5-8.4-8.6c-7.8-0.6-14.7-5.3-18-12.3c-1.6-2.7-4.5-4.3-7.6-4.3
	s-6,1.6-7.6,4.3c-3.4,7-10.2,11.7-18,12.3c-4.7,0-8.5,3.8-8.5,8.5S353.7,426.7,358.4,426.7z"/>
<path id="Shape_00000075148706378043443660000012541565555192672700_" class="st2" d="M144.2,388.7c-1.6-2.7-4.5-4.3-7.6-4.3
	c-3.1,0-6,1.6-7.6,4.3c-3.4,7-10.2,11.7-18,12.3c-4.7,0-8.5,3.8-8.5,8.5c0,4.7,3.8,8.5,8.5,8.5c9.6-0.4,18.7-4.4,25.6-11.1
	c6.9,6.7,16,10.7,25.6,11.1c4.7,0,8.5-3.8,8.5-8.4c0.1-4.7-3.7-8.5-8.4-8.6C154.5,400.5,147.6,395.8,144.2,388.7z"/>
<path id="Shape_00000178172496120383359610000001870403197768584876_" class="st2" d="M341.3,366.9c9.6-0.4,18.7-4.4,25.6-11.1
	c6.9,6.7,16,10.7,25.6,11.1c4.7,0,8.5-3.8,8.5-8.4c0.1-4.7-3.7-8.5-8.4-8.6c-7.8-0.6-14.7-5.3-18-12.3c-1.6-2.7-4.5-4.3-7.6-4.3
	c-3.1,0-6,1.6-7.6,4.3c-3.4,7-10.2,11.7-18,12.3c-4.7,0-8.5,3.8-8.5,8.5S336.6,366.9,341.3,366.9z"/>
<path id="Shape_00000051362382563212458290000004855692573581933967_" class="st2" d="M162.2,324.3c-7.8-0.6-14.7-5.3-18-12.3
	c-1.6-2.7-4.5-4.3-7.6-4.3c-3.1,0-6,1.6-7.6,4.3c-3.4,7-10.2,11.7-18,12.3c-4.7,0-8.5,3.8-8.5,8.5s3.8,8.5,8.5,8.5
	c9.6-0.4,18.7-4.4,25.6-11.1c6.9,6.7,16,10.7,25.6,11.1c4.7,0,8.5-3.8,8.5-8.4C170.7,328.2,166.9,324.4,162.2,324.3z"/>
<path id="Shape_00000098204524732784837250000003421914273469691062_" class="st2" d="M179.2,298.7c9.6-0.4,18.7-4.4,25.6-11.1
	c6.9,6.7,16,10.7,25.6,11.1c4.7,0,8.5-3.8,8.5-8.4c0.1-4.7-3.7-8.5-8.4-8.6c-7.8-0.6-14.7-5.3-18-12.3c-1.6-2.7-4.5-4.3-7.6-4.3
	c-3.1,0-6,1.6-7.6,4.3c-3.4,7-10.2,11.7-18,12.3c-4.7,0-8.5,3.8-8.5,8.5C170.7,294.8,174.5,298.7,179.2,298.7L179.2,298.7z"/>
<path id="Shape_00000033370354705961927620000015514515730709465775_" class="st2" d="M332.8,256c9.6-0.4,18.7-4.4,25.6-11.1
	c6.9,6.7,16,10.7,25.6,11.1c4.7,0,8.5-3.8,8.5-8.4c0.1-4.7-3.7-8.5-8.4-8.6c-7.8-0.6-14.7-5.3-18-12.3c-1.6-2.7-4.5-4.3-7.6-4.3
	s-6,1.6-7.6,4.3c-3.4,7-10.2,11.7-18,12.3c-4.7,0-8.5,3.8-8.5,8.5C324.3,252.2,328.1,256,332.8,256z"/>
<path id="Shape_00000054971507559818133450000001413103410497618824_" class="st2" d="M213.3,366.9c9.6-0.4,18.7-4.4,25.6-11.1
	c6.9,6.7,16,10.7,25.6,11.1c4.7,0,8.5-3.8,8.5-8.4c0.1-4.7-3.7-8.5-8.4-8.6c-7.8-0.6-14.7-5.3-18-12.3c-1.6-2.7-4.5-4.3-7.6-4.3
	c-3.1,0-6,1.6-7.6,4.3c-3.4,7-10.2,11.7-18,12.3c-4.7,0-8.5,3.8-8.5,8.5S208.6,366.9,213.3,366.9L213.3,366.9z"/>
<path id="Shape_00000054261794069882353440000002100592452833460113_" class="st2" d="M256,426.7c9.6-0.4,18.7-4.4,25.6-11.1
	c6.9,6.7,16,10.7,25.6,11.1c4.7,0,8.5-3.8,8.5-8.4c0.1-4.7-3.7-8.5-8.4-8.6c-7.8-0.6-14.7-5.3-18-12.3c-1.6-2.7-4.5-4.3-7.6-4.3
	c-3.1,0-6,1.6-7.6,4.3c-3.4,7-10.2,11.7-18,12.3c-4.7,0-8.5,3.8-8.5,8.5S251.3,426.7,256,426.7z"/>
</svg>
