<?xml version="1.0" encoding="utf-8"?>
<!-- Generator: Adobe Illustrator 26.2.1, SVG Export Plug-In . SVG Version: 6.00 Build 0)  -->
<svg version="1.1" id="Capa_1" xmlns="http://www.w3.org/2000/svg" xmlns:xlink="http://www.w3.org/1999/xlink" x="0px" y="0px"
	 viewBox="0 0 512 512" style="enable-background:new 0 0 512 512;" xml:space="preserve">
<style type="text/css">
	.st0{fill:#0F2132;}
	.st1{fill:#FFFFFF;}
	.st2{fill:#E4540E;}
</style>
<rect x="591.3" class="st0" width="512" height="512"/>
<path class="st1" d="M598.8,325.5h76.8c4.1,0,7.5-3.4,7.5-7.5s-3.4-7.5-7.5-7.5h-76.8c-4.1,0-7.5,3.4-7.5,7.5
	S594.7,325.5,598.8,325.5z"/>
<path class="st1" d="M1095.8,465.9c-10-0.1-18.6-3.7-25.8-10.7c-19.8-19.8-52.9-19.8-72.7,0c-14,14-37.5,14-51.5,0
	c-19.8-19.8-52.9-19.8-72.7,0c-3.5,3.5-7.6,6.2-12.1,8c-3.8,1.5-5.7,5.9-4.2,9.8c1.5,3.8,5.9,5.7,9.8,4.2
	c6.4-2.6,12.2-6.4,17.1-11.3c14.1-14.1,37.5-14.1,51.5,0c19.8,19.8,52.9,19.8,72.7,0c14.1-14.1,37.5-14.1,51.5,0
	c10.1,9.9,22.3,14.9,36.4,15.1c4.1,0,7.5-3.4,7.5-7.5S1100,465.9,1095.8,465.9z"/>
<path class="st1" d="M833.9,463.4c-4.6-1.8-8.8-4.6-12.3-8.1c-19.8-19.8-52.9-19.8-72.7,0c-14,14-37.5,14-51.5,0
	c-19.8-19.8-52.9-19.8-72.7,0c-6.9,6.9-16,10.7-25.8,10.7c-4.1,0-7.5,3.4-7.5,7.5s3.4,7.5,7.5,7.5c13.7,0,26.7-5.4,36.4-15.1
	c14.1-14.1,37.5-14.1,51.5,0c19.8,19.8,52.9,19.8,72.7,0c14.1-14.1,37.5-14.1,51.5,0c5,5,10.8,8.8,17.4,11.4
	c3.8,1.5,8.2-0.4,9.7-4.2C839.6,469.2,837.7,464.9,833.9,463.4L833.9,463.4z"/>
<path class="st1" d="M935.2,413.8c19.3,20.4,53.3,19.5,72.7,0c14.2-14.2,37.3-14.2,51.5,0c9.7,9.7,22.6,15.1,36.4,15.1
	c4.1,0,7.5-3.4,7.5-7.5s-3.4-7.5-7.5-7.5c-9.7,0-18.9-3.8-25.8-10.7c-20.1-20.1-52.7-20-72.7,0c-14.1,14.1-37.5,14.1-51.5,0
	c-3.9-3.9-8.2-7-13-9.5v-68.3h163c4.1,0,7.5-3.4,7.5-7.5s-3.4-7.5-7.5-7.5H1026v-23.3c0-21.5-9.7-41.5-26.6-54.8
	c-3.3-2.6-8-2-10.5,1.2c-2.6,3.3-2,8,1.2,10.5c13.3,10.5,20.9,26.2,20.9,43v23.3h-16.3v-23.3c0-21.2-17.2-38.4-38.4-38.4
	c-21.2,0-38.5,17.2-38.5,38.4v101.7c-5.4-0.9-10.9-0.9-16.3-0.1l0-101.6c0-32.5,29.9-58.6,62.1-54.2c4.1,0.6,7.9-2.3,8.4-6.4
	c0.6-4.1-2.3-7.9-6.4-8.4c-28.7-3.9-58.5,11.9-71.6,37.7c-11.5-22.7-35.1-38.3-62.2-38.3c-38.5,0-69.7,31.3-69.7,69.7v23.3h-53.7
	c-4.1,0-7.5,3.4-7.5,7.5s3.4,7.5,7.5,7.5H762v68.2c-4.8,2.4-9.2,5.6-13.2,9.6c-14.2,14.2-37.3,14.2-51.5,0
	c-20.1-20.1-52.7-20.1-72.7,0c-6.9,6.9-16,10.7-25.8,10.7c-4.1,0-7.5,3.4-7.5,7.5s3.4,7.5,7.5,7.5c13.7,0,26.7-5.4,36.4-15.1
	c14.2-14.2,37.3-14.2,51.5,0c20.1,20.1,52.7,20.1,72.7,0c13.9-13.9,37.6-13.9,51.5,0c20.1,20.1,53.1,20.4,72.7,0
	C897.2,399.8,921.7,399.5,935.2,413.8L935.2,413.8z M956.3,263.7c12.9,0,23.4,10.5,23.4,23.4v23.3h-46.9v-23.3
	C932.8,274.3,943.3,263.7,956.3,263.7L956.3,263.7z M855.2,310.5h-46.9v-23.3c0-12.9,10.5-23.4,23.4-23.4
	c12.9,0,23.4,10.5,23.4,23.4L855.2,310.5L855.2,310.5z M808.3,325.5h78.2v16.1h-78.2V325.5z M808.3,356.6h78.2v16.1h-78.2V356.6z
	 M777,388.8V287.2c0-30.2,24.6-54.7,54.7-54.7c29.4,0,54.7,25.3,54.7,54.7v23.3h-16.3v-23.3c0-21.2-17.2-38.4-38.4-38.4
	c-21.2,0-38.4,17.2-38.4,38.4v101.6C787.9,388,782.4,388,777,388.8L777,388.8z M821.6,403.2c-4-4-8.4-7.2-13.2-9.6v-6h78.2v5.9
	c-4.9,2.5-9.5,5.7-13.5,9.7C858.9,417.4,835.8,417.4,821.6,403.2z"/>
<g>
	<path class="st2" d="M692,154.8c-21.3,0-38.6-17.3-38.6-38.6s17.3-38.6,38.6-38.6s38.6,17.3,38.6,38.6S713.3,154.8,692,154.8z
		 M692,92.7c-13,0-23.6,10.6-23.6,23.6s10.6,23.6,23.6,23.6c13,0,23.6-10.6,23.6-23.6S705,92.7,692,92.7z"/>
</g>
<g>
	<g>
		<path class="st2" d="M692,61.6c-4.1,0-7.5-3.4-7.5-7.5V38.6c0-4.1,3.4-7.5,7.5-7.5c4.1,0,7.5,3.4,7.5,7.5v15.5
			C699.5,58.2,696.2,61.6,692,61.6z"/>
	</g>
	<g>
		<path class="st2" d="M692,201.4c-4.1,0-7.5-3.4-7.5-7.5v-15.5c0-4.1,3.4-7.5,7.5-7.5c4.1,0,7.5,3.4,7.5,7.5v15.5
			C699.5,198,696.2,201.4,692,201.4z"/>
	</g>
</g>
<g>
	<g>
		<path class="st2" d="M642.8,77.6l-11-11c-2.9-2.9-2.9-7.7,0-10.6c2.9-2.9,7.7-2.9,10.6,0l11,11c2.9,2.9,3,7.8,0,10.6
			C650.2,80.6,645.2,79.8,642.8,77.6z"/>
	</g>
	<g>
		<path class="st2" d="M741.6,176.4l-11-11c-2.9-2.9-2.9-7.7,0-10.6c2.9-2.9,7.7-2.9,10.6,0l11,11c2.9,2.9,3.3,7.6,0,10.6
			C749,179.4,744.7,179.3,741.6,176.4z"/>
	</g>
</g>
<g>
	<g>
		<path class="st2" d="M629.9,123.7h-15.5c-4.1,0-7.5-3.4-7.5-7.5s3.4-7.5,7.5-7.5h15.5c4.1,0,7.5,3.4,7.5,7.5
			S634,123.7,629.9,123.7z"/>
	</g>
	<g>
		<path class="st2" d="M769.7,123.7h-15.5c-4.1,0-7.5-3.4-7.5-7.5s3.4-7.5,7.5-7.5h15.5c4.1,0,7.5,3.4,7.5,7.5
			S773.8,123.7,769.7,123.7z"/>
	</g>
</g>
<g>
	<g>
		<path class="st2" d="M631.8,176.4c-3.1-2.8-2.9-7.7,0-10.6l11-11c2.9-2.9,7.7-2.9,10.6,0c2.9,2.9,2.9,7.7,0,10.6l-11,11
			C639.8,179.2,634.4,178.8,631.8,176.4z"/>
	</g>
	<g>
		<path class="st2" d="M730.6,77.6c-3-2.9-2.9-7.7,0-10.6l11-11c2.9-2.9,7.7-2.9,10.6,0c2.9,2.9,2.9,7.7,0,10.6l-11,11
			C738.9,80.1,733.8,80.7,730.6,77.6z"/>
	</g>
</g>
<path class="st0" d="M7.5,325.5h76.8c4.1,0,7.5-3.4,7.5-7.5s-3.4-7.5-7.5-7.5H7.5c-4.1,0-7.5,3.4-7.5,7.5S3.4,325.5,7.5,325.5z"/>
<path class="st0" d="M504.5,465.9c-10-0.1-18.6-3.7-25.8-10.7c-19.8-19.8-52.9-19.8-72.7,0c-14,14-37.5,14-51.5,0
	c-19.8-19.8-52.9-19.8-72.7,0c-3.5,3.5-7.6,6.2-12.1,8c-3.8,1.5-5.7,5.9-4.2,9.8c1.5,3.8,5.9,5.7,9.8,4.2
	c6.4-2.6,12.2-6.4,17.1-11.3c14.1-14.1,37.5-14.1,51.5,0c19.8,19.8,52.9,19.8,72.7,0c14.1-14.1,37.5-14.1,51.5,0
	c10.1,9.9,22.3,14.9,36.4,15.1c4.1,0,7.5-3.4,7.5-7.5S508.6,465.9,504.5,465.9z"/>
<path class="st0" d="M242.5,463.4c-4.6-1.8-8.8-4.6-12.3-8.1c-19.8-19.8-52.9-19.8-72.7,0c-14,14-37.5,14-51.5,0
	c-19.8-19.8-52.9-19.8-72.7,0c-6.9,6.9-16,10.7-25.8,10.7c-4.1,0-7.5,3.4-7.5,7.5s3.4,7.5,7.5,7.5c13.7,0,26.7-5.4,36.4-15.1
	c14.1-14.1,37.5-14.1,51.5,0c19.8,19.8,52.9,19.8,72.7,0c14.1-14.1,37.5-14.1,51.5,0c5,5,10.8,8.8,17.4,11.4
	c3.8,1.5,8.2-0.4,9.7-4.2C248.3,469.2,246.4,464.9,242.5,463.4L242.5,463.4z"/>
<path class="st0" d="M343.9,413.8c19.3,20.4,53.3,19.5,72.7,0c14.2-14.2,37.3-14.2,51.5,0c9.7,9.7,22.6,15.1,36.4,15.1
	c4.1,0,7.5-3.4,7.5-7.5s-3.4-7.5-7.5-7.5c-9.7,0-18.9-3.8-25.8-10.7c-20.1-20.1-52.7-20-72.7,0c-14.1,14.1-37.5,14.1-51.5,0
	c-3.9-3.9-8.2-7-13-9.5v-68.3h163c4.1,0,7.5-3.4,7.5-7.5s-3.4-7.5-7.5-7.5h-69.8v-23.3c0-21.5-9.7-41.5-26.6-54.8
	c-3.3-2.6-8-2-10.5,1.2c-2.6,3.3-2,8,1.2,10.5c13.3,10.5,20.9,26.2,20.9,43v23.3h-16.3v-23.3c0-21.2-17.2-38.4-38.4-38.4
	c-21.2,0-38.5,17.2-38.5,38.4v101.7c-5.4-0.9-10.9-0.9-16.3-0.1l0-101.6c0-32.5,29.9-58.6,62.1-54.2c4.1,0.6,7.9-2.3,8.4-6.4
	c0.6-4.1-2.3-7.9-6.4-8.4c-28.7-3.9-58.5,11.9-71.6,37.7c-11.5-22.7-35.1-38.3-62.2-38.3c-38.5,0-69.7,31.3-69.7,69.7v23.3H117
	c-4.1,0-7.5,3.4-7.5,7.5s3.4,7.5,7.5,7.5h53.7v68.2c-4.8,2.4-9.2,5.6-13.2,9.6c-14.2,14.2-37.3,14.2-51.5,0
	c-20.1-20.1-52.7-20.1-72.7,0c-6.9,6.9-16,10.7-25.8,10.7c-4.1,0-7.5,3.4-7.5,7.5s3.4,7.5,7.5,7.5c13.7,0,26.7-5.4,36.4-15.1
	c14.2-14.2,37.3-14.2,51.5,0c20.1,20.1,52.7,20.1,72.7,0c13.9-13.9,37.6-13.9,51.5,0c20.1,20.1,53.1,20.4,72.7,0
	C305.8,399.8,330.3,399.5,343.9,413.8L343.9,413.8z M365,263.7c12.9,0,23.4,10.5,23.4,23.4v23.3h-46.9v-23.3
	C341.5,274.3,352,263.7,365,263.7L365,263.7z M263.9,310.5H217v-23.3c0-12.9,10.5-23.4,23.4-23.4c12.9,0,23.4,10.5,23.4,23.4
	L263.9,310.5L263.9,310.5z M217,325.5h78.2v16.1H217L217,325.5z M217,356.6h78.2v16.1H217L217,356.6z M185.7,388.8V287.2
	c0-30.2,24.6-54.7,54.7-54.7c29.4,0,54.7,25.3,54.7,54.7v23.3h-16.3v-23.3c0-21.2-17.2-38.4-38.4-38.4S202,266,202,287.2v101.6
	C196.6,388,191.1,388,185.7,388.8L185.7,388.8z M230.2,403.2c-4-4-8.4-7.2-13.2-9.6v-6h78.2v5.9c-4.9,2.5-9.5,5.7-13.5,9.7
	C267.6,417.4,244.4,417.4,230.2,403.2z"/>
<g>
	<path class="st2" d="M100.7,154.8c-21.3,0-38.6-17.3-38.6-38.6s17.3-38.6,38.6-38.6s38.6,17.3,38.6,38.6S122,154.8,100.7,154.8z
		 M100.7,92.7c-13,0-23.6,10.6-23.6,23.6s10.6,23.6,23.6,23.6s23.6-10.6,23.6-23.6S113.7,92.7,100.7,92.7z"/>
</g>
<g>
	<g>
		<path class="st2" d="M100.7,61.6c-4.1,0-7.5-3.4-7.5-7.5V38.6c0-4.1,3.4-7.5,7.5-7.5s7.5,3.4,7.5,7.5v15.5
			C108.2,58.2,104.8,61.6,100.7,61.6z"/>
	</g>
	<g>
		<path class="st2" d="M100.7,201.4c-4.1,0-7.5-3.4-7.5-7.5v-15.5c0-4.1,3.4-7.5,7.5-7.5s7.5,3.4,7.5,7.5v15.5
			C108.2,198,104.8,201.4,100.7,201.4z"/>
	</g>
</g>
<g>
	<g>
		<path class="st2" d="M51.5,77.6l-11-11c-2.9-2.9-2.9-7.7,0-10.6s7.7-2.9,10.6,0l11,11c2.9,2.9,3,7.8,0,10.6
			C58.9,80.6,53.8,79.8,51.5,77.6z"/>
	</g>
	<g>
		<path class="st2" d="M150.3,176.4l-11-11c-2.9-2.9-2.9-7.7,0-10.6c2.9-2.9,7.7-2.9,10.6,0l11,11c2.9,2.9,3.3,7.6,0,10.6
			C157.7,179.4,153.3,179.3,150.3,176.4z"/>
	</g>
</g>
<g>
	<g>
		<path class="st2" d="M38.6,123.7H23c-4.1,0-7.5-3.4-7.5-7.5s3.4-7.5,7.5-7.5h15.5c4.1,0,7.5,3.4,7.5,7.5S42.7,123.7,38.6,123.7z"
			/>
	</g>
	<g>
		<path class="st2" d="M178.3,123.7h-15.5c-4.1,0-7.5-3.4-7.5-7.5s3.4-7.5,7.5-7.5h15.5c4.1,0,7.5,3.4,7.5,7.5
			S182.5,123.7,178.3,123.7z"/>
	</g>
</g>
<g>
	<g>
		<path class="st2" d="M40.5,176.4c-3.1-2.8-2.9-7.7,0-10.6l11-11c2.9-2.9,7.7-2.9,10.6,0c2.9,2.9,2.9,7.7,0,10.6l-11,11
			C48.4,179.2,43.1,178.8,40.5,176.4z"/>
	</g>
	<g>
		<path class="st2" d="M139.3,77.6c-3-2.9-2.9-7.7,0-10.6l11-11c2.9-2.9,7.7-2.9,10.6,0c2.9,2.9,2.9,7.7,0,10.6l-11,11
			C147.6,80.1,142.5,80.7,139.3,77.6z"/>
	</g>
</g>
</svg>
