<?xml version="1.0" encoding="utf-8"?>
<!-- Generator: Adobe Illustrator 26.0.3, SVG Export Plug-In . SVG Version: 6.00 Build 0)  -->
<svg version="1.1" id="Layer_1" xmlns="http://www.w3.org/2000/svg" xmlns:xlink="http://www.w3.org/1999/xlink" x="0px" y="0px"
	 viewBox="0 0 700 700" style="enable-background:new 0 0 700 700;" xml:space="preserve">
<style type="text/css">
	.st0{fill:#fff;}
	.st1{fill:#E65400;}
	.st2{fill:#0F2132;}
</style>
<rect class="st0" width="700" height="700"/>
<path class="st1" d="M125.3,258.3c14.6,8.2,31.1,12.5,47.8,12.5c17.6,0,34.8-4.7,49.9-13.5c15.1-8.9,27.7-21.6,36.3-36.9
	c12.6-22.5,15.8-48.9,9.1-73.8c-6.7-24.8-22.9-46.1-45.1-59.1c-22.2-13-48.6-16.9-73.6-10.7c-26.6,6.4-49.2,23.6-62.5,47.5
	c-12.7,22.8-15.8,49.7-8.7,74.8S102.6,245.5,125.3,258.3L125.3,258.3z M102.7,132.8c9.2-16.7,24.1-29.5,42-36.1
	c1.3,18.4-2.9,36.8-12,52.9c-6.6,11.9-15.6,22.3-26.5,30.5c-3.9,2.9-4.7,8.4-1.8,12.2c2.9,3.9,8.4,4.7,12.2,1.8
	c12.9-9.7,23.6-21.9,31.4-36c11.5-20,16.3-43,13.9-65.9c20-2.8,40.3,1.9,57,13.3c16.7,11.4,28.5,28.6,33.2,48.3
	c4.6,19.7,1.8,40.4-8.1,58c-9.2,16.7-24.1,29.5-42,36.2c-1.3-18.4,2.9-36.8,12-52.9c6.4-11.5,15.1-21.7,25.5-29.7
	c3.8-2.9,4.6-8.4,1.7-12.3c-2.9-3.8-8.4-4.6-12.3-1.7c-12.3,9.5-22.6,21.5-30.2,35.1c-11.5,20-16.3,43-13.9,65.9
	c-20,2.8-40.4-1.9-57.1-13.3c-16.7-11.4-28.5-28.6-33.2-48.3C89.9,171.2,92.8,150.5,102.7,132.8L102.7,132.8z"/>
<path class="st2" d="M612.3,286.7c0.1-0.1,0.1-0.3,0.2-0.4c20.1-44.2,25.9-103.6,0.4-150.3c-0.1-0.3-0.3-0.5-0.4-0.8v0
	c-5.5-10-12.4-19.2-20.4-27.3C543.7,59.5,467.3,63,413.7,87.5l-0.3,0.1h0c-12.8,5.7-24.8,13.2-35.6,22.2c-4.6,3.9-8.7,7.9-12.9,11.9
	v0c-0.3,0.2-0.7,0.4-1,0.6c-0.1,0.2-0.3,0.4-0.4,0.6c-28.5,26.5-50.3,59.3-63.5,95.9c-1.3,1.5-2,3.4-2.1,5.4
	c-4.2,12.7-7.6,25.6-10.2,38.7c-0.2,0.3-0.3,0.7-0.4,1c-0.1,0.4-0.3,1.8-0.6,3.9c-0.5,2.6-1.2,5-1.6,7.7
	c-13.5,78.6-26.1,122.1-40.8,141h0c-11.8,14.3-24.6,27.8-38.4,40.3c-3.2-1.1-6.7-0.4-9.1,2L72.6,583.3c-1.6,1.6-2.6,3.9-2.6,6.2
	c0,2.3,0.9,4.5,2.6,6.2l31.8,31.7c1.6,1.6,3.9,2.6,6.2,2.6c2.3,0,4.5-0.9,6.2-2.6L241,503.1c1.6-1.6,2.6-3.9,2.6-6.2
	c0-2.3-0.9-4.6-2.6-6.2l-22-22c14-12.8,27.1-26.6,39.1-41.4c11.9-15.3,21.8-41,31.5-83.7v0c3.7,16.3,11.6,31.4,23.1,43.6
	c12.2,11.5,27.2,19.5,43.6,23.1c-42.7,9.8-68.4,19.6-83.7,31.5h0c-12,9-23.1,19.3-33.1,30.5c-3.1,3.7-2.6,9.2,1.2,12.3
	c3.7,3.1,9.2,2.6,12.3-1.2c9.2-10.2,19.3-19.6,30.3-27.9c19.2-14.9,61.3-27.1,141-40.8c2.7-0.5,5.1-1.1,7.6-1.6
	c2.2-0.3,3.6-0.5,4-0.6l0,0c0.4-0.1,0.7-0.3,1.1-0.4c53.6-9.4,102.7-35.9,139.9-75.7c0.2-0.2,0.5-0.2,0.7-0.4c0.2-0.3,0.5-0.6,0.7-1
	c4-4.2,8-8.3,11.9-12.9h0C599.1,311.4,606.6,299.5,612.3,286.7L612.3,286.7z M110.6,608.8l-19.4-19.4L203,477.5l19.5,19.5
	L110.6,608.8z M576.9,310.8c-1.9,2.2-3.9,4.2-5.8,6.4l-23.8-23.8l27.5-27.4l19,19h0C589.2,294.2,583.5,302.8,576.9,310.8
	L576.9,310.8z M529.3,355.1l-21.9-21.9l27.5-27.4l24.1,24.1v0C549.8,339.1,539.9,347.5,529.3,355.1L529.3,355.1z M335.2,185.6
	l20.7,20.7l-27.4,27.4l-11.1-11.1C322.1,209.8,328.1,197.4,335.2,185.6L335.2,185.6z M487.7,99.3l29.9,29.9l-27.4,27.4l-29.9-29.9
	L487.7,99.3z M447.9,114.3l-15.5-15.5c13.2-4.8,26.8-8.1,40.7-9.8L447.9,114.3z M501.2,88c16.1,0.6,32,4.3,46.8,10.7L530,116.8
	L501.2,88z M611.9,198.7l-27.3-27.2l17.6-17.6C608,168.2,611.3,183.3,611.9,198.7L611.9,198.7z M601.1,267.5l-14.1-14.1l23.5-23.5
	C608.7,242.8,605.6,255.4,601.1,267.5L601.1,267.5z M602.1,213.7l-27.4,27.4l-29.9-29.8l27.4-27.5L602.1,213.7z M455.2,360.6
	l-29.9-29.9l27.4-27.4l29.9,29.9L455.2,360.6z M480.2,251.1l-27.5,27.4l-29.9-29.9l27.5-27.4L480.2,251.1z M462.7,208.8l27.4-27.4
	l29.9,29.9l-27.5,27.4L462.7,208.8z M440.4,290.9L413,318.3l-29.9-29.9l27.5-27.5L440.4,290.9z M465.2,290.9l27.4-27.5l29.9,29.9
	l-27.5,27.5L465.2,290.9z M505,251.1l27.4-27.5l29.9,29.9L534.9,281L505,251.1z M532.4,198.9L502.5,169l27.4-27.4l29.9,29.9
	L532.4,198.9z M477.8,169l-27.4,27.4l-29.9-29.9l27.5-27.4L477.8,169z M437.9,208.8l-27.4,27.4l-29.9-29.9l27.5-27.4L437.9,208.8z
	 M398.1,248.6l-27.4,27.4l-29.9-29.9l27.5-27.5L398.1,248.6z M316,246.1l-8.8,8.8c1.2-4.7,2.5-9.2,3.9-13.7L316,246.1z M302.5,312.3
	l16,16l-11.7,11.7v0C304.5,330.9,303.1,321.6,302.5,312.3L302.5,312.3z M302.5,287.5c0.1-1.7,0.2-3.3,0.3-4.9
	c1.4-0.4,2.6-1.1,3.6-2.1l22-22l29.9,29.9l-27.4,27.4L302.5,287.5z M370.7,300.8l29.9,29.9l-27.4,27.4l-29.9-29.9L370.7,300.8z
	 M413,343.1l29.9,29.9l-22,22c-0.6,0.6-1,1.3-1.4,2.1c-2.1,0.2-4.5,0.4-7,0.5l-27-27L413,343.1z M387.8,397.5
	c-8.6-0.5-17.1-1.7-25.5-3.7l10.9-10.9L387.8,397.5z M495.1,345.5l19.3,19.3C494,376.9,472,386,449,391.6L495.1,345.5z M593.5,137.8
	l-21.3,21.3l-29.9-29.9l21.6-21.6h0c5.7,3.7,11,7.9,15.8,12.7C584.9,125.6,589.5,131.5,593.5,137.8L593.5,137.8z M415.1,106.3
	l20.4,20.4L408,154.1L382.9,129c2.2-1.9,4.1-3.9,6.4-5.8v0C397.1,116.5,405.8,110.8,415.1,106.3L415.1,106.3z M370.1,140.9
	l25.6,25.6l-27.4,27.4l-23.3-23.3C352.5,160.1,360.9,150.2,370.1,140.9L370.1,140.9z M313.4,358l17.4-17.4l29.9,29.9l-16.9,16.9v0
	c-6.9-3.1-13.2-7.3-18.7-12.6C320.4,369.9,316.4,364.2,313.4,358L313.4,358z"/>
<path class="st1" d="M-844.4,258.3c14.6,8.2,31.1,12.5,47.8,12.5c17.6,0,34.8-4.7,49.9-13.5c15.1-8.9,27.7-21.6,36.3-36.9
	c12.6-22.5,15.8-48.9,9.1-73.8c-6.7-24.8-22.9-46.1-45.1-59.1c-22.2-13-48.6-16.9-73.6-10.7c-26.6,6.4-49.2,23.6-62.5,47.5
	c-12.7,22.8-15.8,49.7-8.7,74.8C-883.9,224.2-867.1,245.5-844.4,258.3L-844.4,258.3z M-867,132.8c9.2-16.7,24.1-29.5,42-36.1
	c1.3,18.4-2.9,36.8-12,52.9c-6.6,11.9-15.6,22.3-26.5,30.5c-3.9,2.9-4.7,8.4-1.8,12.2c2.9,3.9,8.4,4.7,12.2,1.8
	c12.9-9.7,23.6-21.9,31.4-36c11.5-20,16.3-43,13.9-65.9c20-2.8,40.3,1.9,57,13.3c16.7,11.4,28.5,28.6,33.2,48.3
	c4.6,19.7,1.8,40.4-8.1,58c-9.2,16.7-24.1,29.5-42,36.2c-1.3-18.4,2.9-36.8,12-52.9c6.4-11.5,15.1-21.7,25.5-29.7
	c3.8-2.9,4.6-8.4,1.7-12.3c-2.9-3.8-8.4-4.6-12.3-1.7c-12.3,9.5-22.6,21.5-30.2,35.1c-11.5,20-16.3,43-13.9,65.9
	c-20,2.8-40.4-1.9-57.1-13.3c-16.7-11.4-28.5-28.6-33.2-48.3C-879.8,171.2-876.9,150.5-867,132.8L-867,132.8z"/>
<path class="st0" d="M-357.4,286.7c0.1-0.1,0.1-0.3,0.2-0.4c20.1-44.2,25.9-103.6,0.4-150.3c-0.1-0.3-0.3-0.5-0.4-0.8v0
	c-5.5-10-12.4-19.2-20.4-27.3C-426,59.5-502.4,63-556.1,87.5l-0.3,0.1h0c-12.8,5.7-24.8,13.2-35.6,22.2c-4.6,3.9-8.7,7.9-12.9,11.9
	v0c-0.3,0.2-0.7,0.4-1,0.6c-0.1,0.2-0.3,0.4-0.4,0.6c-28.5,26.5-50.3,59.3-63.5,95.9c-1.3,1.5-2,3.4-2.1,5.4
	c-4.2,12.7-7.6,25.6-10.2,38.7c-0.2,0.3-0.3,0.7-0.4,1c-0.1,0.4-0.3,1.8-0.6,3.9c-0.5,2.6-1.2,5-1.6,7.7
	c-13.5,78.6-26.1,122.1-40.8,141h0c-11.8,14.3-24.6,27.8-38.4,40.3c-3.2-1.1-6.7-0.4-9.1,2l-124.3,124.4c-1.6,1.6-2.6,3.9-2.6,6.2
	c0,2.3,0.9,4.5,2.6,6.2l31.8,31.7c1.6,1.6,3.9,2.6,6.2,2.6c2.3,0,4.5-0.9,6.2-2.6l124.3-124.3c1.6-1.6,2.6-3.9,2.6-6.2
	c0-2.3-0.9-4.6-2.6-6.2l-22-22c14-12.8,27.1-26.6,39.1-41.4c11.9-15.3,21.8-41,31.5-83.7v0c3.7,16.3,11.6,31.4,23.1,43.6
	c12.2,11.5,27.2,19.5,43.6,23.1c-42.7,9.8-68.4,19.6-83.7,31.5h0c-12,9-23.1,19.3-33.1,30.5c-3.1,3.7-2.6,9.2,1.2,12.3
	c3.7,3.1,9.2,2.6,12.3-1.2c9.2-10.2,19.3-19.6,30.3-27.9c19.2-14.9,61.3-27.1,141-40.8c2.7-0.5,5.1-1.1,7.6-1.6
	c2.2-0.3,3.6-0.5,4-0.6l0,0c0.4-0.1,0.7-0.3,1.1-0.4c53.6-9.4,102.7-35.9,139.9-75.7c0.2-0.2,0.5-0.2,0.7-0.4c0.2-0.3,0.5-0.6,0.7-1
	c4-4.2,8-8.3,11.9-12.9h0C-370.6,311.4-363.1,299.5-357.4,286.7L-357.4,286.7z M-859.2,608.8l-19.4-19.4l111.9-111.9l19.5,19.5
	L-859.2,608.8z M-392.8,310.8c-1.9,2.2-3.9,4.2-5.8,6.4l-23.8-23.8l27.5-27.4l19,19h0C-380.5,294.2-386.2,302.8-392.8,310.8
	L-392.8,310.8z M-440.4,355.1l-21.9-21.9l27.5-27.4l24.1,24.1v0C-419.9,339.1-429.8,347.5-440.4,355.1L-440.4,355.1z M-634.5,185.6
	l20.7,20.7l-27.4,27.4l-11.1-11.1C-647.6,209.8-641.6,197.4-634.5,185.6L-634.5,185.6z M-482,99.3l29.9,29.9l-27.4,27.4l-29.9-29.9
	L-482,99.3z M-521.8,114.3l-15.5-15.5c13.2-4.8,26.8-8.1,40.7-9.8L-521.8,114.3z M-468.5,88c16.1,0.6,32,4.3,46.8,10.7l-18.1,18.1
	L-468.5,88z M-357.8,198.7l-27.3-27.2l17.6-17.6C-361.7,168.2-358.4,183.3-357.8,198.7L-357.8,198.7z M-368.6,267.5l-14.1-14.1
	l23.5-23.5C-361,242.8-364.1,255.4-368.6,267.5L-368.6,267.5z M-367.6,213.7l-27.4,27.4l-29.9-29.8l27.4-27.5L-367.6,213.7z
	 M-514.5,360.6l-29.9-29.9l27.4-27.4l29.9,29.9L-514.5,360.6z M-489.5,251.1l-27.5,27.4l-29.9-29.9l27.5-27.4L-489.5,251.1z
	 M-507,208.8l27.4-27.4l29.9,29.9l-27.5,27.4L-507,208.8z M-529.3,290.9l-27.4,27.4l-29.9-29.9l27.5-27.5L-529.3,290.9z
	 M-504.5,290.9l27.4-27.5l29.9,29.9l-27.5,27.5L-504.5,290.9z M-464.7,251.1l27.4-27.5l29.9,29.9l-27.4,27.4L-464.7,251.1z
	 M-437.3,198.9l-29.9-29.9l27.4-27.4l29.9,29.9L-437.3,198.9z M-491.9,169l-27.4,27.4l-29.9-29.9l27.5-27.4L-491.9,169z
	 M-531.8,208.8l-27.4,27.4l-29.9-29.9l27.5-27.4L-531.8,208.8z M-571.6,248.6l-27.4,27.4l-29.9-29.9l27.5-27.5L-571.6,248.6z
	 M-653.7,246.1l-8.8,8.8c1.2-4.7,2.5-9.2,3.9-13.7L-653.7,246.1z M-667.2,312.3l16,16l-11.7,11.7v0
	C-665.2,330.9-666.6,321.6-667.2,312.3L-667.2,312.3z M-667.2,287.5c0.1-1.7,0.2-3.3,0.3-4.9c1.4-0.4,2.6-1.1,3.6-2.1l22-22
	l29.9,29.9l-27.4,27.4L-667.2,287.5z M-599,300.8l29.9,29.9l-27.4,27.4l-29.9-29.9L-599,300.8z M-556.7,343.1l29.9,29.9l-22,22
	c-0.6,0.6-1,1.3-1.4,2.1c-2.1,0.2-4.5,0.4-7,0.5l-27-27L-556.7,343.1z M-581.9,397.5c-8.6-0.5-17.1-1.7-25.5-3.7l10.9-10.9
	L-581.9,397.5z M-474.6,345.5l19.3,19.3c-20.4,12.1-42.4,21.2-65.4,26.8L-474.6,345.5z M-376.2,137.8l-21.3,21.3l-29.9-29.9
	l21.6-21.6h0c5.7,3.7,11,7.9,15.8,12.7C-384.8,125.6-380.2,131.5-376.2,137.8L-376.2,137.8z M-554.6,106.3l20.4,20.4l-27.4,27.5
	l-25.2-25.2c2.2-1.9,4.1-3.9,6.4-5.8v0C-572.6,116.5-563.9,110.8-554.6,106.3L-554.6,106.3z M-599.6,140.9l25.6,25.6l-27.4,27.4
	l-23.3-23.3C-617.2,160.1-608.8,150.2-599.6,140.9L-599.6,140.9z M-656.3,358l17.4-17.4l29.9,29.9l-16.9,16.9v0
	c-6.9-3.1-13.2-7.3-18.7-12.6C-649.3,369.9-653.3,364.2-656.3,358L-656.3,358z"/>
</svg>
