<svg xmlns="http://www.w3.org/2000/svg" xmlns:xlink="http://www.w3.org/1999/xlink" width="500" height="500" viewBox="0 0 500 500">
  <defs>
    <clipPath id="clip-_4._Turkish_bath">
      <rect width="500" height="500"/>
    </clipPath>
  </defs>
  <g id="_4._Turkish_bath" data-name="4. Turkish bath" clip-path="url(#clip-_4._Turkish_bath)">
    <g id="_4._Turkish_bath-2" data-name="4. Turkish bath" transform="translate(0)">
      <path id="Path_2914" data-name="Path 2914" d="M466.366,311.918A37.591,37.591,0,0,0,477.5,285.063a9.836,9.836,0,0,0-9.863-9.863H324.078l-20.41-17.188-24.9-118.166A66.5,66.5,0,0,0,240,92.579l-16.211-6.934c-1.27-.586-2.539-1.074-3.809-1.563a33.547,33.547,0,0,0,8.5-22.266V33.594A33.592,33.592,0,0,0,194.877,0h-6.055a33.655,33.655,0,0,0-33.594,33.594V62.013a33.122,33.122,0,0,0,8.106,21.778,35.706,35.706,0,0,0-4.492,1.758l-16.5,6.934a66.252,66.252,0,0,0-39.551,48.926L91.849,200.2a7.333,7.333,0,0,0,5.859,8.594,6.446,6.446,0,0,0,1.367.1,7.4,7.4,0,0,0,7.227-5.957l10.938-58.79A51.617,51.617,0,0,1,148,105.959l16.5-6.934a67.093,67.093,0,0,1,16.114-4.492,32.539,32.539,0,0,0,8.2.977h6.055a32.313,32.313,0,0,0,7.52-.879,66.811,66.811,0,0,1,15.625,4.59l16.211,6.934a51.7,51.7,0,0,1,30.176,36.817l24.9,118.166a14.325,14.325,0,0,0,4.883,8.106l7.129,5.957h-6.543a19.438,19.438,0,0,1-18.848-14.551l-25.586-99.415a8.312,8.312,0,0,0-9.277-6.25,8.44,8.44,0,0,0-7.422,8.4v75.2H212.456a8.375,8.375,0,0,0-3.516-.2,1.388,1.388,0,0,0-.586.2H148.1l-3.027-78.321a7.949,7.949,0,0,0-7.422-7.715,8.1,8.1,0,0,0-8.594,6.445l-19.532,99.806A20.4,20.4,0,0,1,89.5,275.3H80.13l11.719-10.254a13.056,13.056,0,0,0,4.3-7.617l4.492-24.121a7.3,7.3,0,0,0-14.356-2.637L81.888,254.4l-24.024,21h-25a9.666,9.666,0,0,0-6.934,2.832l-.1.1A9.666,9.666,0,0,0,23,285.258a38.21,38.21,0,0,0,30.567,37.305v162.8H44.582a7.324,7.324,0,0,0,0,14.649H59.036a6.132,6.132,0,0,0,1.855.293H439.705a5.686,5.686,0,0,0,1.855-.293h14.453a7.324,7.324,0,1,0,0-14.649h-8.984V322.368A37.706,37.706,0,0,0,466.366,311.918ZM169.877,62.013V33.594a18.964,18.964,0,0,1,18.946-18.946h6.055a18.964,18.964,0,0,1,18.946,18.946V62.013a18.964,18.964,0,0,1-18.946,18.946h-6.055A19.027,19.027,0,0,1,169.877,62.013Zm91.9,202.249a34.884,34.884,0,0,0,4.981,10.938H256.695l-8.4-30.372V211.917Zm-26.368-11.035,16.7,60.157a30.2,30.2,0,0,1,.684,3.418,19.509,19.509,0,0,1,.2,3.418v26.368a185.087,185.087,0,0,1-36.915,9.668c-.879.1-1.758.293-2.637.391-5.957-7.324-15.137-21.289-13.672-36.426.781-8.692,5.274-19.532,5.274-19.629a58.876,58.876,0,0,1,5.469-10.449,54.542,54.542,0,0,0,4-7.227c4-8.594,5.469-18.555,4.492-29.59h16.406ZM153.568,485.065a40.583,40.583,0,0,0,11.817-13.281l10.156-18.36.879,2.246L164.8,485.065Zm8.008-67.677,7.129,18.36-16.114,29a25.974,25.974,0,0,1-15.723,12.4l-2.246.586Zm19.434,66.5L191.069,458.4a7.29,7.29,0,0,0,0-5.371L183.451,433.6h0L168.8,395.9c0-.1-.1-.1-.1-.2L159.037,370.9a205.7,205.7,0,0,0,24.512,2.051l7.324,26.954h0l15.332,56.446a6.828,6.828,0,0,1-1.563,5.859l-12.5,14.356A24.48,24.48,0,0,1,181.01,483.894Zm17.774-111.232c1.66-.1,3.32-.2,5.078-.293l-3.418,6.152Zm5.371-119.435c.977,8.985,0,16.895-3.027,23.438-.977,2.051-2.051,3.809-3.223,5.762a86.928,86.928,0,0,0-6.543,12.5c-.586,1.27-5.273,13.184-6.348,23.828-.781,7.91.1,22.364,11.231,39.356-2.344.1-4.688.2-7.031.2a181.922,181.922,0,0,1-39.747-4.1c-.1,0-.2-.1-.391-.1a175.444,175.444,0,0,1-25.977-7.617v-25.1A22.288,22.288,0,0,1,123.49,317a29.381,29.381,0,0,1,1.074-4.2l21.485-59.669h58.106Zm-80.275,8.4,8.692-44.434,1.074,27.637L122.708,275.3h-4.785A35.843,35.843,0,0,0,123.88,261.625ZM38.137,289.848h79.2l-6.445,17.969c-.1.2-.1.391-.2.586H60.891A23.422,23.422,0,0,1,38.137,289.848Zm30.079,33.2h40.333v23.731a14.418,14.418,0,0,0,9.18,13.379,200.318,200.318,0,0,0,24.414,7.422l11.914,30.567-32.911,73.829a14.38,14.38,0,0,0,.586,13.086H68.215ZM204.253,485.065l11.621-13.379a21.7,21.7,0,0,0,4.785-18.848.359.359,0,0,0-.1-.293l-14.649-53.809,15.918-28.711a201.569,201.569,0,0,0,36.524-9.863,14.268,14.268,0,0,0,9.277-13.379V320.219a41.929,41.929,0,0,0-1.465-10.742L260.7,289.848H462.362A23.36,23.36,0,0,1,439.705,308.4H298.492a7.324,7.324,0,0,0,0,14.649H432.381V485.065H204.253Z" transform="translate(0)" fill="#0f2132"/>
      <g id="Group_2739" data-name="Group 2739">
        <path id="Path_2915" data-name="Path 2915" d="M338.724,234.962a7.378,7.378,0,0,0,7.324-7.324c0-12.988,4-19.239,8.594-26.368,5.176-8.008,10.938-16.992,10.938-34.375s-5.859-26.368-10.938-34.375a7.341,7.341,0,1,0-12.3,8.008c4.59,7.129,8.594,13.379,8.594,26.368s-4,19.239-8.594,26.368c-5.176,8.008-10.938,16.992-10.938,34.375A7.314,7.314,0,0,0,338.724,234.962Z" transform="translate(-7.224 -3.025)" fill="#e65400"/>
        <path id="Path_2916" data-name="Path 2916" d="M338.724,111.292a7.378,7.378,0,0,0,7.324-7.324c0-12.988,4-19.239,8.594-26.368,5.176-8.008,10.938-16.992,10.938-34.375a7.324,7.324,0,1,0-14.649,0c0,12.988-4,19.239-8.594,26.368C337.162,77.6,331.4,86.584,331.4,103.967A7.253,7.253,0,0,0,338.724,111.292Z" transform="translate(-7.224 -0.841)" fill="#e65400"/>
        <path id="Path_2917" data-name="Path 2917" d="M396.524,236.282a7.378,7.378,0,0,0,7.324-7.324c0-12.988,4-19.239,8.594-26.368q1.9-2.93,3.809-6.152a7.3,7.3,0,0,0-12.7-7.227c-1.074,1.855-2.148,3.613-3.418,5.469-5.176,8.008-10.938,16.992-10.938,34.375A7.358,7.358,0,0,0,396.524,236.282Z" transform="translate(-8.578 -4.345)" fill="#e65400"/>
        <path id="Path_2918" data-name="Path 2918" d="M408.831,164.71a7.324,7.324,0,1,0,14.649,0c0-17.383-5.859-26.368-10.938-34.375-4.59-7.129-8.594-13.379-8.594-26.368s4-19.239,8.594-26.368c5.176-8.008,10.938-16.992,10.938-34.375a7.324,7.324,0,0,0-14.649,0c0,12.988-4,19.239-8.594,26.368C395.062,77.6,389.3,86.584,389.3,103.967s5.859,26.368,10.938,34.375C404.828,145.472,408.831,151.722,408.831,164.71Z" transform="translate(-8.58 -0.841)" fill="#e65400"/>
        <path id="Path_2919" data-name="Path 2919" d="M446.5,226.579a7.324,7.324,0,1,0,14.649,0c0-12.988,4-19.239,8.594-26.368,5.176-8.008,10.938-16.992,10.938-34.375s-5.859-26.368-10.938-34.375c-4.59-7.129-8.594-13.379-8.594-26.368a44.721,44.721,0,0,1,1.465-11.914,7.332,7.332,0,0,0-14.16-3.809,60.793,60.793,0,0,0-1.953,15.723c0,17.383,5.859,26.368,10.938,34.375,4.59,7.129,8.594,13.379,8.594,26.368s-4,19.239-8.594,26.368C452.359,200.211,446.5,209.2,446.5,226.579Z" transform="translate(-9.92 -1.966)" fill="#e65400"/>
        <path id="Path_2920" data-name="Path 2920" d="M465.7,71.74a7.886,7.886,0,0,0,3.32.781,7.351,7.351,0,0,0,6.543-4c3.809-7.617,5.566-15.625,5.566-25.293a7.324,7.324,0,0,0-14.649,0c0,9.473-2.148,14.942-4,18.653A7.271,7.271,0,0,0,465.7,71.74Z" transform="translate(-10.275 -0.841)" fill="#e65400"/>
      </g>
    </g>
  </g>
</svg>
