<?xml version="1.0" encoding="utf-8"?>
<!-- Generator: Adobe Illustrator 26.3.1, SVG Export Plug-In . SVG Version: 6.00 Build 0)  -->
<!DOCTYPE svg PUBLIC "-//W3C//DTD SVG 1.1//EN" "http://www.w3.org/Graphics/SVG/1.1/DTD/svg11.dtd" [
	<!ENTITY ns_extend "http://ns.adobe.com/Extensibility/1.0/">
	<!ENTITY ns_ai "http://ns.adobe.com/AdobeIllustrator/10.0/">
	<!ENTITY ns_graphs "http://ns.adobe.com/Graphs/1.0/">
	<!ENTITY ns_vars "http://ns.adobe.com/Variables/1.0/">
	<!ENTITY ns_imrep "http://ns.adobe.com/ImageReplacement/1.0/">
	<!ENTITY ns_sfw "http://ns.adobe.com/SaveForWeb/1.0/">
	<!ENTITY ns_custom "http://ns.adobe.com/GenericCustomNamespace/1.0/">
	<!ENTITY ns_adobe_xpath "http://ns.adobe.com/XPath/1.0/">
]>
<svg version="1.1" id="Layer_1" xmlns:x="&ns_extend;" xmlns:i="&ns_ai;" xmlns:graph="&ns_graphs;"
	 xmlns="http://www.w3.org/2000/svg" xmlns:xlink="http://www.w3.org/1999/xlink" x="0px" y="0px" viewBox="0 0 512 512"
	 style="enable-background:new 0 0 512 512;" xml:space="preserve">
<style type="text/css">
	.st0{fill:#0F2132;}
	.st1{fill:#E65400;}
	.st2{fill:#FFFFFF;}
</style>
<metadata>
	<sfw  xmlns="&ns_sfw;">
		<slices></slices>
		<sliceSourceBounds  bottomLeftOrigin="true" height="512.8" width="1166.2" x="8" y="-0.4"></sliceSourceBounds>
	</sfw>
</metadata>
<rect x="661.4" y="-0.4" class="st0" width="512.8" height="512.8"/>
<g>
	<path class="st0" d="M480,392h-41.1c-3.6-13.8-16-24-30.9-24v-56.2c6.7,5.1,15,8.2,24,8.2c22.1,0,40-17.9,40-40
		c0-2.5-0.3-5-0.8-7.5C481.7,265,488,253.1,488,240c0-11.3-4.7-21.7-12.8-29.2c3.1-5.8,4.8-12.2,4.8-18.8c0-9.9-3.7-19.4-10.4-26.7
		c1.6-4.3,2.4-8.8,2.4-13.3c0-20.5-15.5-37.4-35.3-39.7C430.5,97.7,416.2,88,400,88s-30.5,9.7-36.7,24.3
		c-19.9,2.3-35.3,19.2-35.3,39.7c0,4.5,0.8,9,2.4,13.3c-4.2,4.6-7.1,10.1-8.7,16c-9.8-8.4-21.3-13.3-33.7-13.3
		c-15.2,0-29.2,7.4-40.2,19.6c-1-10.7-5.8-21-13.4-28.6l-23-23H248v-16.1c0-7.5-3.7-14.7-10-19.1C209.1,80,185.7,52,170.5,19.9
		C167.1,12.5,160,8,152,8s-15.1,4.5-18.5,11.9C118.3,52,94.9,80,66,100.7c-6.2,4.5-10,11.6-10,19.1V136h36.7l-23,23
		C61,167.7,56,179.7,56,192v8h36.7l-23,23C61,231.7,56,243.7,56,256v8h88v32c-20.5,0-37.4,15.5-39.7,35.3
		C89.7,337.5,80,351.8,80,368c0,8.8,3,17.3,8,24c-13.2,0-24,10.8-24,24c0,4.4-3.6,8-8,8H32c-13.2,0-24,10.8-24,24s10.8,24,24,24
		h41.5c-0.9,2.5-1.5,5.2-1.5,8c0,13.2,10.8,24,24,24h312c13.2,0,24-10.8,24-24s-10.8-24-24-24h-16h-8c-4.4,0-8-3.6-8-8s3.6-8,8-8h96
		c13.2,0,24-10.8,24-24S493.2,392,480,392L480,392z M421.7,392H314.4c1.9-3.2,4.7-5.7,8.4-7l5.6-1.9l-0.2-5.9c0-0.5-0.1-1-0.1-1.2
		c0-13.2,10.8-24,24-24c8.5,0,16.5,4.7,20.8,12.3l1.9,3.4l3.8,0.6c6.2,1,11.2,5.5,12.8,11.6l2.4,8.7l8.4-3.4
		C409.8,382.1,417.8,385.7,421.7,392L421.7,392z M296,343.2c17.8-3.1,33.4-16.3,43.6-35.3c7.4,7.5,17.6,12.1,28.4,12.1
		c9,0,17.3-3.1,24-8.2v44.7c-2.3-1.3-4.7-2.5-7.2-3.2c-7.4-10.8-19.7-17.3-32.8-17.3c-20.8,0-38,16-39.8,36.3
		c-7.5,4.3-13,11.4-15.1,19.7h-1V343.2z M345,173.4l5.2-4.2l-3.2-5.9c-2-3.7-3-7.5-3-11.4c0-13.2,10.8-24,23.5-24l7.8,0.4l1.6-6.3
		c2.7-10.6,12.2-18.1,23.2-18.1s20.4,7.4,23.2,18.1l1.6,6.3l6.5-0.3c0.4,0,0.8-0.1,0.7-0.1c13.2,0,24,10.8,24,24c0,3.8-1,7.7-3,11.4
		l-3.2,5.9l5.2,4.2c5.7,4.6,9,11.4,9,18.6c0,7.1-3.2,12.3-5.8,15.4l-6.1,7.2l8.1,4.8c7.4,4.4,11.8,12.1,11.8,20.5
		c0,9.2-5.2,17.5-13.6,21.5l-6.6,3.2l2.6,6.8c1.1,2.9,1.6,5.7,1.6,8.5c0,13.2-10.8,24-24,24s-24-10.8-24-24v-21.2l30.2-37.8
		l-12.5-10L408,233.2V152h-16v49.2L374.2,179l-12.5,10l30.3,37.8V280c0,13.2-10.8,24-24,24c-9,0-17.2-5.2-21.3-13
		c3.4-10.7,5.3-22.5,5.3-35c0-22.2-6.1-42.5-16-58v-6C336,184.8,339.3,178.1,345,173.4L345,173.4z M288,184c26.5,0,48,32.3,48,72
		c0,35.6-17.3,65.2-40,70.9v-60.1l30.2-37.8l-12.5-10L296,241.2V216h-16v61.6l-17.3-26l-13.3,8.9l30.7,46v20.5
		c-22.7-5.7-40-35.3-40-70.9C240,216.3,261.5,184,288,184L288,184z M238.7,200c-3.4,5.7-6.3,12-8.6,18.8L211.3,200H238.7z M81,234.3
		l34.3-34.3H128v-16H73.1c1.4-5.1,4.1-9.9,7.9-13.7l34.3-34.3H128v-16H72v-0.1c0-2.4,1.2-4.6,3.3-6.1c31.2-22.3,56.3-52.4,72.6-87
		c1.6-3.4,6.5-3.4,8.1,0c16.4,34.6,41.5,64.7,72.6,87c2.1,1.5,3.3,3.8,3.3,6.1l-56,0.1v16h12.7l34.3,34.3c3.8,3.8,6.5,8.5,7.9,13.7
		H176v16h12.7l34.3,34.3c0.9,0.9,1.7,1.8,2.5,2.8c-0.6,3.5-1,7.1-1.2,10.8H73.1C74.5,242.9,77.2,238.1,81,234.3z M160,264h64.3
		c2.7,41.1,26.1,74.1,55.7,79.2V392h-32.1c5.2-6.9,8.1-15.3,8.1-24c0-22.1-17.9-40-40-40c-2.5,0-5,0.3-7.5,0.8
		C201,318.3,189.1,312,176,312c-0.1,0-0.1,0-0.2,0c-4.2-5.5-9.6-9.8-15.8-12.5V264z M114.1,344.8l6.3-1.6l-0.3-6.5
		c0-0.4-0.1-0.8-0.1-0.8c0,0,0,0,0,0c0-13.2,10.8-24,24-24c8.6,0,16.5,4.7,20.8,12.3l3.4,4.7l5.4-0.8c0.8-0.1,1.6-0.2,2.4-0.2
		c9.2,0,17.5,5.2,21.5,13.6l3.2,6.6l6.9-2.6C224,339.4,240,352,240,368c0,6.9-3,13.4-8.1,18l-4.6,6H109.7l-5.6-6
		c-5.2-4.6-8.1-11.1-8.1-18C96,357.1,103.4,347.6,114.1,344.8L114.1,344.8z M480,424h-96c-13.2,0-24,10.8-24,24c0,2.8,0.6,5.5,1.5,8
		H344v16h40h8h16c4.4,0,8,3.6,8,8s-3.6,8-8,8H96c-4.4,0-8-3.6-8-8s3.6-8,8-8h24h24v-16h-24H96H32c-4.4,0-8-3.6-8-8s3.6-8,8-8h24
		c13.2,0,24-10.8,24-24c0-4.4,3.6-8,8-8h392c4.4,0,8,3.6,8,8S484.4,424,480,424z"/>
	<path class="st1" d="M192,444c0-11-9-20-20-20h-28v16h28c2.2,0,4,1.8,4,4c0,11,9,20,20,20h28v-16h-28C193.8,448,192,446.2,192,444z
		"/>
</g>
<g>
	<path class="st2" d="M1141.8,392h-41.1c-3.6-13.8-16-24-30.9-24v-56.2c6.7,5.1,15,8.2,24,8.2c22.1,0,40-17.9,40-40
		c0-2.5-0.3-5-0.8-7.5c10.5-7.4,16.8-19.4,16.8-32.5c0-11.3-4.7-21.7-12.8-29.2c3.1-5.8,4.8-12.2,4.8-18.8c0-9.9-3.7-19.4-10.4-26.7
		c1.6-4.3,2.4-8.8,2.4-13.3c0-20.5-15.5-37.4-35.3-39.7c-6.2-14.6-20.5-24.3-36.7-24.3c-16.2,0-30.5,9.7-36.7,24.3
		c-19.9,2.3-35.3,19.2-35.3,39.7c0,4.5,0.8,9,2.4,13.3c-4.2,4.6-7.1,10.1-8.7,16c-9.8-8.4-21.3-13.3-33.7-13.3
		c-15.2,0-29.2,7.4-40.2,19.6c-1-10.7-5.8-21-13.4-28.6l-23-23h36.7v-16.1c0-7.5-3.7-14.7-10-19.1C870.9,80,847.5,52,832.3,19.9
		C828.9,12.5,821.8,8,813.8,8c-8,0-15.1,4.5-18.5,11.9C780.1,52,756.7,80,727.8,100.7c-6.2,4.5-10,11.6-10,19.1V136h36.7l-23,23
		c-8.7,8.7-13.7,20.7-13.7,33v8h36.7l-23,23c-8.7,8.7-13.7,20.7-13.7,33v8h88v32c-20.5,0-37.4,15.5-39.7,35.3
		c-14.6,6.2-24.3,20.5-24.3,36.7c0,8.8,3,17.3,8,24c-13.2,0-24,10.8-24,24c0,4.4-3.6,8-8,8h-24c-13.2,0-24,10.8-24,24s10.8,24,24,24
		h41.5c-0.9,2.5-1.5,5.2-1.5,8c0,13.2,10.8,24,24,24h312c13.2,0,24-10.8,24-24s-10.8-24-24-24h-16h-8c-4.4,0-8-3.6-8-8s3.6-8,8-8h96
		c13.2,0,24-10.8,24-24S1155,392,1141.8,392L1141.8,392z M1083.5,392H976.2c1.9-3.2,4.7-5.7,8.4-7l5.6-1.9l-0.2-5.9
		c0-0.5-0.1-1-0.1-1.2c0-13.2,10.8-24,24-24c8.5,0,16.5,4.7,20.8,12.3l1.9,3.4l3.8,0.6c6.2,1,11.2,5.5,12.8,11.6l2.4,8.7l8.4-3.4
		C1071.6,382.1,1079.6,385.7,1083.5,392L1083.5,392z M957.8,343.2c17.8-3.1,33.4-16.3,43.6-35.3c7.4,7.5,17.6,12.1,28.4,12.1
		c9,0,17.3-3.1,24-8.2v44.7c-2.3-1.3-4.7-2.5-7.2-3.2c-7.4-10.8-19.7-17.3-32.8-17.3c-20.8,0-38,16-39.8,36.3
		c-7.5,4.3-13,11.4-15.1,19.7h-1V343.2z M1006.8,173.4l5.2-4.2l-3.2-5.9c-2-3.7-3-7.5-3-11.4c0-13.2,10.8-24,23.5-24l7.8,0.4
		l1.6-6.3c2.7-10.6,12.2-18.1,23.2-18.1s20.4,7.4,23.2,18.1l1.6,6.3l6.5-0.3c0.4,0,0.8-0.1,0.7-0.1c13.2,0,24,10.8,24,24
		c0,3.8-1,7.7-3,11.4l-3.2,5.9l5.2,4.2c5.7,4.6,9,11.4,9,18.6c0,7.1-3.2,12.3-5.8,15.4l-6.1,7.2l8.1,4.8
		c7.4,4.4,11.8,12.1,11.8,20.5c0,9.2-5.2,17.5-13.6,21.5l-6.6,3.2l2.6,6.8c1.1,2.9,1.6,5.7,1.6,8.5c0,13.2-10.8,24-24,24
		c-13.2,0-24-10.8-24-24v-21.2L1100,221l-12.5-10l-17.7,22.2V152h-16v49.2L1036,179l-12.5,10l30.3,37.8V280c0,13.2-10.8,24-24,24
		c-9,0-17.2-5.2-21.3-13c3.4-10.7,5.3-22.5,5.3-35c0-22.2-6.1-42.5-16-58v-6C997.8,184.8,1001.1,178.1,1006.8,173.4L1006.8,173.4z
		 M949.8,184c26.5,0,48,32.3,48,72c0,35.6-17.3,65.2-40,70.9v-60.1L988,229l-12.5-10l-17.7,22.2V216h-16v61.6l-17.3-26l-13.3,8.9
		l30.7,46v20.5c-22.7-5.7-40-35.3-40-70.9C901.8,216.3,923.3,184,949.8,184L949.8,184z M900.5,200c-3.4,5.7-6.3,12-8.6,18.8
		L873.1,200H900.5z M742.8,234.3l34.3-34.3h12.7v-16h-54.9c1.4-5.1,4.1-9.9,7.9-13.7l34.3-34.3h12.7v-16h-56v-0.1
		c0-2.4,1.2-4.6,3.3-6.1c31.2-22.3,56.3-52.4,72.6-87c1.6-3.4,6.5-3.4,8.1,0c16.4,34.6,41.5,64.7,72.6,87c2.1,1.5,3.3,3.8,3.3,6.1
		l-56,0.1v16h12.7l34.3,34.3c3.8,3.8,6.5,8.5,7.9,13.7h-54.9v16h12.7l34.3,34.3c0.9,0.9,1.7,1.8,2.5,2.8c-0.6,3.5-1,7.1-1.2,10.8
		H734.9C736.3,242.9,739,238.1,742.8,234.3z M821.8,264h64.3c2.7,41.1,26.1,74.1,55.7,79.2V392h-32.1c5.2-6.9,8.1-15.3,8.1-24
		c0-22.1-17.9-40-40-40c-2.5,0-5,0.3-7.5,0.8c-7.4-10.5-19.3-16.8-32.5-16.8c-0.1,0-0.1,0-0.2,0c-4.2-5.5-9.6-9.8-15.8-12.5V264z
		 M775.9,344.8l6.3-1.6l-0.3-6.5c0-0.4-0.1-0.8-0.1-0.8c0,0,0,0,0,0c0-13.2,10.8-24,24-24c8.6,0,16.5,4.7,20.8,12.3l3.4,4.7l5.4-0.8
		c0.8-0.1,1.6-0.2,2.4-0.2c9.2,0,17.5,5.2,21.5,13.6l3.2,6.6l6.9-2.6c16.5-6.2,32.4,6.4,32.4,22.4c0,6.9-3,13.4-8.1,18l-4.6,6H771.5
		l-5.6-6c-5.2-4.6-8.1-11.1-8.1-18C757.8,357.1,765.2,347.6,775.9,344.8L775.9,344.8z M1141.8,424h-96c-13.2,0-24,10.8-24,24
		c0,2.8,0.6,5.5,1.5,8h-17.5v16h40h8h16c4.4,0,8,3.6,8,8s-3.6,8-8,8h-312c-4.4,0-8-3.6-8-8s3.6-8,8-8h24h24v-16h-24h-24h-64
		c-4.4,0-8-3.6-8-8s3.6-8,8-8h24c13.2,0,24-10.8,24-24c0-4.4,3.6-8,8-8h392c4.4,0,8,3.6,8,8S1146.2,424,1141.8,424z"/>
	<path class="st2" d="M853.8,444c0-11-9-20-20-20h-28v16h28c2.2,0,4,1.8,4,4c0,11,9,20,20,20h28v-16h-28
		C855.6,448,853.8,446.2,853.8,444z"/>
</g>
</svg>
