<?xml version="1.0" encoding="utf-8"?>
<!-- Generator: Adobe Illustrator 26.0.3, SVG Export Plug-In . SVG Version: 6.00 Build 0)  -->
<svg version="1.1" id="Layer_1" xmlns="http://www.w3.org/2000/svg" xmlns:xlink="http://www.w3.org/1999/xlink" x="0px" y="0px"
	 viewBox="0 0 512 512" style="enable-background:new 0 0 512 512;" xml:space="preserve">
<style type="text/css">
	.st0{fill:#fff;}
	.st1{fill:#0F2132;}
	.st2{fill:#E65400;}
</style>
<rect x="-0.1" y="-0.3" class="st0" width="512.2" height="512.6"/>
<g id="_x30_36---Nature-Walk">
	<path id="Shape" class="st1" d="M25.6,494.9H8.5c-4.7,0-8.5,3.8-8.5,8.5c0,4.7,3.8,8.5,8.5,8.5h17.1c4.7,0,8.5-3.8,8.5-8.5
		C34.1,498.8,30.3,494.9,25.6,494.9z"/>
	<path id="Shape_00000121964184214003164400000006970394263509296315_" class="st2" d="M477.2,43.4c-4.1-24.7-25.5-42.9-50.5-42.9
		s-46.4,18.1-50.5,42.9c-21.6,4.1-36.5,24-34.4,45.8c2,21.9,20.3,38.6,42.3,38.7h51.2c4.7,0,8.5-3.8,8.5-8.5c0-4.7-3.8-8.5-8.5-8.5
		H384c-12.5-0.2-23-9.4-24.8-21.8s5.5-24.2,17.3-28.1c1.4,7.6,4.6,14.7,9.2,20.9c1.6,2.1,4.1,3.4,6.8,3.4c3.2,0,6.2-1.8,7.6-4.7
		c1.4-2.9,1.1-6.4-0.8-8.9c-8.4-11.1-9.2-26.3-1.9-38.2c7.2-11.9,21-18.3,34.8-16c13.8,2.3,24.8,12.7,27.8,26.3
		c-8.7,2-16.7,6.6-22.6,13.3c-2.6,3.6-2,8.5,1.3,11.4c3.3,2.9,8.3,2.8,11.5-0.2c7.8-8.8,20.6-11.1,31-5.6s15.7,17.3,12.9,28.7
		s-13,19.5-24.7,19.5c-4.7,0-8.5,3.8-8.5,8.5c0,4.7,3.8,8.5,8.5,8.5c22-0.1,40.2-16.9,42.3-38.7C513.6,67.4,498.7,47.6,477.2,43.4
		L477.2,43.4z"/>
	<path id="Shape_00000070087168476734262590000005838074165659345555_" class="st2" d="M102.4,153.6c0-4.7-3.8-8.5-8.5-8.5H42.7
		c-12.5-0.2-23-9.4-24.8-21.8S23.3,99,35.2,95.1c1.4,7.6,4.6,14.7,9.2,20.9c1.6,2.1,4.1,3.4,6.8,3.4c3.2,0,6.2-1.8,7.6-4.7
		c1.4-2.9,1.1-6.4-0.8-8.9c-8.4-11.1-9.2-26.3-1.9-38.2s21-18.3,34.8-16c13.8,2.3,24.8,12.7,27.8,26.3c-8.7,2-16.7,6.6-22.6,13.3
		c-2.6,3.6-2,8.5,1.3,11.4c3.3,2.9,8.3,2.8,11.5-0.2c7.8-8.8,20.6-11.1,31-5.6c10.4,5.5,15.7,17.3,12.9,28.7
		c-2.8,11.4-13,19.5-24.7,19.5c-4.7,0-8.5,3.8-8.5,8.5s3.8,8.5,8.5,8.5c22-0.1,40.2-16.9,42.3-38.7c2-21.9-12.9-41.7-34.4-45.8
		c-4.1-24.7-25.5-42.9-50.5-42.9S38.9,52.8,34.8,77.6c-21.6,4.1-36.5,24-34.4,45.8s20.3,38.6,42.3,38.7h51.2
		C98.6,162.1,102.4,158.3,102.4,153.6z"/>
	<path id="Shape_00000179632081661475091480000012192851889643578512_" class="st1" d="M418.1,384v-42.7c0-4.7-3.8-8.5-8.5-8.5
		c-4.7,0-8.5,3.8-8.5,8.5V384h-34.1c-4.7,0-8.5,3.8-8.5,8.5s3.8,8.5,8.5,8.5h34.1C410.5,401.1,418.1,393.4,418.1,384z"/>
	<path id="Shape_00000075870826362650894580000003822478548456499124_" class="st1" d="M469.3,256h-17.1v-25.6
		c0-28.3-22.9-51.2-51.2-51.2h-51.2c-28.3,0-51.2,22.9-51.2,51.2V384c0,28.3,22.9,51.2,51.2,51.2h17.1v59.7H253.8
		c1.7-5.3,1.7-11,0-16.3l-20-54.2c-4.9-13.1-10-16.4-37.5-43.1v-25.6c6.4,4.1,6.9,3.7,53.6,18.8c13.1,2.2,25.7-5.9,29.1-18.7
		c3.4-12.8-3.6-26.1-16.1-30.6c-45.3-14.5-34.6-8.5-59.3-31.9c-8-7.6-18.5-11.7-29.5-11.7h-35.3c-8.7,0-17.2,2.6-24.3,7.6
		c-24.9,17.1-32.9,21.3-39.2,32c-18.9,31.5-21.1,34.1-21.4,34.7c-4.8,12.3,0.6,26.3,12.5,32.2s26.2,1.8,33.2-9.5
		c18-28.5,17.1-27.7,20.1-30.5v67.1c0,11.4-3.1,13.7-28.6,58.5c-3.6,6.5-4.3,14.3-1.7,21.2H59.7c-4.7,0-8.5,3.8-8.5,8.5
		s3.8,8.5,8.5,8.5h443.7c4.7,0,8.5-3.8,8.5-8.5s-3.8-8.5-8.5-8.5h-42.7v-34.1h8.5c23.6,0,42.7-19.1,42.7-42.7V298.7
		C512,275.1,492.9,256,469.3,256L469.3,256z M315.7,384V230.4c0-18.9,15.3-34.1,34.1-34.1h51.2c18.9,0,34.1,15.3,34.1,34.1V384
		c0,18.9-15.3,34.1-34.1,34.1h-51.2C331,418.1,315.7,402.9,315.7,384z M113.1,331.3c-9,6.2-10.8,10.5-28.3,38.5v0.9
		c-2.3,3.5-6.8,4.9-10.7,3.1c-3.8-1.8-5.8-6.1-4.7-10.1c20.1-32.6,22.1-37.6,28.4-42l26.7-18.5c4.2-2.8,9.1-4.4,14.2-4.5H174
		c21.1,0,26.5,24.3,49.8,32.2l34.1,10.9c4.2,1.3,6.7,5.6,5.8,9.9c-0.9,4.3-4.9,7.2-9.3,6.8c-46.7-15.1-47.5-14.5-53.2-20
		c-5.6-5.5-5.1-4.6-5.1-5.6c0-4.7-3.8-8.5-8.5-8.5c-4.7,0-8.5,3.8-8.5,8.5v42.7h-42.7v-38.9c3.4-1.6,6.9-2.9,10.5-3.8
		c4.7-1.1,7.7-5.8,6.6-10.5s-5.8-7.7-10.5-6.6C132.1,318.8,121.9,324.2,113.1,331.3L113.1,331.3z M105.7,482.1
		c34.1-59.7,30.8-46.9,30.8-89.6h46.8c27,26.2,31.1,28.8,34.6,37.9l20.1,53.6c1.2,4.6-1.6,9.2-6.2,10.4c-4.6,1.2-9.2-1.6-10.4-6.2
		c-23.1-61.5-16.6-49.8-37.6-74.9c-4.6-5.5-12.2-7.5-19-5c-6.7,2.5-11.2,8.9-11.2,16.1c0,5.6-1.5,11.2-4.3,16l-28.8,50.1
		c-2.4,4.1-7.6,5.5-11.7,3.2c-4.1-2.4-5.5-7.6-3.2-11.7L105.7,482.1z M164.2,448.9c4.2-7.5,6.4-15.9,6.5-24.5
		c19.2,22.6,12.5,10.4,34.1,69.2l0.5,1.4H137L164.2,448.9z M443.7,494.9H384v-59.7h12.2c6.8,15.5,22.1,25.6,39,25.6h8.5V494.9z
		 M494.9,418.1c0,14.1-11.5,25.6-25.6,25.6h-34.1c-8.1,0-15.7-3.9-20.5-10.4c22.2-6.1,37.5-26.3,37.5-49.3V273.1h17.1
		c14.1,0,25.6,11.5,25.6,25.6V418.1z"/>
	<path id="Shape_00000062157652995694017040000012707434459082602404_" class="st1" d="M162.1,196.3c-18.9,0-34.1,15.3-34.1,34.1
		s15.3,34.1,34.1,34.1s34.1-15.3,34.1-34.1S181,196.3,162.1,196.3z M162.1,247.5c-9.4,0-17.1-7.6-17.1-17.1
		c0-9.4,7.6-17.1,17.1-17.1c9.4,0,17.1,7.6,17.1,17.1C179.2,239.8,171.6,247.5,162.1,247.5z"/>
	<path id="Shape_00000103250935412303657810000003755272013294927528_" class="st1" d="M230.4,85.3c23.6,0,42.7-19.1,42.7-42.7
		S254,0,230.4,0s-42.7,19.1-42.7,42.7S206.8,85.3,230.4,85.3z M230.4,17.1c14.1,0,25.6,11.5,25.6,25.6s-11.5,25.6-25.6,25.6
		c-14.1,0-25.6-11.5-25.6-25.6S216.3,17.1,230.4,17.1z"/>
	<path id="Shape_00000013176592360674299490000006518469779332702653_" class="st1" d="M409.6,315.7c4.7,0,8.5-3.8,8.5-8.5v-17.1
		c0-4.7-3.8-8.5-8.5-8.5c-4.7,0-8.5,3.8-8.5,8.5v17.1C401.1,311.9,404.9,315.7,409.6,315.7z"/>
</g>
<g id="_x30_36---Nature-Walk_00000183937097694354208340000001499235110371077049_">
	<path id="Shape_00000163765382043257989290000014435529257545068970_" class="st0" d="M-645.4,494.9h-17.1c-4.7,0-8.5,3.8-8.5,8.5
		c0,4.7,3.8,8.5,8.5,8.5h17.1c4.7,0,8.5-3.8,8.5-8.5C-636.8,498.8-640.7,494.9-645.4,494.9z"/>
	<path id="Shape_00000098936110022996737330000017942019802521079680_" class="st2" d="M-193.8,43.4c-4.1-24.7-25.5-42.9-50.5-42.9
		s-46.4,18.1-50.5,42.9c-21.6,4.1-36.5,24-34.4,45.8s20.3,38.6,42.3,38.7h51.2c4.7,0,8.5-3.8,8.5-8.5c0-4.7-3.8-8.5-8.5-8.5H-287
		c-12.5-0.2-23-9.4-24.8-21.8s5.5-24.2,17.3-28.1c1.4,7.6,4.6,14.7,9.2,20.9c1.6,2.1,4.1,3.4,6.8,3.4c3.2,0,6.2-1.8,7.6-4.7
		c1.4-2.9,1.1-6.4-0.8-8.9c-8.4-11.1-9.2-26.3-1.9-38.2s21-18.3,34.8-16S-214,30.1-211,43.8c-8.7,2-16.7,6.6-22.6,13.3
		c-2.6,3.6-2,8.5,1.3,11.4c3.3,2.9,8.3,2.8,11.5-0.2c7.8-8.8,20.6-11.1,31-5.6s15.7,17.3,12.9,28.7s-13,19.5-24.7,19.5
		c-4.7,0-8.5,3.8-8.5,8.5c0,4.7,3.8,8.5,8.5,8.5c22-0.1,40.2-16.9,42.3-38.7C-157.3,67.4-172.2,47.6-193.8,43.4L-193.8,43.4z"/>
	<path id="Shape_00000029008566918905170350000018088384009417462714_" class="st2" d="M-568.6,153.6c0-4.7-3.8-8.5-8.5-8.5h-51.2
		c-12.5-0.2-23-9.4-24.8-21.8s5.5-24.2,17.3-28.1c1.4,7.6,4.6,14.7,9.2,20.9c1.6,2.1,4.1,3.4,6.8,3.4c3.2,0,6.2-1.8,7.6-4.7
		c1.4-2.9,1.1-6.4-0.8-8.9c-8.4-11.1-9.2-26.3-1.9-38.2c7.2-11.9,21-18.3,34.8-16c13.8,2.3,24.8,12.7,27.8,26.3
		c-8.7,2-16.7,6.6-22.6,13.3c-2.6,3.6-2,8.5,1.3,11.4c3.3,2.9,8.3,2.8,11.5-0.2c7.8-8.8,20.6-11.1,31-5.6
		c10.4,5.5,15.7,17.3,12.9,28.7c-2.8,11.4-13,19.5-24.7,19.5c-4.7,0-8.5,3.8-8.5,8.5s3.8,8.5,8.5,8.5c22-0.1,40.2-16.9,42.3-38.7
		c2-21.9-12.9-41.7-34.4-45.8c-4.1-24.7-25.5-42.9-50.5-42.9s-46.4,18.1-50.5,42.9c-21.6,4.1-36.5,24-34.4,45.8
		c2,21.9,20.3,38.6,42.3,38.7h51.2C-572.4,162.1-568.6,158.3-568.6,153.6z"/>
	<path id="Shape_00000115488351147088181720000017896818034400220826_" class="st0" d="M-252.8,384v-42.7c0-4.7-3.8-8.5-8.5-8.5
		s-8.5,3.8-8.5,8.5V384H-304c-4.7,0-8.5,3.8-8.5,8.5s3.8,8.5,8.5,8.5h34.1C-260.5,401.1-252.8,393.4-252.8,384z"/>
	<path id="Shape_00000095317607331943059350000012273600205356309896_" class="st0" d="M-201.6,256h-17.1v-25.6
		c0-28.3-22.9-51.2-51.2-51.2h-51.2c-28.3,0-51.2,22.9-51.2,51.2V384c0,28.3,22.9,51.2,51.2,51.2h17.1v59.7h-113.2
		c1.7-5.3,1.7-11,0-16.3l-20-54.2c-4.9-13.1-10-16.4-37.5-43.1v-25.6c6.4,4.1,6.9,3.7,53.6,18.8c13.1,2.2,25.7-5.9,29.1-18.7
		c3.4-12.8-3.6-26.1-16.1-30.6c-45.3-14.5-34.6-8.5-59.3-31.9c-8-7.6-18.5-11.7-29.5-11.7h-35.3c-8.7,0-17.2,2.6-24.3,7.6
		c-24.9,17.1-32.9,21.3-39.2,32c-18.9,31.5-21.1,34.1-21.4,34.7c-4.8,12.3,0.6,26.3,12.5,32.2s26.2,1.8,33.2-9.5
		c18-28.5,17.1-27.7,20.1-30.5v67.1c0,11.4-3.1,13.7-28.6,58.5c-3.6,6.5-4.3,14.3-1.7,21.2h-29.4c-4.7,0-8.5,3.8-8.5,8.5
		s3.8,8.5,8.5,8.5h443.7c4.7,0,8.5-3.8,8.5-8.5s-3.8-8.5-8.5-8.5h-42.7v-34.1h8.5c23.6,0,42.7-19.1,42.7-42.7V298.7
		C-159,275.1-178.1,256-201.6,256L-201.6,256z M-355.2,384V230.4c0-18.9,15.3-34.1,34.1-34.1h51.2c18.9,0,34.1,15.3,34.1,34.1V384
		c0,18.9-15.3,34.1-34.1,34.1h-51.2C-340,418.1-355.2,402.9-355.2,384z M-557.9,331.3c-9,6.2-10.8,10.5-28.3,38.5v0.9
		c-2.3,3.5-6.8,4.9-10.7,3.1c-3.8-1.8-5.8-6.1-4.7-10.1c20.1-32.6,22.1-37.6,28.4-42l26.7-18.5c4.2-2.8,9.1-4.4,14.2-4.5h35.3
		c21.1,0,26.5,24.3,49.8,32.2l34.1,10.9c4.2,1.3,6.7,5.6,5.8,9.9c-0.9,4.3-4.9,7.2-9.3,6.8c-46.7-15.1-47.5-14.5-53.2-20
		c-5.6-5.5-5.1-4.6-5.1-5.6c0-4.7-3.8-8.5-8.5-8.5c-4.7,0-8.5,3.8-8.5,8.5v42.7h-42.7v-38.9c3.4-1.6,6.9-2.9,10.5-3.8
		c4.7-1.1,7.7-5.8,6.6-10.5c-1.1-4.7-5.8-7.7-10.5-6.6C-538.8,318.8-549.1,324.2-557.9,331.3L-557.9,331.3z M-565.3,482.1
		c34.1-59.7,30.8-46.9,30.8-89.6h46.8c27,26.2,31.1,28.8,34.6,37.9l20.1,53.6c1.2,4.6-1.6,9.2-6.2,10.4c-4.6,1.2-9.2-1.6-10.4-6.2
		c-23.1-61.5-16.6-49.8-37.6-74.9c-4.6-5.5-12.2-7.5-19-5c-6.7,2.5-11.2,8.9-11.2,16.1c0,5.6-1.5,11.2-4.3,16l-28.8,50.1
		c-2.4,4.1-7.6,5.5-11.7,3.2s-5.5-7.6-3.2-11.7V482.1z M-506.8,448.9c4.2-7.5,6.4-15.9,6.5-24.5c19.2,22.6,12.5,10.4,34.1,69.2
		l0.5,1.4h-68.3L-506.8,448.9z M-227.2,494.9H-287v-59.7h12.2c6.8,15.5,22.1,25.6,39,25.6h8.5V494.9z M-176,418.1
		c0,14.1-11.5,25.6-25.6,25.6h-34.1c-8.1,0-15.7-3.9-20.5-10.4c22.2-6.1,37.5-26.3,37.5-49.3V273.1h17.1c14.1,0,25.6,11.5,25.6,25.6
		V418.1z"/>
	<path id="Shape_00000040545217497840642380000004737407043197291182_" class="st0" d="M-508.8,196.3c-18.9,0-34.1,15.3-34.1,34.1
		s15.3,34.1,34.1,34.1c18.9,0,34.1-15.3,34.1-34.1S-490,196.3-508.8,196.3z M-508.8,247.5c-9.4,0-17.1-7.6-17.1-17.1
		c0-9.4,7.6-17.1,17.1-17.1c9.4,0,17.1,7.6,17.1,17.1C-491.8,239.8-499.4,247.5-508.8,247.5z"/>
	<path id="Shape_00000065033705742524606580000010568341481147394983_" class="st0" d="M-440.6,85.3c23.6,0,42.7-19.1,42.7-42.7
		S-417,0-440.6,0s-42.7,19.1-42.7,42.7S-464.1,85.3-440.6,85.3z M-440.6,17.1c14.1,0,25.6,11.5,25.6,25.6s-11.5,25.6-25.6,25.6
		s-25.6-11.5-25.6-25.6S-454.7,17.1-440.6,17.1z"/>
	<path id="Shape_00000144307060629417082390000009388964875903279536_" class="st0" d="M-261.4,315.7c4.7,0,8.5-3.8,8.5-8.5v-17.1
		c0-4.7-3.8-8.5-8.5-8.5s-8.5,3.8-8.5,8.5v17.1C-269.9,311.9-266.1,315.7-261.4,315.7z"/>
</g>
</svg>
