<?xml version="1.0" encoding="utf-8"?>
<!-- Generator: Adobe Illustrator 26.2.1, SVG Export Plug-In . SVG Version: 6.00 Build 0)  -->
<svg version="1.1" id="Layer_1" xmlns="http://www.w3.org/2000/svg" xmlns:xlink="http://www.w3.org/1999/xlink" x="0px" y="0px"
	 viewBox="0 0 512 512" style="enable-background:new 0 0 512 512;" xml:space="preserve">
<style type="text/css">
	.st0{fill:#0F2132;}
	.st1{fill:#E4540E;}
	.st2{fill:#FFFFFF;}
</style>
<rect x="0" y="0" class="st0" width="512" height="521.2"/>
<path id="Shape" class="st1" d="M430.9,384c-25.9,0-46.9,21-46.9,46.9c0,25.9,21,46.9,46.9,46.9c25.9,0,46.9-21,46.9-46.9
	C477.8,405,456.8,384,430.9,384z M430.9,460.8c-16.5,0-29.9-13.4-29.9-29.9c0-16.5,13.4-29.9,29.9-29.9c16.5,0,29.9,13.4,29.9,29.9
	c0,7.9-3.1,15.5-8.7,21.1C446.5,457.7,438.9,460.8,430.9,460.8z"/>
<path id="Shape_00000060018294831026910400000008930089247238718353_" class="st2" d="M506.9,402.8c-1.8-3.8-50.9-109.4-52.2-111.8
	c-14.7-33.7-52.3-51.1-87.5-40.4c-35.2,10.7-56.8,46-50.3,82.2H93.9c-14.1,0-25.6-11.5-25.6-25.6c0-4.2-3-7.7-7.1-8.4
	c-4.1-0.7-8.1,1.7-9.5,5.6C-2.9,459.1,0,450,0,452.3v17.1C0,492.9,19.1,512,42.7,512c412.4,0,382.2,0.1,384.9-0.2
	c22.1,1,43.6-7.1,59.5-22.4s25-36.4,25-58.5C512,421.3,510.2,411.8,506.9,402.8L506.9,402.8z M388.3,264.5
	c22.3,0,42.4,13.3,51.1,33.9c0.4,0.9,28.8,61.3,28.4,60.4c-20.5-10.5-44.5-11.8-66-3.4c-21.5,8.3-38.4,25.4-46.5,47
	c-19.7-66-18.5-61.6-21.7-73.7c-2.5-16,2.1-32.3,12.6-44.7C356.7,271.6,372.1,264.5,388.3,264.5z M42.7,494.9
	c-14.1,0-25.6-11.5-25.6-25.6v-15.6l42.7-120.9c8.1,10.8,20.7,17.1,34.1,17.1h227.8c33.6,111.5,30.7,104.1,35.7,114.9
	c5.5,11.8,13.7,22.1,24,30.1H42.7z M430.9,494.9c-32.3,0-59.5-24-63.6-56s16.3-62,47.6-70c31.2-8,63.6,8.5,75.4,38.5
	c7.7,19.7,5.3,41.9-6.6,59.5C471.9,484.4,452.1,494.9,430.9,494.9L430.9,494.9z"/>
<path id="Shape_00000070807406157730300900000010733995474180634010_" class="st2" d="M68.3,187.7c0,18.1,68.3,51.2,116.1,51.2
	c19.8,1,39.5-3.4,57-12.6c9,5.5,20.3,5.5,29.3,0c17.5,9.3,37.2,13.6,57,12.6c47.8,0,116.1-33.1,116.1-51.2
	c0-14.3-41.4-36.1-77.4-45.6c17.5-30.5,33.2-76.5,22.5-87.2c-10.7-10.7-56.7,5-87.2,22.5C292.1,41.3,270.3,0,256,0
	c-14.3,0-36.1,41.4-45.6,77.4c-30.5-17.5-76.5-33.2-87.2-22.5s5,56.7,22.5,87.2C109.6,151.6,68.3,173.5,68.3,187.7z M256,123.1
	c25.1,39.3,20,90.2,0,90.2C236,213.3,230.8,162.7,256,123.1z M327.7,221.9c-15.5,0.6-30.9-2.3-45.1-8.5c7.7-16.8,9.6-35.6,5.5-53.6
	c20.3-6.9,42.2-8.1,63.1-3.6c26.5,5.1,51.6,15.9,73.5,31.6C396.3,208.1,362.6,219.9,327.7,221.9L327.7,221.9z M348.8,138.4
	c-14.2-2.3-28.7-2.5-42.9-0.5c2-14.2,1.9-28.6-0.5-42.8c21.3-13.6,45.2-22.7,70.2-26.8C371.4,93.2,362.4,117.1,348.8,138.4
	L348.8,138.4z M256,19c15.7,22,26.5,47.1,31.7,73.6c3.2,16.3,3.3,33,0.3,49.3c-1.4,0.4-2.9,0.8-4.2,1.3
	c-6.9-21.3-18.3-40.7-27.7-40.7s-20.8,19.4-27.7,40.6c-1.3-0.5-2.8-0.9-4.3-1.3c-1.5-8.5-2.2-17.1-2.2-25.7
	C223.7,81.1,235.5,47.4,256,19L256,19z M206.7,95c-2.4,14.1-2.6,28.6-0.5,42.8c-14.3-1.9-28.7-1.8-42.9,0.5
	c-13.6-21.3-22.7-45.1-26.7-70.1C161.5,72.3,185.4,81.4,206.7,95L206.7,95z M160.8,156.1c21-4.5,42.7-3.3,63,3.6
	c-4.1,18-2.2,36.9,5.5,53.7c-14.2,6.3-29.6,9.2-45.1,8.5c-35-2-68.6-13.8-97.1-34.1C109.1,171.9,134.3,161.1,160.8,156.1z"/>
<path id="Shape_00000183958434201974634930000017929426713890352041_" class="st1" d="M76.8,460.8H59.7c-4.7,0-8.5,3.8-8.5,8.5
	c0,4.7,3.8,8.5,8.5,8.5h17.1c4.7,0,8.5-3.8,8.5-8.5C85.3,464.6,81.5,460.8,76.8,460.8z"/>
<path id="Shape_00000173131068202791214590000010371938113669759646_" class="st1" d="M332.8,460.8H110.9c-4.7,0-8.5,3.8-8.5,8.5
	c0,4.7,3.8,8.5,8.5,8.5h221.9c4.7,0,8.5-3.8,8.5-8.5C341.3,464.6,337.5,460.8,332.8,460.8z"/>
<path id="Shape_00000147204922607341775380000005627668024786221501_" class="st1" d="M-286,384c-25.9,0-46.9,21-46.9,46.9
	c0,25.9,21,46.9,46.9,46.9c25.9,0,46.9-21,46.9-46.9C-239.1,405-260.1,384-286,384z M-286,460.8c-16.5,0-29.9-13.4-29.9-29.9
	c0-16.5,13.4-29.9,29.9-29.9c16.5,0,29.9,13.4,29.9,29.9c0,7.9-3.1,15.5-8.7,21.1C-270.5,457.7-278.1,460.8-286,460.8z"/>
<path id="Shape_00000002345735467878543340000000714868166799114384_" class="st0" d="M-210,402.8c-1.8-3.8-50.9-109.4-52.2-111.8
	c-14.7-33.7-52.3-51.1-87.5-40.4c-35.2,10.7-56.8,46-50.3,82.2h-223.1c-14.1,0-25.6-11.5-25.6-25.6c0-4.2-3-7.7-7.1-8.4
	c-4.1-0.7-8.1,1.7-9.5,5.6c-54.6,154.8-51.7,145.6-51.7,147.9v17.1c0,23.6,19.1,42.6,42.7,42.7c412.4,0,382.2,0.1,384.9-0.2
	c22.1,1,43.6-7.1,59.5-22.4s25-36.4,25-58.5C-205,421.3-206.7,411.8-210,402.8L-210,402.8z M-328.7,264.5
	c22.3,0,42.4,13.3,51.1,33.9c0.4,0.9,28.8,61.3,28.4,60.4c-20.5-10.5-44.5-11.8-66-3.4c-21.5,8.3-38.4,25.4-46.5,47
	c-19.7-66-18.5-61.6-21.7-73.7c-2.5-16,2.1-32.3,12.6-44.7S-344.9,264.5-328.7,264.5z M-674.3,494.9c-14.1,0-25.6-11.5-25.6-25.6
	v-15.6l42.7-120.9c8.1,10.8,20.7,17.1,34.1,17.1h227.8c33.6,111.5,30.7,104.1,35.7,114.9c5.5,11.8,13.7,22.1,24,30.1H-674.3z
	 M-286,494.9c-32.3,0-59.5-24-63.6-56s16.3-62,47.6-70c31.2-8,63.6,8.5,75.4,38.5c7.7,19.7,5.3,41.9-6.6,59.5
	C-245.1,484.4-264.8,494.9-286,494.9L-286,494.9z"/>
<path id="Shape_00000005261238743773389080000005116428407518047913_" class="st0" d="M-648.7,187.7c0,18.1,68.3,51.2,116.1,51.2
	c19.8,1,39.5-3.4,57-12.6c9,5.5,20.3,5.5,29.3,0c17.5,9.3,37.2,13.6,57,12.6c47.8,0,116.1-33.1,116.1-51.2
	c0-14.3-41.4-36.1-77.4-45.6c17.5-30.5,33.2-76.5,22.5-87.2s-56.7,5-87.2,22.5C-424.8,41.3-446.7,0-460.9,0s-36.1,41.4-45.6,77.4
	c-30.5-17.5-76.5-33.2-87.2-22.5c-10.7,10.7,5,56.7,22.5,87.2C-607.4,151.6-648.7,173.5-648.7,187.7z M-460.9,123.1
	c25.1,39.3,20,90.2,0,90.2S-486.2,162.7-460.9,123.1z M-389.3,221.9c-15.5,0.6-30.9-2.3-45.1-8.5c7.7-16.8,9.6-35.6,5.5-53.6
	c20.3-6.9,42.2-8.1,63.1-3.6c26.5,5.1,51.6,15.9,73.5,31.6C-320.6,208.1-354.3,219.9-389.3,221.9L-389.3,221.9z M-368.2,138.4
	c-14.2-2.3-28.7-2.5-42.9-0.5c2-14.2,1.9-28.6-0.5-42.8c21.3-13.6,45.2-22.7,70.2-26.8C-345.5,93.2-354.6,117.1-368.2,138.4
	L-368.2,138.4z M-460.9,19c15.7,22,26.5,47.1,31.7,73.6c3.2,16.3,3.3,33,0.3,49.3c-1.4,0.4-2.9,0.8-4.2,1.3
	c-6.9-21.3-18.3-40.7-27.7-40.7c-9.4,0-20.8,19.4-27.7,40.6c-1.3-0.5-2.8-0.9-4.3-1.3c-1.5-8.5-2.2-17.1-2.2-25.7
	C-493.2,81.1-481.4,47.4-460.9,19L-460.9,19z M-510.2,95c-2.4,14.1-2.6,28.6-0.5,42.8c-14.3-1.9-28.7-1.8-42.9,0.5
	c-13.6-21.3-22.7-45.1-26.7-70.1C-555.4,72.3-531.5,81.4-510.2,95L-510.2,95z M-556.1,156.1c21-4.5,42.7-3.3,63,3.6
	c-4.1,18-2.2,36.9,5.5,53.7c-14.2,6.3-29.6,9.2-45.1,8.5c-35-2-68.6-13.8-97.1-34.1C-607.8,171.9-582.7,161.1-556.1,156.1z"/>
<path id="Shape_00000008116774375916539110000003670406114251058593_" class="st1" d="M-640.1,460.8h-17.1c-4.7,0-8.5,3.8-8.5,8.5
	c0,4.7,3.8,8.5,8.5,8.5h17.1c4.7,0,8.5-3.8,8.5-8.5C-631.6,464.6-635.4,460.8-640.1,460.8z"/>
<path id="Shape_00000120542281764182372950000001407620519979898037_" class="st1" d="M-384.1,460.8H-606c-4.7,0-8.5,3.8-8.5,8.5
	c0,4.7,3.8,8.5,8.5,8.5h221.9c4.7,0,8.5-3.8,8.5-8.5C-375.6,464.6-379.4,460.8-384.1,460.8z"/>
</svg>
