<svg xmlns="http://www.w3.org/2000/svg" width="512.127" height="512.116" viewBox="0 0 512.127 512.116">
  <g id="Yoga_Deck" data-name="Yoga Deck" transform="translate(-1806 -5181)">
    <path id="Shape_00000147204922607341775380000005627668024786221501_" d="M-286,384a46.9,46.9,0,0,0-46.9,46.9A46.9,46.9,0,0,0-286,477.8a46.9,46.9,0,0,0,46.9-46.9A46.9,46.9,0,0,0-286,384Zm0,76.8a29.917,29.917,0,0,1-29.9-29.9A29.917,29.917,0,0,1-286,401a29.917,29.917,0,0,1,29.9,29.9,29.816,29.816,0,0,1-8.7,21.1A29.9,29.9,0,0,1-286,460.8Z" transform="translate(2523.027 5181)" fill="#e4540e"/>
    <path id="Shape_00000002345735467878543340000000714868166799114384_" d="M-210,402.8c-1.8-3.8-50.9-109.4-52.2-111.8a72.48,72.48,0,0,0-87.5-40.4A72.5,72.5,0,0,0-400,332.8H-623.1a25.649,25.649,0,0,1-25.6-25.6,8.491,8.491,0,0,0-7.1-8.4,8.6,8.6,0,0,0-9.5,5.6C-719.9,459.2-717,450-717,452.3v17.1a42.742,42.742,0,0,0,42.7,42.7c412.4,0,382.2.1,384.9-.2a80.529,80.529,0,0,0,59.5-22.4,81.255,81.255,0,0,0,25-58.5,84.241,84.241,0,0,0-5.1-28.2ZM-328.7,264.5a55.408,55.408,0,0,1,51.1,33.9c.4.9,28.8,61.3,28.4,60.4a80.47,80.47,0,0,0-66-3.4,80.717,80.717,0,0,0-46.5,47c-19.7-66-18.5-61.6-21.7-73.7A55.828,55.828,0,0,1-370.8,284,55.137,55.137,0,0,1-328.7,264.5ZM-674.3,494.9a25.649,25.649,0,0,1-25.6-25.6V453.7l42.7-120.9a42.578,42.578,0,0,0,34.1,17.1h227.8c33.6,111.5,30.7,104.1,35.7,114.9a81.841,81.841,0,0,0,24,30.1Zm388.3,0a64.117,64.117,0,0,1-63.6-56,63.868,63.868,0,0,1,47.6-70,64,64,0,0,1,75.4,38.5,64.3,64.3,0,0,1-6.6,59.5,63.794,63.794,0,0,1-52.8,28Z" transform="translate(2523.027 5181)" fill="#0f2132"/>
    <path id="Shape_00000005261238743773389080000005116428407518047913_" d="M-648.7,187.7c0,18.1,68.3,51.2,116.1,51.2a110.6,110.6,0,0,0,57-12.6,28.077,28.077,0,0,0,29.3,0,109.612,109.612,0,0,0,57,12.6c47.8,0,116.1-33.1,116.1-51.2,0-14.3-41.4-36.1-77.4-45.6,17.5-30.5,33.2-76.5,22.5-87.2s-56.7,5-87.2,22.5C-424.8,41.3-446.7,0-460.9,0S-497,41.4-506.5,77.4C-537,59.9-583,44.2-593.7,54.9s5,56.7,22.5,87.2C-607.4,151.6-648.7,173.5-648.7,187.7Zm187.8-64.6c25.1,39.3,20,90.2,0,90.2S-486.2,162.7-460.9,123.1Zm71.6,98.8a102.71,102.71,0,0,1-45.1-8.5,83.815,83.815,0,0,0,5.5-53.6,118.78,118.78,0,0,1,63.1-3.6,186.814,186.814,0,0,1,73.5,31.6,184.5,184.5,0,0,1-97,34.1Zm21.1-83.5a143.5,143.5,0,0,0-42.9-.5,139.629,139.629,0,0,0-.5-42.8,186.523,186.523,0,0,1,70.2-26.8,186.7,186.7,0,0,1-26.8,70.1ZM-460.9,19a189.527,189.527,0,0,1,31.7,73.6,131.841,131.841,0,0,1,.3,49.3c-1.4.4-2.9.8-4.2,1.3-6.9-21.3-18.3-40.7-27.7-40.7s-20.8,19.4-27.7,40.6a43.791,43.791,0,0,0-4.3-1.3,147.832,147.832,0,0,1-2.2-25.7A181.747,181.747,0,0,1-460.9,19Zm-49.3,76a136.528,136.528,0,0,0-.5,42.8,146.841,146.841,0,0,0-42.9.5,184.238,184.238,0,0,1-26.7-70.1A186.7,186.7,0,0,1-510.2,95Zm-45.9,61.1a118.355,118.355,0,0,1,63,3.6,84.116,84.116,0,0,0,5.5,53.7,99.947,99.947,0,0,1-45.1,8.5,185.434,185.434,0,0,1-97.1-34.1A183.571,183.571,0,0,1-556.1,156.1Z" transform="translate(2523.027 5181)" fill="#0f2132"/>
    <path id="Shape_00000008116774375916539110000003670406114251058593_" d="M-640.1,460.8h-17.1a8.493,8.493,0,0,0-8.5,8.5,8.493,8.493,0,0,0,8.5,8.5h17.1a8.493,8.493,0,0,0,8.5-8.5A8.493,8.493,0,0,0-640.1,460.8Z" transform="translate(2523.027 5181)" fill="#e4540e"/>
    <path id="Shape_00000120542281764182372950000001407620519979898037_" d="M-384.1,460.8H-606a8.493,8.493,0,0,0-8.5,8.5,8.493,8.493,0,0,0,8.5,8.5h221.9a8.493,8.493,0,0,0,8.5-8.5A8.493,8.493,0,0,0-384.1,460.8Z" transform="translate(2523.027 5181)" fill="#e4540e"/>
  </g>
</svg>
