<?xml version="1.0" encoding="utf-8"?>
<!-- Generator: Adobe Illustrator 26.0.3, SVG Export Plug-In . SVG Version: 6.00 Build 0)  -->
<svg version="1.1" id="Capa_1" xmlns="http://www.w3.org/2000/svg" xmlns:xlink="http://www.w3.org/1999/xlink" x="0px" y="0px"
	 viewBox="0 0 512 512" style="enable-background:new 0 0 512 512;" xml:space="preserve">
<style type="text/css">
	.st0{fill:#E65400;}
	.st1{fill:#FFFFFF;}
</style>
<g>
	<path class="st0" d="M157.8,204.6c1.9,3.6,6.4,4.9,9.9,2.9c8-4.3,17.1-6.6,26.2-6.6c11,0,21.7,3.2,30.8,9.4
		c3.1,2.1,7.2,1.5,9.6-1.3c2.4-2.8,2.4-6.9,0-9.7c-16.2-18.2-39.5-28.7-63.8-28.7c-47.1,0-85.5,38.3-85.5,85.5s38.3,85.5,85.5,85.5
		c24.3,0,47.5-10.5,63.8-28.7c2.4-2.8,2.5-6.9,0-9.7c-2.4-2.8-6.5-3.3-9.6-1.3c-9.1,6.1-19.8,9.4-30.8,9.4
		c-30.4,0-55.2-24.8-55.2-55.2c0-10.4,2.9-20.5,8.4-29.3c2.1-3.4,1.1-7.9-2.3-10.1c-3.4-2.1-7.9-1.1-10.1,2.3
		c-6.9,11.1-10.6,23.9-10.6,37c0,35.5,26.7,65,61.1,69.3c-4.8,1-9.7,1.6-14.7,1.6c-39.1,0-70.8-31.8-70.8-70.8s31.8-70.8,70.8-70.8
		c5,0,9.9,0.5,14.7,1.6c-8.6,1.1-16.9,3.7-24.4,7.8C157.2,196.6,155.9,201.1,157.8,204.6L157.8,204.6z"/>
	<path class="st0" d="M288.8,250.8c0-0.7-0.1-1.5-0.4-2.3c-1.2-3.8-5.4-5.9-9.2-4.7l-10.3,3.3v-10.8c0-4-3.3-7.3-7.3-7.3
		s-7.3,3.3-7.3,7.3v10.8l-10.3-3.3c-3.8-1.2-8,0.9-9.2,4.7c-0.2,0.8-0.4,1.5-0.4,2.3c0,3.1,2,6,5.1,7l10.3,3.3l-6.4,8.7
		c-0.9,1.3-1.4,2.8-1.4,4.3c0,2.3,1,4.5,3,5.9c1.3,0.9,2.8,1.4,4.3,1.4c2.3,0,4.5-1,5.9-3l6.4-8.7l6.4,8.7c2.4,3.3,6.9,4,10.2,1.6
		c2-1.4,3-3.7,3-5.9c0-1.5-0.5-3-1.4-4.3l-6.4-8.7l10.3-3.3C286.9,256.7,288.8,253.9,288.8,250.8z"/>
	<path class="st1" d="M483.1,92.6H29.8c-12.6,0-22.9,10.3-22.9,22.9v281.3c0,12.6,10.3,22.9,22.9,22.9h375.1c4,0,7.3-3.3,7.3-7.3
		s-3.3-7.3-7.3-7.3H29.8c-4.6,0-8.3-3.7-8.3-8.3V115.5c0-4.6,3.7-8.3,8.3-8.3H483c4.6,0,8.3,3.7,8.3,8.3v281.3
		c0,4.6-3.7,8.3-8.3,8.3h-46.9c-4,0-7.3,3.3-7.3,7.3s3.3,7.3,7.3,7.3H483c12.6,0,22.9-10.3,22.9-22.9V115.5
		C506,102.8,495.7,92.6,483.1,92.6L483.1,92.6z"/>
</g>
</svg>
