<?xml version="1.0" encoding="utf-8"?>
<!-- Generator: Adobe Illustrator 26.0.3, SVG Export Plug-In . SVG Version: 6.00 Build 0)  -->
<svg version="1.1" id="Capa_1" xmlns="http://www.w3.org/2000/svg" xmlns:xlink="http://www.w3.org/1999/xlink" x="0px" y="0px"
	 viewBox="0 0 512 512" style="enable-background:new 0 0 512 512;" xml:space="preserve">
<style type="text/css">
	.st0{fill:#E65400;}
	.st1{fill:#FFFFFF;}
</style>
<path class="st0" d="M360.9,172.6c-26.2-30.2-64.8-48.4-104.9-48.4c-37.8,0-80.9,17.3-104.4,48c-20.3,26.5-33.2,55.6-33.2,89.6
	s12.4,65.1,32.8,89.1c0.1,0.2,0.2,0.3,0.3,0.5c23.7,31,66,48,104.4,48c37.9,0,80.9-17.3,104.4-48c0.1-0.2,0.2-0.3,0.3-0.5
	c20.5-24,32.8-55.1,32.8-89.1C393.6,227.8,382.2,197.2,360.9,172.6L360.9,172.6z M353.1,336.6c-9.3-6.3-19.9-11.6-31.4-15.8
	c4.6-16.7,7.2-34,7.8-51.5h48.8C376.8,294.5,367.6,317.7,353.1,336.6z M263.5,384.2v-59.5c13.6,0.5,26.9,2.5,39.3,5.9
	c-6.5,18.8-15.6,36.5-26.9,52.3C271.8,383.4,267.7,383.9,263.5,384.2z M236.1,382.8c-11.3-15.7-20.4-33.5-26.9-52.3
	c12.4-3.3,25.7-5.3,39.3-5.9v59.5C244.3,383.9,240.2,383.4,236.1,382.8z M133.6,269.3h48.8c0.6,17.4,3.2,34.7,7.8,51.5
	c-11.4,4.2-22,9.5-31.4,15.8C144.4,317.7,135.2,294.5,133.6,269.3z M158.9,187c9.3,6.3,19.9,11.6,31.4,15.8
	c-4.6,16.7-7.2,34-7.8,51.5h-48.8C135.2,229.1,144.4,205.9,158.9,187z M248.5,139.5V199c-13.6-0.5-26.9-2.5-39.3-5.9
	c6.5-18.8,15.6-36.5,26.9-52.3C240.2,140.2,244.3,139.7,248.5,139.5L248.5,139.5z M275.9,140.8c11.3,15.7,20.4,33.5,26.9,52.3
	c-12.4,3.3-25.7,5.3-39.3,5.9v-59.5C267.7,139.7,271.8,140.2,275.9,140.8L275.9,140.8z M263.5,214c15.1-0.6,29.9-2.8,43.8-6.6
	c4.2,15.3,6.6,31.1,7.2,46.9h-51V214z M248.5,214v40.3h-51c0.6-15.7,3.1-31.5,7.2-46.9C218.6,211.2,233.4,213.4,248.5,214L248.5,214
	z M197.5,269.3h51v40.3c-15.1,0.6-29.9,2.8-43.8,6.6C200.6,300.9,198.1,285.1,197.5,269.3L197.5,269.3z M263.5,309.6v-40.3h51
	c-0.6,15.7-3.1,31.5-7.2,46.9C293.4,312.4,278.6,310.2,263.5,309.6L263.5,309.6z M329.5,254.3c-0.6-17.4-3.2-34.7-7.8-51.5
	c11.4-4.2,22-9.5,31.4-15.8c14.6,18.9,23.8,42,25.3,67.3H329.5z M343.1,175.6c-7.8,5.1-16.5,9.4-25.8,12.9
	c-5.1-14.7-11.7-28.8-19.7-42C314.9,152.8,330.4,162.8,343.1,175.6z M214.4,146.5c-8,13.2-14.6,27.3-19.7,42
	c-9.4-3.5-18.1-7.8-25.8-12.9C181.6,162.8,197.1,152.8,214.4,146.5z M168.9,348c7.8-5.1,16.5-9.4,25.8-12.9
	c5.1,14.7,11.7,28.8,19.7,42C197.1,370.9,181.6,360.8,168.9,348z M297.6,377.1c8-13.2,14.6-27.3,19.7-42c9.4,3.5,18.1,7.8,25.8,12.9
	C330.4,360.8,314.9,370.9,297.6,377.1z"/>
<path class="st1" d="M362,426.3c0-4.1-3.4-7.5-7.5-7.5h-197c-4.1,0-7.5,3.4-7.5,7.5s3.4,7.5,7.5,7.5h197
	C358.6,433.8,362,430.5,362,426.3z"/>
<path class="st1" d="M177.5,457.2c-4.1,0-7.5,3.4-7.5,7.5s3.4,7.5,7.5,7.5h157c4.1,0,7.5-3.4,7.5-7.5s-3.4-7.5-7.5-7.5H177.5z"/>
<path class="st1" d="M400.2,6.7c-7.2-5.6-16.9-8.2-26.5-5.8c0,0-313.4,78.3-313.5,78.3c-3.2,0.8-5.7,3.9-5.7,7.3v287.1
	c0,4.1,3.4,7.5,7.5,7.5s7.5-3.4,7.5-7.5V94h356.8c8.8,0,16,7.2,16,16v71.7c0,4.1,3.4,7.5,7.5,7.5s7.5-3.4,7.5-7.5V110
	c0-17.1-13.9-31-31-31h-14.1c0,0,0-47.9,0-48C412.3,21.1,407.5,12.3,400.2,6.7L400.2,6.7z M123,79c0,0,254-63.4,254.3-63.5
	c10-2.5,19.9,5.3,19.9,15.5v48H123z"/>
<path class="st1" d="M457.4,211.7c0-4.1-3.4-7.5-7.5-7.5s-7.5,3.4-7.5,7.5v262.6c0,12.5-10.2,22.7-22.7,22.7H92.3
	c-12.5,0-22.7-10.2-22.7-22.7v-70.7c0-4.1-3.4-7.5-7.5-7.5s-7.5,3.4-7.5,7.5v70.7c0,20.8,16.9,37.7,37.7,37.7h327.5
	c20.8,0,37.7-16.9,37.7-37.7L457.4,211.7L457.4,211.7z"/>
</svg>
