<?xml version="1.0" encoding="utf-8"?>
<!-- Generator: Adobe Illustrator 26.0.3, SVG Export Plug-In . SVG Version: 6.00 Build 0)  -->
<svg version="1.1" id="Capa_1" xmlns="http://www.w3.org/2000/svg" xmlns:xlink="http://www.w3.org/1999/xlink" x="0px" y="0px"
	 viewBox="0 0 512 512" style="enable-background:new 0 0 512 512;" xml:space="preserve">
<style type="text/css">
	.st0{fill:#FFFFFF;}
	.st1{fill:#E65400;}
</style>
<g>
	<g>
		<g>
			<path class="st0" d="M342.5,316.7c-5.3,0-9.6,4.3-9.6,9.6v66.3c0,26.5-21.6,48-48,48H181.1c-5.3,0-9.6,4.3-9.6,9.6v19.1
				l-22.9-22.9c-1.5-3.4-4.9-5.8-8.8-5.8H77.3c-26.5,0-48-21.6-48-48v-148c0-26.5,21.6-48,48-48h97.1c5.3,0,9.6-4.3,9.6-9.6
				s-4.3-9.6-9.6-9.6H77.3c-37.1,0-67.3,30.2-67.3,67.3v148c0,37.1,30.2,67.3,67.3,67.3h57.5l39.5,39.5c1.8,1.8,4.3,2.8,6.8,2.8
				c1.2,0,2.5-0.2,3.7-0.7c3.6-1.5,5.9-5,5.9-8.9V460h94.1c37.1,0,67.3-30.2,67.3-67.3v-66.3C352.1,321,347.8,316.7,342.5,316.7z"/>
		</g>
	</g>
	<g>
		<g>
			<path class="st0" d="M362.3,10.2H338c-77,0-139.7,62.7-139.7,139.7S261,289.5,338,289.5h24.3c12,0,23.9-1.5,35.4-4.5l35.9,35.9
				c1.8,1.8,4.3,2.8,6.8,2.8c1.2,0,2.5-0.2,3.7-0.7c3.6-1.5,5.9-5,5.9-8.9v-55.6c15.2-12.3,27.8-27.9,36.7-45.3
				c10.1-19.7,15.2-41.1,15.2-63.4C502,72.8,439.3,10.2,362.3,10.2z M434.7,246.1c-2.4,1.8-3.8,4.7-3.8,7.7v37.1l-23.5-23.5
				c-1.8-1.8-4.3-2.8-6.8-2.8c-0.9,0-1.9,0.1-2.8,0.4c-11.4,3.5-23.4,5.3-35.4,5.3H338c-66.4,0-120.4-54-120.4-120.4
				S271.6,29.4,338,29.4h24.3c66.4,0,120.4,54,120.4,120.4C482.8,188,465.3,223.1,434.7,246.1z"/>
		</g>
	</g>
	<g>
		<g>
			<path class="st1" d="M393.4,115.3C392,95.2,375.8,79,355.7,77.6c-11.4-0.8-22.3,3.1-30.6,10.8c-8.2,7.7-12.9,18.5-12.9,29.7
				c0,5.3,4.3,9.6,9.6,9.6s9.6-4.3,9.6-9.6c0-6,2.4-11.6,6.8-15.7s10.1-6.1,16.2-5.7c10.6,0.7,19.1,9.3,19.9,19.9
				c0.7,10.7-6.3,20.2-16.7,22.5c-8.4,1.9-14.3,9.2-14.3,17.8V180c0,5.3,4.3,9.6,9.6,9.6c5.3,0,9.6-4.3,9.6-9.6v-22.3
				C381.8,153,394.8,135.3,393.4,115.3z"/>
		</g>
	</g>
	<g>
		<g>
			<path class="st1" d="M359.7,211.2c-1.8-1.8-4.3-2.8-6.8-2.8s-5,1-6.8,2.8s-2.8,4.3-2.8,6.8s1,5,2.8,6.8s4.3,2.8,6.8,2.8
				s5-1,6.8-2.8s2.8-4.3,2.8-6.8S361.4,213,359.7,211.2z"/>
		</g>
	</g>
	<g>
		<g>
			<path class="st0" d="M274.3,308H71.5c-5.3,0-9.6,4.3-9.6,9.6c0,5.3,4.3,9.6,9.6,9.6h202.8c5.3,0,9.6-4.3,9.6-9.6
				S279.6,308,274.3,308z"/>
		</g>
	</g>
	<g>
		<g>
			<path class="st0" d="M281.1,364.7c-1.8-1.8-4.3-2.8-6.8-2.8s-5,1-6.8,2.8s-2.8,4.3-2.8,6.8s1,5,2.8,6.8s4.3,2.8,6.8,2.8
				s5-1,6.8-2.8s2.8-4.3,2.8-6.8C283.9,368.9,282.8,366.5,281.1,364.7z"/>
		</g>
	</g>
	<g>
		<g>
			<path class="st0" d="M236.5,361.9h-165c-5.3,0-9.6,4.3-9.6,9.6c0,5.3,4.3,9.6,9.6,9.6h165c5.3,0,9.6-4.3,9.6-9.6
				C246.1,366.2,241.8,361.9,236.5,361.9z"/>
		</g>
	</g>
	<g>
		<g>
			<path class="st0" d="M211.8,254.2H71.5c-5.3,0-9.6,4.3-9.6,9.6s4.3,9.6,9.6,9.6h140.3c5.3,0,9.6-4.3,9.6-9.6
				C221.4,258.5,217.1,254.2,211.8,254.2z"/>
		</g>
	</g>
</g>
</svg>
