<?xml version="1.0" encoding="utf-8"?>
<!-- Generator: Adobe Illustrator 26.0.3, SVG Export Plug-In . SVG Version: 6.00 Build 0)  -->
<svg version="1.1" id="Capa_1" xmlns="http://www.w3.org/2000/svg" xmlns:xlink="http://www.w3.org/1999/xlink" x="0px" y="0px"
	 viewBox="0 0 512 512" style="enable-background:new 0 0 512 512;" xml:space="preserve">
<style type="text/css">
	.st0{fill:#FFFFFF;}
	.st1{fill:#E65400;}
</style>
<g>
	<g>
		<g>
			<path class="st0" d="M123.3,177.4c-3.8-3.8-9.9-3.8-13.6,0c-3.8,3.8-3.8,9.9,0,13.6c3.8,3.8,9.9,3.8,13.6,0
				C127.1,187.2,127.1,181.1,123.3,177.4z"/>
		</g>
	</g>
	<g>
		<g>
			<path class="st1" d="M253.8,440.6c4.2-5.8,6.5-12.7,6.5-20c0-18.6-15.1-33.7-33.7-33.7H62.9c-9,0-17.5,3.5-23.8,9.9
				c-6.4,6.4-9.9,14.8-9.9,23.8c0,7.5,2.4,14.4,6.6,20c-15.3,8.1-25.8,24.1-25.8,42.6v9.6c0,5.3,4.3,9.6,9.6,9.6h250.4
				c5.3,0,9.6-4.3,9.6-9.6v-9.6C279.6,464.8,269.1,448.7,253.8,440.6z M52.7,410.5c2.7-2.7,6.4-4.2,10.2-4.2h163.7
				c8,0,14.4,6.5,14.4,14.4c0,3.9-1.5,7.5-4.2,10.2c-2.7,2.7-6.4,4.2-10.2,4.2H62.9c-8,0-14.4-6.5-14.4-14.4
				C48.4,416.8,49.9,413.2,52.7,410.5z M29.2,483.3c0-15.9,13-28.9,28.9-28.9h4.8h163.7h4.8c15.9,0,28.9,13,28.9,28.9H29.2z"/>
		</g>
	</g>
	<g>
		<g>
			<path class="st0" d="M494,414.1c-3.3-5.1-7.2-9.6-11.6-13.3l-45-39.2c-0.4-0.5-0.8-1-1.2-1.5c-0.8-0.8-1.7-1.4-2.6-1.8
				l-27.2-23.7l-126-109.9c5.2-5.4,8-12.4,8-19.9c0-7.7-3-15-8.5-20.4c-2.4-2.4-5.1-4.3-8-5.6l11.7-11.7c3.3,0.9,6.6,1.3,10,1.3
				c9.9,0,19.7-3.8,27.2-11.3c7.3-7.3,11.3-17,11.3-27.2s-4-20-11.3-27.2l-81.7-81.7c-7.3-7.3-17-11.3-27.2-11.3
				c-10.3,0-20,4-27.2,11.3c-10.1,10.1-13.4,24.3-10,37.2L58.4,174.2c-3.2-0.9-6.6-1.3-10-1.3c-10.3,0-20,4-27.2,11.3
				c-15,15-15,39.5,0,54.5l81.7,81.7c7.5,7.5,17.4,11.3,27.2,11.3c9.9,0,19.7-3.8,27.2-11.3c10.1-10.1,13.4-24.3,10-37.2l11.6-11.6
				c1.4,2.9,3.3,5.6,5.6,8c5.5,5.5,12.7,8.5,20.4,8.5c7.5,0,14.5-2.8,19.9-8l134.2,154.1c0.4,0.6,0.8,1.1,1.3,1.6
				c0.2,0.2,0.4,0.3,0.5,0.5l40,45.9c1,1.2,2.1,2.3,3.2,3.4c11,11,25.5,16.9,40.7,16.9c2.7,0,5.4-0.2,8.1-0.6
				c18.1-2.5,33.8-13.4,43-29.8C506,454.2,505.3,431.4,494,414.1z M198.2,34.4c3.6-3.6,8.5-5.6,13.6-5.6c5.1,0,10,2,13.6,5.6
				l81.7,81.7c3.6,3.6,5.6,8.5,5.6,13.6c0,5.1-2,10-5.6,13.6c-7.5,7.5-19.7,7.5-27.2,0l-81.7-81.7c0,0,0,0,0,0
				C190.7,54.1,190.7,41.9,198.2,34.4z M143.8,306.7c-7.5,7.5-19.7,7.5-27.2,0L34.8,225c-7.5-7.5-7.5-19.7,0-27.2
				c3.6-3.6,8.5-5.6,13.6-5.6c5.1,0,10,2,13.6,5.6l81.7,81.7C151.3,287,151.3,299.2,143.8,306.7z M184.3,239l-26.9,26.9l-81.7-81.7
				l109-109l81.7,81.7l-27,27c-0.1,0.1-0.2,0.2-0.3,0.3l-54.5,54.5C184.5,238.7,184.4,238.8,184.3,239z M218.7,259.1
				C218.7,259.1,218.7,259.1,218.7,259.1l-6.8,6.8c-1.8,1.8-4.2,2.8-6.8,2.8c-2.6,0-5-1-6.8-2.8c-1.8-1.8-2.8-4.2-2.8-6.8
				c0-2.5,1-4.9,2.7-6.7l54.7-54.7c3.7-3.6,9.8-3.6,13.5,0.1c1.8,1.8,2.8,4.2,2.8,6.8c0,2.6-1,5-2.8,6.8l-6.7,6.7
				c0,0-0.1,0.1-0.1,0.1L218.7,259.1z M238.6,266.3l28.1-28.1l119.2,104l-43.5,43.5L238.6,266.3z M355.2,400.2l45.4-45.4l14.5,12.7
				l-47.2,47.2L355.2,400.2z M479.1,462.8c-6.2,11.1-16.7,18.4-28.8,20.1c-12.1,1.7-23.9-2.3-32.6-10.9c-0.7-0.7-1.4-1.5-2.1-2.3
				c0,0-0.1-0.1-0.1-0.1l-35-40.3l49.1-49.1l40.2,35.1c0,0,0.1,0.1,0.1,0.1c3,2.6,5.7,5.6,7.9,9.1
				C485.1,435.8,485.7,451.2,479.1,462.8z"/>
		</g>
	</g>
	<g>
		<g>
			<path class="st0" d="M191.4,109.3c-3.8-3.8-9.9-3.8-13.6,0l-40.9,40.9c-3.8,3.8-3.8,9.9,0,13.6c1.9,1.9,4.3,2.8,6.8,2.8
				c2.5,0,4.9-0.9,6.8-2.8l40.9-40.9C195.2,119.1,195.2,113,191.4,109.3z"/>
		</g>
	</g>
</g>
</svg>
