<?xml version="1.0" encoding="utf-8"?>
<!-- Generator: Adobe Illustrator 26.0.3, SVG Export Plug-In . SVG Version: 6.00 Build 0)  -->
<svg version="1.1" id="Capa_1" xmlns="http://www.w3.org/2000/svg" xmlns:xlink="http://www.w3.org/1999/xlink" x="0px" y="0px"
	 viewBox="0 0 512 512" style="enable-background:new 0 0 512 512;" xml:space="preserve">
<style type="text/css">
	.st0{fill:#FFFFFF;}
	.st1{fill:#E65400;}
</style>
<g>
	<g>
		<path class="st0" d="M476,357.1H36c-13.8,0-25-11.2-25-25V95.5c0-13.8,11.2-25,25-25h440c13.8,0,25,11.2,25,25v236.6
			C501,345.9,489.8,357.1,476,357.1z M36,90.7c-2.7,0-4.8,2.2-4.8,4.8v236.6c0,2.7,2.2,4.8,4.8,4.8h440c2.7,0,4.8-2.2,4.8-4.8V95.5
			c0-2.7-2.2-4.8-4.8-4.8H36z"/>
	</g>
	<g>
		<path class="st1" d="M203.7,290.6c-3.3-1.8-5.5-5.2-5.5-9V146c0-3.8,2.1-7.2,5.5-9c3.4-1.7,7.4-1.4,10.5,0.7l95.4,67.8
			c2.7,1.9,4.2,5,4.2,8.2c0,3.3-1.6,6.3-4.2,8.2c0,0-71.5,50.9-95.4,67.8C212.4,291.1,208.7,293.3,203.7,290.6z M218.4,165.6V262
			l67.8-48.2L218.4,165.6z"/>
	</g>
	<path class="st0" d="M490.9,414.5H297.8c-4.5-17.2-20.1-29.9-38.7-29.9s-34.2,12.7-38.7,29.9H21.1c-5.6,0-10.1,4.5-10.1,10.1
		s4.5,10.1,10.1,10.1h199.3c4.5,17.2,20.1,29.9,38.7,29.9s34.2-12.7,38.7-29.9h193.1c5.6,0,10.1-4.5,10.1-10.1
		C501,419,496.5,414.5,490.9,414.5z M259.1,444.4c-10.9,0-19.8-8.9-19.8-19.8s8.9-19.8,19.8-19.8c10.9,0,19.8,8.9,19.8,19.8
		S270,444.4,259.1,444.4z"/>
</g>
</svg>
