<svg xmlns="http://www.w3.org/2000/svg" xmlns:xlink="http://www.w3.org/1999/xlink" width="500" height="250" viewBox="0 0 500 250"><defs><clipPath id="a"><rect width="395.863" height="91.831" fill="#0f2132"/></clipPath><clipPath id="c"><rect width="500" height="250"/></clipPath></defs><g id="b" clip-path="url(#c)"><rect width="500" height="250" fill="#fff"/><g transform="translate(50.137 79.493)"><g clip-path="url(#a)"><path d="M49.517,37.242l54.588,54.588-.15-37.422L61.071,11.524l-.03.03L49.487,0,6.062,43.394l.15.15A29.817,29.817,0,0,0,48.557,84.958l.3.3L68,66.142,49.367,47.506,30.221,66.622l-5.1-4.981Z" fill="#0f2132"/><path d="M150.835.295a16.776,16.776,0,1,1-16.776,16.776A16.776,16.776,0,0,1,150.835.295" transform="translate(-52.432 -0.115)" fill="#0f2132"/><path d="M249.464,21.636,266.81,59.329h-6.3L254.9,47.055H239.081l-5.822,12.274h-3.091l17.766-37.693Zm-9.3,23.018h13.595l-6.692-14.585Z" transform="translate(-90.021 -8.462)" fill="#0f2132"/><path d="M301.9,41.053a19.3,19.3,0,0,0,1.17,6.932,15.361,15.361,0,0,0,3.211,5.192,13.71,13.71,0,0,0,4.832,3.241,15.988,15.988,0,0,0,6.032,1.14,9.513,9.513,0,0,0,3.751-.751,15.059,15.059,0,0,0,3.361-1.95,15.887,15.887,0,0,0,2.761-2.731,19.859,19.859,0,0,0,2.011-3.062l2.611,1.681a22.822,22.822,0,0,1-2.7,3.571,18.571,18.571,0,0,1-3.6,3.031,18.1,18.1,0,0,1-4.622,2.1,20.079,20.079,0,0,1-5.732.78,21.7,21.7,0,0,1-8.313-1.531,20.039,20.039,0,0,1-6.423-4.141,18.9,18.9,0,0,1-4.141-6.092,19.279,19.279,0,0,1,1.11-17.046,18.571,18.571,0,0,1,3.091-3.961,19.153,19.153,0,0,1,4.111-3.091,21.066,21.066,0,0,1,5.012-2.011,22.74,22.74,0,0,1,5.822-.72,18.41,18.41,0,0,1,5.432.78,19.611,19.611,0,0,1,4.532,2.1,18.738,18.738,0,0,1,3.631,3.031,21.276,21.276,0,0,1,2.731,3.571l-2.7,1.771a18.347,18.347,0,0,0-5.162-6.542,11,11,0,0,0-6.6-2.071,15.255,15.255,0,0,0-5.972,1.17,14.339,14.339,0,0,0-4.861,3.331,15.367,15.367,0,0,0-3.241,5.282,20.95,20.95,0,0,0-1.14,6.993" transform="translate(-115.234 -8.462)" fill="#0f2132"/><path d="M381.878,21.636l17.346,37.693h-6.3L387.31,47.055H371.494l-5.822,12.274h-3.121l17.766-37.693Zm-9.3,23.018h13.595l-6.722-14.585Z" transform="translate(-141.797 -8.462)" fill="#0f2132"/><path d="M431.138,23.016h12.784a21.319,21.319,0,0,1,5.822.72,12.54,12.54,0,0,1,4.172,1.981,8.381,8.381,0,0,1,2.521,3.031,8.668,8.668,0,0,1,.84,3.841,7.691,7.691,0,0,1-.66,3.211,9.54,9.54,0,0,1-1.831,2.7,10.72,10.72,0,0,1-2.851,2.071,17.128,17.128,0,0,1-3.661,1.38l13.414,17.886h-7.2L441.672,42.522h-4.351V59.839h-6.213Zm6.212,17.676h3.6a12.141,12.141,0,0,0,3.842-.57,9.826,9.826,0,0,0,3.061-1.561,7.032,7.032,0,0,0,2.731-5.7,7.83,7.83,0,0,0-.57-3.061,6.947,6.947,0,0,0-1.621-2.371,7.4,7.4,0,0,0-2.461-1.53,8.861,8.861,0,0,0-3.121-.571H437.35Z" transform="translate(-168.61 -9.002)" fill="#0f2132"/><path d="M489.612,23.016h6.212V57.5H514.4v2.4H489.641Z" transform="translate(-191.491 -9.002)" fill="#0f2132"/><path d="M550.683,21.636l17.346,37.693h-6.3l-5.612-12.274H540.3l-5.822,12.274h-3.121l17.766-37.693ZM541.35,44.654h13.595l-6.692-14.585Z" transform="translate(-207.818 -8.462)" fill="#0f2132"/><path d="M599.964,23.016h12.784a21.319,21.319,0,0,1,5.822.72,12.54,12.54,0,0,1,4.172,1.981,8.381,8.381,0,0,1,2.521,3.031,8.668,8.668,0,0,1,.84,3.841,7.69,7.69,0,0,1-.66,3.211,9.538,9.538,0,0,1-1.831,2.7,10.72,10.72,0,0,1-2.851,2.071,17.128,17.128,0,0,1-3.661,1.38l13.414,17.886h-7.2L610.5,42.522h-4.321V59.839h-6.212Zm6.212,17.676h3.6a12.141,12.141,0,0,0,3.841-.57,9.826,9.826,0,0,0,3.061-1.561,7.031,7.031,0,0,0,2.731-5.7,7.831,7.831,0,0,0-.57-3.061,6.947,6.947,0,0,0-1.621-2.371,7.4,7.4,0,0,0-2.461-1.53,8.861,8.861,0,0,0-3.121-.571h-5.462Z" transform="translate(-234.651 -9.002)" fill="#0f2132"/><path d="M269.158,119.513a2.442,2.442,0,0,1-1.08,2.131,4.623,4.623,0,0,1-2.761.75,6.709,6.709,0,0,1-3.152-.66v-1.351a5.521,5.521,0,0,0,3.121.84,3.178,3.178,0,0,0,1.741-.42,1.426,1.426,0,0,0,.63-1.26,1.27,1.27,0,0,0-.15-.6,1.462,1.462,0,0,0-.48-.48,4.959,4.959,0,0,0-.661-.36c-.209-.09-.48-.21-.84-.36-.06-.03-.18-.06-.331-.12-.51-.21-.9-.36-1.14-.48a6.545,6.545,0,0,1-.93-.54,2.071,2.071,0,0,1-.78-.84,2.629,2.629,0,0,1-.241-1.111,2.375,2.375,0,0,1,1.08-2.071,4.593,4.593,0,0,1,2.731-.75,6.241,6.241,0,0,1,2.61.48v1.32a4.981,4.981,0,0,0-2.58-.63,2.893,2.893,0,0,0-1.711.451,1.366,1.366,0,0,0-.63,1.14,1.206,1.206,0,0,0,.181.66,1.333,1.333,0,0,0,.6.54c.3.15.51.3.72.39s.51.21.93.39q.586.225.9.36c.21.09.48.24.81.42a2.7,2.7,0,0,1,.75.57,2.092,2.092,0,0,1,.45.72,1.863,1.863,0,0,1,.211.871m-2.731,4.651a1.788,1.788,0,0,1-.69,1.41,3.082,3.082,0,0,1-1.95.6v-.9c.989-.06,1.47-.42,1.47-1.111a1.921,1.921,0,0,0-.39-1.111h1.261a1.746,1.746,0,0,1,.3,1.111" transform="translate(-102.511 -43.738)" fill="#0f2132"/><path d="M282.395,107.457a.671.671,0,0,1,.24.57.77.77,0,0,1-.24.571.97.97,0,0,1-.63.24.988.988,0,0,1-.66-.24.737.737,0,0,1,0-1.14.966.966,0,0,1,.66-.21.843.843,0,0,1,.63.21m.06,13.024h-1.41V110.068h1.41Z" transform="translate(-109.837 -41.945)" fill="#0f2132"/><path d="M294.7,118.182h-1.71v4.111h-1.411V111.879h2.971a4.9,4.9,0,0,1,3.121.84,2.8,2.8,0,0,1,1.05,2.341,2.959,2.959,0,0,1-.66,1.83,3.116,3.116,0,0,1-1.741,1.05l3.121,4.291h-1.71l-2.911-4.111h-.12Zm-.09-5.192h-1.62v4.142h1.8a2.657,2.657,0,0,0,1.86-.571,1.925,1.925,0,0,0,.63-1.5c0-1.38-.9-2.071-2.671-2.071" transform="translate(-114.039 -43.757)" fill="#0f2132"/><path d="M312.26,122.293h-1.41V111.88h1.41Zm6.782,0h-1.861l-4.681-5.132,4.531-5.252H318.8l-4.532,5.252Z" transform="translate(-121.576 -43.757)" fill="#0f2132"/><path d="M337.413,122.293h-6.6V111.88h6.512v1.11h-5.1v3.571h4.5v1.111h-4.5v3.541h5.192Z" transform="translate(-129.383 -43.757)" fill="#0f2132"/><path d="M354.809,112.99H351.6v9.3h-1.41v-9.3h-3.211v-1.111h7.833Z" transform="translate(-135.705 -43.757)" fill="#0f2132"/><path d="M372.532,122.293H366.05V111.88h1.411v9.3H372.5Z" transform="translate(-143.165 -43.757)" fill="#0f2132"/><path d="M389.854,122.293h-6.6V111.88h6.512v1.11h-5.1v3.571h4.5v1.111h-4.5v3.541h5.192Z" transform="translate(-149.893 -43.757)" fill="#0f2132"/><path d="M404.312,118.182H402.6v4.111h-1.411V111.879h2.971a4.9,4.9,0,0,1,3.121.84,2.8,2.8,0,0,1,1.05,2.341,2.959,2.959,0,0,1-.66,1.83,3.116,3.116,0,0,1-1.741,1.05l3.121,4.291h-1.71l-2.911-4.111h-.12Zm-.09-5.192H402.6v4.142h1.8a2.657,2.657,0,0,0,1.86-.571,1.925,1.925,0,0,0,.63-1.5c0-1.38-.9-2.071-2.671-2.071" transform="translate(-156.909 -43.757)" fill="#0f2132"/><path d="M436.526,112.99h-3.211v9.3H431.9v-9.3h-3.211v-1.111h7.833Z" transform="translate(-167.665 -43.757)" fill="#0f2132"/><path d="M457.533,116.926a5.009,5.009,0,0,1-5.311,5.372,5.178,5.178,0,0,1-3.871-1.47,5.37,5.37,0,0,1-1.47-3.9,5.3,5.3,0,0,1,1.44-3.9,5.963,5.963,0,0,1,7.773,0,5.3,5.3,0,0,1,1.44,3.9m-9.153,0a4.352,4.352,0,0,0,1.05,3.061,3.619,3.619,0,0,0,2.791,1.14,3.51,3.51,0,0,0,2.791-1.111,4.467,4.467,0,0,0,.991-3.061,4.366,4.366,0,0,0-.991-3.061,3.577,3.577,0,0,0-2.821-1.111,3.512,3.512,0,0,0-2.791,1.111,4.348,4.348,0,0,0-1.021,3.031" transform="translate(-174.779 -43.641)" fill="#0f2132"/><path d="M474.665,118.5h-1.83v3.841h-1.411V111.929h3.122a5.022,5.022,0,0,1,3.241.93,3,3,0,0,1,1.2,2.4,2.842,2.842,0,0,1-1.17,2.311,5.231,5.231,0,0,1-3.151.93m-.119-5.522h-1.711v4.441h1.83a3.364,3.364,0,0,0,2.1-.6,1.918,1.918,0,0,0,.751-1.561,2.093,2.093,0,0,0-.781-1.681,3.586,3.586,0,0,0-2.19-.6" transform="translate(-184.378 -43.776)" fill="#0f2132"/><path d="M497.03,122.293h-6.482V111.88h1.411v9.3H497Z" transform="translate(-191.857 -43.757)" fill="#0f2132"/><path d="M516.441,118.362a3.893,3.893,0,0,1-1.14,3.031,4.635,4.635,0,0,1-3.211,1.02,4.477,4.477,0,0,1-3.151-1.02,3.732,3.732,0,0,1-1.14-2.941V111.88h1.411v6.572a2.653,2.653,0,0,0,.78,2.1,3.107,3.107,0,0,0,2.1.69c1.951,0,2.942-.96,2.942-2.881V111.88h1.41Z" transform="translate(-198.604 -43.757)" fill="#0f2132"/><path d="M536.311,122.293h-6.482V111.88h1.411v9.3h5.042Z" transform="translate(-207.221 -43.757)" fill="#0f2132"/><path d="M555.722,118.362a3.893,3.893,0,0,1-1.14,3.031,4.634,4.634,0,0,1-3.211,1.02,4.477,4.477,0,0,1-3.152-1.02,3.732,3.732,0,0,1-1.141-2.941V111.88h1.411v6.572a2.653,2.653,0,0,0,.78,2.1,3.107,3.107,0,0,0,2.1.69c1.951,0,2.942-.96,2.942-2.881V111.88h1.41Z" transform="translate(-213.967 -43.757)" fill="#0f2132"/><path d="M578.026,119.42a7.56,7.56,0,0,1-8.073-.51,4.888,4.888,0,0,1-1.681-3.9,5.019,5.019,0,0,1,1.65-3.871,6.055,6.055,0,0,1,4.2-1.5,7.349,7.349,0,0,1,3.451.72v1.351a6.388,6.388,0,0,0-3.331-.84,4.69,4.69,0,0,0-3.241,1.14,4.311,4.311,0,0,0-.03,6.062,4.812,4.812,0,0,0,3.392,1.111,5.964,5.964,0,0,0,2.221-.42v-3.241h-2.611v-1.111H578l.03,5.012-.06-.03ZM576.8,106.606a2.35,2.35,0,0,1-.72,1.8,3.866,3.866,0,0,1-4.321,0,2.35,2.35,0,0,1-.72-1.8h1.141a1.614,1.614,0,0,0,.42,1.14,1.74,1.74,0,0,0,1.351.42,1.831,1.831,0,0,0,1.32-.42,1.614,1.614,0,0,0,.42-1.14Z" transform="translate(-222.256 -41.695)" fill="#0f2132"/><path d="M600.573,118.362a3.893,3.893,0,0,1-1.141,3.031,4.635,4.635,0,0,1-3.211,1.02,4.478,4.478,0,0,1-3.152-1.02,3.732,3.732,0,0,1-1.14-2.941V111.88h1.411v6.572a2.653,2.653,0,0,0,.78,2.1,3.107,3.107,0,0,0,2.1.69c1.951,0,2.942-.96,2.942-2.881V111.88h1.41Z" transform="translate(-231.509 -43.757)" fill="#0f2132"/></g></g></g></svg>