<svg xmlns="http://www.w3.org/2000/svg" xmlns:xlink="http://www.w3.org/1999/xlink" width="500" height="250" viewBox="0 0 500 250"><defs><clipPath id="b"><rect width="500" height="250"/></clipPath></defs><g id="a" clip-path="url(#b)"><rect width="500" height="250" fill="#fff"/><path d="M0,193.816V0H197.6V193.816c-.372.033-.743.093-1.115.093q-97.262,0-194.524,0c-.654,0-1.308-.058-1.961-.089m152.994-63.709c-.327-.882-.526-1.456-.752-2.018q-6.579-16.339-13.163-32.676-14.464-35.92-28.9-71.851a1.827,1.827,0,0,0-2.07-1.353q-8.961.1-17.924,0a2.006,2.006,0,0,0-2.259,1.5Q78.319,47.9,68.616,72.055c-.155.389-.267.8-.443,1.328.654.107,1.2.2,1.746.284,5.157.79,10.325,1.512,15.463,2.412,1.246.218,1.722-.044,2.181-1.182,3.6-8.9,7.255-17.783,10.9-26.668.2-.488.438-.961.828-1.811l19.305,48.341c-.735-.352-1.075-.489-1.392-.669C100.279,84.456,81.94,79.449,62.79,77.27c-6.766-.77-13.593-1.112-20.4-1.331-4.643-.15-9.3.262-13.955.4-.793.023-1,.392-1.068,1.147-.109,1.27.568,1.373,1.545,1.355A116.827,116.827,0,0,1,50.7,80.359c33.225,5.623,60.211,21.851,80.807,48.907a2.308,2.308,0,0,0,1.59.813c6.021.054,12.044.03,18.065.027h1.831m-13.887,46.478c0-6.917.25-13.682-.084-20.418-.238-4.8-3.04-8.338-7.278-10.5a16.308,16.308,0,0,0-12.883-1.082c-6.693,2.236-9.865,7.4-10.654,14.238-1.373,11.906,7.6,20.131,19.105,17.533.431-.1,1.135-.478,1.143-.745.085-2.732.052-5.468.052-8.313-.979.261-1.739.5-2.514.664-3.958.835-7.149-.583-8.687-3.838a9.1,9.1,0,0,1,1.771-9.919c2.393-2.311,5.2-2.226,8.03-1.137,2.638,1.016,3.7,3.142,3.672,5.976-.056,5.284-.018,10.568-.012,15.852,0,.554.056,1.108.087,1.685Zm-86.141-9.307c-1.057.287-1.819.538-2.6.7-4.212.867-7.669-.87-8.9-4.574a8.759,8.759,0,0,1,1.329-8.382c1.9-2.547,4.907-3.293,8.271-2.15,2.852.968,4.16,2.955,4.164,6.362q.009,7.855,0,15.71v1.617H63.5a3.679,3.679,0,0,0,.127-.633c-.006-6.331.051-12.664-.058-18.994a12.4,12.4,0,0,0-3.613-8.457c-5.369-5.679-15.591-6.288-21.537-1.24-4.143,3.517-5.816,8.187-5.873,13.531-.12,11.188,8.8,18.329,19.427,15.547.372-.1.941-.507.948-.784.072-2.7.043-5.393.043-8.252m8.041-75.867c-.365.821-.582,1.272-.768,1.735-1.437,3.57-2.909,7.127-4.274,10.725a1.82,1.82,0,0,1-2.2,1.4c-2.1-.233-4.216-.336-6.325-.488q-3.2-.231-6.4-.451l-.289.462a4.494,4.494,0,0,1,.846.458c3.053,2.611,6.07,5.266,9.154,7.838a1.68,1.68,0,0,1,.583,2.291c-1.542,3.68-3,7.4-4.477,11.1-.164.409-.29.833-.524,1.513.669-.393,1.076-.618,1.469-.866,3.354-2.111,6.719-4.2,10.045-6.358a1.374,1.374,0,0,1,1.962.162c3.12,2.751,6.285,5.449,9.439,8.161.254.218.535.4.969.728-.579-2.412-1.1-4.58-1.618-6.749s-.965-4.369-1.571-6.517a1.669,1.669,0,0,1,.921-2.186c3.418-2.1,6.8-4.256,10.186-6.4.282-.179.535-.4.977-.742-.854-.1-1.456-.19-2.061-.237-3.748-.29-7.495-.6-11.247-.832a1.485,1.485,0,0,1-1.6-1.394c-.295-1.492-.695-2.962-1.051-4.442-.684-2.846-1.369-5.691-2.145-8.919m82.632,85.244c2.518,0,4.951.034,7.381-.01a55.163,55.163,0,0,0,6.889-.293,9.029,9.029,0,0,0,7.787-7.233c.764-4.042-.607-7.11-4.39-9.5-1.589-1.006-3.3-1.809-4.952-2.719a21.406,21.406,0,0,1-2.792-1.649c-.451-.347-1.018-1.245-.865-1.534a2.219,2.219,0,0,1,1.611-.995c2.44-.11,4.887-.051,7.331-.054h2.507v-8.2c-4.539.18-8.978.345-13.416.548a4.514,4.514,0,0,0-1.343.414,8.2,8.2,0,0,0-5.432,7.026,7.685,7.685,0,0,0,3.77,7.991c1.379.9,2.853,1.653,4.271,2.495a19.717,19.717,0,0,1,3.326,2.115,3.375,3.375,0,0,1,1.07,2.379c-.092,1.162-1.286,1.18-2.244,1.183-3.008.009-6.017,0-9.025,0H143.64ZM98.956,136.172H90.615c-.035.488-.091.9-.091,1.316,0,9.242-.019,18.483.015,27.725a19.73,19.73,0,0,0,.4,3.968c.793,3.77,2.892,6.454,6.773,7.135a41.516,41.516,0,0,0,6.465.3,1.061,1.061,0,0,0,.77-.7c.057-2.556.035-5.114.035-7.84-1.152,0-2.126.016-3.1,0-1.857-.038-2.729-.734-2.847-2.626-.145-2.325-.088-4.664-.1-7-.012-1.8,0-3.6,0-5.527,1.756,0,3.347.035,4.936-.026.375-.014,1.055-.339,1.061-.537.072-2.546.048-5.1.048-7.736H98.956ZM87.2,144.367c-4.767-.622-7.835,1.41-9.84,5.612v-5.265H69.442V173.6c0,3.059,0,3.059,3.026,3.059h5.967c0-.811,0-1.375,0-1.938.012-4.9-.078-9.807.066-14.705.122-4.164,2.819-6.662,6.889-6.709.59-.007,1.18,0,1.815,0ZM156.38,182a3.677,3.677,0,1,0-3.668,3.732A3.74,3.74,0,0,0,156.38,182" transform="translate(151.2 4.081)" fill="#0f2132"/><path d="M197.6,47.024H0V3c.126.006.253.013.379.02l.161.009.08,0c.413.025.88.054,1.341.054,39.686,0,84.23.006,136.177.006h58.346a6.762,6.762,0,0,0,.716-.051l.025,0,.02,0,.05-.005.063-.007c.08-.009.161-.018.242-.025V47.023h0ZM75.432,27.788a.986.986,0,0,0-.782.274,1.4,1.4,0,0,0-.2,1.122,5.774,5.774,0,0,0,2.958,4.755,19.3,19.3,0,0,0,2.959,1.2l.011,0,.032.011c.379.13.808.277,1.211.43-1.393.808-2.005,1.93-1.724,3.16a2.935,2.935,0,0,0,2.6,2.27h.034a2.723,2.723,0,0,0,2.689-1.883c.526-1.351.038-2.485-1.538-3.571.374-.115.757-.219,1.15-.324l.019-.005.008,0a15.449,15.449,0,0,0,2.544-.842,5.819,5.819,0,0,0,3.285-6.718A5.6,5.6,0,0,0,86.46,23.5c-.816-.254-1.653-.482-2.462-.7l-.029-.008-.063-.017-.037-.01c-.929-.252-1.889-.512-2.826-.814a1.528,1.528,0,0,1-1.074-.915,1.264,1.264,0,0,1,.276-1.154,2.592,2.592,0,0,1,2.06-.779c1.191,0,2.527.5,2.777,1.469.261,1.006.71,1.4,1.6,1.4.118,0,.244-.006.385-.019.31-.029.624-.043.933-.043s.6.014.9.041c.093.008.178.013.255.013a1.013,1.013,0,0,0,.8-.276,1.51,1.51,0,0,0,.2-1.194,5.6,5.6,0,0,0-2.283-3.944,9.539,9.539,0,0,0-10.5-.039,5.632,5.632,0,0,0-2.335,5.125,5.4,5.4,0,0,0,3.352,4.332,20.984,20.984,0,0,0,2.858.945h.01l.045.013.06.017c.478.134.973.272,1.452.427l.026.008.042.014.049.016.008,0,.246.078.006,0a12,12,0,0,1,1.991.761,1.444,1.444,0,0,1,.8.949,1.28,1.28,0,0,1-.337,1.075,2.888,2.888,0,0,1-2.4.99,10.994,10.994,0,0,1-1.267-.094c-1.039-.121-2.308-.529-2.453-1.793-.154-1.329-.777-1.6-1.666-1.6-.157,0-.324.008-.526.024-.3.023-.6.035-.869.035s-.549-.011-.822-.033C75.564,27.792,75.492,27.788,75.432,27.788ZM52.3,23.681l0,0c.524.854,1.048,1.68,1.555,2.478l.066.1.01.016.122.193.008.013c1.3,2.038,2.519,3.962,3.572,5.978.969,1.854,2.157,2.645,3.972,2.645.229,0,.469-.012.711-.036,1.268-.125,1.8-.406,1.776-1.823-.036-2.811-.032-5.648-.027-8.391V24.7c0-1.82.008-4.086-.005-6.3,0-.441,0-.8.012-1.136v-.011c.018-.873.028-1.354-.212-1.6-.266-.276-.823-.284-2.045-.3H61.8l-.762-.014h-.013l-.13,0a1.783,1.783,0,0,0-1.352.391,1.95,1.95,0,0,0-.357,1.466c.082,2.1.067,4.2.051,6.432v.141c-.006.833-.014,1.869-.014,2.9-.6-.971-1.19-1.9-1.761-2.79l-.007-.01-.016-.027,0,0,0-.005c-1.309-2.048-2.544-3.982-3.6-6.012a4.092,4.092,0,0,0-4.011-2.537c-.189,0-.389.007-.594.021-1.246.087-1.8.369-1.778,1.811.04,2.982.034,5.976.029,8.871v.245c0,1.727-.007,3.685,0,5.591,0,.363,0,.667,0,1v.028c-.01,1.092-.015,1.64.25,1.907s.763.262,1.77.265c.4,0,.8,0,1.276.016H50.9a1.471,1.471,0,0,0,1.1-.326,1.653,1.653,0,0,0,.319-1.23c-.049-2.21-.04-4.444-.032-6.6v-.392c0-.882.007-1.831.007-2.8ZM33.944,15.3c-.377,0-.831.017-1.356.037h-.032l-.117,0c-1.147.044-1.51.437-1.5,1.617.028,2.37.023,4.758.019,7.068v.188c-.005,2.373-.011,4.825.019,7.3.008.7-.013,1.255-.028,1.661v.011c-.031.85-.047,1.319.186,1.561.25.26.812.272,1.867.272h.229c.4,0,.858,0,1.4.009h.058a1.318,1.318,0,0,0,.987-.3,1.534,1.534,0,0,0,.3-1.152c-.037-1.932-.031-3.9-.025-5.8v-.3c0-.854.005-1.566.005-2.175V18.734A7.549,7.549,0,0,0,35.7,15.9C35.442,15.395,34.884,15.3,33.944,15.3Zm98.473,15.464h6.643l1.453,4.246h4.919l-7.285-19.674h-4.794l-7.535,19.674h5.064l1.535-4.245Zm-26.953,0h6.642l1.453,4.246h4.919l-7.285-19.674H106.4L98.863,35.008h5.064l1.536-4.246Zm50.828-11.1V34.942h4.646V19.658H166.6v-4.3H150.685v4.3ZM33.476,10.424c-1.114,0-1.673,0-1.951.258s-.279.779-.278,1.812c0,1.961,0,2,2.141,2h.136c2.15,0,2.15,0,2.152-1.974v-.006c0-1.042,0-1.565-.274-1.826S34.574,10.424,33.476,10.424Zm77.468,16.639h-4.452l2.18-5.675,2.272,5.674Zm26.954,0h-4.452l2.179-5.675,2.272,5.673Z" transform="translate(151.201 197.896)" fill="#0f2132" stroke="rgba(0,0,0,0)" stroke-miterlimit="10" stroke-width="1"/><rect width="197.6" height="237.839" transform="translate(151.2 4.081)" fill="none"/></g></svg>