<svg xmlns="http://www.w3.org/2000/svg" xmlns:xlink="http://www.w3.org/1999/xlink" width="500" height="250" viewBox="0 0 500 250"><defs><clipPath id="a"><rect width="229.575" height="250.888" fill="none"/></clipPath><clipPath id="c"><rect width="500" height="250"/></clipPath></defs><g id="b" clip-path="url(#c)"><rect width="500" height="250" fill="#fff"/><g transform="translate(124.42)"><g clip-path="url(#a)"><path d="M157.834,128.858c-19.443,0-38.887-.055-58.33.062-2.752.017-3.554-.7-3.556-3.5-.013-20.444-.114-40.889-.416-61.331-.054-3.67,1.087-4.695,4.6-4.445,4.189.3,8.418.14,12.626.04,1.892-.045,2.827.547,2.579,2.53a5.274,5.274,0,0,0,0,.743c.111,6.3.106,6.473-6.112,6.3-2.908-.081-3.466.934-3.45,3.6q.125,21.376-.106,42.755c-.025,2.522.577,3.557,3.267,3.41a93.1,93.1,0,0,1,11.51.01c3.23.226,3.872-1.071,3.869-4.044-.029-30.363.141-60.727.06-91.09-.009-3.525.767-5.153,4.418-4.411,9.3,1.89,15.516-1.615,18.913-10.487.738-1.929,2.335-3.513,3.25-5.4,1.29-2.654,3.175-3.389,6.12-3.575,4.02-.254,6.345,1.069,8.236,4.563,2.41,4.453,5.43,8.573,8.083,12.9a3.843,3.843,0,0,0,3.891,2.136c3.46-.181,6.951.109,10.394-.192,3.006-.263,3.671.8,3.661,3.682-.1,29.992-.063,59.984-.063,89.976,0,5.875,0,5.875,5.872,5.875,3.715,0,7.432-.062,11.145.023,1.776.04,2.353-.624,2.339-2.392q-.185-22.492-.218-44.986c0-1.824-.731-2.444-2.441-2.293-.86.076-1.751-.1-2.6.032-3.617.579-5.031-.592-4.743-4.532.424-5.819-.49-5.051,5.284-5.1,3.467-.031,6.95.195,10.4-.065,3.058-.231,3.976.7,3.948,3.858-.156,17.473-.075,34.949-.075,52.423,0,3.222-.165,6.456.051,9.664.178,2.64-.756,3.325-3.333,3.312-19.69-.1-39.382-.054-59.073-.054" transform="translate(-42.609 0)" fill="#0f2132"/><path d="M.968,312.222c0-7.793.066-15.586-.042-23.377-.03-2.209.565-3.064,2.9-3,5.805.158,11.622-.084,17.425.122,12.09.429,18.284,12.2,11.892,22.6-.968,1.575-1.112,2.139.569,3.316,5.826,4.075,7.669,10.1,5.545,16.967-1.885,6.093-6.724,9.814-13.6,10.006-7.287.2-14.584.01-21.874.171-2.4.053-2.877-.927-2.852-3.06.091-7.915.037-15.832.037-23.748" transform="translate(-0.413 -127.493)" fill="#1e1f1d"/><path d="M105.27,339.008c-14.823-.138-26.225-11.985-26.063-27.078a26.19,26.19,0,0,1,26.76-26c14.868.156,26.206,11.945,26.035,27.07a26.159,26.159,0,0,1-26.731,26.006" transform="translate(-35.328 -127.532)" fill="#1e1f1d"/><path d="M202.615,338.744c-10.5.147-17.091-4.928-17.908-13.684-.109-1.172-.707-2.83.966-3.109,1.837-.307,1.474,1.613,1.759,2.668a16.038,16.038,0,0,0,22.7,10.116c5.433-2.69,5.968-10.89.913-14.617-2.82-2.08-6.156-3.1-9.405-4.252a43.5,43.5,0,0,1-8.445-3.7c-5.287-3.252-8.4-7.76-7.476-14.147.9-6.229,5.152-9.6,10.867-11.344,10.24-3.124,19.372.981,22.037,9.852a6.987,6.987,0,0,1,.424,1.79c.022,1.006.718,2.5-.973,2.682-1.4.153-1.167-1.236-1.391-2.151-2.095-8.544-9.587-12.723-18.18-10.219-3.83,1.116-6.211,3.542-6.756,7.49-.528,3.824,1.934,6.065,4.912,7.533,5.3,2.613,10.819,4.784,16.125,7.385,4.635,2.272,8.126,5.642,8.6,11.2.789,9.205-4.991,15.547-15.058,16.5-1.226.115-2.471.016-3.708.016" transform="translate(-82.298 -127.399)" fill="#1e1f1d"/><path d="M279.9,338.875c-10.083,0-15.768-3.607-18.037-10.985-.109-.354-.376-.712-.344-1.048.158-1.687-1.533-4.3.869-4.811,1.9-.406,1.56,2.368,1.948,3.778,2.554,9.3,16.21,13.964,23.792,8.074,4.2-3.261,3.895-10.6-.614-13.864-2.84-2.057-6.181-3.063-9.433-4.213a41.147,41.147,0,0,1-8.436-3.744c-5.105-3.225-8.219-7.639-7.366-13.885.85-6.223,5.042-9.69,10.757-11.477,10.05-3.144,19.2.768,22.027,9.353a11.947,11.947,0,0,1,.578,2.512c.091.907.588,2.2-.88,2.395-1.426.191-1.267-1.077-1.485-2.032a13.966,13.966,0,0,0-19.866-9.728,8.425,8.425,0,0,0-5.088,7.23c-.3,3.1,1.559,5.093,3.961,6.637,3.451,2.218,7.347,3.5,11.082,5.107a43.8,43.8,0,0,1,8.872,4.556c9.027,6.645,7.658,19.582-2.569,24.191a22,22,0,0,1-9.768,1.953" transform="translate(-116.453 -127.395)" fill="#1e1f1d"/><path d="M375.566,307.347c0,5.689.117,11.382-.055,17.066-.074,2.439.635,3.354,3.1,3.1,1.049-.109,2.859-.624,2.775,1.355-.07,1.646-1.711,1.183-2.656,1.072-2.723-.321-3.506.9-3.183,3.383.127.973-.1,1.994.044,2.962.412,2.753-1.158,2.862-3.285,2.929-2.253.07-2.978-.58-2.993-2.9-.042-6.329-.153-6.327-6.505-6.327-6.674,0-13.348-.047-20.021.023-2.633.028-3.078-.68-1.528-2.9q13.48-19.283,26.82-38.663c1.768-2.577,4.2-1.815,6.344-1.512s1.062,2.441,1.091,3.715c.127,5.562.055,11.13.055,16.7" transform="translate(-151.811 -127.828)" fill="#1f201e"/><path d="M178.366,418.089c0-1.484-.013-2.968.009-4.452a7.9,7.9,0,0,1,4.656-7.42c3.145-1.543,6.382-1.349,8.992,1.007,1.608,1.452,2.341,1.03,3.823-.1a8.328,8.328,0,0,1,13.532,5.94c.343,3.429.069,6.919.1,10.38.011,1.137-.24,1.937-1.61,1.911s-1.177-1.008-1.183-1.834c-.024-3.091.048-6.184-.03-9.274-.092-3.643-2.347-6.126-5.511-6.235-3.333-.114-5.7,2.374-5.821,6.261-.086,2.842-.016,5.688-.024,8.532,0,1.226.222,2.733-1.713,2.514-1.712-.194-1.015-1.69-1.046-2.63-.094-2.841.034-5.689-.055-8.531-.112-3.6-2.459-6.1-5.62-6.146-3.2-.052-5.575,2.349-5.711,5.99-.115,3.087-.033,6.182-.037,9.273,0,1.028-.009,2.03-1.449,2.075-1.631.052-1.272-1.164-1.3-2.064-.049-1.729-.014-3.462-.009-5.193" transform="translate(-79.549 -180.74)" fill="#21211f"/><path d="M17.7,422.949c-2.2.886-3.884,2.158-6,2.387a10.551,10.551,0,0,1-10.675-5.79,10.39,10.39,0,0,1,14.14-13.7c.809.373,2.349,3.262,3.128-.355.134-.624,2.437-1.042,2.439,1.062,0,5.43.246,10.895-.282,16.28-.419,4.274-3.408,7-7.579,8.164-.817.229-2.033.987-2.477-.44-.384-1.232.139-1.971,1.614-2.247,2.826-.53,4.655-2.328,5.694-5.36" transform="translate(0 -180.515)" fill="#1f1f1d"/><path d="M247.6,416.261c1.6,5.5,6.014,7.57,10.878,5.228,1.091-.525,2.218-1.682,3.06,0,.87,1.742-1,1.954-1.905,2.466a10.042,10.042,0,0,1-11.984-1.65,10.144,10.144,0,0,1-2.147-11.941,10.471,10.471,0,0,1,10.692-5.813,10.792,10.792,0,0,1,8.853,8.41c.5,2.557-.206,3.5-2.977,3.361-4.792-.233-9.6-.065-14.471-.065" transform="translate(-109.025 -180.395)" fill="#21211f"/><path d="M63.242,422.806c-6.912,4.207-13.929,2.651-16.576-3.7A10.354,10.354,0,0,1,59.714,405.3a9.9,9.9,0,0,1,6.753,8.932,57.33,57.33,0,0,1,.006,7.792c-.057,1.029.952,2.6-.994,3.047-1.879.429-1.435-1.577-2.237-2.262" transform="translate(-20.413 -180.474)" fill="#20201e"/><path d="M106.01,424.015c-8.526,3.088-13.546-.4-13.565-8.934-.006-2.6-.011-5.2.008-7.793.006-.828-.186-1.8,1.147-1.86,1.5-.069,1.465.938,1.465,1.966,0,2.968-.091,5.941.039,8.9.17,3.891,2.572,6.41,5.829,6.347,3.277-.063,5.558-2.64,5.652-6.519.069-2.844-.015-5.69.033-8.535.015-.873-.447-2.111,1.183-2.167,1.4-.048,1.573.825,1.563,1.931-.049,5.317.061,10.64-.157,15.949-.151,3.684-2.277,6.207-5.74,7.437-.805.286-2.083.943-2.63-.266-.573-1.27.272-1.933,1.545-2.313a4.545,4.545,0,0,0,3.629-4.149" transform="translate(-41.23 -180.83)" fill="#20201f"/><path d="M347.963,400.323c-2.521,3.2-4.346,5.689-6.358,8.014-1.308,1.511-1.215,2.6.094,4.084,2.034,2.3,3.817,4.827,5.742,7.3-2.437.729-2.437.729-10.686-8.38,0,2.789,0,4.9,0,7.016,0,1.044-.045,2.029-1.481,2.047-1.658.021-1.235-1.239-1.239-2.109q-.047-11.146,0-22.291c0-.786-.284-1.851,1.128-1.863,1.361-.012,1.607.8,1.6,1.938-.022,4.266-.009,8.532-.009,13.019,4.293-2.358,4.641-8.755,11.21-8.779" transform="translate(-148.968 -175.799)" fill="#222220"/><path d="M384.891,412.5c0,1.612.075,3.227-.014,4.833a8.366,8.366,0,0,1-7.8,8,8.214,8.214,0,0,1-8.714-6.51c-.873-3.912-.24-7.906-.4-11.861-.044-1.094.5-1.543,1.569-1.555,1.336-.014,1.219.914,1.222,1.772.008,3.1-.067,6.2.028,9.3.111,3.639,2.429,6.1,5.623,6.16,3.128.06,5.576-2.377,5.755-6.005.152-3.092.063-6.2.057-9.294,0-1.1.152-1.984,1.568-1.922,1.371.059,1.1,1.073,1.112,1.884.029,1.735.009,3.471.009,5.206Z" transform="translate(-164.086 -180.822)" fill="#222220"/><path d="M308.994,418.582c0,1.605.022,3.211-.008,4.816-.018.972.1,2.123-1.415,2.047-1.543-.076-1.193-1.3-1.207-2.205-.043-2.716.019-5.433-.024-8.15-.066-4.149-2.255-6.855-5.583-6.985-3.453-.135-5.887,2.657-5.985,6.979-.065,2.839,0,5.68-.023,8.52-.006.851.055,1.79-1.218,1.851-1.29.062-1.338-.838-1.336-1.726.012-3.7-.147-7.422.132-11.106a7.981,7.981,0,0,1,8.071-7.134,8.1,8.1,0,0,1,8.368,6.809,62.439,62.439,0,0,1,.312,6.279l-.083,0" transform="translate(-130.311 -180.859)" fill="#1e1e1c"/><path d="M407.886,407.053c0-3.583-.036-7.166.024-10.748.016-.968-.555-2.388,1.281-2.486,1.775-.095,1.551,1.192,1.552,2.277q.017,10.933,0,21.867c0,1.085.225,2.384-1.53,2.314-1.82-.072-1.292-1.491-1.307-2.477-.052-3.582-.021-7.165-.021-10.748" transform="translate(-181.907 -175.651)" fill="#2c2c2b"/><path d="M133.318,419.175c-.006-3.216-.143-6.457,1.772-9.308a9.929,9.929,0,0,1,5.85-4.272c.92-.235,2.321-1.022,2.846.555.514,1.54-.824,1.718-1.88,2.114-4.273,1.6-5.721,3.715-5.79,8.372-.033,2.226.018,4.454-.019,6.68-.015.92.274,2.1-1.34,2.033-1.438-.064-1.436-1.068-1.439-2.091q0-2.041,0-4.082" transform="translate(-59.461 -180.725)" fill="#272725"/><path d="M164.118,415.6c0,2.706,0,5.413,0,8.119,0,.885,0,1.749-1.29,1.732-1.094-.014-1.545-.545-1.544-1.587q0-8.488,0-16.976c0-1.1.544-1.5,1.588-1.514,1.292-.013,1.254.859,1.254,1.737q0,4.244,0,8.488" transform="translate(-71.933 -180.806)" fill="#2c2c2a"/><path d="M162.737,394.523c.9-.076,1.385.272,1.385,1.236,0,.836-.161,1.454-1.184,1.438-.962-.016-1.718-.192-1.659-1.421.047-.975.638-1.228,1.457-1.253" transform="translate(-71.934 -175.963)" fill="#30302e"/><path d="M184.212,30.842q0,49.263.044,98.526c0,2.413-.7,3.309-3.161,3.218-4.205-.156-8.429-.2-12.63.016-2.743.143-3.584-.645-3.561-3.491.155-19.088.118-38.178.146-57.266.012-8.677.087-17.354,0-26.03-.021-2.173.518-3.458,2.87-2.968,5.513,1.15,8.743-1.495,11.115-6.145a54.879,54.879,0,0,1,4.333-6.274l.841.414" transform="translate(-73.552 -13.572)" fill="#fefefe"/><path d="M216.281,30.457c2.564,3.268,4.72,5.521,6.283,8.131,2.109,3.521,4.917,4.953,8.884,4.247,3.271-.582,4.114.726,4.1,4.013q-.145,40.845.132,81.691c.023,3.312-.87,4.332-4.137,4.086a83.074,83.074,0,0,0-11.494-.008c-2.989.19-3.769-.879-3.755-3.785.091-19.061,0-38.123-.013-57.184-.012-13.347,0-26.695,0-41.19" transform="translate(-96.465 -13.585)" fill="#fefefe"/><path d="M12.3,345.146c.424-3.033-1.651-7.769.8-10.076,2.214-2.084,6.843-.418,10.4-.591.493-.024.989.008,1.483-.006,4.387-.123,8.538.483,10.8,4.86,2.392,4.63,1.957,9.328-.465,13.836a7.505,7.505,0,0,1-6.5,4.288c-4.813.173-9.635.108-14.452.215-1.666.037-2.112-.748-2.083-2.259.061-3.215.019-6.432.019-10.268" transform="translate(-5.297 -148.978)" fill="#fefefe"/><path d="M12.63,300.753c0-2.839-.009-5.677,0-8.515,0-.968-.152-2.182,1.32-2.129,4.784.17,9.631-.7,14.343.653,4.969,1.423,7.16,4.548,7.1,9.852-.062,5.888-2.335,9.174-7.365,10.492-4.612,1.208-9.327.374-13.991.58-1.474.065-1.408-1.054-1.412-2.048-.009-2.962,0-5.924,0-8.885" transform="translate(-5.632 -129.343)" fill="#fefefe"/><path d="M130.575,314.452a28.356,28.356,0,0,1-4.7,15.876,17.027,17.027,0,0,1-28.512.028c-6.179-8.936-6.279-23.36-.223-32.339,7.22-10.7,21.717-10.727,28.921,0,3.273,4.874,4.489,10.372,4.514,16.435" transform="translate(-41.33 -129.339)" fill="#fefefe"/><path d="M373.138,311.078c0,3.214.089,6.431-.02,9.64-.257,7.533-4.706,11.863-12.184,11.939-3.458.035-6.917-.016-10.375.012-1.864.015-2.21-.627-1.139-2.173q10.759-15.517,21.484-31.06c.409-.592.77-1.459,1.654-1.092.826.343.569,1.274.573,1.979.021,3.585.009,7.169.007,10.754" transform="translate(-155.582 -133.031)" fill="#fdfdfd"/><path d="M12.557,424.806a7.553,7.553,0,0,1-.024-15.1,7.475,7.475,0,0,1,7.655,7.743,7.4,7.4,0,0,1-7.63,7.361" transform="translate(-2.278 -182.737)" fill="#fdfdfd"/><path d="M264.621,415.655h-14.65c.854-3.636,3.04-5.579,6.53-5.991,3.848-.455,6.362,1.378,8.121,5.991" transform="translate(-111.494 -182.691)" fill="#fcfcfc"/><path d="M66,417.24a7.538,7.538,0,0,1-15.074.246A7.539,7.539,0,1,1,66,417.24" transform="translate(-22.715 -182.74)" fill="#fdfdfd"/></g></g></g></svg>