<svg xmlns="http://www.w3.org/2000/svg" xmlns:xlink="http://www.w3.org/1999/xlink" width="500" height="250" viewBox="0 0 500 250"><defs><clipPath id="a"><rect width="319.858" height="223.312" fill="#0f2132"/></clipPath><clipPath id="c"><rect width="500" height="250"/></clipPath></defs><g id="b" clip-path="url(#c)"><rect width="500" height="250" fill="#fff"/><g transform="translate(90.142 13.537)"><path d="M211.831,0,130.962,95.169l12.294,17.055,53.585-64.263L264.1,133.4,292.2,99.11Z" transform="translate(-46.532 0)" fill="#0f2132"/><path d="M221.236,149.952v31.1l29.037,6.932V155.012Z" transform="translate(-78.607 -53.279)" fill="#0f2132"/><path d="M175.383,227.484h3.086l6.974,11.358,6.852-11.358h3.07L186.8,241.676v13h-2.7v-13Z" transform="translate(-62.315 -80.827)" fill="#1d1d1b"/><path d="M233.274,227.484l12.586,27.192h-2.9l-4.212-8.936H227.058l-4.183,8.936h-3.009L232.6,227.484Zm-.34,5.7-4.632,9.9h9.256Z" transform="translate(-78.121 -80.827)" fill="#1d1d1b" fill-rule="evenodd"/><g clip-path="url(#a)"><path d="M277.1,227.484h5.374a30.759,30.759,0,0,1,6.24.407,6.908,6.908,0,0,1,3.78,2.357,6.818,6.818,0,0,1,1.473,4.479,6.893,6.893,0,0,1-1.433,4.483,7.037,7.037,0,0,1-3.947,2.376,34.926,34.926,0,0,1-6.859.44h-1.925v12.652h-2.7Zm2.7,2.652v9.242l4.572.055a11.934,11.934,0,0,0,4.059-.509,4.155,4.155,0,0,0,2.015-1.648,4.562,4.562,0,0,0,.736-2.54,4.516,4.516,0,0,0-.736-2.5,4.026,4.026,0,0,0-1.934-1.618,11.577,11.577,0,0,0-3.936-.48Z" transform="translate(-98.457 -80.827)" fill="#0f2132" fill-rule="evenodd"/><rect width="2.705" height="27.191" transform="translate(207.212 146.655)" fill="#0f2132"/><path d="M376.29,47.027h7.09c7.866,0,11.991-5.994,11.428-11.613-.375-5.621-5.624-10.116-14.238-10.116H358.465V47.027Zm.017,18.922H358.465V99.862L320.617,53.4V5.811h73.254c23.793,0,38.782,12.179,39.72,27.729a.69.69,0,0,1,.185.562v3.183c-.934,14.237-11.991,28.288-31.85,28.663-9.178.188-18.127,0-25.619,0" transform="translate(-113.918 -2.065)" fill="#0f2132" fill-rule="evenodd"/><path d="M71.533,1.16H86.65c27.352,0,44.961,17.8,47.4,41.032L88.525,95.587H11.712S12.123,1.2,12.086,1.16Zm-.614,23.988c-.186,0,.183-.005-.008-.005H48.993V71.6H75.6c12.738,0,19.3-13.112,18.737-24.915-.749-11.8-9.737-21.353-23.414-21.542" transform="translate(-4.161 -0.412)" fill="#0f2132" fill-rule="evenodd"/><path d="M0,327.353V309.681H5.967a12.523,12.523,0,0,1,5.715,1.09,8.117,8.117,0,0,1,3.343,3.178,8.846,8.846,0,0,1,1.241,4.586,8.627,8.627,0,0,1-.683,3.4,8.77,8.77,0,0,1-4.953,4.764,9.15,9.15,0,0,1-1.837.531,25.322,25.322,0,0,1-3.193.128Zm5.7-15.42H2.535V325.1H5.776a13.266,13.266,0,0,0,2.951-.255,7.373,7.373,0,0,0,1.753-.658,6.061,6.061,0,0,0,1.291-.991,6.552,6.552,0,0,0,1.875-4.8,6.123,6.123,0,0,0-3.561-5.751,6.888,6.888,0,0,0-1.736-.571,17.631,17.631,0,0,0-2.648-.139" transform="translate(0 -110.033)" fill="#0f2132" fill-rule="evenodd"/><path d="M38.011,309.286a9.516,9.516,0,0,1,6.829,2.6,8.616,8.616,0,0,1,2.739,6.513,8.493,8.493,0,0,1-2.764,6.484,9.8,9.8,0,0,1-6.947,2.56,9.257,9.257,0,0,1-6.674-2.56,8.574,8.574,0,0,1-2.659-6.432,8.741,8.741,0,0,1,2.686-6.564,9.367,9.367,0,0,1,6.791-2.6m.1,2.4a6.9,6.9,0,0,0-5.008,1.9,6.483,6.483,0,0,0-1.953,4.852,6.367,6.367,0,0,0,1.966,4.764,6.8,6.8,0,0,0,4.918,1.9,6.77,6.77,0,0,0,4.942-1.938,6.467,6.467,0,0,0,1.991-4.826,6.291,6.291,0,0,0-1.991-4.724,6.711,6.711,0,0,0-4.864-1.928" transform="translate(-10.139 -109.892)" fill="#0f2132" fill-rule="evenodd"/><path d="M71.7,315.957h5.941v7.5a16.111,16.111,0,0,1-6.489,1.418,9.65,9.65,0,0,1-7.031-2.561,8.51,8.51,0,0,1-2.623-6.332,8.809,8.809,0,0,1,2.724-6.6,9.434,9.434,0,0,1,6.83-2.632,12.167,12.167,0,0,1,2.84.326,23.084,23.084,0,0,1,3.395,1.181v2.583A12.469,12.469,0,0,0,71.005,309a6.679,6.679,0,0,0-4.9,1.978,7.015,7.015,0,0,0,0,9.783,7.1,7.1,0,0,0,5.125,1.91,12.048,12.048,0,0,0,3.634-.7l.237-.075v-3.687H71.7Zm2.391-13.887a4.149,4.149,0,0,1-1.269,2.509,3.816,3.816,0,0,1-4.8-.022,4.184,4.184,0,0,1-1.281-2.487h1.735a2.136,2.136,0,0,0,.7,1.218,2.024,2.024,0,0,0,1.294.394,1.829,1.829,0,0,0,1.187-.366,2.176,2.176,0,0,0,.674-1.246Z" transform="translate(-21.852 -107.328)" fill="#0f2132" fill-rule="evenodd"/><path d="M91.994,327.379v-17.7h4.432a6.359,6.359,0,0,1,4.258,1.329,4.465,4.465,0,0,1,1.59,3.6,4.434,4.434,0,0,1-3,4.359,7.787,7.787,0,0,1,1.661,1.521,30.257,30.257,0,0,1,2.277,3.357c.617,1.006,1.117,1.76,1.491,2.265l.934,1.269h-3.016l-.776-1.167c-.023-.042-.075-.113-.149-.216l-.5-.694-.785-1.295-.852-1.378a13.467,13.467,0,0,0-1.44-1.738,5.1,5.1,0,0,0-1.181-.924,3.864,3.864,0,0,0-1.764-.289h-.656v7.7Zm3.292-15.546h-.76v5.586h.962a7.127,7.127,0,0,0,2.639-.328,2.426,2.426,0,0,0,1.113-.989,2.89,2.89,0,0,0,.407-1.52,2.683,2.683,0,0,0-.445-1.509,2.361,2.361,0,0,0-1.253-.959,8.89,8.89,0,0,0-2.663-.28" transform="translate(-32.686 -110.033)" fill="#0f2132" fill-rule="evenodd"/><path d="M126.693,309.675h2.547v10.046a11.672,11.672,0,0,1-.306,3.079,6.577,6.577,0,0,1-.732,1.734,5.531,5.531,0,0,1-1.069,1.231,8.117,8.117,0,0,1-5.5,1.809,8.206,8.206,0,0,1-5.547-1.795,5.925,5.925,0,0,1-1.081-1.246,6.923,6.923,0,0,1-.717-1.694,12.542,12.542,0,0,1-.28-3.145v-10.02h2.546v10.046a7.469,7.469,0,0,0,.569,3.469,4.073,4.073,0,0,0,1.734,1.574,6.078,6.078,0,0,0,2.75.582,5.561,5.561,0,0,0,3.675-1.178,3.676,3.676,0,0,0,1.08-1.494,9.182,9.182,0,0,0,.329-2.953Z" transform="translate(-40.509 -110.031)" fill="#0f2132"/><path d="M158.031,309.522h1.786l7.919,17.8h-2.6l-2.355-5.248h-7.53l-2.227,5.248h-2.6Zm3.711,10.3-2.851-6.41-2.647,6.41Z" transform="translate(-53.448 -109.976)" fill="#0f2132" fill-rule="evenodd"/><path d="M179.9,309.675h2.532v15.394h7.97v2.306H179.9Z" transform="translate(-63.92 -110.031)" fill="#0f2132"/><path d="M203.807,309.522h1.785l7.921,17.8h-2.6l-2.354-5.248h-7.529l-2.228,5.248h-2.6Zm3.71,10.3-2.849-6.41-2.646,6.41Z" transform="translate(-69.713 -109.976)" fill="#0f2132" fill-rule="evenodd"/><path d="M239.785,309.675h2.4v17.7h-2.174l-11.84-13.621v13.621H225.8v-17.7h2.052l11.936,13.733Z" transform="translate(-80.228 -110.031)" fill="#0f2132"/><path d="M256.739,327.353V309.681H262.7a12.54,12.54,0,0,1,5.72,1.09,8.132,8.132,0,0,1,3.347,3.178,8.915,8.915,0,0,1,1.236,4.586,8.62,8.62,0,0,1-2.634,6.243,8.52,8.52,0,0,1-3,1.916,9.163,9.163,0,0,1-1.841.531,25.268,25.268,0,0,1-3.192.128Zm5.7-15.42h-3.165V325.1h3.245a13.379,13.379,0,0,0,2.953-.255,7.325,7.325,0,0,0,1.745-.658,6.053,6.053,0,0,0,1.3-.991,6.568,6.568,0,0,0,1.872-4.8,6.126,6.126,0,0,0-3.561-5.751,6.871,6.871,0,0,0-1.733-.571,17.7,17.7,0,0,0-2.652-.139" transform="translate(-91.222 -110.033)" fill="#0f2132" fill-rule="evenodd"/><path d="M288.85,309.522h1.789l7.918,17.8h-2.6l-2.355-5.248h-7.526l-2.236,5.248h-2.592Zm3.716,10.3-2.855-6.41-2.645,6.41Z" transform="translate(-99.931 -109.976)" fill="#0f2132" fill-rule="evenodd"/><path d="M321.282,327.363V309.635H326.9a5.772,5.772,0,0,1,4.042,1.374,4.719,4.719,0,0,1,1.509,3.67,4.883,4.883,0,0,1-.778,2.738,4.428,4.428,0,0,1-2.112,1.735,10.891,10.891,0,0,1-3.855.533h-1.872v7.678Zm5.167-15.469h-2.617v5.537h2.775a3.553,3.553,0,0,0,2.381-.723,2.645,2.645,0,0,0,.833-2.089q0-2.726-3.372-2.724" transform="translate(-114.155 -110.016)" fill="#0f2132" fill-rule="evenodd"/><path d="M341.731,327.379v-17.7h4.436a6.372,6.372,0,0,1,4.258,1.329,4.464,4.464,0,0,1,1.582,3.6,4.412,4.412,0,0,1-2.993,4.359,7.7,7.7,0,0,1,1.661,1.521,29.632,29.632,0,0,1,2.28,3.357q.926,1.509,1.483,2.265l.938,1.269h-3.016l-.771-1.167c-.026-.042-.077-.113-.154-.216l-.5-.694-.78-1.295-.852-1.378a13.464,13.464,0,0,0-1.441-1.738,5.078,5.078,0,0,0-1.182-.924,3.855,3.855,0,0,0-1.76-.289h-.658v7.7Zm3.3-15.546h-.76v5.586h.96a7.113,7.113,0,0,0,2.639-.328,2.448,2.448,0,0,0,1.113-.989,2.872,2.872,0,0,0,.408-1.52,2.708,2.708,0,0,0-.445-1.509,2.38,2.38,0,0,0-1.255-.959,8.889,8.889,0,0,0-2.661-.28" transform="translate(-121.42 -110.033)" fill="#0f2132" fill-rule="evenodd"/><path d="M371.368,309.286a9.5,9.5,0,0,1,6.828,2.6,8.6,8.6,0,0,1,2.739,6.513,8.478,8.478,0,0,1-2.763,6.484,9.785,9.785,0,0,1-6.943,2.56,9.268,9.268,0,0,1-6.678-2.56,8.589,8.589,0,0,1-2.657-6.432,8.75,8.75,0,0,1,2.685-6.564,9.376,9.376,0,0,1,6.789-2.6m.1,2.4a6.893,6.893,0,0,0-5.007,1.9,6.465,6.465,0,0,0-1.953,4.852,6.343,6.343,0,0,0,1.968,4.764,7.29,7.29,0,0,0,9.855-.041,6.448,6.448,0,0,0,1.989-4.826,6.273,6.273,0,0,0-1.989-4.724,6.712,6.712,0,0,0-4.863-1.928" transform="translate(-128.584 -109.892)" fill="#0f2132" fill-rule="evenodd"/><path d="M393.92,309.675h2.534v17.471a9.6,9.6,0,0,1-.505,3.61,4,4,0,0,1-1.61,1.877,4.938,4.938,0,0,1-2.689.709c-.159,0-.431-.03-.822-.077l-.469-2.355H391a4.105,4.105,0,0,0,1.663-.266,1.9,1.9,0,0,0,.911-.938,7.469,7.469,0,0,0,.342-2.855Z" transform="translate(-138.698 -110.031)" fill="#0f2132"/><path d="M405.508,309.675h10.033v2.256h-7.5v5.4h7.246V319.6h-7.246v5.5h7.74v2.256H405.508Z" transform="translate(-144.081 -110.031)" fill="#0f2132"/><path d="M425.227,309.675h2.535v15.394h7.971v2.306H425.227Z" transform="translate(-151.087 -110.031)" fill="#0f2132"/><path d="M444.559,309.675h10.033v2.256h-7.5v5.4h7.251V319.6H447.09v5.5h7.747v2.256H444.559Z" transform="translate(-157.956 -110.031)" fill="#0f2132"/><path d="M464.4,327.379v-17.7h4.438a6.358,6.358,0,0,1,4.254,1.329,4.468,4.468,0,0,1,1.586,3.6,4.43,4.43,0,0,1-2.995,4.359,7.749,7.749,0,0,1,1.663,1.521,30.225,30.225,0,0,1,2.278,3.357q.926,1.509,1.485,2.265l.934,1.269H475.03l-.775-1.167a1.986,1.986,0,0,0-.148-.216l-.494-.694-.788-1.295-.85-1.378a13.845,13.845,0,0,0-1.44-1.738,5.067,5.067,0,0,0-1.183-.924,3.846,3.846,0,0,0-1.758-.289h-.66v7.7Zm3.295-15.546h-.76v5.586h.96a7.114,7.114,0,0,0,2.641-.328,2.44,2.44,0,0,0,1.114-.989,2.89,2.89,0,0,0,.406-1.52,2.665,2.665,0,0,0-.447-1.509,2.349,2.349,0,0,0-1.253-.959,8.88,8.88,0,0,0-2.661-.28" transform="translate(-165.006 -110.033)" fill="#0f2132" fill-rule="evenodd"/></g></g></g></svg>