<svg xmlns="http://www.w3.org/2000/svg" xmlns:xlink="http://www.w3.org/1999/xlink" width="500" height="250" viewBox="0 0 500 250"><defs><clipPath id="a"><rect width="374.524" height="154.04" fill="#0f2132"/></clipPath><clipPath id="c"><rect width="500" height="250"/></clipPath></defs><g id="b" clip-path="url(#c)"><rect width="500" height="250" fill="#fff"/><g transform="translate(62.738 47.98)"><g clip-path="url(#a)"><path d="M312.277,2.3A2.053,2.053,0,0,0,310.682.877L308.961.75c-3.054-.232-6.756-.3-9.371-.564a74.19,74.19,0,0,0-15.788.8,171.211,171.211,0,0,1-20.067,1.1,31.8,31.8,0,0,1-7.5-.716c-1.566-.37-9.729-.34-12.375-.558C242.3.683,238.322.44,233,.181L229.284,0A2.808,2.808,0,0,0,226.4,3.033c.064,1.745-.049,6.849.117,11.463l.025.729c.156,4.615-.089,9.772-.025,11.465s.963,3.369,2.019,3.733a4.243,4.243,0,0,1,1.183.249c.765.255,3.1,1.5,3.978,1.862s2.317-1.065,2.987-1.572A128.6,128.6,0,0,1,254.375,19.1c7.189-3.914,19.306-8.494,24.659-10.59,1.669-.652,5.53-.058,7.355,1.176s12.2,2.767,13.247,3.127,4.812,1.348,6.027,1.782a11.492,11.492,0,0,0,3.688-.073l1.226-.154a1.642,1.642,0,0,0,1.183-1.417l.145-1.667c.16-1.9.348-5.321.365-7.167.007-1.35.007-1.821.007-1.821" transform="translate(-83.042 0)" fill="#0f2132" fill-rule="evenodd"/><path d="M214.957,56.28c-1.406,1.242-1.584,2.951-.382,3.8s2.788,1.01,3.536.369l1.91-1.516a74.619,74.619,0,0,1,6.866-4.921c4.5-2.741,11.795-6.262,18.558-10s14.452-7.531,17.2-9.444l2.749-1.915a4.51,4.51,0,0,1,3.717-.691l3.022,1.157c3.029,1.156,4.393,1.865,5.931,1.89a40,40,0,0,1,4.6.081,87.076,87.076,0,0,1,8.857,4.941c3.227,2.014,8.294,5.235,12.378,7.267s3.777,1.408,4.989,1.6l1.208.2c2.455.646,3.086.225,3.982-.937l1.233-1.738c.514-.721.953-1.373,1.194-1.789.808-1.435,1.321-2.625.945-3.491s-4.059-3.148-6.405-4.393A43.372,43.372,0,0,0,298.917,32.1c-6.6-1.561-15.451-3.567-18.455-3.964a35.693,35.693,0,0,1-7.826-2.271,7.768,7.768,0,0,0-5.038-.779c-2.108.48-3.543.868-4.9,1.189a27.269,27.269,0,0,0-5.2,2.218c-1.584.831-9.782,4.783-10.955,5.626s-4.177,2.3-6.427,3.639-8.163,4.986-10.738,6.9-4.988,3.6-7.22,5.35-4.73,4.115-5.963,5.2Z" transform="translate(-78.413 -9.141)" fill="#0f2132" fill-rule="evenodd"/><path d="M241.422,68.349c-.3-.705-1.332-.769-2.285-.135l-1.63,1c-.765.468-1.513.9-2.052,1.166a18.176,18.176,0,0,0-6.14,5.874c-1.254,2.188-1.264,5.283-1.264,8.866,0,3.444-.209,6.576-.018,12.052.085,2.4-.127,4.876-.042,7.436l.113,3.295c.057,1.454.829,2.811,1.725,3.012l1.031.023c1.028.021,4.351-.092,5.612-.25a25.571,25.571,0,0,1,5.718.62,34.044,34.044,0,0,0,7.429.475c2.636-.125,12.411-.3,18.214-.027s12.241-.125,15.564-.249a90.05,90.05,0,0,0,9.432-1.268c2.292-.3,5.488-.937,6.689-.912.634.009,4.436.076,7.893.138l3.1.053a2.919,2.919,0,0,0,2.7-3.272l-.014-2.652c0-.773.007-1.024.022-1.584.053-1.4.2-4.39.329-6.914l.089-1.915c.039-.827-1-1.906-2.569-2.1a30.51,30.51,0,0,0-3.2-.336c-4.131-.353-9.024-.69-10.692-.622-2.984.124-8.121.124-10.831.252s-4.4-.9-10.6-1.008-9.466-.793-15.663-.315-11.3.56-13.074.872-4.669-2.11-4.8-5.969-.283-11.676-.528-13.639Z" transform="translate(-83.612 -24.86)" fill="#0f2132" fill-rule="evenodd"/><path d="M0,168.936H29.816v8.657H9.52v9.984H27.367v8.659H9.52V206.55H30.081v8.66H0Z" transform="translate(0 -61.966)" fill="#0f2132"/><path d="M51.054,168.936H61.1L71.415,187.71,81.59,168.936H91.705V215.21H82.32V185.663l-10.905,19.1h-.2L60.371,185.792V215.21H51.054Z" transform="translate(-18.726 -61.966)" fill="#0f2132"/><path d="M119.428,168.936h9.584v37.482h18.71v8.791H119.428Z" transform="translate(-43.806 -61.966)" fill="#0f2132"/><path d="M174.862,168.514h9.123l16.592,46.542H190.66l-3.436-10.046H171.294l-3.372,10.046H158.27Zm9.452,28.03-5.021-15.073L174.2,196.544Z" transform="translate(-58.053 -61.811)" fill="#0f2132"/><path d="M225.81,168.936H235.4V188.9l15.142-19.962h11.3L246.3,188.568l16.2,26.643H251.266l-11.571-19.041-4.3,5.422V215.21H225.81Z" transform="translate(-82.827 -61.966)" fill="#0f2132"/><path d="M298.582,168.936h9.583V188.9l15.142-19.962h11.3l-15.536,19.631,16.2,26.643H324.034l-11.571-19.041-4.3,5.422V215.21h-9.583Z" transform="translate(-109.519 -61.966)" fill="#0f2132"/><path d="M349.526,192.075v-.793c0-13.885,8.726-23.6,20.956-23.6,12.294,0,20.892,9.653,20.892,23.47v.793c0,13.814-8.729,23.6-20.956,23.6-12.3,0-20.893-9.656-20.893-23.47m31.933-.2v-.46c0-9.123-4.627-14.875-11.04-14.875-6.476,0-11.042,5.686-11.042,14.807v.464c0,9.123,4.694,14.871,11.106,14.871s10.977-5.682,10.977-14.807" transform="translate(-128.205 -61.505)" fill="#0f2132"/><path d="M419.266,168.936h8.794l17.714,26.972V168.936h9.392V215.21h-8.206l-18.3-27.964V215.21h-9.392Z" transform="translate(-153.786 -61.966)" fill="#0f2132"/><path d="M481.278,197.227v-28.29h9.59V197.3c0,6.542,3.107,9.779,8.064,9.779S507,203.907,507,197.494V168.937h9.52v28.09c0,12.763-7.008,18.908-17.714,18.908-10.647,0-17.523-6.212-17.523-18.708" transform="translate(-176.532 -61.966)" fill="#0f2132"/><path d="M551.33,177.794H539.692v-8.857h32.79v8.857H560.854V215.21H551.33Z" transform="translate(-197.958 -61.966)" fill="#0f2132"/></g></g></g></svg>