<svg xmlns="http://www.w3.org/2000/svg" xmlns:xlink="http://www.w3.org/1999/xlink" width="500" height="250" viewBox="0 0 500 250"><defs><clipPath id="a"><rect width="383.096" height="100.415" fill="#0f2132"/></clipPath><clipPath id="c"><rect width="500" height="250"/></clipPath></defs><g id="b" clip-path="url(#c)"><rect width="500" height="250" fill="#fff"/><g transform="translate(58.904 74.793)"><path d="M162.651,34.4l31.669-.051.019,10.264-19.232.038.019,10.03,17.045-.032.019,9.632-17.044.038.012,11.578,19.781-.038.013,10.276-32.206.051Z" transform="translate(-80.109 -16.918)" fill="#0f2132"/><g clip-path="url(#a)"><path d="M248.289,34.271l18.353-.025c12.6-.025,19.762,5.252,19.781,15.212.012,8.469-5.511,12.678-11.262,14.087V63.7c1.561,1.08,3.6,3.261,6.326,7.679l9.278,14.605-13.683.025-9.208-14.751c-3.349-5.207-4.209-5.669-6.3-5.669h-.626l.032,20.445-12.6.025Zm18.088,22.6c5.214-.013,7.685-2.427,7.679-6.61-.007-4.367-2.484-6.624-8.178-6.611l-4.974.007.025,13.221Z" transform="translate(-122.288 -16.867)" fill="#0f2132"/><path d="M342.333,59.157c-.025-13.986,9.353-26.923,27.081-26.948,17.892-.031,27.081,12.634,27.112,26.468.019,14-8.9,27.15-26.708,27.188s-27.46-12.785-27.485-26.708m40.978-.076c-.019-9.012-3.843-16.868-13.563-16.849-9.871.019-14.138,7.571-14.118,16.508.006,9.107,4.228,17.108,13.86,17.089,9.884-.019,13.84-7.8,13.822-16.748" transform="translate(-168.607 -15.864)" fill="#0f2132"/><path d="M467.016,58.783c-.025-14.074,10.446-26.778,28.875-26.8,8.007-.019,13.221,1.687,17.279,4.563l-5.435,9.328a20.511,20.511,0,0,0-12.058-3.552c-10.257.013-15.383,6.567-15.364,16.123s4.386,17.1,14.5,17.083a16.722,16.722,0,0,0,7.925-1.65l-.019-8.943-9.025.019-.012-9.644,21-.038.044,25.507c-3.659,2.174-9.327,4.841-19.832,4.866-18.264.019-27.852-12.785-27.877-26.86" transform="translate(-230.016 -15.751)" fill="#0f2132"/><path d="M584.456,33.683l12.665-.025.069,41.756,18.9-.031.013,10.03-31.549.057Z" transform="translate(-287.858 -16.577)" fill="#0f2132"/><path d="M667.244,64.991l-.051-31.5,12.583-.025.057,30.563c.013,8.166,2.737,11.976,10.441,11.964,7.147-.019,9.941-4.3,9.928-11.445l-.057-31.107,11.509-.019.051,30.241c.031,14.624-7.344,22.492-21.646,22.511-15.244.031-22.783-7.191-22.815-21.178" transform="translate(-328.608 -16.459)" fill="#0f2132"/><path d="M490.5,5.972l.012,8.564,27.435-5.96L517.93,0Z" transform="translate(-241.581 0)" fill="#0f2132"/><path d="M.038,40.257,0,19.616l61.872-15.6.038,20.641Z" transform="translate(0 -1.976)" fill="#0f2132"/><path d="M.146,101.475.1,80.835l61.872-15.6.038,20.641Z" transform="translate(-0.05 -32.128)" fill="#0f2132"/><path d="M.255,162.694.217,142.054l61.872-15.6.038,20.634Z" transform="translate(-0.107 -62.28)" fill="#0f2132"/></g></g></g></svg>