<?xml version="1.0" encoding="utf-8"?>
<!-- Generator: Adobe Illustrator 26.0.3, SVG Export Plug-In . SVG Version: 6.00 Build 0)  -->
<svg version="1.1" id="Capa_1" xmlns="http://www.w3.org/2000/svg" xmlns:xlink="http://www.w3.org/1999/xlink" x="0px" y="0px"
	 viewBox="0 0 512 512" style="enable-background:new 0 0 512 512;" xml:space="preserve">
<style type="text/css">
	.st0{fill:#FFFFFF;}
	.st1{fill:#FFFFFF;}
	.st2{fill:#E65400;}
</style>
<rect x="582.1" y="-0.7" class="st0" width="512" height="513.4"/>
<g>
	<path class="st1" d="M1008.1,259c-2.2-2.4-6-2.5-8.3-0.2c-2.4,2.2-2.5,6-0.2,8.3c18.4,19.5,28.5,45.1,28.5,71.8
		c0,57.8-47,104.8-104.8,104.8c-57.8,0-104.8-47-104.8-104.8c0-57.8,47-104.8,104.8-104.8c21.3,0,41.8,6.4,59.3,18.4
		c2.7,1.8,6.4,1.2,8.2-1.5c1.9-2.7,1.2-6.4-1.5-8.2c-19.5-13.4-42.3-20.5-66.1-20.5c-9.6,0-19,1.2-27.9,3.4
		c-4.3-4.6-10.3-7.2-16.7-7.2h-2.3c1.9-3.4,3-7.2,3-11.3v-21.7c0-12.8-10.4-23.2-23.2-23.2H831l-46.9-81.4
		c-5.5-9.5-15.4-15.2-26.4-15.2l0,0c-11,0-20.9,5.7-26.4,15.2l-46.9,81.2h-15.1c-12.8,0-23.2,10.4-23.2,23.2v21.7
		c0,12.8,10.4,23.2,23.2,23.2h2.3c-1.9,3.4-3,7.2-3,11.3v21.7c0,4.1,1.1,8,3,11.3h-11.8c-12.8,0.1-23.2,10.5-23.2,23.3v21.7
		c0,11.3,8.2,20.8,19,22.8c-2,3.5-3.2,7.5-3.2,11.7v21.7c0,4.6,1.4,9,3.8,12.7c-9.1,3.2-15.6,11.7-15.6,21.9v21.7
		c0,12.8,10.4,23.2,23.2,23.2h186.8c8.7,0,16.5-5,20.5-12.4c15.8,7.9,33.5,12.4,52.2,12.4c64.3,0,116.6-52.3,116.6-116.6
		C1039.8,309.1,1028.5,280.8,1008.1,259L1008.1,259z M664.1,376.1v-21.7c0-6.3,5.1-11.3,11.3-11.3h131.2
		c0.6,15.8,4.3,30.9,10.5,44.5H675.4C669.2,387.4,664.1,382.4,664.1,376.1z M880.2,230.5c-22.3,8.9-41.3,24.6-54.4,44.3h-28v-44.5
		H856h22.5C879.1,230.4,879.7,230.4,880.2,230.5L880.2,230.5z M867.4,185.4v21.7c0,6.3-5.1,11.3-11.3,11.3h-58.1v-5.4h9.7
		c11,0,20.9-5.7,26.4-15.3c4.3-7.4,5.2-16,2.8-23.9h19.3C862.3,174.1,867.4,179.2,867.4,185.4L867.4,185.4z M657.9,207.2v-21.7
		c0-6.3,5.1-11.3,11.3-11.3h9.3c-1.5,5-1.7,10.2-0.6,15.3c0.7,3.2,3.9,5.2,7.1,4.5c3.2-0.7,5.2-3.9,4.5-7.1c-0.7-3.2-0.9-8.1,2-13.3
		L741.5,87c3.4-5.8,9.4-9.3,16.1-9.3l0,0c6.8,0,12.8,3.5,16.1,9.3l49.9,86.5c3.4,5.8,3.4,12.8,0,18.7c-3.4,5.8-9.5,9.4-16.1,9.4H792
		c-3.2,0-5.9,2.7-5.9,5.9v91c0,5.3-4.3,9.5-9.5,9.5h-37.8c-5.3,0-9.5-4.3-9.5-9.5v-91.1c0-3.2-2.7-5.9-5.9-5.9h-15.6
		c-2.2,0-4.4-0.4-6.5-1.1c-3.1-1.1-6.5,0.5-7.6,3.5c-1.1,3.1,0.5,6.5,3.5,7.6c3.3,1.2,6.9,1.8,10.5,1.8h9.7v5.4h-25.7h-22.5
		C662.9,218.6,657.9,213.5,657.9,207.2L657.9,207.2z M680.3,263.5v-21.7c0-6.3,5.1-11.3,11.3-11.3h25.7v44.4h-25.6
		C685.4,274.8,680.3,269.8,680.3,263.5z M648.3,319.8v-21.7c0-6.3,5.1-11.3,11.3-11.3h32h25.7v11.8c0,11.8,9.6,21.3,21.3,21.3h37.8
		c11.8,0,21.3-9.6,21.3-21.3v-11.8h21.1c-6.8,13.5-11,28.6-12.1,44.5H675.4h-15.8C653.5,331.2,648.3,326,648.3,319.8z M850.5,443.7
		H663.6c-6.3,0-11.3-5.1-11.3-11.3v-21.7c0-6.3,5.1-11.3,11.3-11.3h11.8h148c9.3,15.4,22.1,28.4,37.3,38
		C858.8,441.1,854.9,443.7,850.5,443.7z"/>
	<path class="st2" d="M934.9,332.8c-2.1-0.6-4.3-1.3-6.4-1.9v-26.1c6.4,0.9,10.2,3.6,10.4,3.8c2.6,2,6.3,1.4,8.3-1.2
		c2-2.6,1.5-6.3-1.1-8.3c-0.4-0.3-6.9-5.1-17.5-6.3v-5.1c0-3.2-2.7-5.9-5.9-5.9c-3.2,0-5.9,2.7-5.9,5.9v5.5
		c-1.1,0.2-2.3,0.4-3.5,0.7c-9.9,2.4-17.4,10.1-18.9,19.4c-1.3,7.8,1.9,15.3,8.3,19.5c3.5,2.3,8,4.4,14.1,6.6v33.2
		c-6.1-0.2-10.2-1.3-16.9-4.9c-2.8-1.6-6.5-0.5-8,2.4s-0.5,6.5,2.4,8c8.8,4.7,14.5,6.1,22.4,6.3v5.8c0,3.2,2.7,5.9,5.9,5.9
		c3.2,0,5.9-2.7,5.9-5.9v-6.2c15.6-2.4,25-13.4,26.5-24.3C956.8,347.5,948.8,336.9,934.9,332.8L934.9,332.8z M909,322.8
		c-3.5-2.3-3.4-6.1-3.1-7.6c0.6-3.7,3.6-8.2,10.2-9.8c0.2-0.1,0.4-0.1,0.6-0.2v21.4C913.8,325.5,911.1,324.2,909,322.8z
		 M943.4,358.1c-0.9,5.9-6.1,12-14.9,13.9v-28.7c1,0.3,2,0.6,3.1,0.9C939.9,346.6,944.3,351.6,943.4,358.1z"/>
	<path class="st1" d="M923.2,258.3c-44.5,0-80.7,36.2-80.7,80.7s36.2,80.7,80.7,80.7c44.5,0,80.7-36.2,80.7-80.7
		S967.7,258.3,923.2,258.3z M923.2,407.8c-38,0-68.8-30.9-68.8-68.8s30.9-68.8,68.8-68.8c38,0,68.8,30.9,68.8,68.8
		S961.2,407.8,923.2,407.8z"/>
	<path class="st1" d="M924.4,184l0.5,1.7l0,0c2.1,7.8,9.2,13.1,17,13.1c1.1,0,2.2-0.1,3.4-0.3l18.6-3.6c4.8-0.9,9-3.9,11.6-8
		s3.3-9.2,2-13.9l-1.1-4.2c-1.3-4.7-4.4-8.7-8.7-11c-4.3-2.3-9.4-2.7-14-1.1l-17.9,6.1C927,165.8,922,175.1,924.4,184L924.4,184z
		 M939.5,173.9l17.9-6.1c1.6-0.6,3.2-0.4,4.6,0.4c1.5,0.8,2.4,2,2.9,3.6l1.1,4.2c0.4,1.6,0.2,3.2-0.7,4.6s-2.2,2.3-3.8,2.6
		l-18.6,3.6c-3,0.6-5.9-1.3-6.7-4.2l-0.5-1.7C935,178,936.7,175,939.5,173.9L939.5,173.9z"/>
	<path class="st1" d="M897.8,137.9c3.4,3.4,8,5.1,12.4,5.1c4.1,0,8.3-1.4,11.6-4.3l14.3-12.4c3.7-3.2,5.8-7.8,6.1-12.7
		c0.2-4.9-1.7-9.6-5.1-13.1l-3.1-3.1c-3.5-3.5-8.2-5.4-13.1-5.1c-4.9,0.2-9.5,2.4-12.7,6.1l-12.4,14.3c-6.1,6.9-5.7,17.5,0.8,24
		L897.8,137.9z M904.6,120.4l12.4-14.3c1.1-1.3,2.5-2,4.2-2c0.1,0,0.2,0,0.2,0c1.6,0,3,0.6,4.1,1.7l3.1,3.1c1.2,1.2,1.7,2.7,1.7,4.3
		c-0.1,1.7-0.8,3.1-2,4.2l-14.3,12.4c-2.3,2-5.7,1.9-8-0.2l-1.3-1.3C902.8,126.1,902.6,122.7,904.6,120.4L904.6,120.4z"/>
	<path class="st1" d="M850.4,110L850.4,110L850.4,110z"/>
	<path class="st1" d="M848.7,109.6l1.7,0.5c1.5,0.4,3,0.6,4.6,0.6c7.3,0,14.2-4.6,16.7-11.9l6.1-17.9c1.6-4.6,1.2-9.7-1.1-14
		c-2.3-4.3-6.3-7.5-11-8.7l-4.2-1.1c-4.7-1.3-9.8-0.5-13.9,2c-4.1,2.6-7,6.8-8,11.6L836,89.3C834.2,98.2,839.8,107.2,848.7,109.6
		L848.7,109.6z M847.6,91.4l3.6-18.6c0.3-1.6,1.3-2.9,2.6-3.8c0.9-0.6,2-0.9,3.1-0.9c0.5,0,1,0.1,1.5,0.2l4.2,1.1
		c1.6,0.4,2.8,1.4,3.6,2.9c0.8,1.4,0.9,3.1,0.4,4.6L860.5,95c-1,2.8-4,4.5-7,3.7l0,0l-1.7-0.5C848.9,97.4,847,94.4,847.6,91.4
		L847.6,91.4z"/>
</g>
<g>
	<path class="st0" d="M423,259c-2.2-2.3-5.9-2.5-8.2-0.2c-2.3,2.2-2.5,5.9-0.2,8.2c18,19.2,28,44.3,28,70.6c0,56.8-46.2,103-103,103
		c-56.8,0-103-46.2-103-103c0-56.8,46.2-103,103-103c21,0,41.1,6.3,58.3,18.1c2.6,1.8,6.3,1.2,8.1-1.5c1.9-2.6,1.2-6.3-1.5-8.1
		c-19.1-13.2-41.6-20.1-65-20.1c-9.4,0-18.7,1.2-27.4,3.3c-4.3-4.5-10.1-7-16.4-7h-2.2c1.9-3.3,2.9-7.1,2.9-11.2v-21.4
		c0-12.5-10.2-22.8-22.8-22.8h-24.7l-46.2-80c-5.4-9.4-15.1-14.9-25.9-14.9l0,0c-10.8,0-20.5,5.6-25.9,14.9l-46.1,79.8H89.9
		c-12.5,0-22.8,10.2-22.8,22.8V208c0,12.5,10.2,22.8,22.8,22.8h2.2c-1.9,3.3-2.9,7.1-2.9,11.2v21.4c0,4,1.1,7.9,2.9,11.2H80.5
		c-12.5,0-22.8,10.2-22.8,22.8v21.4c0,11.2,8.1,20.4,18.7,22.4c-2,3.4-3.2,7.4-3.2,11.5v21.4c0,4.6,1.4,8.8,3.7,12.5
		c-8.9,3.1-15.3,11.5-15.3,21.5v21.5c0,12.5,10.2,22.8,22.8,22.8h183.7c8.6,0,16.3-4.9,20.1-12.2c15.5,7.7,32.9,12.2,51.3,12.2
		c63.2,0,114.6-51.4,114.6-114.6C454.2,308.2,443.1,280.3,423,259L423,259z M84.8,374v-21.4c0-6.2,5-11.2,11.2-11.2h129
		c0.5,15.6,4.2,30.4,10.3,43.8H96C89.8,385.2,84.8,380.2,84.8,374z M297.4,230.9c-22,8.8-40.7,24.1-53.5,43.6h-27.5v-43.8h57.2h22.1
		C296.2,230.8,296.8,230.8,297.4,230.9L297.4,230.9z M284.7,186.6V208c0,6.2-5,11.2-11.2,11.2h-57.2v-5.3h9.5
		c10.8,0,20.5-5.6,25.9-15c4.2-7.3,5.1-15.7,2.8-23.5h19C279.7,175.5,284.7,180.5,284.7,186.6L284.7,186.6z M78.7,208v-21.4
		c0-6.2,5-11.2,11.2-11.2H99c-1.5,4.9-1.6,10-0.5,15c0.7,3.1,3.8,5.1,7,4.4c3.1-0.7,5.1-3.8,4.4-7c-0.7-3.2-0.9-8,2-13.1l49.1-85
		c3.3-5.7,9.2-9.1,15.9-9.1l0,0c6.7,0,12.5,3.4,15.9,9.1l49.1,85c3.3,5.7,3.3,12.6,0,18.4c-3.3,5.7-9.3,9.2-15.9,9.2h-15.3
		c-3.2,0-5.8,2.6-5.8,5.8v89.5c0,5.2-4.2,9.4-9.4,9.4h-37.2c-5.2,0-9.4-4.2-9.4-9.4v-89.6c0-3.2-2.6-5.8-5.8-5.8h-15.3
		c-2.2,0-4.3-0.4-6.4-1.1c-3-1.1-6.4,0.5-7.4,3.5c-1.1,3,0.5,6.4,3.5,7.4c3.3,1.2,6.7,1.8,10.3,1.8h9.5v5.3H112H89.8
		C83.6,219.2,78.7,214.2,78.7,208L78.7,208z M100.8,263.4V242c0-6.2,5-11.2,11.2-11.2h25.2v43.7h-25.2
		C105.8,274.5,100.8,269.6,100.8,263.4z M69.3,318.7v-21.4c0-6.2,5-11.2,11.2-11.2h31.4h25.2v11.6c0,11.6,9.4,21,21,21h37.2
		c11.6,0,21-9.4,21-21v-11.6h20.8c-6.7,13.3-10.8,28.1-11.9,43.8H96H80.5C74.4,329.9,69.3,324.9,69.3,318.7z M268,440.6H84.3
		c-6.2,0-11.2-5-11.2-11.2V408c0-6.2,5-11.2,11.2-11.2H96h145.5c9.1,15.1,21.8,28,36.6,37.4C276.3,438,272.5,440.6,268,440.6z"/>
	<path class="st2" d="M351.1,331.5c-2.1-0.6-4.2-1.2-6.3-1.9V304c6.3,0.9,10,3.6,10.2,3.7c2.6,1.9,6.2,1.4,8.1-1.2
		c1.9-2.6,1.5-6.2-1.1-8.1c-0.4-0.3-6.8-5-17.2-6.2v-5c0-3.2-2.6-5.8-5.8-5.8c-3.2,0-5.8,2.6-5.8,5.8v5.4c-1.1,0.2-2.2,0.4-3.4,0.7
		c-9.8,2.4-17.1,9.9-18.7,19.1c-1.3,7.7,1.9,15,8.2,19.1c3.5,2.2,7.8,4.3,13.9,6.5v32.6c-6-0.2-10-1.2-16.6-4.8
		c-2.8-1.5-6.4-0.5-7.9,2.3c-1.5,2.8-0.5,6.4,2.3,7.9c8.7,4.6,14.2,6,22.1,6.2v5.7c0,3.2,2.6,5.8,5.8,5.8c3.2,0,5.8-2.6,5.8-5.8
		v-6.1c15.3-2.3,24.6-13.2,26.1-23.9C372.6,345.9,364.8,335.6,351.1,331.5L351.1,331.5z M325.6,321.7c-3.5-2.2-3.3-6-3-7.4
		c0.6-3.6,3.6-8.1,10-9.7c0.2-0.1,0.4-0.1,0.6-0.2v21.1C330.3,324.3,327.7,323.1,325.6,321.7z M359.4,356.4
		c-0.9,5.8-6,11.8-14.6,13.6v-28.2c1,0.3,1.9,0.6,3,0.9C356,345.1,360.3,350,359.4,356.4z"/>
	<path class="st0" d="M339.6,258.3c-43.8,0-79.3,35.5-79.3,79.3s35.5,79.3,79.3,79.3s79.3-35.5,79.3-79.3S383.3,258.3,339.6,258.3z
		 M339.6,405.3c-37.3,0-67.7-30.4-67.7-67.7s30.4-67.7,67.7-67.7s67.7,30.4,67.7,67.7S376.9,405.3,339.6,405.3z"/>
	<path class="st0" d="M340.8,185.2l0.5,1.6l0,0c2.1,7.7,9.1,12.9,16.7,12.9c1.1,0,2.2-0.1,3.3-0.3l18.3-3.6
		c4.7-0.9,8.8-3.8,11.4-7.8c2.6-4,3.3-9.1,2-13.6l-1.1-4.1c-1.2-4.6-4.3-8.6-8.6-10.8c-4.3-2.2-9.2-2.6-13.8-1.1l-17.6,6
		C343.3,167.3,338.4,176.5,340.8,185.2L340.8,185.2z M355.6,175.3l17.6-6c1.5-0.5,3.1-0.4,4.6,0.4c1.5,0.8,2.4,2,2.9,3.6l1.1,4.1
		c0.4,1.5,0.2,3.2-0.7,4.5c-0.9,1.3-2.2,2.2-3.7,2.6l-18.3,3.6c-2.9,0.5-5.8-1.2-6.6-4.1l-0.5-1.6
		C351.2,179.3,352.8,176.3,355.6,175.3L355.6,175.3z"/>
	<path class="st0" d="M314.6,139.9c3.3,3.3,7.8,5,12.2,5c4,0,8.1-1.4,11.4-4.3l14-12.2c3.6-3.2,5.7-7.7,6-12.5
		c0.2-4.8-1.7-9.4-5-12.9l-3-3c-3.4-3.4-8.1-5.3-12.9-5c-4.8,0.2-9.3,2.3-12.5,6l-12.2,14c-6,6.8-5.6,17.2,0.8,23.6L314.6,139.9z
		 M321.3,122.7l12.2-14c1.1-1.2,2.5-1.9,4.1-1.9c0.1,0,0.2,0,0.2,0c1.5,0,2.9,0.6,4,1.7l3,3c1.2,1.2,1.7,2.6,1.7,4.3
		c-0.1,1.6-0.8,3-1.9,4.1l-14.2,12.1c-2.2,1.9-5.7,1.9-7.8-0.2l-1.2-1.2C319.5,128.3,319.4,124.9,321.3,122.7L321.3,122.7z"/>
	<path class="st0" d="M268,112.4L268,112.4L268,112.4z"/>
	<path class="st0" d="M266.3,112l1.6,0.5c1.5,0.4,2.9,0.6,4.5,0.6c7.2,0,13.9-4.6,16.4-11.7l6-17.6c1.5-4.5,1.2-9.5-1.1-13.8
		c-2.2-4.2-6.2-7.4-10.8-8.6l-4.1-1.1c-4.6-1.2-9.6-0.5-13.6,2c-4,2.6-6.9,6.7-7.8,11.4l-3.6,18.3
		C252.1,100.8,257.6,109.6,266.3,112L266.3,112z M265.3,94.2l3.6-18.3c0.3-1.5,1.2-2.9,2.6-3.7c0.9-0.5,1.9-0.9,3-0.9
		c0.5,0,1,0.1,1.5,0.2l4.1,1.1c1.5,0.4,2.8,1.4,3.6,2.9c0.8,1.4,0.9,3,0.4,4.6l-6,17.6c-1,2.8-3.9,4.4-6.9,3.6l0,0l-1.6-0.5
		C266.5,100,264.6,97.1,265.3,94.2L265.3,94.2z"/>
</g>
</svg>
