<?xml version="1.0" encoding="utf-8"?>
<!-- Generator: Adobe Illustrator 26.0.3, SVG Export Plug-In . SVG Version: 6.00 Build 0)  -->
<svg version="1.1" id="Layer_1" xmlns="http://www.w3.org/2000/svg" xmlns:xlink="http://www.w3.org/1999/xlink" x="0px" y="0px"
	 viewBox="0 0 512 512" style="enable-background:new 0 0 512 512;" xml:space="preserve">
<style type="text/css">
	.st0{fill:#0F2132;}
	.st1{fill:#FFFFFF;}
	.st2{fill:#E65400;}
</style>
<rect class="st0" width="512" height="512"/>
<g>
	<path class="st1" d="M367.3,293c-4.6,0-9,0.5-13.5,1.3c4.3-16.6,6.7-33.6,7.1-50.8h18.8c3.4,0,6.2-2.8,6.2-6.2
		c0-3.4-2.8-6.2-6.2-6.2h-18.7l0,0c12.2-9.1,20.6-22.4,23.7-37.3c2.2-0.2,4.4-0.6,6.6-1.2c8.8,27.5,9.4,57.1,1.5,85
		c-0.9,3.3,1,6.7,4.3,7.7l0,0c0.5,0.2,1.1,0.2,1.7,0.2c2.8,0,5.2-1.9,6-4.5c8.6-30.4,8-62.6-1.8-92.6c24.2-12.7,33.6-42.5,21-66.8
		c-12.7-24.2-42.5-33.6-66.8-21c-4.1,2.2-7.8,4.8-11.1,8c-26-19.6-57.4-30.6-89.9-31.8c-2-0.2-4-0.2-6.1-0.2
		c-19.8,0-39.4,3.6-57.9,10.8c-25.5-21.1-62-22.7-89.3-3.9c-2.8,1.9-3.6,5.8-1.5,8.6c1.9,2.8,5.8,3.6,8.6,1.5l0,0
		c28.1-19.4,66.6-12.4,86,15.7c15.2,21.9,14.5,51-1.4,72.2c-0.1-16.2-10.7-30.5-26.2-35.3c11.3-12.8,10-32.4-2.9-43.6
		s-32.5-10.1-43.7,2.8c-10.3,11.7-10.3,29.1,0,40.8c-15.5,4.8-26.1,19.1-26.3,35.3c-15.9-21.2-16.5-50.2-1.5-72
		c1.9-2.8,1.2-6.6-1.5-8.6s-6.6-1.2-8.6,1.5l0,0c-20.9,30.2-16.5,71,10.3,96c-6.3,25-6.5,51.3-0.4,76.4c0.8,3.3,4.1,5.3,7.4,4.6
		c3.3-0.8,5.3-4.1,4.6-7.4c-2.2-9.4-3.6-18.9-3.9-28.5h37.1c0.5,25.4,5.5,50.6,14.8,74.4c-0.9,0-1.7-0.2-2.6-0.2
		c-7.8,0-15.5,1.5-22.8,4.4c-6-8.6-11.1-17.9-15.2-27.5c-1.3-3.2-4.9-4.6-8.1-3.3s-4.6,4.9-3.3,8.1c4.2,10,9.4,19.6,15.5,28.5
		c-28.5,18.7-36.6,57-17.9,85.6c18.7,28.6,57,36.6,85.6,17.9c13.4-8.7,22.9-22.4,26.4-38c28.3,7.2,58.1,6.3,86-2.4
		c10.2,30.2,38.4,50.5,70.3,50.6c0.9,0,1.6-0.1,2.4-0.1l1-0.1c3.4-0.2,6-3.1,5.9-6.5l0,0c-0.2-3.4-3.1-6-6.5-5.9l-1.2,0.1
		c-0.5,0-1.1,0.1-1.5,0.1c-13.4,0-26.4-4.4-37.1-12.5v-12.3c0-13.7,11.1-24.7,24.7-24.7h24.7c13.7,0,24.7,11.1,24.7,24.7v12.1
		c-3.8,2.9-8,5.4-12.4,7.4c-3.2,1.4-4.6,5-3.2,8.1c1.4,3.2,5,4.6,8.1,3.2l0,0c37.6-16.4,54.7-60.2,38.3-97.7
		C423.6,310.5,396.8,293,367.3,293z M339.8,298.4c-9.4,3.8-18.1,9.4-25.2,16.7c-6.6-2-13.5-3.7-20.3-5.1c2.2-15.3,3.7-31.4,4.5-47.5
		c0.2-3.4-2.5-6.3-5.9-6.5l0,0c-3.4-0.1-6.2,2.6-6.5,5.9c-0.7,15.4-2.1,30.7-4.3,45.9c-21.4-3.1-43.1-3.2-64.6-0.1
		c-3-21.3-4.6-42.7-4.7-64.2h135.8C348,262.1,345.2,280.6,339.8,298.4z M250.4,385.7c-0.4,0-0.9,0-1.2,0
		c-10-0.9-22.2-24.7-29.7-65.8c20.1-2.9,40.5-2.9,60.6,0.1C272.3,362.2,259.7,384.7,250.4,385.7z M287,231.2h-74.3
		c0.2-21.5,1.7-43,4.7-64.2c10.7,1.5,21.5,2.4,32.3,2.4c4.3,0,8.9-0.2,13.8-0.5C258.4,192.4,267.6,216.8,287,231.2z M311.6,169.3
		c0-6.8,5.6-12.4,12.4-12.4s12.4,5.6,12.4,12.4s-5.6,12.4-12.4,12.4S311.6,176.1,311.6,169.3z M311.6,194.1h24.7
		c6.8,0,12.4,5.6,12.4,12.4v18c-15.3,8.9-34.2,8.9-49.5,0v-18C299.2,199.6,304.8,194.1,311.6,194.1z M361.1,214.3v-7.9
		c0-10.5-6.7-19.8-16.6-23.3c7.7-11.3,4.7-26.7-6.6-34.3c-11.4-7.7-26.7-4.7-34.3,6.6c-5.6,8.3-5.6,19.3,0,27.8
		c-9.9,3.4-16.6,12.8-16.6,23.3v7.9c-18.1-20.5-16.1-51.8,4.4-69.8c20.5-18.1,51.8-16.1,69.8,4.4
		C377.6,167.5,377.6,195.6,361.1,214.3z M311.1,121.2c-8.4,1.8-16.4,5.4-23.4,10.5c-3.1-13.5-8-26.4-14.8-38.4
		C288,99,301.1,108.7,311.1,121.2z M398.2,176.8c-1.5,0.9-3.2,1.7-4.8,2.3c-0.1,0-0.2,0-0.2,0s-0.2,0.1-0.2,0.2
		c-2.3,0.9-4.7,1.5-7.1,1.9c-0.1-6.1-1-12.2-2.9-18h2.9c6.8,0,12.4,5.6,12.4,12.4V176.8z M379.7,150.8c-0.8,0-1.6-0.2-2.4-0.3
		c-1.9-3.3-4.3-6.5-6.8-9.4c0.3-5.1,4.6-9,9.7-8.7c5.1,0.3,9,4.6,8.7,9.7C388.7,147,384.6,150.8,379.7,150.8z M379.7,107.5
		c20.5,0,37.1,16.5,37.1,37c0,8.2-2.7,16.2-7.7,22.7c-2.1-5.7-6.2-10.5-11.6-13.4c6.8-9.7,4.5-23.3-5.3-30.1
		c-9.8-6.8-23.3-4.5-30.1,5.3c-0.6,0.9-1.2,1.8-1.6,2.8c-3.8-2.8-7.8-5.1-12.1-7C355.1,114,366.9,107.5,379.7,107.5z M337.9,118.1
		c-0.6,0.9-1.2,1.9-1.7,2.9c-3.4-0.7-6.9-1.1-10.4-1.2c-4.9-6.7-10.5-13-16.6-18.6C319.4,105.9,329,111.5,337.9,118.1z M277.3,141.3
		c-3.9,4.5-7.1,9.4-9.6,14.8c-6.6,0.5-12.4,0.9-18,0.9c-10.1,0-20.3-0.8-30.3-2.2c7.7-41.9,20.3-65.8,30.4-65.8
		C257.6,88.9,269.1,105.2,277.3,141.3L277.3,141.3z M201.5,97c8.8-3.1,17.9-5.3,27.2-6.6c-6.1,9.5-10.7,19.8-13.8,30.6
		C212,112.3,207.5,104.1,201.5,97z M202.3,191.2c-1.2,13.1-1.9,26.6-2,40h-49.4c0.1-4.3,0.4-8.5,0.7-12.8
		C171.5,216.6,189.8,206.7,202.3,191.2L202.3,191.2z M144.6,107.5c10.3,0,18.6,8.3,18.6,18.6c0,10.3-8.3,18.6-18.6,18.6
		s-18.6-8.3-18.6-18.6C126.1,115.7,134.3,107.5,144.6,107.5z M132.2,157H157c13.7,0,24.7,11.1,24.7,24.7v12.2
		c-22,16.6-52.3,16.6-74.2,0v-12.2C107.5,168,118.6,157,132.2,157z M139.3,218.5c-0.3,4.3-0.5,8.4-0.7,12.7h-37.1
		c0.3-8.1,1.3-16.2,2.9-24.3C114.9,213.7,126.9,217.6,139.3,218.5L139.3,218.5z M151,243.6h49.3c0.2,22.2,1.9,44.3,5,66.3
		c-12.4,2.5-24.6,6-36.3,10.7c-0.4-0.2-0.9-0.2-1.2-0.3C157.2,296,151.5,270,151,243.6z M126.1,422.4v-18c0-6.8,5.6-12.4,12.4-12.4
		h24.7c6.8,0,12.4,5.6,12.4,12.4v18C160.2,431.3,141.4,431.3,126.1,422.4z M138.4,367.3c0-6.8,5.6-12.4,12.4-12.4
		s12.4,5.6,12.4,12.4s-5.6,12.4-12.4,12.4S138.4,374.1,138.4,367.3z M187.9,412.3v-7.9c0-10.5-6.7-19.8-16.6-23.3
		c7.7-11.3,4.7-26.7-6.6-34.3s-26.7-4.7-34.3,6.6c-5.6,8.3-5.6,19.3,0,27.8c-9.9,3.4-16.6,12.7-16.6,23.2v7.9
		c-18.1-20.5-16.1-51.8,4.4-69.8s51.8-16.1,69.8,4.4C204.4,365.5,204.4,393.5,187.9,412.3L187.9,412.3z M184.7,328
		c7.4-2.5,15-4.4,22.6-6c4.8,26.4,11.9,48.6,21.3,62.2c-5.4-0.8-10.7-1.9-16-3.2c0-0.5,0.1-0.9,0.1-1.3
		C212.7,358.8,202.1,339.4,184.7,328z M271.1,384.1c9.4-13.6,16.5-36,21.1-62c4.6,0.9,9.2,2,13.8,3.3
		c-10.8,15.6-15.1,34.8-11.9,53.5C286.6,381.2,278.9,383,271.1,384.1L271.1,384.1z M367.3,367.3c-10.3,0-18.6-8.3-18.6-18.6
		c0-10.3,8.3-18.6,18.6-18.6c10.3,0,18.6,8.3,18.6,18.6C385.8,359,377.6,367.3,367.3,367.3z M416.8,404.1
		c-0.2-16.2-10.7-30.5-26.2-35.2c11.3-12.8,10-32.4-2.9-43.6c-12.8-11.3-32.4-10-43.6,2.9c-10.3,11.7-10.3,29.1,0,40.8
		c-15.5,4.8-26.1,19.1-26.3,35.3c-20.6-27.3-15.2-66.1,12.2-86.7c27.3-20.6,66.1-15.2,86.7,12.2C433.2,351.7,433.3,382,416.8,404.1z
		"/>
	<circle class="st2" cx="144.6" cy="126" r="18.6"/>
	<circle class="st2" cx="367.2" cy="348.7" r="18.6"/>
</g>
<g>
	<path class="st0" d="M-288.5,293c-4.6,0-9,0.5-13.5,1.3c4.3-16.6,6.7-33.6,7.1-50.8h18.8c3.4,0,6.2-2.8,6.2-6.2s-2.8-6.2-6.2-6.2
		h-18.7l0,0c12.2-9.1,20.6-22.4,23.7-37.3c2.2-0.2,4.4-0.6,6.6-1.2c8.8,27.5,9.4,57.1,1.5,85c-0.9,3.3,1,6.7,4.3,7.7l0,0
		c0.5,0.2,1.1,0.2,1.7,0.2c2.8,0,5.2-1.9,6-4.5c8.6-30.4,8-62.6-1.8-92.6c24.2-12.7,33.6-42.5,21-66.8c-12.7-24.2-42.5-33.6-66.8-21
		c-4.1,2.2-7.8,4.8-11.1,8C-336,89-367.3,78-399.9,76.8c-2-0.2-4-0.2-6.1-0.2c-19.8,0-39.4,3.6-57.9,10.8
		c-25.5-21.1-62-22.7-89.3-3.9c-2.8,1.9-3.6,5.8-1.5,8.6c1.9,2.8,5.8,3.6,8.6,1.5l0,0c28.1-19.4,66.6-12.4,86,15.7
		c15.2,21.9,14.5,51-1.4,72.2c-0.1-16.2-10.7-30.5-26.2-35.3c11.3-12.8,10-32.4-2.9-43.6c-12.8-11.3-32.4-10-43.6,2.9
		c-10.3,11.7-10.3,29.1,0,40.8c-15.5,4.8-26.1,19.1-26.3,35.3c-15.9-21.2-16.5-50.2-1.5-72c1.9-2.8,1.2-6.6-1.5-8.6
		c-2.8-1.9-6.6-1.2-8.6,1.5l0,0c-20.8,30.2-16.4,71,10.3,96c-6.3,25.1-6.5,51.3-0.4,76.4c0.8,3.3,4.1,5.3,7.4,4.6
		c3.3-0.8,5.3-4.1,4.6-7.4c-2.2-9.4-3.6-18.9-3.9-28.5h37.1c0.5,25.4,5.5,50.6,14.8,74.4c-0.9,0-1.7-0.2-2.6-0.2
		c-7.8,0-15.5,1.5-22.8,4.4c-6-8.6-11.1-17.9-15.2-27.5c-1.3-3.2-4.9-4.6-8.1-3.3c-3.2,1.3-4.6,4.9-3.3,8.1
		c4.2,10,9.4,19.6,15.5,28.5c-28.5,18.7-36.6,57-17.9,85.6c18.7,28.6,57,36.6,85.6,17.9c13.4-8.7,22.9-22.4,26.4-38
		c28.3,7.2,58.1,6.3,86-2.4c10.2,30.2,38.4,50.5,70.3,50.6c0.9,0,1.6-0.1,2.4-0.1l1-0.1c3.4-0.2,6-3.1,5.9-6.5l0,0
		c-0.2-3.4-3.1-6-6.5-5.9l-1.2,0.1c-0.5,0-1.1,0.1-1.5,0.1c-13.4,0-26.4-4.4-37.1-12.5v-12.4c0-13.7,11.1-24.7,24.7-24.7h24.7
		c13.7,0,24.7,11.1,24.7,24.7v12.1c-3.8,2.9-8,5.4-12.4,7.4c-3.2,1.4-4.6,5-3.2,8.1c1.4,3.2,5,4.6,8.1,3.2l0,0
		c37.6-16.4,54.7-60.2,38.4-97.7C-232.2,310.5-258.9,293-288.5,293z M-315.9,298.3c-9.4,3.8-18.1,9.4-25.2,16.7
		c-6.6-2-13.5-3.7-20.3-5.1c2.2-15.3,3.7-31.4,4.5-47.6c0.2-3.4-2.5-6.3-5.9-6.5l0,0c-3.4-0.1-6.2,2.6-6.5,5.9
		c-0.7,15.4-2.1,30.7-4.3,45.9c-21.4-3.1-43.1-3.2-64.6-0.1c-3-21.3-4.6-42.7-4.7-64.2h135.8C-307.7,262.1-310.6,280.5-315.9,298.3z
		 M-405.4,385.6c-0.4,0-0.9,0-1.2,0c-10-0.9-22.2-24.7-29.7-65.8c20.1-2.9,40.5-2.9,60.6,0.1C-383.4,362.2-396,384.7-405.4,385.6z
		 M-368.7,231.1H-443c0.2-21.5,1.7-43,4.7-64.3c10.7,1.5,21.5,2.4,32.3,2.4c4.3,0,8.9-0.2,13.8-0.5
		C-397.3,192.4-388.1,216.8-368.7,231.1z M-344.1,169.3c0-6.8,5.6-12.4,12.4-12.4s12.4,5.6,12.4,12.4s-5.6,12.4-12.4,12.4
		S-344.1,176.1-344.1,169.3z M-344.1,194h24.7c6.8,0,12.4,5.6,12.4,12.4v18c-15.3,8.9-34.2,8.9-49.5,0v-18
		C-356.5,199.6-351,194-344.1,194z M-294.7,214.3v-7.9c0-10.5-6.7-19.8-16.6-23.3c7.7-11.3,4.7-26.7-6.6-34.3
		c-11.4-7.7-26.7-4.7-34.3,6.6c-5.6,8.4-5.6,19.3,0,27.8c-9.9,3.4-16.6,12.8-16.6,23.3v7.9c-18.1-20.5-16.1-51.8,4.4-69.8
		c20.5-18.1,51.8-16.1,69.8,4.4C-278.2,167.5-278.2,195.6-294.7,214.3z M-344.6,121.2c-8.4,1.8-16.4,5.4-23.4,10.5
		c-3.1-13.5-8-26.4-14.8-38.4C-367.8,99-354.7,108.7-344.6,121.2z M-257.6,176.7c-1.5,0.9-3.2,1.7-4.8,2.3c-0.1,0-0.2,0-0.2,0
		c-0.1,0-0.2,0.1-0.2,0.2c-2.3,0.9-4.7,1.5-7.1,1.9c-0.1-6.1-1-12.2-2.9-18h2.9c6.8,0,12.4,5.6,12.4,12.4V176.7z M-276.1,150.7
		c-0.8,0-1.6-0.2-2.4-0.3c-1.9-3.3-4.3-6.5-6.8-9.4c0.3-5.1,4.6-9,9.7-8.7c5.1,0.3,9,4.6,8.7,9.7
		C-267.1,146.9-271.2,150.7-276.1,150.7z M-276.1,107.4c20.5,0,37.1,16.5,37.1,37c0,8.2-2.7,16.2-7.7,22.7
		c-2.1-5.7-6.2-10.5-11.6-13.4c6.8-9.7,4.5-23.3-5.3-30.1c-9.8-6.8-23.3-4.5-30.1,5.3c-0.6,0.9-1.2,1.8-1.6,2.8
		c-3.8-2.8-7.8-5.1-12.1-7C-300.7,114-288.9,107.4-276.1,107.4z M-317.9,118.1c-0.6,0.9-1.2,1.9-1.7,2.9c-3.4-0.7-6.9-1.1-10.4-1.2
		c-4.9-6.7-10.5-13-16.6-18.6C-336.3,105.8-326.8,111.4-317.9,118.1z M-378.5,141.2c-3.9,4.5-7.1,9.4-9.6,14.8
		c-6.6,0.5-12.4,0.9-18,0.9c-10.1,0-20.3-0.8-30.3-2.2c7.7-41.9,20.3-65.8,30.3-65.8C-398.1,88.9-386.7,105.1-378.5,141.2
		L-378.5,141.2z M-454.3,96.9c8.8-3.1,17.9-5.3,27.2-6.6c-6.1,9.4-10.7,19.8-13.8,30.6C-443.7,112.2-448.3,104-454.3,96.9z
		 M-453.5,191.2c-1.2,13.1-1.9,26.6-2,40h-49.4c0.1-4.3,0.4-8.5,0.7-12.8C-484.3,216.5-466,206.6-453.5,191.2L-453.5,191.2z
		 M-511.2,107.4c10.3,0,18.6,8.3,18.6,18.6s-8.3,18.6-18.6,18.6c-10.3,0-18.6-8.3-18.6-18.6S-521.4,107.4-511.2,107.4z
		 M-523.5,156.9h24.7c13.7,0,24.7,11.1,24.7,24.7v12.2c-22,16.6-52.3,16.6-74.2,0v-12.2C-548.3,168-537.2,156.9-523.5,156.9z
		 M-516.5,218.5c-0.3,4.3-0.5,8.4-0.7,12.7h-37.1c0.3-8.1,1.3-16.2,2.9-24.3C-540.8,213.7-528.9,217.6-516.5,218.5L-516.5,218.5z
		 M-504.8,243.5h49.3c0.2,22.2,1.9,44.3,5,66.3c-12.4,2.5-24.6,6-36.3,10.7c-0.4-0.2-0.9-0.2-1.2-0.3
		C-498.6,296-504.3,270-504.8,243.5z M-529.7,422.4v-18c0-6.8,5.6-12.4,12.4-12.4h24.7c6.8,0,12.4,5.6,12.4,12.4v18
		C-495.5,431.3-514.4,431.3-529.7,422.4z M-517.3,367.2c0-6.8,5.6-12.4,12.4-12.4s12.4,5.6,12.4,12.4s-5.6,12.4-12.4,12.4
		S-517.3,374-517.3,367.2z M-467.9,412.2v-7.9c0-10.5-6.7-19.8-16.6-23.3c7.7-11.3,4.7-26.7-6.6-34.3c-11.4-7.7-26.7-4.7-34.3,6.6
		c-5.6,8.4-5.6,19.3,0,27.8c-9.9,3.4-16.6,12.8-16.6,23.3v7.9c-18.1-20.5-16.1-51.8,4.4-69.8c20.5-18.1,51.8-16.1,69.8,4.4
		C-451.4,365.4-451.4,393.5-467.9,412.2L-467.9,412.2z M-471,327.9c7.4-2.5,15-4.4,22.6-6c4.8,26.4,11.9,48.6,21.3,62.2
		c-5.4-0.8-10.7-1.9-16-3.2c0-0.5,0.1-0.9,0.1-1.3C-443.1,358.8-453.6,339.4-471,327.9z M-384.7,384.1c9.4-13.6,16.5-36,21.1-62
		c4.6,0.9,9.2,2,13.8,3.3c-10.8,15.6-15.1,34.8-11.9,53.5C-369.2,381.2-376.9,383-384.7,384.1L-384.7,384.1z M-288.5,367.2
		c-10.3,0-18.6-8.3-18.6-18.6c0-10.3,8.3-18.6,18.6-18.6s18.6,8.3,18.6,18.6C-269.9,358.9-278.2,367.2-288.5,367.2z M-239,404.1
		c-0.2-16.2-10.7-30.5-26.2-35.2c11.3-12.8,10-32.4-2.9-43.6c-12.8-11.3-32.4-10-43.6,2.9c-10.3,11.7-10.3,29.1,0,40.8
		c-15.5,4.8-26.1,19.1-26.3,35.3c-20.6-27.3-15.2-66.1,12.2-86.7c27.3-20.6,66.1-15.2,86.7,12.2C-222.5,351.7-222.4,382-239,404.1z"
		/>
	<circle class="st2" cx="-511.2" cy="126" r="18.6"/>
	<circle class="st2" cx="-288.6" cy="348.7" r="18.6"/>
</g>
</svg>
