<?xml version="1.0" encoding="utf-8"?>
<!-- Generator: Adobe Illustrator 26.0.3, SVG Export Plug-In . SVG Version: 6.00 Build 0)  -->
<svg version="1.1" id="Layer_1" xmlns="http://www.w3.org/2000/svg" xmlns:xlink="http://www.w3.org/1999/xlink" x="0px" y="0px"
	 viewBox="0 0 512 512" style="enable-background:new 0 0 512 512;" xml:space="preserve">
<style type="text/css">
	.st0{fill:#0F2132;}
	.st1{fill:#FFFFFF;}
	.st2{fill:#E65400;}
</style>
<rect y="-0.7" class="st0" width="512" height="513.4"/>
<g>
	<path class="st1" d="M250.6,402.7h12.2v12.2h-12.2V402.7z"/>
	<path class="st1" d="M355.6,364.2l8.6-8.6l8.6,8.6l-8.6,8.6L355.6,364.2z"/>
	<path class="st1" d="M402.7,250.5h12.2v12.2h-12.2V250.5z"/>
	<path class="st1" d="M433.2,214H390c-2.4-7.5-5.3-14.6-8.9-21.5l30.5-30.5c2.4-2.4,2.4-6.2,0-8.6l-25.8-25.8
		c-70.8-72.1-186.3-73.1-258.3-2.5s-73.1,186.3-2.4,258.2c0.8,0.8,1.6,1.7,2.4,2.4l25.8,25.8c2.4,2.4,6.2,2.4,8.6,0l30.5-30.5
		c6.9,3.6,14.2,6.5,21.6,8.9v43.2c0,3.3,2.7,6.1,6.1,6.1h73c3.3,0,6.1-2.7,6.1-6.1V390c7.5-2.4,14.6-5.3,21.5-8.9l30.5,30.5
		c2.4,2.4,6.2,2.4,8.6,0l51.7-51.7c2.4-2.4,2.4-6.2,0-8.6l-30.5-30.5c3.6-6.9,6.5-14.2,8.9-21.6h43.1c3.3,0,6.1-2.7,6.1-6.1v-73
		C439.3,216.7,436.5,214,433.2,214L433.2,214z M136.1,136.1c64.9-64.9,169.5-66.7,236.6-4.2l-8.6,8.6c-64.2-59.3-164.4-55.2-223.6,9
		c-55.9,60.6-55.9,154.1,0,214.6l-8.6,8.6C69.3,305.6,71.2,201,136.1,136.1z M308.2,204.9c28.3,28.8,27.9,75-0.8,103.3
		c-28.5,28-74,28-102.5,0c-2.4-2.4-6.2-2.4-8.6,0l-47.2,47.3c-54.6-59.3-50.8-151.8,8.5-206.4c55.9-51.4,142-51.4,197.8,0
		l-47.3,47.3C305.9,198.7,305.9,202.6,308.2,204.9L308.2,204.9L308.2,204.9z M427.1,287h-41.6c-2.7,0-5.1,1.8-5.9,4.5
		c-2.7,9.5-6.5,18.7-11.3,27.4c-1.4,2.4-0.9,5.4,1,7.3l29.4,29.4l-43.1,43.1l-29.4-29.4c-1.9-2-4.9-2.4-7.3-1
		c-8.7,4.9-17.9,8.7-27.4,11.3c-2.7,0.8-4.5,3.1-4.5,5.9V427h-60.9v-41.6c0-2.7-1.8-5.1-4.5-5.9c-9.5-2.7-18.7-6.5-27.4-11.3
		c-2.4-1.4-5.4-0.9-7.3,1l-29.4,29.4l-17.2-17.2l60.4-60.4c35.6,30.8,89.4,26.9,120.2-8.7c27.7-32,27.7-79.5,0-111.5l60.4-60.4
		l17.2,17.2l-29.4,29.4c-2,1.9-2.4,4.9-1,7.3c4.9,8.7,8.7,17.9,11.3,27.4c0.8,2.7,3.1,4.5,5.9,4.5h41.6L427.1,287L427.1,287z"/>
	<path class="st2" d="M262.7,233.1v-67.8c0-3.3-2.7-6.1-6.1-6.1c-3.3,0-6.1,2.7-6.1,6.1v67.8c-8.5,2.2-15.1,8.9-17.4,17.4h-43.4
		c-3.3,0-6.1,2.7-6.1,6.1c0,3.3,2.7,6.1,6.1,6.1h43.4c3.3,13,16.6,20.8,29.6,17.5c13-3.3,20.8-16.6,17.5-29.6
		C278,242.1,271.3,235.3,262.7,233.1z M256.7,268.8c-6.7,0-12.2-5.5-12.2-12.2c0-6.7,5.5-12.2,12.2-12.2c6.7,0,12.2,5.5,12.2,12.2
		C268.8,263.3,263.4,268.8,256.7,268.8z"/>
	<path class="st1" d="M256.7,140.9c-3.3,0-6.1-2.7-6.1-6.1v-12.2c0-3.3,2.7-6.1,6.1-6.1c3.3,0,6.1,2.7,6.1,6.1v12.2
		C262.7,138.2,260,140.9,256.7,140.9z"/>
	<path class="st1" d="M317.5,157.2c-3.3,0-6.1-2.7-6.1-6.1c0-1.1,0.3-2.1,0.8-3l6.1-10.6c1.7-2.9,5.4-3.9,8.3-2.2
		c2.9,1.7,3.9,5.3,2.2,8.3l-6.1,10.6C321.7,156.1,319.7,157.2,317.5,157.2L317.5,157.2z"/>
	<path class="st1" d="M195.8,157.2c-2.2,0-4.2-1.1-5.3-3l-6.1-10.6c-1.7-2.9-0.6-6.6,2.3-8.3s6.5-0.7,8.3,2.2l6.1,10.6
		c1.7,2.9,0.7,6.6-2.2,8.3C197.8,157,196.8,157.2,195.8,157.2z"/>
	<path class="st1" d="M151.2,201.8c-1.1,0-2.1-0.3-3-0.8l-10.6-6.1c-2.9-1.7-3.9-5.4-2.2-8.3c1.7-2.9,5.4-3.9,8.3-2.2l10.6,6.1
		c2.9,1.7,3.9,5.4,2.2,8.3C155.4,200.7,153.4,201.8,151.2,201.8L151.2,201.8z"/>
	<path class="st1" d="M134.9,262.7h-12.2c-3.3,0-6.1-2.7-6.1-6.1c0-3.3,2.7-6.1,6.1-6.1h12.2c3.3,0,6.1,2.7,6.1,6.1
		C141,259.9,138.3,262.7,134.9,262.7z"/>
	<path class="st1" d="M140.7,329.6c-3.3,0-6.1-2.7-6.1-6.1c0-2.2,1.1-4.2,3-5.3l10.6-6.1c2.9-1.7,6.6-0.8,8.3,2.2
		c1.7,2.9,0.8,6.6-2.2,8.3c0,0-0.1,0-0.1,0.1l-10.6,6.1C142.7,329.3,141.8,329.6,140.7,329.6L140.7,329.6z"/>
	<path class="st1" d="M256.7,317.5c-16.1,0.1-31.7-6.4-43-17.9c-2.4-2.4-2.5-6.2-0.2-8.6c2.4-2.4,6.2-2.5,8.6-0.2
		c0.1,0.1,0.1,0.1,0.2,0.2c18.8,19.2,49.6,19.6,68.8,0.8c19.2-18.8,19.6-49.6,0.8-68.8c-0.2-0.2-0.5-0.5-0.8-0.8
		c-2.4-2.4-2.5-6.2-0.2-8.6c2.4-2.4,6.2-2.5,8.6-0.2c0.1,0.1,0.1,0.1,0.2,0.2c23.7,23.8,23.7,62.3,0,86.1
		C288.2,311.1,272.8,317.5,256.7,317.5L256.7,317.5z"/>
</g>
<g>
	<path class="st0" d="M-330.5,402.7h12.2v12.2h-12.2V402.7z"/>
	<path class="st0" d="M-225.5,364.2l8.6-8.6l8.6,8.6l-8.6,8.6L-225.5,364.2z"/>
	<path class="st0" d="M-178.3,250.5h12.2v12.2h-12.2V250.5z"/>
	<path class="st0" d="M-147.9,214H-191c-2.4-7.5-5.3-14.6-8.9-21.5l30.5-30.5c2.4-2.4,2.4-6.2,0-8.6l-25.8-25.8
		c-70.7-72.1-186.3-73.1-258.3-2.5s-73.1,186.3-2.4,258.2c0.8,0.8,1.6,1.7,2.4,2.4l25.8,25.8c2.4,2.4,6.2,2.4,8.6,0l30.5-30.5
		c6.9,3.6,14.2,6.5,21.6,8.9v43.2c0,3.3,2.7,6.1,6.1,6.1h73c3.3,0,6.1-2.7,6.1-6.1V390c7.5-2.4,14.6-5.3,21.5-8.9l30.5,30.5
		c2.4,2.4,6.2,2.4,8.6,0l51.7-51.7c2.4-2.4,2.4-6.2,0-8.6l-30.5-30.5c3.6-6.9,6.5-14.2,8.9-21.6h43.2c3.3,0,6.1-2.7,6.1-6.1v-73
		C-141.8,216.7-144.5,214-147.9,214L-147.9,214z M-444.9,136.1c64.9-64.9,169.5-66.7,236.6-4.2l-8.6,8.6
		c-64.2-59.3-164.4-55.2-223.6,9c-55.9,60.6-55.9,154.1,0,214.6l-8.6,8.6C-511.7,305.6-509.8,201-444.9,136.1z M-272.7,204.9
		c28.3,28.8,27.9,75-0.8,103.3c-28.5,28-74,28-102.5,0c-2.4-2.4-6.2-2.4-8.6,0l-47.3,47.3c-54.6-59.3-50.8-151.8,8.5-206.4
		c55.9-51.4,142-51.4,197.8,0l-47.3,47.3C-275.1,198.7-275.1,202.6-272.7,204.9L-272.7,204.9L-272.7,204.9z M-154,287h-41.6
		c-2.7,0-5.1,1.8-5.9,4.5c-2.7,9.5-6.5,18.7-11.3,27.4c-1.4,2.4-0.9,5.4,1,7.3l29.4,29.4l-43.1,43.1l-29.3-29.4
		c-1.9-2-4.9-2.4-7.3-1c-8.7,4.9-17.9,8.7-27.4,11.3c-2.7,0.8-4.5,3.1-4.5,5.9V427h-60.9v-41.6c0-2.7-1.8-5.1-4.5-5.9
		c-9.5-2.7-18.7-6.5-27.4-11.3c-2.4-1.4-5.4-0.9-7.3,1l-29.4,29.4l-17.2-17.2l60.4-60.4c35.6,30.8,89.4,26.9,120.2-8.7
		c27.7-32,27.7-79.5,0-111.5l60.4-60.4l17.2,17.2l-29.4,29.4c-2,1.9-2.4,4.9-1,7.3c4.9,8.7,8.7,17.9,11.3,27.4
		c0.8,2.7,3.1,4.5,5.9,4.5h41.6V287z"/>
	<path class="st2" d="M-318.3,233.1v-67.8c0-3.3-2.7-6.1-6.1-6.1s-6.1,2.7-6.1,6.1v67.8c-8.5,2.2-15.1,8.9-17.4,17.4h-43.4
		c-3.3,0-6.1,2.7-6.1,6.1c0,3.3,2.7,6.1,6.1,6.1h43.4c3.3,13,16.6,20.8,29.6,17.5c13-3.3,20.8-16.6,17.5-29.6
		C-303,242.1-309.7,235.3-318.3,233.1z M-324.4,268.8c-6.7,0-12.2-5.5-12.2-12.2c0-6.7,5.5-12.2,12.2-12.2c6.7,0,12.2,5.5,12.2,12.2
		C-312.2,263.3-317.7,268.8-324.4,268.8z"/>
	<path class="st0" d="M-324.4,140.9c-3.3,0-6.1-2.7-6.1-6.1v-12.2c0-3.3,2.7-6.1,6.1-6.1s6.1,2.7,6.1,6.1v12.2
		C-318.3,138.2-321.1,140.9-324.4,140.9z"/>
	<path class="st0" d="M-263.5,157.2c-3.3,0-6.1-2.7-6.1-6.1c0-1.1,0.3-2.1,0.8-3l6.1-10.6c1.7-2.9,5.4-3.9,8.3-2.2
		c2.9,1.7,3.9,5.3,2.2,8.3l-6.1,10.6C-259.3,156.1-261.3,157.2-263.5,157.2L-263.5,157.2z"/>
	<path class="st0" d="M-385.3,157.2c-2.2,0-4.2-1.1-5.3-3l-6.1-10.6c-1.7-2.9-0.6-6.6,2.3-8.3c2.9-1.7,6.5-0.7,8.3,2.2l6.1,10.6
		c1.7,2.9,0.7,6.6-2.2,8.3C-383.1,157-384.2,157.2-385.3,157.2z"/>
	<path class="st0" d="M-429.9,201.8c-1.1,0-2.1-0.3-3-0.8l-10.6-6.1c-2.9-1.7-3.9-5.4-2.2-8.3c1.7-2.9,5.4-3.9,8.3-2.2l10.6,6.1
		c2.9,1.7,3.9,5.4,2.2,8.3C-425.7,200.7-427.7,201.8-429.9,201.8L-429.9,201.8z"/>
	<path class="st0" d="M-446.1,262.7h-12.2c-3.3,0-6.1-2.7-6.1-6.1c0-3.3,2.7-6.1,6.1-6.1h12.2c3.3,0,6.1,2.7,6.1,6.1
		C-440.1,259.9-442.8,262.7-446.1,262.7z"/>
	<path class="st0" d="M-440.4,329.6c-3.3,0-6.1-2.7-6.1-6.1c0-2.2,1.1-4.2,3-5.3l10.6-6.1c2.9-1.7,6.6-0.8,8.3,2.2
		c1.7,2.9,0.8,6.6-2.2,8.3c0,0-0.1,0-0.1,0.1l-10.6,6.1C-438.2,329.3-439.3,329.6-440.4,329.6L-440.4,329.6z"/>
	<path class="st0" d="M-324.4,317.5c-16.1,0.1-31.7-6.4-43-17.9c-2.4-2.4-2.5-6.2-0.2-8.6c2.4-2.4,6.2-2.5,8.6-0.2
		c0.1,0.1,0.1,0.1,0.2,0.2c18.8,19.2,49.6,19.6,68.8,0.8c19.2-18.8,19.6-49.6,0.8-68.8c-0.2-0.2-0.5-0.5-0.8-0.8
		c-2.4-2.4-2.5-6.2-0.2-8.6c2.4-2.4,6.2-2.5,8.6-0.2c0.1,0.1,0.1,0.1,0.2,0.2c23.7,23.8,23.7,62.3,0,86.1
		C-292.8,311.1-308.3,317.5-324.4,317.5L-324.4,317.5z"/>
</g>
</svg>
