<?xml version="1.0" encoding="utf-8"?>
<!-- Generator: Adobe Illustrator 26.0.3, SVG Export Plug-In . SVG Version: 6.00 Build 0)  -->
<svg version="1.1" id="Icon" xmlns="http://www.w3.org/2000/svg" xmlns:xlink="http://www.w3.org/1999/xlink" x="0px" y="0px"
	 viewBox="0 0 512 512" style="enable-background:new 0 0 512 512;" xml:space="preserve">
<style type="text/css">
	.st0{fill:#0F2132;}
	.st1{fill:#FFFFFF;}
	.st2{fill:#E65400;}
</style>
<rect y="-0.7" class="st0" width="512" height="513.4"/>
<g>
	<path class="st1" d="M406.5,205.1c-3.7-4.3-7.6-8.7-8.5-12.3c-1-3.9,0.1-9.8,1.2-15.6c1.7-9.1,3.7-19.5-1.3-28.3
		c-5.1-8.8-15.2-12.4-24-15.4c-5.5-1.9-11.2-3.9-13.9-6.6c-2.7-2.7-4.6-8.3-6.6-13.9c-3.1-8.9-6.6-18.9-15.4-24.1
		c-8.7-5-19.1-3.1-28.3-1.3c-5.7,1.1-11.7,2.2-15.6,1.2c-3.5-0.9-8-4.8-12.3-8.5C274.6,74,266.4,67,256,67c-10.5,0-18.6,7-25.8,13.2
		c-4.3,3.7-8.7,7.6-12.3,8.5c-3.9,1-9.8-0.1-15.6-1.2c-9.1-1.7-19.5-3.7-28.3,1.3c-8.8,5.1-12.4,15.2-15.4,24
		c-1.9,5.5-3.9,11.2-6.6,13.9c-2.7,2.7-8.3,4.6-13.9,6.6c-8.9,3.1-18.9,6.6-24.1,15.4c-5,8.7-3.1,19.1-1.3,28.3
		c1.1,5.7,2.2,11.7,1.2,15.6c-0.9,3.5-4.8,8-8.5,12.3c-6.2,7.2-13.2,15.4-13.2,25.8s7,18.6,13.2,25.8c3.7,4.3,7.6,8.7,8.5,12.3
		c1,3.9-0.1,9.8-1.2,15.6c-1.7,9.1-3.7,19.5,1.3,28.3c5.1,8.8,15.2,12.4,24,15.4c5.5,1.9,11.2,3.9,13.9,6.6c0.3,0.3,0.6,0.7,0.9,1.1
		l-31,98.2c-0.8,2.5-0.3,5.4,1.3,7.5c1.6,2.1,4.1,3.5,6.8,3.5h75.6c3.7,0,6.9-2.4,8-5.9l17.9-56.7c6.9,5.9,14.6,12.1,24.5,12.1
		s17.6-6.2,24.5-12.1l17.9,56.7c1.1,3.5,4.3,5.9,8,5.9H382c2.7,0,5.2-1.3,6.8-3.5c1.6-2.1,2-5,1.3-7.5l-31-98.2
		c0.3-0.4,0.6-0.8,0.9-1.1c2.7-2.7,8.3-4.6,13.9-6.6c8.9-3.1,18.9-6.6,24.1-15.4c5-8.7,3.1-19.1,1.3-28.3
		c-1.1-5.7-2.2-11.7-1.2-15.6c0.9-3.5,4.8-8,8.5-12.3l0,0c6.2-7.2,13.2-15.4,13.2-25.8C419.8,220.4,412.8,212.3,406.5,205.1z
		 M199.4,428.3h-58l21.6-68.4c2.5,5.2,5.8,9.8,11,12.8c8.7,5,19.1,3.1,28.3,1.3c5.4-1,10.8-2,14.6-1.3L199.4,428.3z M370.6,428.3
		h-58L295,372.8c3.9-0.6,9.3,0.3,14.6,1.3c9.1,1.7,19.5,3.7,28.3-1.3c5.2-3,8.5-7.7,11-12.9L370.6,428.3z M393.9,245.6L393.9,245.6
		c-5,5.7-10.1,11.7-12,18.9c-2,7.6-0.6,15.4,0.9,23.1c1.3,6.6,2.5,13.4,0.6,16.8c-2,3.5-8.6,5.7-15,8c-7.2,2.5-14.8,5.1-20.2,10.6
		c-5.4,5.4-8,12.9-10.6,20.2c-2.2,6.4-4.6,13.1-8,15c-3.3,1.9-10.2,0.6-16.7-0.6c-7.6-1.4-15.5-2.9-23.1-0.9
		c-7.2,2-13.2,7.1-18.9,12c-5.2,4.5-10.6,9.1-14.8,9.1c-4.2,0-9.6-4.6-14.8-9.1c-5.7-5-11.7-10.1-18.9-12c-2.6-0.7-5.3-0.9-8-0.9
		c-5,0-10.1,0.9-15,1.9c-6.6,1.3-13.4,2.5-16.8,0.6c-3.5-2-5.7-8.6-8-15c-2.5-7.2-5.1-14.8-10.6-20.2c-5.4-5.4-12.9-8-20.2-10.6
		c-6.4-2.2-13.1-4.6-15-8c-1.9-3.3-0.6-10.2,0.6-16.7c1.4-7.6,2.9-15.5,0.9-23.1c-2-7.2-7.1-13.2-12-18.9
		c-4.5-5.2-9.1-10.6-9.1-14.8c0-4.2,4.6-9.6,9.1-14.8c5-5.7,10.1-11.7,12-18.9c2-7.6,0.6-15.4-0.9-23.1c-1.3-6.6-2.5-13.4-0.6-16.8
		c2-3.5,8.6-5.7,15-8c7.2-2.5,14.8-5.1,20.2-10.6c5.4-5.4,8-12.9,10.6-20.2c2.2-6.4,4.6-13.1,8-15c3.3-1.9,10.2-0.6,16.7,0.6
		c7.6,1.4,15.5,2.9,23.1,0.9c7.2-2,13.2-7.1,18.9-12c5.1-4.6,10.5-9.2,14.6-9.2c4.2,0,9.6,4.6,14.8,9.1c5.7,5,11.7,10.1,18.9,12
		c7.6,2,15.4,0.6,23.1-0.9c6.6-1.3,13.4-2.5,16.8-0.6c3.5,2,5.7,8.6,8,15c2.5,7.2,5.1,14.8,10.6,20.2c5.4,5.4,12.9,8,20.2,10.6
		c6.4,2.2,13.1,4.6,15,8c1.9,3.3,0.6,10.2-0.6,16.7c-1.4,7.6-2.9,15.5-0.9,23.1c2,7.2,7.1,13.2,12,18.9c4.5,5.2,9.1,10.6,9.1,14.8
		C402.9,234.9,398.4,240.4,393.9,245.6z"/>
	<path class="st1" d="M256,125.9c-57.9,0-105,47.1-105,105s47.1,105.1,105,105.1s105-47.1,105-105S313.8,125.9,256,125.9z
		 M256,319.1c-48.7,0-88.2-39.5-88.2-88.2s39.5-88.2,88.2-88.2s88.2,39.5,88.2,88.2S304.6,319.1,256,319.1z"/>
	<path class="st1" d="M307.6,206.5L307.6,206.5l-30.4-4.6l-13.7-29.1c-1.4-2.9-4.3-4.8-7.6-4.8c-3.3,0-6.2,1.9-7.6,4.8l-13.7,29.1
		l-30.4,4.6c-3.2,0.5-5.7,2.7-6.7,5.7s-0.2,6.3,2,8.5l22,22.5l-7.4,32c-0.7,3.2,0.5,6.5,3,8.5c2.6,2,6.1,2.4,9,0.9l29.8-15.3
		l29.8,15.3c1.2,0.6,2.5,0.9,3.9,0.9c1.8,0,3.6-0.6,5.2-1.8c2.6-2,3.8-5.4,3-8.5l-7.4-32l22-22.5c2.2-2.3,2.9-5.5,2-8.5
		C313.4,209.2,310.8,207,307.6,206.5z M275.2,234.8c-2,2-2.8,5-2.2,7.7l4.3,18.9l-17.5-9c-1.2-0.6-2.5-0.9-3.9-0.9
		c-1.3,0-2.6,0.3-3.9,0.9l-17.6,9l4.3-18.9c0.6-2.8-0.2-5.7-2.2-7.7l-13.8-14.1l18.7-2.8c2.8-0.4,5.1-2.2,6.3-4.7l8-17l8,17
		c1.2,2.5,3.5,4.3,6.3,4.7l18.7,2.8L275.2,234.8z"/>
	<path class="st2" d="M263.9,213l-8-17l-8,17c-1.2,2.5-3.5,4.3-6.3,4.7l-18.7,2.8l13.8,14.1c2,2,2.8,5,2.2,7.7l-4.3,18.9l17.6-9
		c1.2-0.6,2.5-0.9,3.9-0.9s2.6,0.3,3.9,0.9l17.6,9l-4.3-18.9c-0.6-2.8,0.2-5.7,2.2-7.7l13.8-14.1l-18.7-2.8
		C267.5,217.4,265.1,215.6,263.9,213z"/>
</g>
<g>
	<path class="st0" d="M-210.3,205c-3.7-4.3-7.6-8.7-8.5-12.3c-1-3.9,0.1-9.8,1.2-15.6c1.7-9.1,3.7-19.5-1.3-28.3
		c-5.1-8.8-15.2-12.4-24-15.4c-5.5-1.9-11.2-3.9-13.9-6.6c-2.7-2.7-4.6-8.3-6.6-13.9c-3.1-8.9-6.6-18.9-15.4-24.1
		c-8.7-5-19.1-3.1-28.3-1.3c-5.7,1.1-11.7,2.2-15.6,1.2c-3.5-0.9-8-4.8-12.3-8.5c-7.2-6.2-15.4-13.2-25.8-13.2
		c-10.5,0-18.6,7-25.8,13.2c-4.3,3.7-8.7,7.6-12.3,8.5c-3.9,1-9.8-0.1-15.6-1.2c-9.1-1.7-19.5-3.7-28.3,1.3
		c-8.8,5.1-12.4,15.2-15.4,24c-1.9,5.5-3.9,11.2-6.6,13.9c-2.7,2.7-8.3,4.6-13.9,6.6c-8.9,3.1-18.9,6.6-24.1,15.4
		c-5,8.7-3.1,19.1-1.3,28.3c1.1,5.7,2.2,11.7,1.2,15.6c-0.9,3.5-4.8,8-8.5,12.3c-6.2,7.2-13.2,15.4-13.2,25.8s7,18.6,13.2,25.8
		c3.7,4.3,7.6,8.7,8.5,12.3c1,3.9-0.1,9.8-1.2,15.6c-1.7,9.1-3.7,19.5,1.3,28.3c5.1,8.8,15.2,12.4,24,15.4
		c5.5,1.9,11.2,3.9,13.9,6.6c0.3,0.3,0.6,0.7,0.9,1.1l-31,98.4c-0.8,2.5-0.3,5.4,1.3,7.5c1.6,2.1,4.1,3.5,6.8,3.5h75.6
		c3.7,0,6.9-2.4,8-5.9l17.9-56.7c6.9,5.9,14.6,12.1,24.5,12.1c9.8,0,17.6-6.2,24.5-12.1l17.9,56.7c1.1,3.5,4.3,5.9,8,5.9h75.6
		c2.7,0,5.2-1.3,6.8-3.5c1.6-2.1,2-5,1.3-7.5l-31-98.2c0.3-0.4,0.6-0.8,0.9-1.1c2.7-2.7,8.3-4.6,13.9-6.6
		c8.9-3.1,18.9-6.6,24.1-15.4c5-8.7,3.1-19.1,1.3-28.3c-1.1-5.7-2.2-11.7-1.2-15.6c0.9-3.5,4.8-8,8.5-12.3l0,0
		c6.2-7.2,13.2-15.4,13.2-25.8C-197.1,220.4-204.1,212.3-210.3,205z M-417.4,428.2h-58l21.6-68.4c2.5,5.2,5.8,9.8,11,12.8
		c8.7,5,19.1,3.1,28.3,1.3c5.4-1,10.8-2,14.6-1.3L-417.4,428.2z M-246.4,428.2h-58l-17.6-55.5c3.9-0.6,9.3,0.3,14.6,1.3
		c9.1,1.7,19.5,3.7,28.3-1.3c5.2-3,8.5-7.7,11-12.9L-246.4,428.2z M-223.1,245.6L-223.1,245.6c-5,5.7-10.1,11.7-12,18.9
		c-2,7.6-0.6,15.4,0.9,23.1c1.3,6.6,2.5,13.4,0.6,16.8c-2,3.5-8.6,5.7-15,8c-7.2,2.5-14.8,5.1-20.2,10.6c-5.4,5.4-8,12.9-10.6,20.2
		c-2.2,6.4-4.6,13.1-8,15c-3.3,1.9-10.2,0.6-16.7-0.6c-7.6-1.4-15.5-2.9-23.1-0.9c-7.2,2-13.2,7.1-18.9,12
		c-5.2,4.5-10.6,9.1-14.8,9.1s-9.6-4.6-14.8-9.1c-5.7-5-11.7-10.1-18.9-12c-2.6-0.7-5.3-0.9-8-0.9c-5,0-10.1,0.9-15,1.9
		c-6.6,1.3-13.4,2.5-16.8,0.6c-3.5-2-5.7-8.6-8-15c-2.5-7.2-5.1-14.8-10.6-20.2c-5.4-5.4-12.9-8-20.2-10.6c-6.4-2.2-13.1-4.6-15-8
		c-1.9-3.3-0.6-10.2,0.6-16.7c1.4-7.6,2.9-15.5,0.9-23.1c-2-7.2-7.1-13.2-12-18.9c-4.5-5.2-9.1-10.6-9.1-14.8
		c0-4.2,4.6-9.6,9.1-14.8c5-5.7,10.1-11.7,12-18.9c2-7.6,0.6-15.4-0.9-23.1c-1.3-6.6-2.5-13.4-0.6-16.8c2-3.5,8.6-5.7,15-8
		c7.2-2.5,14.8-5.1,20.2-10.6s8-12.9,10.6-20.2c2.2-6.4,4.6-13.1,8-15c3.3-1.9,10.2-0.6,16.7,0.6c7.6,1.4,15.5,2.9,23.1,0.9
		c7.2-2,13.2-7.1,18.9-12c5.1-4.6,10.6-9.2,14.7-9.2s9.6,4.6,14.8,9.1c5.7,5,11.7,10.1,18.9,12c7.6,2,15.4,0.6,23.1-0.9
		c6.6-1.3,13.4-2.5,16.8-0.6c3.5,2,5.7,8.6,8,15c2.5,7.2,5.1,14.8,10.6,20.2s12.9,8,20.2,10.6c6.4,2.2,13.1,4.6,15,8
		c1.9,3.3,0.6,10.2-0.6,16.7c-1.4,7.6-2.9,15.5-0.9,23.1c2,7.2,7.1,13.2,12,18.9c4.5,5.2,9.1,10.6,9.1,14.8
		C-213.9,234.9-218.5,240.4-223.1,245.6z"/>
	<path class="st0" d="M-360.9,125.8c-57.9,0-105,47.1-105,105s47.1,105.1,105,105.1s105-47.1,105-105S-303,125.8-360.9,125.8z
		 M-360.9,319c-48.7,0-88.2-39.5-88.2-88.2s39.5-88.2,88.2-88.2s88.2,39.5,88.2,88.2S-312.2,319-360.9,319z"/>
	<path class="st0" d="M-309.2,206.4L-309.2,206.4l-30.4-4.6l-13.7-29.1c-1.4-2.9-4.3-4.8-7.6-4.8c-3.3,0-6.2,1.9-7.6,4.8l-13.7,29.1
		l-30.4,4.6c-3.2,0.5-5.7,2.7-6.7,5.7s-0.2,6.3,2,8.5l22,22.5l-7.4,32c-0.7,3.2,0.5,6.5,3,8.5c2.6,2,6.1,2.4,9,0.9l29.8-15.3
		l29.8,15.3c1.2,0.6,2.5,0.9,3.9,0.9c1.8,0,3.6-0.6,5.2-1.8c2.6-2,3.8-5.4,3-8.5l-7.4-32l22-22.5c2.2-2.3,2.9-5.5,2-8.5
		C-303.6,209.1-306.1,206.9-309.2,206.4z M-341.7,234.7c-2,2-2.8,5-2.2,7.7l4.3,18.9l-17.5-9c-1.2-0.6-2.5-0.9-3.9-0.9
		s-2.6,0.3-3.9,0.9l-17.6,9l4.3-18.9c0.6-2.8-0.2-5.7-2.2-7.7l-13.8-14.1l18.7-2.8c2.8-0.4,5.1-2.2,6.3-4.7l8-17l8,17
		c1.2,2.5,3.5,4.3,6.3,4.7l18.7,2.8L-341.7,234.7z"/>
	<path class="st2" d="M-352.9,213l-8-17l-8,17c-1.2,2.5-3.5,4.3-6.3,4.7l-18.7,2.8l13.8,14.1c2,2,2.8,5,2.2,7.7l-4.3,18.9l17.6-9
		c1.2-0.6,2.5-0.9,3.9-0.9s2.6,0.3,3.9,0.9l17.6,9l-4.3-18.9c-0.6-2.8,0.2-5.7,2.2-7.7l13.8-14.1l-18.7-2.8
		C-349.3,217.3-351.8,215.5-352.9,213z"/>
</g>
</svg>
