<?xml version="1.0" encoding="utf-8"?>
<!-- Generator: Adobe Illustrator 26.0.3, SVG Export Plug-In . SVG Version: 6.00 Build 0)  -->
<svg version="1.1" id="Layer_1" xmlns="http://www.w3.org/2000/svg" xmlns:xlink="http://www.w3.org/1999/xlink" x="0px" y="0px"
	 viewBox="0 0 496 496" style="enable-background:new 0 0 496 496;" xml:space="preserve">
<style type="text/css">
	.st0{fill:#E65400;}
	.st1{fill:#FFFFFF;}
	.st2{fill:#FFFFFF;}
</style>
<rect x="649.5" class="st0" width="496" height="496"/>
<g>
	<path class="st1" d="M844.7,147.1c-10.2,3.9-17.6,13.7-17.6,25.2c0,4.4,1.2,8.6,3.1,12.3c-8.1,3.1-13.9,11-13.9,20.2
		s5.8,17,13.9,20.2c-1.9,3.7-3.1,7.8-3.1,12.3c0,11.5,7.3,21.4,17.6,25.2c-0.8,2.3-1.4,4.7-1.4,7.3c0,11.9,9.7,21.6,21.6,21.6
		c2.7,0,5.2-0.6,7.7-1.5c3.5,7.3,10.9,12.3,19.4,12.3c11.9,0,21.6-9.7,21.6-21.6V129c0-11.9-9.7-21.6-21.6-21.6
		c-8.5,0-15.9,5.1-19.4,12.3c-2.4-0.9-4.9-1.5-7.7-1.5c-11.9,0-21.6,9.7-21.6,21.6C843.4,142.4,843.9,144.8,844.7,147.1z M865,129
		c6,0,10.8,4.8,10.8,10.8h10.8c0-5.2-1.9-9.9-5-13.6c1.3-4.6,5.4-8,10.4-8c6,0,10.8,4.8,10.8,10.8v151.5c0,6-4.8,10.8-10.8,10.8
		c-5,0-9.1-3.4-10.4-8c3.1-3.7,5-8.5,5-13.6h-10.8c0,6-4.8,10.8-10.8,10.8s-10.8-4.8-10.8-10.8s4.8-10.8,10.8-10.8V248
		c-5.2,0-10.1,1.9-13.8,5.1c-7.5-1.4-13.2-8-13.2-16c0-8.9,7.3-16.2,16.2-16.2c8.9,0,16.2,7.3,16.2,16.2h10.8c0-14.9-12.1-27-27-27
		c-6.1,0-11.7,2.1-16.2,5.6v-0.2c-6,0-10.8-4.8-10.8-10.8s4.8-10.8,10.8-10.8v-0.2c4.5,3.5,10.1,5.6,16.2,5.6c14.9,0,27-12.1,27-27
		h-10.8c0,8.9-7.3,16.2-16.2,16.2c-8.9,0-16.2-7.3-16.2-16.2c0-7.9,5.7-14.5,13.2-16c3.8,3.1,8.5,5.1,13.8,5.1v-10.8
		c-6,0-10.8-4.8-10.8-10.8C854.2,133.8,859,129,865,129z"/>
	<path class="st1" d="M973.2,118.2c-2.7,0-5.2,0.6-7.7,1.5c-3.5-7.3-10.9-12.3-19.4-12.3c-11.9,0-21.6,9.7-21.6,21.6v151.5
		c0,11.9,9.7,21.6,21.6,21.6c8.5,0,15.9-5.1,19.4-12.3c2.4,0.9,4.9,1.5,7.7,1.5c11.9,0,21.6-9.7,21.6-21.6c0-2.6-0.5-4.9-1.4-7.3
		c10.2-3.9,17.6-13.7,17.6-25.2c0-4.4-1.2-8.6-3.1-12.3c8.1-3.1,13.9-11,13.9-20.2s-5.8-17-13.9-20.2c1.9-3.7,3.1-7.8,3.1-12.3
		c0-11.5-7.3-21.4-17.6-25.2c0.8-2.3,1.4-4.7,1.4-7.3C994.8,127.9,985.1,118.2,973.2,118.2z M1000.2,172.3c0,8.9-7.3,16.2-16.2,16.2
		s-16.2-7.3-16.2-16.2H957c0,14.9,12.2,27,27,27c6.1,0,11.7-2.1,16.2-5.6v0.2c6,0,10.8,4.8,10.8,10.8s-4.8,10.8-10.8,10.8v0.2
		c-4.5-3.5-10.1-5.6-16.2-5.6c-14.9,0-27,12.2-27,27h10.8c0-8.9,7.3-16.2,16.2-16.2c8.9,0,16.2,7.3,16.2,16.2
		c0,7.9-5.7,14.5-13.2,16c-3.8-3.1-8.5-5.1-13.8-5.1v10.8c6,0,10.8,4.8,10.8,10.8s-4.8,10.8-10.8,10.8s-10.8-4.8-10.8-10.8h-10.8
		c0,5.2,1.9,9.9,5,13.6c-1.3,4.6-5.4,8-10.4,8c-6,0-10.8-4.8-10.8-10.8V129c0-6,4.8-10.8,10.8-10.8c5,0,9.1,3.4,10.4,8
		c-3.1,3.7-5,8.5-5,13.6h10.8c0-6,4.8-10.8,10.8-10.8s10.8,4.8,10.8,10.8s-4.8,10.8-10.8,10.8v10.8c5.2,0,10.1-1.9,13.8-5.1
		C994.5,157.8,1000.2,164.3,1000.2,172.3z"/>
	<path class="st1" d="M1004.3,114.1c-25.3-23.8-58.4-35.7-93.1-33.5l0.6,10.8c31.8-1.9,62,8.9,85.1,30.6
		c23.1,21.7,35.8,51.1,35.8,82.8c0,38.2-19,73.6-50.9,94.7c-11,7.3-19.3,17.7-24.4,29.7h-76.7c-5.2-12.1-13.5-22.6-24.6-29.9
		c-32.8-21.9-51.8-58.6-50.5-98.1l-10.8-0.3c-1.4,43.2,19.3,83.4,55.3,107.5c8,5.3,14.3,12.6,18.7,21h-14.6V340h18.9
		c1,3.5,1.9,7.1,2.3,10.8H865v10.8h10.8v16.2c0,3,2.4,5.4,5.4,5.4h5.4c0,17.9,14.6,32.5,32.5,32.5c17.9,0,32.5-14.6,32.5-32.5h5.4
		c3,0,5.4-2.4,5.4-5.4v-16.2h10.8v-10.8h-10.4c0.4-3.7,1.1-7.3,2.2-10.8h19.1v-10.8h-14.8c4.4-8.3,10.6-15.5,18.5-20.7
		c34.9-23.1,55.7-61.9,55.7-103.8C1043.5,170.5,1029.2,137.5,1004.3,114.1z M919.1,404.9c-11.9,0-21.6-9.7-21.6-21.6h43.3
		C940.8,395.1,931,404.9,919.1,404.9z M951.6,372.4h-64.9v-10.8h64.9V372.4z M952,350.8h-65.8c-0.3-3.7-1-7.3-1.9-10.8h69.3
		C952.8,343.5,952.3,347.1,952,350.8z"/>
	<path class="st2" d="M789.3,118.2c11.9,0,21.6,9.7,21.6,21.6c0,3,2.4,5.4,5.4,5.4s5.4-2.4,5.4-5.4c0-11.9,9.7-21.6,21.6-21.6
		c3,0,5.4-2.4,5.4-5.4s-2.4-5.4-5.4-5.4c-11.9,0-21.6-9.7-21.6-21.6c0-3-2.4-5.4-5.4-5.4s-5.4,2.4-5.4,5.4
		c0,11.9-9.7,21.6-21.6,21.6c-3,0-5.4,2.4-5.4,5.4S786.3,118.2,789.3,118.2z M816.4,103.7c2.4,3.6,5.5,6.7,9.1,9.1
		c-3.6,2.4-6.7,5.5-9.1,9.1c-2.4-3.6-5.5-6.7-9.1-9.1C810.8,110.4,813.9,107.2,816.4,103.7z"/>
	<path class="st2" d="M811,172.3c3,0,5.4-2.4,5.4-5.4s-2.4-5.4-5.4-5.4c-11.9,0-21.6-9.7-21.6-21.6c0-3-2.4-5.4-5.4-5.4
		s-5.4,2.4-5.4,5.4c0,11.9-9.7,21.6-21.6,21.6c-3,0-5.4,2.4-5.4,5.4s2.4,5.4,5.4,5.4c11.9,0,21.6,9.7,21.6,21.6c0,3,2.4,5.4,5.4,5.4
		s5.4-2.4,5.4-5.4C789.3,182,798.9,172.3,811,172.3z M783.9,176c-2.4-3.6-5.5-6.7-9.1-9.1c3.6-2.4,6.7-5.5,9.1-9.1
		c2.4,3.6,5.5,6.7,9.1,9.1C789.3,169.2,786.3,172.4,783.9,176z"/>
</g>
<g>
	<path class="st2" d="M195.8,148.1c-10.1,3.8-17.4,13.6-17.4,25c0,4.4,1.2,8.5,3,12.2c-8.1,3.1-13.8,10.8-13.8,19.9
		s5.7,16.8,13.8,19.9c-1.9,3.7-3,7.7-3,12.2c0,11.4,7.3,21.1,17.4,25c-0.8,2.2-1.4,4.6-1.4,7.2c0,11.8,9.6,21.4,21.4,21.4
		c2.6,0,5.2-0.6,7.6-1.4c3.4,7.2,10.8,12.1,19.2,12.1c11.8,0,21.4-9.6,21.4-21.4v-150c0-11.8-9.6-21.4-21.4-21.4
		c-8.5,0-15.7,5-19.2,12.1c-2.4-0.9-4.9-1.4-7.6-1.4c-11.8,0-21.4,9.6-21.4,21.4C194.6,143.5,195,145.9,195.8,148.1z M215.9,130.2
		c5.9,0,10.7,4.8,10.7,10.7h10.7c0-5.1-1.9-9.8-4.9-13.5c1.3-4.5,5.3-7.9,10.3-7.9c5.9,0,10.7,4.8,10.7,10.7v149.9
		c0,5.9-4.8,10.7-10.7,10.7c-4.9,0-9-3.3-10.3-7.9c3-3.7,4.9-8.4,4.9-13.5h-10.7c0,5.9-4.8,10.7-10.7,10.7s-10.7-4.8-10.7-10.7
		s4.8-10.7,10.7-10.7V248c-5.2,0-10,1.9-13.6,5c-7.4-1.4-13.1-7.9-13.1-15.8c0-8.9,7.2-16,16-16s16,7.2,16,16h10.7
		c0-14.8-12-26.7-26.7-26.7c-6.1,0-11.6,2.1-16,5.5v-0.2c-5.9,0-10.7-4.8-10.7-10.7s4.8-10.7,10.7-10.7v-0.2c4.5,3.4,10,5.5,16,5.5
		c14.8,0,26.7-12,26.7-26.7h-10.7c0,8.9-7.2,16-16,16s-16-7.2-16-16c0-7.8,5.7-14.4,13.1-15.8c3.7,3.1,8.5,5,13.6,5v-10.7
		c-5.9,0-10.7-4.8-10.7-10.7S210,130.2,215.9,130.2z"/>
	<path class="st2" d="M323,119.6c-2.6,0-5.2,0.6-7.6,1.4c-3.5-7.2-10.8-12.1-19.2-12.1c-11.8,0-21.4,9.6-21.4,21.4v149.9
		c0,11.8,9.6,21.4,21.4,21.4c8.5,0,15.7-5,19.2-12.1c2.4,0.9,4.9,1.4,7.6,1.4c11.8,0,21.4-9.6,21.4-21.4c0-2.6-0.5-4.9-1.4-7.2
		c10.1-3.8,17.4-13.6,17.4-25c0-4.4-1.2-8.5-3-12.2c8.1-3.1,13.8-10.8,13.8-19.9s-5.7-16.8-13.8-19.9c1.9-3.7,3-7.7,3-12.2
		c0-11.4-7.3-21.1-17.4-25c0.8-2.2,1.4-4.6,1.4-7.2C344.4,129.1,334.8,119.6,323,119.6z M349.8,173.1c0,8.9-7.2,16-16,16
		s-16-7.2-16-16H307c0,14.8,12,26.7,26.7,26.7c6.1,0,11.6-2.1,16-5.5v0.2c5.9,0,10.7,4.8,10.7,10.7s-4.8,10.7-10.7,10.7v0.2
		c-4.5-3.4-10-5.5-16-5.5c-14.8,0-26.7,12-26.7,26.7h10.7c0-8.9,7.2-16,16-16s16,7.2,16,16c0,7.8-5.7,14.4-13.1,15.8
		c-3.7-3.1-8.5-5-13.6-5v10.7c5.9,0,10.7,4.8,10.7,10.7S329,280,323.1,280s-10.7-4.8-10.7-10.7h-10.7c0,5.2,1.9,9.8,4.9,13.5
		c-1.3,4.5-5.3,7.9-10.3,7.9c-5.9,0-10.7-4.8-10.7-10.7V130.2c0-5.9,4.8-10.7,10.7-10.7c4.9,0,9,3.3,10.3,7.9
		c-3,3.7-4.9,8.4-4.9,13.5h10.7c0-5.9,4.8-10.7,10.7-10.7s10.7,4.8,10.7,10.7s-4.8,10.7-10.7,10.7v10.7c5.2,0,10-1.9,13.6-5
		C344.1,158.7,349.8,165.2,349.8,173.1z"/>
	<path class="st2" d="M353.8,115.5c-25-23.5-57.7-35.3-92.1-33.1l0.6,10.7c31.4-1.9,61.3,8.8,84.1,30.2
		c22.8,21.5,35.4,50.6,35.4,81.9c0,37.8-18.8,72.8-50.3,93.7c-10.8,7.2-19.1,17.5-24.2,29.4h-75.9c-5.1-12-13.4-22.3-24.3-29.6
		c-32.5-21.7-51.2-58-49.9-97.1l-10.7-0.3c-1.4,42.8,19.1,82.5,54.7,106.3c7.9,5.3,14.1,12.4,18.5,20.7h-14.4V339H224
		c1,3.4,1.8,7,2.3,10.7H216v10.7h10.7v16c0,3,2.4,5.3,5.3,5.3h5.3c0,17.7,14.4,32.1,32.1,32.1s32.1-14.4,32.1-32.1h5.3
		c3,0,5.3-2.4,5.3-5.3v-16h10.7v-10.7h-10.3c0.4-3.7,1.1-7.3,2.2-10.7h18.9v-10.7h-14.7c4.3-8.2,10.5-15.3,18.3-20.5
		c34.5-22.9,55.1-61.3,55.1-102.6C392.5,171.3,378.4,138.6,353.8,115.5z M269.5,403.2c-11.8,0-21.4-9.6-21.4-21.4h42.8
		C290.9,393.5,281.3,403.2,269.5,403.2z M301.6,371h-64.2v-10.7h64.2L301.6,371L301.6,371z M301.9,349.7h-65
		c-0.3-3.7-1-7.3-1.8-10.7h68.5C302.8,342.4,302.2,346,301.9,349.7z"/>
	<path class="st0" d="M141,119.6c11.8,0,21.4,9.6,21.4,21.4c0,3,2.4,5.3,5.3,5.3s5.3-2.4,5.3-5.3c0-11.8,9.6-21.4,21.4-21.4
		c3,0,5.3-2.4,5.3-5.3c0-3-2.4-5.3-5.3-5.3c-11.8,0-21.4-9.6-21.4-21.4c0-3-2.4-5.3-5.3-5.3s-5.3,2.4-5.3,5.3
		c0,11.8-9.6,21.4-21.4,21.4c-3,0-5.3,2.4-5.3,5.3S138.1,119.6,141,119.6z M167.8,105.2c2.4,3.6,5.4,6.6,9,9c-3.6,2.4-6.6,5.4-9,9
		c-2.4-3.6-5.4-6.6-9-9C162.3,111.8,165.5,108.7,167.8,105.2z"/>
	<path class="st0" d="M162.4,173.1c3,0,5.3-2.4,5.3-5.3c0-3-2.4-5.3-5.3-5.3c-11.8,0-21.4-9.6-21.4-21.4c0-3-2.4-5.3-5.3-5.3
		c-3,0-5.3,2.4-5.3,5.3c0,11.8-9.6,21.4-21.4,21.4c-3,0-5.3,2.4-5.3,5.3c0,3,2.4,5.3,5.3,5.3c11.8,0,21.4,9.6,21.4,21.4
		c0,3,2.4,5.3,5.3,5.3c3,0,5.3-2.4,5.3-5.3C141,182.6,150.6,173.1,162.4,173.1z M135.7,176.7c-2.4-3.6-5.4-6.6-9-9
		c3.6-2.4,6.6-5.4,9-9c2.4,3.6,5.4,6.6,9,9C141.1,170,138.1,173.2,135.7,176.7z"/>
</g>
</svg>
