<?xml version="1.0" encoding="utf-8"?>
<!-- Generator: Adobe Illustrator 26.0.3, SVG Export Plug-In . SVG Version: 6.00 Build 0)  -->
<svg version="1.1" id="Layer_1" xmlns="http://www.w3.org/2000/svg" xmlns:xlink="http://www.w3.org/1999/xlink" x="0px" y="0px"
	 viewBox="0 0 512 512" style="enable-background:new 0 0 512 512;" xml:space="preserve">
<style type="text/css">
	.st0{fill:#FFFFFF;}
	.st1{fill:#FFFFFF;}
	.st2{fill:#E65400;}
</style>
<rect x="643.4" y="-0.7" class="st0" width="512" height="513.4"/>
<g>
	<g>
		<g>
			<path class="st1" d="M858.4,124h-23.2c-3.5,0-6.4,2.8-6.4,6.4c0,3.5,2.8,6.4,6.4,6.4h23.2c3.5,0,6.4-2.8,6.4-6.4
				C864.8,126.8,861.9,124,858.4,124z"/>
		</g>
	</g>
	<g>
		<g>
			<path class="st2" d="M898.2,385.7l-11.3-42.1c-0.6-2.3-2.5-4.1-4.8-4.6c-2.3-0.5-4.8,0.4-6.3,2.3c-2.9,3.6-6.8,6.2-11.3,7.4
				c-6,1.6-12.4,0.6-17.6-2.9c-2.9-2-6.9-1.2-8.8,1.7s-1.2,6.9,1.7,8.8c8.2,5.5,18.4,7.2,28,4.6c3.4-0.9,6.5-2.3,9.4-4.1l7,26
				l-79.8,21.4c-9.6,2.6-19.6,1.3-28.2-3.7c-8.6-5-14.8-13-17.3-22.6l-21.4-79.8l20.9-5.6c3.4-0.9,5.4-4.4,4.5-7.8
				c-3-11.1,3.6-22.6,14.7-25.5c11.1-3,22.6,3.6,25.5,14.7c0.9,3.4,4.4,5.4,7.8,4.5l42.3-11.4l7.1,26.3c-3.4-0.1-6.8,0.3-10.2,1.2
				c-8.9,2.4-16.2,8.1-20.8,16c-4.6,7.9-5.8,17.2-3.4,26c0.9,3.4,4.4,5.4,7.8,4.5c3.4-0.9,5.4-4.4,4.5-7.8
				c-3.1-11.5,3.8-23.4,15.3-26.5c4.5-1.2,9.1-1,13.4,0.7c2.2,0.9,4.8,0.4,6.6-1.2c1.8-1.6,2.5-4.1,1.9-6.4l-11.4-42.4
				c-0.4-1.6-1.5-3-3-3.9c-1.5-0.8-3.2-1.1-4.8-0.6l-42.9,11.5c-6.9-14.2-23.1-22-38.9-17.7c-15.8,4.2-25.9,19.1-24.8,34.8
				l-21.4,5.8c-1.6,0.4-3,1.5-3.9,3c-0.8,1.5-1.1,3.2-0.6,4.8l23.1,85.9c3.5,12.9,11.7,23.6,23.3,30.3c7.7,4.4,16.2,6.7,24.8,6.7
				c4.3,0,8.7-0.6,13-1.7l85.9-23.1c1.6-0.4,3-1.5,3.9-3C898.4,389.1,898.7,387.4,898.2,385.7z"/>
		</g>
	</g>
	<g>
		<g>
			<path class="st1" d="M1075.4,232.4v-49.8c0-3.5-2.8-6.4-6.4-6.4s-6.4,2.8-6.4,6.4v43.5h-23.9c0.5-2.4,0.8-4.8,0.8-7.3
				c0-11.3-5.7-21.2-14.4-27.1c-5.2-3.5-11.5-5.6-18.3-5.6c-10.7,0-20.2,5.2-26.2,13.1c-4.1,5.5-6.5,12.2-6.5,19.5
				c0,2.5,0.3,4.9,0.8,7.3h-32.1v-47.4c0-1.9-0.9-3.8-2.4-5c-1.1-0.9-2.5-1.4-4-1.4c-0.5,0-1,0.1-1.4,0.2c-1.4,0.3-2.9,0.5-4.3,0.5
				c-10.9,0-19.8-8.9-19.8-19.8s8.9-19.8,19.8-19.8c1.4,0,2.9,0.2,4.4,0.5c3.9,0.9,7.7-2.2,7.7-6.2v-21.3h82.6
				c20.5,0,37.2,16.7,37.2,37.2v16.2c0,3.5,2.8,6.4,6.4,6.4s6.4-2.8,6.4-6.4v-16.2c0-27.5-22.4-49.9-49.9-49.9h-89h-89
				c-27.5,0-49.9,22.4-49.9,49.9v43.7c0,3.5,2.8,6.4,6.4,6.4c3.5,0,6.4-2.8,6.4-6.4v-43.7c0-20.5,16.7-37.2,37.2-37.2h82.6v14.3
				c-16.6,0.3-30.2,13.1-31.8,29.3c-0.4,3.8-0.1,7.6,0.8,11.3c3.5,13.9,16,24.2,30.9,24.5v40.4h-38c-3-15.5-16.6-27.2-33-27.2
				s-30,11.7-33,27.2h-15.8v-16.4c0-3.5-2.8-6.4-6.4-6.4c-3.5,0-6.4,2.8-6.4,6.4v22.7c0,3.5,2.8,6.4,6.4,6.4H832
				c3.5,0,6.4-2.8,6.4-6.4c0-11.5,9.4-20.8,20.8-20.8s20.8,9.3,20.8,20.8c0,3.5,2.8,6.4,6.4,6.4h43.8v27.2c-3.3-1-6.7-1.5-10.2-1.5
				c-18.9,0-34.3,15.4-34.3,34.3c0,18.9,15.4,34.3,34.3,34.3c3.5,0,6.9-0.5,10.2-1.5V365c0,3.5,2.8,6.4,6.4,6.4h89
				c27.5,0,49.9-22.4,49.9-49.9L1075.4,232.4C1075.4,232.5,1075.4,232.4,1075.4,232.4z M1062.7,321.5c0,20.5-16.7,37.2-37.2,37.2
				h-82.6v-37.2c0-2.4-1.3-4.6-3.5-5.7c-2.1-1.1-4.7-0.9-6.6,0.6c-3.7,2.7-8.1,4.2-12.8,4.2c-11.9,0-21.6-9.7-21.6-21.6
				c0-11.9,9.7-21.6,21.6-21.6c4.6,0,9.1,1.4,12.8,4.2c1.9,1.4,4.5,1.6,6.6,0.6c2.1-1.1,3.5-3.3,3.5-5.7v-37.5h41.4
				c2.3,0,4.4-1.2,5.5-3.2c1.1-2,1.1-4.5-0.1-6.4c-1.9-3.1-2.9-6.7-2.9-10.3c0-4.5,1.5-8.7,4.1-12.1c3.7-4.8,9.4-7.9,15.9-7.9
				c3.8,0,7.3,1.1,10.3,2.9c5.8,3.5,9.6,9.8,9.6,17.1c0,3.7-1,7.2-2.9,10.3c-1.2,2-1.2,4.4-0.1,6.4c1.1,2,3.2,3.2,5.5,3.2h33.3
				L1062.7,321.5L1062.7,321.5z"/>
		</g>
	</g>
	<g>
		<g>
			<path class="st1" d="M1032,262.4h-23.2c-3.5,0-6.4,2.8-6.4,6.4c0,3.5,2.8,6.4,6.4,6.4h23.2c3.5,0,6.4-2.8,6.4-6.4
				C1038.4,265.2,1035.5,262.4,1032,262.4z"/>
		</g>
	</g>
	<g>
		<g>
			<path class="st1" d="M1032,285h-23.2c-3.5,0-6.4,2.8-6.4,6.4c0,3.5,2.8,6.4,6.4,6.4h23.2c3.5,0,6.4-2.8,6.4-6.4
				C1038.4,287.8,1035.5,285,1032,285z"/>
		</g>
	</g>
	<g>
		<g>
			<path class="st1" d="M1032,307.6h-23.2c-3.5,0-6.4,2.8-6.4,6.4c0,3.5,2.8,6.4,6.4,6.4h23.2c3.5,0,6.4-2.8,6.4-6.4
				C1038.4,310.4,1035.5,307.6,1032,307.6z"/>
		</g>
	</g>
	<g>
		<g>
			<path class="st1" d="M858.4,146.6h-23.2c-3.5,0-6.4,2.8-6.4,6.4c0,3.5,2.8,6.4,6.4,6.4h23.2c3.5,0,6.4-2.8,6.4-6.4
				C864.8,149.5,861.9,146.6,858.4,146.6z"/>
		</g>
	</g>
	<g>
		<g>
			<path class="st1" d="M858.4,169.2h-23.2c-3.5,0-6.4,2.8-6.4,6.4c0,3.5,2.8,6.4,6.4,6.4h23.2c3.5,0,6.4-2.8,6.4-6.4
				C864.8,172.1,861.9,169.2,858.4,169.2z"/>
		</g>
	</g>
</g>
<g>
	<g>
		<g>
			<path class="st0" d="M215,124h-23.2c-3.5,0-6.4,2.8-6.4,6.4c0,3.5,2.8,6.4,6.4,6.4H215c3.5,0,6.4-2.8,6.4-6.4
				C221.4,126.8,218.5,124,215,124z"/>
		</g>
	</g>
	<g>
		<g>
			<g>
				<path class="st2" d="M254.8,385.7l-11.3-42.1c-0.6-2.3-2.5-4.1-4.8-4.6s-4.8,0.4-6.3,2.3c-2.9,3.6-6.8,6.2-11.3,7.4
					c-6,1.6-12.4,0.6-17.6-2.9c-2.9-2-6.9-1.2-8.8,1.7c-2,2.9-1.2,6.9,1.7,8.8c8.2,5.5,18.4,7.2,28,4.6c3.4-0.9,6.5-2.3,9.4-4.1
					l7,26l-79.8,21.4c-9.6,2.6-19.6,1.3-28.2-3.7c-8.6-5-14.8-13-17.3-22.6l-21.4-79.8l20.9-5.6c3.4-0.9,5.4-4.4,4.5-7.8
					c-3-11.1,3.6-22.6,14.7-25.5c11.1-3,22.6,3.6,25.5,14.7c0.9,3.4,4.4,5.4,7.8,4.5l42.3-11.4l7.1,26.3c-3.4-0.1-6.8,0.3-10.2,1.2
					c-8.9,2.4-16.2,8.1-20.8,16c-4.6,7.9-5.8,17.2-3.4,26c0.9,3.4,4.4,5.4,7.8,4.5c3.4-0.9,5.4-4.4,4.5-7.8
					c-3.1-11.5,3.8-23.4,15.3-26.5c4.5-1.2,9.1-1,13.4,0.7c2.2,0.9,4.8,0.4,6.6-1.2c1.8-1.6,2.5-4.1,1.9-6.4l-11.4-42.4
					c-0.4-1.6-1.5-3-3-3.9c-1.5-0.8-3.2-1.1-4.8-0.6l-42.9,11.5c-6.9-14.2-23.1-22-38.9-17.7c-15.8,4.2-25.9,19.1-24.8,34.8
					l-21.4,5.8c-1.6,0.4-3,1.5-3.9,3c-0.8,1.5-1.1,3.2-0.6,4.8l23.1,85.9c3.5,12.9,11.7,23.6,23.3,30.3c7.7,4.4,16.2,6.7,24.8,6.7
					c4.3,0,8.7-0.6,13-1.7l85.9-23.1c1.6-0.4,3-1.5,3.9-3C255,389.1,255.3,387.4,254.8,385.7z"/>
			</g>
		</g>
		<g>
			<g>
				<path class="st0" d="M432,232.4v-49.8c0-3.5-2.8-6.4-6.4-6.4s-6.4,2.8-6.4,6.4v43.5h-23.9c0.5-2.4,0.8-4.8,0.8-7.3
					c0-11.3-5.7-21.2-14.4-27.1c-5.2-3.5-11.5-5.6-18.3-5.6c-10.7,0-20.2,5.2-26.2,13.1c-4.1,5.5-6.5,12.2-6.5,19.5
					c0,2.5,0.3,4.9,0.8,7.3h-32.1v-47.4c0-1.9-0.9-3.8-2.4-5c-1.1-0.9-2.5-1.4-4-1.4c-0.5,0-1,0.1-1.4,0.2c-1.4,0.3-2.9,0.5-4.3,0.5
					c-10.9,0-19.8-8.9-19.8-19.8c0-10.9,8.9-19.8,19.8-19.8c1.4,0,2.9,0.2,4.4,0.5c3.9,0.9,7.7-2.2,7.7-6.2v-21.3h82.6
					c20.5,0,37.2,16.7,37.2,37.2v16.2c0,3.5,2.8,6.4,6.4,6.4c3.5,0,6.4-2.8,6.4-6.4v-16.2c0-27.5-22.4-49.9-49.9-49.9h-89h-89
					c-27.5,0-49.9,22.4-49.9,49.9v43.7c0,3.5,2.8,6.4,6.4,6.4c3.5,0,6.4-2.8,6.4-6.4v-43.7c0-20.5,16.7-37.2,37.2-37.2h82.6v14.3
					c-16.6,0.3-30.2,13.1-31.8,29.3c-0.4,3.8-0.1,7.6,0.8,11.3c3.5,13.9,16,24.2,30.9,24.5v40.4h-38c-3-15.5-16.6-27.2-33-27.2
					s-30,11.7-33,27.2H167v-16.4c0-3.5-2.8-6.4-6.4-6.4c-3.5,0-6.4,2.8-6.4,6.4v22.7c0,3.5,2.8,6.4,6.4,6.4h27.9
					c3.5,0,6.4-2.8,6.4-6.4c0-11.5,9.4-20.8,20.8-20.8s20.8,9.3,20.8,20.8c0,3.5,2.8,6.4,6.4,6.4h43.8v27.2c-3.3-1-6.7-1.5-10.2-1.5
					c-18.9,0-34.3,15.4-34.3,34.3s15.4,34.3,34.3,34.3c3.5,0,6.9-0.5,10.2-1.5V365c0,3.5,2.8,6.4,6.4,6.4h89
					c27.5,0,49.9-22.4,49.9-49.9L432,232.4C432,232.5,432,232.4,432,232.4z M419.3,321.5c0,20.5-16.7,37.2-37.2,37.2h-82.6v-37.2
					c0-2.4-1.3-4.6-3.5-5.7c-2.1-1.1-4.7-0.9-6.6,0.6c-3.7,2.7-8.1,4.2-12.8,4.2c-11.9,0-21.6-9.7-21.6-21.6
					c0-11.9,9.7-21.6,21.6-21.6c4.6,0,9.1,1.4,12.8,4.2c1.9,1.4,4.5,1.6,6.6,0.6c2.1-1.1,3.5-3.3,3.5-5.7v-37.5H341
					c2.3,0,4.4-1.2,5.5-3.2c1.1-2,1.1-4.5-0.1-6.4c-1.9-3.1-2.9-6.7-2.9-10.3c0-4.5,1.5-8.7,4.1-12.1c3.7-4.8,9.4-7.9,15.9-7.9
					c3.8,0,7.3,1.1,10.3,2.9c5.8,3.5,9.6,9.8,9.6,17.1c0,3.7-1,7.2-2.9,10.3c-1.2,2-1.2,4.4-0.1,6.4c1.1,2,3.2,3.2,5.5,3.2h33.3
					L419.3,321.5L419.3,321.5z"/>
			</g>
		</g>
		<g>
			<g>
				<path class="st0" d="M388.6,262.4h-23.2c-3.5,0-6.4,2.8-6.4,6.4c0,3.5,2.8,6.4,6.4,6.4h23.2c3.5,0,6.4-2.8,6.4-6.4
					C395,265.2,392.1,262.4,388.6,262.4z"/>
			</g>
		</g>
		<g>
			<g>
				<path class="st0" d="M388.6,285h-23.2c-3.5,0-6.4,2.8-6.4,6.4c0,3.5,2.8,6.4,6.4,6.4h23.2c3.5,0,6.4-2.8,6.4-6.4
					C395,287.8,392.1,285,388.6,285z"/>
			</g>
		</g>
		<g>
			<g>
				<path class="st0" d="M388.6,307.6h-23.2c-3.5,0-6.4,2.8-6.4,6.4c0,3.5,2.8,6.4,6.4,6.4h23.2c3.5,0,6.4-2.8,6.4-6.4
					C395,310.4,392.1,307.6,388.6,307.6z"/>
			</g>
		</g>
		<g>
			<g>
				<path class="st0" d="M215,146.6h-23.2c-3.5,0-6.4,2.8-6.4,6.4c0,3.5,2.8,6.4,6.4,6.4H215c3.5,0,6.4-2.8,6.4-6.4
					C221.4,149.5,218.5,146.6,215,146.6z"/>
			</g>
		</g>
		<g>
			<g>
				<path class="st0" d="M215,169.2h-23.2c-3.5,0-6.4,2.8-6.4,6.4c0,3.5,2.8,6.4,6.4,6.4H215c3.5,0,6.4-2.8,6.4-6.4
					S218.5,169.2,215,169.2z"/>
			</g>
		</g>
	</g>
</g>
</svg>
