<?xml version="1.0" encoding="utf-8"?>
<!-- Generator: Adobe Illustrator 26.0.3, SVG Export Plug-In . SVG Version: 6.00 Build 0)  -->
<svg version="1.1" id="Capa_1" xmlns="http://www.w3.org/2000/svg" xmlns:xlink="http://www.w3.org/1999/xlink" x="0px" y="0px"
	 viewBox="0 0 512 512" style="enable-background:new 0 0 512 512;" xml:space="preserve">
<style type="text/css">
	.st0{fill:#0F2132;}
	.st1{fill:#FFFFFF;}
</style>
<g>
	<rect y="-0.7" class="st0" width="512" height="513.4"/>
	<g>
		<g>
			<g>
				<path class="st1" d="M409.8,134.1c-1.4-1.4-3.2-2.2-5.1-2.2c-1.9,0-3.8,0.8-5.1,2.2c-1.4,1.4-2.1,3.2-2.1,5.1
					c0,1.9,0.8,3.8,2.1,5.1c1.4,1.4,3.2,2.1,5.1,2.1c1.9,0,3.8-0.8,5.1-2.1c1.4-1.4,2.1-3.2,2.1-5.1
					C411.9,137.3,411.2,135.5,409.8,134.1z"/>
			</g>
		</g>
		<g>
			<g>
				<path class="st1" d="M243,305.1c-1.4-1.4-3.2-2.2-5.1-2.2c-1.9,0-3.8,0.8-5.1,2.2c-1.4,1.4-2.1,3.2-2.1,5.1
					c0,1.9,0.8,3.8,2.1,5.1c1.4,1.4,3.2,2.1,5.1,2.1c1.9,0,3.8-0.8,5.1-2.1c1.4-1.4,2.1-3.2,2.1-5.1
					C245.2,308.4,244.4,306.5,243,305.1z"/>
			</g>
		</g>
		<g>
			<g>
				<path class="st1" d="M427.4,158.2c-2-3.5-6.4-4.7-9.9-2.7c-3.5,2-4.7,6.4-2.7,9.9c21.6,37.9,15.1,86-15.8,116.9l-5.5,5.5
					c-1.4-3.5-3.4-6.7-6.2-9.6l-74.6-74.6c4.9-2.4,9.4-5.6,13.3-9.6l14.3-14.3c2.8-2.8,2.8-7.5,0-10.3c-2.8-2.8-7.5-2.8-10.3,0
					l-14.3,14.3c-6.7,6.7-15.7,10.4-25.1,10.4H262c-1.9,0-3.8,0.8-5.1,2.1l-21.9,21.9c-6.5,6.5-17.1,6.5-23.6,0
					c-6.5-6.5-6.5-17.1,0-23.6l50-50c30.5-30.5,78.2-37.3,116-16.3c3.5,1.9,8,0.6,9.9-2.8c1.9-3.5,0.6-8-2.8-9.9
					c-20.8-11.6-45.4-16.1-69.1-13c-22.2,3-42.5,12.3-59.2,27c-20.5-18.2-46.5-28.1-74.1-28.1c-29.9,0-58,11.6-79.1,32.8
					s-32.7,49.2-32.7,79.1s11.6,58,32.8,79.1l2.7,2.7c0.5,0.5,1,0.9,1.5,1.2c0.5,6.3,3.1,12.4,8,17.2c5.3,5.3,12.4,8,19.4,8
					c0.4,0,0.7,0,1.1,0c0,0.4,0,0.7,0,1.1c0,7.3,2.8,14.2,8,19.4c5.3,5.3,12.4,8,19.4,8c0.4,0,0.7,0,1.1,0c0,0.4,0,0.7,0,1.1
					c0,7.3,2.8,14.2,8,19.4c5.3,5.3,12.4,8,19.4,8c0.4,0,0.7,0,1.1,0c-0.3,7.4,2.3,14.9,8,20.5c5.1,5.1,12,8,19.4,8s14.2-2.8,19.4-8
					l10.1-10.1l13.7,13.7c5.1,5.1,12,8,19.4,8s14.2-2.8,19.4-8c5.7-5.7,8.4-13.3,8-20.7c0.5,0,0.9,0,1.4,0c7,0,14.1-2.7,19.4-8
					c5.6-5.6,8.3-13.1,8-20.5c0.4,0,0.7,0,1.1,0c7.3,0,14.2-2.8,19.4-8c5.6-5.6,8.3-13.1,8-20.5c0.4,0,0.7,0,1.1,0
					c7.3,0,14.2-2.8,19.4-8c2.7-2.7,4.6-5.6,5.9-8.9c0.7-0.3,1.4-0.8,1.9-1.4l14.1-14.1C444.8,257.1,452.2,201.8,427.4,158.2z
					 M134.5,307.1c-3.5,0-6.7-1.4-9.1-3.8c-2.4-2.4-3.8-5.6-3.8-9.1s1.4-6.7,3.8-9.1l12.5-12.5c2.4-2.4,5.6-3.8,9.1-3.8
					s6.7,1.4,9.1,3.8c5,5,5,13.2,0,18.2l-12.5,12.5C141.1,305.8,137.9,307.1,134.5,307.1z M153.8,331.8c-2.4-2.4-3.8-5.6-3.8-9.1
					s1.4-6.7,3.8-9.1l12.5-12.5l0,0c2.4-2.4,5.6-3.8,9.1-3.8s6.7,1.4,9.1,3.8c5,5,5,13.2,0,18.2l-12.5,12.5
					C166.9,336.8,158.8,336.8,153.8,331.8z M182.3,360.3c-2.4-2.4-3.8-5.6-3.8-9.1s1.4-6.7,3.8-9.1l12.5-12.5l0,0
					c2.4-2.4,5.6-3.8,9.1-3.8c3.5,0,6.7,1.4,9.1,3.8c5,5,5,13.2,0,18.2l-12.5,12.5C195.4,365.3,187.3,365.3,182.3,360.3z
					 M241.3,376.2l-12.5,12.5c-2.4,2.4-5.6,3.8-9.1,3.8s-6.7-1.4-9.1-3.8c-5-5-5-13.2,0-18.2l12.5-12.5l0,0c2.4-2.4,5.6-3.8,9.1-3.8
					s6.7,1.4,9.1,3.8c2.4,2.4,3.8,5.6,3.8,9.1C245.1,370.5,243.8,373.8,241.3,376.2z M377,306.7c-2.4,2.4-5.6,3.8-9.1,3.8
					s-6.7-1.4-9.1-3.8l-30.2-30.2l0,0L300.1,248c-2.8-2.8-7.5-2.8-10.3,0c-2.8,2.8-2.8,7.5,0,10.3l58.6,58.6c5,5,5,13.2,0,18.2
					c-2.4,2.4-5.6,3.8-9.1,3.8c-3.5,0-6.7-1.4-9.1-3.8l-58.6-58.6c-2.8-2.8-7.5-2.8-10.3,0c-2.8,2.8-2.8,7.5,0,10.3l28.4,28.4l0,0
					l30.2,30.2c5,5,5,13.2,0,18.2c-5,5-13.2,5-18.2,0l-30.2-30.2c-0.6-0.6-1.2-1-1.8-1.4l-8.6-8.6c-2.8-2.8-7.5-2.8-10.3,0
					c-2.8,2.8-2.8,7.5,0,10.3l40.5,40.5c5,5,5,13.2,0,18.2c-2.4,2.4-5.6,3.8-9.1,3.8s-6.7-1.4-9.1-3.8l-15.4-15.4
					c1.2-3.1,1.8-6.3,1.8-9.8c0-7.3-2.8-14.2-8-19.4c-5.1-5.1-12-8-19.4-8c-0.4,0-0.7,0-1.1,0c0.3-7.4-2.3-14.9-8-20.5
					c-5.1-5.1-12-8-19.4-8c-0.4,0-0.7,0-1.1,0c0.3-7.4-2.3-14.9-8-20.5c-5.1-5.1-12-8-19.4-8c-0.4,0-0.7,0-1.1,0
					c0.3-7.4-2.3-14.9-8-20.5c-10.7-10.7-28-10.7-38.7,0l-12.4,12.8c-1.6,1.6-2.9,3.3-4,5.1c-17-18.2-26.4-41.7-26.4-66.7
					c0-26,10.1-50.4,28.5-68.8S156,116,182,116c23.6,0,45.9,8.4,63.6,23.7L201,184.4c-5.9,5.9-9.2,13.7-9.2,22.1
					c0,8.4,3.2,16.1,9.2,22.1c6.1,6.1,14.1,9.2,22.1,9.2c8,0,16-3.1,22.1-9.2l19.8-19.8h25.6c2.1,0,4.2-0.2,6.3-0.4l80.2,80.2
					C381.9,293.5,381.9,301.6,377,306.7z"/>
			</g>
		</g>
	</g>
</g>
<g>
	<g>
		<g>
			<path class="st0" d="M-211,133.8c-1.4-1.4-3.2-2.2-5.1-2.2s-3.8,0.8-5.1,2.2c-1.4,1.4-2.1,3.2-2.1,5.1s0.8,3.8,2.1,5.1
				c1.4,1.4,3.2,2.1,5.1,2.1s3.8-0.8,5.1-2.1c1.4-1.4,2.1-3.2,2.1-5.1S-209.7,135.2-211,133.8z"/>
		</g>
	</g>
	<g>
		<g>
			<path class="st0" d="M-377.9,304.9c-1.4-1.4-3.2-2.2-5.1-2.2c-1.9,0-3.8,0.8-5.1,2.2s-2.1,3.2-2.1,5.1c0,1.9,0.8,3.8,2.1,5.1
				c1.4,1.4,3.2,2.1,5.1,2.1c1.9,0,3.8-0.8,5.1-2.1c1.4-1.4,2.1-3.2,2.1-5.1C-375.8,308.2-376.5,306.3-377.9,304.9z"/>
		</g>
	</g>
	<g>
		<g>
			<path class="st0" d="M-193.4,157.9c-2-3.5-6.4-4.7-9.9-2.7s-4.7,6.4-2.7,9.9c21.6,37.9,15.1,86.1-15.8,117l-5.5,5.5
				c-1.4-3.5-3.4-6.8-6.2-9.6l-74.7-74.7c4.9-2.4,9.4-5.6,13.3-9.6l14.3-14.3c2.8-2.8,2.8-7.5,0-10.3c-2.8-2.8-7.5-2.8-10.3,0
				l-14.3,14.3c-6.8,6.8-15.7,10.4-25.2,10.4h-28.6c-1.9,0-3.8,0.8-5.1,2.1l-22,21.9c-6.5,6.5-17.1,6.5-23.6,0
				c-6.5-6.5-6.5-17.1,0-23.6l50.1-50.1c30.5-30.5,78.3-37.3,116.1-16.3c3.5,1.9,8,0.6,9.9-2.8c1.9-3.5,0.6-8-2.8-9.9
				c-20.8-11.6-45.4-16.2-69.1-13c-22.2,3-42.5,12.3-59.2,27c-20.5-18.2-46.5-28-74.2-28c-29.9,0-58,11.7-79.2,32.8
				s-32.8,49.3-32.8,79.2s11.7,58,32.8,79.2l2.7,2.7c0.5,0.5,1,0.9,1.5,1.2c0.5,6.3,3.1,12.5,8,17.2c5.3,5.3,12.4,8,19.4,8
				c0.4,0,0.7,0,1.1,0c0,0.4,0,0.7,0,1.1c0,7.3,2.8,14.2,8,19.4c5.3,5.3,12.4,8,19.4,8c0.4,0,0.7,0,1.1,0c0,0.4,0,0.7,0,1.1
				c0,7.3,2.8,14.2,8,19.4c5.3,5.3,12.4,8,19.4,8c0.4,0,0.7,0,1.1,0c-0.3,7.4,2.3,14.9,8,20.5c5.1,5.1,12.1,8,19.4,8
				s14.2-2.8,19.4-8l10.1-10.1l13.7,13.7c5.1,5.1,12.1,8,19.4,8c7.3,0,14.2-2.8,19.4-8c5.7-5.7,8.4-13.3,8-20.7c0.5,0,0.9,0,1.4,0
				c7,0,14.1-2.7,19.4-8c5.6-5.6,8.3-13.1,8-20.5c0.4,0,0.7,0,1.1,0c7.3,0,14.2-2.8,19.4-8c5.6-5.6,8.3-13.1,8-20.5
				c0.4,0,0.7,0,1.1,0c7.3,0,14.2-2.8,19.4-8c2.7-2.7,4.6-5.6,5.9-8.9c0.7-0.3,1.4-0.8,1.9-1.4l14.1-14.1
				C-176.1,256.8-168.6,201.6-193.4,157.9z M-486.6,306.9c-3.5,0-6.7-1.4-9.1-3.8c-2.4-2.4-3.8-5.6-3.8-9.1s1.4-6.7,3.8-9.1
				l12.5-12.5c2.4-2.4,5.6-3.8,9.1-3.8c3.5,0,6.7,1.4,9.1,3.8c5,5,5,13.2,0,18.2l-12.5,12.5C-479.9,305.6-483.1,306.9-486.6,306.9z
				 M-467.2,331.6c-2.4-2.4-3.8-5.6-3.8-9.1s1.4-6.7,3.8-9.1l12.5-12.5l0,0c2.4-2.4,5.6-3.8,9.1-3.8c3.5,0,6.7,1.4,9.1,3.8
				c5,5,5,13.2,0,18.2l-12.5,12.5C-454,336.7-462.1,336.7-467.2,331.6z M-438.7,360.1c-2.4-2.4-3.8-5.6-3.8-9.1s1.4-6.7,3.8-9.1
				l12.5-12.5l0,0c2.4-2.4,5.6-3.8,9.1-3.8s6.7,1.4,9.1,3.8c5,5,5,13.2,0,18.2l-12.5,12.5C-425.6,365.1-433.7,365.1-438.7,360.1z
				 M-379.6,376l-12.5,12.5c-2.4,2.4-5.6,3.8-9.1,3.8c-3.5,0-6.7-1.4-9.1-3.8c-5-5-5-13.2,0-18.2l12.5-12.5l0,0
				c2.4-2.4,5.6-3.8,9.1-3.8c3.5,0,6.7,1.4,9.1,3.8c2.4,2.4,3.8,5.6,3.8,9.1C-375.8,370.3-377.2,373.6-379.6,376z M-243.8,306.5
				c-2.4,2.4-5.6,3.8-9.1,3.8s-6.7-1.4-9.1-3.8l-30.2-30.2l0,0l-28.5-28.5c-2.8-2.8-7.5-2.8-10.3,0c-2.8,2.8-2.8,7.5,0,10.3
				l58.7,58.7c5,5,5,13.2,0,18.2c-2.4,2.4-5.6,3.8-9.1,3.8s-6.7-1.4-9.1-3.8l-58.7-58.7c-2.8-2.8-7.5-2.8-10.3,0
				c-2.8,2.8-2.8,7.5,0,10.3L-331,315l0,0l30.2,30.2c5,5,5,13.2,0,18.2c-5,5-13.2,5-18.2,0l-30.2-30.2c-0.6-0.6-1.2-1-1.8-1.4
				l-8.6-8.6c-2.8-2.8-7.5-2.8-10.3,0c-2.8,2.8-2.8,7.5,0,10.3l40.4,40.5c5,5,5,13.2,0,18.2c-2.4,2.4-5.6,3.8-9.1,3.8
				c-3.5,0-6.7-1.4-9.1-3.8l-15.4-15.4c1.2-3.1,1.8-6.3,1.8-9.8c0-7.3-2.8-14.2-8-19.4c-5.1-5.1-12.1-8-19.4-8c-0.4,0-0.7,0-1.1,0
				c0.3-7.4-2.3-14.9-8-20.5c-5.1-5.1-12.1-8-19.4-8c-0.4,0-0.7,0-1.1,0c0.3-7.4-2.3-14.9-8-20.5c-5.1-5.1-12.1-8-19.4-8
				c-0.4,0-0.7,0-1.1,0c0.3-7.4-2.3-14.9-8-20.5c-10.7-10.7-28-10.7-38.7,0l-12.5,12.5c-1.6,1.6-2.9,3.3-4,5.1
				c-17-18.2-26.4-41.7-26.4-66.7c0-26,10.1-50.5,28.5-68.9c18.4-18.4,42.8-28.5,68.9-28.5c23.6,0,46,8.4,63.7,23.7l-44.7,44.7
				c-5.9,5.9-9.2,13.7-9.2,22.1s3.2,16.2,9.2,22.1c6.1,6.1,14.1,9.2,22.1,9.2c8,0,16-3.1,22.1-9.2l19.8-19.8h25.6
				c2.1,0,4.2-0.2,6.3-0.4l80.2,80.2C-238.9,293.3-238.9,301.4-243.8,306.5z"/>
		</g>
	</g>
</g>
</svg>
