<?xml version="1.0" encoding="utf-8"?>
<!-- Generator: Adobe Illustrator 26.0.3, SVG Export Plug-In . SVG Version: 6.00 Build 0)  -->
<svg version="1.1" id="_x31_px" xmlns="http://www.w3.org/2000/svg" xmlns:xlink="http://www.w3.org/1999/xlink" x="0px" y="0px"
	 viewBox="0 0 512 512" style="enable-background:new 0 0 512 512;" xml:space="preserve">
<style type="text/css">
	.st0{fill:#FFFFFF;}
	.st1{fill:#0F2132;}
	.st2{fill:#E65400;}
</style>
<rect x="-652.6" class="st0" width="512" height="512"/>
<rect y="-0.7" class="st1" width="512" height="513.4"/>
<g>
	<path class="st0" d="M256,256c-0.8,0-1.7-0.2-2.6-0.5l-140.7-51.8c-2.9-1.1-4.8-3.8-4.8-6.9s1.9-5.9,4.8-6.9l96.3-35.4
		c3.8-1.4,8.1,0.6,9.5,4.4c1.4,3.8-0.6,8.1-4.4,9.5l-77.4,28.4L256,240.7l119.2-43.9l-77.4-28.5c-3.8-1.4-5.8-5.7-4.4-9.5
		c1.4-3.8,5.7-5.8,9.5-4.4l96.3,35.4c2.9,1.1,4.8,3.8,4.8,7c0,3.1-1.9,5.9-4.8,6.9l-140.7,51.8C257.7,255.8,256.8,256,256,256z"/>
	<path class="st0" d="M256,433.7c-0.8,0-1.7-0.2-2.6-0.5l-78.6-28.9c-3.8-1.4-5.8-5.7-4.4-9.5c1.4-3.8,5.7-5.8,9.5-4.4l76.1,28.1
		l76.1-27.9c3.8-1.4,8.1,0.6,9.5,4.4c1.4,3.8-0.6,8.1-4.4,9.5l-78.6,28.9C257.7,433.6,256.8,433.7,256,433.7z"/>
	<path class="st0" d="M115.3,341.3c-4.1,0-7.4-3.3-7.4-7.4V196.8c0-4.1,3.3-7.4,7.4-7.4c4.1,0,7.4,3.3,7.4,7.4v137.1
		C122.7,338,119.4,341.3,115.3,341.3z"/>
	<path class="st0" d="M396.7,341.3c-4.1,0-7.4-3.3-7.4-7.4V196.8c0-4.1,3.3-7.4,7.4-7.4s7.4,3.3,7.4,7.4v137.1
		C404.1,338,400.8,341.3,396.7,341.3z"/>
	<path class="st0" d="M256,196.8c-4.1,0-7.4-3.3-7.4-7.4v-59.2c0-4.1,3.3-7.4,7.4-7.4s7.4,3.3,7.4,7.4v59.2
		C263.4,193.4,260.1,196.8,256,196.8z"/>
	<path class="st0" d="M388.4,395.8c-1.9,0-3.8-0.7-5.2-2.2L347,357.5c-2.9-2.9-2.9-7.6,0-10.5c2.9-2.9,7.6-2.9,10.5,0l36.2,36.2
		c2.9,2.9,2.9,7.6,0,10.5C392.2,395.1,390.3,395.8,388.4,395.8z"/>
	<path class="st0" d="M123.6,395.8c-1.9,0-3.8-0.7-5.2-2.2c-2.9-2.9-2.9-7.6,0-10.5l36.2-36.2c2.9-2.9,7.6-2.9,10.5,0
		s2.9,7.6,0,10.5l-36.2,36.2C127.4,395.1,125.4,395.8,123.6,395.8z"/>
	<path class="st0" d="M256,433.7c-4.1,0-7.4-3.3-7.4-7.4V248.6c0-4.1,3.3-7.4,7.4-7.4s7.4,3.3,7.4,7.4v177.7
		C263.4,430.5,260.1,433.7,256,433.7z"/>
	<path class="st2" d="M256,137.5c-16.3,0-29.7-13.2-29.7-29.7s13.2-29.7,29.7-29.7s29.7,13.2,29.7,29.7S272.3,137.5,256,137.5z
		 M256,93c-8.2,0-14.8,6.7-14.8,14.8s6.7,14.8,14.8,14.8c8.2,0,14.8-6.7,14.8-14.8S264.2,93,256,93z"/>
	<path class="st2" d="M404.1,433.7c-16.3,0-29.7-13.2-29.7-29.7c0-16.3,13.2-29.7,29.7-29.7c16.3,0,29.7,13.2,29.7,29.7
		C433.7,420.5,420.5,433.7,404.1,433.7z M404.1,389.3c-8.2,0-14.8,6.7-14.8,14.8c0,8.2,6.7,14.8,14.8,14.8s14.8-6.7,14.8-14.8
		C419,396,412.3,389.3,404.1,389.3z"/>
	<path class="st2" d="M107.9,433.7c-16.3,0-29.7-13.2-29.7-29.7c0-16.3,13.2-29.7,29.7-29.7s29.7,13.2,29.7,29.7
		C137.5,420.5,124.2,433.7,107.9,433.7z M107.9,389.3c-8.2,0-14.8,6.7-14.8,14.8c0,8.2,6.7,14.8,14.8,14.8s14.8-6.7,14.8-14.8
		C122.7,396,116,389.3,107.9,389.3z"/>
</g>
<g>
	<path class="st1" d="M-396.6,256c-0.8,0-1.7-0.2-2.6-0.5l-140.7-51.8c-2.9-1.1-4.8-3.8-4.8-6.9s1.9-5.9,4.8-6.9l96.3-35.4
		c3.8-1.4,8.1,0.6,9.5,4.4c1.4,3.8-0.6,8.1-4.4,9.5l-77.4,28.4l119.2,43.9l119.2-43.9l-77.4-28.5c-3.8-1.4-5.8-5.7-4.4-9.5
		s5.7-5.8,9.5-4.4l96.3,35.4c2.9,1.1,4.8,3.8,4.8,7c0,3.1-1.9,5.9-4.8,6.9l-140.7,51.8C-394.9,255.9-395.7,256-396.6,256z"/>
	<path class="st1" d="M-396.6,433.8c-0.8,0-1.7-0.2-2.6-0.5l-78.6-28.9c-3.8-1.4-5.8-5.7-4.4-9.5s5.7-5.8,9.5-4.4l76.1,27.9
		l76.1-27.9c3.8-1.4,8.1,0.6,9.5,4.4c1.4,3.8-0.6,8.1-4.4,9.5l-78.6,28.9C-394.9,433.7-395.7,433.8-396.6,433.8z"/>
	<path class="st1" d="M-537.3,341.4c-4.1,0-7.4-3.3-7.4-7.4V196.8c0-4.1,3.3-7.4,7.4-7.4s7.4,3.3,7.4,7.4v137.1
		C-529.9,338-533.2,341.4-537.3,341.4z"/>
	<path class="st1" d="M-255.9,341.4c-4.1,0-7.4-3.3-7.4-7.4V196.8c0-4.1,3.3-7.4,7.4-7.4s7.4,3.3,7.4,7.4v137.1
		C-248.5,338-251.8,341.4-255.9,341.4z"/>
	<path class="st1" d="M-396.6,196.8c-4.1,0-7.4-3.3-7.4-7.4v-59.2c0-4.1,3.3-7.4,7.4-7.4s7.4,3.3,7.4,7.4v59.2
		C-389.2,193.5-392.5,196.8-396.6,196.8z"/>
	<path class="st1" d="M-264.2,395.8c-1.9,0-3.8-0.7-5.2-2.2l-36.2-36.2c-2.9-2.9-2.9-7.6,0-10.5s7.6-2.9,10.5,0l36.2,36.2
		c2.9,2.9,2.9,7.6,0,10.5C-260.4,395.2-262.3,395.8-264.2,395.8z"/>
	<path class="st1" d="M-529,395.8c-1.9,0-3.8-0.7-5.2-2.2c-2.9-2.9-2.9-7.6,0-10.5l36.2-36.2c2.9-2.9,7.6-2.9,10.5,0
		c2.9,2.9,2.9,7.6,0,10.5l-36.2,36.2C-525.2,395.2-527.1,395.8-529,395.8z"/>
	<path class="st1" d="M-396.6,433.8c-4.1,0-7.4-3.3-7.4-7.4V248.6c0-4.1,3.3-7.4,7.4-7.4s7.4,3.3,7.4,7.4v177.7
		C-389.2,430.5-392.5,433.8-396.6,433.8z"/>
	<path class="st2" d="M-396.6,137.6c-16.3,0-29.7-13.2-29.7-29.7s13.2-29.7,29.7-29.7c16.4,0,29.7,13.2,29.7,29.7
		S-380.2,137.6-396.6,137.6z M-396.6,93.1c-8.2,0-14.8,6.7-14.8,14.8s6.7,14.8,14.8,14.8c8.2,0,14.8-6.7,14.8-14.8
		S-388.4,93.1-396.6,93.1z"/>
	<path class="st2" d="M-248.5,433.8c-16.3,0-29.7-13.2-29.7-29.7c0-16.3,13.2-29.7,29.7-29.7s29.7,13.2,29.7,29.7
		S-232.2,433.8-248.5,433.8z M-248.5,389.3c-8.2,0-14.8,6.7-14.8,14.8c0,8.2,6.7,14.8,14.8,14.8s14.8-6.7,14.8-14.8
		C-233.7,396-240.3,389.3-248.5,389.3z"/>
	<path class="st2" d="M-544.7,433.8c-16.3,0-29.7-13.2-29.7-29.7c0-16.3,13.2-29.7,29.7-29.7s29.7,13.2,29.7,29.7
		C-515.1,420.5-528.4,433.8-544.7,433.8z M-544.7,389.3c-8.2,0-14.8,6.7-14.8,14.8c0,8.2,6.7,14.8,14.8,14.8s14.8-6.7,14.8-14.8
		C-529.9,396-536.5,389.3-544.7,389.3z"/>
</g>
</svg>
