<?xml version="1.0" encoding="utf-8"?>
<!-- Generator: Adobe Illustrator 26.0.3, SVG Export Plug-In . SVG Version: 6.00 Build 0)  -->
<svg version="1.1"
	 id="Layer_1" image-rendering="optimizeQuality" text-rendering="geometricPrecision" shape-rendering="geometricPrecision"
	 xmlns="http://www.w3.org/2000/svg" xmlns:xlink="http://www.w3.org/1999/xlink" x="0px" y="0px" viewBox="0 0 512 512"
	 style="enable-background:new 0 0 512 512;" xml:space="preserve">
<style type="text/css">
	.st0{fill-rule:evenodd;clip-rule:evenodd;fill:#FFFFFF;}
	.st1{fill:#0F2132;}
	.st2{fill-rule:evenodd;clip-rule:evenodd;fill:#0F2132;}
	.st3{fill-rule:evenodd;clip-rule:evenodd;fill:#E65400;}
</style>
<rect x="-649.5" y="-0.7" class="st0" width="512" height="512"/>
<rect y="-0.7" class="st1" width="512" height="513.4"/>
<g>
	<g>
		<path class="st2" d="M-394,450.6c-0.8,0-0.8,0-1.1,0c-46.9-4.5-84.3-24.6-112.2-58.9c-73.3-92.6-53.3-256.6-52.5-263.4
			c0.8-4.2,4.5-7.2,8.7-7.9C-429.8,110.2-403,67.5-401.8,66c0.4-1.5,1.9-2.6,3.8-3.4c4.2-2.6,9.8-0.8,12.5,3.4
			c0.4,1.1,27.2,44.2,150,54.4c4.2,0.8,7.6,3.8,8.3,7.9c0.8,6.8,20.8,170.8-52.5,263.4c-27.6,34.8-66.1,54.8-112.6,58.9
			C-393.7,450.6-393.7,450.6-394,450.6z M-542.5,138.5c-3,32.5-11,165.9,49.5,241.5c24.6,31,57.4,48.4,99,52.5
			c41.2-4.2,74.8-22.3,99-52.5c60.1-75.6,52.1-209,49.1-241.5c-93.7-9.4-133.4-37.8-148.1-52.9
			C-409.5,100.7-448.8,129.1-542.5,138.5z"/>
	</g>
	<g>
		<path class="st2" d="M-394,403.4c-0.8,0-0.8,0-1.1,0c-35.5-3-63.9-18.1-85.4-45c-55.5-69.5-40.4-192.7-40.1-198
			c0.8-4.2,4.5-7.9,8.7-7.9c88.8-7.2,108.8-38.2,109.6-39.3c0.8-1.5,1.9-2.6,3.4-3.8c4.2-2.6,10.2-0.4,12.5,3.8
			c0.8,1.1,20.8,32.1,110.3,39.3c4.2,0.4,7.9,3.8,8.3,7.9c0.4,5.3,15.9,128.5-39.7,198c-21.5,26.8-50.6,41.9-85.8,45
			C-393.7,403.4-393.7,403.4-394,403.4z M-502.5,170.3c-2.3,27.2-6.8,122.8,36.7,177.2c17.8,22.7,41.9,35.1,71.8,38.2
			c29.9-3,54.4-15.5,72.2-38.2c43.5-54.4,38.9-150,36.7-177.2c-66.1-6.8-96.4-26.1-108.8-38.2C-406.9,144.2-436.7,163.5-502.5,170.3
			z"/>
	</g>
	<g>
		<path class="st3" d="M-413.7,319.1C-414.1,319.1-414.1,319.1-413.7,319.1c-2.6,0-4.9-1.1-6.8-2.6c-0.4-0.4-0.8-1.1-1.5-1.5
			l-47.2-47.2c-9.4-9.4-9.4-24.2,0-33.6c4.2-4.2,10.2-6.8,15.9-6.8c6.4,0,12.5,2.6,16.6,6.8l22.7,22.3l62.3-62
			c4.2-4.2,9.8-6.8,15.9-6.8c6,0,12.5,2.6,16.6,6.8c4.5,4.9,6.8,10.6,6.8,16.6c0,6.4-2.6,12.1-7.2,16.2l-86.2,87.7
			c-0.4,0.4-1.1,1.1-1.5,1.5C-408.8,318-411.4,319.1-413.7,319.1z M-453,245.8c-0.8,0-1.9,0-3,1.5c-2.3,2.3-2.3,5.7,0,7.9l42.3,41.9
			l82.4-82.4c1.1-1.1,1.5-2.6,1.5-3c0-1.1,0-2.3-1.5-3.8s-2.6-1.5-3.8-1.5c-0.8,0-1.9,0-3,1.5l-67.6,66.5c-0.4,0.8-1.1,1.1-1.5,1.5
			c-2.3,2.3-4.2,2.6-6.8,2.6s-4.5-0.8-6.8-2.6c-0.4-0.4-1.1-0.8-1.5-1.5l-27.2-26.5C-450.7,246.2-452.2,245.8-453,245.8z"/>
	</g>
</g>
<g>
	<g>
		<g>
			<path class="st0" d="M255.6,450.6c-0.8,0-0.8,0-1.1,0c-46.9-4.5-84.3-24.6-112.2-58.9C69,299.1,89,135.1,89.7,128.3
				c0.8-4.2,4.5-7.2,8.7-7.9C219.7,110.2,246.6,67.5,247.7,66c0.4-1.5,1.9-2.6,3.8-3.4c4.2-2.6,9.8-0.8,12.5,3.4
				c0.4,1.1,27.2,44.2,150,54.4c4.2,0.8,7.6,3.8,8.3,7.9c0.8,6.8,20.8,170.8-52.5,263.4c-27.6,34.8-66.1,54.8-112.6,58.9
				C256,450.6,256,450.6,255.6,450.6z M107.1,138.5c-3,32.5-11,165.9,49.5,241.5c24.6,31,57.4,48.4,99,52.5
				c41.2-4.2,74.8-22.3,99-52.5c60.1-75.6,52.1-209,49.1-241.5c-93.7-9.4-133.4-37.8-148.1-52.9
				C240.1,100.7,200.8,129.1,107.1,138.5z"/>
		</g>
		<g>
			<path class="st0" d="M255.6,403.4c-0.8,0-0.8,0-1.1,0c-35.5-3-63.9-18.1-85.4-45c-55.5-69.5-40.4-192.7-40.1-198
				c0.8-4.2,4.5-7.9,8.7-7.9c88.8-7.2,108.8-38.2,109.6-39.3c0.8-1.5,1.9-2.6,3.4-3.8c4.2-2.6,10.2-0.4,12.5,3.8
				c0.8,1.1,20.8,32.1,110.3,39.3c4.2,0.4,7.9,3.8,8.3,7.9c0.4,5.3,15.9,128.5-39.7,198c-21.5,26.8-50.6,41.9-85.8,45
				C256,403.4,256,403.4,255.6,403.4z M147.2,170.3c-2.3,27.2-6.8,122.8,36.7,177.2c17.8,22.7,41.9,35.1,71.8,38.2
				c29.9-3,54.4-15.5,72.2-38.2c43.5-54.4,38.9-150,36.7-177.2c-66.1-6.8-96.4-26.1-108.8-38.2C242.8,144.2,212.9,163.5,147.2,170.3
				z"/>
		</g>
	</g>
	<g>
		<path class="st3" d="M236,319.1C235.6,319.1,235.6,319.1,236,319.1c-2.6,0-4.9-1.1-6.8-2.6c-0.4-0.4-0.8-1.1-1.5-1.5l-47.2-47.2
			c-9.4-9.4-9.4-24.2,0-33.6c4.2-4.2,10.2-6.8,15.9-6.8c6.4,0,12.5,2.6,16.6,6.8l22.7,22.3l62.3-62c4.2-4.2,9.8-6.8,15.9-6.8
			c6,0,12.5,2.6,16.6,6.8c4.5,4.9,6.8,10.6,6.8,16.6c0,6.4-2.6,12.1-7.2,16.2L243.9,315c-0.4,0.4-1.1,1.1-1.5,1.5
			C240.9,318,238.2,319.1,236,319.1z M196.7,245.8c-0.8,0-1.9,0-3,1.5c-2.3,2.3-2.3,5.7,0,7.9l42.3,41.9l82.4-82.4
			c1.1-1.1,1.5-2.6,1.5-3c0-1.1,0-2.3-1.5-3.8s-2.6-1.5-3.8-1.5c-0.8,0-1.9,0-3,1.5L244,274.4c-0.4,0.8-1.1,1.1-1.5,1.5
			c-2.3,2.3-4.2,2.6-6.8,2.6s-4.5-0.8-6.8-2.6c-0.4-0.4-1.1-0.8-1.5-1.5l-27.2-26.5C198.9,246.2,197.4,245.8,196.7,245.8z"/>
	</g>
</g>
</svg>
