<svg xmlns="http://www.w3.org/2000/svg" width="71.494" height="60.292" viewBox="0 0 71.494 60.292">
  <g id="landing" transform="translate(-0.045 -40)">
    <path id="Path_148" data-name="Path 148" d="M23.153,292.168.634,315.08a1.117,1.117,0,1,0,1.593,1.565l22.519-22.912a1.116,1.116,0,1,0-1.592-1.565Z" transform="translate(-0.231 -216.687)" fill="#e65400"/>
    <path id="Path_149" data-name="Path 149" d="M249.43,301.654a1.117,1.117,0,0,0-1.117,1.117v.558a1.117,1.117,0,1,0,2.233,0v-.558A1.117,1.117,0,0,0,249.43,301.654Z" transform="translate(-213.618 -225.137)" fill="#e65400"/>
    <path id="Path_150" data-name="Path 150" d="M249.43,336.464a1.117,1.117,0,0,0-1.117,1.117v1.075a1.117,1.117,0,0,0,2.233,0v-1.075A1.117,1.117,0,0,0,249.43,336.464Z" transform="translate(-213.618 -255.088)" fill="#e65400"/>
    <path id="Path_151" data-name="Path 151" d="M249.43,374.976a1.117,1.117,0,0,0-1.117,1.117v1.075a1.117,1.117,0,0,0,2.233,0v-1.075A1.117,1.117,0,0,0,249.43,374.976Z" transform="translate(-213.618 -288.225)" fill="#e65400"/>
    <path id="Path_152" data-name="Path 152" d="M249.43,413.488a1.117,1.117,0,0,0-1.117,1.117v1.075a1.117,1.117,0,1,0,2.233,0V414.6A1.117,1.117,0,0,0,249.43,413.488Z" transform="translate(-213.618 -321.363)" fill="#e65400"/>
    <path id="Path_153" data-name="Path 153" d="M249.43,452a1.117,1.117,0,0,0-1.117,1.117v.558a1.117,1.117,0,1,0,2.233,0v-.558A1.117,1.117,0,0,0,249.43,452Z" transform="translate(-213.618 -354.5)" fill="#e65400"/>
    <path id="Path_154" data-name="Path 154" d="M336.875,292.168a1.116,1.116,0,1,0-1.592,1.565L357.8,316.645a1.117,1.117,0,0,0,1.593-1.565Z" transform="translate(-288.174 -216.688)" fill="#e65400"/>
    <path id="Path_155" data-name="Path 155" d="M217.094,142.553a1.116,1.116,0,0,0-.129-.9l-2.1-3.337a1.116,1.116,0,0,0-1.255-.479,15.156,15.156,0,0,1-8.126,0,1.116,1.116,0,0,0-1.255.479l-2.1,3.337a1.116,1.116,0,0,0,.452,1.6,16.727,16.727,0,0,0,13.924,0A1.117,1.117,0,0,0,217.094,142.553Zm-7.543-.018a14.479,14.479,0,0,1-4.826-.8l.964-1.535a17.575,17.575,0,0,0,7.723,0l.964,1.535A14.479,14.479,0,0,1,209.551,142.535Z" transform="translate(-173.74 -84.146)" fill="#0f2132"/>
    <path id="Path_156" data-name="Path 156" d="M2.138,64.27l7.637,1.34a5.175,5.175,0,0,0,9.943,1.743l3.772.662,4.157.729a11.591,11.591,0,0,0,16.337-.008l4.113-.721,3.772-.662a5.175,5.175,0,0,0,9.943-1.745l7.637-1.34a2.527,2.527,0,0,0-.437-5.016h-6.48a1.117,1.117,0,0,0,0,2.233h6.481a.294.294,0,0,1,.051.584l-7.626,1.338a5.174,5.174,0,0,0-9.965,1.747l-3.761.66-1.746.306a11.523,11.523,0,0,0,1.414-4.633h3.655a1.117,1.117,0,1,0,0-2.233H47.358A11.541,11.541,0,0,0,45.436,54h5.216a1.117,1.117,0,0,0,0-2.233H43.464a11.567,11.567,0,0,0-6.536-2.833V41.117a1.117,1.117,0,0,0-2.233,0v7.819a11.567,11.567,0,0,0-6.536,2.833h-6.93a1.117,1.117,0,0,0,0,2.233h4.957a11.541,11.541,0,0,0-1.921,5.252H20.552a1.117,1.117,0,1,0,0,2.233h3.691a11.524,11.524,0,0,0,1.418,4.641l-1.785-.313-3.761-.66a5.174,5.174,0,0,0-9.965-1.747L2.523,62.07a.294.294,0,0,1,.051-.584H9.055a1.117,1.117,0,0,0,0-2.233H2.574a2.527,2.527,0,0,0-.437,5.016Zm24.293-3.776a9.381,9.381,0,1,1,9.38,9.381,9.381,9.381,0,0,1-9.38-9.381Zm30.213,1.919A2.943,2.943,0,1,1,53.7,65.355a2.943,2.943,0,0,1,2.942-2.942Zm-41.7,0A2.943,2.943,0,1,1,12,65.355a2.943,2.943,0,0,1,2.942-2.943Z" transform="translate(0)" fill="#0f2132"/>
  </g>
</svg>
