<svg id="Group_71" data-name="Group 71" xmlns="http://www.w3.org/2000/svg" width="35.35" height="37.429" viewBox="0 0 35.35 37.429">
  <g id="Group_70" data-name="Group 70" transform="translate(0)">
    <path id="Path_101" data-name="Path 101" d="M128.217,154.857v-35.35a.982.982,0,0,0-1.04-1.04H93.907a.982.982,0,0,0-1.04,1.04v35.35a.982.982,0,0,0,1.04,1.04h33.271A.982.982,0,0,0,128.217,154.857Zm-2.079-1.04H94.946V120.546h31.191Z" transform="translate(-92.867 -118.467)" fill="#fff"/>
    <path id="Path_102" data-name="Path 102" d="M118.956,164.726l2.941,2.941a1,1,0,0,0,1.456,0,1,1,0,0,0,0-1.456L122,164.86h15.18v6.862l-1.352-1.352a1.029,1.029,0,0,0-1.456,1.456l2.941,2.941a1.082,1.082,0,0,0,1.811,0l2.941-2.941a1.029,1.029,0,0,0-1.456-1.456l-1.352,1.352V164.86h4.783l-1.352,1.352a1,1,0,0,0,0,1.456,1,1,0,0,0,1.456,0l2.941-2.941a.988.988,0,0,0,.49-.906h0a.988.988,0,0,0-.49-.906l-2.941-2.941a1.029,1.029,0,0,0-1.456,1.456l1.352,1.352H139.26V147.6l1.352,1.352a1,1,0,0,0,1.456,0,1,1,0,0,0,0-1.456l-2.941-2.941a1.082,1.082,0,0,0-1.811,0l-2.941,2.941a1.029,1.029,0,0,0,1.456,1.456l1.352-1.352v15.18H122l1.352-1.352a1.029,1.029,0,1,0-1.456-1.456l-2.941,2.941a1.082,1.082,0,0,0,0,1.811Z" transform="translate(-115.347 -140.947)" fill="#fff"/>
  </g>
</svg>
