<svg xmlns="http://www.w3.org/2000/svg" width="1083.86" height="128.022" viewBox="0 0 1083.86 128.022">
  <g id="Group_28" data-name="Group 28" transform="translate(1096.92 860.42)">
    <g id="Group_27" data-name="Group 27">
      <path id="Path_1" data-name="Path 1" d="M507.22,231.58v-9.62H430.26v9.62h76.96Z" transform="translate(-1096.92 -1024.84)" fill="#0f2132"/>
      <path id="Path_2" data-name="Path 2" d="M96.08,267.59c0-37.93,27.57-63.83,62.54-63.83,19.61,0,34.41,8.7,45,21.83l-8.88,5.74a44.9,44.9,0,0,0-36.08-18c-29.05,0-51.43,22-51.43,54.21,0,31.82,22.38,54.21,51.43,54.21,14.8,0,28.31-7.22,36.08-17.95l8.88,5.55c-10.92,13.51-25.35,22-45,22-35,0-62.54-25.9-62.54-63.83" transform="translate(-1193 -1064)" fill="#0f2132"/>
      <path id="Path_3" data-name="Path 3" d="M249.87,281.84v-76H260.6v75.85c0,25,13.13,40.15,37.37,40.15,24.42,0,37.37-15.17,37.37-40.15V205.8h10.73v76c0,30.52-16.28,49.58-48.1,49.58-31.64,0-48.1-19.24-48.1-49.58" transform="translate(-1193 -1064)" fill="#0f2132"/>
      <path id="Path_4" data-name="Path 4" d="M392.26,329.2V205.8H443c20.72,0,34,12,34,31.45,0,15.54-10.55,26.08-21.65,28.3,13.14,2,24,15.73,24,30.35,0,20.53-13.32,33.3-35.33,33.3Zm73.64-90.84c0-12.58-8.33-22.94-24.24-22.94H402.81v45.7h38.85c15.91,0,24.24-10,24.24-22.76m2.4,56.8c0-12.58-8.69-24.42-25.9-24.42H402.81v48.84H442.4c16.28,0,25.9-9.44,25.9-24.42" transform="translate(-1193 -1064)" fill="#0f2132"/>
      <path id="Path_5" data-name="Path 5" d="M652.46,329.2V205.8h39.4c38.3,0,62.35,27.93,62.35,61.79,0,34.23-24.05,61.61-62.35,61.61Zm90.65-61.61c0-28.86-18.5-52.17-51.25-52.17H663V319.58h28.86c32.56,0,51.25-23.13,51.25-52" transform="translate(-1193 -1064)" fill="#0f2132"/>
      <path id="Path_6" data-name="Path 6" d="M857.64,331.6a61.93,61.93,0,0,1-24.73-4.92,55,55,0,0,1-19-13.53c-10.59-11.59-16.42-27.77-16.42-45.56s5.83-34,16.42-45.56a54.889,54.889,0,0,1,19-13.53,64.44,64.44,0,0,1,49.39,0,55.209,55.209,0,0,1,19,13.53c10.64,11.61,16.49,27.8,16.49,45.56s-5.85,33.94-16.49,45.56a55.339,55.339,0,0,1-19,13.53,61.7,61.7,0,0,1-24.66,4.92m0-118c-29.11,0-48.66,21.71-48.66,54s19.55,54,48.66,54c28.65,0,48.67-22.22,48.67-54s-20-54-48.67-54" transform="translate(-1193 -1064)" fill="#e4540e"/>
      <path id="Path_7" data-name="Path 7" d="M900.22,290.04V176.26H859.89v-9.62h91.39v9.62H910.95V290.04Z" transform="translate(-1096.92 -1024.84)" fill="#0f2132"/>
      <path id="Path_8" data-name="Path 8" d="M1090.93,311.81l6.84-8a50.31,50.31,0,0,0,38.48,17.95c25.35,0,32.56-14.06,32.56-24.61,0-36.26-74-17.39-74-60.5,0-20.16,18.13-32.93,40.52-32.93,18.5,0,32.19,6.48,41.81,17.39l-7,7.77c-8.88-10.73-21.46-15.54-35.34-15.54-16.46,0-28.86,9.44-28.86,22.76,0,31.63,74,14.24,74,60.31,0,15.91-10.55,35-43.85,35-20.35,0-35.71-8.14-45.14-19.61" transform="translate(-1193 -1064)" fill="#0f2132"/>
      <path id="Path_9" data-name="Path 9" d="M430.26,280.42v9.62h78.26v-9.62H430.26Z" transform="translate(-1096.92 -1024.84)" fill="#0f2132"/>
      <path id="Path_10" data-name="Path 10" d="M430.26,166.64v9.62h78.26v-9.62Z" transform="translate(-1096.92 -1024.84)" fill="#0f2132"/>
    </g>
  </g>
</svg>
