<?xml version="1.0" encoding="utf-8"?>
<!-- Generator: Adobe Illustrator 25.0.0, SVG Export Plug-In . SVG Version: 6.00 Build 0)  -->
<svg version="1.1" id="Layer_1" xmlns="http://www.w3.org/2000/svg" xmlns:xlink="http://www.w3.org/1999/xlink" x="0px" y="0px"
	 viewBox="0 0 145.5 37.5" style="enable-background:new 0 0 145.5 37.5;" xml:space="preserve">
<style type="text/css">
	.st0{fill:#EA5F1C;}
	.st1{fill:#0F2132;}
</style>
<g>
	<path class="st0" d="M29.17,23.76c-0.71-0.34-1.55-0.08-2.02,0.55c-2.42,3.28-6.31,5.42-10.7,5.42c-7.4,0-13.38-6.06-13.27-13.48
		C3.29,9.26,8.9,3.49,15.87,3.2C20.5,3,24.63,5.17,27.16,8.6c0.46,0.63,1.31,0.89,2.02,0.54c0.9-0.44,1.17-1.58,0.59-2.38
		c-3.1-4.25-8.18-6.96-13.88-6.76C7.22,0.31,0.21,7.4,0,16.06c-0.22,9.27,7.23,16.85,16.45,16.85c5.47,0,10.31-2.67,13.31-6.77
		C30.34,25.34,30.07,24.2,29.17,23.76z"/>
	<g>
		<path class="st0" d="M22.53,12.75c0.77,1.26,1.16,2.78,1.01,4.39c-0.32,3.43-3.13,6.17-6.57,6.41c-4.16,0.3-7.64-3-7.64-7.1
			c0-1.34,0.37-2.6,1.02-3.67c0.38-0.63,0.31-1.44-0.22-1.96l-0.01-0.01c-0.73-0.73-1.96-0.59-2.49,0.3
			c-1.14,1.87-1.65,4.07-1.44,6.34c0.19,2,0.96,3.91,2.23,5.47c2.16,2.65,5.36,4.05,8.75,3.82c2.18-0.15,4.27-0.99,5.94-2.41
			c2.35-2,3.66-4.84,3.66-7.88c0-1.91-0.52-3.74-1.48-5.33c-0.54-0.89-1.77-1.05-2.5-0.31l0,0C22.27,11.33,22.15,12.13,22.53,12.75z
			"/>
	</g>
	<circle class="st1" cx="16.45" cy="16.42" r="4.15"/>
	<g>
		<path class="st1" d="M22.9,36.4L22.9,36.4c0.29,0.88,1.27,1.33,2.12,0.98c3.55-1.46,6.65-3.79,9.04-6.73
			c0.59-0.72,0.44-1.78-0.32-2.31l0,0c-0.69-0.48-1.62-0.33-2.14,0.31c-2.05,2.53-4.72,4.53-7.78,5.79
			C23.04,34.76,22.64,35.61,22.9,36.4z"/>
	</g>
</g>
<g>
	<path class="st1" d="M51.42,22.92c-1.02,0.64-2.24,0.97-3.35,0.97c-4.25,0-5.9-2.97-5.92-5.83c-0.02-2.88,1.77-5.97,5.92-5.97
		c1.13,0,2.27,0.29,3.24,0.91c0.59,0.37,1.35,0.29,1.85-0.19c0.7-0.68,0.58-1.83-0.24-2.36c-1.47-0.96-3.13-1.45-4.86-1.45
		c-6.22,0-9.14,4.57-9.12,9.07c0.02,4.47,2.73,8.87,9.12,8.87c1.82,0,3.53-0.43,5.01-1.35c0.86-0.53,1.01-1.73,0.3-2.45
		C52.86,22.61,52.05,22.52,51.42,22.92z"/>
	<path class="st1" d="M66.03,14.42L66.03,14.42c-0.82,0-1.49,0.67-1.49,1.49v4.94c0,1.69-1.33,3.13-3.03,3.16
		c-1.96,0.03-2.99-1.38-2.99-3.24v-4.84c0-0.83-0.67-1.5-1.5-1.5h0c-0.83,0-1.5,0.67-1.5,1.5v4.87c0,3.76,2.11,5.95,5.01,5.95
		c1.7,0,2.85-0.59,4.11-1.82l0.05,0.4c0.09,0.71,0.69,1.25,1.41,1.25c0.78,0,1.42-0.64,1.42-1.42v-9.24
		C67.52,15.09,66.85,14.42,66.03,14.42z"/>
	<path class="st1" d="M73.58,12.48h7.55c0.87,0,1.57-0.7,1.57-1.57S82,9.34,81.13,9.34h-9.7c-0.89,0-1.61,0.72-1.61,1.61v13.99
		c0,0.89,0.72,1.61,1.61,1.61h9.68c0.88,0,1.6-0.72,1.6-1.6v0c0-0.88-0.72-1.6-1.6-1.6h-7.53c-0.3,0-0.54-0.24-0.54-0.54V20
		c0-0.3,0.24-0.54,0.54-0.54h7.27c0.84,0,1.51-0.68,1.51-1.51c0-0.84-0.68-1.51-1.51-1.51h-7.27c-0.3,0-0.54-0.24-0.54-0.54v-2.89
		C73.05,12.72,73.29,12.48,73.58,12.48z"/>
	<path class="st1" d="M91.78,14.23c-1.52,0-2.75,0.61-3.98,1.82l-0.05-0.4c-0.09-0.71-0.69-1.25-1.41-1.25
		c-0.78,0-1.42,0.64-1.42,1.42v9.24c0,0.82,0.67,1.49,1.49,1.49c0.82,0,1.49-0.67,1.49-1.49v-4.94c0-1.69,1.33-3.13,3.03-3.16
		c1.96-0.03,2.99,1.38,2.99,3.24v4.84c0,0.83,0.67,1.5,1.5,1.5c0.83,0,1.5-0.67,1.5-1.5v-4.87C96.92,16.37,94.63,14.23,91.78,14.23z
		"/>
	<path class="st1" d="M111.15,20.18c0-1.33-0.34-2.53-1.28-3.59l0.48-0.61c0.48-0.61,0.37-1.5-0.25-1.97
		c-0.6-0.46-1.46-0.35-1.93,0.25l-0.36,0.46c-0.84-0.57-1.82-0.69-2.78-0.69c-3.6,0-6.49,2.66-6.11,6.87
		c0.28,3.12,2.96,5.39,6.09,5.37c1.51-0.01,3.09,0.75,3.09,2.43c0,1.67-1.35,2.61-3.07,2.61c-1.36,0-2.55-0.64-2.99-1.69
		c-0.23-0.55-0.75-0.91-1.34-0.91h-0.12c-1,0-1.71,1-1.35,1.94c0.82,2.15,3.04,3.47,5.8,3.47c3.52,0,6.07-2.06,6.07-5.41
		c0-1.55-0.49-3-2.51-4.01C110.59,23.79,111.15,21.68,111.15,20.18z M105.03,23.55c-1.75,0-3.17-1.25-3.17-3.37
		c0-2.11,1.43-3.42,3.17-3.42c1.72,0,3.15,1.33,3.15,3.42C108.18,22.27,106.75,23.55,105.03,23.55z"/>
	<path class="st1" d="M114.64,14.84L114.64,14.84c-0.87,0-1.57,0.7-1.57,1.57v8.55c0,0.87,0.7,1.57,1.57,1.57h0
		c0.87,0,1.57-0.7,1.57-1.57v-8.55C116.22,15.55,115.51,14.84,114.64,14.84z"/>
	<path class="st1" d="M125.71,14.23c-1.52,0-2.75,0.61-3.98,1.82l-0.05-0.4c-0.09-0.71-0.69-1.25-1.41-1.25
		c-0.78,0-1.42,0.64-1.42,1.42v9.24c0,0.82,0.67,1.49,1.49,1.49c0.82,0,1.49-0.67,1.49-1.49l0-4.94c0-1.69,1.33-3.13,3.03-3.16
		c1.96-0.03,2.99,1.38,2.99,3.24v4.84c0,0.83,0.67,1.5,1.5,1.5h0c0.83,0,1.5-0.67,1.5-1.5v-4.87
		C130.84,16.37,128.56,14.23,125.71,14.23z"/>
	<path class="st1" d="M139.32,14.06c-3.93,0-6.44,2.65-6.44,6.34c0,3.88,2.48,6.47,6.66,6.47c1.25,0,2.62-0.3,3.77-0.9
		c0.81-0.43,0.98-1.52,0.32-2.17c-0.42-0.42-1.06-0.5-1.59-0.23c-0.73,0.37-1.68,0.58-2.46,0.58c-1.74,0-2.93-0.73-3.4-1.82
		c-0.16-0.36,0.1-0.76,0.49-0.76h7.5c0.73,0,1.33-0.6,1.32-1.33C145.43,16.12,143,14.06,139.32,14.06z M141.89,19.07h-5.05
		c-0.41,0-0.67-0.45-0.46-0.81c0.61-1.03,1.73-1.55,3.05-1.55c1.44,0,2.53,0.55,2.97,1.64C142.53,18.7,142.26,19.07,141.89,19.07z"
		/>
	<circle class="st1" cx="114.64" cy="11.38" r="1.57"/>
</g>
</svg>
