<svg xmlns="http://www.w3.org/2000/svg" width="48" height="48" viewBox="0 0 48 48">
  <g id="dollar" transform="translate(0 0)">
    <g id="Group_46" data-name="Group 46" transform="translate(0 0)">
      <g id="Group_45" data-name="Group 45">
        <path id="Path_35" data-name="Path 35" d="M40.971,7.029A24,24,0,1,0,7.029,40.971,24,24,0,1,0,40.971,7.029ZM39.64,39.64A22.118,22.118,0,1,1,8.36,8.36,22.118,22.118,0,1,1,39.64,39.64Z" transform="translate(0 0)" fill="#fff"/>
      </g>
    </g>
    <g id="Group_52" data-name="Group 52" transform="translate(18.384 11.565)">
      <g id="Group_51" data-name="Group 51">
        <path id="Path_38" data-name="Path 38" d="M203.066,134.851h-2.711a2.381,2.381,0,0,1-2.378-2.378V130.9a2.381,2.381,0,0,1,2.378-2.378h3a2.088,2.088,0,0,1,2.086,2.086.941.941,0,0,0,1.882,0,3.973,3.973,0,0,0-3.968-3.968h-.707V124.3a.941.941,0,0,0-1.882,0v2.337h-.414a4.266,4.266,0,0,0-4.261,4.261v1.577a4.266,4.266,0,0,0,4.261,4.261h2.711a2.381,2.381,0,0,1,2.378,2.378v1.577a2.381,2.381,0,0,1-2.378,2.378h-3a2.088,2.088,0,0,1-2.086-2.086.941.941,0,1,0-1.882,0,3.973,3.973,0,0,0,3.968,3.968h.707v2.337a.941.941,0,0,0,1.882,0v-2.337h.414a4.266,4.266,0,0,0,4.261-4.261v-1.577A4.266,4.266,0,0,0,203.066,134.851Z" transform="translate(-196.094 -123.357)" fill="#fff"/>
      </g>
    </g>
  </g>
</svg>
