<?xml version="1.0" encoding="UTF-8"?>
<svg width="14.195px" height="27.001px" viewBox="0 0 14.195 27.001" version="1.1" xmlns="http://www.w3.org/2000/svg" xmlns:xlink="http://www.w3.org/1999/xlink">
    <!-- Generator: Sketch 55.2 (78181) - https://sketchapp.com -->
    <desc>Created with Sketch.</desc>
    <g id="Page-1" stroke="none" stroke-width="1" fill="none" fill-rule="evenodd">
        <path d="M13.66,0.006 L10.255,0 C6.43,0 3.958,2.608 3.958,6.645 L3.958,9.709 L0.535,9.709 C0.239,9.709 0,9.956 0,10.26 L0,14.699 C0,15.003 0.239,15.249 0.535,15.249 L3.958,15.249 L3.958,26.451 C3.958,26.755 4.198,27.001 4.493,27.001 L8.96,27.001 C9.256,27.001 9.495,26.754 9.495,26.451 L9.495,15.249 L13.498,15.249 C13.794,15.249 14.033,15.003 14.033,14.699 L14.035,10.26 C14.035,10.114 13.978,9.974 13.878,9.871 C13.777,9.767 13.641,9.709 13.499,9.709 L9.495,9.709 L9.495,7.112 C9.495,5.863 9.785,5.23 11.366,5.23 L13.659,5.229 C13.955,5.229 14.195,4.982 14.195,4.679 L14.195,0.557 C14.195,0.253 13.955,0.006 13.66,0.006" id="fb" fill="#FFFFFF"/>
    </g>
</svg>