<svg xmlns="http://www.w3.org/2000/svg" width="75.341" height="67.792" viewBox="0 0 75.341 67.792">
  <g id="listing" transform="translate(0 -25.653)">
    <g id="Group_22" data-name="Group 22" transform="translate(22.65 52.078)">
      <g id="Group_21" data-name="Group 21">
        <path id="Path_21" data-name="Path 21" d="M192.849,205.228H155.1a1.18,1.18,0,1,0,0,2.359h37.749a1.18,1.18,0,0,0,0-2.359Z" transform="translate(-153.92 -205.228)" fill="#0f2132"/>
      </g>
    </g>
    <g id="Group_24" data-name="Group 24" transform="translate(22.65 64.661)">
      <g id="Group_23" data-name="Group 23" transform="translate(0 0)">
        <path id="Path_22" data-name="Path 22" d="M177.749,290.739H155.1a1.18,1.18,0,1,0,0,2.359h22.65a1.18,1.18,0,1,0,0-2.359Z" transform="translate(-153.92 -290.739)" fill="#0f2132"/>
      </g>
    </g>
    <g id="Group_26" data-name="Group 26" transform="translate(22.65 58.369)">
      <g id="Group_25" data-name="Group 25">
        <path id="Path_23" data-name="Path 23" d="M205.432,247.983H155.1a1.18,1.18,0,1,0,0,2.359h50.333a1.18,1.18,0,1,0,0-2.359Z" transform="translate(-153.92 -247.983)" fill="#0f2132"/>
      </g>
    </g>
    <g id="Group_28" data-name="Group 28" transform="translate(22.65 26.911)">
      <g id="Group_27" data-name="Group 27" transform="translate(0 0)">
        <path id="Path_24" data-name="Path 24" d="M192.849,34.205H155.1a1.18,1.18,0,0,0,0,2.359h37.749a1.18,1.18,0,0,0,0-2.359Z" transform="translate(-153.92 -34.205)" fill="#0f2132"/>
      </g>
    </g>
    <g id="Group_30" data-name="Group 30" transform="translate(22.65 39.494)">
      <g id="Group_29" data-name="Group 29" transform="translate(0 0)">
        <path id="Path_25" data-name="Path 25" d="M177.749,119.716H155.1a1.18,1.18,0,1,0,0,2.359h22.65a1.18,1.18,0,1,0,0-2.359Z" transform="translate(-153.92 -119.716)" fill="#0f2132"/>
      </g>
    </g>
    <g id="Group_32" data-name="Group 32" transform="translate(22.65 33.203)">
      <g id="Group_31" data-name="Group 31" transform="translate(0 0)">
        <path id="Path_26" data-name="Path 26" d="M205.432,76.96H155.1a1.18,1.18,0,0,0,0,2.359h50.333a1.18,1.18,0,1,0,0-2.359Z" transform="translate(-153.92 -76.96)" fill="#0f2132"/>
      </g>
    </g>
    <g id="Group_34" data-name="Group 34" transform="translate(0 75.986)">
      <g id="Group_33" data-name="Group 33">
        <path id="Path_27" data-name="Path 27" d="M15.021,367.7H2.438A2.441,2.441,0,0,0,0,370.137V382.72a2.441,2.441,0,0,0,2.438,2.438H15.021a2.441,2.441,0,0,0,2.438-2.438V370.137A2.441,2.441,0,0,0,15.021,367.7ZM15.1,382.72a.079.079,0,0,1-.079.079H2.438a.079.079,0,0,1-.079-.079V370.137a.079.079,0,0,1,.079-.079H15.021a.079.079,0,0,1,.079.079V382.72Z" transform="translate(0 -367.699)" fill="#e65400"/>
      </g>
    </g>
    <g id="Group_36" data-name="Group 36" transform="translate(22.65 77.244)">
      <g id="Group_35" data-name="Group 35">
        <path id="Path_28" data-name="Path 28" d="M192.849,376.251H155.1a1.18,1.18,0,1,0,0,2.359h37.749a1.18,1.18,0,0,0,0-2.359Z" transform="translate(-153.92 -376.251)" fill="#0f2132"/>
      </g>
    </g>
    <g id="Group_38" data-name="Group 38" transform="translate(22.65 89.827)">
      <g id="Group_37" data-name="Group 37">
        <path id="Path_29" data-name="Path 29" d="M177.749,461.762H155.1a1.18,1.18,0,1,0,0,2.359h22.65a1.18,1.18,0,1,0,0-2.359Z" transform="translate(-153.92 -461.762)" fill="#0f2132"/>
      </g>
    </g>
    <g id="Group_40" data-name="Group 40" transform="translate(22.65 83.535)">
      <g id="Group_39" data-name="Group 39">
        <path id="Path_30" data-name="Path 30" d="M205.432,419.006H155.1a1.18,1.18,0,1,0,0,2.359h50.333a1.18,1.18,0,1,0,0-2.359Z" transform="translate(-153.92 -419.006)" fill="#0f2132"/>
      </g>
    </g>
    <g id="Group_42" data-name="Group 42" transform="translate(0 25.653)">
      <g id="Group_41" data-name="Group 41" transform="translate(0 0)">
        <path id="Path_31" data-name="Path 31" d="M16.731,28.259a1.179,1.179,0,0,0-1.286.256L8.73,35.231,5.789,32.29a1.18,1.18,0,1,0-1.668,1.668L7.9,37.733a1.18,1.18,0,0,0,1.668,0L15.1,32.2v8.477a.079.079,0,0,1-.079.079H2.438a.079.079,0,0,1-.079-.079V28.091a.079.079,0,0,1,.079-.079h8.808a1.18,1.18,0,1,0,0-2.359H2.438A2.441,2.441,0,0,0,0,28.091V40.674a2.441,2.441,0,0,0,2.438,2.438H15.021a2.441,2.441,0,0,0,2.438-2.438V29.349A1.18,1.18,0,0,0,16.731,28.259Z" transform="translate(0 -25.653)" fill="#0f2132"/>
      </g>
    </g>
    <g id="Group_44" data-name="Group 44" transform="translate(0 50.82)">
      <g id="Group_43" data-name="Group 43">
        <path id="Path_32" data-name="Path 32" d="M16.731,199.284a1.179,1.179,0,0,0-1.286.256L8.73,206.256l-2.941-2.941a1.18,1.18,0,1,0-1.668,1.668L7.9,208.758a1.18,1.18,0,0,0,1.668,0l5.536-5.536V211.7a.079.079,0,0,1-.079.079H2.438a.079.079,0,0,1-.079-.079V199.116a.079.079,0,0,1,.079-.079h8.808a1.18,1.18,0,1,0,0-2.359H2.438A2.44,2.44,0,0,0,0,199.116V211.7a2.441,2.441,0,0,0,2.438,2.438H15.021a2.441,2.441,0,0,0,2.438-2.438V200.374A1.179,1.179,0,0,0,16.731,199.284Z" transform="translate(0 -196.678)" fill="#0f2132"/>
      </g>
    </g>
  </g>
</svg>
