<svg xmlns="http://www.w3.org/2000/svg" width="67.7" height="67.7" viewBox="0 0 67.7 67.7">
  <g id="mall" transform="translate(0 0)">
    <path id="Path_157" data-name="Path 157" d="M65.645,327.322A1.322,1.322,0,1,1,64.322,326,1.322,1.322,0,0,1,65.645,327.322Zm0,0" transform="translate(-54.67 -282.894)" fill="#0f2132"/>
    <path id="Path_158" data-name="Path 158" d="M66.377,65.055H65.055V33.85a3.971,3.971,0,0,0-3.967-3.967H59.369V23.272a1.322,1.322,0,0,0-1.723-1.26l-6.608,2.1V15.338a1.322,1.322,0,0,0-1.322-1.322H45.75V11.372h3.967a1.322,1.322,0,0,0,1.322-1.322V1.322A1.322,1.322,0,0,0,49.717,0H17.983A1.322,1.322,0,0,0,16.66,1.322v8.727a1.322,1.322,0,0,0,1.322,1.322h3.967v2.645H17.983a1.322,1.322,0,0,0-1.322,1.322V24.11l-6.608-2.1a1.322,1.322,0,0,0-1.723,1.26v6.611H6.611A3.971,3.971,0,0,0,2.644,33.85V65.055H1.322a1.322,1.322,0,1,0,0,2.645H66.377a1.322,1.322,0,1,0,0-2.645ZM61.088,32.528a1.323,1.323,0,0,1,1.322,1.322V65.055H59.369V32.528Zm-4.363-7.449V65.055H51.039V26.884ZM19.3,2.645h29.09V8.727H19.3Zm5.289,8.727H43.106v2.645H24.594Zm23.8,5.289V65.055H43.106V52.362a1.322,1.322,0,0,0-1.322-1.322H25.916a1.322,1.322,0,0,0-1.322,1.322V65.055H19.3V16.661ZM35.172,53.684h5.289V65.055H35.172ZM32.528,65.055H27.239V53.684h5.289ZM5.289,33.85a1.323,1.323,0,0,1,1.322-1.322H8.33v6.611a1.322,1.322,0,0,0,2.645,0V25.079l5.686,1.8V65.055H10.975V49.717a1.322,1.322,0,0,0-2.645,0V65.055H5.289Zm0,0" fill="#0f2132"/>
    <path id="Path_159" data-name="Path 159" d="M167.322,153.934h7.934a1.322,1.322,0,0,0,1.322-1.322v-5.289A1.322,1.322,0,0,0,175.256,146h-7.934A1.322,1.322,0,0,0,166,147.322v5.289A1.322,1.322,0,0,0,167.322,153.934Zm1.322-5.289h5.289v2.645h-5.289Zm0,0" transform="translate(-144.051 -126.695)" fill="#e65400"/>
    <path id="Path_160" data-name="Path 160" d="M267.322,153.934h7.934a1.322,1.322,0,0,0,1.322-1.322v-5.289A1.322,1.322,0,0,0,275.256,146h-7.934A1.322,1.322,0,0,0,266,147.322v5.289A1.322,1.322,0,0,0,267.322,153.934Zm1.322-5.289h5.289v2.645h-5.289Zm0,0" transform="translate(-230.828 -126.695)" fill="#e65400"/>
    <path id="Path_161" data-name="Path 161" d="M167.322,233.934h7.934a1.322,1.322,0,0,0,1.322-1.322v-5.289A1.322,1.322,0,0,0,175.256,226h-7.934A1.322,1.322,0,0,0,166,227.322v5.289A1.322,1.322,0,0,0,167.322,233.934Zm1.322-5.289h5.289v2.645h-5.289Zm0,0" transform="translate(-144.051 -196.117)" fill="#e65400"/>
    <path id="Path_162" data-name="Path 162" d="M267.322,233.934h7.934a1.322,1.322,0,0,0,1.322-1.322v-5.289A1.322,1.322,0,0,0,275.256,226h-7.934A1.322,1.322,0,0,0,266,227.322v5.289A1.322,1.322,0,0,0,267.322,233.934Zm1.322-5.289h5.289v2.645h-5.289Zm0,0" transform="translate(-230.828 -196.117)" fill="#e65400"/>
    <path id="Path_163" data-name="Path 163" d="M167.322,313.934h7.934a1.322,1.322,0,0,0,1.322-1.322v-5.289A1.322,1.322,0,0,0,175.256,306h-7.934A1.322,1.322,0,0,0,166,307.322v5.289A1.322,1.322,0,0,0,167.322,313.934Zm1.322-5.289h5.289v2.645h-5.289Zm0,0" transform="translate(-144.051 -265.539)" fill="#e65400"/>
    <path id="Path_164" data-name="Path 164" d="M267.322,313.934h7.934a1.322,1.322,0,0,0,1.322-1.322v-5.289A1.322,1.322,0,0,0,275.256,306h-7.934A1.322,1.322,0,0,0,266,307.322v5.289A1.322,1.322,0,0,0,267.322,313.934Zm1.322-5.289h5.289v2.645h-5.289Zm0,0" transform="translate(-230.828 -265.539)" fill="#e65400"/>
  </g>
</svg>
