<svg xmlns="http://www.w3.org/2000/svg" width="423.2" height="75" viewBox="0 0 423.2 75">
  <path id="Path_1132" data-name="Path 1132" d="M452.2,271.1H353.5a6.8,6.8,0,0,0,0,13.6h91.9v47.8H329.2V277.9a6.807,6.807,0,0,0-6.8-6.8H42.6a6.807,6.807,0,0,0-6.8,6.8v61.4a6.807,6.807,0,0,0,6.8,6.8H452.2a6.807,6.807,0,0,0,6.8-6.8V277.9A6.744,6.744,0,0,0,452.2,271.1ZM101.6,284.7H114L92.8,332.5H80.4ZM65.4,332.5H53l21.2-47.8H86.6ZM129,284.7h12.4l-21.2,47.8H107.8Zm27.2,0h12.4l-21.3,47.8H135Zm27.4,0H196l-21.2,47.8H162.4Zm27.3,0h12.4L202,332.5H189.6Zm27.2,0h12.4l-21.2,47.8H216.9Zm27.4,0h12.4l-21.2,47.8H244.3Zm27.3,0h12.4L284,332.5H271.6Zm-233.4,0-10,22.4V284.7Zm239.5,47.8,16.8-37.8v37.8Z" transform="translate(-35.8 -271.1)" fill="#ea5f1c"/>
</svg>
