<svg xmlns="http://www.w3.org/2000/svg" viewBox="0 0 20.85 20.85"><defs><style>.cls-1{fill:#B8532E;}</style></defs><g id="Layer_2" data-name="Layer 2"><g id="Layer_1-2" data-name="Layer 1"><path class="cls-1" d="M20.6,19.37l-2.21-2.21a4.35,4.35,0,1,0-1.23,1.23l2.21,2.21a.87.87,0,0,0,1.23-1.23Zm-5.83-2a2.61,2.61,0,1,1,2.61-2.61,2.61,2.61,0,0,1-2.61,2.61Z"/><path class="cls-1" d="M.87,20.85A.87.87,0,0,0,1.74,20V13.9A.87.87,0,1,0,0,13.9V20a.87.87,0,0,0,.87.87Z"/><path class="cls-1" d="M7,20V10.43a.87.87,0,0,0-1.74,0V20A.87.87,0,0,0,7,20Z"/><path class="cls-1" d="M12.16,5.21a.87.87,0,1,0-1.73,0v5.31a5.77,5.77,0,0,1,1.73-1.24Z"/><path class="cls-1" d="M16.51,0a.87.87,0,0,0-.87.87V8.76a5.75,5.75,0,0,1,1.74.52V.87A.88.88,0,0,0,16.51,0Z"/></g></g></svg>