<svg xmlns="http://www.w3.org/2000/svg" width="50.026" height="50" viewBox="0 0 50.026 50">
  <g id="real_estate_office" transform="translate(-7 -7)">
    <g id="Group_74" data-name="Group 74">
      <path id="Path_107" data-name="Path 107" d="M56.5,31.1,44,24.4V13a.945.945,0,0,0-1-1H42V8a.945.945,0,0,0-1-1H23a.945.945,0,0,0-1,1v4H21a.945.945,0,0,0-1,1v8H8a.945.945,0,0,0-1,1V56a.945.945,0,0,0,1,1H56a.945.945,0,0,0,1-1C57,30.1,57.2,31.5,56.5,31.1ZM24,9H40v3H24ZM20,48H13V46h7Zm0-9H13V37h7Zm0-9H13V28h7ZM9,23H20v3H12a.945.945,0,0,0-1,1v4a.945.945,0,0,0,1,1h8v3H12a.945.945,0,0,0-1,1v4a.945.945,0,0,0,1,1h8v3H12a.945.945,0,0,0-1,1v4a.945.945,0,0,0,1,1h8v5H9Zm13-9H42V55H39V45a.945.945,0,0,0-1-1H26a.945.945,0,0,0-1,1V55H22Zm5,41V46H37v9Zm28,0H44V26.7l11,5.9Z" fill="#fff"/>
      <path id="Path_108" data-name="Path 108" d="M26,23h4a.945.945,0,0,0,1-1V18a.945.945,0,0,0-1-1H26a.945.945,0,0,0-1,1v4A.945.945,0,0,0,26,23Zm1-4h2v2H27Z" fill="#fff"/>
      <path id="Path_109" data-name="Path 109" d="M34,23h4a.945.945,0,0,0,1-1V18a.945.945,0,0,0-1-1H34a.945.945,0,0,0-1,1v4A.945.945,0,0,0,34,23Zm1-4h2v2H35Z" fill="#fff"/>
      <path id="Path_110" data-name="Path 110" d="M26,32h4a.945.945,0,0,0,1-1V27a.945.945,0,0,0-1-1H26a.945.945,0,0,0-1,1v4A.945.945,0,0,0,26,32Zm1-4h2v2H27Z" fill="#fff"/>
      <path id="Path_111" data-name="Path 111" d="M34,32h4a.945.945,0,0,0,1-1V27a.945.945,0,0,0-1-1H34a.945.945,0,0,0-1,1v4A.945.945,0,0,0,34,32Zm1-4h2v2H35Z" fill="#fff"/>
      <path id="Path_112" data-name="Path 112" d="M26,41h4a.945.945,0,0,0,1-1V36a.945.945,0,0,0-1-1H26a.945.945,0,0,0-1,1v4A.945.945,0,0,0,26,41Zm1-4h2v2H27Z" fill="#fff"/>
      <path id="Path_113" data-name="Path 113" d="M34,41h4a.945.945,0,0,0,1-1V36a.945.945,0,0,0-1-1H34a.945.945,0,0,0-1,1v4A.945.945,0,0,0,34,41Zm1-4h2v2H35Z" fill="#fff"/>
      <path id="Path_114" data-name="Path 114" d="M47,41h4a.945.945,0,0,0,1-1V36a.945.945,0,0,0-1-1H47a.945.945,0,0,0-1,1v4A.945.945,0,0,0,47,41Zm1-4h2v2H48Z" fill="#fff"/>
      <path id="Path_115" data-name="Path 115" d="M47,50h4a.945.945,0,0,0,1-1V45a.945.945,0,0,0-1-1H47a.945.945,0,0,0-1,1v4A.945.945,0,0,0,47,50Zm1-4h2v2H48Z" fill="#fff"/>
    </g>
  </g>
</svg>
