<svg xmlns="http://www.w3.org/2000/svg" width="54.736" height="72.98" viewBox="0 0 54.736 72.98">
  <g id="tram" transform="translate(-63.996)">
    <g id="Group_107" data-name="Group 107" transform="translate(74.638 15.204)">
      <g id="Group_106" data-name="Group 106" transform="translate(0)">
        <path id="Path_165" data-name="Path 165" d="M171.15,110.948a4.568,4.568,0,0,0-4.552-4.281H144.163a4.57,4.57,0,0,0-4.552,4.281l-.955,15.484c0,4.233,12.8,4.561,16.725,4.561s16.725-.328,16.722-4.652Zm-15.77,17c-7.794,0-12.556-1.159-13.659-1.861l.924-14.958a1.521,1.521,0,0,1,1.517-1.426H166.6a1.521,1.521,0,0,1,1.517,1.429l.928,14.955C167.942,126.791,163.18,127.953,155.381,127.953Z" transform="translate(-138.656 -106.667)" fill="#0f2132"/>
      </g>
    </g>
    <g id="Group_109" data-name="Group 109" transform="translate(73.117 45.612)">
      <g id="Group_108" data-name="Group 108" transform="translate(0)">
        <path id="Path_166" data-name="Path 166" d="M132.55,320a4.561,4.561,0,1,0,4.561,4.561A4.567,4.567,0,0,0,132.55,320Zm0,6.082a1.52,1.52,0,1,1,1.52-1.52A1.521,1.521,0,0,1,132.55,326.082Z" transform="translate(-127.989 -320)" fill="#e65400"/>
      </g>
    </g>
    <g id="Group_111" data-name="Group 111" transform="translate(100.485 45.612)">
      <g id="Group_110" data-name="Group 110">
        <path id="Path_167" data-name="Path 167" d="M324.55,320a4.561,4.561,0,1,0,4.561,4.561A4.567,4.567,0,0,0,324.55,320Zm0,6.082a1.52,1.52,0,1,1,1.52-1.52A1.521,1.521,0,0,1,324.55,326.082Z" transform="translate(-319.989 -320)" fill="#e65400"/>
      </g>
    </g>
    <g id="Group_113" data-name="Group 113" transform="translate(85.281 48.653)">
      <g id="Group_112" data-name="Group 112" transform="translate(0)">
        <path id="Path_168" data-name="Path 168" d="M223.965,341.333h-9.123a1.52,1.52,0,1,0,0,3.041h9.123a1.52,1.52,0,0,0,0-3.041Z" transform="translate(-213.322 -341.333)" fill="#e65400"/>
      </g>
    </g>
    <g id="Group_115" data-name="Group 115" transform="translate(76.167)">
      <g id="Group_114" data-name="Group 114">
        <path id="Path_169" data-name="Path 169" d="M179.394,3.54C179.066,3.178,175.858,0,164.582,0S150.1,3.178,149.773,3.54a1.5,1.5,0,0,0,.088,2.1,1.536,1.536,0,0,0,2.132-.021c.027-.027,2.752-2.576,12.589-2.576,9.822,0,12.553,2.542,12.556,2.542a1.522,1.522,0,1,0,2.256-2.044Z" transform="translate(-149.387)" fill="#0f2132"/>
      </g>
    </g>
    <g id="Group_117" data-name="Group 117" transform="translate(85.28 1.518)">
      <g id="Group_116" data-name="Group 116" transform="translate(0)">
        <path id="Path_170" data-name="Path 170" d="M224.742,10.865a1.517,1.517,0,0,0-2.086.52L219.4,16.816l-3.26-5.431a1.52,1.52,0,0,0-2.606,1.566l4.561,7.6a1.518,1.518,0,0,0,2.606,0l4.561-7.6A1.52,1.52,0,0,0,224.742,10.865Z" transform="translate(-213.317 -10.647)" fill="#0f2132"/>
      </g>
    </g>
    <g id="Group_119" data-name="Group 119" transform="translate(67.036 9.122)">
      <g id="Group_118" data-name="Group 118" transform="translate(0)">
        <path id="Path_171" data-name="Path 171" d="M131.313,71.1a7.622,7.622,0,0,0-7.587-7.1H95.574a7.622,7.622,0,0,0-7.587,7.1l-2.664,40.036c0,4.479,12.82,7.6,24.327,7.6s24.327-3.123,24.324-7.7Zm-21.663,44.6c-12.367,0-20.653-3.357-21.289-4.461L91.025,71.3a4.57,4.57,0,0,1,4.549-4.257h28.152a4.57,4.57,0,0,1,4.549,4.257l2.688,39.668C130.3,112.337,122.017,115.694,109.65,115.694Z" transform="translate(-85.323 -64)" fill="#0f2132"/>
      </g>
    </g>
    <g id="Group_121" data-name="Group 121" transform="translate(63.996 59.294)">
      <g id="Group_120" data-name="Group 120" transform="translate(0)">
        <path id="Path_172" data-name="Path 172" d="M75.629,416.352a1.519,1.519,0,0,0-2.144.164l-9.122,10.643a1.52,1.52,0,1,0,2.308,1.98L75.793,418.5A1.519,1.519,0,0,0,75.629,416.352Z" transform="translate(-63.996 -415.985)" fill="#0f2132"/>
      </g>
    </g>
    <g id="Group_123" data-name="Group 123" transform="translate(106.567 59.294)">
      <g id="Group_122" data-name="Group 122" transform="translate(0)">
        <path id="Path_173" data-name="Path 173" d="M374.459,427.159l-9.122-10.643a1.52,1.52,0,0,0-2.308,1.98l9.123,10.643a1.5,1.5,0,0,0,1.152.532,1.522,1.522,0,0,0,1.156-2.512Z" transform="translate(-362.662 -415.985)" fill="#0f2132"/>
      </g>
    </g>
    <g id="Group_125" data-name="Group 125" transform="translate(67.036 66.898)">
      <g id="Group_124" data-name="Group 124" transform="translate(0)">
        <path id="Path_174" data-name="Path 174" d="M132.455,469.333H86.842a1.52,1.52,0,1,0,0,3.041h45.613a1.52,1.52,0,1,0,0-3.041Z" transform="translate(-85.322 -469.333)" fill="#0f2132"/>
      </g>
    </g>
    <g id="Group_127" data-name="Group 127" transform="translate(73.117 60.817)">
      <g id="Group_126" data-name="Group 126" transform="translate(0)">
        <path id="Path_175" data-name="Path 175" d="M162.959,426.667H129.509a1.52,1.52,0,0,0,0,3.041h33.449a1.52,1.52,0,1,0,0-3.041Z" transform="translate(-127.989 -426.667)" fill="#0f2132"/>
      </g>
    </g>
  </g>
</svg>
