<svg id="Layer_1" data-name="Layer 1" xmlns="http://www.w3.org/2000/svg" viewBox="0 0 512 512"><defs><style>.cls-1{fill:#707070;stroke:#707070;stroke-miterlimit:10;stroke-width:20px;}</style></defs><title>refresh-03</title><path class="cls-1" d="M103.9,359.82l40.52-11.49L49.16,255.75,16.57,384.37c1.39-.34,2.4-.56,3.39-.83,12-3.4,24.07-6.67,36-10.29,2.87-.87,4,0,5.39,2.25,23.18,37.61,54.42,66.47,94,86.11a220.36,220.36,0,0,0,88.71,23.05c63.15,2.87,118.35-17.1,165.77-58.59a220.38,220.38,0,0,0,52-67.89c.36-.71.68-1.44,1.24-2.65l-39.23-19c-41.68,74.27-104.06,110.73-189.46,102.58C171.88,433.17,126.58,394.9,103.9,359.82Z"/><path class="cls-1" d="M368.5,163.15l95.3,92.61L496.41,127c-5.69,1.6-10.84,3-16,4.5-7.88,2.24-15.78,4.4-23.62,6.77-2.39.73-3.64.33-5-1.9A226.71,226.71,0,0,0,396,73.94C362.69,48.3,325.14,32.86,283.35,28.06c-49.47-5.68-96.14,3.45-139.61,27.78-39.32,22-69.27,53.33-90.45,93.07-.28.52-.53,1.07-.77,1.62a5.91,5.91,0,0,0-.12,1.05l38.94,19.86c30.66-55.61,76.75-89.63,139.85-98.8,41.95-6.1,81.58,2,118.35,23.17,24.08,13.87,43.8,32.5,59.74,55.81Z"/></svg>