<svg xmlns="http://www.w3.org/2000/svg" width="44.65" height="42.845" viewBox="0 0 44.65 42.845">
  <g id="love" transform="translate(-19 -29.05)">
    <g id="Group_72" data-name="Group 72" transform="translate(19 29.05)">
      <path id="Path_103" data-name="Path 103" d="M39.356,71.9H29.715a4.292,4.292,0,0,1-4.288-4.288V52.614H21.139A2.115,2.115,0,0,1,19,50.475a2.143,2.143,0,0,1,.7-1.587L40.762,29.336a1.069,1.069,0,0,1,1.456,0l6.768,6.276V32.259a1.076,1.076,0,0,1,1.075-1.075h6.427a1.076,1.076,0,0,1,1.075,1.075v11.3l5.744,5.332a1.069,1.069,0,1,1-1.456,1.567L55.765,44.8a1.048,1.048,0,0,1-.341-.783V33.333H51.135v4.73a1.077,1.077,0,0,1-.643.984,1.065,1.065,0,0,1-1.155-.2l-7.843-7.271L21.139,50.455l5.353.01a1.076,1.076,0,0,1,1.075,1.075V67.607a2.141,2.141,0,0,0,2.139,2.139h9.641a1.075,1.075,0,0,1,.01,2.149Z" transform="translate(-19 -29.05)" fill="#fff"/>
    </g>
    <g id="Group_73" data-name="Group 73" transform="translate(33.326 53.903)">
      <path id="Path_104" data-name="Path 104" d="M144.5,279.365a3.83,3.83,0,0,1,1.233-1,3.311,3.311,0,0,1,1.486-.324,3.517,3.517,0,0,1,1.46.3,3.479,3.479,0,0,1,1.172.839,3.892,3.892,0,0,1,.778,1.285,4.367,4.367,0,0,1,.271,1.547,4.26,4.26,0,0,1-.533,2.125,3.84,3.84,0,0,1-1.5,1.5,4.366,4.366,0,0,1-2.177.533,4.013,4.013,0,0,1-3.961-2.693,8.722,8.722,0,0,1-.533-3.261,10.955,10.955,0,0,1,.323-2.806,6.028,6.028,0,0,1,.927-2.055,3.97,3.97,0,0,1,1.469-1.233,4.453,4.453,0,0,1,1.967-.42,3.989,3.989,0,0,1,1.871.42,3.213,3.213,0,0,1,1.224,1.032,2.165,2.165,0,0,1,.411,1.18.911.911,0,0,1-.254.621.872.872,0,0,1-.656.28,1.051,1.051,0,0,1-.647-.219,1.218,1.218,0,0,1-.437-.612,1.8,1.8,0,0,0-.6-.8,1.6,1.6,0,0,0-.962-.306,1.734,1.734,0,0,0-.874.254,2.272,2.272,0,0,0-.734.682A6.149,6.149,0,0,0,144.5,279.365Zm2.238,5.158a1.713,1.713,0,0,0,1.39-.682,2.785,2.785,0,0,0,.551-1.8,3.119,3.119,0,0,0-.254-1.3,2.013,2.013,0,0,0-.708-.831,1.788,1.788,0,0,0-.988-.289,1.965,1.965,0,0,0-1.74,1.067,2.473,2.473,0,0,0-.289,1.215,2.918,2.918,0,0,0,.586,1.871A1.764,1.764,0,0,0,146.738,284.524Z" transform="translate(-142.2 -273.691)" fill="#fff"/>
      <path id="Path_105" data-name="Path 105" d="M262.224,304.824h-2.142v-3.165H256.9v-2.177h3.182V296.3h2.142v3.182h3.2v2.177h-3.2Z" transform="translate(-246.872 -294.315)" fill="#fff"/>
      <path id="Path_106" data-name="Path 106" d="M378.333,284.721v-7.563c-1.408,1.084-2.352,1.617-2.841,1.617a.853.853,0,0,1-.621-.28.886.886,0,0,1-.271-.647.729.729,0,0,1,.262-.621,5.926,5.926,0,0,1,.935-.516,6.9,6.9,0,0,0,1.609-1,6.768,6.768,0,0,0,1.067-1.172c.306-.428.516-.7.6-.8a.748.748,0,0,1,.533-.149.858.858,0,0,1,.708.341,1.505,1.505,0,0,1,.262.935v9.512c0,1.11-.376,1.67-1.137,1.67a1.031,1.031,0,0,1-.813-.341A1.43,1.43,0,0,1,378.333,284.721Z" transform="translate(-354.281 -273.6)" fill="#fff"/>
    </g>
  </g>
</svg>
