<?xml version="1.0" encoding="utf-8"?>
<!-- Generator: Adobe Illustrator 26.0.0, SVG Export Plug-In . SVG Version: 6.00 Build 0)  -->
<svg version="1.1" id="Capa_1" xmlns="http://www.w3.org/2000/svg" xmlns:xlink="http://www.w3.org/1999/xlink" x="0px" y="0px"
	 viewBox="0 0 512 512" style="enable-background:new 0 0 512 512;" xml:space="preserve">
<style type="text/css">
	.st0{fill:#FFFFFF;}
</style>
<g>
	<g id="Page-1_5_">
		<g id="_x30_06---Meeting" transform="translate(0 -1)">
			<path id="Shape_29_" class="st0" d="M511.9,146.1c0-33.5-24.2-62-57.3-67.4c-33-5.4-65.1,14-75.7,45.7
				c-10.6,31.7,3.3,66.5,33,82.1c-3.8,2.4-7.3,5.2-10.4,8.3c-9.2,9.1-15.2,21-16.9,33.9c-4.8-5.5-11.8-8.7-19.1-8.7h-24.2v-59.7
				c0-26.6-17.6-49.9-43.2-57.3c22.9-18,31.9-48.5,22.4-76C311,19.4,285.1,1,256,1s-55,18.4-64.5,46s-0.5,58,22.4,76
				c-25.5,7.4-43.1,30.8-43.2,57.3V240h-24.2c-7.3,0.1-14.2,3.2-19.1,8.7c-2.4-17.4-12.4-32.8-27.3-42.2
				c27.8-14.6,42.1-46.3,34.5-76.8c-7.5-30.5-34.9-51.9-66.3-51.9S9.6,99.3,2.1,129.7s6.7,62.2,34.5,76.8c-17.4,10.9-28,30-28,50.5
				v119.4c0,16.2,7.7,31.4,20.7,41L3.6,462c-2.3,3.9-3.5,8.4-3.5,12.9v12.5c0,14.1,11.5,25.6,25.6,25.6h460.7
				c14.1,0,25.6-11.5,25.6-25.6v-12.5c0-4.5-1.1-8.9-3.4-12.8l-25.8-44.7c13-9.6,20.7-24.8,20.7-41V257.1c0-20.5-10.6-39.6-28-50.5
				C497.9,194.7,511.9,171.5,511.9,146.1L511.9,146.1z M204.8,69.4c0-28.3,22.9-51.2,51.2-51.2s51.2,22.9,51.2,51.2
				s-22.9,51.2-51.2,51.2C227.7,120.5,204.8,97.6,204.8,69.4L204.8,69.4z M187.7,180.3c0-23.5,19.1-42.6,42.7-42.7h51.2
				c23.5,0,42.6,19.1,42.7,42.7V240h-17.1v-59.7c0-4.7-3.8-8.5-8.5-8.5c-4.7,0-8.5,3.8-8.5,8.5V240h-68.3v-59.7
				c0-4.7-3.8-8.5-8.5-8.5s-8.5,3.8-8.5,8.5V240h-17.1L187.7,180.3L187.7,180.3z M139,261.3c1.5-2.7,4.4-4.3,7.5-4.3h219.1
				c3.1,0,5.9,1.6,7.5,4.3l18.7,32.4l-3.4,6h-45.4c-15.6-0.2-28.9,11.3-30.9,26.8c-0.9,8.4,1.9,16.8,7.5,23.1
				c5.7,6.3,13.7,9.9,22.2,9.9h59.9c8.5,0,16.7-3,23.2-8.3l63.9,110.7H23.4l63.9-110.7c6.6,5.3,14.8,8.3,23.2,8.3h59.9
				c8.5,0,16.5-3.6,22.2-9.9c5.7-6.3,8.4-14.7,7.5-23.1c-2-15.5-15.3-27-30.9-26.8h-45.4l-3.4-6L139,261.3z M17.1,146.1
				c0-28.3,22.9-51.2,51.2-51.2s51.2,22.9,51.2,51.2s-22.9,51.2-51.2,51.2C40,197.3,17.1,174.4,17.1,146.1z M25.6,376.5V257.1
				c0-23.5,19.1-42.6,42.7-42.7c23.5,0,42.6,19.1,42.7,42.7v18.8l-0.5,0.8L98.2,255c-2.4-4-7.5-5.3-11.5-3c-4,2.3-5.5,7.4-3.3,11.5
				l25.5,44.7c3,5.3,8.7,8.6,14.8,8.6h45.4c6.9-0.3,12.9,4.6,13.9,11.4c0.4,3.6-0.8,7.2-3.2,9.9c-2.4,2.7-5.9,4.2-9.5,4.2h-59.9
				c-7.1,0-13.7-3.8-17.2-10l-31.5-55.1c-2.4-4-7.5-5.3-11.5-3c-4,2.3-5.5,7.4-3.3,11.5l29,50.8l-38.1,66
				C30.1,396.1,25.6,386.6,25.6,376.5L25.6,376.5z M486.4,495.9H25.6c-4.7,0-8.5-3.8-8.5-8.5v-8.5h477.8v8.5
				C494.9,492.1,491.1,495.9,486.4,495.9L486.4,495.9z M486.4,257.1v119.4c0,10.1-4.5,19.6-12.2,26.1l-38.1-66l29-50.8
				c2.2-4.1,0.7-9.2-3.3-11.5c-4-2.3-9.1-1-11.5,3l-31.5,55.1c-3.5,6.2-10.1,10-17.2,10h-59.9c-3.6,0-7.1-1.5-9.5-4.2
				c-2.5-2.7-3.6-6.3-3.2-9.9c1.1-6.8,7.1-11.7,13.9-11.4h45.4c6.1,0,11.8-3.3,14.8-8.6l25.5-44.7c2.2-4.1,0.7-9.2-3.3-11.5
				c-4-2.3-9.1-1-11.5,3l-12.3,21.6l-0.5-0.8v-18.8c0-23.5,19.1-42.6,42.7-42.7C467.2,214.4,486.3,233.5,486.4,257.1L486.4,257.1z
				 M443.7,197.3c-28.3,0-51.2-22.9-51.2-51.2s22.9-51.2,51.2-51.2s51.2,22.9,51.2,51.2C494.9,174.4,472,197.3,443.7,197.3z"/>
		</g>
	</g>
</g>
</svg>
