<?xml version="1.0" encoding="utf-8"?>
<!-- Generator: Adobe Illustrator 26.0.0, SVG Export Plug-In . SVG Version: 6.00 Build 0)  -->
<svg version="1.1" id="Layer_1" xmlns="http://www.w3.org/2000/svg" xmlns:xlink="http://www.w3.org/1999/xlink" x="0px" y="0px"
	 viewBox="0 0 512 512" style="enable-background:new 0 0 512 512;" xml:space="preserve">
<style type="text/css">
	.st0{fill:#FFFFFF;}
</style>
<g>
	<path class="st0" d="M139.3,467.5h233.4c41,0,74.3-33.3,74.3-74.3V171.1c0-7.2-5.9-13.2-13.2-13.2h-79v-19.8
		c0-54.5-44.3-98.8-98.8-98.8s-98.8,44.3-98.8,98.8v19.8h-79c-7.2,0-13.2,5.9-13.2,13.2v222.1C65,434.2,98.3,467.5,139.3,467.5z
		 M183.6,138.2c0-40,32.5-72.4,72.4-72.4s72.4,32.5,72.4,72.4v19.8H183.6V138.2z M91.3,184.3h65.9v32.9c0,7.2,5.9,13.2,13.2,13.2
		s13.2-5.9,13.2-13.2v-32.9h144.9v32.9c0,7.2,5.9,13.2,13.2,13.2c7.2,0,13.2-5.9,13.2-13.2v-32.9h65.9v208.9
		c0,26.4-21.5,47.9-47.9,47.9H139.3c-26.4,0-47.9-21.5-47.9-47.9L91.3,184.3z"/>
</g>
</svg>
