<?xml version="1.0" encoding="utf-8"?>
<!-- Generator: Adobe Illustrator 26.0.0, SVG Export Plug-In . SVG Version: 6.00 Build 0)  -->
<svg version="1.1" id="Layer_1_1_" xmlns="http://www.w3.org/2000/svg" xmlns:xlink="http://www.w3.org/1999/xlink" x="0px" y="0px"
	 viewBox="0 0 512 512" style="enable-background:new 0 0 512 512;" xml:space="preserve">
<style type="text/css">
	.st0{fill:#FFFFFF;}
</style>
<path class="st0" d="M200,120c0,4.4,3.6,8,8,8h96c4.4,0,8-3.6,8-8c0-22.4-13.3-41.7-32.3-50.7c5.1-5.7,8.3-13.1,8.3-21.3
	c0-17.6-14.4-32-32-32s-32,14.4-32,32c0,8.2,3.2,15.7,8.3,21.3C213.3,78.3,200,97.6,200,120z M240,48c0-8.8,7.2-16,16-16
	c8.8,0,16,7.2,16,16s-7.2,16-16,16S240,56.8,240,48z M256,80c19.3,0,35.5,13.8,39.2,32h-78.4C220.5,93.8,236.7,80,256,80z"/>
<path class="st0" d="M328,176c0,4.4,3.6,8,8,8h96c4.4,0,8-3.6,8-8c0-22.4-13.3-41.7-32.3-50.7c5.1-5.7,8.3-13.1,8.3-21.3
	c0-17.6-14.4-32-32-32s-32,14.4-32,32c0,8.2,3.2,15.7,8.3,21.3C341.3,134.3,328,153.6,328,176z M368,104c0-8.8,7.2-16,16-16
	s16,7.2,16,16s-7.2,16-16,16S368,112.8,368,104z M384,136c19.3,0,35.5,13.8,39.2,32h-78.4C348.5,149.8,364.7,136,384,136z"/>
<path class="st0" d="M384,328c-17.6,0-32,14.4-32,32c0,8.2,3.2,15.7,8.3,21.3c-19.1,8.9-32.3,28.3-32.3,50.7c0,4.4,3.6,8,8,8h96
	c4.4,0,8-3.6,8-8c0-22.4-13.3-41.7-32.3-50.7c5.1-5.7,8.3-13.1,8.3-21.3C416,342.4,401.6,328,384,328z M368,360c0-8.8,7.2-16,16-16
	s16,7.2,16,16s-7.2,16-16,16S368,368.8,368,360z M423.2,424h-78.4c3.7-18.2,19.9-32,39.2-32S419.5,405.8,423.2,424L423.2,424z"/>
<path class="st0" d="M200,488c0,4.4,3.6,8,8,8h96c4.4,0,8-3.6,8-8c0-22.4-13.3-41.7-32.3-50.7c5.1-5.7,8.3-13.1,8.3-21.3
	c0-17.6-14.4-32-32-32s-32,14.4-32,32c0,8.2,3.2,15.7,8.3,21.3C213.3,446.3,200,465.6,200,488z M240,416c0-8.8,7.2-16,16-16
	c8.8,0,16,7.2,16,16s-7.2,16-16,16S240,424.8,240,416z M256,448c19.3,0,35.5,13.8,39.2,32h-78.4C220.5,461.8,236.7,448,256,448z"/>
<path class="st0" d="M463.7,253.3c5.1-5.7,8.3-13.1,8.3-21.3c0-17.6-14.4-32-32-32s-32,14.4-32,32c0,8.2,3.2,15.7,8.3,21.3
	c-19.1,8.9-32.3,28.3-32.3,50.7c0,4.4,3.6,8,8,8h96c4.4,0,8-3.6,8-8C496,281.6,482.7,262.3,463.7,253.3z M424,232
	c0-8.8,7.2-16,16-16s16,7.2,16,16s-7.2,16-16,16S424,240.8,424,232z M400.8,296c3.7-18.2,19.9-32,39.2-32s35.5,13.8,39.2,32H400.8z"
	/>
<path class="st0" d="M72,176c0,4.4,3.6,8,8,8h96c4.4,0,8-3.6,8-8c0-22.4-13.3-41.7-32.3-50.7c5.1-5.7,8.3-13.1,8.3-21.3
	c0-17.6-14.4-32-32-32s-32,14.4-32,32c0,8.2,3.2,15.7,8.3,21.3C85.3,134.3,72,153.6,72,176z M112,104c0-8.8,7.2-16,16-16
	s16,7.2,16,16s-7.2,16-16,16S112,112.8,112,104z M128,136c19.3,0,35.5,13.8,39.2,32H88.8C92.5,149.8,108.7,136,128,136z"/>
<path class="st0" d="M72,432c0,4.4,3.6,8,8,8h96c4.4,0,8-3.6,8-8c0-22.4-13.3-41.7-32.3-50.7c5.1-5.7,8.3-13.1,8.3-21.3
	c0-17.6-14.4-32-32-32s-32,14.4-32,32c0,8.2,3.2,15.7,8.3,21.3C85.3,390.3,72,409.6,72,432z M112,360c0-8.8,7.2-16,16-16
	s16,7.2,16,16s-7.2,16-16,16S112,368.8,112,360z M128,392c19.3,0,35.5,13.8,39.2,32H88.8C92.5,405.8,108.7,392,128,392z"/>
<path class="st0" d="M16,304c0,4.4,3.6,8,8,8h96c4.4,0,8-3.6,8-8c0-22.4-13.3-41.7-32.3-50.7c5.1-5.7,8.3-13.1,8.3-21.3
	c0-17.6-14.4-32-32-32s-32,14.4-32,32c0,8.2,3.2,15.7,8.3,21.3C29.3,262.3,16,281.6,16,304z M56,232c0-8.8,7.2-16,16-16
	s16,7.2,16,16s-7.2,16-16,16S56,240.8,56,232z M72,264c19.3,0,35.5,13.8,39.2,32H32.8C36.5,277.8,52.7,264,72,264z"/>
<path class="st0" d="M168,256c0,48.5,39.5,88,88,88s88-39.5,88-88s-39.5-88-88-88S168,207.5,168,256z M256,184c39.7,0,72,32.3,72,72
	s-32.3,72-72,72s-72-32.3-72-72S216.3,184,256,184z"/>
</svg>
