<?xml version="1.0" encoding="utf-8"?>
<!-- Generator: Adobe Illustrator 26.0.0, SVG Export Plug-In . SVG Version: 6.00 Build 0)  -->
<svg version="1.1" id="Capa_1" xmlns="http://www.w3.org/2000/svg" xmlns:xlink="http://www.w3.org/1999/xlink" x="0px" y="0px"
	 viewBox="0 0 512 512" style="enable-background:new 0 0 512 512;" xml:space="preserve">
<style type="text/css">
	.st0{fill:#FFFFFF;}
</style>
<g>
	<path class="st0" d="M261,254.5c43.4,0,78.7-35.3,78.7-78.7S304.4,97,261,97s-78.7,35.3-78.7,78.7S217.6,254.5,261,254.5z
		 M261,119.5c31,0,56.2,25.2,56.2,56.2S292,232,261,232c-31,0-56.2-25.2-56.2-56.2S230,119.5,261,119.5z"/>
	<path class="st0" d="M465,256c0-112.5-91.5-204-204-204S57,143.5,57,256s91.5,204,204,204S465,368.5,465,256z M261,437.5
		c-100.1,0-181.5-81.4-181.5-181.5S160.9,74.5,261,74.5S442.5,155.9,442.5,256S361.1,437.5,261,437.5z"/>
	<path class="st0" d="M339.8,277H182.3c-31,0-56.2,25.2-56.2,56.2v3.5c0,2.2,0.6,4.3,1.8,6.2C157.4,388,207.1,415,261,415
		c53.9,0,103.7-27,133.2-72.1c1.2-1.8,1.8-4,1.8-6.2v-3.5C396,302.2,370.8,277,339.8,277L339.8,277z M373.5,333.3
		c-25.5,37.1-67.4,59.2-112.5,59.2s-87-22.1-112.5-59.2c0-18.7,15.1-33.8,33.7-33.8h157.5C358.4,299.5,373.5,314.6,373.5,333.3z"/>
</g>
</svg>
