<svg xmlns="http://www.w3.org/2000/svg" width="78.199" height="78.325" viewBox="0 0 78.199 78.325">
  <g id="heart_1_" data-name="heart (1)" transform="translate(-63.1 -68.8)">
    <g id="Group_2" data-name="Group 2" transform="translate(63.1 68.8)">
      <g id="Group_1" data-name="Group 1" transform="translate(0 0)">
        <path id="Path_1" data-name="Path 1" d="M120.965,68.8c-8.682,0-15.836,8.054-18.744,11.862C99.313,76.854,92.158,68.8,83.476,68.8,72.242,68.8,63.1,79.135,63.1,91.812a24.085,24.085,0,0,0,7.552,17.8,1.276,1.276,0,0,0,.251.335l30.146,30.083a1.463,1.463,0,0,0,.607.377,19.177,19.177,0,0,1-2.3-6.673L73.581,108a1.429,1.429,0,0,0-.377-.481,20.744,20.744,0,0,1-6.862-15.711c0-10.9,7.678-19.749,17.113-19.749,9.33,0,17.3,12.175,17.364,12.28a1.705,1.705,0,0,0,2.741,0c.084-.126,8.033-12.28,17.364-12.28,9.435,0,17.113,8.87,17.113,19.749a21.33,21.33,0,0,1-4.874,13.744,1.161,1.161,0,0,0-.126.167,5.222,5.222,0,0,1-.481.481l-6.9,6.9a20.815,20.815,0,0,1,3.033,1.569l5.795-5.795.314-.314c.251-.251.5-.481.795-.795a1.771,1.771,0,0,0,.293-.4A24.567,24.567,0,0,0,141.3,91.812C141.341,79.135,132.2,68.8,120.965,68.8Z" transform="translate(-63.1 -68.8)" fill="#0f2132"/>
      </g>
    </g>
    <path id="Path_2" data-name="Path 2" d="M259.948,303.77v-4.644H255.3a1.318,1.318,0,0,1,0-2.636h4.644v-4.644a1.318,1.318,0,1,1,2.636,0v4.644h4.665a1.318,1.318,0,0,1,0,2.636h-4.644v4.644a1.312,1.312,0,0,1-1.318,1.318A1.33,1.33,0,0,1,259.948,303.77ZM273.3,285.779a16.983,16.983,0,1,0-3.222,26.548,1.324,1.324,0,1,0-1.381-2.259,14.489,14.489,0,1,1,4.5-4.33,1.326,1.326,0,1,0,2.2,1.485,16.924,16.924,0,0,0-2.092-21.443Z" transform="translate(-143.293 -167.65)" fill="#e65400"/>
  </g>
</svg>
